<svg width="150" height="150" viewBox="0 0 150 150" fill="none" xmlns="http://www.w3.org/2000/svg">
<path d="M117.088 59.918C124.731 59.918 130.927 53.7631 130.927 46.1707C130.927 38.5782 124.731 32.4233 117.088 32.4233C109.445 32.4233 103.25 38.5782 103.25 46.1707C103.25 53.7631 109.445 59.918 117.088 59.918Z" fill="#03DAC5"/>
<path d="M118.105 131.154V99.5556C118.105 99.113 118.283 98.6886 118.598 98.3756C118.913 98.0626 119.34 97.8865 119.786 97.886H123.602C124.048 97.8865 124.475 98.0626 124.79 98.3756C125.105 98.6886 125.282 99.113 125.283 99.5556V131.154C125.282 131.597 125.105 132.021 124.79 132.334C124.475 132.647 124.048 132.823 123.602 132.824H119.786C119.34 132.823 118.913 132.647 118.598 132.334C118.283 132.021 118.105 131.597 118.105 131.154Z" fill="#2F2E41"/>
<path d="M110.04 131.154V99.5556C110.04 99.113 110.217 98.6886 110.532 98.3756C110.848 98.0626 111.275 97.8865 111.72 97.886H115.537C115.982 97.8865 116.41 98.0626 116.725 98.3756C117.04 98.6886 117.217 99.113 117.218 99.5556V131.154C117.217 131.597 117.04 132.021 116.725 132.334C116.41 132.647 115.982 132.823 115.537 132.824H111.72C111.275 132.823 110.848 132.647 110.532 132.334C110.217 132.021 110.04 131.597 110.04 131.154Z" fill="#2F2E41"/>
<path d="M106.894 101.472V73.4882C106.894 70.761 107.985 68.1456 109.926 66.2172C111.867 64.2888 114.5 63.2054 117.245 63.2054C119.99 63.2054 122.623 64.2888 124.564 66.2172C126.506 68.1456 127.596 70.761 127.596 73.4882V101.472C127.596 101.915 127.419 102.34 127.104 102.653C126.789 102.966 126.361 103.142 125.916 103.142H108.575C108.129 103.142 107.702 102.966 107.386 102.653C107.071 102.34 106.894 101.915 106.894 101.472Z" fill="#2F2E41"/>
<path d="M105.402 52.2476L105.416 51.7339C104.454 51.7073 103.606 51.6473 102.968 51.1848C102.788 51.0462 102.639 50.8705 102.533 50.6698C102.427 50.4691 102.365 50.248 102.353 50.0216C102.341 49.8832 102.362 49.7442 102.414 49.6152C102.466 49.4863 102.547 49.3709 102.651 49.2781C103.074 48.9231 103.754 49.038 104.251 49.264L104.679 49.4589L103.858 43.5021L103.346 43.5718L104.044 48.6389C103.369 48.442 102.745 48.5268 102.317 48.8858C102.153 49.0282 102.024 49.2065 101.94 49.4067C101.857 49.6069 101.821 49.8235 101.836 50.0396C101.851 50.3439 101.933 50.6412 102.076 50.9106C102.219 51.1801 102.419 51.4153 102.663 51.5997C103.482 52.1942 104.546 52.2238 105.402 52.2476Z" fill="#2F2E41"/>
<path d="M109.604 44.0088H106.818V44.5225H109.604V44.0088Z" fill="#2F2E41"/>
<path d="M122.563 101.453C122.4 101.305 122.268 101.126 122.175 100.927C122.082 100.728 122.03 100.513 122.022 100.293L120.704 68.7225C120.695 68.5035 120.729 68.2847 120.805 68.0789C120.881 67.873 120.997 67.684 121.147 67.5227C121.296 67.3613 121.476 67.2308 121.676 67.1386C121.877 67.0464 122.093 66.9943 122.314 66.9852L126.127 66.828C126.572 66.8102 127.006 66.9685 127.334 67.2683C127.662 67.5681 127.857 67.9848 127.876 68.4271L129.193 99.9983C129.211 100.441 129.052 100.872 128.75 101.198C128.448 101.523 128.029 101.717 127.584 101.736L123.771 101.893C123.649 101.898 123.527 101.89 123.407 101.869C123.091 101.814 122.798 101.669 122.563 101.453Z" fill="#03DAC5"/>
<path d="M127.429 80.0853H121.223C120.777 80.0848 120.35 79.9088 120.035 79.5958C119.72 79.2828 119.542 78.8584 119.542 78.4157V69.6822C119.542 68.4219 120.046 67.2132 120.943 66.322C121.84 65.4308 123.057 64.9302 124.326 64.9302C125.594 64.9302 126.811 65.4308 127.708 66.322C128.605 67.2132 129.109 68.4219 129.109 69.6822V78.4157C129.109 78.8584 128.932 79.2828 128.616 79.5958C128.301 79.9088 127.874 80.0848 127.429 80.0853Z" fill="#2F2E41"/>
<path d="M87.5766 91.7853L85.1438 88.8643C84.8601 88.5229 84.7243 88.0837 84.7663 87.643C84.8082 87.2023 85.0243 86.7961 85.3673 86.5135L109.875 66.371C110.219 66.089 110.661 65.9539 111.105 65.9956C111.548 66.0372 111.957 66.252 112.242 66.5929L114.674 69.5142C114.815 69.6831 114.921 69.8779 114.986 70.0875C115.051 70.297 115.073 70.5172 115.053 70.7355C115.032 70.9538 114.968 71.1659 114.865 71.3597C114.762 71.5534 114.621 71.7251 114.451 71.8648L89.943 92.0073C89.6479 92.2497 89.2784 92.3848 88.8955 92.3904C88.5126 92.3959 88.1392 92.2715 87.8371 92.0378C87.7414 91.9631 87.6541 91.8785 87.5766 91.7853Z" fill="#03DAC5"/>
<path d="M105.65 78.6655L101.719 73.8954C101.437 73.5525 101.303 73.1126 101.348 72.6721C101.392 72.2317 101.61 71.8266 101.955 71.5458L108.757 66.0134C109.243 65.618 109.803 65.3215 110.404 65.1409C111.006 64.9604 111.637 64.8993 112.262 64.9611C112.888 65.023 113.494 65.2066 114.048 65.5014C114.602 65.7963 115.092 66.1966 115.49 66.6795C115.888 67.1625 116.186 67.7186 116.368 68.316C116.549 68.9135 116.611 69.5407 116.548 70.1617C116.486 70.7828 116.301 71.3855 116.004 71.9356C115.707 72.4856 115.304 72.9722 114.818 73.3674L108.015 78.8998C107.67 79.1798 107.227 79.3124 106.784 79.2685C106.34 79.2246 105.933 79.0077 105.65 78.6655Z" fill="#2F2E41"/>
<path d="M120.558 48.4982C121.278 47.3023 121.842 45.9846 121.575 44.5676C121.336 43.3023 120.419 42.3169 119.101 42.1875C118.307 42.1097 117.517 42.3202 116.742 42.4572C116.106 42.5681 115.461 42.6097 114.816 42.5812C113.519 42.5226 112.248 42.2024 111.079 41.64C109.893 41.0887 108.84 40.2915 107.99 39.3021C107.14 38.3126 106.513 37.1539 106.152 35.9038C105.365 33.0593 105.949 29.8292 107.817 27.5138L107.169 27.3438L108.013 30.0985C108.029 30.155 108.058 30.2071 108.098 30.2508C108.138 30.2945 108.187 30.3287 108.242 30.3508C108.296 30.373 108.356 30.3825 108.415 30.3787C108.474 30.3749 108.531 30.3578 108.583 30.3288C110.112 29.3686 111.823 28.7271 113.61 28.4433C115.396 28.1595 117.223 28.2393 118.978 28.6778C119.969 28.9253 120.927 29.2913 121.83 29.7677C122.271 30.0004 122.663 29.3354 122.221 29.1023C120.525 28.2234 118.668 27.6954 116.76 27.5502C114.853 27.4051 112.936 27.6458 111.125 28.2578C110.093 28.607 109.108 29.079 108.191 29.6634L108.761 29.8937L107.917 27.1389C107.898 27.0745 107.863 27.0161 107.814 26.9692C107.766 26.9224 107.706 26.8888 107.641 26.8716C107.576 26.8545 107.507 26.8545 107.442 26.8715C107.377 26.8886 107.317 26.9221 107.269 26.9689C106.4 28.0636 105.763 29.3217 105.397 30.6674C105.031 32.0131 104.942 33.4185 105.138 34.799C105.326 36.1595 105.802 37.4652 106.534 38.6302C107.266 39.7953 108.238 40.7935 109.386 41.5594C110.532 42.3282 111.821 42.8634 113.177 43.1342C114.533 43.4051 115.93 43.406 117.286 43.1371C118.045 42.9921 118.906 42.7846 119.651 43.1004C119.921 43.2298 120.159 43.4168 120.349 43.648C120.538 43.8792 120.673 44.1489 120.746 44.438C121.168 45.8588 120.45 47.2081 119.716 48.3895L120.558 48.4982Z" fill="#2F2E41"/>
<path d="M113.625 75.5266L113.615 75.5265C113.471 75.526 113.331 75.4768 113.218 75.3869C113.105 75.2969 113.027 75.1716 112.995 75.0314L113.046 64.3282C113.013 64.1833 113.031 64.0317 113.097 63.8984C113.163 63.7651 113.272 63.6582 113.408 63.5953C115.283 62.7201 117.221 62.6025 119.333 63.2364C119.494 63.2839 119.631 63.3922 119.713 63.5381C119.795 63.6841 119.817 63.8562 119.774 64.0179L114.249 75.0487C114.214 75.1864 114.134 75.3083 114.02 75.395C113.907 75.4817 113.768 75.528 113.625 75.5266Z" fill="#CCCCCC"/>
<path d="M149.741 133H85.6145C85.546 133 85.4802 132.973 85.4317 132.925C85.3832 132.877 85.356 132.811 85.356 132.743C85.356 132.675 85.3832 132.61 85.4317 132.562C85.4802 132.513 85.546 132.486 85.6145 132.486H149.741C149.81 132.486 149.876 132.513 149.924 132.562C149.973 132.61 150 132.675 150 132.743C150 132.811 149.973 132.877 149.924 132.925C149.876 132.973 149.81 133 149.741 133Z" fill="#3F3D56"/>
<path d="M86.8816 95.9582H38.7865C38.1353 95.9574 37.5109 95.7001 37.0504 95.2426C36.5899 94.7851 36.3308 94.1649 36.3301 93.5179V58.0702C36.3308 57.4233 36.5899 56.803 37.0504 56.3455C37.5109 55.8881 38.1353 55.6307 38.7865 55.63H86.8816C87.5329 55.6307 88.1573 55.8881 88.6178 56.3455C89.0783 56.803 89.3373 57.4233 89.3381 58.0702V93.5179C89.3373 94.1649 89.0783 94.7851 88.6178 95.2426C88.1573 95.7001 87.5329 95.9574 86.8816 95.9582Z" fill="white"/>
<path d="M45.0122 78.8532L54.3135 79.0049H59.7311C59.971 79.0046 60.201 78.9098 60.3707 78.7413C60.5404 78.5727 60.6358 78.3442 60.6361 78.1058V77.7917L55.971 72.8086C55.8882 72.7201 55.7882 72.6492 55.6772 72.5999C55.5662 72.5507 55.4463 72.5242 55.3247 72.522C55.2031 72.5198 55.0823 72.542 54.9695 72.5872C54.8568 72.6324 54.7543 72.6997 54.6683 72.7851L50.0802 77.343C49.9589 77.4633 49.7947 77.5308 49.6233 77.5309C49.452 77.5309 49.2877 77.4635 49.1663 77.3434L48.4873 76.6699C48.3174 76.5016 48.0872 76.4071 47.8473 76.4073C47.6074 76.4074 47.3773 76.5021 47.2076 76.6705L45.0122 78.8532Z" fill="#03DAC5"/>
<path d="M86.8816 95.9582H38.7865C38.1353 95.9574 37.5109 95.7001 37.0504 95.2426C36.5899 94.7851 36.3308 94.1649 36.3301 93.5179V58.0702C36.3308 57.4233 36.5899 56.803 37.0504 56.3455C37.5109 55.8881 38.1353 55.6307 38.7865 55.63H86.8816C87.5329 55.6307 88.1573 55.8881 88.6178 56.3455C89.0783 56.803 89.3373 57.4233 89.3381 58.0702V93.5179C89.3373 94.1649 89.0783 94.7851 88.6178 95.2426C88.1573 95.7001 87.5329 95.9574 86.8816 95.9582ZM38.7865 56.4006C38.3409 56.4011 37.9137 56.5772 37.5986 56.8902C37.2836 57.2032 37.1063 57.6276 37.1058 58.0702V93.5179C37.1063 93.9606 37.2836 94.385 37.5987 94.698C37.9137 95.011 38.3409 95.187 38.7865 95.1876H86.8816C87.3272 95.1871 87.7544 95.011 88.0695 94.698C88.3846 94.385 88.5618 93.9606 88.5623 93.5179V58.0702C88.5618 57.6276 88.3846 57.2032 88.0695 56.8902C87.7544 56.5772 87.3272 56.4011 86.8816 56.4006H38.7865Z" fill="#3F3D56"/>
<path d="M81.4515 61.9233H44.2166C44.0109 61.9233 43.8136 61.8421 43.6681 61.6976C43.5226 61.5531 43.4409 61.3571 43.4409 61.1527C43.4409 60.9483 43.5226 60.7523 43.6681 60.6078C43.8136 60.4633 44.0109 60.3821 44.2166 60.3821H81.4515C81.6573 60.3821 81.8546 60.4633 82.0001 60.6078C82.1455 60.7523 82.2273 60.9483 82.2273 61.1527C82.2273 61.3571 82.1455 61.5531 82.0001 61.6976C81.8546 61.8421 81.6573 61.9233 81.4515 61.9233Z" fill="#3F3D56"/>
<path d="M81.5804 66.1616H44.3456C44.1398 66.1616 43.9425 66.0804 43.797 65.9359C43.6516 65.7913 43.5698 65.5953 43.5698 65.391C43.5698 65.1866 43.6516 64.9906 43.797 64.8461C43.9425 64.7015 44.1398 64.6204 44.3456 64.6204H81.5804C81.7862 64.6204 81.9835 64.7015 82.129 64.8461C82.2744 64.9906 82.3562 65.1866 82.3562 65.391C82.3562 65.5953 82.2744 65.7913 82.129 65.9359C81.9835 66.0804 81.7862 66.1616 81.5804 66.1616Z" fill="#3F3D56"/>
<path d="M81.7097 70.3998H63.868C63.6623 70.3998 63.465 70.3187 63.3195 70.1741C63.174 70.0296 63.0923 69.8336 63.0923 69.6292C63.0923 69.4249 63.174 69.2289 63.3195 69.0843C63.465 68.9398 63.6623 68.8586 63.868 68.8586H81.7097C81.9155 68.8586 82.1128 68.9398 82.2583 69.0843C82.4037 69.2289 82.4855 69.4249 82.4855 69.6292C82.4855 69.8336 82.4037 70.0296 82.2583 70.1741C82.1128 70.3187 81.9155 70.3998 81.7097 70.3998Z" fill="#3F3D56"/>
<path d="M81.8391 74.6381H63.9974C63.7917 74.6381 63.5944 74.5569 63.4489 74.4124C63.3034 74.2679 63.2217 74.0719 63.2217 73.8675C63.2217 73.6631 63.3034 73.4671 63.4489 73.3226C63.5944 73.1781 63.7917 73.0969 63.9974 73.0969H81.8391C82.0449 73.0969 82.2422 73.1781 82.3876 73.3226C82.5331 73.4671 82.6148 73.6631 82.6148 73.8675C82.6148 74.0719 82.5331 74.2679 82.3876 74.4124C82.2422 74.5569 82.0449 74.6381 81.8391 74.6381Z" fill="#3F3D56"/>
<path d="M81.9685 78.8765H64.1268C63.9211 78.8765 63.7238 78.7953 63.5783 78.6508C63.4328 78.5063 63.3511 78.3103 63.3511 78.1059C63.3511 77.9016 63.4328 77.7055 63.5783 77.561C63.7238 77.4165 63.9211 77.3353 64.1268 77.3353H81.9685C82.1742 77.3353 82.3716 77.4165 82.517 77.561C82.6625 77.7055 82.7442 77.9016 82.7442 78.1059C82.7442 78.3103 82.6625 78.5063 82.517 78.6508C82.3716 78.7953 82.1742 78.8765 81.9685 78.8765Z" fill="#3F3D56"/>
<path d="M82.0975 83.1148H44.8626C44.6569 83.1148 44.4596 83.0336 44.3141 82.8891C44.1686 82.7446 44.0869 82.5486 44.0869 82.3442C44.0869 82.1398 44.1686 81.9438 44.3141 81.7993C44.4596 81.6548 44.6569 81.5736 44.8626 81.5736H82.0975C82.3033 81.5736 82.5006 81.6548 82.646 81.7993C82.7915 81.9438 82.8732 82.1398 82.8732 82.3442C82.8732 82.5486 82.7915 82.7446 82.646 82.8891C82.5006 83.0336 82.3033 83.1148 82.0975 83.1148Z" fill="#3F3D56"/>
<path d="M82.2269 87.3531H44.992C44.7863 87.3531 44.589 87.2719 44.4435 87.1274C44.298 86.9829 44.2163 86.7869 44.2163 86.5825C44.2163 86.3781 44.298 86.1821 44.4435 86.0376C44.589 85.8931 44.7863 85.8119 44.992 85.8119H82.2269C82.4327 85.8119 82.63 85.8931 82.7754 86.0376C82.9209 86.1821 83.0026 86.3781 83.0026 86.5825C83.0026 86.7869 82.9209 86.9829 82.7754 87.1274C82.63 87.2719 82.4327 87.3531 82.2269 87.3531Z" fill="#3F3D56"/>
<path d="M82.3563 91.5914H45.1214C44.9157 91.5914 44.7184 91.5102 44.5729 91.3657C44.4274 91.2212 44.3457 91.0251 44.3457 90.8208C44.3457 90.6164 44.4274 90.4204 44.5729 90.2759C44.7184 90.1314 44.9157 90.0502 45.1214 90.0502H82.3563C82.562 90.0502 82.7594 90.1314 82.9048 90.2759C83.0503 90.4204 83.132 90.6164 83.132 90.8208C83.132 91.0251 83.0503 91.2212 82.9048 91.3657C82.7594 91.5102 82.562 91.5914 82.3563 91.5914Z" fill="#3F3D56"/>
<path d="M59.7311 79.1333H45.2509C45.0353 79.1339 44.8232 79.08 44.6344 78.9767H44.6308L44.5651 78.9373C44.3791 78.8222 44.2256 78.6619 44.1194 78.4714C44.0132 78.281 43.9576 78.0667 43.958 77.849V70.143C43.9584 69.8025 44.0947 69.476 44.3371 69.2353C44.5795 68.9945 44.9081 68.859 45.2509 68.8586H59.7311C60.0739 68.859 60.4025 68.9945 60.6449 69.2353C60.8873 69.476 61.0236 69.8025 61.024 70.143V77.849C61.0236 78.1895 60.8873 78.516 60.6449 78.7567C60.4025 78.9975 60.0739 79.1329 59.7311 79.1333ZM44.8076 78.4808L44.8447 78.5035C44.9661 78.58 45.1071 78.6203 45.2509 78.6196H59.7311C59.9368 78.6194 60.134 78.5381 60.2794 78.3936C60.4248 78.2492 60.5066 78.0533 60.5068 77.849V70.143C60.5066 69.9387 60.4248 69.7428 60.2794 69.5983C60.134 69.4539 59.9368 69.3726 59.7311 69.3724H45.2509C45.0452 69.3726 44.848 69.4539 44.7026 69.5983C44.5572 69.7428 44.4754 69.9387 44.4752 70.143V77.849C44.475 77.9732 44.5051 78.0955 44.563 78.2055C44.6209 78.3156 44.7048 78.41 44.8076 78.4808Z" fill="#3F3D56"/>
<path d="M0.554253 101.63C0.425024 101.658 0.306332 101.722 0.211771 101.813C0.117211 101.905 0.0506076 102.022 0.0196074 102.149C-0.0113929 102.277 -0.00553818 102.411 0.0364943 102.535C0.0785269 102.66 0.155041 102.77 0.257264 102.854L3.36715 105.39C3.41261 105.427 3.45025 105.474 3.47798 105.526C3.50382 105.578 3.51851 105.635 3.52115 105.694L3.74234 110.377C3.74674 110.53 3.80288 110.678 3.90174 110.795C4.00061 110.913 4.13645 110.994 4.28743 111.026L4.29293 111.027C4.44209 111.063 4.59885 111.047 4.73825 110.984C4.87764 110.92 4.99166 110.812 5.06215 110.677L6.1663 108.648C6.20333 108.582 6.25795 108.526 6.32431 108.488C6.39068 108.449 6.46629 108.43 6.54305 108.431C6.59952 108.431 6.65538 108.442 6.70713 108.465C6.75888 108.487 6.8054 108.52 6.84374 108.561L12.2344 114.208C12.3122 114.29 12.4088 114.352 12.5161 114.388C12.6234 114.425 12.738 114.435 12.8501 114.417C12.9618 114.4 13.0677 114.357 13.1589 114.29C13.2501 114.224 13.3239 114.137 13.3741 114.036L21.1352 98.3795C21.1938 98.2616 21.2178 98.1296 21.2044 97.9988C21.191 97.868 21.1406 97.7436 21.0592 97.6399C20.9777 97.5362 20.8685 97.4575 20.744 97.4128C20.6195 97.368 20.4849 97.3591 20.3555 97.387L20.1015 97.4413L0.554253 101.63ZM0.434853 102.638C0.373602 102.588 0.327814 102.522 0.302724 102.447C0.277634 102.372 0.274259 102.292 0.292987 102.215C0.311714 102.138 0.351793 102.069 0.408623 102.013C0.465453 101.958 0.536739 101.92 0.614328 101.904L20.1554 97.7164L20.4155 97.6605C20.493 97.6442 20.5736 97.6498 20.648 97.6767C20.7224 97.7037 20.7877 97.7508 20.8365 97.8128C20.8853 97.8748 20.9155 97.9492 20.9238 98.0275C20.9321 98.1057 20.9181 98.1847 20.8834 98.2555L13.1224 113.912C13.0923 113.973 13.0479 114.025 12.9931 114.065C12.9383 114.105 12.8746 114.131 12.8074 114.141C12.7403 114.151 12.6717 114.145 12.6075 114.123C12.5433 114.101 12.4853 114.064 12.4385 114.015L7.04793 108.369C6.99525 108.312 6.93316 108.265 6.86439 108.23L20.4168 98.3403C20.47 98.3022 20.5083 98.2468 20.5248 98.1837C20.5413 98.1206 20.5352 98.0537 20.5073 97.9946C20.4795 97.9356 20.4317 97.888 20.3723 97.8602C20.3129 97.8324 20.2456 97.8261 20.1821 97.8424C20.1665 97.8462 20.1513 97.8515 20.1368 97.8582L3.65422 105.284C3.62199 105.243 3.58527 105.206 3.54474 105.174L0.434853 102.638Z" fill="#E6E6E6"/>
<path d="M0.554253 101.63C0.425024 101.658 0.306332 101.722 0.211771 101.813C0.117211 101.905 0.0506076 102.022 0.0196074 102.149C-0.0113929 102.277 -0.00553818 102.411 0.0364943 102.535C0.0785269 102.66 0.155041 102.77 0.257264 102.854L3.36715 105.39C3.41261 105.427 3.45025 105.474 3.47798 105.526C3.50382 105.578 3.51851 105.635 3.52115 105.694L3.74234 110.377C3.74674 110.53 3.80288 110.678 3.90174 110.795C4.00061 110.913 4.13645 110.994 4.28743 111.026L4.29293 111.027C4.44209 111.063 4.59885 111.047 4.73825 110.984C4.87764 110.92 4.99166 110.812 5.06215 110.677L6.1663 108.648C6.20333 108.582 6.25795 108.526 6.32431 108.488C6.39068 108.449 6.46629 108.43 6.54305 108.431C6.59952 108.431 6.65538 108.442 6.70713 108.465C6.75888 108.487 6.8054 108.52 6.84374 108.561L12.2344 114.208C12.3122 114.29 12.4088 114.352 12.5161 114.388C12.6234 114.425 12.738 114.435 12.8501 114.417C12.9618 114.4 13.0677 114.357 13.1589 114.29C13.2501 114.224 13.3239 114.137 13.3741 114.036L21.1352 98.3795C21.1938 98.2616 21.2178 98.1296 21.2044 97.9988C21.191 97.868 21.1406 97.7436 21.0592 97.6399C20.9777 97.5362 20.8685 97.4575 20.744 97.4128C20.6195 97.368 20.4849 97.3591 20.3555 97.387L20.1015 97.4413L0.554253 101.63ZM0.434853 102.638C0.373602 102.588 0.327814 102.522 0.302724 102.447C0.277634 102.372 0.274259 102.292 0.292987 102.215C0.311714 102.138 0.351793 102.069 0.408623 102.013C0.465453 101.958 0.536739 101.92 0.614328 101.904L20.1554 97.7164L20.4155 97.6605C20.493 97.6442 20.5736 97.6498 20.648 97.6767C20.7224 97.7037 20.7877 97.7508 20.8365 97.8128C20.8853 97.8748 20.9155 97.9492 20.9238 98.0275C20.9321 98.1057 20.9181 98.1847 20.8834 98.2555L13.1224 113.912C13.0923 113.973 13.0479 114.025 12.9931 114.065C12.9383 114.105 12.8746 114.131 12.8074 114.141C12.7403 114.151 12.6717 114.145 12.6075 114.123C12.5432 114.101 12.4853 114.064 12.4385 114.015L7.04793 108.369C6.99525 108.312 6.93315 108.265 6.86438 108.23C6.76594 108.178 6.65629 108.151 6.54494 108.151C6.52925 108.15 6.51325 108.151 6.49719 108.152L6.49585 108.151C6.37651 108.158 6.26092 108.195 6.16004 108.259C6.05916 108.323 5.97635 108.411 5.91944 108.515L4.81498 110.546C4.77282 110.627 4.70418 110.692 4.62021 110.73C4.53623 110.768 4.44184 110.776 4.35233 110.754L4.34957 110.754C4.25873 110.735 4.17692 110.687 4.11757 110.616C4.05822 110.545 4.02487 110.456 4.02301 110.364L3.80189 105.681C3.80006 105.632 3.79263 105.583 3.77975 105.535L3.78006 105.533C3.76785 105.487 3.75075 105.443 3.72906 105.401C3.70836 105.359 3.68326 105.32 3.6542 105.284C3.62197 105.243 3.58526 105.206 3.54474 105.174L0.434853 102.638Z" fill="#CCCCCC"/>
<path d="M3.65416 105.284L20.1367 97.8581C20.1513 97.8514 20.1664 97.8461 20.182 97.8423C20.2456 97.8261 20.3129 97.8324 20.3723 97.8602C20.4317 97.888 20.4794 97.9355 20.5073 97.9946C20.5351 98.0536 20.5413 98.1205 20.5247 98.1836C20.5082 98.2467 20.47 98.3021 20.4167 98.3402L6.86433 108.23L6.62521 108.404L6.45939 108.179L6.4958 108.151L6.49714 108.152L20.2495 98.1147L3.78002 105.533L3.77971 105.535L3.70795 105.566L3.5918 105.312L3.65416 105.284Z" fill="#CCCCCC"/>
<path d="M98.7388 109.593L79.1915 105.404L78.9375 105.35C78.8082 105.322 78.6735 105.331 78.549 105.376C78.4245 105.42 78.3153 105.499 78.2338 105.603C78.1524 105.706 78.102 105.831 78.0886 105.962C78.0752 106.093 78.0992 106.224 78.1578 106.342L85.9189 121.999C85.9691 122.1 86.0429 122.187 86.1341 122.253C86.2253 122.319 86.3312 122.363 86.4429 122.38C86.555 122.398 86.6696 122.388 86.7769 122.351C86.8841 122.314 86.9808 122.252 87.0586 122.171L92.4492 116.524C92.4876 116.483 92.5341 116.45 92.5859 116.428C92.6376 116.405 92.6935 116.394 92.7499 116.394C92.8267 116.393 92.9023 116.412 92.9687 116.451C93.035 116.489 93.0897 116.544 93.1267 116.611L94.2308 118.64C94.3013 118.775 94.4154 118.883 94.5547 118.947C94.6941 119.01 94.8509 119.026 95.0001 118.99L95.0056 118.989C95.1565 118.957 95.2924 118.876 95.3913 118.758C95.4901 118.641 95.5463 118.493 95.5507 118.34L95.7718 113.657C95.7745 113.598 95.7892 113.541 95.815 113.488C95.8427 113.436 95.8804 113.39 95.9258 113.353L99.0357 110.817C99.138 110.733 99.2145 110.623 99.2565 110.498C99.2985 110.374 99.3044 110.24 99.2734 110.112C99.2424 109.985 99.1758 109.868 99.0812 109.776C98.9867 109.684 98.868 109.621 98.7388 109.593ZM98.8582 110.601L95.7483 113.137C95.7078 113.169 95.671 113.206 95.6388 113.247L79.1562 105.821C79.1417 105.814 79.1265 105.809 79.1109 105.805C79.0474 105.789 78.9801 105.795 78.9207 105.823C78.8613 105.851 78.8135 105.898 78.7857 105.958C78.7579 106.017 78.7517 106.083 78.7682 106.147C78.7847 106.21 78.823 106.265 78.8763 106.303L92.4286 116.193C92.3599 116.228 92.2978 116.275 92.2451 116.332L86.8545 121.978C86.8077 122.027 86.7498 122.064 86.6855 122.086C86.6213 122.108 86.5527 122.114 86.4856 122.104C86.4184 122.093 86.3547 122.067 86.2999 122.028C86.2451 121.988 86.2007 121.936 86.1706 121.875L78.4096 106.218C78.3749 106.148 78.3609 106.069 78.3692 105.99C78.3775 105.912 78.4078 105.838 78.4565 105.776C78.5053 105.714 78.5706 105.667 78.6451 105.64C78.7195 105.613 78.8 105.607 78.8775 105.623L79.1376 105.679L98.6787 109.867C98.7563 109.883 98.8276 109.921 98.8844 109.976C98.9412 110.031 98.9813 110.101 99 110.178C99.0188 110.255 99.0154 110.335 98.9903 110.41C98.9652 110.484 98.9194 110.551 98.8582 110.601Z" fill="#E6E6E6"/>
<path d="M98.7388 109.593L79.1915 105.404L78.9375 105.35C78.8082 105.322 78.6735 105.331 78.549 105.376C78.4245 105.42 78.3153 105.499 78.2338 105.603C78.1524 105.706 78.102 105.831 78.0886 105.962C78.0752 106.093 78.0992 106.224 78.1578 106.342L85.9189 121.999C85.9691 122.1 86.0429 122.187 86.1341 122.253C86.2253 122.319 86.3312 122.363 86.4429 122.38C86.555 122.398 86.6696 122.388 86.7769 122.351C86.8841 122.314 86.9808 122.252 87.0586 122.171L92.4492 116.524C92.4876 116.483 92.5341 116.45 92.5859 116.428C92.6376 116.405 92.6935 116.394 92.7499 116.394C92.8267 116.393 92.9023 116.412 92.9687 116.451C93.035 116.489 93.0897 116.544 93.1267 116.611L94.2308 118.64C94.3013 118.775 94.4154 118.883 94.5547 118.947C94.6941 119.01 94.8509 119.026 95.0001 118.99L95.0056 118.989C95.1565 118.957 95.2924 118.876 95.3913 118.758C95.4901 118.641 95.5463 118.493 95.5507 118.34L95.7718 113.657C95.7745 113.598 95.7892 113.541 95.815 113.488C95.8427 113.436 95.8804 113.39 95.9258 113.353L99.0357 110.817C99.138 110.733 99.2145 110.623 99.2565 110.498C99.2985 110.374 99.3044 110.24 99.2734 110.112C99.2424 109.985 99.1758 109.868 99.0812 109.776C98.9867 109.684 98.868 109.621 98.7388 109.593ZM98.8582 110.601L95.7483 113.137C95.7078 113.169 95.671 113.206 95.6388 113.247C95.6098 113.283 95.5847 113.322 95.564 113.363C95.5423 113.406 95.5252 113.45 95.513 113.496L95.5133 113.498C95.5004 113.545 95.493 113.595 95.4911 113.644L95.27 118.327C95.2681 118.419 95.2348 118.508 95.1754 118.579C95.1161 118.65 95.0343 118.698 94.9434 118.717L94.9407 118.717C94.8512 118.739 94.7568 118.731 94.6728 118.693C94.5888 118.655 94.5202 118.59 94.478 118.508L93.3736 116.478C93.3167 116.374 93.2339 116.286 93.133 116.222C93.0321 116.158 92.9165 116.121 92.7972 116.114L92.7958 116.115C92.7798 116.114 92.7638 116.113 92.7481 116.114C92.6367 116.114 92.5271 116.141 92.4286 116.192C92.3599 116.228 92.2978 116.275 92.2451 116.332L86.8545 121.978C86.8077 122.027 86.7498 122.064 86.6856 122.086C86.6213 122.108 86.5527 122.114 86.4856 122.104C86.4184 122.093 86.3547 122.067 86.2999 122.028C86.2451 121.988 86.2007 121.936 86.1706 121.875L78.4096 106.218C78.3749 106.148 78.3609 106.069 78.3692 105.99C78.3775 105.912 78.4078 105.838 78.4565 105.776C78.5053 105.714 78.5706 105.667 78.6451 105.64C78.7195 105.613 78.8 105.607 78.8775 105.623L79.1376 105.679L98.6787 109.867C98.7563 109.883 98.8276 109.921 98.8844 109.976C98.9412 110.031 98.9813 110.101 99 110.178C99.0188 110.255 99.0154 110.335 98.9903 110.41C98.9652 110.484 98.9194 110.551 98.8582 110.601Z" fill="#CCCCCC"/>
<path d="M95.7013 113.275L95.5851 113.529L95.5134 113.498L95.5131 113.496L79.0436 106.078L92.796 116.115L92.7973 116.114L92.8337 116.142L92.6679 116.367L92.4288 116.192L78.8764 106.303C78.8231 106.265 78.7849 106.21 78.7684 106.147C78.7518 106.083 78.758 106.017 78.7858 105.957C78.8137 105.898 78.8614 105.851 78.9208 105.823C78.9802 105.795 79.0475 105.789 79.1111 105.805C79.1267 105.809 79.1418 105.814 79.1564 105.821L95.6389 113.247L95.7013 113.275Z" fill="#CCCCCC"/>
<path d="M21.9157 16.2969C21.7911 16.1681 21.633 16.0762 21.459 16.0314C21.2849 15.9866 21.1018 15.9906 20.9299 16.043C20.758 16.0954 20.6042 16.1941 20.4854 16.3282C20.3667 16.4623 20.2877 16.6265 20.2573 16.8026L19.4464 22.1215C19.4337 22.1999 19.4055 22.275 19.3635 22.3426C19.3193 22.4087 19.2618 22.4652 19.1947 22.5084L13.8043 26.0006C13.6268 26.1095 13.492 26.2752 13.4221 26.4704C13.3522 26.6656 13.3515 26.8787 13.4199 27.0744L13.4224 27.0815C13.4879 27.2784 13.6175 27.4481 13.7908 27.5639C13.964 27.6797 14.171 27.735 14.3794 27.7212L17.5605 27.584C17.6651 27.5799 17.7689 27.6039 17.861 27.6534C17.9531 27.7029 18.03 27.7761 18.0838 27.8654C18.1236 27.9298 18.1493 28.0018 18.1592 28.0768C18.1691 28.1517 18.163 28.2279 18.1413 28.3003L15.2546 38.3849C15.2125 38.5309 15.2074 38.685 15.2398 38.8335C15.2722 38.9819 15.3411 39.1201 15.4403 39.2357C15.5406 39.3524 15.6673 39.4438 15.81 39.5024C15.9526 39.561 16.1073 39.5851 16.2612 39.5729L40.2747 37.6429C40.4917 37.6261 40.6968 37.5375 40.8572 37.3913C40.9494 37.3078 41.0238 37.2068 41.076 37.0943C41.1282 36.9817 41.1571 36.8599 41.1612 36.7361C41.1652 36.6122 41.1442 36.4888 41.0994 36.3732C41.0546 36.2575 40.987 36.152 40.9004 36.0627L40.657 35.8091L21.9157 16.2969ZM20.6378 16.8571C20.6575 16.731 20.7199 16.6153 20.8146 16.5291C20.9277 16.4265 21.0766 16.3718 21.2296 16.3766C21.3827 16.3815 21.5278 16.4454 21.6341 16.5549L40.3693 36.0611L40.6188 36.3207C40.7065 36.4123 40.7605 36.5307 40.7718 36.6566C40.7778 36.7313 40.7689 36.8063 40.7455 36.8775C40.7222 36.9487 40.685 37.0146 40.6359 37.0715C40.5869 37.1283 40.5271 37.175 40.4598 37.2088C40.3926 37.2426 40.3193 37.2629 40.2441 37.2685L16.2306 39.1985C16.1629 39.2039 16.0948 39.1975 16.0293 39.1798C15.9567 39.1609 15.8886 39.1279 15.8289 39.0827C15.7693 39.0375 15.7193 38.981 15.6818 38.9164C15.6444 38.8518 15.6202 38.7805 15.6107 38.7065C15.6013 38.6326 15.6067 38.5575 15.6267 38.4857L18.5133 28.4012C18.543 28.3019 18.555 28.1981 18.5486 28.0946L39.8147 36.7921C39.8861 36.8222 39.9649 36.8305 40.041 36.8161C40.1172 36.8016 40.1873 36.765 40.2425 36.7109C40.2781 36.6761 40.3063 36.6345 40.3254 36.5887C40.3445 36.5429 40.3541 36.4937 40.3538 36.4441C40.3535 36.3945 40.3431 36.3455 40.3234 36.2999C40.3036 36.2543 40.2749 36.2131 40.2389 36.1788C40.2234 36.1635 40.2064 36.1498 40.1883 36.1378L19.774 22.3774C19.7993 22.3125 19.8171 22.2449 19.8269 22.176L20.6378 16.8571Z" fill="#E6E6E6"/>
<path d="M21.9157 16.2969C21.7911 16.1681 21.633 16.0762 21.459 16.0314C21.2849 15.9866 21.1018 15.9906 20.9299 16.043C20.758 16.0954 20.6042 16.1941 20.4854 16.3282C20.3667 16.4623 20.2877 16.6265 20.2573 16.8026L19.4464 22.1215C19.4337 22.1999 19.4055 22.275 19.3635 22.3426C19.3193 22.4087 19.2618 22.4652 19.1947 22.5084L13.8043 26.0006C13.6268 26.1095 13.492 26.2752 13.4221 26.4704C13.3522 26.6656 13.3515 26.8787 13.4199 27.0744L13.4224 27.0815C13.4879 27.2784 13.6175 27.4481 13.7908 27.5639C13.964 27.6797 14.171 27.735 14.3794 27.7212L17.5605 27.584C17.6651 27.5799 17.7689 27.6039 17.861 27.6534C17.9531 27.7029 18.03 27.7761 18.0838 27.8654C18.1236 27.9298 18.1493 28.0018 18.1592 28.0768C18.1691 28.1517 18.163 28.2279 18.1413 28.3003L15.2546 38.3849C15.2125 38.5309 15.2074 38.685 15.2398 38.8335C15.2722 38.9819 15.3411 39.1201 15.4403 39.2357C15.5406 39.3524 15.6673 39.4438 15.81 39.5024C15.9526 39.561 16.1073 39.5851 16.2612 39.5729L40.2747 37.6429C40.4917 37.6261 40.6968 37.5375 40.8572 37.3913C40.9494 37.3078 41.0238 37.2068 41.076 37.0943C41.1282 36.9817 41.1571 36.8599 41.1612 36.7361C41.1652 36.6122 41.1442 36.4888 41.0994 36.3732C41.0546 36.2575 40.987 36.152 40.9004 36.0627L40.657 35.8091L21.9157 16.2969ZM20.6378 16.8571C20.6575 16.731 20.7199 16.6153 20.8146 16.5291C20.9277 16.4265 21.0766 16.3718 21.2296 16.3766C21.3827 16.3815 21.5278 16.4454 21.6341 16.5549L40.3693 36.0611L40.6188 36.3207C40.7065 36.4123 40.7605 36.5307 40.7718 36.6566C40.7778 36.7313 40.7689 36.8063 40.7455 36.8775C40.7222 36.9487 40.685 37.0146 40.6359 37.0715C40.5869 37.1283 40.5271 37.175 40.4598 37.2088C40.3926 37.2426 40.3193 37.2629 40.2441 37.2685L16.2306 39.1985C16.1629 39.2039 16.0948 39.1975 16.0293 39.1798C15.9567 39.1609 15.8886 39.1279 15.8289 39.0827C15.7693 39.0375 15.7193 38.981 15.6818 38.9164C15.6444 38.8518 15.6202 38.7805 15.6107 38.7065C15.6013 38.6326 15.6067 38.5575 15.6267 38.4857L18.5133 28.4012C18.543 28.3019 18.555 28.1981 18.5486 28.0946C18.5403 27.9457 18.495 27.8012 18.4167 27.6739C18.4063 27.6556 18.3941 27.6377 18.3819 27.6199L18.3813 27.6181C18.2877 27.4854 18.1619 27.3783 18.0155 27.3067C17.8691 27.2352 17.7069 27.2016 17.5439 27.209L14.361 27.3468C14.2357 27.3555 14.1111 27.3222 14.0072 27.2522C13.9032 27.1822 13.8259 27.0796 13.7876 26.9608L13.7864 26.9572C13.7444 26.8399 13.7444 26.7118 13.7865 26.5946C13.8286 26.4773 13.9101 26.3781 14.0173 26.3136L19.4077 22.8215C19.4649 22.7852 19.5178 22.7427 19.5655 22.6948L19.5674 22.6942C19.6131 22.6485 19.6537 22.5981 19.6887 22.5439C19.7231 22.4916 19.7517 22.4358 19.774 22.3774C19.7993 22.3125 19.8171 22.2449 19.8269 22.176L20.6378 16.8571Z" fill="#CCCCCC"/>
<path d="M19.7739 22.3774L40.1882 36.1377C40.2064 36.1497 40.2233 36.1634 40.2388 36.1787C40.294 36.2313 40.3316 36.2996 40.3465 36.3741C40.3614 36.4487 40.3529 36.526 40.3222 36.5956C40.2803 36.6878 40.2037 36.7601 40.1088 36.7968C40.0139 36.8335 39.9083 36.8318 39.8146 36.792L18.5485 28.0945L18.1729 27.9413L18.3227 27.5955L18.3813 27.618L18.3819 27.6198L39.9639 36.4444L19.5673 22.6941L19.5655 22.6947L19.4776 22.6342L19.697 22.3251L19.7739 22.3774Z" fill="#CCCCCC"/>
</svg>
