<svg width="150" height="150" viewBox="0 0 150 150" fill="none" xmlns="http://www.w3.org/2000/svg">
<path d="M87.3976 132.703H16.3518C14.7342 132.701 13.1833 132.056 12.0393 130.91C10.8954 129.764 10.2519 128.21 10.25 126.589V23.3635C10.2519 21.7425 10.8954 20.1886 12.0393 19.0425C13.1833 17.8965 14.7341 17.2519 16.3516 17.25H87.3978C89.0153 17.2519 90.5661 17.8965 91.71 19.0425C92.854 20.1886 93.4976 21.7426 93.4994 23.3636V126.589C93.4976 128.21 92.854 129.764 91.71 130.91C90.5661 132.056 89.0152 132.701 87.3976 132.703Z" fill="#E6FBF9" stroke="#03DAC5" stroke-width="0.5"/>
<path d="M87.523 128.893H16.2265C15.7074 128.892 15.2097 128.685 14.8427 128.318C14.4756 127.95 14.2691 127.451 14.2686 126.931V23.0216C14.2691 22.5016 14.4756 22.003 14.8427 21.6352C15.2097 21.2675 15.7074 21.0607 16.2265 21.0601H87.523C88.0421 21.0607 88.5397 21.2675 88.9068 21.6352C89.2739 22.003 89.4803 22.5016 89.4809 23.0216V126.931C89.4803 127.451 89.2739 127.95 88.9068 128.318C88.5397 128.685 88.0421 128.892 87.523 128.893Z" fill="white"/>
<path d="M51.6043 19.4904C51.9027 19.4904 52.1446 19.248 52.1446 18.949C52.1446 18.6501 51.9027 18.4077 51.6043 18.4077C51.3059 18.4077 51.064 18.6501 51.064 18.949C51.064 19.248 51.3059 19.4904 51.6043 19.4904Z" fill="white"/>
<path d="M51.8742 103.118C55.6833 103.118 58.7713 100.024 58.7713 96.2078C58.7713 92.3916 55.6833 89.2979 51.8742 89.2979C48.065 89.2979 44.9771 92.3916 44.9771 96.2078C44.9771 100.024 48.065 103.118 51.8742 103.118Z" fill="#9AF0E8"/>
<path d="M56.1924 82.9451H47.5563L42.3425 57.3936C42.2086 56.0594 42.3552 54.7118 42.7729 53.4378C43.1905 52.1638 43.8701 50.9916 44.7676 49.9969C45.6651 49.0021 46.7608 48.2067 47.9839 47.6621C49.207 47.1175 50.5305 46.8358 51.8689 46.835C53.2074 46.8342 54.5312 47.1144 55.7549 47.6575C56.9787 48.2007 58.0753 48.9947 58.974 49.9884C59.8727 50.9821 60.5536 52.1535 60.9728 53.427C61.392 54.7005 61.5402 56.0479 61.4078 57.3823L56.1924 82.9451Z" fill="#9AF0E8"/>
<path d="M85.8051 48.85L85.8051 48.85H85.8071H117.372C118.839 48.85 120.261 49.3498 121.407 50.2673C122.552 51.1849 123.352 52.4656 123.674 53.899L139.623 124.775C139.789 125.513 139.792 126.278 139.632 127.016C139.472 127.755 139.152 128.45 138.695 129.052C138.239 129.654 137.656 130.148 136.989 130.501C136.321 130.853 135.585 131.055 134.831 131.092L102.382 132.694C100.705 132.777 99.0559 132.245 97.7412 131.199C96.4266 130.153 95.5367 128.663 95.2378 127.008L86.1904 76.8974L84.479 67.4188L81.9536 53.4313C81.852 52.8683 81.8755 52.2898 82.0226 51.737C82.1697 51.1842 82.4368 50.6707 82.8046 50.2332C83.1725 49.7957 83.6321 49.4449 84.1507 49.2058C84.6694 48.9668 85.2342 48.8453 85.8051 48.85Z" fill="#9AF0E8" stroke="#03DAC5" stroke-width="0.5"/>
<path d="M113.217 50.1279H116.901C117.96 50.1279 118.986 50.4905 119.81 51.1554C120.634 51.8204 121.207 52.7477 121.432 53.7835L136.741 124.081C136.829 124.486 136.829 124.905 136.741 125.31C136.653 125.714 136.478 126.095 136.229 126.426C135.981 126.757 135.664 127.03 135.3 127.227C134.936 127.424 134.534 127.54 134.122 127.567L101.778 129.691C100.865 129.751 99.9625 129.472 99.2421 128.908C98.5217 128.344 98.0339 127.533 97.8718 126.632L84.8085 53.9723C84.7239 53.502 84.7434 53.0189 84.8656 52.557C84.9878 52.095 85.2096 51.6656 85.5155 51.299C85.8215 50.9324 86.2039 50.6375 86.636 50.4352C87.0681 50.2328 87.5393 50.1279 88.0162 50.1279H91.5116C91.8499 50.1279 92.1788 50.2397 92.4474 50.4458C92.7159 50.652 92.9091 50.9411 92.997 51.2684C93.0747 51.5573 93.2452 51.8126 93.4823 51.9946C93.7193 52.1766 94.0097 52.2752 94.3083 52.2752H110.902C111.487 52.2752 112.05 52.0541 112.48 51.656C112.909 51.2579 113.172 50.7121 113.217 50.1279V50.1279Z" fill="white"/>
<path d="M115.426 116.419C118.583 115.823 120.61 112.524 119.953 109.052C119.297 105.58 116.207 103.249 113.05 103.846C109.894 104.442 107.867 107.74 108.523 111.212C109.179 114.684 112.27 117.016 115.426 116.419Z" fill="#35E1D1"/>
<path d="M115.36 96.306L108.147 97.669L99.0547 73.4185C98.6954 72.1303 98.568 70.7849 98.6806 69.4688C98.7932 68.1527 99.1434 66.8952 99.7085 65.7774C100.274 64.6595 101.041 63.7062 101.962 62.9787C102.882 62.2513 103.936 61.7659 105.053 61.5539C106.171 61.3419 107.329 61.4079 108.451 61.7477C109.574 62.0876 110.637 62.6937 111.572 63.527C112.507 64.3603 113.293 65.4023 113.879 66.5858C114.465 67.7693 114.839 69.0681 114.976 70.3984L115.36 96.306Z" fill="#35E1D1"/>
</svg>
