<svg width="400" height="400" viewBox="0 0 400 400" fill="none" xmlns="http://www.w3.org/2000/svg">
<path d="M352.774 282.027H61.3469C61.2123 282.027 61.0832 281.973 60.988 281.878C60.8928 281.783 60.8394 281.654 60.8394 281.519C60.8394 281.384 60.8928 281.255 60.988 281.16C61.0832 281.065 61.2123 281.012 61.3469 281.012H352.774C352.908 281.012 353.037 281.065 353.133 281.16C353.228 281.255 353.281 281.384 353.281 281.519C353.279 281.653 353.224 281.78 353.13 281.875C353.035 281.97 352.907 282.024 352.774 282.027Z" fill="#484646"/>
<path d="M304.937 93.6323H108.077V241.325H304.937V93.6323Z" fill="white"/>
<path d="M304.947 241.853H108.037C107.897 241.853 107.763 241.797 107.664 241.698C107.565 241.599 107.509 241.465 107.509 241.325V93.6324C107.509 93.5635 107.523 93.4954 107.549 93.4319C107.576 93.3684 107.615 93.3109 107.664 93.2627C107.713 93.2145 107.772 93.1766 107.836 93.1512C107.9 93.1258 107.968 93.1134 108.037 93.1147H304.947C305.084 93.1147 305.216 93.1693 305.313 93.2663C305.41 93.3634 305.464 93.4951 305.464 93.6324V241.325C305.466 241.394 305.453 241.462 305.428 241.526C305.403 241.59 305.365 241.648 305.316 241.698C305.268 241.747 305.211 241.786 305.147 241.812C305.084 241.839 305.016 241.853 304.947 241.853ZM108.615 240.838H304.409V94.1602H108.605L108.615 240.838Z" fill="#484646"/>
<path d="M157.853 228.12H142.709C142.58 228.12 142.456 228.069 142.365 227.977C142.273 227.886 142.222 227.762 142.222 227.633V155.446C142.225 155.317 142.277 155.195 142.367 155.104C142.458 155.013 142.581 154.961 142.709 154.959H157.853C157.981 154.961 158.104 155.013 158.195 155.104C158.285 155.195 158.338 155.317 158.34 155.446V227.633C158.34 227.762 158.289 227.886 158.197 227.977C158.106 228.069 157.982 228.12 157.853 228.12ZM143.196 227.156H157.406V155.933H143.196V227.156Z" fill="#D1D1D1"/>
<path d="M185.786 228.12H170.642C170.513 228.12 170.389 228.069 170.297 227.977C170.206 227.886 170.155 227.762 170.155 227.633V185.297C170.157 185.17 170.21 185.048 170.301 184.959C170.392 184.87 170.515 184.82 170.642 184.82H185.786C185.913 184.82 186.036 184.87 186.127 184.959C186.218 185.048 186.27 185.17 186.273 185.297V227.633C186.273 227.762 186.222 227.886 186.13 227.977C186.039 228.069 185.915 228.12 185.786 228.12ZM171.129 227.156H185.339V185.784H171.129V227.156Z" fill="#D1D1D1"/>
<path d="M213.719 228.12H198.575C198.511 228.12 198.448 228.107 198.39 228.083C198.331 228.058 198.278 228.022 198.234 227.977C198.189 227.931 198.154 227.877 198.131 227.818C198.108 227.759 198.096 227.696 198.098 227.633V165.85C198.098 165.723 198.148 165.602 198.237 165.512C198.327 165.423 198.448 165.373 198.575 165.373H213.719C213.782 165.371 213.845 165.383 213.904 165.406C213.963 165.429 214.017 165.464 214.063 165.509C214.108 165.553 214.144 165.606 214.169 165.665C214.193 165.723 214.206 165.786 214.206 165.85V227.633C214.207 227.697 214.196 227.761 214.172 227.821C214.148 227.88 214.112 227.935 214.066 227.98C214.021 228.026 213.966 228.062 213.907 228.086C213.847 228.11 213.783 228.121 213.719 228.12ZM199.062 227.156H213.272V166.337H199.062V227.156Z" fill="#D1D1D1"/>
<path d="M241.651 228.12H226.508C226.444 228.12 226.381 228.107 226.323 228.083C226.264 228.058 226.211 228.022 226.167 227.977C226.122 227.931 226.087 227.877 226.064 227.818C226.041 227.759 226.029 227.696 226.031 227.633V201.131C226.031 201.004 226.081 200.881 226.17 200.79C226.259 200.699 226.38 200.646 226.508 200.644H241.651C241.781 200.644 241.905 200.695 241.996 200.786C242.087 200.878 242.139 201.002 242.139 201.131V227.633C242.14 227.697 242.128 227.761 242.104 227.821C242.08 227.88 242.045 227.935 241.999 227.98C241.954 228.026 241.899 228.062 241.84 228.086C241.78 228.11 241.716 228.121 241.651 228.12ZM226.995 227.156H241.205V201.618H226.995V227.156Z" fill="#D1D1D1"/>
<path d="M269.594 228.12H254.45C254.386 228.121 254.322 228.11 254.262 228.086C254.203 228.062 254.148 228.026 254.103 227.98C254.057 227.935 254.021 227.88 253.998 227.821C253.974 227.761 253.962 227.697 253.963 227.633V165.85C253.963 165.786 253.976 165.723 254 165.665C254.025 165.606 254.061 165.553 254.107 165.509C254.152 165.464 254.206 165.429 254.265 165.406C254.324 165.383 254.387 165.371 254.45 165.373H269.594C269.721 165.373 269.842 165.423 269.932 165.512C270.021 165.602 270.071 165.723 270.071 165.85V227.633C270.073 227.696 270.061 227.759 270.038 227.818C270.015 227.877 269.98 227.931 269.935 227.977C269.891 228.022 269.838 228.058 269.779 228.083C269.721 228.107 269.658 228.12 269.594 228.12ZM254.927 227.156H269.137V166.337H254.927V227.156Z" fill="#D1D1D1"/>
<path d="M269.229 130.71H243.61C243.476 130.71 243.347 130.657 243.251 130.562C243.156 130.466 243.103 130.337 243.103 130.203C243.103 130.068 243.156 129.939 243.251 129.844C243.347 129.749 243.476 129.695 243.61 129.695H269.229C269.363 129.695 269.493 129.749 269.588 129.844C269.683 129.939 269.736 130.068 269.736 130.203C269.736 130.337 269.683 130.466 269.588 130.562C269.493 130.657 269.363 130.71 269.229 130.71Z" fill="#D1D1D1"/>
<path d="M269.229 136.364H243.61C243.541 136.374 243.471 136.369 243.403 136.349C243.336 136.33 243.274 136.296 243.221 136.25C243.169 136.204 243.126 136.148 243.097 136.084C243.068 136.021 243.053 135.952 243.053 135.882C243.053 135.812 243.068 135.743 243.097 135.679C243.126 135.616 243.169 135.559 243.221 135.513C243.274 135.468 243.336 135.434 243.403 135.414C243.471 135.394 243.541 135.39 243.61 135.4H269.229C269.298 135.39 269.369 135.394 269.436 135.414C269.503 135.434 269.565 135.468 269.618 135.513C269.671 135.559 269.713 135.616 269.742 135.679C269.771 135.743 269.786 135.812 269.786 135.882C269.786 135.952 269.771 136.021 269.742 136.084C269.713 136.148 269.671 136.204 269.618 136.25C269.565 136.296 269.503 136.33 269.436 136.349C269.369 136.369 269.298 136.374 269.229 136.364Z" fill="#D1D1D1"/>
<path d="M260.287 142.068H243.61C243.476 142.068 243.347 142.015 243.251 141.92C243.156 141.824 243.103 141.695 243.103 141.561C243.103 141.426 243.156 141.297 243.251 141.202C243.347 141.107 243.476 141.053 243.61 141.053H260.287C260.421 141.053 260.55 141.107 260.646 141.202C260.741 141.297 260.794 141.426 260.794 141.561C260.794 141.695 260.741 141.824 260.646 141.92C260.55 142.015 260.421 142.068 260.287 142.068Z" fill="#D1D1D1"/>
<path d="M169.607 118.033H143.988C143.919 118.043 143.848 118.038 143.781 118.018C143.714 117.999 143.652 117.965 143.599 117.919C143.546 117.874 143.504 117.817 143.475 117.753C143.446 117.69 143.431 117.621 143.431 117.551C143.431 117.481 143.446 117.412 143.475 117.348C143.504 117.285 143.546 117.228 143.599 117.182C143.652 117.137 143.714 117.103 143.781 117.083C143.848 117.064 143.919 117.059 143.988 117.069H169.607C169.676 117.059 169.746 117.064 169.813 117.083C169.881 117.103 169.943 117.137 169.995 117.182C170.048 117.228 170.091 117.285 170.12 117.348C170.149 117.412 170.164 117.481 170.164 117.551C170.164 117.621 170.149 117.69 170.12 117.753C170.091 117.817 170.048 117.874 169.995 117.919C169.943 117.965 169.881 117.999 169.813 118.018C169.746 118.038 169.676 118.043 169.607 118.033Z" fill="#D1D1D1"/>
<path d="M160.695 123.687H143.988C143.853 123.687 143.724 123.633 143.629 123.538C143.534 123.443 143.48 123.314 143.48 123.179C143.48 123.044 143.534 122.915 143.629 122.82C143.724 122.725 143.853 122.672 143.988 122.672H160.695C160.829 122.672 160.959 122.725 161.054 122.82C161.149 122.915 161.202 123.044 161.202 123.179C161.202 123.314 161.149 123.443 161.054 123.538C160.959 123.633 160.829 123.687 160.695 123.687Z" fill="#D1D1D1"/>
<path d="M235.927 175.502C228.01 175.502 221.036 166.57 215.413 159.364C211.658 154.553 208.105 150.016 205.588 150.016H205.527C202.787 150.097 199.123 152.218 195.225 154.471C190.049 157.516 184.172 160.856 178.701 160.561C168.449 160.003 149.022 137.156 148.251 136.201C148.206 136.157 148.17 136.104 148.145 136.046C148.121 135.987 148.108 135.925 148.108 135.861C148.108 135.798 148.121 135.735 148.145 135.677C148.17 135.619 148.206 135.566 148.251 135.521C148.351 135.44 148.479 135.401 148.608 135.412C148.737 135.423 148.857 135.484 148.941 135.582C149.134 135.816 168.916 159.08 178.752 159.607C183.938 159.912 189.683 156.562 194.748 153.639C198.737 151.335 202.513 149.143 205.497 149.051H205.598C208.582 149.051 211.942 153.355 216.175 158.775C221.717 165.809 228.527 174.548 235.927 174.548H236.373C243.042 174.223 246.168 168.519 249.487 162.48C252.532 156.847 255.77 151.031 262.083 149.823C262.21 149.799 262.34 149.826 262.447 149.898C262.553 149.971 262.627 150.082 262.651 150.208C262.675 150.335 262.648 150.466 262.576 150.572C262.504 150.679 262.392 150.752 262.266 150.777C256.399 151.893 253.313 157.516 250.34 162.957C247.041 168.966 243.63 175.137 236.424 175.523L235.927 175.502Z" fill="#D1D1D1"/>
<path d="M282.546 228.12H130.468C130.399 228.13 130.329 228.125 130.261 228.105C130.194 228.086 130.132 228.052 130.079 228.006C130.026 227.96 129.984 227.904 129.955 227.84C129.926 227.777 129.911 227.708 129.911 227.638C129.911 227.568 129.926 227.499 129.955 227.435C129.984 227.372 130.026 227.315 130.079 227.269C130.132 227.224 130.194 227.19 130.261 227.17C130.329 227.15 130.399 227.146 130.468 227.156H282.546C282.661 227.172 282.767 227.23 282.844 227.319C282.921 227.408 282.963 227.521 282.963 227.638C282.963 227.755 282.921 227.868 282.844 227.956C282.767 228.045 282.661 228.103 282.546 228.12Z" fill="#D1D1D1"/>
<path d="M148.982 138.81C148.38 138.81 147.791 138.631 147.29 138.297C146.79 137.962 146.399 137.487 146.169 136.93C145.938 136.374 145.878 135.762 145.996 135.171C146.113 134.58 146.403 134.038 146.829 133.612C147.255 133.186 147.797 132.896 148.388 132.779C148.979 132.661 149.591 132.721 150.147 132.952C150.704 133.182 151.179 133.573 151.514 134.073C151.848 134.574 152.027 135.163 152.027 135.765C152.027 136.573 151.706 137.347 151.135 137.918C150.564 138.489 149.79 138.81 148.982 138.81ZM148.982 133.735C148.581 133.735 148.188 133.854 147.854 134.077C147.52 134.3 147.26 134.617 147.107 134.988C146.953 135.359 146.913 135.767 146.991 136.161C147.069 136.555 147.263 136.917 147.547 137.2C147.83 137.484 148.192 137.678 148.586 137.756C148.98 137.834 149.388 137.794 149.759 137.64C150.13 137.487 150.447 137.227 150.67 136.893C150.893 136.559 151.012 136.167 151.012 135.765C151.009 135.228 150.794 134.715 150.414 134.336C150.033 133.958 149.519 133.745 148.982 133.745V133.735Z" fill="#D1D1D1"/>
<path d="M262.215 153.284C261.613 153.284 261.024 153.105 260.523 152.771C260.023 152.436 259.632 151.961 259.402 151.404C259.171 150.848 259.111 150.236 259.229 149.645C259.346 149.054 259.636 148.512 260.062 148.086C260.488 147.66 261.03 147.37 261.621 147.252C262.212 147.135 262.824 147.195 263.38 147.426C263.937 147.656 264.412 148.046 264.747 148.547C265.082 149.048 265.26 149.637 265.26 150.239C265.26 151.046 264.939 151.821 264.368 152.392C263.797 152.963 263.023 153.284 262.215 153.284ZM262.215 148.209C261.814 148.209 261.421 148.328 261.087 148.551C260.754 148.774 260.493 149.091 260.34 149.462C260.186 149.833 260.146 150.241 260.224 150.635C260.302 151.029 260.496 151.39 260.78 151.674C261.064 151.958 261.425 152.152 261.819 152.23C262.213 152.308 262.621 152.268 262.992 152.114C263.363 151.961 263.68 151.701 263.903 151.367C264.126 151.033 264.245 150.64 264.245 150.239C264.24 149.704 264.024 149.193 263.643 148.817C263.263 148.44 262.75 148.229 262.215 148.229V148.209Z" fill="#D1D1D1"/>
<path d="M304.937 93.6323H108.077V105.559H304.937V93.6323Z" fill="white"/>
<path d="M304.947 106.086H108.037C107.968 106.088 107.9 106.075 107.836 106.05C107.772 106.025 107.713 105.987 107.664 105.938C107.615 105.89 107.576 105.833 107.549 105.769C107.523 105.706 107.509 105.638 107.509 105.569V93.6324C107.509 93.5635 107.523 93.4954 107.549 93.4319C107.576 93.3684 107.615 93.3109 107.664 93.2627C107.713 93.2145 107.772 93.1766 107.836 93.1512C107.9 93.1258 107.968 93.1134 108.037 93.1147H304.947C305.084 93.1147 305.216 93.1693 305.313 93.2663C305.41 93.3634 305.464 93.4951 305.464 93.6324V105.528C305.47 105.599 305.461 105.671 305.437 105.739C305.414 105.806 305.377 105.868 305.328 105.921C305.279 105.973 305.22 106.015 305.155 106.044C305.089 106.072 305.018 106.087 304.947 106.086ZM108.615 105.071H304.409V94.1602H108.605L108.615 105.071Z" fill="#484646"/>
<path d="M278.415 84.5075H194.505V143.398H278.415V84.5075Z" fill="white"/>
<path d="M278.415 143.915H194.505C194.366 143.915 194.234 143.861 194.135 143.764C194.036 143.668 193.979 143.536 193.977 143.398V84.5278C193.977 84.4585 193.99 84.3899 194.017 84.3258C194.044 84.2618 194.082 84.2036 194.131 84.1546C194.18 84.1056 194.239 84.0667 194.303 84.0402C194.367 84.0137 194.435 84 194.505 84H278.415C278.483 84 278.552 84.0137 278.615 84.0403C278.679 84.067 278.736 84.106 278.784 84.1552C278.833 84.2043 278.87 84.2626 278.896 84.3266C278.921 84.3906 278.934 84.459 278.932 84.5278V143.398C278.932 143.535 278.878 143.667 278.781 143.764C278.684 143.861 278.552 143.915 278.415 143.915ZM195.032 142.9H277.887V85.0454H195.032V142.9Z" fill="#484646"/>
<path d="M218.672 99.9964L234.13 115.445C234.208 115.531 234.303 115.6 234.41 115.646C234.517 115.691 234.633 115.713 234.749 115.709C242.504 115.709 250.265 115.709 258.033 115.709H258.419C258.291 119.368 257.285 122.943 255.486 126.132C253.687 129.321 251.148 132.03 248.082 134.032C245.016 136.034 241.514 137.27 237.871 137.634C234.228 137.999 230.55 137.483 227.148 136.128C223.747 134.774 220.72 132.622 218.325 129.853C215.929 127.084 214.234 123.779 213.383 120.218C212.532 116.657 212.55 112.943 213.435 109.39C214.32 105.837 216.047 102.549 218.469 99.8035L218.672 99.9964Z" fill="#FF931E"/>
<path d="M236.373 92.0388V114.085H236.597H257.912C258.378 114.085 258.378 114.085 258.348 113.597C258.085 109.403 256.679 105.361 254.283 101.908C251.888 98.4552 248.594 95.7232 244.757 94.0079C242.415 92.9887 239.923 92.3579 237.378 92.1403L236.373 92.0388Z" fill="#D1D1D1"/>
<path d="M234.749 113.79V92.0591C232.186 92.1925 229.659 92.7232 227.259 93.6323C224.39 94.7705 221.773 96.4602 219.555 98.6058L234.749 113.79Z" fill="#D1D1D1"/>
<path d="M269.747 126.843H259.992C259.858 126.843 259.729 126.79 259.634 126.695C259.538 126.599 259.485 126.47 259.485 126.336C259.485 126.201 259.538 126.072 259.634 125.977C259.729 125.882 259.858 125.828 259.992 125.828H269.747C269.881 125.828 270.01 125.882 270.105 125.977C270.201 126.072 270.254 126.201 270.254 126.336C270.254 126.47 270.201 126.599 270.105 126.695C270.01 126.79 269.881 126.843 269.747 126.843Z" fill="#D1D1D1"/>
<path d="M269.747 131.208H259.992C259.858 131.208 259.729 131.154 259.634 131.059C259.538 130.964 259.485 130.835 259.485 130.7C259.485 130.566 259.538 130.436 259.634 130.341C259.729 130.246 259.858 130.193 259.992 130.193H269.747C269.881 130.193 270.01 130.246 270.105 130.341C270.201 130.436 270.254 130.566 270.254 130.7C270.254 130.835 270.201 130.964 270.105 131.059C270.01 131.154 269.881 131.208 269.747 131.208Z" fill="#D1D1D1"/>
<path d="M266.833 135.562H259.992C259.858 135.562 259.729 135.509 259.634 135.413C259.538 135.318 259.485 135.189 259.485 135.054C259.485 134.92 259.538 134.791 259.634 134.696C259.729 134.6 259.858 134.547 259.992 134.547H266.833C266.968 134.547 267.097 134.6 267.192 134.696C267.288 134.791 267.341 134.92 267.341 135.054C267.341 135.189 267.288 135.318 267.192 135.413C267.097 135.509 266.968 135.562 266.833 135.562Z" fill="#D1D1D1"/>
<path d="M217.819 90.6381H207.344C207.21 90.6381 207.081 90.5846 206.986 90.4895C206.89 90.3943 206.837 90.2652 206.837 90.1306C206.837 89.996 206.89 89.8669 206.986 89.7718C207.081 89.6766 207.21 89.6231 207.344 89.6231H217.819C217.954 89.6231 218.083 89.6766 218.178 89.7718C218.273 89.8669 218.327 89.996 218.327 90.1306C218.327 90.2652 218.273 90.3943 218.178 90.4895C218.083 90.5846 217.954 90.6381 217.819 90.6381Z" fill="#D1D1D1"/>
<path d="M217.819 93.4496H207.344C207.21 93.4496 207.081 93.3962 206.986 93.301C206.89 93.2058 206.837 93.0767 206.837 92.9421C206.837 92.8075 206.89 92.6784 206.986 92.5833C207.081 92.4881 207.21 92.4346 207.344 92.4346H217.819C217.954 92.4346 218.083 92.4881 218.178 92.5833C218.273 92.6784 218.327 92.8075 218.327 92.9421C218.327 93.0767 218.273 93.2058 218.178 93.301C218.083 93.3962 217.954 93.4496 217.819 93.4496Z" fill="#D1D1D1"/>
<path d="M214.693 96.251H207.344C207.21 96.251 207.081 96.1976 206.986 96.1024C206.89 96.0072 206.837 95.8781 206.837 95.7435C206.837 95.6089 206.89 95.4798 206.986 95.3847C207.081 95.2895 207.21 95.236 207.344 95.236H214.693C214.828 95.236 214.957 95.2895 215.052 95.3847C215.147 95.4798 215.201 95.6089 215.201 95.7435C215.201 95.8781 215.147 96.0072 215.052 96.1024C214.957 96.1976 214.828 96.251 214.693 96.251Z" fill="#D1D1D1"/>
<path d="M111.934 289.162C111.934 289.162 112.503 301.525 113.071 301.829C113.64 302.134 121.628 302.844 123.049 300.713L124.064 291.882L111.934 289.162Z" fill="white"/>
<path d="M117.172 302.732C115.727 302.786 114.281 302.636 112.878 302.286C112.564 302.124 112.046 301.849 111.467 289.192C111.463 289.112 111.477 289.032 111.508 288.958C111.54 288.884 111.589 288.818 111.65 288.766C111.71 288.712 111.782 288.674 111.859 288.654C111.937 288.635 112.019 288.635 112.097 288.654L124.206 291.375C124.332 291.402 124.444 291.475 124.519 291.58C124.594 291.685 124.627 291.815 124.612 291.943L123.597 300.763C123.592 300.847 123.564 300.928 123.516 300.997C122.582 302.347 119.679 302.732 117.172 302.732ZM113.437 301.423C114.614 301.707 121.232 302.123 122.572 300.53L123.505 292.319L112.523 289.842C112.626 293.716 112.931 297.581 113.437 301.423Z" fill="#484646"/>
<path d="M73.131 296.825C73.131 296.825 71.8013 303.565 72.2784 304.042C72.7554 304.519 79.2007 305.057 80.2461 304.793C81.2916 304.529 83.5652 302.327 83.5652 302.327L85.6561 293.699L73.131 296.825Z" fill="white"/>
<path d="M79.1703 305.382C76.9068 305.382 72.5119 305.016 71.9029 304.367C71.71 304.164 71.233 303.697 72.6134 296.683C72.635 296.585 72.6835 296.495 72.7535 296.424C72.8234 296.352 72.912 296.301 73.0092 296.277L85.5242 293.151C85.6115 293.131 85.7026 293.132 85.7893 293.155C85.876 293.178 85.9558 293.222 86.0215 293.283C86.0859 293.347 86.1328 293.426 86.1577 293.513C86.1826 293.6 86.1846 293.692 86.1636 293.78L84.0727 302.438C84.0501 302.534 84.0008 302.622 83.9306 302.692C83.687 302.925 81.5251 304.976 80.3883 305.28C79.9866 305.354 79.5786 305.388 79.1703 305.382ZM72.7047 303.697C75.1403 304.178 77.6229 304.379 80.1041 304.296C81.2297 303.711 82.2571 302.954 83.1491 302.052L84.9964 294.42L73.6284 297.252C73.1436 299.371 72.8347 301.527 72.7047 303.697Z" fill="#484646"/>
<path d="M76.9474 202.806C76.9474 202.806 74.6738 261.219 71.0908 296.642C71.0908 296.642 77.1808 300.702 88.5894 297.333C88.5894 297.333 99.9777 252.764 98.4045 215.422C98.4045 215.422 109.488 264.619 109.103 295.546C114.741 295.822 120.361 294.703 125.464 292.288C125.464 292.288 123.089 220.568 118.826 201.212C114.563 181.856 114.401 184.526 114.401 184.526L79.6168 195.447L76.9474 202.806Z" fill="#484646"/>
<path d="M79.9111 299.21C74.0951 299.21 70.9892 297.18 70.7761 297.059C70.7004 297.008 70.6397 296.938 70.6005 296.856C70.5612 296.774 70.5447 296.682 70.5528 296.592C74.0951 261.584 76.389 203.374 76.4093 202.785C76.3997 202.735 76.3997 202.683 76.4093 202.633L79.1092 195.274C79.1367 195.201 79.1801 195.135 79.2362 195.081C79.2924 195.026 79.36 194.985 79.434 194.96L113.944 184.089C113.99 184.028 114.048 183.978 114.114 183.941C114.181 183.905 114.254 183.882 114.33 183.876C114.918 183.876 115.416 183.785 119.232 201.131C123.455 220.304 125.86 291.567 125.88 292.288C125.886 292.384 125.863 292.48 125.814 292.563C125.765 292.646 125.693 292.713 125.606 292.755C120.448 295.214 114.758 296.348 109.052 296.054C108.923 296.043 108.802 295.984 108.715 295.888C108.629 295.792 108.582 295.666 108.585 295.536C108.889 270.993 101.855 234.474 99.0438 220.873C99.3788 256.651 89.1882 296.998 89.0765 297.454C89.0557 297.54 89.0129 297.619 88.9524 297.683C88.8919 297.747 88.8157 297.794 88.7314 297.82C85.8747 298.71 82.9032 299.179 79.9111 299.21ZM71.6287 296.348C72.8771 297.028 78.6119 299.687 88.1732 296.906C89.1273 293.07 99.3382 250.734 97.8969 215.422C97.8909 215.294 97.9336 215.168 98.0164 215.07C98.0993 214.973 98.2161 214.91 98.3435 214.894C98.4691 214.879 98.5961 214.911 98.6994 214.984C98.8027 215.057 98.8748 215.167 98.9017 215.29C99.0134 215.777 109.874 264.386 109.62 295.049C114.901 295.208 120.147 294.142 124.947 291.933C124.764 286.655 122.389 219.705 118.329 201.283C115.69 189.337 114.675 185.977 114.269 185.043L80.043 195.863L77.4446 202.917C77.3533 205.394 75.0898 261.899 71.6287 296.348Z" fill="#484646"/>
<path d="M87.7368 121.098C87.2496 118.936 86.0519 117.18 85.5546 115.008C85.0162 112.622 85.1178 110.136 85.8489 107.802C86.1021 106.841 86.6066 105.965 87.3105 105.264C87.9906 104.645 88.6909 104.96 89.4623 104.726C90.2337 104.493 90.4773 104.168 91.1066 103.711C92.5481 102.617 94.2605 101.936 96.0598 101.742C98.3654 101.376 100.725 101.567 102.942 102.3C104.054 102.67 105.078 103.265 105.951 104.047C106.824 104.829 107.527 105.782 108.017 106.848C109.032 109.172 108.473 111.649 108.443 114.074C108.387 116.456 107.442 118.73 105.794 120.449C104.169 122.106 102.056 123.198 99.7646 123.565C97.4853 123.92 95.1603 123.858 92.9032 123.382C91.6998 123.217 90.5389 122.825 89.4826 122.225C88.427 121.535 88.021 122.276 87.7368 121.098Z" fill="white"/>
<path d="M96.9937 124.285C95.5896 124.271 94.1899 124.129 92.8119 123.859C91.5459 123.673 90.3246 123.257 89.2086 122.631C88.9868 122.479 88.7261 122.395 88.4575 122.387C87.8485 122.316 87.4425 122.113 87.2801 121.21C87.0403 120.194 86.7003 119.205 86.2651 118.256C85.7947 117.252 85.4209 116.205 85.1486 115.13C84.5796 112.654 84.6848 110.071 85.4531 107.649C85.7403 106.603 86.2927 105.649 87.0568 104.879C87.5195 104.486 88.1155 104.286 88.7214 104.32C88.9572 104.32 89.1921 104.292 89.4218 104.239C89.7865 104.142 90.1169 103.945 90.3759 103.671C90.518 103.549 90.6804 103.407 90.8935 103.255C92.4118 102.116 94.2123 101.414 96.1005 101.225C98.4817 100.848 100.919 101.05 103.205 101.813C104.378 102.209 105.456 102.842 106.373 103.674C107.29 104.505 108.026 105.516 108.534 106.645C109.159 108.47 109.343 110.418 109.072 112.329C109.072 112.907 109.001 113.496 108.991 114.085C108.913 116.587 107.895 118.968 106.139 120.753C104.438 122.492 102.226 123.641 99.8255 124.032C98.8911 124.201 97.9433 124.286 96.9937 124.285ZM88.4068 121.332H88.5387C88.9789 121.369 89.402 121.519 89.7669 121.768C90.7689 122.331 91.8669 122.703 93.0047 122.864C95.202 123.327 97.4652 123.385 99.6834 123.037C101.861 122.69 103.871 121.655 105.418 120.083C106.98 118.459 107.874 116.307 107.925 114.054C107.925 113.455 107.976 112.856 108.006 112.247C108.258 110.5 108.101 108.718 107.55 107.04C107.096 106.045 106.441 105.153 105.628 104.422C104.814 103.69 103.858 103.134 102.82 102.788C100.685 102.083 98.4124 101.898 96.1918 102.25C94.4811 102.431 92.8526 103.077 91.4822 104.117L90.9849 104.513C90.6104 104.886 90.1451 105.156 89.6349 105.295C89.3235 105.376 89.0028 105.417 88.6808 105.416C88.5006 105.396 88.318 105.411 88.1438 105.462C87.9696 105.512 87.8071 105.597 87.6658 105.711C87.033 106.349 86.5812 107.144 86.3565 108.015C85.6484 110.26 85.5538 112.653 86.0824 114.947C86.3269 115.958 86.6667 116.944 87.0974 117.891C87.5678 118.902 87.9417 119.956 88.2139 121.037C88.2748 121.311 88.3256 121.382 88.3357 121.382L88.4068 121.332Z" fill="#484646"/>
<path d="M118.826 193.407C115.964 180.049 110.706 136.79 109.407 136.222C106.362 134.811 90.1222 133.227 86.4073 139.48C85.2603 141.439 84.5092 184.079 85.981 195.447L118.826 193.407Z" fill="white"/>
<path d="M85.9808 195.975C85.8541 195.974 85.732 195.927 85.637 195.843C85.5419 195.759 85.4802 195.644 85.4632 195.518C83.9914 184.15 84.7019 141.358 85.9605 139.216C89.9089 132.476 106.687 134.405 109.62 135.745C110.412 136.1 111.122 140.089 114.391 162.399C116.167 174.579 118.004 187.063 119.334 193.295C119.35 193.369 119.35 193.445 119.334 193.518C119.318 193.591 119.286 193.66 119.241 193.72C119.196 193.78 119.138 193.829 119.071 193.865C119.005 193.9 118.932 193.92 118.857 193.924L86.0214 195.954L85.9808 195.975ZM99.998 135.481C94.6692 135.481 88.7721 136.496 86.8639 139.744C85.8489 141.774 84.976 182.303 86.4477 194.889L118.187 192.92C116.857 186.485 115.081 174.325 113.355 162.551C111.67 151.061 109.772 138.069 109.072 136.648C106.128 135.784 103.065 135.39 99.998 135.481Z" fill="#484646"/>
<path d="M103.226 142.383L101.155 147.255L106.169 176.263L102.607 182.303L96.8414 178.07L98.8612 147.021L93.7253 140.657L103.226 142.383Z" fill="#484646"/>
<path d="M102.607 182.81C102.5 182.812 102.395 182.776 102.312 182.709L96.5369 178.476C96.4681 178.427 96.4133 178.361 96.3777 178.285C96.3421 178.208 96.327 178.124 96.3339 178.04L98.3639 147.184L93.3498 140.972C93.2903 140.889 93.2583 140.79 93.2583 140.688C93.2583 140.586 93.2903 140.486 93.3498 140.404C93.4022 140.314 93.481 140.242 93.5753 140.199C93.6697 140.155 93.7752 140.142 93.8776 140.16L103.378 141.875C103.453 141.891 103.523 141.923 103.585 141.968C103.646 142.014 103.697 142.072 103.733 142.139C103.766 142.207 103.783 142.282 103.783 142.357C103.783 142.433 103.766 142.507 103.733 142.576L101.703 147.316L106.687 176.172C106.708 176.291 106.687 176.413 106.626 176.517L103.063 182.607C103.027 182.668 102.979 182.72 102.921 182.76C102.863 182.8 102.798 182.828 102.728 182.841L102.607 182.81ZM97.359 177.827L102.434 181.562L105.611 176.162L100.637 147.336C100.607 147.244 100.607 147.144 100.637 147.052L102.464 142.768L94.923 141.398L99.2063 146.697C99.2839 146.798 99.3234 146.924 99.318 147.052L97.359 177.827Z" fill="#484646"/>
<path d="M95.2376 208.774L90.6397 137.216L106.291 136.658L105.854 207.647H122.379C120.085 187.418 119.862 139.521 117.943 137.44C110.737 129.614 92.2738 132.233 92.2738 132.233C92.2738 132.233 78.9672 132.872 74.7549 140.657C73.7399 142.616 73.273 201.557 73.4151 210.012L95.2376 208.774Z" fill="#FF931E"/>
<path d="M105.063 132.01L105.905 137.47C105.905 137.47 105.043 145.418 99.0337 144.027C97.2271 143.562 95.5421 142.713 94.0935 141.538C92.6449 140.362 91.4668 138.889 90.6397 137.216L89.8784 122.783C89.8784 122.783 94.2937 120.367 92.9234 110.725C97.8438 112.789 103.229 113.49 108.514 112.755C108.514 112.755 110.655 122.672 109.975 127.32C109.868 128.566 109.309 129.729 108.405 130.593C107.5 131.456 106.312 131.96 105.063 132.01Z" fill="white"/>
<path d="M100.394 144.707C99.8948 144.708 99.3975 144.65 98.912 144.535C97.0239 144.059 95.2626 143.177 93.7512 141.95C92.2399 140.723 91.0151 139.18 90.1627 137.43C90.1511 137.369 90.1511 137.307 90.1627 137.247L89.3506 122.783C89.3461 122.684 89.3694 122.586 89.4179 122.5C89.4663 122.414 89.538 122.343 89.6247 122.296C89.6247 122.296 93.6847 119.88 92.3855 110.786C92.37 110.692 92.3807 110.595 92.4165 110.507C92.4523 110.419 92.5117 110.342 92.5884 110.285C92.665 110.229 92.7558 110.194 92.8507 110.186C92.9457 110.177 93.0411 110.195 93.1264 110.238C97.9558 112.255 103.234 112.956 108.422 112.268C108.554 112.244 108.69 112.273 108.801 112.349C108.911 112.425 108.987 112.542 109.011 112.674C109.092 113.08 111.163 122.743 110.473 127.432C110.362 128.697 109.826 129.887 108.952 130.808C108.079 131.73 106.919 132.328 105.662 132.507L106.423 137.43C106.433 137.473 106.433 137.518 106.423 137.562C106.423 137.744 105.915 141.956 103.246 143.855C102.41 144.435 101.411 144.734 100.394 144.707ZM91.1574 137.084C91.9604 138.66 93.0885 140.047 94.4672 141.155C95.8459 142.262 97.4439 143.065 99.1556 143.509C99.7405 143.679 100.356 143.718 100.957 143.623C101.559 143.528 102.132 143.302 102.637 142.961C104.769 141.459 105.306 137.988 105.377 137.47L104.545 132.081C104.536 132.007 104.541 131.931 104.562 131.86C104.583 131.788 104.619 131.722 104.667 131.664C104.714 131.607 104.773 131.561 104.839 131.53C104.906 131.498 104.979 131.482 105.053 131.482C106.175 131.435 107.241 130.979 108.049 130.199C108.858 129.419 109.351 128.369 109.437 127.249C110.016 123.311 108.494 115.343 108.077 113.333C103.162 113.945 98.1709 113.357 93.5325 111.618C94.4257 119.484 91.3908 122.387 90.4164 123.098L91.1574 137.084Z" fill="#484646"/>
<path d="M101.947 118.561C101.947 118.561 104.799 123.798 103.977 124.58C103.155 125.361 100.932 124.58 100.932 124.58" fill="white"/>
<path d="M102.769 125.442C102.077 125.427 101.393 125.303 100.739 125.077C100.612 125.031 100.509 124.937 100.452 124.815C100.395 124.693 100.389 124.554 100.434 124.427C100.456 124.364 100.49 124.306 100.535 124.256C100.579 124.206 100.634 124.165 100.694 124.137C100.755 124.108 100.821 124.092 100.888 124.09C100.955 124.088 101.022 124.099 101.084 124.123C101.693 124.336 103.114 124.641 103.581 124.204C103.774 123.768 102.81 121.23 101.49 118.804C101.456 118.747 101.434 118.683 101.426 118.616C101.417 118.55 101.422 118.483 101.44 118.418C101.458 118.354 101.489 118.294 101.53 118.241C101.572 118.189 101.624 118.146 101.683 118.114C101.742 118.082 101.806 118.062 101.872 118.055C101.939 118.047 102.006 118.053 102.07 118.072C102.134 118.091 102.194 118.122 102.246 118.164C102.298 118.207 102.341 118.258 102.373 118.317C103.764 120.865 105.215 124.082 104.261 124.955C103.837 125.29 103.308 125.462 102.769 125.442Z" fill="#484646"/>
<path d="M99.1998 118.957C99.5246 118.944 99.7625 118.329 99.7312 117.584C99.6998 116.839 99.4111 116.246 99.0862 116.26C98.7614 116.274 98.5235 116.888 98.5548 117.633C98.5862 118.378 98.8749 118.971 99.1998 118.957Z" fill="#484646"/>
<path d="M106.927 118.957C107.252 118.944 107.49 118.329 107.459 117.584C107.427 116.839 107.139 116.246 106.814 116.26C106.489 116.274 106.251 116.888 106.282 117.633C106.314 118.378 106.602 118.971 106.927 118.957Z" fill="#484646"/>
<path d="M93.7254 120.296C93.2022 119.394 92.5135 118.599 91.6954 117.952C91.2621 117.574 90.724 117.336 90.1526 117.272C89.6849 117.281 89.2287 117.418 88.8331 117.668C88.2408 118.013 87.7284 118.481 87.3295 119.039C86.9307 119.597 86.6544 120.233 86.5189 120.905C86.3816 121.526 86.3955 122.17 86.5595 122.783C86.9017 123.726 87.5623 124.519 88.4271 125.026C89.2905 125.529 90.2104 125.928 91.1676 126.214" fill="white"/>
<path d="M91.1674 126.742H90.9949C90.0031 126.44 89.0494 126.024 88.1529 125.503C87.179 124.93 86.4385 124.031 86.062 122.966C85.856 122.27 85.8281 121.534 85.9808 120.824C86.1308 120.079 86.4362 119.374 86.8769 118.755C87.3176 118.136 87.8838 117.617 88.5386 117.231C89.0162 116.924 89.5743 116.765 90.1423 116.774C90.8207 116.839 91.4625 117.112 91.9794 117.556C92.8636 118.243 93.6108 119.09 94.182 120.053C94.2519 120.174 94.2708 120.318 94.2347 120.453C94.1985 120.588 94.1102 120.703 93.9891 120.773C93.9299 120.808 93.8645 120.83 93.7966 120.839C93.7287 120.848 93.6597 120.843 93.5936 120.825C93.5275 120.807 93.4657 120.777 93.4116 120.735C93.3575 120.693 93.3123 120.64 93.2786 120.581C92.7754 119.735 92.1178 118.991 91.34 118.388C90.9965 118.074 90.5636 117.876 90.1017 117.82C89.7388 117.826 89.3858 117.939 89.0867 118.145C88.5648 118.456 88.1143 118.873 87.7645 119.37C87.4148 119.866 87.1736 120.431 87.0567 121.027C86.9283 121.561 86.9283 122.117 87.0567 122.651C87.3795 123.477 87.9785 124.166 88.7517 124.6C89.5836 125.072 90.4653 125.45 91.3806 125.727C91.4454 125.748 91.5053 125.783 91.5568 125.828C91.6082 125.873 91.6503 125.927 91.6805 125.989C91.7107 126.05 91.7284 126.117 91.7327 126.185C91.737 126.253 91.7277 126.322 91.7054 126.386C91.6676 126.497 91.5943 126.591 91.4969 126.656C91.3996 126.72 91.2837 126.75 91.1674 126.742Z" fill="#484646"/>
<path d="M105.063 132.01C101.612 132.538 98.0818 131.955 94.9839 130.345C94.9839 130.345 100.12 138.242 105.855 137.125L105.063 132.01Z" fill="#484646"/>
<path d="M104.718 137.744C99.2572 137.744 94.7607 130.934 94.5679 130.639C94.5011 130.55 94.4651 130.441 94.4651 130.33C94.4651 130.218 94.5011 130.11 94.5679 130.02C94.6428 129.937 94.7432 129.881 94.8534 129.861C94.9635 129.84 95.0773 129.857 95.1769 129.908C98.1957 131.47 101.633 132.032 104.992 131.512C105.059 131.496 105.13 131.494 105.198 131.507C105.266 131.519 105.331 131.546 105.389 131.585C105.446 131.624 105.495 131.675 105.531 131.734C105.568 131.793 105.591 131.859 105.601 131.928L106.393 137.003C106.413 137.132 106.382 137.264 106.306 137.371C106.23 137.477 106.115 137.549 105.987 137.572C105.571 137.672 105.146 137.73 104.718 137.744ZM96.5979 131.593C98.3031 133.623 101.673 137.054 105.317 136.668L104.677 132.608C101.928 132.94 99.1399 132.592 96.5573 131.593H96.5979Z" fill="#484646"/>
<path d="M97.4402 122.55C96.4617 122.552 95.5047 122.263 94.6902 121.721C93.8758 121.178 93.2407 120.407 92.8653 119.503C92.4899 118.599 92.3911 117.605 92.5815 116.645C92.772 115.685 93.2429 114.803 93.9348 114.111C94.6268 113.419 95.5085 112.948 96.4683 112.758C97.4281 112.568 98.4228 112.666 99.3264 113.042C100.23 113.417 101.002 114.052 101.544 114.867C102.087 115.681 102.375 116.638 102.373 117.617C102.37 118.924 101.85 120.177 100.925 121.102C100.001 122.026 98.7477 122.547 97.4402 122.55ZM97.4402 113.719C96.6689 113.717 95.9144 113.944 95.2721 114.371C94.6298 114.798 94.1287 115.406 93.8321 116.118C93.5356 116.83 93.4569 117.614 93.6062 118.371C93.7554 119.128 94.1258 119.823 94.6705 120.369C95.2152 120.915 95.9096 121.288 96.666 121.439C97.4223 121.59 98.2065 121.513 98.9193 121.219C99.6321 120.924 100.241 120.424 100.67 119.783C101.099 119.142 101.328 118.388 101.328 117.617C101.328 116.585 100.918 115.595 100.19 114.864C99.461 114.134 98.4722 113.722 97.4402 113.719Z" fill="#484646"/>
<path d="M106.961 122.55C105.983 122.552 105.025 122.263 104.211 121.721C103.397 121.178 102.761 120.407 102.386 119.503C102.011 118.599 101.912 117.605 102.102 116.645C102.293 115.685 102.764 114.803 103.456 114.111C104.148 113.419 105.029 112.948 105.989 112.758C106.949 112.568 107.944 112.666 108.847 113.042C109.751 113.417 110.523 114.052 111.065 114.867C111.607 115.681 111.896 116.638 111.894 117.617C111.891 118.924 111.371 120.177 110.446 121.102C109.522 122.026 108.268 122.547 106.961 122.55ZM106.961 113.719C106.19 113.717 105.435 113.944 104.793 114.371C104.151 114.798 103.649 115.406 103.353 116.118C103.056 116.83 102.978 117.614 103.127 118.371C103.276 119.128 103.647 119.823 104.191 120.369C104.736 120.915 105.43 121.288 106.187 121.439C106.943 121.59 107.727 121.513 108.44 121.219C109.153 120.924 109.762 120.424 110.191 119.783C110.62 119.142 110.848 118.388 110.848 117.617C110.848 116.585 110.439 115.595 109.71 114.864C108.982 114.134 107.993 113.722 106.961 113.719Z" fill="#484646"/>
<path d="M163.963 151.142C163.963 150.462 167.333 148.615 167.881 148.097L173.9 142.271C174.445 141.622 175.205 141.19 176.042 141.053C176.193 141.036 176.346 141.068 176.478 141.144C176.864 141.398 176.681 141.997 176.478 142.393C175.573 143.976 174.556 145.492 173.433 146.93C176.35 145.103 179.314 143.364 182.325 141.713C182.792 141.459 183.34 141.205 183.837 141.49C183.975 141.596 184.09 141.729 184.175 141.881C184.261 142.032 184.315 142.2 184.334 142.373C184.497 143.833 184.137 145.303 183.319 146.524C181.066 150.513 177.229 153.223 173.383 155.517C171.515 156.623 169.901 157.912 168.084 159.11C167.729 159.354 164.41 161.14 164.42 161.536L163.963 151.142Z" fill="white"/>
<path d="M164.42 162.003C164.286 162.003 164.158 161.951 164.061 161.858C163.965 161.766 163.908 161.639 163.902 161.505L163.436 151.203C163.436 150.523 164.298 149.874 166.328 148.564C166.739 148.312 167.135 148.037 167.516 147.742L171.495 143.895L173.525 141.865C174.166 141.11 175.061 140.615 176.042 140.475C176.309 140.454 176.575 140.518 176.803 140.657C177.351 141.033 177.412 141.794 176.935 142.606C176.458 143.418 175.92 144.25 175.413 145.042C177.605 143.723 179.838 142.434 182.071 141.205C182.36 140.994 182.701 140.863 183.057 140.825C183.414 140.788 183.774 140.845 184.101 140.992C184.303 141.133 184.473 141.316 184.599 141.528C184.725 141.739 184.804 141.976 184.832 142.22C185.053 143.799 184.692 145.405 183.817 146.737C181.462 150.909 177.371 153.72 173.667 155.872C172.55 156.532 171.545 157.253 170.49 158.004C169.8 158.491 169.12 159.019 168.399 159.455C168.318 159.516 168.084 159.648 167.77 159.82C166.785 160.35 165.839 160.947 164.938 161.607C164.905 161.706 164.843 161.794 164.759 161.857C164.676 161.92 164.575 161.957 164.471 161.962L164.42 162.003ZM164.491 151.183L164.897 160.318C165.405 159.973 166.146 159.536 167.232 158.907C167.516 158.755 167.729 158.633 167.8 158.582C168.511 158.115 169.18 157.638 169.83 157.151C170.845 156.42 171.931 155.659 173.078 154.969C176.651 152.847 180.599 150.137 182.832 146.179C183.585 145.065 183.912 143.718 183.756 142.383C183.743 142.175 183.652 141.979 183.502 141.835C183.248 141.682 182.7 141.987 182.487 142.078C179.493 143.723 176.509 145.468 173.626 147.285C173.521 147.351 173.397 147.378 173.275 147.361C173.152 147.344 173.04 147.285 172.956 147.194C172.875 147.101 172.83 146.982 172.83 146.859C172.83 146.736 172.875 146.617 172.956 146.524C174.084 145.11 175.115 143.621 176.042 142.068C176.15 141.897 176.213 141.702 176.225 141.5C176.225 141.5 176.225 141.5 176.133 141.5C175.424 141.648 174.788 142.039 174.337 142.606L172.307 144.636L168.328 148.483C167.904 148.833 167.453 149.149 166.978 149.427C166.087 149.927 165.253 150.522 164.491 151.203V151.183Z" fill="#484646"/>
<path d="M117.943 137.44C117.943 137.44 134.924 151.396 138.182 153.01C141.44 154.624 165.587 147.316 165.587 147.316L172.032 158.694C172.032 158.694 147.053 171.087 137.005 170.701C126.956 170.316 114.391 153.02 114.391 153.02" fill="#FF931E"/>
<path d="M172.164 153C172.055 153 171.947 152.965 171.86 152.898C171.748 152.817 171.672 152.695 171.649 152.558C171.626 152.421 171.658 152.281 171.738 152.167C173.931 149.122 172.987 147.204 172.946 147.092C172.898 146.972 172.895 146.838 172.939 146.716C172.984 146.594 173.071 146.492 173.185 146.431C173.3 146.369 173.433 146.352 173.559 146.382C173.685 146.413 173.796 146.488 173.87 146.595C173.87 146.686 175.189 149.102 172.591 152.685C172.554 152.77 172.495 152.844 172.42 152.9C172.345 152.955 172.257 152.989 172.164 153Z" fill="#484646"/>
<path d="M102.15 128.437C101.004 128.436 99.878 128.139 98.8804 127.575C97.8829 127.012 97.0477 126.2 96.4556 125.219C96.4172 125.164 96.3901 125.102 96.3759 125.036C96.3617 124.97 96.3608 124.902 96.373 124.836C96.3853 124.77 96.4106 124.707 96.4474 124.651C96.4843 124.595 96.5319 124.546 96.5876 124.509C96.7011 124.435 96.839 124.408 96.9719 124.435C97.1047 124.461 97.2218 124.539 97.2981 124.651C98.0041 125.829 99.1102 126.714 100.415 127.144C101.719 127.575 103.135 127.522 104.403 126.995C104.524 126.95 104.658 126.952 104.777 127.001C104.896 127.051 104.992 127.144 105.045 127.262C105.098 127.379 105.105 127.513 105.063 127.635C105.021 127.757 104.934 127.859 104.819 127.919C103.971 128.261 103.065 128.436 102.15 128.437Z" fill="#484646"/>
<path d="M119.78 175.827C119.712 175.821 119.646 175.801 119.586 175.769C119.525 175.737 119.472 175.693 119.428 175.64C119.385 175.587 119.353 175.526 119.333 175.461C119.313 175.395 119.307 175.327 119.314 175.259L121.912 148.544C121.953 148.435 122.029 148.343 122.127 148.281C122.226 148.22 122.343 148.193 122.458 148.205C122.574 148.216 122.683 148.266 122.768 148.345C122.852 148.425 122.908 148.531 122.927 148.645L120.329 175.36C120.311 175.492 120.245 175.613 120.144 175.699C120.043 175.785 119.913 175.831 119.78 175.827Z" fill="#484646"/>
<path d="M90.467 188.291L96.8717 157.608L125.464 159.8L117.568 191.204L90.467 188.291Z" fill="white"/>
<path d="M117.568 191.732H117.507L90.4061 188.819C90.2615 188.798 90.1306 188.721 90.0407 188.606C89.9969 188.547 89.966 188.479 89.9503 188.408C89.9345 188.336 89.9342 188.262 89.9494 188.19L96.3642 157.506C96.3887 157.382 96.458 157.271 96.5591 157.194C96.6601 157.117 96.7858 157.08 96.9123 157.09L125.505 159.323C125.581 159.329 125.654 159.351 125.721 159.388C125.788 159.424 125.845 159.475 125.891 159.536C125.936 159.598 125.966 159.67 125.98 159.745C125.994 159.821 125.991 159.899 125.972 159.973L118.075 191.377C118.039 191.482 117.97 191.573 117.879 191.637C117.788 191.701 117.679 191.734 117.568 191.732ZM91.0963 187.834L117.172 190.636L124.804 160.277L97.2878 158.166L91.0963 187.834Z" fill="#484646"/>
<path d="M84.2351 174.162C84.2351 174.162 91.0661 169.565 93.5325 168.661C96.882 167.443 99.9778 167.078 100.414 168.813C100.851 170.549 99.5921 174.903 98.2523 175.918C96.9125 176.933 93.9994 177.806 92.3754 179.39C90.7514 180.973 84.2554 183.003 84.2554 183.003L84.2351 174.162Z" fill="white"/>
<path d="M84.2349 183.5C84.0984 183.493 83.9695 183.435 83.8737 183.337C83.7779 183.239 83.7221 183.109 83.7173 182.973V174.162C83.7146 174.077 83.7337 173.992 83.7727 173.915C83.8118 173.839 83.8695 173.774 83.9406 173.726C84.2248 173.533 90.8527 169.087 93.3598 168.174C95.1056 167.524 98.2927 166.58 99.9471 167.463C100.196 167.579 100.416 167.748 100.591 167.959C100.767 168.169 100.893 168.416 100.962 168.681C101.429 170.539 100.191 175.096 98.6073 176.304C97.8677 176.812 97.0788 177.244 96.2525 177.593C94.9793 178.123 93.7949 178.846 92.7406 179.735C91.0354 181.389 84.6206 183.389 84.3973 183.47C84.3455 183.49 84.2905 183.5 84.2349 183.5ZM84.7627 174.436V182.252C86.8739 181.552 90.8527 180.08 92.0098 178.984C93.1451 178.017 94.4219 177.229 95.7958 176.649C96.5427 176.324 97.2593 175.933 97.9374 175.482C99.0742 174.609 100.302 170.519 99.9065 168.935C99.8776 168.816 99.8224 168.706 99.7452 168.611C99.6679 168.516 99.5705 168.439 99.4599 168.387C98.5261 167.89 96.4149 168.184 93.715 169.158C91.5835 169.94 85.9706 173.635 84.7627 174.436Z" fill="#484646"/>
<path d="M77.3939 137.44C77.3939 137.44 46 170.711 46 185.358C46 200.004 85.2297 184.698 85.2297 184.698L85.9808 171.016L65.9955 176.578L85.2805 157.638L77.3939 137.44Z" fill="#FF931E"/>
<path d="M61.3467 178.385C61.2312 178.386 61.1185 178.349 61.0266 178.279C60.9346 178.209 60.8687 178.111 60.8392 177.999C60.8193 177.933 60.8131 177.864 60.8209 177.795C60.8287 177.727 60.8503 177.661 60.8845 177.601C60.9187 177.541 60.9647 177.489 61.0197 177.447C61.0748 177.406 61.1377 177.376 61.2046 177.36L85.8488 170.488C85.9155 170.47 85.985 170.465 86.0535 170.474C86.1219 170.483 86.188 170.505 86.2478 170.54C86.3077 170.574 86.3602 170.62 86.4023 170.675C86.4444 170.73 86.4754 170.792 86.4933 170.859C86.5113 170.925 86.516 170.995 86.5072 171.063C86.4983 171.132 86.476 171.198 86.4416 171.258C86.4072 171.317 86.3613 171.37 86.3067 171.412C86.252 171.454 86.1895 171.485 86.1229 171.503L61.4279 178.385H61.3467Z" fill="#484646"/>
<path d="M70.9385 173.827C70.8366 173.827 70.7371 173.796 70.6521 173.74C70.5671 173.684 70.5002 173.604 70.4594 173.511C70.4186 173.418 70.4057 173.314 70.4223 173.214C70.4389 173.113 70.4842 173.02 70.5528 172.944L82.276 160.084C82.3741 160 82.4999 159.954 82.6294 159.956C82.759 159.958 82.8833 160.008 82.9786 160.096C83.0739 160.183 83.1336 160.303 83.1463 160.432C83.159 160.561 83.1238 160.69 83.0474 160.795L71.3242 173.655C71.2752 173.709 71.2157 173.752 71.1493 173.781C71.083 173.811 71.0112 173.827 70.9385 173.827Z" fill="#484646"/>
<path d="M72.2783 304.042C72.0282 305.688 71.9941 307.36 72.1768 309.015C72.5117 311.157 97.3488 318.15 97.7751 313.573C98.2014 308.995 83.5651 302.327 83.5651 302.327C83.5651 302.327 75.0289 305.483 72.2783 304.042Z" fill="#484646"/>
<path d="M94.0704 315.633C87.6556 315.633 72.0449 311.482 71.6694 309.137C71.4813 307.428 71.5189 305.701 71.781 304.001C71.7908 303.922 71.82 303.846 71.866 303.78C71.912 303.715 71.9735 303.662 72.0449 303.626C72.1178 303.591 72.1976 303.572 72.2784 303.572C72.3592 303.572 72.439 303.591 72.5118 303.626C74.6027 304.712 81.0784 302.743 83.3926 301.89C83.5171 301.844 83.6539 301.844 83.7783 301.89C85.311 302.59 98.7191 308.863 98.2725 313.644C98.1609 314.872 96.8921 315.532 94.4967 315.603L94.0704 315.633ZM72.7554 304.773C72.5847 306.172 72.5847 307.586 72.7554 308.985C73.4558 310.386 90.0104 315.562 95.8873 314.486C96.8109 314.314 97.3083 313.999 97.3489 313.563C97.6635 310.172 87.7267 304.823 83.6261 302.915C82.134 303.382 75.7801 305.544 72.7047 304.732L72.7554 304.773Z" fill="#484646"/>
<path d="M113.112 301.829C113.112 301.829 110.554 307.259 113.112 309.533C115.67 311.807 139.167 315.938 138.599 312.659C138.03 309.381 123.089 300.713 123.089 300.713C123.089 300.713 116.208 302.661 113.112 301.829Z" fill="#484646"/>
<path d="M134.68 314.375C127.849 314.375 114.847 311.786 112.736 309.909C109.924 307.412 112.503 301.849 112.614 301.616C112.665 301.509 112.751 301.423 112.859 301.373C112.967 301.322 113.088 301.312 113.203 301.342C116.167 302.134 122.845 300.246 122.906 300.225C122.969 300.198 123.036 300.183 123.104 300.183C123.172 300.183 123.24 300.198 123.302 300.225C124.855 301.129 138.466 309.127 139.055 312.537C139.103 312.793 139.062 313.058 138.938 313.287C138.814 313.516 138.615 313.696 138.375 313.796C137.2 314.255 135.939 314.452 134.68 314.375ZM113.365 302.418C112.868 303.626 111.508 307.493 113.365 309.147C115.649 311.177 134.863 314.608 137.837 312.954C138.03 312.842 138.02 312.781 138.02 312.751C137.634 310.558 128.651 304.631 122.937 301.251C121.83 301.565 116.431 302.966 113.375 302.438L113.365 302.418Z" fill="#484646"/>
<path d="M115.192 100.859C116.056 100.859 116.756 100.159 116.756 99.2961C116.756 98.4328 116.056 97.733 115.192 97.733C114.329 97.733 113.629 98.4328 113.629 99.2961C113.629 100.159 114.329 100.859 115.192 100.859Z" fill="#FF931E"/>
<path d="M120.267 100.859C121.131 100.859 121.831 100.159 121.831 99.2961C121.831 98.4328 121.131 97.733 120.267 97.733C119.404 97.733 118.704 98.4328 118.704 99.2961C118.704 100.159 119.404 100.859 120.267 100.859Z" fill="#FF931E"/>
<path d="M125.343 100.859C126.206 100.859 126.906 100.159 126.906 99.2961C126.906 98.4328 126.206 97.733 125.343 97.733C124.479 97.733 123.78 98.4328 123.78 99.2961C123.78 100.159 124.479 100.859 125.343 100.859Z" fill="#FF931E"/>
<path d="M317.239 256.905C317.239 256.905 320.192 289.842 324.009 304.042C324.668 306.488 333.144 306.63 335.316 305.219C337.488 303.808 333.682 259.077 333.671 259.006L317.239 256.905Z" fill="white"/>
<path d="M330.393 306.64C328.719 306.681 327.05 306.434 325.46 305.909C325.019 305.798 324.61 305.582 324.27 305.28C323.929 304.978 323.665 304.598 323.501 304.174C319.715 290.096 316.751 257.281 316.721 256.956C316.714 256.878 316.724 256.8 316.75 256.726C316.776 256.652 316.818 256.585 316.873 256.53C316.931 256.475 317 256.434 317.075 256.41C317.151 256.385 317.231 256.378 317.309 256.388L333.732 258.478C333.841 258.492 333.943 258.539 334.023 258.614C334.104 258.689 334.158 258.787 334.179 258.895C334.27 259.311 338.239 303.961 335.6 305.656C333.971 306.406 332.183 306.744 330.393 306.64ZM317.827 257.514C318.264 262.204 321.045 291.009 324.506 303.91C324.607 304.275 325.074 304.641 325.825 304.925C328.495 305.94 333.59 305.706 335.031 304.773C336.584 302.743 333.763 265.543 333.184 259.463L317.827 257.514Z" fill="#484646"/>
<path d="M287.418 253.931L286.403 299.21C286.403 299.21 292.909 304.143 297.822 303.007L303.78 256.235L287.418 253.931Z" fill="white"/>
<path d="M296.279 303.707C291.539 303.707 286.342 299.809 286.129 299.647C286.064 299.594 286.012 299.528 285.977 299.452C285.941 299.377 285.924 299.294 285.926 299.21L286.941 253.941C286.942 253.868 286.959 253.795 286.99 253.729C287.022 253.662 287.067 253.603 287.123 253.556C287.181 253.508 287.247 253.473 287.319 253.452C287.39 253.431 287.465 253.425 287.539 253.434L303.861 255.748C303.997 255.768 304.121 255.841 304.204 255.951C304.288 256.061 304.325 256.2 304.307 256.337L298.359 303.118C298.344 303.225 298.297 303.324 298.225 303.404C298.153 303.483 298.058 303.539 297.953 303.565C297.402 303.673 296.84 303.721 296.279 303.707ZM286.941 298.947C288.047 299.738 293.274 303.24 297.365 302.57L303.201 256.682L287.976 254.54L286.941 298.947Z" fill="#484646"/>
<path d="M287.316 194.138L282.901 267.512C282.901 267.512 322.486 277.479 338.909 269.725C338.909 269.725 334.108 212.722 324.567 194.523L287.316 194.138Z" fill="#484646"/>
<path d="M321.085 273.196C315.598 273.138 310.12 272.735 304.683 271.988C297.315 271.024 290.003 269.669 282.779 267.928C282.664 267.898 282.563 267.829 282.493 267.733C282.422 267.637 282.387 267.519 282.394 267.4L286.809 194.026C286.817 193.897 286.873 193.775 286.968 193.687C287.062 193.598 287.187 193.549 287.316 193.549L324.567 193.935C324.659 193.936 324.749 193.963 324.827 194.011C324.906 194.059 324.97 194.127 325.013 194.209C334.504 212.286 339.365 269.034 339.416 269.603C339.425 269.706 339.401 269.81 339.349 269.899C339.296 269.988 339.217 270.058 339.122 270.1C334.869 272.191 328.83 273.196 321.085 273.196ZM283.429 267.106C287.641 268.121 323.014 276.302 338.371 269.39C337.944 264.568 333.164 212.438 324.252 195.011L287.793 194.635L283.429 267.106Z" fill="#484646"/>
<path d="M263.88 189.682C263.88 189.682 261.302 191.448 259.424 191.235C257.546 191.022 253.334 190.331 253.161 192.595C252.989 194.858 257.861 202.156 257.851 202.227C257.841 202.298 269.087 195.599 269.087 195.599L263.88 189.682Z" fill="white"/>
<path d="M257.739 202.714C257.685 202.708 257.633 202.691 257.587 202.664C257.504 202.607 257.438 202.53 257.394 202.44C257.394 202.379 257.272 202.248 257.15 202.045C254.034 197.081 252.563 193.985 252.654 192.564C252.664 192.298 252.731 192.038 252.85 191.8C252.969 191.562 253.137 191.352 253.344 191.184C254.613 190.169 257.303 190.463 259.089 190.677L259.475 190.727C261.16 190.93 263.535 189.276 263.596 189.266C263.697 189.192 263.822 189.16 263.946 189.175C264.071 189.19 264.185 189.252 264.266 189.347L269.472 195.264C269.52 195.322 269.555 195.388 269.576 195.46C269.597 195.531 269.603 195.606 269.594 195.68C269.581 195.753 269.552 195.823 269.51 195.884C269.468 195.945 269.414 195.997 269.351 196.036C259.546 201.872 258.135 202.714 257.739 202.714ZM256.227 191.468C255.442 191.398 254.655 191.572 253.973 191.966C253.876 192.046 253.797 192.146 253.743 192.26C253.688 192.374 253.66 192.499 253.659 192.625C253.659 193.437 254.318 195.67 257.993 201.507C259.444 200.674 264.519 197.66 268.265 195.417L263.748 190.281C262.926 190.788 260.957 191.864 259.322 191.671H258.916C258.025 191.549 257.127 191.482 256.227 191.468Z" fill="#484646"/>
<path d="M292.249 141.754C292.249 141.754 280.587 174.721 276.689 176.477C272.792 178.233 261.21 188.241 261.21 188.241L267.788 198.33C267.788 198.33 281.744 189.58 287.529 184.384C293.315 179.187 292.249 141.754 292.249 141.754Z" fill="#FF931E"/>
<path d="M252.418 183.7L230.876 195.523L245.766 222.653L267.308 210.83L252.418 183.7Z" fill="white"/>
<path d="M245.772 223.167C245.722 223.176 245.67 223.176 245.62 223.167C245.555 223.149 245.495 223.119 245.442 223.077C245.39 223.035 245.347 222.982 245.316 222.923L230.415 195.792C230.35 195.669 230.336 195.526 230.376 195.393C230.416 195.26 230.507 195.148 230.628 195.082L252.167 183.226C252.297 183.175 252.442 183.175 252.573 183.226C252.638 183.246 252.698 183.279 252.751 183.322C252.803 183.366 252.846 183.42 252.877 183.48L267.777 210.611C267.843 210.734 267.857 210.877 267.817 211.01C267.777 211.143 267.686 211.255 267.564 211.322L246.077 223.106C245.983 223.153 245.877 223.174 245.772 223.167ZM231.562 195.762L245.945 221.979L266.57 210.652L252.187 184.444L231.562 195.762Z" fill="#484646"/>
<path d="M312.316 114.46C314.559 116.784 314.945 118.672 315.716 121.656C316.48 124.417 317.553 127.083 318.913 129.604C321.593 134.78 324.953 139.622 327.033 145.113C327.803 146.955 328.196 148.933 328.19 150.929C328.057 152.751 327.493 154.514 326.543 156.075C325.594 157.635 324.286 158.947 322.73 159.902C319.575 161.783 315.9 162.601 312.245 162.236C310.835 162.188 309.451 161.842 308.185 161.221C306.767 160.369 305.595 159.162 304.784 157.719C302.918 154.44 301.702 150.832 301.202 147.092C300.653 143.915 300.186 140.627 297.7 138.262C295.863 136.506 293.274 135.846 291.123 134.496C289.426 133.386 288.022 131.885 287.027 130.118C286.033 128.352 285.477 126.372 285.408 124.346C285.286 120.418 287.032 117.728 289.062 114.602C290.077 113.08 292.777 109.954 294.381 113.07C293.701 111.76 296.543 109.7 297.476 109.426C299.497 109.052 301.575 109.122 303.566 109.629C306.899 110.332 309.946 112.014 312.316 114.46Z" fill="white"/>
<path d="M313.767 162.764C313.239 162.764 312.752 162.764 312.173 162.703C310.697 162.635 309.249 162.266 307.921 161.617C306.427 160.732 305.195 159.468 304.348 157.953C302.457 154.614 301.22 150.945 300.704 147.143L300.653 146.839C300.136 143.844 299.638 140.749 297.334 138.577C296.182 137.589 294.875 136.797 293.467 136.232C292.564 135.833 291.686 135.379 290.838 134.872C289.066 133.721 287.601 132.157 286.566 130.315C285.532 128.473 284.96 126.407 284.9 124.296C284.779 120.236 286.555 117.495 288.605 114.328C288.981 113.76 290.798 111.121 292.665 111.222C293.138 111.24 293.588 111.428 293.934 111.75C294.711 110.473 295.878 109.48 297.263 108.918C299.363 108.522 301.525 108.587 303.597 109.111C307.031 109.846 310.167 111.593 312.6 114.125C314.813 116.409 315.31 118.358 316 121.058L316.122 121.535C316.879 124.257 317.942 126.886 319.289 129.371C320.192 131.137 321.197 132.882 322.171 134.577C324.197 137.882 325.945 141.348 327.398 144.941C328.196 146.839 328.6 148.88 328.586 150.939C328.451 152.836 327.865 154.673 326.876 156.297C325.887 157.921 324.525 159.286 322.902 160.277C320.152 161.95 316.986 162.812 313.767 162.764ZM292.604 112.156C291.589 112.156 290.25 113.516 289.407 114.795C287.377 117.84 285.712 120.51 285.834 124.275C285.885 126.234 286.411 128.151 287.368 129.861C288.324 131.571 289.683 133.022 291.325 134.09C292.146 134.576 292.994 135.017 293.863 135.41C295.362 136.013 296.751 136.86 297.974 137.917C300.471 140.302 301.019 143.55 301.567 146.686L301.617 147.001C302.116 150.68 303.308 154.231 305.129 157.466C305.897 158.844 307.014 159.995 308.367 160.805C309.576 161.408 310.896 161.753 312.245 161.82C315.8 162.171 319.375 161.374 322.445 159.546C323.942 158.635 325.2 157.379 326.114 155.884C327.028 154.389 327.573 152.697 327.703 150.949C327.706 149.014 327.319 147.099 326.566 145.316C325.132 141.77 323.408 138.348 321.41 135.085C320.395 133.39 319.38 131.624 318.507 129.848C317.118 127.289 316.032 124.578 315.269 121.768L315.147 121.301C314.467 118.642 314.021 116.896 311.981 114.775C309.671 112.38 306.698 110.73 303.444 110.035C301.983 109.73 299.283 109.304 297.568 109.811C296.419 110.309 295.451 111.149 294.797 112.217C294.644 112.582 294.736 112.755 294.797 112.806C294.851 112.917 294.86 113.044 294.822 113.161C294.784 113.279 294.702 113.377 294.594 113.435C294.483 113.489 294.355 113.498 294.238 113.46C294.121 113.422 294.023 113.341 293.964 113.232C293.609 112.532 293.193 112.217 292.706 112.156H292.604Z" fill="#484646"/>
<path d="M327.642 197.122C327.52 198.218 304.622 197.761 302.988 197.639C298.776 197.335 290.656 197.233 287.316 194.138C284.972 191.966 287.316 187.51 287.529 184.383C287.729 179.415 287.522 174.438 286.91 169.504C286.269 163.139 286.525 156.715 287.672 150.422C288.413 146.362 289.275 143.428 292.249 141.753C296.959 139.104 303.922 137.825 309.342 137.43C311.961 137.237 323.034 142.9 325.48 148.128C327.926 153.355 327.652 196.391 327.642 197.122Z" fill="#FF931E"/>
<path d="M288.24 174.548C288.133 174.549 288.028 174.517 287.94 174.455C287.853 174.393 287.787 174.305 287.753 174.203C283.226 160.643 288.656 144.687 288.707 144.524C288.753 144.398 288.847 144.295 288.969 144.238C289.09 144.181 289.23 144.174 289.356 144.22C289.482 144.264 289.586 144.355 289.645 144.475C289.704 144.595 289.713 144.733 289.671 144.859C289.62 145.022 284.292 160.653 288.717 173.878C288.739 173.941 288.748 174.009 288.743 174.075C288.739 174.142 288.721 174.207 288.691 174.267C288.66 174.327 288.618 174.38 288.567 174.423C288.516 174.466 288.456 174.498 288.392 174.518C288.344 174.538 288.292 174.548 288.24 174.548Z" fill="#484646"/>
<path d="M308.185 147.143C308.185 147.143 300.917 160.653 299.05 166.591C297.182 172.528 292.889 182.435 292.889 182.435C292.889 182.435 290.757 160.724 297.821 142.961L308.185 147.143Z" fill="#484646"/>
<path d="M292.848 182.851H292.767C292.669 182.836 292.58 182.789 292.512 182.717C292.444 182.645 292.401 182.553 292.391 182.455C292.391 182.242 290.361 160.429 297.365 142.768C297.385 142.714 297.416 142.664 297.456 142.623C297.497 142.581 297.545 142.547 297.598 142.525C297.709 142.48 297.833 142.48 297.943 142.525L308.347 146.707C308.405 146.729 308.458 146.764 308.501 146.809C308.545 146.853 308.578 146.907 308.6 146.965C308.621 147.024 308.629 147.087 308.624 147.149C308.619 147.211 308.601 147.271 308.57 147.326C308.499 147.468 301.303 160.876 299.435 166.712C297.568 172.549 293.345 182.485 293.254 182.587C293.22 182.666 293.163 182.733 293.091 182.78C293.019 182.827 292.934 182.852 292.848 182.851ZM298.035 143.509C292.442 157.912 292.848 174.974 293.163 180.506C294.462 177.41 297.172 170.803 298.583 166.428C300.318 161.049 306.277 149.752 307.555 147.336L298.035 143.509Z" fill="#484646"/>
<path d="M296.522 139.713L297.984 147.427C297.984 147.427 299.699 153.324 303.414 151.944C304.984 151.356 306.415 150.45 307.618 149.283C308.821 148.117 309.771 146.714 310.408 145.164L309.098 129.584C308.256 126.886 307.828 124.076 307.829 121.25C305.272 121.283 302.742 120.72 300.44 119.606C299.527 119.19 294.574 117.373 294.858 116.104C294.157 119.261 293.366 122.58 291.173 124.965C290.839 125.277 290.567 125.649 290.371 126.062C290.279 126.392 290.248 126.736 290.28 127.077C290.331 130.365 290.28 133.583 291.062 136.79C292.127 140.952 296.522 139.713 296.522 139.713Z" fill="white"/>
<path d="M302.308 152.624C301.796 152.621 301.292 152.499 300.836 152.269C298.603 151.142 297.578 147.701 297.537 147.559L296.147 140.261C294.951 140.485 293.715 140.303 292.635 139.744C292.117 139.429 291.669 139.01 291.32 138.514C290.97 138.018 290.727 137.455 290.605 136.861C290.005 134.085 289.743 131.246 289.823 128.406V127.036C289.782 126.619 289.843 126.198 290.003 125.811C290.162 125.423 290.414 125.08 290.737 124.813L290.848 124.691C293.02 122.326 293.772 118.987 294.421 116.033C294.448 115.912 294.522 115.807 294.627 115.74C294.731 115.674 294.858 115.651 294.979 115.678C295.101 115.705 295.206 115.779 295.273 115.884C295.339 115.988 295.362 116.115 295.335 116.236C295.335 116.399 295.528 117.079 300.004 118.946C300.288 119.058 300.511 119.149 300.653 119.22C302.89 120.272 305.338 120.796 307.809 120.753C307.932 120.75 308.052 120.793 308.144 120.875C308.188 120.917 308.223 120.967 308.248 121.023C308.272 121.079 308.285 121.139 308.286 121.2C308.272 123.743 308.635 126.274 309.362 128.711C309.457 128.966 309.522 129.232 309.555 129.502C309.555 129.634 310.874 145.083 310.874 145.083C310.885 145.147 310.885 145.212 310.874 145.276C310.228 146.903 309.247 148.376 307.995 149.6C306.743 150.824 305.248 151.771 303.607 152.381C303.193 152.541 302.752 152.624 302.308 152.624ZM298.441 147.346C298.441 147.346 299.384 150.493 301.252 151.406C301.564 151.567 301.907 151.658 302.258 151.672C302.609 151.686 302.958 151.623 303.282 151.487C304.762 150.925 306.114 150.071 307.258 148.976C308.402 147.881 309.314 146.567 309.941 145.113C308.631 129.614 308.631 129.624 308.631 129.594C308.594 129.404 308.543 129.218 308.479 129.036C307.771 126.677 307.398 124.231 307.373 121.768C304.91 121.717 302.488 121.139 300.268 120.073L299.648 119.809C298.015 119.232 296.473 118.422 295.071 117.404C294.441 120.073 293.569 123.108 291.539 125.321L291.417 125.453C291.174 125.637 290.986 125.883 290.872 126.165C290.758 126.448 290.721 126.755 290.767 127.056V128.437C290.683 131.201 290.936 133.965 291.518 136.668C291.612 137.141 291.801 137.59 292.075 137.986C292.349 138.383 292.702 138.718 293.112 138.972C294.134 139.47 295.299 139.588 296.4 139.307C296.463 139.288 296.529 139.282 296.594 139.291C296.659 139.3 296.721 139.323 296.776 139.358C296.881 139.429 296.953 139.539 296.979 139.663L298.451 147.387L298.441 147.346Z" fill="#484646"/>
<path d="M297.517 144.971C299.499 144.31 301.276 143.145 302.673 141.591C303.314 140.939 303.805 140.156 304.114 139.296C304.422 138.435 304.54 137.518 304.459 136.607C302.11 138.28 299.383 139.347 296.522 139.713L297.517 144.971Z" fill="#484646"/>
<path d="M297.517 145.418C297.435 145.418 297.355 145.397 297.284 145.357C297.229 145.324 297.183 145.28 297.148 145.227C297.113 145.175 297.09 145.115 297.081 145.052L296.066 139.795C296.055 139.732 296.058 139.668 296.074 139.607C296.09 139.546 296.118 139.489 296.157 139.439C296.195 139.389 296.244 139.347 296.3 139.317C296.356 139.287 296.418 139.27 296.482 139.267C299.259 138.892 301.903 137.847 304.186 136.222C304.248 136.177 304.32 136.148 304.396 136.138C304.472 136.127 304.55 136.135 304.622 136.161C304.692 136.19 304.753 136.235 304.801 136.294C304.849 136.352 304.882 136.422 304.896 136.496C304.991 137.474 304.871 138.46 304.543 139.386C304.215 140.312 303.687 141.155 302.998 141.855C301.541 143.472 299.692 144.685 297.629 145.377L297.517 145.418ZM297.05 140.109L297.862 144.382C299.567 143.723 301.099 142.681 302.338 141.337C303.335 140.283 303.937 138.917 304.043 137.47C301.931 138.846 299.545 139.746 297.05 140.109Z" fill="#484646"/>
<path d="M297.649 123.93C297.649 123.93 294.949 128.386 295.67 129.107C296.39 129.827 298.299 129.249 298.299 129.249" fill="white"/>
<path d="M296.827 129.888C296.279 129.926 295.737 129.751 295.314 129.401C294.513 128.599 295.923 125.838 297.233 123.666C297.296 123.565 297.396 123.493 297.511 123.464C297.627 123.436 297.749 123.454 297.852 123.514C297.903 123.544 297.948 123.584 297.983 123.632C298.018 123.68 298.044 123.734 298.058 123.792C298.072 123.849 298.075 123.909 298.066 123.968C298.056 124.026 298.035 124.083 298.004 124.133C296.756 126.163 295.802 128.376 295.974 128.792C296.35 129.157 297.598 128.954 298.136 128.792C298.248 128.762 298.366 128.777 298.467 128.833C298.568 128.888 298.644 128.981 298.678 129.091C298.712 129.202 298.702 129.321 298.65 129.424C298.599 129.527 298.509 129.606 298.4 129.645C297.889 129.797 297.36 129.879 296.827 129.888Z" fill="#484646"/>
<path d="M293.192 127.056C293.466 127.055 293.687 126.636 293.685 126.12C293.682 125.604 293.457 125.187 293.183 125.189C292.908 125.19 292.687 125.609 292.69 126.125C292.692 126.641 292.917 127.058 293.192 127.056Z" fill="#484646"/>
<path d="M301.327 125.991C301.601 125.99 301.822 125.571 301.82 125.055C301.817 124.54 301.592 124.123 301.318 124.124C301.043 124.125 300.822 124.544 300.825 125.06C300.827 125.576 301.052 125.993 301.327 125.991Z" fill="#484646"/>
<path d="M305.881 125.097C306.419 123.484 308.398 122.814 309.941 123.067C310.449 123.127 310.928 123.337 311.316 123.669C311.705 124.002 311.986 124.442 312.123 124.935C312.279 125.545 312.313 126.179 312.225 126.803C312.087 127.964 311.743 129.091 311.21 130.132C310.972 130.664 310.606 131.128 310.144 131.482C309.846 131.689 309.492 131.8 309.129 131.8C308.766 131.8 308.412 131.689 308.114 131.482" fill="white"/>
<path d="M309.261 132.223C308.792 132.211 308.336 132.07 307.941 131.817C307.836 131.751 307.762 131.646 307.734 131.525C307.707 131.404 307.728 131.277 307.794 131.172C307.86 131.067 307.965 130.993 308.086 130.965C308.207 130.937 308.334 130.959 308.439 131.025C308.659 131.179 308.921 131.262 309.19 131.262C309.458 131.262 309.721 131.179 309.941 131.025C310.332 130.71 310.642 130.307 310.844 129.848C311.341 128.856 311.657 127.783 311.778 126.681C311.862 126.119 311.83 125.546 311.687 124.996C311.575 124.587 311.343 124.221 311.021 123.946C310.699 123.671 310.301 123.499 309.88 123.453C308.51 123.25 306.764 123.849 306.327 125.189C306.312 125.251 306.284 125.31 306.245 125.361C306.205 125.412 306.156 125.455 306.099 125.486C306.043 125.517 305.981 125.536 305.917 125.542C305.852 125.548 305.788 125.54 305.726 125.52C305.665 125.499 305.609 125.467 305.561 125.423C305.513 125.38 305.475 125.328 305.449 125.269C305.422 125.21 305.408 125.147 305.407 125.082C305.407 125.018 305.419 124.954 305.444 124.894C306.043 123.078 308.246 122.266 310.022 122.54C310.627 122.619 311.195 122.878 311.651 123.283C312.107 123.688 312.43 124.222 312.58 124.813C312.751 125.476 312.793 126.165 312.702 126.843C312.578 128.056 312.234 129.236 311.687 130.325C311.42 130.929 311.005 131.457 310.479 131.857C310.119 132.1 309.694 132.227 309.261 132.223Z" fill="#484646"/>
<path d="M266.377 172.183L267.848 171.392C268.217 171.108 268.461 170.691 268.527 170.23C268.593 169.77 268.477 169.301 268.204 168.925L256.795 147.783C256.622 147.347 256.29 146.993 255.866 146.794C255.442 146.594 254.957 146.563 254.511 146.707L253.04 147.488C252.67 147.774 252.426 148.192 252.36 148.655C252.294 149.117 252.41 149.587 252.684 149.965L264.144 171.097C264.311 171.526 264.633 171.876 265.047 172.078C265.461 172.279 265.936 172.317 266.377 172.183Z" fill="white"/>
<path d="M265.859 172.823C265.399 172.792 264.956 172.638 264.576 172.377C264.196 172.116 263.892 171.758 263.697 171.341L252.238 150.188C251.888 149.572 251.789 148.845 251.964 148.158C252.099 147.724 252.397 147.36 252.796 147.143L254.278 146.362C254.828 146.135 255.445 146.131 255.998 146.351C256.551 146.571 256.997 146.997 257.242 147.539L268.701 168.681C268.885 168.996 269.003 169.344 269.05 169.704C269.097 170.065 269.072 170.432 268.975 170.783C268.91 170.998 268.803 171.199 268.661 171.373C268.518 171.548 268.342 171.692 268.143 171.798L266.661 172.589C266.418 172.734 266.142 172.814 265.859 172.823ZM255.07 147.082C254.961 147.079 254.852 147.104 254.755 147.153L253.273 147.945C253.104 148.043 252.981 148.204 252.928 148.392C252.823 148.844 252.896 149.32 253.131 149.721L264.59 170.864C264.976 171.584 265.707 171.98 266.174 171.726L267.656 170.945C267.741 170.895 267.815 170.83 267.874 170.751C267.933 170.673 267.976 170.583 268.001 170.488C268.105 170.039 268.032 169.566 267.798 169.169L256.349 148.026C256.233 147.774 256.054 147.555 255.831 147.389C255.607 147.224 255.345 147.119 255.07 147.082Z" fill="#484646"/>
<path d="M254.187 150.777L242.92 130.051L245.092 128.893" fill="#484646"/>
<path d="M254.197 151.284C254.105 151.286 254.015 151.262 253.936 151.215C253.857 151.169 253.793 151.101 253.75 151.02L242.484 130.284C242.433 130.16 242.433 130.022 242.484 129.898C242.526 129.768 242.617 129.659 242.737 129.594L244.899 128.447C245.018 128.385 245.157 128.371 245.285 128.409C245.414 128.447 245.523 128.533 245.59 128.65C245.621 128.709 245.641 128.774 245.647 128.841C245.654 128.908 245.647 128.975 245.627 129.04C245.607 129.104 245.575 129.163 245.532 129.215C245.489 129.267 245.436 129.309 245.376 129.34L243.661 130.254L254.684 150.554C254.716 150.612 254.736 150.677 254.744 150.743C254.751 150.809 254.745 150.877 254.726 150.941C254.707 151.005 254.676 151.065 254.634 151.117C254.592 151.169 254.54 151.212 254.481 151.244C254.392 151.283 254.293 151.297 254.197 151.284Z" fill="#484646"/>
<path d="M256.518 149.551C261.099 146.97 262.221 140.277 259.023 134.602C255.825 128.927 249.52 126.419 244.939 129C240.358 131.582 239.236 138.275 242.434 143.95C245.632 149.625 251.937 152.132 256.518 149.551Z" fill="#484646"/>
<path d="M252.583 151.051C248.523 151.051 244.28 148.412 241.875 143.946C240.115 140.868 239.647 137.218 240.575 133.796C240.893 132.657 241.435 131.593 242.169 130.666C242.902 129.739 243.813 128.967 244.849 128.396C249.731 125.788 256.338 128.528 259.576 134.486C261.333 137.565 261.796 141.216 260.865 144.636C260.549 145.777 260.008 146.843 259.274 147.772C258.541 148.701 257.629 149.474 256.592 150.046C255.358 150.704 253.981 151.049 252.583 151.051ZM242.758 143.489C245.732 148.96 251.73 151.518 256.115 149.173C257.036 148.668 257.846 147.983 258.496 147.158C259.147 146.333 259.624 145.386 259.901 144.372C260.742 141.217 260.305 137.858 258.683 135.024C255.709 129.553 249.71 127.006 245.326 129.34C244.405 129.844 243.595 130.529 242.947 131.354C242.298 132.179 241.822 133.127 241.55 134.141C240.704 137.294 241.138 140.654 242.758 143.489Z" fill="#484646"/>
<path d="M254.342 150.712C258.923 148.131 260.044 141.438 256.846 135.763C253.649 130.088 247.343 127.58 242.762 130.161C238.181 132.743 237.059 139.436 240.257 145.11C243.455 150.785 249.761 153.293 254.342 150.712Z" fill="white"/>
<path d="M250.411 152.218C246.351 152.218 242.108 149.569 239.703 145.113C237.943 142.035 237.475 138.385 238.403 134.963C238.721 133.822 239.264 132.755 239.999 131.826C240.735 130.897 241.649 130.124 242.687 129.553C247.569 126.955 254.166 129.695 257.404 135.643C259.159 138.723 259.626 142.371 258.703 145.793C258.383 146.932 257.84 147.996 257.104 148.923C256.369 149.85 255.456 150.622 254.42 151.193C253.19 151.863 251.812 152.215 250.411 152.218ZM246.706 129.634C245.471 129.627 244.254 129.927 243.164 130.507C242.24 131.009 241.428 131.694 240.778 132.519C240.127 133.344 239.65 134.293 239.378 135.308C238.536 138.463 238.974 141.822 240.596 144.656C243.57 150.127 249.558 152.675 253.943 150.34C254.865 149.837 255.676 149.152 256.326 148.327C256.977 147.502 257.454 146.554 257.729 145.539C258.57 142.385 258.132 139.025 256.511 136.191C254.288 132.081 250.38 129.624 246.706 129.624V129.634Z" fill="#484646"/>
<path d="M252.568 147.564C255.747 145.773 256.526 141.129 254.308 137.193C252.09 133.257 247.715 131.518 244.535 133.309C241.356 135.101 240.577 139.744 242.795 143.68C245.013 147.617 249.388 149.355 252.568 147.564Z" fill="white"/>
<path d="M249.842 148.747C248.254 148.658 246.718 148.15 245.389 147.275C244.061 146.4 242.988 145.188 242.281 143.763C241.053 141.607 240.725 139.054 241.367 136.658C241.595 135.847 241.981 135.09 242.504 134.43C243.027 133.769 243.675 133.219 244.412 132.811C247.873 130.974 252.532 132.903 254.826 137.105C256.049 139.262 256.377 141.813 255.74 144.21C255.512 145.019 255.125 145.775 254.602 146.434C254.08 147.093 253.431 147.641 252.695 148.046C251.817 148.514 250.837 148.755 249.842 148.747ZM247.274 133.085C246.443 133.083 245.624 133.285 244.889 133.674C244.267 134.013 243.72 134.474 243.282 135.031C242.844 135.588 242.524 136.228 242.342 136.912C241.765 139.06 242.064 141.349 243.174 143.276C245.204 146.991 249.264 148.737 252.217 147.153C252.84 146.815 253.386 146.353 253.824 145.797C254.262 145.24 254.583 144.6 254.765 143.915C255.051 142.852 255.125 141.743 254.982 140.651C254.839 139.559 254.483 138.506 253.933 137.551C253.314 136.287 252.373 135.208 251.204 134.424C250.035 133.64 248.679 133.178 247.274 133.085Z" fill="#484646"/>
<path d="M268.529 164.002L276.994 171.422L269.158 177.857C265.484 171.584 264.793 167.362 263.068 167.24C260.612 167.068 257.567 166.631 256.836 164.418C256.269 163.095 256.151 161.623 256.501 160.226C256.559 159.975 256.669 159.738 256.825 159.531C256.98 159.325 257.178 159.154 257.404 159.029C257.688 158.947 257.985 158.927 258.277 158.968C259.911 159.059 262.845 159.435 262.977 159.364C263.565 159.008 263.992 158.623 263.829 157.953C265.971 159.425 266.468 162.429 268.529 164.002Z" fill="white"/>
<path d="M269.158 178.365H269.077C269.003 178.353 268.933 178.325 268.871 178.283C268.81 178.241 268.758 178.186 268.721 178.121C267.47 175.957 266.348 173.72 265.362 171.422C264.418 169.321 263.728 167.798 263.037 167.748C260.185 167.555 257.16 167.017 256.359 164.591C255.745 163.165 255.627 161.575 256.024 160.074C256.06 159.819 256.148 159.574 256.282 159.354C256.416 159.134 256.593 158.943 256.803 158.793C257.012 158.643 257.25 158.538 257.502 158.482C257.753 158.427 258.014 158.423 258.267 158.471C259.069 158.471 260.104 158.623 261.017 158.714C261.738 158.785 262.53 158.866 262.814 158.877C263.322 158.552 263.393 158.349 263.332 158.065C263.312 157.965 263.321 157.863 263.359 157.769C263.397 157.675 263.462 157.594 263.545 157.537C263.629 157.48 263.728 157.45 263.829 157.45C263.93 157.45 264.029 157.48 264.113 157.537C265.209 158.407 266.094 159.514 266.701 160.775C267.215 161.849 267.94 162.809 268.833 163.596L277.298 171.026C277.353 171.074 277.398 171.133 277.427 171.2C277.457 171.266 277.472 171.339 277.471 171.412C277.471 171.486 277.454 171.559 277.423 171.625C277.391 171.692 277.345 171.751 277.288 171.798L269.452 178.233C269.37 178.306 269.267 178.352 269.158 178.365ZM257.912 159.455C257.804 159.449 257.697 159.466 257.597 159.506C257.292 159.618 257.11 160.044 256.978 160.399C256.668 161.691 256.789 163.049 257.323 164.266C257.942 166.134 260.733 166.56 263.108 166.733C264.408 166.824 265.138 168.397 266.285 170.996C267.191 173.079 268.207 175.111 269.33 177.086L276.242 171.412L268.204 164.398C267.208 163.53 266.397 162.47 265.818 161.282C265.376 160.428 264.827 159.633 264.184 158.917C263.954 159.292 263.624 159.594 263.23 159.79C263.037 159.912 262.976 159.922 260.916 159.709C260.023 159.617 258.998 159.516 258.247 159.475L257.912 159.455Z" fill="#484646"/>
<path d="M310.184 155.101C303.302 163.221 292.259 175.807 292.259 175.807L270.548 163.546L260.581 171.899C260.581 171.899 282.201 195.701 293.873 193.478C305.991 188.349 316.323 179.754 323.572 168.773" fill="#FF931E"/>
<path d="M292.31 194.107C280.211 194.107 261.058 173.178 260.206 172.244C260.16 172.193 260.125 172.134 260.102 172.07C260.079 172.005 260.07 171.937 260.074 171.869C260.081 171.796 260.103 171.726 260.14 171.663C260.177 171.6 260.227 171.545 260.287 171.503L270.244 163.15C270.322 163.081 270.42 163.039 270.524 163.028C270.627 163.017 270.731 163.038 270.822 163.089L292.137 175.147C293.873 173.168 303.576 162.104 309.778 154.756C309.866 154.652 309.991 154.587 310.126 154.576C310.261 154.565 310.395 154.607 310.499 154.695C310.602 154.782 310.667 154.907 310.678 155.042C310.69 155.178 310.647 155.312 310.56 155.415C303.749 163.474 292.736 176 292.625 176.132C292.547 176.218 292.442 176.275 292.328 176.293C292.213 176.312 292.096 176.291 291.995 176.233L270.579 164.155L261.302 171.95C264.164 174.995 283.317 194.97 293.782 192.97C305.747 187.832 315.952 179.313 323.146 168.458C323.181 168.401 323.227 168.352 323.282 168.313C323.336 168.275 323.398 168.247 323.463 168.233C323.529 168.219 323.596 168.218 323.662 168.23C323.728 168.243 323.79 168.269 323.846 168.306C323.959 168.379 324.038 168.493 324.067 168.625C324.095 168.756 324.071 168.893 323.998 169.006C316.66 180.055 306.248 188.714 294.046 193.914C293.474 194.031 292.893 194.095 292.31 194.107Z" fill="#484646"/>
<path d="M294.929 132.558L298.522 131.806C298.522 131.806 299.354 137.896 297.324 137.338C295.294 136.78 294.929 132.558 294.929 132.558Z" fill="white"/>
<path d="M297.558 137.825C297.443 137.839 297.327 137.839 297.212 137.825C294.939 137.247 294.523 133.116 294.482 132.649C294.47 132.539 294.5 132.429 294.566 132.341C294.632 132.252 294.729 132.192 294.837 132.172L298.43 131.421C298.491 131.407 298.554 131.406 298.616 131.419C298.677 131.431 298.735 131.456 298.786 131.492C298.835 131.528 298.876 131.573 298.908 131.626C298.939 131.678 298.96 131.736 298.968 131.796C299.07 132.568 299.547 136.496 298.339 137.572C298.12 137.752 297.841 137.842 297.558 137.825ZM295.416 132.933C295.599 134.212 296.167 136.607 297.446 136.922C297.492 136.95 297.544 136.965 297.598 136.965C297.652 136.965 297.704 136.95 297.75 136.922C298.319 136.415 298.329 134.131 298.146 132.415L295.416 132.933Z" fill="#484646"/>
<path d="M257.8 191.306C256.979 191.213 256.148 191.285 255.355 191.516C254.562 191.748 253.823 192.135 253.182 192.656C253.106 192.708 253.043 192.778 252.999 192.859C252.974 192.945 252.974 193.037 252.999 193.123C253.069 193.355 253.2 193.565 253.378 193.729C253.557 193.893 253.777 194.006 254.014 194.056C254.507 194.136 255.01 194.119 255.496 194.006L258.307 193.549C258.241 193.761 258.225 193.985 258.262 194.204C258.299 194.423 258.388 194.63 258.521 194.808C258.792 195.163 259.139 195.454 259.536 195.66C260.09 195.977 260.684 196.219 261.302 196.381" fill="white"/>
<path d="M261.302 196.878H261.17C260.506 196.706 259.868 196.447 259.272 196.107C258.809 195.86 258.406 195.514 258.094 195.092C257.896 194.816 257.771 194.495 257.729 194.158L255.577 194.513C255.024 194.621 254.455 194.621 253.902 194.513C253.559 194.449 253.241 194.289 252.984 194.052C252.727 193.815 252.542 193.511 252.451 193.173C252.39 192.989 252.39 192.79 252.451 192.605C252.523 192.439 252.639 192.295 252.786 192.189C253.483 191.625 254.286 191.206 255.146 190.955C256.007 190.704 256.909 190.627 257.8 190.727C257.875 190.724 257.949 190.738 258.019 190.766C258.088 190.795 258.15 190.838 258.201 190.893C258.251 190.948 258.29 191.014 258.313 191.085C258.336 191.156 258.343 191.232 258.334 191.306C258.325 191.381 258.3 191.452 258.261 191.516C258.222 191.58 258.169 191.634 258.107 191.676C258.044 191.717 257.974 191.745 257.9 191.756C257.826 191.768 257.75 191.763 257.678 191.742C256.926 191.657 256.164 191.722 255.437 191.935C254.71 192.148 254.033 192.503 253.446 192.981C253.505 193.109 253.595 193.221 253.709 193.306C253.822 193.392 253.955 193.447 254.095 193.468C254.525 193.523 254.961 193.502 255.384 193.407L258.196 192.95C258.286 192.934 258.379 192.942 258.465 192.974C258.55 193.006 258.626 193.061 258.683 193.133C258.74 193.205 258.778 193.29 258.792 193.381C258.807 193.472 258.797 193.565 258.764 193.65C258.729 193.784 258.724 193.923 258.751 194.059C258.777 194.194 258.834 194.322 258.916 194.432C259.144 194.721 259.431 194.956 259.759 195.122C260.273 195.42 260.827 195.646 261.403 195.792C261.536 195.83 261.649 195.918 261.719 196.037C261.789 196.156 261.81 196.297 261.779 196.432C261.763 196.549 261.706 196.658 261.62 196.74C261.533 196.821 261.42 196.87 261.302 196.878Z" fill="#484646"/>
<path d="M297.842 303.007C297.842 303.007 298.857 309.624 297.994 310.051C297.131 310.477 270.406 312.304 271.269 308.823C271.736 306.935 277.988 302.885 286.423 299.21C288.971 303.453 295.862 302.611 297.842 303.007Z" fill="#484646"/>
<path d="M282.424 311.421C276.192 311.421 272.436 310.934 271.259 309.959C271.064 309.821 270.914 309.627 270.829 309.403C270.744 309.178 270.728 308.934 270.782 308.701C271.401 306.224 279.217 301.799 286.23 298.744C286.343 298.694 286.471 298.687 286.588 298.724C286.706 298.762 286.806 298.841 286.87 298.947C288.727 302.052 293.102 302.235 296.005 302.357C296.684 302.36 297.362 302.411 298.035 302.509C298.136 302.532 298.228 302.585 298.298 302.661C298.369 302.738 298.415 302.833 298.431 302.936C299.517 309.929 298.593 310.365 298.299 310.507C297.679 310.802 291.082 311.259 285.702 311.38C284.484 311.401 283.419 311.421 282.424 311.421ZM286.22 299.85C277.623 303.636 272.122 307.432 271.746 308.985C271.746 308.985 271.746 309.076 271.838 309.178C274.202 311.38 295.812 310.061 297.71 309.645C297.984 309.036 297.771 306.102 297.395 303.494C297.01 303.494 296.492 303.433 295.923 303.413C293.112 303.25 288.473 303.057 286.22 299.85Z" fill="#484646"/>
<path d="M324.009 304.042L324.709 311.665C327.449 313.542 350.794 317.247 348.703 314.161C346.613 311.076 335.651 302.753 335.651 302.753C333.995 303.972 332.047 304.734 330.003 304.96C327.959 305.187 325.891 304.87 324.009 304.042Z" fill="#484646"/>
<path d="M345.486 315.826C339.02 315.826 326.272 313.349 324.425 312.081C324.36 312.04 324.306 311.985 324.267 311.92C324.229 311.855 324.206 311.781 324.201 311.705L323.501 304.093C323.491 304.005 323.505 303.917 323.541 303.837C323.577 303.757 323.633 303.687 323.704 303.636C323.774 303.582 323.857 303.547 323.944 303.537C324.032 303.526 324.121 303.539 324.201 303.575C326.003 304.378 327.986 304.689 329.947 304.477C331.908 304.265 333.778 303.537 335.366 302.367C335.454 302.293 335.566 302.252 335.681 302.252C335.796 302.252 335.908 302.293 335.996 302.367C336.442 302.712 347.039 310.781 349.191 313.898C349.334 314.087 349.407 314.321 349.396 314.558C349.384 314.796 349.29 315.022 349.13 315.197C348.592 315.633 347.282 315.826 345.486 315.826ZM325.186 311.36C328.596 313.268 347.242 315.806 348.348 314.405C346.45 311.705 337.437 304.712 335.651 303.341C334.052 304.441 332.214 305.142 330.29 305.388C328.365 305.633 326.41 305.415 324.587 304.752L325.186 311.36Z" fill="#484646"/>
<path d="M201.386 201.131H142.699V251.556H201.386V201.131Z" fill="white"/>
<path d="M201.417 252.084H142.699C142.562 252.084 142.43 252.029 142.333 251.932C142.236 251.835 142.182 251.704 142.182 251.566V201.131C142.182 200.994 142.236 200.862 142.333 200.765C142.43 200.668 142.562 200.613 142.699 200.613H201.417C201.486 200.612 201.554 200.624 201.618 200.65C201.682 200.675 201.741 200.713 201.79 200.761C201.839 200.81 201.878 200.867 201.904 200.931C201.931 200.994 201.945 201.062 201.945 201.131V251.566C201.945 251.635 201.931 251.703 201.904 251.767C201.878 251.83 201.839 251.888 201.79 251.936C201.741 251.984 201.682 252.022 201.618 252.048C201.554 252.073 201.486 252.085 201.417 252.084ZM143.258 251.069H200.899V201.659H143.227L143.258 251.069Z" fill="#484646"/>
<path d="M191.033 244.299H151.194C151.13 244.3 151.066 244.289 151.006 244.265C150.947 244.241 150.892 244.205 150.847 244.159C150.801 244.114 150.765 244.06 150.741 244C150.717 243.94 150.706 243.876 150.707 243.812V210.804C150.706 210.74 150.717 210.676 150.741 210.616C150.765 210.556 150.801 210.502 150.847 210.456C150.892 210.411 150.947 210.375 151.006 210.351C151.066 210.327 151.13 210.315 151.194 210.317C151.324 210.317 151.447 210.368 151.539 210.459C151.63 210.551 151.682 210.675 151.682 210.804V243.284H191.033C191.162 243.284 191.286 243.335 191.378 243.427C191.469 243.518 191.52 243.642 191.52 243.771C191.528 243.839 191.52 243.907 191.499 243.972C191.478 244.036 191.443 244.096 191.397 244.146C191.35 244.196 191.294 244.235 191.231 244.262C191.169 244.288 191.101 244.301 191.033 244.299Z" fill="#D1D1D1"/>
<path d="M155.001 241.457C154.926 241.455 154.853 241.437 154.786 241.404C154.72 241.37 154.661 241.323 154.615 241.264C154.538 241.162 154.504 241.033 154.521 240.905C154.538 240.778 154.605 240.662 154.706 240.584L188.79 214.397C188.893 214.319 189.022 214.286 189.149 214.303C189.276 214.32 189.392 214.387 189.47 214.488C189.546 214.591 189.58 214.718 189.565 214.845C189.55 214.971 189.487 215.087 189.389 215.168L155.295 241.355C155.211 241.421 155.107 241.456 155.001 241.457Z" fill="#D1D1D1"/>
<path d="M188.222 220.01H188.13C188.004 219.985 187.893 219.912 187.82 219.805C187.748 219.699 187.721 219.568 187.745 219.442L188.536 215.239L183.644 214.986C183.58 214.983 183.517 214.968 183.459 214.941C183.401 214.914 183.349 214.876 183.305 214.829C183.262 214.782 183.228 214.726 183.206 214.666C183.184 214.606 183.174 214.542 183.177 214.478C183.188 214.349 183.247 214.229 183.343 214.142C183.439 214.055 183.565 214.008 183.695 214.011L189.145 214.306C189.215 214.307 189.283 214.324 189.344 214.356C189.406 214.388 189.459 214.433 189.501 214.488C189.542 214.543 189.572 214.605 189.587 214.672C189.603 214.738 189.605 214.807 189.592 214.874L188.699 219.614C188.676 219.724 188.616 219.824 188.529 219.895C188.443 219.967 188.334 220.008 188.222 220.01Z" fill="#D1D1D1"/>
</svg>
