<svg width="150" height="150" viewBox="0 0 150 150" fill="none" xmlns="http://www.w3.org/2000/svg">
<path d="M143.683 51.8876H63.7903C62.6657 51.8886 61.5875 52.3354 60.7922 53.1298C59.997 53.9242 59.5498 55.0014 59.5488 56.1249V69.0599C59.5498 70.1834 59.997 71.2606 60.7922 72.055C61.5875 72.8494 62.6657 73.2962 63.7903 73.2972H143.683C144.808 73.2962 145.886 72.8494 146.681 72.055C147.477 71.2606 147.924 70.1834 147.925 69.0599V56.1249C147.924 55.0014 147.477 53.9242 146.681 53.1298C145.886 52.3354 144.808 51.8886 143.683 51.8876Z" fill="#F2F2F2"/>
<path d="M34.0393 125.714H2.25428C2.18684 125.714 2.12216 125.687 2.07447 125.64C2.02679 125.592 2 125.528 2 125.46C2 125.393 2.02679 125.328 2.07447 125.281C2.12216 125.233 2.18684 125.206 2.25428 125.206H34.0393C34.1067 125.206 34.1714 125.233 34.219 125.281C34.2667 125.328 34.2935 125.393 34.2935 125.46C34.2935 125.528 34.2667 125.592 34.219 125.64C34.1714 125.687 34.1067 125.714 34.0393 125.714Z" fill="#3F3D56"/>
<path d="M29.3723 46.1753C29.0775 46.3612 28.8271 46.6094 28.6387 46.9024C28.4504 47.1954 28.3286 47.5261 28.282 47.8712C28.2354 48.2163 28.2651 48.5674 28.369 48.8998C28.473 49.2322 28.6486 49.5378 28.8835 49.7951L26.5728 54.7247L29.2289 56.8583L32.3943 49.8509C32.8007 49.4279 33.0378 48.8707 33.0605 48.2849C33.0832 47.699 32.89 47.1251 32.5175 46.6721C32.145 46.219 31.619 45.9182 31.0394 45.8266C30.4597 45.7351 29.8665 45.8591 29.3723 46.1753Z" fill="#FFB8B8"/>
<path d="M16.0936 48.1758C16.8249 47.737 17.6972 47.5962 18.5296 47.7826C19.3621 47.969 20.0908 48.4684 20.5646 49.1771L25.2928 56.25L26.9343 52.6347C27.0368 52.409 27.2184 52.2285 27.4448 52.1271C27.6713 52.0258 27.927 52.0107 28.1639 52.0846L30.6414 52.8578C30.7708 52.8981 30.8909 52.964 30.9945 53.0514C31.0981 53.1388 31.1831 53.2461 31.2446 53.3668C31.3061 53.4875 31.3428 53.6193 31.3526 53.7544C31.3624 53.8896 31.345 54.0253 31.3015 54.1536L29.6056 59.1566C29.391 59.7894 29.0326 60.364 28.5584 60.8352C28.0842 61.3064 27.5071 61.6613 26.8725 61.8722C26.2378 62.0831 25.5629 62.1442 24.9007 62.0506C24.2384 61.957 23.6069 61.7114 23.0557 61.333C22.7981 61.1562 22.5605 60.952 22.3469 60.724L15.379 53.2861C15.0407 52.925 14.7874 52.4927 14.6379 52.0211C14.4884 51.5495 14.4463 51.0505 14.5148 50.5605C14.5833 50.0706 14.7607 49.6022 15.0338 49.1896C15.307 48.7769 15.6691 48.4306 16.0936 48.1758Z" fill="#CCCCCC"/>
<path d="M31.3891 40.8678C31.516 40.871 31.6364 40.9244 31.7239 41.0162C31.8114 41.1081 31.8588 41.231 31.8557 41.3577L31.8149 42.9995L31.8973 43.007L31.8677 44.122L31.7872 44.112L31.641 49.9934C31.636 50.1947 31.5578 50.3873 31.4211 50.5353C31.2844 50.6833 31.0985 50.7765 30.898 50.7976L27.1546 51.1913C27.0634 51.2009 26.9713 51.1904 26.8846 51.1607C26.798 51.1309 26.7188 51.0826 26.6528 51.0191C26.5868 50.9556 26.5356 50.8784 26.5026 50.793C26.4696 50.7075 26.4557 50.6159 26.4619 50.5246L27.0296 42.1498C27.0416 41.9739 27.113 41.8073 27.2323 41.6774C27.3516 41.5474 27.5116 41.4619 27.686 41.4348L31.2998 40.874C31.3293 40.8691 31.3592 40.8671 31.3891 40.8678Z" fill="#3F3D56"/>
<path d="M28.4917 41.7394L30.3915 41.4446C30.4257 41.4392 30.4572 41.4228 30.4811 41.3978C30.505 41.3728 30.52 41.3407 30.5238 41.3063C30.528 41.2674 30.545 41.2309 30.5721 41.2026C30.5992 41.1743 30.6348 41.1557 30.6736 41.1497L31.0738 41.0876C31.1284 41.0791 31.1842 41.0827 31.2372 41.0982C31.2903 41.1136 31.3393 41.1404 31.3808 41.1769C31.4224 41.2133 31.4554 41.2584 31.4776 41.3089C31.4998 41.3595 31.5106 41.4143 31.5093 41.4695L31.3036 49.9966C31.301 50.1024 31.2596 50.2036 31.1871 50.2808C31.1146 50.358 31.0163 50.4059 30.9107 50.4153L27.17 50.7475C27.1223 50.7518 27.0742 50.7457 27.0291 50.7296C26.9839 50.7136 26.9428 50.688 26.9084 50.6547C26.8741 50.6213 26.8474 50.5809 26.8301 50.5363C26.8128 50.4917 26.8053 50.4438 26.8082 50.3961L27.313 42.0987C27.3204 41.9764 27.3695 41.8604 27.452 41.7698C27.5346 41.6793 27.6456 41.6196 27.7668 41.6008L28.1886 41.5354C28.2041 41.6013 28.2439 41.6589 28.3001 41.6967C28.3563 41.7345 28.4247 41.7498 28.4917 41.7394Z" fill="white"/>
<path d="M19.6783 122.631L22.5852 122.631L23.9677 111.429L19.6772 111.429L19.6783 122.631Z" fill="#FFB8B8"/>
<path d="M28.1914 125.327L19.0552 125.327L19.0549 121.801L24.6612 121.801C25.1247 121.8 25.5838 121.892 26.012 122.069C26.4403 122.246 26.8295 122.506 27.1573 122.833C27.4851 123.161 27.7452 123.549 27.9226 123.977C28.1 124.405 28.1914 124.864 28.1914 125.327Z" fill="#2F2E41"/>
<path d="M10.7437 122.631L13.6506 122.631L15.0331 111.429L10.7427 111.429L10.7437 122.631Z" fill="#FFB8B8"/>
<path d="M19.2573 125.327L10.1211 125.327L10.1208 121.801L15.7271 121.801C16.6633 121.8 17.5612 122.172 18.2232 122.833C18.8853 123.494 19.2572 124.391 19.2573 125.327Z" fill="#2F2E41"/>
<path d="M19.2576 44.3688C22.7068 44.3688 25.503 41.5754 25.503 38.1295C25.503 34.6837 22.7068 31.8903 19.2576 31.8903C15.8084 31.8903 13.0122 34.6837 13.0122 38.1295C13.0122 41.5754 15.8084 44.3688 19.2576 44.3688Z" fill="#FFB8B8"/>
<path d="M22.4715 54.8226C22.4205 53.2185 21.9685 51.6526 21.1566 50.2677C20.3447 48.8828 19.1989 47.7229 17.8234 46.8937C16.2099 45.9438 14.4438 45.5734 13.0388 46.9771C12.1951 47.8411 11.5194 48.8542 11.0462 49.9648C9.74648 52.9913 9.66145 56.4012 10.8087 59.4886L14.1529 68.7185L21.893 69.5562C22.0383 69.572 22.1854 69.5562 22.3241 69.51C22.4629 69.4638 22.59 69.3882 22.6969 69.2885C22.8037 69.1888 22.8878 69.0672 22.9434 68.9321C22.9989 68.7969 23.0247 68.6514 23.0188 68.5054L22.4715 54.8226Z" fill="#2F2E41"/>
<path d="M14.6435 67.5819C14.6435 67.5819 8.86082 69.7386 10.3727 78.8707C11.7293 87.0654 10.6512 114.265 10.4156 119.763C10.4044 120.025 10.4951 120.281 10.6688 120.478C10.8425 120.675 11.0857 120.797 11.3473 120.818L14.7229 121.099C14.9873 121.121 15.2498 121.039 15.4545 120.871C15.6592 120.702 15.7898 120.46 15.8185 120.197L17.5618 104.199C17.5687 104.136 17.5987 104.079 17.646 104.037C17.6933 103.995 17.7545 103.972 17.8177 103.973C17.8809 103.973 17.9416 103.998 17.9878 104.041C18.0341 104.084 18.0627 104.142 18.068 104.205L19.367 119.599C19.3889 119.858 19.5096 120.099 19.7042 120.272C19.8987 120.445 20.1523 120.537 20.4127 120.529L23.248 120.439C23.3816 120.435 23.5131 120.404 23.6349 120.349C23.7567 120.294 23.8664 120.216 23.9579 120.119C24.0493 120.021 24.1206 119.907 24.1677 119.782C24.2148 119.657 24.2368 119.524 24.2324 119.39L22.5622 68.6486L14.6435 67.5819Z" fill="#2F2E41"/>
<path d="M20.511 37.7185C22.5997 38.5743 25.2671 37.5746 26.277 35.5574C27.2869 33.5403 26.4876 30.8084 24.5494 29.652C22.6111 28.4957 19.8246 29.0884 18.526 30.9333C17.4696 29.0319 14.7021 28.5472 12.802 29.6081C10.902 30.669 9.86699 32.8912 9.74424 35.0623C9.62149 37.2335 10.2822 39.3723 11.0882 41.3923C12.3919 44.6598 16.589 46.4192 19.8362 45.0594C18.3497 42.8474 18.6431 39.6105 20.511 37.7185Z" fill="#2F2E41"/>
<path d="M28.9275 46.9318C28.8719 46.9319 28.8178 46.9139 28.7733 46.8806L28.7706 46.8785L28.1899 46.4348C28.163 46.4142 28.1405 46.3885 28.1235 46.3592C28.1065 46.3299 28.0955 46.2975 28.0911 46.2639C28.0867 46.2304 28.0889 46.1963 28.0976 46.1636C28.1064 46.1309 28.1215 46.1002 28.1421 46.0733C28.1627 46.0465 28.1885 46.0239 28.2178 46.007C28.2471 45.99 28.2795 45.979 28.3131 45.9746C28.3467 45.9702 28.3809 45.9724 28.4136 45.9811C28.4463 45.9899 28.477 46.005 28.5039 46.0256L28.88 46.3137L29.7688 45.1554C29.7894 45.1285 29.8151 45.106 29.8444 45.089C29.8738 45.0721 29.9061 45.0611 29.9397 45.0567C29.9733 45.0522 30.0074 45.0545 30.0402 45.0632C30.0729 45.0719 30.1036 45.087 30.1304 45.1076C30.1847 45.1493 30.2204 45.2108 30.2293 45.2785C30.2383 45.3463 30.2199 45.4148 30.1784 45.469L29.133 46.8309C29.1088 46.8623 29.0777 46.8877 29.0421 46.9051C29.0065 46.9226 28.9674 46.9316 28.9277 46.9315L28.9275 46.9318Z" fill="#03DAC5"/>
<path d="M143.759 21.2858H63.8655C62.7409 21.2868 61.6627 21.7335 60.8675 22.528C60.0722 23.3224 59.625 24.3996 59.624 25.5231V38.4581C59.625 39.5816 60.0722 40.6588 60.8675 41.4532C61.6627 42.2476 62.7409 42.6944 63.8655 42.6954H143.759C144.883 42.6944 145.961 42.2476 146.757 41.4532C147.552 40.6588 147.999 39.5816 148 38.4581V25.5231C147.999 24.3996 147.552 23.3224 146.757 22.528C145.961 21.7335 144.883 21.2868 143.759 21.2858ZM147.554 38.4581C147.552 39.4632 147.152 40.4267 146.44 41.1374C145.729 41.8481 144.765 42.248 143.759 42.2494H63.8655C62.8594 42.248 61.895 41.8481 61.1836 41.1374C60.4722 40.4267 60.0719 39.4632 60.0705 38.4581V25.5231C60.0719 24.518 60.4722 23.5545 61.1836 22.8438C61.895 22.1331 62.8594 21.7332 63.8655 21.7318H143.759C144.765 21.7332 145.729 22.1331 146.44 22.8438C147.152 23.5545 147.552 24.518 147.554 25.5231V38.4581Z" fill="#3F3D56"/>
<path d="M80.1241 39.3656C78.664 39.3656 77.2367 38.9331 76.0227 38.1227C74.8086 37.3123 73.8624 36.1605 73.3037 34.8128C72.7449 33.4652 72.5987 31.9823 72.8835 30.5517C73.1684 29.1211 73.8715 27.8069 74.9039 26.7755C75.9363 25.7441 77.2517 25.0416 78.6838 24.7571C80.1158 24.4725 81.6001 24.6185 82.9491 25.1768C84.298 25.735 85.451 26.6802 86.2622 27.8931C87.0733 29.1059 87.5063 30.5318 87.5063 31.9905C87.5041 33.9458 86.7256 35.8204 85.3417 37.203C83.9577 38.5856 82.0813 39.3633 80.1241 39.3656Z" fill="#03DAC5"/>
<path d="M132.858 38.012H94.4866C94.0129 38.012 93.5587 37.824 93.2238 37.4894C92.8888 37.1549 92.7007 36.701 92.7007 36.2279C92.7007 35.7547 92.8888 35.3009 93.2238 34.9663C93.5587 34.6317 94.0129 34.4437 94.4866 34.4437H132.858C133.332 34.4437 133.786 34.6317 134.121 34.9663C134.456 35.3009 134.644 35.7547 134.644 36.2279C134.644 36.701 134.456 37.1549 134.121 37.4894C133.786 37.824 133.332 38.012 132.858 38.012Z" fill="#CCCCCC"/>
<path d="M107.186 30.4294H94.4866C94.0129 30.4294 93.5587 30.2414 93.2238 29.9068C92.8888 29.5722 92.7007 29.1184 92.7007 28.6452C92.7007 28.172 92.8888 27.7182 93.2238 27.3837C93.5587 27.0491 94.0129 26.8611 94.4866 26.8611H107.186C107.66 26.8611 108.114 27.0491 108.449 27.3837C108.784 27.7182 108.972 28.172 108.972 28.6452C108.972 29.1184 108.784 29.5722 108.449 29.9068C108.114 30.2414 107.66 30.4294 107.186 30.4294Z" fill="#CCCCCC"/>
<path d="M79.7469 34.5848C79.5638 34.5851 79.3855 34.5259 79.2389 34.4161L79.2299 34.4093L77.3165 32.947C77.2276 32.8792 77.1531 32.7946 77.097 32.698C77.041 32.6014 77.0046 32.4947 76.9898 32.384C76.9751 32.2733 76.9824 32.1608 77.0112 32.0529C77.0401 31.945 77.0899 31.8438 77.1579 31.7552C77.2259 31.6666 77.3108 31.5922 77.4076 31.5364C77.5044 31.4806 77.6112 31.4443 77.722 31.4298C77.8329 31.4153 77.9455 31.4227 78.0534 31.4517C78.1614 31.4807 78.2625 31.5306 78.3511 31.5987L79.5905 32.5482L82.5191 28.7312C82.587 28.6427 82.6717 28.5684 82.7684 28.5126C82.865 28.4568 82.9717 28.4206 83.0823 28.406C83.193 28.3914 83.3055 28.3987 83.4133 28.4275C83.5211 28.4563 83.6222 28.5061 83.7108 28.5739L83.711 28.5741L83.6929 28.5993L83.7115 28.5741C83.8902 28.7113 84.0072 28.9138 84.0366 29.137C84.0661 29.3602 84.0057 29.586 83.8687 29.7648L80.424 34.2525C80.3443 34.3559 80.2419 34.4395 80.1246 34.497C80.0073 34.5544 79.8783 34.5841 79.7477 34.5838L79.7469 34.5848Z" fill="white"/>
<path d="M109.43 56.088H29.5374C28.4128 56.089 27.3345 56.5358 26.5393 57.3302C25.7441 58.1247 25.2969 59.2018 25.2959 60.3253V73.2603C25.2969 74.3838 25.7441 75.461 26.5393 76.2555C27.3345 77.0499 28.4128 77.4966 29.5374 77.4977H109.43C110.555 77.4966 111.633 77.0499 112.428 76.2555C113.224 75.461 113.671 74.3838 113.672 73.2603V60.3253C113.671 59.2018 113.224 58.1247 112.428 57.3302C111.633 56.5358 110.555 56.089 109.43 56.088Z" fill="white"/>
<path d="M109.43 56.088H29.5374C28.4128 56.089 27.3345 56.5358 26.5393 57.3302C25.7441 58.1247 25.2969 59.2018 25.2959 60.3253V73.2603C25.2969 74.3838 25.7441 75.461 26.5393 76.2555C27.3345 77.0499 28.4128 77.4966 29.5374 77.4977H109.43C110.555 77.4966 111.633 77.0499 112.428 76.2555C113.224 75.461 113.671 74.3838 113.672 73.2603V60.3253C113.671 59.2018 113.224 58.1247 112.428 57.3302C111.633 56.5358 110.555 56.089 109.43 56.088ZM113.225 73.2603C113.224 74.2654 112.824 75.2289 112.112 75.9396C111.401 76.6503 110.436 77.0502 109.43 77.0516H29.5374C28.5313 77.0502 27.5669 76.6503 26.8555 75.9396C26.1441 75.2289 25.7438 74.2654 25.7424 73.2603V60.3253C25.7438 59.3203 26.1441 58.3568 26.8555 57.6461C27.5668 56.9354 28.5313 56.5355 29.5374 56.534H109.43C110.436 56.5355 111.401 56.9354 112.112 57.6461C112.824 58.3568 113.224 59.3203 113.225 60.3253V73.2603Z" fill="#3F3D56"/>
<path d="M45.7959 74.1681C44.3359 74.1681 42.9086 73.7355 41.6945 72.9252C40.4805 72.1148 39.5343 70.963 38.9755 69.6153C38.4168 68.2677 38.2706 66.7848 38.5554 65.3542C38.8403 63.9236 39.5434 62.6094 40.5758 61.578C41.6082 60.5466 42.9236 59.8441 44.3556 59.5596C45.7877 59.275 47.272 59.421 48.621 59.9792C49.9699 60.5374 51.1229 61.4827 51.9341 62.6956C52.7452 63.9084 53.1782 65.3343 53.1782 66.793C53.176 68.7483 52.3975 70.6229 51.0135 72.0055C49.6296 73.3881 47.7532 74.1658 45.7959 74.1681Z" fill="#03DAC5"/>
<path d="M98.5303 72.8144H60.1589C59.6853 72.8144 59.231 72.6264 58.8961 72.2918C58.5612 71.9572 58.373 71.5034 58.373 71.0302C58.373 70.557 58.5612 70.1033 58.8961 69.7687C59.231 69.4341 59.6853 69.2461 60.1589 69.2461H98.5303C99.004 69.2461 99.4582 69.4341 99.7931 69.7687C100.128 70.1033 100.316 70.557 100.316 71.0302C100.316 71.5034 100.128 71.9572 99.7931 72.2918C99.4582 72.6264 99.004 72.8144 98.5303 72.8144Z" fill="#CCCCCC"/>
<path d="M72.8583 65.2317H60.1589C59.9244 65.2317 59.6922 65.1856 59.4755 65.0959C59.2588 65.0063 59.062 64.8748 58.8961 64.7092C58.7303 64.5435 58.5987 64.3468 58.509 64.1304C58.4192 63.9139 58.373 63.6819 58.373 63.4476C58.373 63.2133 58.4192 62.9813 58.509 62.7648C58.5987 62.5484 58.7303 62.3517 58.8961 62.186C59.062 62.0203 59.2588 61.8889 59.4755 61.7993C59.6922 61.7096 59.9244 61.6635 60.1589 61.6635H72.8583C73.332 61.6635 73.7862 61.8514 74.1211 62.186C74.456 62.5206 74.6442 62.9744 74.6442 63.4476C74.6442 63.9208 74.456 64.3746 74.1211 64.7092C73.7862 65.0438 73.332 65.2317 72.8583 65.2317Z" fill="#CCCCCC"/>
<path d="M45.4188 69.387C45.2357 69.3873 45.0574 69.3281 44.9108 69.2183L44.9017 69.2115L42.9883 67.7493C42.8995 67.6815 42.825 67.5968 42.7689 67.5002C42.7129 67.4036 42.6764 67.2969 42.6617 67.1862C42.647 67.0755 42.6542 66.963 42.6831 66.8551C42.7119 66.7472 42.7618 66.6461 42.8298 66.5575C42.8978 66.4688 42.9826 66.3945 43.0794 66.3386C43.1762 66.2828 43.2831 66.2466 43.3939 66.232C43.5047 66.2175 43.6174 66.225 43.7253 66.2539C43.8332 66.2829 43.9344 66.3329 44.023 66.401L45.2624 67.3504L48.191 63.5334C48.2589 63.4449 48.3436 63.3707 48.4402 63.3149C48.5369 63.2591 48.6436 63.2228 48.7542 63.2082C48.8649 63.1936 48.9773 63.201 49.0852 63.2298C49.193 63.2586 49.2941 63.3083 49.3826 63.3762L49.3829 63.3764L49.3647 63.4016L49.3834 63.3764C49.5621 63.5136 49.679 63.716 49.7085 63.9392C49.738 64.1625 49.6776 64.3883 49.5406 64.5671L46.0959 69.0547C46.0162 69.1581 45.9137 69.2418 45.7964 69.2992C45.6792 69.3567 45.5502 69.3864 45.4196 69.386L45.4188 69.387Z" fill="white"/>
<path d="M26.9471 59.0059C26.6261 58.8703 26.2792 58.8066 25.9308 58.8194C25.5825 58.8321 25.2412 58.9211 24.931 59.0799C24.6207 59.2387 24.3491 59.4635 24.1353 59.7385C23.9215 60.0136 23.7706 60.3321 23.6933 60.6716L18.3228 61.5908L18.0859 64.9874L25.6518 63.583C26.2315 63.6749 26.8247 63.5512 27.3191 63.2354C27.8135 62.9195 28.1748 62.4334 28.3345 61.8692C28.4941 61.305 28.4411 60.7019 28.1854 60.1742C27.9297 59.6465 27.4891 59.2308 26.9471 59.0059Z" fill="#FFB8B8"/>
<path d="M17.7222 49.2566C18.5004 49.6059 19.1141 50.241 19.4362 51.0302C19.7582 51.8194 19.7639 52.7021 19.4519 53.4954L16.3388 61.4115L20.247 60.6939C20.4911 60.6491 20.7431 60.6949 20.9557 60.8228C21.1682 60.9507 21.3266 61.1518 21.4011 61.3883L22.1802 63.8618C22.2209 63.991 22.2353 64.1271 22.2226 64.2619C22.2099 64.3968 22.1704 64.5278 22.1062 64.6472C22.0421 64.7665 21.9548 64.8719 21.8493 64.9571C21.7438 65.0422 21.6224 65.1054 21.4921 65.143L16.4124 66.6083C15.7698 66.7936 15.093 66.8277 14.435 66.7077C13.7771 66.5878 13.1559 66.3171 12.6203 65.917C12.0846 65.5168 11.6491 64.9981 11.3479 64.4016C11.0467 63.805 10.8881 63.1468 10.8843 62.4786C10.8826 62.1664 10.9147 61.8549 10.9801 61.5496L13.1146 51.5881C13.2182 51.1043 13.4289 50.6499 13.7311 50.258C14.0333 49.8661 14.4194 49.5467 14.8611 49.3231C15.3029 49.0996 15.7891 48.9776 16.2841 48.9661C16.7792 48.9546 17.2705 49.0538 17.7222 49.2566Z" fill="#CCCCCC"/>
</svg>
