<svg width="400" height="400" viewBox="0 0 400 400" fill="none" xmlns="http://www.w3.org/2000/svg">
<path d="M153.48 151.813C150.81 149.245 148.618 147.205 146.497 145.094C136.255 134.944 121.375 131.899 108.739 137.562C95.6552 143.419 87.9615 156.096 88.9866 170.834C89.2201 174.244 88.1442 175.29 85.0281 176.071C63.3376 181.502 47.4731 201.04 46.5901 222.985C45.4431 253.029 68.1284 276.688 98.2536 276.709C167.598 276.749 236.957 276.749 306.329 276.709C308.991 276.699 311.65 276.506 314.286 276.13C336.251 273.085 353.11 253.8 353.354 231.399C353.597 208.48 337.245 188.668 315.098 185.348C310.023 184.587 304.765 184.618 299.589 184.333C308.409 138.263 277.909 104.646 247.083 96.3736C230.285 91.8771 213.821 92.547 197.845 99.4186C174.47 109.355 160.463 127.544 153.48 151.813Z" fill="#FF931E"/>
<path d="M179.92 277.236H98.2536C91.1901 277.361 84.1769 276.026 77.6527 273.317C71.1286 270.607 65.2337 266.58 60.3369 261.488C55.4401 256.396 51.6467 250.348 49.194 243.723C46.7413 237.098 45.6821 230.038 46.0826 222.985C46.5971 211.962 50.6523 201.399 57.6462 192.864C64.6401 184.328 74.1998 178.276 84.9063 175.604C87.728 174.894 88.6923 174.072 88.4791 170.895C87.4641 156.056 95.1375 143.114 108.536 137.116C121.385 131.371 136.428 134.365 146.852 144.759C148.273 146.169 149.694 147.53 151.338 149.093L153.226 150.879C160.646 125.839 175.556 108.361 197.602 98.911C213.152 92.2323 229.818 91.2072 247.164 95.866C263.404 100.231 278.528 111.172 288.576 125.869C296.595 137.623 305.07 157.182 300.147 183.836C301.589 183.927 303.03 183.988 304.471 184.049C308.032 184.132 311.587 184.407 315.118 184.871C337.448 188.211 354.064 208.216 353.81 231.429C353.557 254.135 336.555 273.582 314.306 276.648C311.647 277.026 308.964 277.223 306.278 277.236C265.455 277.216 222.875 277.236 179.92 277.236ZM122.065 135.228C117.555 135.224 113.096 136.179 108.982 138.029C95.98 143.835 88.5299 156.401 89.5246 170.803C89.7885 174.691 88.266 175.797 85.1804 176.569C74.6873 179.187 65.3182 185.12 58.4634 193.485C51.6087 201.85 47.6336 212.202 47.128 223.005C46.7345 229.921 47.7725 236.844 50.1772 243.341C52.5818 249.837 56.3014 255.768 61.1031 260.761C65.9048 265.754 71.6853 269.703 78.083 272.359C84.4806 275.016 91.3577 276.324 98.284 276.201C168.319 276.201 239.643 276.201 306.359 276.201C308.998 276.191 311.633 275.998 314.246 275.623C336.027 272.578 352.633 253.607 352.876 231.399C353.12 208.693 336.86 189.114 315.047 185.856C311.552 185.4 308.035 185.126 304.512 185.034C302.867 184.973 301.223 184.902 299.589 184.8C299.517 184.796 299.446 184.776 299.383 184.741C299.32 184.706 299.265 184.657 299.224 184.597C299.178 184.541 299.145 184.476 299.127 184.406C299.109 184.336 299.108 184.262 299.122 184.191C304.197 157.588 295.783 138.1 287.815 126.428C277.909 111.913 263.029 101.134 246.982 96.8303C229.787 92.2628 213.334 93.2778 197.998 99.8144C175.718 109.376 161.356 126.428 153.967 151.945C153.943 152.029 153.897 152.106 153.835 152.168C153.773 152.231 153.696 152.276 153.612 152.3C153.527 152.321 153.438 152.321 153.353 152.299C153.268 152.278 153.19 152.237 153.124 152.178L150.638 149.803C149.054 148.301 147.593 146.88 146.131 145.459C142.983 142.255 139.235 139.702 135.101 137.946C130.966 136.191 126.527 135.267 122.035 135.228H122.065Z" fill="#484646"/>
<path d="M252.097 218.143H147.755V274.811H252.097V218.143Z" fill="#D1D1D1"/>
<path d="M252.097 275.318H147.755C147.621 275.318 147.491 275.265 147.396 275.169C147.301 275.074 147.248 274.945 147.248 274.811V218.123C147.25 217.989 147.305 217.861 147.399 217.767C147.494 217.672 147.621 217.618 147.755 217.615H252.097C252.231 217.618 252.358 217.672 252.453 217.767C252.548 217.861 252.602 217.989 252.605 218.123V274.79C252.607 274.859 252.596 274.927 252.572 274.991C252.548 275.055 252.511 275.113 252.463 275.162C252.416 275.212 252.359 275.251 252.296 275.278C252.233 275.304 252.165 275.318 252.097 275.318ZM148.263 274.303H251.59V218.651H148.263V274.303Z" fill="#484646"/>
<path d="M252.097 189.51H147.755V217.849H252.097V189.51Z" fill="#484646"/>
<path d="M252.097 218.356H147.755C147.621 218.354 147.494 218.299 147.399 218.205C147.305 218.11 147.25 217.983 147.248 217.849V189.51C147.248 189.375 147.301 189.246 147.396 189.151C147.491 189.056 147.621 189.002 147.755 189.002H252.097C252.232 189.002 252.361 189.056 252.456 189.151C252.551 189.246 252.605 189.375 252.605 189.51V217.849C252.602 217.983 252.548 218.11 252.453 218.205C252.358 218.299 252.231 218.354 252.097 218.356ZM148.263 217.341H251.59V190.017H148.263V217.341Z" fill="#484646"/>
<path d="M246.494 195.691H162.219V236.22H246.494V195.691Z" fill="white"/>
<path d="M246.494 236.728H162.249C162.116 236.725 161.988 236.671 161.893 236.576C161.799 236.482 161.744 236.354 161.742 236.22V195.691C161.742 195.557 161.795 195.428 161.89 195.332C161.986 195.237 162.115 195.184 162.249 195.184H246.494C246.629 195.184 246.758 195.237 246.853 195.332C246.948 195.428 247.002 195.557 247.002 195.691V236.22C247.002 236.355 246.948 236.484 246.853 236.579C246.758 236.674 246.629 236.728 246.494 236.728ZM162.726 235.713H245.956V196.199H162.726V235.713Z" fill="#484646"/>
<path d="M242.8 205.131V198.219H208.716L204.209 205.131H157.418V245.386H248.382V205.131H242.8Z" fill="#FF931E"/>
<path d="M248.382 245.893H157.418C157.283 245.893 157.154 245.84 157.059 245.745C156.964 245.649 156.91 245.52 156.91 245.386V205.131C156.91 204.996 156.964 204.867 157.059 204.772C157.154 204.677 157.283 204.623 157.418 204.623H203.986L208.351 197.945C208.396 197.875 208.457 197.817 208.53 197.776C208.602 197.735 208.684 197.713 208.767 197.711H242.85C242.985 197.711 243.114 197.765 243.209 197.86C243.304 197.955 243.358 198.084 243.358 198.219V204.623H248.433C248.568 204.623 248.697 204.677 248.792 204.772C248.887 204.867 248.94 204.996 248.94 205.131V245.386C248.941 245.457 248.926 245.527 248.898 245.592C248.869 245.658 248.827 245.716 248.774 245.764C248.722 245.812 248.66 245.848 248.592 245.87C248.524 245.892 248.453 245.9 248.382 245.893ZM157.925 244.878H247.875V205.638H242.8C242.665 205.638 242.536 205.585 242.441 205.49C242.346 205.394 242.292 205.265 242.292 205.131V198.726H208.99L204.626 205.415C204.58 205.484 204.518 205.54 204.446 205.579C204.373 205.618 204.292 205.638 204.209 205.638H157.925V244.878Z" fill="#484646"/>
<path d="M153.47 249.811H243.256V209.282H153.47V249.811Z" fill="white"/>
<path d="M243.267 250.319H153.48C153.345 250.319 153.216 250.265 153.121 250.17C153.026 250.075 152.972 249.946 152.972 249.811V209.282C152.972 209.148 153.026 209.018 153.121 208.923C153.216 208.828 153.345 208.775 153.48 208.775H243.267C243.401 208.775 243.53 208.828 243.625 208.923C243.721 209.018 243.774 209.148 243.774 209.282V249.811C243.774 249.946 243.721 250.075 243.625 250.17C243.53 250.265 243.401 250.319 243.267 250.319ZM153.947 249.304H242.759V209.79H153.987L153.947 249.304Z" fill="#484646"/>
<path d="M157.418 218.732V211.82H193.724L198.536 218.732H248.382V258.977H151.47V218.732H157.418Z" fill="#FF931E"/>
<path d="M248.382 259.484H151.47C151.335 259.484 151.206 259.431 151.111 259.335C151.016 259.24 150.963 259.111 150.963 258.977V218.732C150.963 218.597 151.016 218.468 151.111 218.373C151.206 218.278 151.335 218.224 151.47 218.224H156.91V211.82C156.91 211.685 156.964 211.556 157.059 211.461C157.154 211.366 157.283 211.312 157.418 211.312H193.724C193.806 211.311 193.887 211.33 193.959 211.367C194.032 211.404 194.094 211.458 194.141 211.525L198.799 218.224H248.382C248.517 218.224 248.646 218.278 248.741 218.373C248.836 218.468 248.89 218.597 248.89 218.732V258.977C248.89 259.111 248.836 259.24 248.741 259.335C248.646 259.431 248.517 259.484 248.382 259.484ZM151.957 258.469H247.854V219.239H198.536C198.453 219.239 198.372 219.219 198.299 219.18C198.227 219.141 198.165 219.085 198.119 219.016L193.461 212.327H157.936V218.732C157.936 218.866 157.882 218.995 157.787 219.091C157.692 219.186 157.563 219.239 157.428 219.239H151.988L151.957 258.469Z" fill="#484646"/>
<path d="M247.793 221.797H158.007V262.326H247.793V221.797Z" fill="white"/>
<path d="M247.794 262.844H158.007C157.872 262.844 157.743 262.79 157.648 262.695C157.553 262.6 157.499 262.471 157.499 262.336V221.797C157.499 221.663 157.553 221.533 157.648 221.438C157.743 221.343 157.872 221.29 158.007 221.29H247.794C247.928 221.29 248.057 221.343 248.152 221.438C248.248 221.533 248.301 221.663 248.301 221.797V262.336C248.301 262.471 248.248 262.6 248.152 262.695C248.057 262.79 247.928 262.844 247.794 262.844ZM158.474 261.829H247.245V222.305H158.514L158.474 261.829Z" fill="#484646"/>
<path d="M246.373 225.116H156.586V265.645H246.373V225.116Z" fill="white"/>
<path d="M246.373 266.153H156.586C156.451 266.153 156.322 266.099 156.227 266.004C156.132 265.909 156.078 265.78 156.078 265.645V225.116C156.078 224.982 156.132 224.852 156.227 224.757C156.322 224.662 156.451 224.609 156.586 224.609H246.373C246.507 224.609 246.636 224.662 246.731 224.757C246.827 224.852 246.88 224.982 246.88 225.116V265.645C246.88 265.78 246.827 265.909 246.731 266.004C246.636 266.099 246.507 266.153 246.373 266.153ZM157.053 265.138H245.824V225.624H157.093L157.053 265.138Z" fill="#484646"/>
<path d="M242.434 234.566V227.654H206.128L201.317 234.566H151.47V274.811H248.382V234.566H242.434Z" fill="#FF931E"/>
<path d="M248.382 275.318H151.47C151.335 275.318 151.206 275.265 151.111 275.169C151.016 275.074 150.963 274.945 150.963 274.811V234.566C150.963 234.431 151.016 234.302 151.111 234.207C151.206 234.112 151.335 234.058 151.47 234.058H201.053L205.712 227.359C205.758 227.292 205.821 227.238 205.893 227.201C205.966 227.164 206.046 227.145 206.128 227.146H242.434C242.569 227.146 242.698 227.2 242.793 227.295C242.888 227.39 242.942 227.519 242.942 227.654V234.058H248.382C248.517 234.058 248.646 234.112 248.741 234.207C248.836 234.302 248.89 234.431 248.89 234.566V274.811C248.89 274.945 248.836 275.074 248.741 275.169C248.646 275.265 248.517 275.318 248.382 275.318ZM151.957 274.303H247.854V235.073H242.414C242.279 235.073 242.15 235.02 242.055 234.925C241.96 234.829 241.907 234.7 241.907 234.566V228.161H206.382L201.723 234.85C201.677 234.919 201.615 234.975 201.543 235.014C201.47 235.053 201.389 235.073 201.307 235.073H151.978L151.957 274.303Z" fill="#484646"/>
<path d="M256.756 252.887H143.096V306.235H256.756V252.887Z" fill="white"/>
<path d="M256.766 306.742H143.086C142.952 306.742 142.822 306.689 142.727 306.594C142.632 306.499 142.579 306.37 142.579 306.235V252.887C142.579 252.752 142.632 252.623 142.727 252.528C142.822 252.433 142.952 252.379 143.086 252.379H256.766C256.901 252.379 257.03 252.433 257.125 252.528C257.22 252.623 257.274 252.752 257.274 252.887V306.235C257.274 306.37 257.22 306.499 257.125 306.594C257.03 306.689 256.901 306.742 256.766 306.742ZM143.614 305.727H256.279V253.394H143.614V305.727Z" fill="#484646"/>
<path d="M252.178 301.982H147.633C147.499 301.982 147.37 301.929 147.275 301.833C147.179 301.738 147.126 301.609 147.126 301.475V257.708C147.126 257.573 147.179 257.444 147.275 257.349C147.37 257.254 147.499 257.2 147.633 257.2H252.178C252.313 257.2 252.442 257.254 252.537 257.349C252.632 257.444 252.686 257.573 252.686 257.708V301.525C252.673 301.651 252.614 301.767 252.52 301.852C252.427 301.936 252.305 301.983 252.178 301.982ZM148.181 300.967H251.691V258.165H148.161L148.181 300.967Z" fill="#F2F1F1"/>
<path d="M215.039 286.534H184.813C181.037 286.534 178.195 284.504 178.195 281.834V278.596H182.255V281.713C182.985 282.273 183.895 282.544 184.813 282.474H215.039C215.957 282.544 216.867 282.273 217.597 281.713V278.596H221.657V281.834C221.657 284.514 218.815 286.534 215.039 286.534Z" fill="#484646"/>
<path d="M198.373 249.233C198.373 249.233 200.119 248.948 202.9 252.887H187.553C187.553 252.887 192.994 250.978 198.373 249.233Z" fill="#484646"/>
<path d="M202.9 253.394H187.553C187.433 253.396 187.316 253.355 187.223 253.279C187.13 253.203 187.067 253.096 187.046 252.978C187.027 252.859 187.05 252.737 187.111 252.633C187.172 252.53 187.268 252.45 187.381 252.409C187.442 252.409 192.892 250.481 198.211 248.745H198.292C198.495 248.745 200.434 248.532 203.367 252.612C203.417 252.692 203.443 252.783 203.443 252.876C203.443 252.97 203.417 253.061 203.367 253.14C203.322 253.223 203.254 253.291 203.171 253.336C203.088 253.381 202.994 253.401 202.9 253.394ZM190.568 252.379H201.895C199.936 249.892 198.678 249.74 198.465 249.73C195.562 250.674 192.638 251.669 190.568 252.379Z" fill="#484646"/>
<path d="M198.373 249.233H156.586C156.586 249.233 146.172 252.887 147.755 271.157H194.445C194.445 271.157 190.71 256.175 198.373 249.233Z" fill="white"/>
<path d="M194.394 271.664H147.704C147.577 271.662 147.455 271.614 147.362 271.527C147.268 271.441 147.209 271.324 147.197 271.197C145.603 252.755 155.926 248.867 156.332 248.756C156.386 248.746 156.441 248.746 156.494 248.756H198.282C198.384 248.757 198.483 248.789 198.566 248.847C198.65 248.906 198.714 248.988 198.75 249.083C198.786 249.178 198.793 249.282 198.769 249.381C198.745 249.48 198.692 249.57 198.617 249.639C191.268 256.297 194.76 270.954 194.8 271.065C194.819 271.14 194.82 271.218 194.804 271.294C194.788 271.369 194.756 271.44 194.709 271.502C194.627 271.591 194.515 271.649 194.394 271.664ZM148.222 270.649H193.765C193.166 267.797 191.228 256.277 197.145 249.74H156.687C155.784 250.116 146.974 254.226 148.222 270.649Z" fill="#484646"/>
<path d="M183.514 266.153H153.865C153.731 266.153 153.602 266.099 153.507 266.004C153.411 265.909 153.358 265.78 153.358 265.645C153.361 265.511 153.415 265.384 153.509 265.289C153.604 265.195 153.732 265.14 153.865 265.138H183.514C183.648 265.138 183.777 265.191 183.872 265.286C183.968 265.381 184.021 265.511 184.021 265.645C184.021 265.78 183.968 265.909 183.872 266.004C183.777 266.099 183.648 266.153 183.514 266.153Z" fill="#F2F1F1"/>
<path d="M187.553 260.753H153.865C153.732 260.75 153.604 260.696 153.509 260.601C153.415 260.507 153.361 260.379 153.358 260.245C153.358 260.111 153.411 259.982 153.507 259.886C153.602 259.791 153.731 259.738 153.865 259.738H187.553C187.688 259.738 187.817 259.791 187.912 259.886C188.007 259.982 188.061 260.111 188.061 260.245C188.058 260.379 188.004 260.507 187.909 260.601C187.815 260.696 187.687 260.75 187.553 260.753Z" fill="#F2F1F1"/>
<path d="M189.827 254.896H156.139C156.004 254.896 155.875 254.843 155.78 254.748C155.685 254.652 155.632 254.523 155.632 254.389C155.632 254.254 155.685 254.125 155.78 254.03C155.875 253.935 156.004 253.881 156.139 253.881H189.827C189.961 253.881 190.091 253.935 190.186 254.03C190.281 254.125 190.334 254.254 190.334 254.389C190.334 254.523 190.281 254.652 190.186 254.748C190.091 254.843 189.961 254.896 189.827 254.896Z" fill="#F2F1F1"/>
<path d="M239.623 213.626H217.668C217.534 213.626 217.405 213.573 217.309 213.478C217.214 213.383 217.161 213.253 217.161 213.119C217.161 212.984 217.214 212.855 217.309 212.76C217.405 212.665 217.534 212.611 217.668 212.611H239.623C239.757 212.611 239.886 212.665 239.982 212.76C240.077 212.855 240.13 212.984 240.13 213.119C240.128 213.253 240.073 213.38 239.979 213.475C239.884 213.569 239.757 213.624 239.623 213.626Z" fill="#F2F1F1"/>
<path d="M190.649 200.533H168.695C168.56 200.533 168.431 200.479 168.336 200.384C168.241 200.289 168.187 200.16 168.187 200.025C168.187 199.891 168.241 199.762 168.336 199.666C168.431 199.571 168.56 199.518 168.695 199.518H190.649C190.784 199.518 190.913 199.571 191.008 199.666C191.103 199.762 191.157 199.891 191.157 200.025C191.157 200.16 191.103 200.289 191.008 200.384C190.913 200.479 190.784 200.533 190.649 200.533Z" fill="#F2F1F1"/>
<path d="M65.6416 142.241C84.8876 145.356 103.208 152.683 119.295 163.698L113.205 171.057L140.396 174.102L135.484 148.727L127.313 154.604C127.313 154.604 103.968 127.879 76.6848 120.825L65.6416 142.241Z" fill="white"/>
<path d="M140.356 174.63H140.295L113.103 171.585C113.013 171.576 112.927 171.541 112.855 171.486C112.783 171.43 112.729 171.355 112.697 171.27C112.662 171.185 112.651 171.091 112.666 171C112.68 170.909 112.719 170.823 112.778 170.753L118.554 163.82C93.2801 146.301 65.8548 142.779 65.5807 142.739C65.4997 142.729 65.4222 142.701 65.3546 142.655C65.2871 142.609 65.2316 142.548 65.1927 142.476C65.1539 142.405 65.1329 142.325 65.1315 142.243C65.1302 142.162 65.1485 142.081 65.1849 142.008L76.1875 120.683C76.241 120.581 76.3274 120.501 76.4325 120.455C76.5375 120.409 76.6551 120.4 76.766 120.429C102.141 127.006 124.471 150.879 127.343 154.015L135.149 148.402C135.223 148.361 135.307 148.339 135.392 148.339C135.478 148.339 135.562 148.361 135.636 148.402C135.713 148.434 135.781 148.484 135.834 148.547C135.887 148.611 135.924 148.687 135.941 148.768L140.853 174.143C140.865 174.216 140.861 174.29 140.841 174.361C140.822 174.432 140.787 174.498 140.74 174.555C140.693 174.612 140.634 174.658 140.568 174.69C140.502 174.722 140.429 174.74 140.356 174.742V174.63ZM114.159 170.661L139.726 173.544L135.098 149.651L127.567 155.071C127.463 155.143 127.337 155.174 127.211 155.159C127.086 155.144 126.971 155.084 126.887 154.99C126.653 154.726 103.542 128.6 76.9081 121.495L66.4232 141.835C70.9602 142.526 96.2642 146.971 119.589 163.282C119.701 163.366 119.778 163.489 119.802 163.627C119.812 163.698 119.807 163.769 119.788 163.837C119.769 163.905 119.736 163.969 119.69 164.023L114.159 170.661Z" fill="#484646"/>
<path d="M256.766 171.088C256.766 171.088 270.134 153.985 305.08 141.714L301.122 133.878L330.628 136.608L317.95 160.725L312.327 151.59C312.327 151.59 294.95 156.665 271.037 187.206L256.766 171.088Z" fill="white"/>
<path d="M271.037 187.754C270.966 187.755 270.895 187.739 270.83 187.71C270.765 187.68 270.708 187.636 270.661 187.581L256.38 171.433C256.304 171.342 256.263 171.227 256.263 171.108C256.263 170.989 256.304 170.874 256.38 170.783C256.512 170.611 270.093 153.589 304.38 141.429L300.695 134.111C300.653 134.03 300.633 133.939 300.638 133.848C300.643 133.757 300.672 133.669 300.723 133.593C300.774 133.517 300.845 133.456 300.927 133.417C301.01 133.378 301.102 133.362 301.193 133.37L330.689 136.101C330.772 136.11 330.852 136.139 330.923 136.184C330.993 136.23 331.052 136.292 331.095 136.365C331.135 136.438 331.156 136.52 331.156 136.603C331.156 136.686 331.135 136.768 331.095 136.842L318.417 160.958C318.378 161.038 318.318 161.106 318.243 161.155C318.167 161.203 318.08 161.23 317.991 161.232C317.899 161.24 317.808 161.221 317.727 161.178C317.646 161.134 317.579 161.069 317.534 160.988L312.124 152.239C309.516 153.183 293.093 159.963 271.463 187.561C271.364 187.672 271.226 187.741 271.078 187.754H271.037ZM257.426 171.078L270.976 186.455C283.156 170.946 293.672 162.196 300.32 157.578C307.638 152.503 311.962 151.194 312.145 151.143C312.251 151.11 312.365 151.114 312.468 151.154C312.571 151.195 312.658 151.27 312.713 151.366L317.869 159.699L329.846 137.045L302.015 134.467L305.486 141.49C305.514 141.556 305.528 141.627 305.528 141.698C305.528 141.77 305.514 141.841 305.486 141.906C305.457 141.972 305.415 142.031 305.363 142.08C305.311 142.129 305.249 142.166 305.182 142.191C273.483 153.335 259.476 168.672 257.426 171.078Z" fill="#484646"/>
</svg>
