<svg width="400" height="400" viewBox="0 0 400 400" fill="none" xmlns="http://www.w3.org/2000/svg">
<path d="M75.461 299.973H323.608V305.17C323.608 306.465 323.094 307.706 322.178 308.622C321.263 309.538 320.021 310.052 318.726 310.052H80.333C79.0382 310.052 77.7964 309.538 76.8808 308.622C75.9652 307.706 75.4508 306.465 75.4508 305.17V299.973H75.461Z" fill="black"/>
<path d="M319.66 304.307H79.4093C78.7852 304.303 78.1709 304.151 77.6171 303.864C77.0632 303.576 76.5857 303.161 76.2239 302.652C75.8621 302.144 75.6263 301.556 75.536 300.939C75.4457 300.321 75.5035 299.691 75.7046 299.1L95.7001 239.966C96.5728 237.401 98.2263 235.174 100.429 233.596C102.631 232.017 105.272 231.168 107.982 231.166H291.088C293.797 231.168 296.438 232.017 298.64 233.596C300.843 235.174 302.496 237.401 303.369 239.966L323.365 299.1C323.566 299.691 323.623 300.321 323.533 300.939C323.443 301.556 323.207 302.144 322.845 302.652C322.483 303.161 322.006 303.576 321.452 303.864C320.898 304.151 320.284 304.303 319.66 304.307Z" fill="white"/>
<path d="M319.66 304.825H79.4093C78.7094 304.822 78.02 304.654 77.3978 304.333C76.7756 304.012 76.2384 303.549 75.8302 302.98C75.4221 302.411 75.1546 301.754 75.0499 301.062C74.9451 300.37 75.006 299.663 75.2275 298.999L95.2636 239.865C96.1604 237.202 97.8702 234.889 100.152 233.25C102.434 231.611 105.172 230.729 107.982 230.73H291.088C293.897 230.729 296.635 231.611 298.917 233.25C301.199 234.889 302.909 237.202 303.806 239.865L323.842 298.988C324.063 299.652 324.124 300.36 324.019 301.052C323.915 301.744 323.647 302.401 323.239 302.97C322.831 303.538 322.294 304.002 321.671 304.323C321.049 304.644 320.36 304.812 319.66 304.815V304.825ZM107.982 231.623C105.367 231.624 102.819 232.445 100.695 233.968C98.5701 235.492 96.9762 237.643 96.1365 240.118L76.1106 299.242C75.9391 299.764 75.8937 300.32 75.9781 300.863C76.0625 301.406 76.2742 301.921 76.596 302.367C76.9177 302.812 77.3404 303.175 77.8294 303.426C78.3184 303.677 78.8598 303.808 79.4093 303.81H319.66C320.213 303.81 320.758 303.678 321.25 303.426C321.742 303.173 322.167 302.807 322.49 302.358C322.812 301.908 323.023 301.389 323.104 300.841C323.186 300.294 323.136 299.736 322.959 299.212L302.933 240.088C302.093 237.612 300.499 235.461 298.375 233.938C296.25 232.414 293.702 231.594 291.088 231.592L107.982 231.623Z" fill="#484646"/>
<path d="M296.975 269.604H102.501C101.994 269.605 101.494 269.487 101.041 269.26C100.588 269.033 100.194 268.703 99.891 268.297C99.5881 267.891 99.3846 267.419 99.2967 266.92C99.2087 266.421 99.2388 265.908 99.3845 265.422L106.49 241.428C106.712 240.687 107.166 240.038 107.786 239.575C108.405 239.113 109.157 238.862 109.93 238.86H288.662C289.527 238.865 290.367 239.147 291.061 239.664C291.755 240.18 292.266 240.905 292.519 241.732L299.695 265.91C299.822 266.336 299.849 266.786 299.773 267.224C299.696 267.662 299.519 268.077 299.256 268.435C298.992 268.793 298.649 269.085 298.253 269.288C297.857 269.491 297.419 269.599 296.975 269.604ZM109.961 239.865C109.406 239.865 108.865 240.043 108.419 240.374C107.973 240.705 107.645 241.171 107.484 241.702L100.379 265.707C100.282 266.04 100.263 266.392 100.325 266.733C100.386 267.075 100.526 267.398 100.734 267.677C100.942 267.955 101.211 268.182 101.521 268.338C101.831 268.495 102.174 268.577 102.521 268.579H296.975C297.265 268.578 297.55 268.51 297.809 268.38C298.068 268.249 298.293 268.06 298.467 267.828C298.64 267.596 298.757 267.326 298.808 267.041C298.859 266.755 298.843 266.462 298.761 266.184L291.575 242.006C291.383 241.39 291.001 240.85 290.483 240.465C289.965 240.08 289.338 239.87 288.692 239.865H109.961Z" fill="#D1D1D1"/>
<path d="M230.238 296.319H168.831C168.314 296.322 167.804 296.207 167.338 295.984C166.872 295.761 166.463 295.435 166.141 295.03C165.816 294.629 165.584 294.16 165.465 293.657C165.345 293.155 165.341 292.632 165.451 292.127L168.384 278.78C168.652 277.607 169.308 276.559 170.245 275.805C171.183 275.052 172.348 274.637 173.551 274.628H225.519C226.722 274.637 227.886 275.052 228.824 275.805C229.762 276.559 230.417 277.607 230.685 278.78L233.618 292.127C233.729 292.632 233.724 293.155 233.604 293.657C233.485 294.16 233.254 294.629 232.928 295.03C232.607 295.435 232.198 295.761 231.732 295.984C231.266 296.207 230.755 296.322 230.238 296.319ZM173.551 275.643C172.577 275.648 171.635 275.983 170.877 276.593C170.119 277.203 169.591 278.053 169.379 279.003L166.446 292.34C166.366 292.697 166.369 293.067 166.452 293.423C166.535 293.778 166.697 294.111 166.926 294.395C167.155 294.68 167.445 294.909 167.775 295.067C168.105 295.224 168.466 295.305 168.831 295.304H230.238C230.604 295.305 230.965 295.224 231.294 295.067C231.624 294.909 231.914 294.68 232.143 294.395C232.372 294.111 232.534 293.778 232.618 293.423C232.701 293.067 232.703 292.697 232.624 292.34L229.69 279.003C229.479 278.053 228.951 277.203 228.193 276.593C227.435 275.983 226.492 275.648 225.519 275.643H173.551Z" fill="#D1D1D1"/>
<path d="M293.859 103.631H105.211C101.561 103.631 98.603 106.59 98.603 110.239V224.559C98.603 228.208 101.561 231.166 105.211 231.166H293.859C297.508 231.166 300.466 228.208 300.466 224.559V110.239C300.466 106.59 297.508 103.631 293.859 103.631Z" fill="#484646"/>
<path d="M293.859 231.674H105.211C103.326 231.674 101.519 230.925 100.187 229.593C98.8542 228.26 98.1056 226.453 98.1056 224.569V110.239C98.1056 108.355 98.8542 106.548 100.187 105.215C101.519 103.883 103.326 103.134 105.211 103.134H293.859C295.743 103.134 297.55 103.883 298.883 105.215C300.215 106.548 300.964 108.355 300.964 110.239V224.559C300.965 225.492 300.782 226.417 300.426 227.281C300.069 228.144 299.546 228.928 298.886 229.589C298.226 230.25 297.442 230.774 296.58 231.132C295.717 231.49 294.792 231.674 293.859 231.674ZM105.211 104.139C103.595 104.139 102.046 104.781 100.904 105.923C99.7622 107.065 99.1206 108.614 99.1206 110.229V224.559C99.1206 226.174 99.7622 227.723 100.904 228.865C102.046 230.007 103.595 230.649 105.211 230.649H293.859C295.474 230.649 297.023 230.007 298.165 228.865C299.307 227.723 299.949 226.174 299.949 224.559V110.239C299.949 108.624 299.307 107.075 298.165 105.933C297.023 104.791 295.474 104.149 293.859 104.149L105.211 104.139Z" fill="#484646"/>
<path d="M290.803 112.421H108.276V222.194H290.803V112.421Z" fill="#F2F1F1"/>
<path d="M136.686 115.314V256.653C136.686 270.315 164.821 281.48 199.534 281.48C234.247 281.48 262.383 270.376 262.383 256.683V115.314H136.686Z" fill="#FF931E"/>
<path d="M199.535 281.957C164.598 281.957 136.178 270.599 136.178 256.653V115.314C136.178 115.179 136.232 115.05 136.327 114.955C136.422 114.86 136.551 114.807 136.686 114.807H262.383C262.518 114.807 262.647 114.86 262.742 114.955C262.837 115.05 262.891 115.179 262.891 115.314V256.653C262.891 270.599 234.471 281.957 199.535 281.957ZM137.193 115.822V256.653C137.193 270.041 165.157 280.942 199.535 280.942C233.913 280.942 261.876 270.041 261.876 256.653V115.822H137.193Z" fill="#484646"/>
<path d="M199.534 140.111C234.245 140.111 262.383 129.009 262.383 115.314C262.383 101.619 234.245 90.5176 199.534 90.5176C164.824 90.5176 136.686 101.619 136.686 115.314C136.686 129.009 164.824 140.111 199.534 140.111Z" fill="#FF931E"/>
<path d="M199.535 140.618C164.598 140.618 136.178 129.26 136.178 115.314C136.178 101.368 164.598 90 199.535 90C234.471 90 262.891 101.358 262.891 115.314C262.891 129.27 234.471 140.618 199.535 140.618ZM199.535 91.015C165.157 91.015 137.193 101.916 137.193 115.314C137.193 128.712 165.157 139.603 199.535 139.603C233.913 139.603 261.876 128.702 261.876 115.314C261.876 101.926 233.913 91.015 199.535 91.015Z" fill="#484646"/>
<path d="M199.535 183.522C164.598 183.522 136.178 172.174 136.178 158.218C136.178 158.084 136.232 157.954 136.327 157.859C136.422 157.764 136.551 157.711 136.686 157.711C136.82 157.711 136.949 157.764 137.045 157.859C137.14 157.954 137.193 158.084 137.193 158.218C137.193 171.616 165.157 182.507 199.535 182.507C233.913 182.507 261.876 171.616 261.876 158.218C261.876 158.084 261.929 157.954 262.025 157.859C262.12 157.764 262.249 157.711 262.383 157.711C262.518 157.711 262.647 157.764 262.742 157.859C262.837 157.954 262.891 158.084 262.891 158.218C262.891 172.174 234.471 183.522 199.535 183.522Z" fill="#484646"/>
<path d="M199.535 232.151C164.598 232.151 136.178 220.793 136.178 206.837C136.178 206.702 136.232 206.573 136.327 206.478C136.422 206.383 136.551 206.329 136.686 206.329C136.82 206.332 136.947 206.386 137.042 206.481C137.136 206.575 137.191 206.703 137.193 206.837C137.193 220.235 165.157 231.136 199.535 231.136C233.913 231.136 261.876 220.235 261.876 206.837C261.878 206.703 261.933 206.575 262.027 206.481C262.122 206.386 262.25 206.332 262.383 206.329C262.518 206.329 262.647 206.383 262.742 206.478C262.837 206.573 262.891 206.702 262.891 206.837C262.891 220.793 234.471 232.151 199.535 232.151Z" fill="#484646"/>
<path d="M152.845 140.618H152.672C145.709 138.152 142.664 134.386 142.522 134.224C142.474 134.172 142.437 134.112 142.413 134.046C142.389 133.979 142.38 133.909 142.385 133.839C142.39 133.769 142.409 133.701 142.442 133.638C142.475 133.576 142.52 133.522 142.575 133.478C142.63 133.434 142.694 133.402 142.762 133.384C142.83 133.367 142.901 133.363 142.97 133.374C143.039 133.385 143.106 133.41 143.165 133.448C143.224 133.486 143.275 133.536 143.314 133.594C143.314 133.594 146.359 137.299 152.997 139.684C153.131 139.707 153.251 139.783 153.33 139.894C153.409 140.005 153.441 140.143 153.418 140.278C153.395 140.413 153.32 140.533 153.208 140.612C153.097 140.691 152.959 140.722 152.824 140.699L152.845 140.618Z" fill="#484646"/>
<path d="M157.92 142.1H157.808L155.524 141.623C155.39 141.596 155.271 141.517 155.195 141.402C155.119 141.288 155.091 141.148 155.118 141.014C155.145 140.879 155.224 140.761 155.339 140.685C155.453 140.609 155.593 140.581 155.727 140.608L158.021 141.085C158.087 141.099 158.148 141.127 158.203 141.165C158.258 141.203 158.305 141.252 158.341 141.309C158.377 141.366 158.401 141.429 158.412 141.495C158.424 141.561 158.422 141.629 158.407 141.694C158.387 141.809 158.328 141.913 158.238 141.987C158.149 142.062 158.036 142.102 157.92 142.1Z" fill="#484646"/>
<path d="M152.845 185.897H152.672C145.709 183.431 142.664 179.665 142.522 179.503C142.439 179.398 142.401 179.264 142.416 179.131C142.431 178.998 142.499 178.876 142.603 178.792C142.708 178.709 142.842 178.671 142.975 178.686C143.108 178.702 143.23 178.769 143.314 178.873C143.314 178.873 146.359 182.578 152.997 184.963C153.131 184.986 153.251 185.062 153.33 185.173C153.409 185.284 153.441 185.423 153.418 185.557C153.395 185.692 153.32 185.812 153.208 185.891C153.097 185.97 152.959 186.001 152.824 185.978L152.845 185.897Z" fill="#484646"/>
<path d="M157.92 187.379H157.808L155.524 186.902C155.39 186.875 155.271 186.796 155.195 186.682C155.119 186.567 155.091 186.428 155.118 186.293C155.145 186.158 155.224 186.04 155.339 185.964C155.453 185.888 155.593 185.86 155.727 185.887L158.021 186.364C158.086 186.377 158.148 186.403 158.203 186.441C158.257 186.478 158.304 186.526 158.34 186.582C158.376 186.638 158.401 186.7 158.412 186.766C158.423 186.831 158.422 186.898 158.407 186.963C158.39 187.08 158.331 187.186 158.241 187.262C158.152 187.339 158.037 187.38 157.92 187.379Z" fill="#484646"/>
<path d="M152.845 231.176H152.672C145.709 228.71 142.664 224.944 142.522 224.782C142.439 224.677 142.401 224.543 142.416 224.41C142.431 224.277 142.499 224.155 142.603 224.071C142.708 223.988 142.842 223.95 142.975 223.966C143.108 223.981 143.23 224.048 143.314 224.153C143.314 224.153 146.359 227.857 152.997 230.243C153.131 230.265 153.251 230.341 153.33 230.452C153.409 230.564 153.441 230.702 153.418 230.836C153.395 230.971 153.32 231.091 153.208 231.17C153.097 231.249 152.959 231.28 152.824 231.258L152.845 231.176Z" fill="#484646"/>
<path d="M157.92 232.658H157.808L155.524 232.181C155.459 232.168 155.397 232.142 155.342 232.105C155.286 232.067 155.239 232.019 155.202 231.964C155.165 231.908 155.14 231.846 155.127 231.78C155.115 231.715 155.115 231.648 155.128 231.582C155.142 231.517 155.168 231.456 155.205 231.401C155.243 231.346 155.291 231.299 155.346 231.263C155.402 231.227 155.465 231.203 155.53 231.191C155.595 231.18 155.662 231.182 155.727 231.197L158.021 231.674C158.086 231.687 158.148 231.713 158.203 231.75C158.258 231.788 158.304 231.836 158.34 231.892C158.376 231.948 158.401 232.01 158.412 232.075C158.423 232.141 158.422 232.208 158.407 232.273C158.383 232.384 158.322 232.483 158.233 232.553C158.144 232.624 158.033 232.661 157.92 232.658Z" fill="#484646"/>
<path d="M186.614 225.33C187.476 222.803 188.319 220.255 189.202 217.768C189.669 216.459 190.217 215.18 190.724 213.901C191.007 213.095 191.559 212.411 192.288 211.965C193.017 211.519 193.877 211.339 194.723 211.455C196.753 211.678 198.783 212.115 200.813 212.47C201.895 212.707 202.996 212.849 204.102 212.896C204.917 212.911 205.713 212.654 206.366 212.165C208.7 209.943 210.943 207.608 213.156 205.253C213.527 204.813 213.785 204.289 213.905 203.726C214.026 203.163 214.005 202.579 213.846 202.026C213.328 199.559 212.73 197.113 212.222 194.646C211.989 193.691 211.9 192.705 211.958 191.723C211.986 191.364 212.084 191.014 212.248 190.694C212.412 190.373 212.638 190.088 212.912 189.856C216.672 187.403 220.777 185.529 225.092 184.293C225.732 184.089 226.421 184.102 227.052 184.329C227.683 184.557 228.222 184.987 228.584 185.552C230.137 187.684 231.771 189.774 233.263 191.957C233.747 192.781 234.458 193.447 235.312 193.878C236.165 194.308 237.124 194.483 238.074 194.383C240.774 194.18 243.474 194.139 246.194 194.007C246.691 193.98 247.174 193.832 247.6 193.576C248.027 193.319 248.384 192.962 248.64 192.535C249.605 191.114 250.508 189.653 251.452 188.211C252.264 186.973 253.066 185.735 253.928 184.537C254.303 183.923 254.88 183.458 255.559 183.223C256.239 182.988 256.98 182.997 257.653 183.248C261.399 184.537 265.134 185.867 268.818 187.308C269.522 187.581 270.108 188.089 270.478 188.746C270.849 189.403 270.979 190.169 270.848 190.911C270.656 192.992 270.179 195.032 269.833 197.103C269.671 198.118 269.529 199.041 269.448 200.026C269.374 200.656 269.448 201.294 269.665 201.89C269.881 202.485 270.235 203.022 270.696 203.457C272.665 205.314 274.665 207.141 276.563 209.08C277.112 209.665 277.811 210.09 278.583 210.308C279.356 210.526 280.173 210.53 280.948 210.318C283.617 209.74 286.276 209.09 288.946 208.511C289.824 208.215 290.783 208.272 291.62 208.67C292.457 209.068 293.107 209.775 293.432 210.643C294.955 213.83 296.423 217.044 297.837 220.285C298.852 222.64 298.497 224.01 296.457 225.614C295.087 226.71 293.605 227.644 292.194 228.659C291.179 229.41 290.164 230.192 289.24 231.014C288.834 231.349 288.51 231.774 288.294 232.254C288.077 232.735 287.974 233.258 287.992 233.785C288.063 236.586 288.103 239.388 288.235 242.179C288.254 242.939 288.469 243.68 288.861 244.332C289.252 244.983 289.806 245.521 290.468 245.894C292.001 246.817 293.513 247.69 295.077 248.624C296.026 249.19 296.944 249.807 297.827 250.471C298.467 250.892 298.94 251.522 299.166 252.254C299.392 252.985 299.356 253.773 299.065 254.481C297.837 257.861 296.569 261.22 295.3 264.631C295.072 265.135 294.793 265.614 294.468 266.062C294.165 266.605 293.7 267.04 293.137 267.304C292.574 267.568 291.942 267.648 291.331 267.534L284.054 266.255C283.871 266.255 283.688 266.255 283.506 266.163C282.49 265.893 281.416 265.934 280.424 266.281C279.432 266.629 278.568 267.267 277.943 268.112C276.573 269.736 275.02 271.157 273.548 272.73C272.866 273.403 272.379 274.248 272.141 275.177C271.903 276.105 271.923 277.08 272.198 277.998C272.797 280.353 273.376 282.718 273.863 285.103C274.35 287.489 273.863 288.707 271.579 289.813C268.281 291.396 264.941 292.858 261.582 294.309C260.836 294.718 259.962 294.826 259.139 294.611C258.316 294.396 257.606 293.874 257.156 293.152C255.857 291.518 254.669 289.793 253.451 288.077C250.843 284.413 250.193 284.088 245.697 284.312C243.941 284.403 242.195 284.515 240.449 284.616C239.613 284.623 238.794 284.848 238.071 285.268C237.349 285.688 236.748 286.289 236.328 287.011C235.252 288.778 234.237 290.574 233.121 292.3C232.525 293.198 231.845 294.037 231.091 294.807C230.763 295.202 230.318 295.484 229.821 295.612C229.323 295.739 228.798 295.706 228.32 295.517C224.778 294.208 221.215 292.898 217.703 291.559C217.227 291.346 216.775 291.084 216.353 290.777C215.808 290.478 215.371 290.016 215.103 289.455C214.835 288.894 214.751 288.263 214.861 287.651C215.247 285.245 215.653 282.85 216.028 280.455C216.14 279.724 216.201 278.993 216.241 278.252C216.309 277.654 216.235 277.048 216.025 276.484C215.815 275.92 215.476 275.413 215.034 275.004C213.105 273.238 211.197 271.452 209.289 269.655C208.747 269.129 208.075 268.758 207.341 268.579C206.608 268.401 205.84 268.422 205.117 268.64C202.762 269.229 200.387 269.746 198.012 270.284L197.738 270.355C194.642 270.914 193.678 270.508 192.298 267.666C190.806 264.499 189.445 261.271 188.136 258.023C187.324 255.993 187.679 254.917 189.415 253.598C191.151 252.278 193.221 250.776 195.211 249.487C196.178 248.937 196.963 248.114 197.466 247.122C197.97 246.129 198.17 245.01 198.043 243.904C197.87 241.387 197.809 238.829 197.677 236.343C197.673 235.816 197.536 235.299 197.279 234.839C197.022 234.38 196.652 233.993 196.205 233.714C194.114 232.374 191.993 231.055 189.902 229.705C188.542 228.811 187.152 227.928 186.593 226.254L186.614 225.33ZM266.799 239.398C266.805 236.238 266.186 233.109 264.975 230.19C263.765 227.271 261.988 224.622 259.748 222.394C257.507 220.167 254.847 218.405 251.921 217.212C248.995 216.019 245.862 215.418 242.703 215.444C231.659 215.393 219.134 225.076 219.144 239.428C219.187 245.708 221.695 251.721 226.128 256.169C230.561 260.617 236.565 263.146 242.845 263.21C258.212 263.271 267.438 250.015 266.778 239.398H266.799Z" fill="white"/>
<path d="M229.213 296.207C228.848 296.208 228.486 296.139 228.147 296.004L225.254 294.929C222.676 293.974 220.108 293.02 217.54 292.046C217.092 291.852 216.663 291.614 216.262 291.335L216.079 291.214C215.455 290.857 214.957 290.317 214.652 289.666C214.347 289.016 214.25 288.287 214.374 287.58C214.536 286.565 214.709 285.459 214.891 284.393C215.104 283.053 215.328 281.723 215.541 280.333C215.632 279.704 215.703 279.023 215.754 278.181C215.818 277.661 215.76 277.133 215.584 276.64C215.407 276.146 215.118 275.701 214.739 275.339C213.064 273.817 211.42 272.294 209.766 270.711L208.994 269.99C208.517 269.517 207.92 269.183 207.267 269.023C206.615 268.864 205.931 268.886 205.289 269.087C203.635 269.493 201.97 269.868 200.316 270.244L198.083 270.751L197.89 270.802C194.5 271.421 193.323 270.802 191.902 267.828C190.257 264.347 188.806 260.835 187.73 258.165C186.837 255.973 187.222 254.613 189.171 253.09C191.364 251.426 193.231 250.116 194.997 248.959C195.888 248.456 196.611 247.702 197.075 246.79C197.539 245.878 197.724 244.85 197.606 243.833C197.494 242.27 197.433 240.707 197.362 239.144C197.362 238.19 197.281 237.226 197.23 236.272C197.232 235.825 197.119 235.385 196.902 234.994C196.685 234.603 196.372 234.274 195.992 234.039L193.333 232.354C192.115 231.582 190.897 230.811 189.689 230.029C188.237 229.085 186.776 228.142 186.177 226.315C186.167 226.261 186.167 226.206 186.177 226.152V225.228C186.166 225.175 186.166 225.12 186.177 225.066L186.948 222.803C187.547 221.026 188.146 219.26 188.765 217.494C189.252 216.134 189.78 214.825 190.298 213.607C190.625 212.702 191.25 211.935 192.071 211.433C192.892 210.931 193.86 210.724 194.815 210.846C196.175 210.998 197.545 211.242 198.875 211.475C199.565 211.597 200.255 211.729 200.905 211.83L201.717 211.973C202.5 212.15 203.299 212.245 204.102 212.257C204.788 212.269 205.459 212.063 206.02 211.668C208.507 209.293 210.841 206.857 212.79 204.776C213.111 204.4 213.331 203.948 213.431 203.464C213.53 202.979 213.505 202.478 213.359 202.005C213.125 200.909 212.882 199.823 212.638 198.737C212.334 197.367 212.019 195.996 211.735 194.616C211.5 193.619 211.408 192.594 211.461 191.571C211.497 191.136 211.621 190.714 211.825 190.328C212.029 189.943 212.309 189.603 212.648 189.328C216.45 186.839 220.608 184.943 224.98 183.705C225.721 183.464 226.521 183.474 227.256 183.735C227.99 183.996 228.617 184.492 229.04 185.146C229.589 185.907 230.147 186.648 230.715 187.399C231.73 188.749 232.745 190.15 233.76 191.571C234.192 192.32 234.833 192.927 235.605 193.318C236.376 193.71 237.245 193.868 238.104 193.774C239.86 193.642 241.647 193.581 243.372 193.51L246.224 193.398C246.638 193.371 247.038 193.245 247.392 193.029C247.746 192.813 248.042 192.515 248.254 192.16C248.823 191.317 249.371 190.455 249.919 189.602C250.294 189.013 250.68 188.414 251.066 187.836L251.472 187.207C252.142 186.192 252.822 185.177 253.502 184.162C253.943 183.462 254.611 182.934 255.394 182.666C256.177 182.399 257.028 182.407 257.806 182.69C262.312 184.243 265.763 185.491 268.971 186.75C269.776 187.065 270.448 187.647 270.873 188.4C271.298 189.153 271.451 190.029 271.305 190.881C271.173 192.271 270.919 193.672 270.666 195.012C270.544 195.712 270.412 196.402 270.3 197.042C270.158 197.955 270.006 198.94 269.925 199.935C269.848 200.493 269.908 201.062 270.099 201.592C270.289 202.122 270.606 202.598 271.021 202.98L272.401 204.279C273.893 205.68 275.446 207.131 276.898 208.613C277.382 209.142 278.005 209.525 278.695 209.72C279.385 209.916 280.116 209.915 280.805 209.719C282.105 209.445 283.404 209.141 284.693 208.846C285.982 208.552 287.433 208.207 288.814 207.913C289.807 207.582 290.889 207.648 291.834 208.096C292.78 208.544 293.516 209.34 293.889 210.318C295.411 213.515 296.934 216.763 298.294 219.981C299.41 222.539 299.004 224.153 296.771 225.919C295.959 226.558 295.097 227.167 294.254 227.746C293.665 228.162 293.077 228.568 292.498 229.004C291.422 229.796 290.468 230.557 289.575 231.339C289.223 231.623 288.942 231.986 288.755 232.399C288.569 232.811 288.481 233.262 288.499 233.714V235.45C288.55 237.632 288.59 239.885 288.702 242.098C288.717 242.778 288.914 243.442 289.27 244.022C289.627 244.602 290.132 245.076 290.732 245.397C291.382 245.792 292.041 246.178 292.701 246.564C293.584 247.081 294.467 247.579 295.34 248.127C296.308 248.704 297.243 249.334 298.142 250.015C298.862 250.504 299.394 251.224 299.649 252.057C299.904 252.889 299.866 253.784 299.542 254.592C298.375 257.8 297.137 261.099 295.766 264.692C295.56 265.197 295.291 265.675 294.965 266.113L294.944 266.255C294.584 266.877 294.042 267.374 293.39 267.677C292.738 267.98 292.008 268.076 291.3 267.95L286.55 267.158L283.83 266.701C283.7 266.692 283.571 266.671 283.444 266.64C282.517 266.387 281.535 266.423 280.628 266.742C279.722 267.061 278.934 267.649 278.369 268.427C277.405 269.564 276.339 270.65 275.324 271.695L273.985 273.065C273.361 273.675 272.918 274.445 272.703 275.29C272.489 276.135 272.51 277.023 272.767 277.856C273.335 280.11 273.934 282.525 274.431 284.961C274.989 287.742 274.37 289.021 271.863 290.229C268.818 291.67 265.591 293.152 261.855 294.736C261.006 295.184 260.019 295.299 259.089 295.056C258.159 294.814 257.354 294.233 256.831 293.426C255.755 292.076 254.74 290.645 253.786 289.265L253.126 288.341C250.609 284.799 250.081 284.565 245.818 284.789L242.834 284.961L240.561 285.083C239.807 285.089 239.068 285.292 238.416 285.671C237.765 286.05 237.223 286.593 236.846 287.245L235.831 289.021C235.141 290.188 234.43 291.386 233.679 292.543C233.09 293.471 232.41 294.338 231.649 295.132C231.347 295.479 230.972 295.756 230.551 295.942C230.13 296.128 229.673 296.219 229.213 296.207ZM206.426 267.97C207.03 267.966 207.629 268.081 208.188 268.309C208.747 268.538 209.256 268.874 209.684 269.3L210.446 270.02C212.1 271.573 213.744 273.065 215.419 274.639C215.918 275.098 216.302 275.668 216.54 276.302C216.778 276.937 216.863 277.619 216.789 278.293C216.76 279.048 216.686 279.8 216.566 280.546C216.363 281.886 216.14 283.215 215.916 284.555L215.399 287.732C215.306 288.248 215.379 288.78 215.607 289.252C215.835 289.724 216.206 290.113 216.668 290.361L216.86 290.483C217.192 290.725 217.549 290.929 217.926 291.092C220.494 292.107 223.062 293.02 225.64 293.985L228.533 295.06C228.92 295.214 229.346 295.238 229.748 295.13C230.151 295.022 230.507 294.788 230.766 294.462C231.495 293.717 232.151 292.905 232.725 292.036C233.466 290.899 234.166 289.701 234.856 288.544C235.212 287.955 235.557 287.357 235.871 286.768C236.331 285.971 236.99 285.308 237.784 284.844C238.578 284.379 239.479 284.13 240.398 284.119L242.662 283.987L245.646 283.814C250.294 283.581 251.137 283.987 253.847 287.793L254.507 288.717C255.471 290.087 256.476 291.508 257.552 292.838C257.934 293.472 258.549 293.932 259.265 294.122C259.981 294.311 260.742 294.215 261.388 293.853C265.103 292.269 268.362 290.808 271.356 289.366C273.386 288.351 273.832 287.519 273.386 285.215C272.939 282.911 272.3 280.384 271.731 278.11C271.431 277.107 271.41 276.042 271.669 275.028C271.928 274.014 272.458 273.09 273.203 272.355L274.553 270.975C275.568 269.96 276.634 268.884 277.598 267.767C278.281 266.841 279.228 266.144 280.316 265.767C281.403 265.39 282.578 265.351 283.688 265.656H283.982H284.206L286.733 266.082L291.483 266.874C291.998 266.969 292.53 266.898 293.002 266.672C293.475 266.446 293.863 266.076 294.112 265.615L294.193 265.494C294.472 265.119 294.707 264.713 294.894 264.286C296.254 260.693 297.492 257.394 298.659 254.197C298.913 253.59 298.944 252.913 298.747 252.285C298.55 251.657 298.138 251.119 297.583 250.766C296.716 250.11 295.815 249.5 294.883 248.939C294.011 248.411 293.138 247.924 292.255 247.386C291.595 247 290.935 246.615 290.285 246.219C289.55 245.803 288.935 245.204 288.499 244.48C288.063 243.756 287.822 242.932 287.799 242.088C287.697 239.865 287.647 237.601 287.596 235.419V233.683C287.577 233.082 287.696 232.485 287.942 231.936C288.188 231.388 288.555 230.902 289.017 230.517C289.93 229.725 290.915 228.943 292.001 228.131L293.787 226.863C294.609 226.294 295.462 225.695 296.254 225.066C298.121 223.584 298.416 222.478 297.482 220.336C296.081 217.129 294.609 213.891 293.087 210.704C292.805 209.945 292.237 209.326 291.505 208.981C290.772 208.636 289.934 208.591 289.169 208.857C287.799 209.151 286.428 209.466 285.109 209.78L281.211 210.663C280.354 210.898 279.448 210.893 278.593 210.65C277.738 210.406 276.965 209.934 276.36 209.283C274.908 207.811 273.376 206.36 271.884 204.969L270.503 203.67C269.985 203.185 269.588 202.585 269.344 201.919C269.101 201.252 269.018 200.538 269.102 199.833C269.184 198.818 269.336 197.803 269.478 196.869C269.6 196.159 269.722 195.459 269.854 194.758C270.097 193.439 270.351 192.058 270.483 190.698C270.58 190.074 270.466 189.436 270.159 188.884C269.852 188.332 269.369 187.899 268.788 187.653C265.56 186.415 262.119 185.177 257.623 183.593C257.052 183.378 256.423 183.369 255.846 183.569C255.269 183.77 254.781 184.166 254.466 184.689C253.766 185.704 253.086 186.719 252.436 187.734L252.02 188.364C251.634 188.952 251.259 189.541 250.883 190.13C250.325 190.993 249.777 191.855 249.208 192.698C248.907 193.189 248.491 193.6 247.996 193.895C247.501 194.19 246.942 194.361 246.366 194.393L243.504 194.504C241.789 194.575 240.013 194.636 238.277 194.768C237.238 194.876 236.189 194.684 235.256 194.214C234.322 193.745 233.542 193.018 233.009 192.119C232.055 190.718 230.979 189.328 229.964 187.988C229.396 187.237 228.837 186.486 228.279 185.725C227.973 185.25 227.517 184.892 226.983 184.707C226.449 184.523 225.869 184.524 225.336 184.71C221.063 185.914 217 187.766 213.288 190.201C212.866 190.589 212.605 191.122 212.557 191.693C212.516 192.624 212.604 193.557 212.821 194.464C213.105 195.834 213.409 197.204 213.724 198.524C213.968 199.62 214.211 200.706 214.445 201.802C214.624 202.435 214.643 203.102 214.5 203.744C214.356 204.385 214.055 204.981 213.623 205.477C211.664 207.567 209.319 210.024 206.812 212.409C206.071 212.988 205.154 213.296 204.213 213.282C203.343 213.267 202.477 213.168 201.625 212.988L200.834 212.845L198.743 212.49C197.443 212.257 196.094 212.013 194.764 211.861C194.025 211.758 193.274 211.917 192.64 212.31C192.006 212.703 191.529 213.305 191.293 214.013C190.785 215.21 190.278 216.51 189.78 217.849C189.161 219.605 188.562 221.371 187.963 223.138L187.222 225.32V226.081C187.73 227.522 188.968 228.314 190.267 229.126C191.567 229.938 192.724 230.709 193.942 231.471L196.601 233.166C197.115 233.492 197.541 233.941 197.838 234.473C198.136 235.004 198.297 235.602 198.306 236.211C198.357 237.165 198.398 238.129 198.438 239.093C198.499 240.646 198.57 242.209 198.672 243.762C198.816 244.964 198.604 246.182 198.063 247.264C197.522 248.347 196.675 249.247 195.627 249.852C193.871 250.989 192.033 252.288 189.861 253.912C188.298 255.1 188.034 255.942 188.745 257.749C189.821 260.398 191.272 263.839 192.906 267.361C194.124 269.939 194.855 270.305 197.789 269.757L200.164 269.219C201.828 268.843 203.483 268.467 205.127 268.061C205.555 267.983 205.991 267.953 206.426 267.97ZM242.885 263.758H242.834C236.398 263.72 230.239 261.137 225.701 256.573C221.163 252.009 218.616 245.834 218.616 239.398C218.614 236.199 219.249 233.032 220.484 230.081C221.72 227.131 223.531 224.456 225.813 222.214C230.252 217.702 236.264 215.084 242.591 214.906H242.682C245.909 214.874 249.111 215.483 252.1 216.698C255.09 217.914 257.808 219.711 260.097 221.986C262.386 224.261 264.201 226.968 265.435 229.95C266.669 232.932 267.298 236.13 267.286 239.357C267.641 245.112 265.205 251.365 260.759 256.084C258.471 258.528 255.701 260.471 252.625 261.792C249.549 263.113 246.233 263.782 242.885 263.758ZM242.591 215.951C236.53 216.128 230.773 218.641 226.523 222.965C223.25 226.205 221.014 230.345 220.096 234.858C219.179 239.371 219.623 244.055 221.371 248.316C223.119 252.577 226.093 256.223 229.916 258.791C233.739 261.36 238.239 262.735 242.844 262.743C246.05 262.769 249.227 262.133 252.176 260.874C255.124 259.614 257.78 257.759 259.978 255.425C264.241 250.898 266.575 244.919 266.23 239.428C266.244 236.333 265.642 233.267 264.459 230.407C263.277 227.547 261.538 224.95 259.343 222.768C257.148 220.587 254.541 218.863 251.674 217.698C248.806 216.533 245.736 215.95 242.641 215.982L242.591 215.951Z" fill="#484646"/>
<path d="M262.637 155.021C263.063 153.762 263.48 152.504 263.926 151.245C264.16 150.596 264.424 149.956 264.687 149.317C264.829 148.907 265.11 148.56 265.481 148.336C265.851 148.112 266.289 148.024 266.717 148.088C267.732 148.2 268.747 148.413 269.762 148.576C270.303 148.696 270.853 148.768 271.407 148.789C271.814 148.804 272.213 148.674 272.533 148.423C273.701 147.317 274.827 146.15 275.923 144.972C276.112 144.754 276.243 144.492 276.305 144.21C276.368 143.929 276.358 143.636 276.279 143.359C276.015 142.13 275.72 140.902 275.467 139.674C275.349 139.196 275.301 138.704 275.325 138.213C275.357 137.849 275.532 137.513 275.812 137.279C277.691 136.051 279.744 135.113 281.902 134.498C282.222 134.397 282.565 134.404 282.881 134.518C283.196 134.632 283.465 134.846 283.648 135.127C284.419 136.142 285.241 137.238 285.982 138.324C286.223 138.738 286.578 139.073 287.005 139.289C287.432 139.505 287.912 139.593 288.388 139.542C289.738 139.441 291.088 139.42 292.448 139.349C292.695 139.338 292.937 139.266 293.149 139.138C293.362 139.011 293.539 138.832 293.666 138.619C294.153 137.908 294.61 137.177 295.077 136.457C295.543 135.736 295.878 135.218 296.315 134.619C296.501 134.312 296.788 134.08 297.128 133.963C297.467 133.846 297.837 133.852 298.172 133.98C300.053 134.616 301.914 135.293 303.755 136.01C304.106 136.149 304.398 136.404 304.583 136.733C304.768 137.062 304.834 137.445 304.77 137.817C304.668 138.832 304.435 139.847 304.262 140.862C304.191 141.339 304.12 141.877 304.08 142.323C304.042 142.638 304.078 142.957 304.186 143.254C304.293 143.552 304.469 143.821 304.699 144.039C305.714 144.962 306.678 145.876 307.632 146.84C307.906 147.134 308.255 147.348 308.641 147.459C309.027 147.57 309.436 147.573 309.824 147.469C311.154 147.175 312.484 146.85 313.824 146.566C314.255 146.413 314.729 146.433 315.145 146.623C315.562 146.812 315.888 147.155 316.057 147.581C316.818 149.164 317.559 150.778 318.259 152.392C318.396 152.611 318.487 152.855 318.527 153.11C318.566 153.365 318.553 153.625 318.489 153.875C318.424 154.125 318.309 154.359 318.151 154.563C317.993 154.767 317.795 154.937 317.569 155.062C316.889 155.61 316.148 156.077 315.448 156.604C314.94 156.98 314.433 157.366 313.966 157.782C313.761 157.947 313.599 158.158 313.491 158.398C313.384 158.638 313.334 158.9 313.347 159.162C313.347 160.563 313.397 161.964 313.458 163.354C313.469 163.735 313.579 164.106 313.777 164.431C313.974 164.757 314.253 165.026 314.585 165.212C315.346 165.678 316.117 166.115 316.879 166.582C317.356 166.862 317.817 167.171 318.259 167.505C318.586 167.716 318.827 168.036 318.94 168.407C319.053 168.779 319.031 169.178 318.878 169.535C318.256 171.22 317.626 172.912 316.99 174.61C316.883 174.868 316.743 175.11 316.574 175.331C316.424 175.603 316.192 175.82 315.912 175.953C315.632 176.086 315.316 176.128 315.011 176.072L311.377 175.463H311.103C310.592 175.329 310.051 175.354 309.554 175.536C309.057 175.717 308.627 176.046 308.322 176.478C307.632 177.28 306.861 178.011 306.13 178.782C305.786 179.116 305.541 179.537 305.421 180.001C305.301 180.465 305.311 180.953 305.45 181.411C305.744 182.588 306.039 183.766 306.282 184.963C306.377 185.191 306.423 185.437 306.416 185.684C306.408 185.931 306.349 186.174 306.24 186.396C306.131 186.618 305.977 186.814 305.786 186.971C305.596 187.129 305.374 187.243 305.135 187.308C303.491 188.1 301.826 188.851 300.141 189.561C299.768 189.766 299.331 189.82 298.92 189.712C298.508 189.605 298.154 189.344 297.929 188.983C297.279 188.161 296.69 187.298 296.081 186.445C294.772 184.618 294.447 184.415 292.204 184.568L289.575 184.72C289.163 184.729 288.76 184.845 288.404 185.054C288.049 185.264 287.753 185.561 287.545 185.918C287.017 186.801 286.53 187.694 285.952 188.567C285.653 189.014 285.314 189.432 284.937 189.815C284.773 190.012 284.552 190.152 284.304 190.216C284.056 190.28 283.795 190.264 283.556 190.17C281.78 189.511 280.014 188.861 278.248 188.191C278.008 188.086 277.781 187.957 277.568 187.805C277.296 187.652 277.079 187.419 276.947 187.137C276.814 186.855 276.772 186.539 276.827 186.232C277.02 185.034 277.223 183.837 277.405 182.639C277.463 182.276 277.5 181.91 277.517 181.543C277.552 181.243 277.515 180.94 277.409 180.657C277.303 180.375 277.131 180.122 276.908 179.919C275.893 179.036 275 178.143 274.046 177.249C273.776 176.983 273.439 176.795 273.071 176.704C272.703 176.613 272.318 176.622 271.955 176.732C270.777 177.026 269.59 177.28 268.412 177.554H268.281C266.728 177.838 266.251 177.635 265.56 176.214C264.809 174.631 264.129 173.017 263.469 171.393C263.363 171.206 263.295 171 263.269 170.787C263.243 170.574 263.261 170.358 263.321 170.151C263.38 169.945 263.481 169.752 263.616 169.586C263.752 169.419 263.919 169.281 264.109 169.18C265.053 168.47 266.017 167.769 267.012 167.15C267.495 166.874 267.887 166.463 268.14 165.967C268.392 165.471 268.494 164.912 268.433 164.359C268.341 163.1 268.311 161.842 268.24 160.583C268.24 160.319 268.173 160.06 268.046 159.829C267.918 159.598 267.733 159.403 267.509 159.264L264.363 157.234C263.624 156.873 263.037 156.262 262.708 155.508L262.637 155.021ZM302.699 162.055C302.703 160.475 302.394 158.911 301.789 157.452C301.184 155.993 300.295 154.668 299.175 153.555C298.054 152.442 296.723 151.562 295.26 150.967C293.797 150.372 292.231 150.073 290.651 150.088C287.526 150.192 284.561 151.493 282.37 153.723C280.178 155.952 278.928 158.939 278.877 162.065C278.893 165.209 280.146 168.22 282.364 170.448C284.582 172.676 287.588 173.942 290.732 173.971C292.305 173.991 293.866 173.697 295.324 173.106C296.782 172.515 298.107 171.639 299.221 170.529C300.336 169.419 301.218 168.098 301.815 166.643C302.412 165.188 302.713 163.628 302.699 162.055Z" fill="white"/>
<path d="M283.932 190.708C283.716 190.706 283.503 190.665 283.303 190.587L281.8 190.028L277.994 188.607C277.755 188.501 277.527 188.372 277.314 188.222L277.223 188.161C276.864 187.97 276.573 187.671 276.391 187.308C276.209 186.944 276.145 186.533 276.208 186.131L276.461 184.547C276.573 183.877 276.685 183.207 276.786 182.517C276.786 182.162 276.867 181.817 276.888 181.502C276.919 181.279 276.896 181.052 276.82 180.839C276.744 180.627 276.617 180.437 276.451 180.284L273.883 177.899L273.579 177.605C273.368 177.399 273.106 177.255 272.82 177.187C272.534 177.119 272.235 177.13 271.955 177.219L269.427 177.808L268.412 178.041H268.25C266.443 178.376 265.743 178.041 264.982 176.417C264.342 175.047 263.693 173.555 262.891 171.576C262.631 171.095 262.569 170.532 262.719 170.006C262.869 169.481 263.218 169.035 263.693 168.764C264.789 167.932 265.723 167.272 266.626 166.734C267.035 166.508 267.366 166.165 267.578 165.749C267.79 165.333 267.872 164.863 267.814 164.4C267.753 163.618 267.722 162.836 267.692 162.045C267.692 161.568 267.692 161.091 267.621 160.614C267.622 160.432 267.577 160.252 267.49 160.093C267.403 159.933 267.277 159.798 267.123 159.7L265.804 158.868L264.007 157.65C263.167 157.215 262.509 156.495 262.15 155.62C262.145 155.569 262.145 155.518 262.15 155.468V155.001C262.145 154.947 262.145 154.892 262.15 154.838L262.525 153.732C262.83 152.839 263.134 151.945 263.449 151.052C263.683 150.393 263.946 149.743 264.221 149.093C264.402 148.588 264.75 148.161 265.208 147.882C265.666 147.603 266.206 147.49 266.738 147.561C267.428 147.642 268.108 147.764 268.768 147.875C269.113 147.943 269.451 148.004 269.783 148.058L270.189 148.129C270.566 148.211 270.95 148.256 271.336 148.261C271.616 148.271 271.893 148.193 272.127 148.038C273.366 146.86 274.523 145.642 275.497 144.607C275.627 144.447 275.715 144.258 275.754 144.056C275.793 143.855 275.781 143.646 275.72 143.45L275.355 141.816C275.203 141.126 275.051 140.446 274.908 139.786C274.777 139.259 274.729 138.714 274.766 138.172C274.786 137.916 274.859 137.667 274.981 137.441C275.104 137.215 275.273 137.018 275.477 136.863C277.397 135.603 279.499 134.644 281.709 134.021C282.127 133.893 282.576 133.905 282.987 134.053C283.399 134.201 283.751 134.478 283.993 134.843L284.825 135.959C285.343 136.649 285.84 137.34 286.348 138.05C286.533 138.393 286.817 138.673 287.162 138.854C287.507 139.034 287.899 139.108 288.286 139.065C289.179 138.994 290.062 138.964 290.956 138.933H292.356C292.526 138.922 292.69 138.87 292.833 138.779C292.977 138.689 293.096 138.564 293.178 138.416C293.463 137.999 293.727 137.573 294.001 137.157L294.579 136.264L294.802 135.919C295.137 135.411 295.472 134.904 295.817 134.406C296.066 134.009 296.445 133.71 296.889 133.56C297.333 133.411 297.815 133.419 298.253 133.584C300.507 134.356 302.232 134.975 303.856 135.614C304.31 135.791 304.69 136.118 304.932 136.541C305.174 136.964 305.263 137.457 305.186 137.938C305.125 138.639 304.993 139.349 304.871 140.019C304.8 140.364 304.739 140.709 304.689 141.034C304.602 141.504 304.541 141.979 304.506 142.455C304.472 142.693 304.496 142.935 304.575 143.161C304.655 143.387 304.788 143.59 304.963 143.754L305.673 144.424C306.424 145.135 307.185 145.835 307.916 146.576C308.128 146.81 308.401 146.979 308.704 147.065C309.007 147.151 309.329 147.151 309.632 147.063L311.57 146.627C312.26 146.464 312.941 146.302 313.6 146.16C314.152 145.989 314.747 146.031 315.268 146.28C315.789 146.528 316.198 146.964 316.412 147.5C317.173 149.103 317.914 150.727 318.614 152.331C318.775 152.601 318.881 152.899 318.926 153.21C318.97 153.521 318.953 153.837 318.875 154.141C318.796 154.445 318.659 154.73 318.469 154.981C318.28 155.231 318.043 155.441 317.772 155.599C317.366 155.924 316.94 156.229 316.503 156.523L315.63 157.152C315.102 157.538 314.615 157.924 314.189 158.299C314.04 158.422 313.922 158.577 313.845 158.754C313.767 158.93 313.732 159.122 313.742 159.314V160.187C313.742 161.294 313.742 162.39 313.834 163.496C313.841 163.794 313.927 164.085 314.082 164.34C314.237 164.594 314.456 164.804 314.717 164.948L315.661 165.506L317.011 166.308C317.504 166.601 317.981 166.919 318.442 167.262C318.846 167.538 319.144 167.945 319.286 168.413C319.428 168.882 319.406 169.385 319.223 169.84C318.601 171.532 317.972 173.223 317.335 174.915C317.225 175.182 317.081 175.434 316.909 175.666C316.705 176.033 316.393 176.327 316.015 176.509C315.637 176.69 315.212 176.751 314.798 176.681L311.997 176.214L311.154 176.072H310.85C310.433 175.957 309.991 175.974 309.585 176.119C309.178 176.264 308.826 176.531 308.576 176.884C308.089 177.463 307.561 178.011 307.023 178.528L306.363 179.208C306.078 179.481 305.875 179.828 305.777 180.21C305.678 180.592 305.688 180.994 305.805 181.37C306.099 182.507 306.394 183.725 306.648 184.943C306.752 185.227 306.799 185.53 306.783 185.832C306.768 186.135 306.692 186.431 306.559 186.703C306.426 186.975 306.24 187.218 306.011 187.416C305.782 187.614 305.515 187.764 305.227 187.856C303.734 188.567 302.1 189.308 300.212 190.109C299.737 190.359 299.185 190.422 298.666 190.287C298.146 190.152 297.695 189.828 297.401 189.379C296.863 188.699 296.386 187.978 295.858 187.288L295.533 186.821C294.325 185.126 294.163 185.055 292.092 185.156L290.621 185.237L289.474 185.309C289.139 185.31 288.81 185.399 288.52 185.566C288.23 185.734 287.988 185.974 287.819 186.263C287.637 186.557 287.464 186.861 287.291 187.156C286.936 187.745 286.581 188.343 286.216 188.922C285.898 189.397 285.538 189.842 285.14 190.252C284.808 190.549 284.377 190.712 283.932 190.708ZM272.523 176.082C273.195 176.078 273.841 176.341 274.32 176.813L274.624 177.107L277.182 179.482C277.461 179.737 277.676 180.053 277.81 180.405C277.944 180.758 277.993 181.137 277.953 181.512C277.936 181.9 277.899 182.286 277.842 182.669C277.74 183.339 277.629 184.009 277.517 184.699L277.253 186.283C277.229 186.486 277.266 186.691 277.36 186.872C277.455 187.053 277.601 187.201 277.781 187.298L277.872 187.359C278.024 187.469 278.187 187.561 278.359 187.633L282.156 189.054L283.658 189.612C283.804 189.673 283.967 189.683 284.119 189.64C284.272 189.598 284.406 189.506 284.5 189.379C284.855 189.017 285.174 188.623 285.454 188.201C285.82 187.643 286.165 187.054 286.469 186.476C286.642 186.171 286.825 185.877 287.007 185.572C287.259 185.14 287.619 184.78 288.051 184.527C288.483 184.275 288.973 184.138 289.474 184.131L290.611 184.06L292.092 183.979C294.518 183.857 295.005 184.091 296.416 186.07L296.741 186.537C297.228 187.217 297.756 187.927 298.243 188.567C298.321 188.702 298.425 188.821 298.549 188.916C298.673 189.011 298.815 189.08 298.966 189.12C299.117 189.16 299.275 189.169 299.429 189.147C299.584 189.125 299.733 189.073 299.867 188.993C301.735 188.191 303.359 187.46 304.841 186.75C305.764 186.303 305.917 186.009 305.704 184.963C305.49 183.918 305.166 182.558 304.881 181.441C304.719 180.898 304.708 180.321 304.849 179.772C304.99 179.223 305.279 178.723 305.683 178.325L306.353 177.635C306.861 177.128 307.368 176.62 307.855 176.042C308.231 175.539 308.75 175.161 309.344 174.958C309.938 174.756 310.58 174.737 311.185 174.905H311.306H311.428L312.26 175.037L315.062 175.504C315.271 175.54 315.487 175.509 315.678 175.416C315.869 175.324 316.027 175.173 316.128 174.986C316.27 174.798 316.389 174.593 316.483 174.377C317.122 172.692 317.752 171.017 318.371 169.302C318.48 169.048 318.493 168.764 318.409 168.501C318.325 168.238 318.15 168.015 317.914 167.871C317.487 167.55 317.043 167.252 316.584 166.978L315.255 166.186L314.29 165.618C313.886 165.39 313.548 165.062 313.308 164.666C313.068 164.269 312.934 163.817 312.92 163.354C312.869 162.238 312.849 161.131 312.829 160.015V159.142C312.815 158.805 312.88 158.469 313.017 158.161C313.154 157.853 313.361 157.581 313.621 157.366C314.087 156.96 314.585 156.564 315.133 156.158L316.026 155.518C316.442 155.234 316.858 154.95 317.244 154.635C317.419 154.544 317.574 154.417 317.697 154.263C317.821 154.108 317.911 153.93 317.961 153.739C318.012 153.548 318.022 153.348 317.991 153.153C317.96 152.958 317.889 152.771 317.782 152.605C317.092 151.012 316.351 149.398 315.59 147.804C315.533 147.641 315.444 147.492 315.329 147.363C315.214 147.235 315.074 147.131 314.918 147.057C314.762 146.984 314.593 146.942 314.421 146.934C314.249 146.926 314.077 146.953 313.915 147.013L311.885 147.479L309.926 147.916C309.455 148.043 308.959 148.039 308.49 147.905C308.022 147.771 307.599 147.511 307.267 147.155C306.556 146.434 305.805 145.734 305.054 145.023L304.354 144.363C304.066 144.096 303.845 143.765 303.709 143.396C303.573 143.028 303.526 142.632 303.572 142.242C303.572 141.735 303.684 141.227 303.765 140.74L303.948 139.725C304.069 139.075 304.201 138.395 304.262 137.695C304.311 137.435 304.269 137.166 304.143 136.934C304.017 136.701 303.816 136.518 303.572 136.416C301.968 135.797 300.253 135.178 298.01 134.386C297.777 134.288 297.515 134.28 297.277 134.365C297.038 134.449 296.84 134.62 296.721 134.843C296.376 135.33 296.051 135.858 295.706 136.325L295.483 136.66L294.904 137.553C294.63 137.979 294.356 138.405 294.072 138.832C293.899 139.109 293.662 139.34 293.381 139.506C293.101 139.672 292.784 139.768 292.458 139.786L291.037 139.847C290.164 139.847 289.291 139.908 288.418 139.979C287.855 140.029 287.289 139.922 286.784 139.669C286.278 139.417 285.853 139.028 285.556 138.547C285.079 137.847 284.541 137.167 284.064 136.517C283.78 136.142 283.495 135.766 283.221 135.381C283.1 135.184 282.915 135.034 282.697 134.957C282.48 134.879 282.242 134.878 282.024 134.954C279.911 135.548 277.902 136.462 276.066 137.664C275.929 137.821 275.844 138.016 275.822 138.223C275.805 138.663 275.849 139.104 275.954 139.532C276.086 140.212 276.248 140.892 276.401 141.562C276.553 142.232 276.644 142.658 276.756 143.206C276.852 143.557 276.86 143.926 276.779 144.28C276.697 144.635 276.529 144.963 276.289 145.236C275.274 146.251 274.137 147.52 272.878 148.718C272.459 149.046 271.94 149.221 271.407 149.215C270.953 149.211 270.5 149.16 270.057 149.063L269.671 149.002L268.656 148.819C268.006 148.697 267.347 148.586 266.687 148.515C266.373 148.47 266.054 148.537 265.785 148.704C265.516 148.871 265.314 149.128 265.215 149.428C264.951 150.058 264.698 150.687 264.464 151.326C264.149 152.22 263.855 153.103 263.551 153.996L263.206 155.011V155.295C263.509 155.894 264.001 156.375 264.606 156.665L266.454 157.843L267.773 158.685C268.066 158.866 268.308 159.118 268.477 159.418C268.646 159.718 268.735 160.056 268.737 160.4C268.737 160.888 268.788 161.415 268.808 161.842C268.808 162.623 268.869 163.395 268.92 164.176C268.993 164.819 268.877 165.469 268.585 166.047C268.292 166.624 267.837 167.103 267.276 167.424C266.393 167.993 265.489 168.632 264.413 169.454C263.713 169.982 263.622 170.297 263.936 171.078C264.728 173.037 265.367 174.509 265.966 175.869C266.525 177.046 266.778 177.168 268.138 176.884L268.362 177.351L268.25 176.854L269.265 176.62C270.097 176.437 270.94 176.245 271.772 176.042C272.023 176.023 272.276 176.036 272.523 176.082ZM290.793 174.478C287.552 174.403 284.467 173.067 282.196 170.753C279.924 168.439 278.645 165.331 278.629 162.089C278.613 158.846 279.862 155.726 282.111 153.39C284.36 151.054 287.431 149.688 290.671 149.581C292.317 149.562 293.95 149.871 295.476 150.489C297.001 151.108 298.388 152.024 299.556 153.184C300.723 154.344 301.648 155.725 302.277 157.246C302.906 158.768 303.225 160.399 303.217 162.045C303.26 163.619 302.988 165.187 302.416 166.654C301.844 168.122 300.985 169.461 299.888 170.591C298.716 171.832 297.301 172.818 295.731 173.487C294.161 174.156 292.469 174.494 290.763 174.478H290.793ZM290.641 150.596C287.678 150.682 284.862 151.911 282.785 154.026C281.719 155.076 280.872 156.328 280.293 157.708C279.715 159.088 279.416 160.569 279.415 162.065C279.418 165.078 280.613 167.969 282.739 170.104C284.865 172.24 287.749 173.447 290.763 173.463C292.329 173.476 293.882 173.166 295.323 172.551C296.763 171.936 298.062 171.031 299.137 169.891C300.141 168.86 300.929 167.638 301.452 166.297C301.975 164.956 302.223 163.524 302.182 162.085C302.188 160.572 301.894 159.072 301.315 157.673C300.737 156.274 299.886 155.005 298.812 153.938C297.738 152.872 296.462 152.03 295.059 151.461C293.656 150.892 292.155 150.608 290.641 150.626V150.596Z" fill="#484646"/>
<path d="M81.216 173.118C84.3776 176.551 88.5459 178.893 93.122 179.807C96.3584 180.465 99.4311 181.762 102.16 183.621C104.89 185.481 107.221 187.866 109.017 190.637C113.777 198.026 118.304 205.558 122.933 213.028L137.457 236.444C141.375 242.778 145.29 249.108 149.201 255.435C152.503 260.787 155.815 266.126 159.138 271.452C160.295 273.244 161.979 274.634 163.958 275.432C165.937 276.229 168.114 276.395 170.191 275.907C172.255 275.489 174.131 274.419 175.541 272.855C176.952 271.291 177.823 269.315 178.027 267.219C178.255 265.417 177.861 263.591 176.91 262.042C174.434 258.297 171.967 254.552 169.44 250.877C163.167 241.682 156.878 232.496 150.571 223.32C145.97 216.614 141.378 209.895 136.797 203.162C133.164 197.864 129.533 192.566 125.906 187.267C124.345 185.181 122.911 183.001 121.613 180.741C118.847 175.483 118.124 169.387 119.583 163.628C122.628 150.514 112.62 138.162 98.7958 137.553C98.4932 137.485 98.1773 137.508 97.8881 137.62C97.5989 137.732 97.3496 137.928 97.1718 138.182C96.7963 138.801 97.1109 139.319 97.456 139.847L104.673 150.92C104.943 151.279 105.13 151.693 105.221 152.132C105.313 152.572 105.306 153.026 105.201 153.462C105.096 153.899 104.896 154.307 104.615 154.657C104.335 155.007 103.98 155.291 103.576 155.488L91.9446 162.41C91.5884 162.645 91.189 162.808 90.7696 162.887C90.3502 162.966 89.9191 162.962 89.5016 162.873C89.0841 162.784 88.6884 162.613 88.3376 162.37C87.9868 162.126 87.6879 161.816 87.4583 161.456C86.1997 159.568 84.9715 157.66 83.7332 155.752C82.5085 153.877 81.2837 151.996 80.0589 150.108C79.9353 149.839 79.7362 149.611 79.4858 149.453C79.2354 149.294 78.9444 149.212 78.6481 149.215C78.3587 149.232 78.0818 149.339 77.8561 149.521C77.6304 149.703 77.4673 149.951 77.3895 150.23C73.908 158.665 75.1159 166.257 81.216 173.118ZM163.736 268.843C163.397 268.33 163.168 267.753 163.061 267.148C162.954 266.543 162.972 265.922 163.113 265.324C163.255 264.726 163.517 264.164 163.884 263.671C164.251 263.178 164.715 262.766 165.248 262.459C166.336 261.749 167.661 261.5 168.932 261.767C170.203 262.033 171.317 262.793 172.028 263.88C172.366 264.406 172.592 264.995 172.693 265.613C172.793 266.23 172.766 266.861 172.613 267.467C172.46 268.073 172.184 268.641 171.802 269.136C171.42 269.631 170.941 270.043 170.394 270.345C169.3 270.984 168.005 271.184 166.769 270.906C165.533 270.627 164.449 269.89 163.736 268.843Z" fill="white" stroke="#484646" stroke-width="1.015" stroke-linecap="round" stroke-linejoin="round"/>
<path d="M111.321 133.98C113.953 134.151 116.593 133.78 119.076 132.891C121.559 132.001 123.834 130.611 125.759 128.807C127.683 127.004 129.218 124.824 130.267 122.404C131.315 119.983 131.857 117.373 131.857 114.736C131.857 112.098 131.315 109.488 130.267 107.067C129.218 104.647 127.683 102.468 125.759 100.664C123.834 98.86 121.559 97.4703 119.076 96.5806C116.593 95.6909 113.953 95.3201 111.321 95.4912V114.776H92.0359C92.0574 119.877 94.0987 124.761 97.713 128.36C101.327 131.959 106.22 133.98 111.321 133.98Z" fill="white"/>
<path d="M111.321 134.487C106.084 134.482 101.063 132.399 97.3602 128.696C93.6571 124.993 91.5744 119.972 91.569 114.736C91.569 114.601 91.6225 114.472 91.7177 114.377C91.8128 114.282 91.9419 114.228 92.0765 114.228H110.813V95.4911C110.813 95.3565 110.867 95.2275 110.962 95.1323C111.057 95.0371 111.186 94.9836 111.321 94.9836C116.559 94.9836 121.583 97.0646 125.288 100.769C128.992 104.473 131.073 109.497 131.073 114.736C131.073 119.974 128.992 124.998 125.288 128.702C121.583 132.406 116.559 134.487 111.321 134.487ZM92.584 115.202C92.6828 118.862 93.8513 122.412 95.9453 125.415C98.0392 128.417 100.967 130.741 104.367 132.098C107.766 133.455 111.489 133.787 115.075 133.052C118.661 132.318 121.954 130.548 124.546 127.963C127.138 125.378 128.915 122.091 129.66 118.506C130.404 114.922 130.082 111.198 128.734 107.795C127.385 104.392 125.069 101.458 122.072 99.3563C119.075 97.2545 115.528 96.0766 111.869 95.9682V114.736C111.869 114.87 111.816 114.999 111.72 115.094C111.625 115.19 111.496 115.243 111.362 115.243L92.584 115.202Z" fill="#484646"/>
<path d="M87.5192 110.107H106.804V90.8221C101.689 90.8221 96.7843 92.854 93.1676 96.4706C89.551 100.087 87.5192 104.992 87.5192 110.107Z" fill="white"/>
<path d="M106.764 110.615H87.4786C87.344 110.615 87.2149 110.561 87.1197 110.466C87.0245 110.371 86.9711 110.242 86.9711 110.107C86.9737 107.511 87.4878 104.94 88.4839 102.542C89.48 100.144 90.9387 97.9662 92.7766 96.132C94.6145 94.2979 96.7956 92.8437 99.1955 91.8525C101.595 90.8613 104.167 90.3526 106.764 90.3552C106.898 90.3552 107.027 90.4087 107.122 90.5039C107.218 90.5991 107.271 90.7281 107.271 90.8627V110.148C107.261 110.275 107.203 110.394 107.109 110.481C107.015 110.567 106.891 110.615 106.764 110.615ZM88.0368 109.6H106.256V91.3296C101.459 91.4682 96.8975 93.439 93.5088 96.8371C90.1202 100.235 88.162 104.802 88.0368 109.6Z" fill="#484646"/>
<path d="M105.911 246.016H90.3713V295.7H105.911V246.016Z" fill="white"/>
<path d="M105.911 296.207H90.3713C90.2367 296.207 90.1076 296.154 90.0125 296.059C89.9173 295.964 89.8638 295.834 89.8638 295.7V246.016C89.8638 245.881 89.9173 245.752 90.0125 245.657C90.1076 245.562 90.2367 245.508 90.3713 245.508H105.911C106.046 245.508 106.175 245.562 106.27 245.657C106.365 245.752 106.418 245.881 106.418 246.016V295.69C106.42 295.757 106.408 295.824 106.383 295.887C106.358 295.95 106.321 296.007 106.273 296.055C106.226 296.103 106.17 296.142 106.108 296.168C106.045 296.194 105.978 296.207 105.911 296.207ZM90.8788 295.192H105.403V246.523H90.9296L90.8788 295.192Z" fill="#484646"/>
<path d="M127.419 259.201H111.879V295.7H127.419V259.201Z" fill="white"/>
<path d="M127.47 296.207H111.879C111.745 296.207 111.615 296.154 111.52 296.059C111.425 295.964 111.372 295.835 111.372 295.7V259.16C111.372 259.025 111.425 258.896 111.52 258.801C111.615 258.706 111.745 258.652 111.879 258.652H127.47C127.604 258.652 127.733 258.706 127.828 258.801C127.924 258.896 127.977 259.025 127.977 259.16V295.7C127.977 295.835 127.924 295.964 127.828 296.059C127.733 296.154 127.604 296.207 127.47 296.207ZM112.437 295.192H126.962V259.667H112.387L112.437 295.192Z" fill="#484646"/>
<path d="M148.927 277.45H133.387V295.7H148.927V277.45Z" fill="white"/>
<path d="M148.927 296.207H133.387C133.252 296.207 133.123 296.154 133.028 296.059C132.933 295.964 132.88 295.834 132.88 295.7V277.42C132.88 277.285 132.933 277.156 133.028 277.061C133.123 276.966 133.252 276.912 133.387 276.912H148.927C149.061 276.912 149.19 276.966 149.286 277.061C149.381 277.156 149.434 277.285 149.434 277.42V295.69C149.436 295.757 149.423 295.824 149.399 295.887C149.374 295.95 149.336 296.007 149.289 296.055C149.242 296.103 149.186 296.142 149.123 296.168C149.061 296.194 148.994 296.207 148.927 296.207ZM133.895 295.192H148.419V277.937H133.895V295.192Z" fill="#484646"/>
<path d="M156.742 296.207H84.6774C84.5428 296.207 84.4137 296.154 84.3186 296.059C84.2234 295.964 84.1699 295.834 84.1699 295.7C84.1725 295.566 84.2268 295.439 84.3214 295.344C84.4161 295.249 84.5436 295.195 84.6774 295.192H156.793C156.928 295.192 157.057 295.246 157.152 295.341C157.247 295.436 157.301 295.565 157.301 295.7C157.301 295.771 157.286 295.841 157.258 295.907C157.229 295.972 157.187 296.03 157.135 296.078C157.082 296.126 157.02 296.162 156.952 296.184C156.885 296.207 156.813 296.214 156.742 296.207Z" fill="#484646"/>
<path d="M274.37 95.4911H233.77C232.575 95.4911 231.429 95.9659 230.584 96.8111C229.738 97.6562 229.264 98.8025 229.264 99.9977V118.39C229.262 118.982 229.378 119.569 229.604 120.117C229.83 120.665 230.161 121.163 230.58 121.583C230.999 122.002 231.496 122.335 232.043 122.562C232.591 122.789 233.178 122.906 233.77 122.906H237.455V129.798L243.058 122.906H274.401C274.993 122.906 275.58 122.789 276.128 122.562C276.675 122.335 277.172 122.002 277.591 121.583C278.01 121.163 278.341 120.665 278.567 120.117C278.793 119.569 278.909 118.982 278.907 118.39V99.9977C278.907 99.4033 278.79 98.8148 278.561 98.2661C278.333 97.7173 277.998 97.2191 277.577 96.8003C277.155 96.3814 276.655 96.0501 276.104 95.8254C275.554 95.6007 274.965 95.4871 274.37 95.4911Z" fill="white"/>
<path d="M237.425 130.306C237.371 130.315 237.316 130.315 237.262 130.306C237.163 130.271 237.077 130.206 237.015 130.121C236.954 130.036 236.919 129.934 236.917 129.829V123.414H233.74C232.405 123.398 231.129 122.856 230.191 121.906C229.252 120.956 228.726 119.674 228.726 118.339V99.9977C228.742 98.6728 229.275 97.4066 230.212 96.4697C231.149 95.5328 232.415 94.9994 233.74 94.9836H274.34C275.67 94.9836 276.945 95.5119 277.886 96.4522C278.826 97.3926 279.354 98.6679 279.354 99.9977V118.39C279.354 119.725 278.828 121.007 277.889 121.957C276.951 122.907 275.675 123.449 274.34 123.465H243.271L237.82 130.164C237.768 130.214 237.706 130.252 237.638 130.277C237.569 130.301 237.497 130.311 237.425 130.306ZM233.74 95.9986C232.684 96.0144 231.676 96.4407 230.93 97.1873C230.183 97.9339 229.757 98.942 229.741 99.9977V118.39C229.741 119.456 230.16 120.479 230.909 121.239C231.657 121.999 232.674 122.434 233.74 122.45H237.425C237.559 122.45 237.688 122.503 237.783 122.598C237.879 122.693 237.932 122.822 237.932 122.957V128.418L242.631 122.632C242.68 122.574 242.74 122.528 242.809 122.496C242.877 122.465 242.952 122.449 243.027 122.45H274.371C274.901 122.45 275.426 122.344 275.915 122.139C276.404 121.935 276.848 121.635 277.22 121.257C277.592 120.879 277.886 120.431 278.083 119.939C278.28 119.446 278.378 118.92 278.37 118.39V99.9977C278.37 98.9371 277.948 97.9199 277.198 97.17C276.448 96.42 275.431 95.9986 274.371 95.9986H233.74Z" fill="#484646"/>
<path d="M272.249 103.621H235.861C235.727 103.621 235.598 103.568 235.503 103.473C235.407 103.378 235.354 103.248 235.354 103.114C235.357 102.98 235.411 102.852 235.505 102.758C235.6 102.663 235.728 102.609 235.861 102.606H272.249C272.384 102.606 272.513 102.66 272.608 102.755C272.703 102.85 272.757 102.979 272.757 103.114C272.757 103.248 272.703 103.378 272.608 103.473C272.513 103.568 272.384 103.621 272.249 103.621Z" fill="#D1D1D1"/>
<path d="M272.249 109.6H235.861C235.728 109.597 235.6 109.543 235.505 109.448C235.411 109.354 235.357 109.226 235.354 109.092C235.354 108.958 235.407 108.828 235.503 108.733C235.598 108.638 235.727 108.585 235.861 108.585H272.249C272.384 108.585 272.513 108.638 272.608 108.733C272.703 108.828 272.757 108.958 272.757 109.092C272.757 109.227 272.703 109.356 272.608 109.451C272.513 109.546 272.384 109.6 272.249 109.6Z" fill="#D1D1D1"/>
<path d="M262.921 115.568H235.861C235.727 115.568 235.598 115.514 235.503 115.419C235.407 115.324 235.354 115.195 235.354 115.06C235.357 114.927 235.411 114.799 235.505 114.704C235.6 114.61 235.728 114.555 235.861 114.553H262.921C263.055 114.555 263.183 114.61 263.277 114.704C263.372 114.799 263.426 114.927 263.429 115.06C263.429 115.195 263.375 115.324 263.28 115.419C263.185 115.514 263.056 115.568 262.921 115.568Z" fill="#D1D1D1"/>
</svg>
