<svg width="150" height="150" viewBox="0 0 150 150" fill="none" xmlns="http://www.w3.org/2000/svg">
<path d="M124.846 68.9161C124.791 67.9599 124.399 67.0538 123.738 66.3585C123.078 65.6632 122.191 65.2237 121.237 65.1178L62.4972 58.5091C61.9339 58.4449 61.3634 58.499 60.8223 58.6679L47.3476 62.8745L39.6162 65.2906L25.3482 69.7439C24.4869 70.0138 23.7398 70.5611 23.2241 71.2999C22.7083 72.0387 22.453 72.9273 22.4983 73.8264L24.9067 130.91C24.958 131.837 25.3251 132.72 25.9473 133.412C26.5695 134.103 27.4096 134.563 28.329 134.714L88.3045 134.844C88.5861 134.89 88.8719 134.905 89.1568 134.89C89.572 134.87 89.9817 134.786 90.3716 134.642L125.517 134.4C126.336 134.099 127.036 133.543 127.513 132.815C127.99 132.086 128.218 131.223 128.165 130.355L124.846 68.9161Z" fill="white"/>
<path d="M28.895 131.204L88.8702 131.333C88.9578 131.348 89.0478 131.34 89.1313 131.309L124.272 131.069C124.375 131.032 124.463 130.963 124.523 130.871C124.583 130.78 124.612 130.671 124.604 130.562L121.289 69.122C121.281 69.0031 121.231 68.8907 121.149 68.804C121.067 68.7174 120.957 68.6619 120.839 68.6471L120.443 68.6007L62.0967 62.0432C62.0701 62.0396 62.0431 62.0389 62.0162 62.0409C61.9723 62.0421 61.9287 62.049 61.8866 62.0614L29.0211 72.3238L26.4126 73.1361C26.3059 73.1708 26.2135 73.2394 26.1495 73.3313C26.0854 73.4233 26.0534 73.5336 26.0581 73.6455L28.4675 130.727C28.4733 130.843 28.519 130.954 28.5968 131.041C28.6746 131.128 28.7798 131.185 28.895 131.204Z" fill="#E6FBF9"/>
<path d="M29.0215 72.3238L61.887 62.0614C61.9291 62.049 61.9727 62.0421 62.0166 62.0409C62.0435 62.0389 62.0705 62.0396 62.0972 62.0432L120.444 68.6007L106.392 73.1601L101.132 74.8638L86.1675 79.7161C86.1233 79.7278 86.0783 79.7367 86.0329 79.7428C86.004 79.7404 85.975 79.738 85.9404 79.7362L29.0215 72.3238Z" fill="#9AF0E8"/>
<path d="M28.3285 134.717L88.3036 134.847C88.5858 134.892 88.872 134.905 89.1572 134.886C89.5727 134.868 89.9831 134.786 90.3741 134.645L125.515 134.404C126.334 134.103 127.034 133.546 127.512 132.817C127.989 132.088 128.218 131.225 128.165 130.356L124.845 68.9164C124.803 68.1968 124.57 67.5011 124.172 66.8999C124.117 66.8204 124.062 66.7408 124.001 66.6676C123.589 66.1291 123.044 65.7048 122.42 65.4353C122.044 65.2707 121.645 65.1638 121.237 65.1184L121.167 65.1092L62.4999 58.5082C62.2609 58.4843 62.0205 58.4774 61.7805 58.4873C61.4543 58.5096 61.132 58.5713 60.8207 58.6711L47.3472 62.8728L39.6175 65.2929L25.3467 69.7457C24.7628 69.9272 24.2278 70.2386 23.7821 70.6562C23.7466 70.6837 23.7136 70.7142 23.6835 70.7475C23.6617 70.7694 23.6414 70.7927 23.6227 70.8174C23.2407 71.216 22.944 71.688 22.7508 72.2046C22.5576 72.7212 22.472 73.2716 22.499 73.8223L24.9034 130.91C24.9549 131.838 25.3223 132.722 25.945 133.414C26.5677 134.106 27.4085 134.566 28.3285 134.717ZM23.5146 73.7752C23.487 73.2043 23.6229 72.6373 23.9064 72.1405C23.9906 71.9822 24.0907 71.8328 24.2051 71.6947C24.5166 71.3119 24.9173 71.011 25.3722 70.8181C25.4618 70.7789 25.5538 70.7455 25.6476 70.718L49.6756 63.2193L61.1266 59.6371C61.2039 59.6111 61.2768 59.5971 61.3491 59.5774C61.5253 59.5363 61.705 59.512 61.8857 59.5048C62.0506 59.4916 62.2164 59.4957 62.3804 59.517L121.117 66.1273C121.164 66.1334 121.205 66.1401 121.252 66.1463C121.79 66.2258 122.296 66.451 122.714 66.7973C123.043 67.0607 123.312 67.3904 123.504 67.7646C123.697 68.1389 123.807 68.5494 123.83 68.9693L127.145 130.415C127.185 131.066 127.014 131.712 126.657 132.258C126.301 132.805 125.777 133.222 125.165 133.449L90.018 133.69C89.5211 133.872 88.9858 133.923 88.4634 133.839L28.4889 133.715C27.8004 133.6 27.1715 133.255 26.7056 132.737C26.2396 132.218 25.9642 131.557 25.9246 130.862L23.5146 73.7752Z" fill="#03DAC5"/>
<path d="M89.339 134.999C89.2048 135.006 89.0735 134.96 88.9735 134.87C88.8734 134.781 88.8128 134.656 88.8049 134.522L85.4994 79.2629C85.4914 79.1285 85.5373 78.9963 85.627 78.8956C85.7166 78.7949 85.8427 78.7338 85.9776 78.7257L85.9822 78.7255C86.1163 78.7188 86.2477 78.7651 86.3477 78.8544C86.4477 78.9437 86.5083 79.0688 86.5163 79.2025L89.8217 134.462C89.8297 134.596 89.7839 134.729 89.6942 134.829C89.6045 134.93 89.4784 134.991 89.3436 134.999L89.339 134.999Z" fill="#03DAC5"/>
<path d="M110.074 131.262L104.32 131.223L98.8594 74.5321C98.8594 74.5321 105.771 71.7132 106.074 72.1929C106.259 72.4785 110.053 130.91 110.074 131.262Z" fill="#03DAC5"/>
<path d="M123.013 67.2811L122.598 66.9421C122.17 66.5915 121.649 66.3728 121.098 66.3128L62.3622 59.7028C62.0382 59.6672 61.7105 59.6853 61.3924 59.7563L61.1723 59.8106L61.1279 58.9344L70.8689 48.1899C71.449 47.553 72.1686 47.0581 72.9719 46.7439C73.7752 46.4298 74.6403 46.3047 75.5 46.3785L115.208 49.8815C116.394 49.9822 117.516 50.4602 118.41 51.2451C119.303 52.0299 119.919 53.0802 120.169 54.2409L123.013 67.2811Z" fill="#03DAC5"/>
<path d="M34.2351 110.516C34.2978 110.506 34.3614 110.503 34.4248 110.507L52.5026 111.599C52.7289 111.613 52.9405 111.716 53.0909 111.885C53.2413 112.054 53.3181 112.276 53.3044 112.501C53.2907 112.727 53.1877 112.938 53.018 113.088C52.8483 113.238 52.6258 113.315 52.3995 113.301L34.3217 112.208C34.1118 112.196 33.914 112.106 33.7661 111.957C33.6181 111.808 33.5304 111.61 33.5197 111.401C33.509 111.192 33.576 110.986 33.708 110.822C33.84 110.659 34.0276 110.55 34.2351 110.516Z" fill="#9AF0E8"/>
<path d="M34.5384 116.848C34.601 116.838 34.6646 116.835 34.728 116.839L52.8058 117.931C53.0321 117.945 53.2437 118.048 53.3941 118.217C53.5445 118.386 53.6213 118.608 53.6076 118.834C53.594 119.059 53.491 119.27 53.3213 119.42C53.1516 119.57 52.9291 119.647 52.7027 119.633L34.625 118.541C34.4151 118.528 34.2172 118.439 34.0693 118.29C33.9213 118.141 33.8336 117.943 33.8229 117.733C33.8122 117.524 33.8792 117.318 34.0112 117.155C34.1432 116.991 34.3309 116.882 34.5384 116.848Z" fill="#9AF0E8"/>
<path d="M121.004 41.2374L86.1334 60.1684L71.8066 33.931L106.678 15L121.004 41.2374Z" fill="white"/>
<path d="M121.004 41.2374L86.1334 60.1684L71.8066 33.931L106.678 15L121.004 41.2374ZM86.4256 59.1807L120.014 40.9461L106.385 15.9877L72.7972 34.2223L86.4256 59.1807Z" fill="#03DAC5"/>
<path d="M105.98 24.643L80.3081 38.5801L81.24 40.2866L106.912 26.3496L105.98 24.643Z" fill="#03DAC5"/>
<path d="M108.776 29.7624L83.1035 43.6995L84.0354 45.406L109.708 31.469L108.776 29.7624Z" fill="#03DAC5"/>
<path d="M111.571 34.8818L85.8989 48.8188L86.8308 50.5254L112.503 36.5883L111.571 34.8818Z" fill="#03DAC5"/>
<path d="M41.5415 18.116C41.1812 17.7134 41.0584 17.6724 40.9305 17.7604L21.0865 31.4122C20.96 31.4992 20.9525 31.6278 21.1981 32.1009C21.8467 33.1019 22.6394 34.284 23.5071 35.5379L49.039 72.436C51.4322 75.8945 53.5115 78.6175 53.6735 78.5061L73.5175 64.8542C73.6795 64.7428 71.8645 61.838 69.4713 58.3794L43.9394 21.4814C43.0737 20.2303 42.2488 19.0745 41.5415 18.116Z" fill="white"/>
<path d="M44.1851 21.5696C43.7339 20.9389 43.3041 20.3541 42.9201 19.8445C42.4578 19.234 42.0789 18.7501 41.7913 18.4042C41.6966 18.2916 41.6151 18.195 41.5415 18.116C41.1812 17.7134 41.0584 17.6724 40.9305 17.7604L21.0865 31.4122C20.96 31.4992 20.9525 31.6278 21.1981 32.1009C21.2485 32.198 21.3106 32.3121 21.3846 32.4432C21.6058 32.8326 21.925 33.3575 22.3343 34.0066C23.0191 35.0873 23.9199 36.4376 24.87 37.8105L49.1156 72.8497C50.2166 74.4408 51.2841 75.9169 52.1209 77.008C53.5143 78.8247 53.6166 78.7543 53.7715 78.6478L73.6155 64.9959C73.7704 64.8894 73.8727 64.819 72.6641 62.8753C71.9381 61.7079 70.9331 60.1888 69.8321 58.5976L45.5864 23.5585C45.111 22.8713 44.6366 22.198 44.1851 21.5696ZM25.1542 37.615C24.2071 36.2463 23.3082 34.8988 22.6273 33.8239C22.2195 33.18 21.9037 32.6569 21.6864 32.2731C21.5634 32.0701 21.456 31.8581 21.365 31.6389L41.0442 18.1005C41.2174 18.2631 41.3781 18.4385 41.5248 18.6252C41.6673 18.7949 41.8324 18.9991 42.0202 19.2381C42.2069 19.4777 42.4151 19.7492 42.6447 20.0528C43.4109 21.0691 44.3542 22.3839 45.3023 23.754L69.5479 58.7931C71.8489 62.1185 73.1746 64.3101 73.3385 64.7683L53.6564 78.3086C53.2851 77.9932 51.7008 75.9795 49.3998 72.6541L25.1542 37.615Z" fill="#03DAC5"/>
<path d="M37.2984 29.4652L33.5413 32.0499C33.3529 32.1796 33.2239 32.3785 33.1826 32.603C33.1413 32.8275 33.1911 33.0592 33.321 33.2471L35.5662 36.4917C35.6964 36.6793 35.8959 36.8078 36.121 36.8489C36.3461 36.8901 36.5783 36.8406 36.7669 36.7114L40.524 34.1267C40.7118 33.9966 40.8405 33.7977 40.8817 33.5734C40.923 33.3491 40.8736 33.1176 40.7442 32.9295L38.4991 29.6848C38.3688 29.4972 38.1693 29.3688 37.9443 29.3276C37.7192 29.2865 37.487 29.3359 37.2984 29.4652Z" fill="#03DAC5"/>
<path d="M46.6587 33.035L33.5644 42.0433C33.522 42.0724 33.4858 42.1096 33.4579 42.1527C33.4299 42.1958 33.4107 42.2439 33.4015 42.2944C33.3922 42.3449 33.3929 42.3967 33.4037 42.4469C33.4145 42.497 33.4351 42.5446 33.4643 42.5868C33.4936 42.6291 33.5308 42.6651 33.5741 42.693C33.6173 42.7209 33.6656 42.74 33.7162 42.7493C33.7668 42.7585 33.8188 42.7578 33.8691 42.747C33.9194 42.7362 33.9671 42.7157 34.0095 42.6866L47.1038 33.6782C47.1462 33.6491 47.1824 33.6119 47.2103 33.5688C47.2383 33.5257 47.2574 33.4776 47.2667 33.4271C47.276 33.3766 47.2752 33.3248 47.2644 33.2747C47.2537 33.2245 47.2331 33.1769 47.2038 33.1347C47.1746 33.0924 47.1373 33.0563 47.0941 33.0285C47.0509 33.0006 47.0026 32.9815 46.952 32.9722C46.9014 32.963 46.8494 32.9638 46.7991 32.9745C46.7488 32.9853 46.7011 33.0058 46.6587 33.035Z" fill="#9AF0E8"/>
<path d="M39.5813 40.1294L34.6078 43.5509C34.5655 43.5801 34.5293 43.6173 34.5013 43.6603C34.4734 43.7034 34.4542 43.7516 34.4449 43.8021C34.4356 43.8525 34.4364 43.9043 34.4472 43.9545C34.458 44.0047 34.4786 44.0522 34.5078 44.0945C34.537 44.1367 34.5743 44.1728 34.6175 44.2007C34.6607 44.2286 34.709 44.2477 34.7597 44.2569C34.8103 44.2662 34.8622 44.2654 34.9126 44.2547C34.9629 44.2439 35.0106 44.2234 35.0529 44.1942L40.0264 40.7727C40.1119 40.7138 40.1705 40.6235 40.1893 40.5216C40.208 40.4196 40.1854 40.3145 40.1264 40.2292C40.0674 40.1438 39.9768 40.0854 39.8745 40.0667C39.7723 40.048 39.6668 40.0706 39.5813 40.1294V40.1294Z" fill="#9AF0E8"/>
<path d="M47.0049 43.4923L43.2479 46.077C43.0595 46.2067 42.9305 46.4056 42.8892 46.6301C42.8479 46.8546 42.8977 47.0863 43.0276 47.2742L45.2727 50.5188C45.403 50.7064 45.6025 50.8349 45.8276 50.876C46.0526 50.9172 46.2849 50.8677 46.4734 50.7385L50.2305 48.1538C50.4184 48.0237 50.547 47.8248 50.5883 47.6005C50.6296 47.3761 50.5801 47.1447 50.4508 46.9566L48.2057 43.7119C48.0754 43.5243 47.8759 43.3959 47.6508 43.3547C47.4257 43.3136 47.1935 43.363 47.0049 43.4923Z" fill="#03DAC5"/>
<path d="M56.3648 47.062L43.2704 56.0704C43.1849 56.1292 43.1263 56.2196 43.1075 56.3215C43.0888 56.4234 43.1114 56.5286 43.1704 56.6139C43.2294 56.6992 43.32 56.7577 43.4222 56.7764C43.5245 56.7951 43.63 56.7725 43.7155 56.7137L56.8099 47.7053C56.8522 47.6762 56.8884 47.639 56.9164 47.5959C56.9443 47.5528 56.9635 47.5047 56.9728 47.4542C56.9821 47.4037 56.9813 47.3519 56.9705 47.3018C56.9597 47.2516 56.9391 47.204 56.9099 47.1618C56.8807 47.1195 56.8434 47.0834 56.8002 47.0556C56.7569 47.0277 56.7087 47.0086 56.658 46.9993C56.6074 46.9901 56.5555 46.9908 56.5051 47.0016C56.4548 47.0124 56.4071 47.0329 56.3648 47.062Z" fill="#9AF0E8"/>
<path d="M49.2868 54.1565L44.3134 57.578C44.2278 57.6369 44.1692 57.7272 44.1505 57.8292C44.1317 57.9311 44.1543 58.0363 44.2134 58.1216C44.2724 58.2069 44.363 58.2653 44.4652 58.284C44.5674 58.3027 44.6729 58.2802 44.7585 58.2213L49.7319 54.7998C49.7743 54.7707 49.8105 54.7335 49.8384 54.6904C49.8664 54.6473 49.8856 54.5991 49.8948 54.5487C49.9041 54.4982 49.9034 54.4464 49.8926 54.3962C49.8818 54.346 49.8612 54.2985 49.832 54.2563C49.8027 54.214 49.7654 54.1779 49.7222 54.1501C49.679 54.1222 49.6307 54.1031 49.5801 54.0938C49.5295 54.0846 49.4775 54.0853 49.4272 54.0961C49.3769 54.1069 49.3292 54.1274 49.2868 54.1565Z" fill="#9AF0E8"/>
<path d="M56.7105 57.5194L52.9534 60.1041C52.7651 60.2338 52.6361 60.4327 52.5947 60.6572C52.5534 60.8817 52.6032 61.1134 52.7331 61.3013L54.9783 64.5459C55.1085 64.7335 55.3081 64.862 55.5331 64.9031C55.7582 64.9443 55.9904 64.8948 56.179 64.7656L59.9361 62.1809C60.124 62.0508 60.2526 61.8519 60.2939 61.6276C60.3351 61.4032 60.2857 61.1718 60.1563 60.9837L57.9112 57.739C57.7809 57.5514 57.5814 57.423 57.3564 57.3818C57.1313 57.3407 56.899 57.3901 56.7105 57.5194Z" fill="#03DAC5"/>
<path d="M66.0708 61.0892L52.9765 70.0975C52.9341 70.1266 52.8979 70.1638 52.87 70.2069C52.842 70.25 52.8228 70.2981 52.8136 70.3486C52.8043 70.3991 52.8051 70.4509 52.8158 70.5011C52.8266 70.5512 52.8472 70.5988 52.8764 70.641C52.9057 70.6833 52.943 70.7194 52.9862 70.7472C53.0294 70.7751 53.0777 70.7942 53.1283 70.8035C53.1789 70.8127 53.2309 70.812 53.2812 70.8012C53.3315 70.7904 53.3792 70.7699 53.4216 70.7408L66.5159 61.7324C66.6015 61.6736 66.6601 61.5832 66.6788 61.4813C66.6976 61.3794 66.675 61.2742 66.6159 61.1889C66.5569 61.1036 66.4663 61.0451 66.3641 61.0264C66.2619 61.0077 66.1564 61.0303 66.0708 61.0891V61.0892Z" fill="#9AF0E8"/>
<path d="M58.9934 68.1834L54.0199 71.6049C53.9776 71.634 53.9414 71.6712 53.9134 71.7143C53.8855 71.7574 53.8663 71.8055 53.857 71.856C53.8477 71.9065 53.8485 71.9583 53.8593 72.0085C53.8701 72.0586 53.8907 72.1062 53.9199 72.1484C53.9491 72.1907 53.9864 72.2268 54.0296 72.2546C54.0728 72.2825 54.1211 72.3016 54.1718 72.3109C54.2224 72.3201 54.2743 72.3194 54.3246 72.3086C54.375 72.2978 54.4227 72.2773 54.465 72.2482L59.4385 68.8267C59.524 68.7678 59.5826 68.6775 59.6014 68.5755C59.6201 68.4736 59.5975 68.3684 59.5385 68.2831C59.4795 68.1978 59.3889 68.1394 59.2866 68.1207C59.1844 68.102 59.0789 68.1245 58.9934 68.1834Z" fill="#9AF0E8"/>
<path d="M100.646 34.5877C100.568 32.6673 100.448 31.4292 100.31 31.4292H49.6711C49.5328 31.4292 49.4131 32.6673 49.3345 34.5877C49.2822 35.9265 49.2485 37.5971 49.2485 39.4058V74.5861L49.4542 74.6122L57.7793 75.6936L66.4559 76.8273L70.4203 77.3419L78.8987 78.4457L85.941 79.3631C85.9746 79.3668 86.0045 79.3668 86.0345 79.3705C86.0793 79.3631 86.1242 79.3556 86.1654 79.3444L88.9367 78.4457L92.1343 77.409L100.527 74.6868L100.732 74.6196V39.4058C100.732 37.5971 100.699 35.9265 100.646 34.5877Z" fill="white"/>
<path d="M100.815 33.7557C100.789 33.256 100.762 32.8533 100.733 32.5326C100.712 32.1974 100.664 31.8645 100.59 31.5369C100.508 31.2236 100.415 31.2236 100.31 31.2236H49.6713C49.5666 31.2236 49.4731 31.2236 49.3908 31.5369C49.3184 31.8811 49.2709 32.23 49.2487 32.581C49.2225 32.8943 49.1963 33.2821 49.1701 33.7557C49.0879 35.266 49.043 37.2722 49.043 39.4053V74.5558L49.2487 74.5856L49.4544 74.6117V39.4053C49.4544 37.5482 49.488 35.9745 49.5367 34.7327C49.5458 33.6939 49.6295 32.657 49.7872 31.6301H100.198C100.356 32.6557 100.439 33.6914 100.448 34.729C100.493 35.9708 100.527 37.5444 100.527 39.4053V74.6863L100.938 74.552V39.4053C100.938 37.2722 100.893 35.266 100.815 33.7557Z" fill="#03DAC5"/>
<path d="M65.2326 42.1541H58.7737C58.6134 42.1537 58.4545 42.1849 58.3062 42.2458C58.1579 42.3067 58.0231 42.3962 57.9095 42.5091C57.7959 42.622 57.7058 42.7561 57.6442 42.9038C57.5827 43.0515 57.5509 43.2098 57.5508 43.3697V48.9485C57.5505 49.1087 57.582 49.2674 57.6434 49.4154C57.7047 49.5635 57.7948 49.698 57.9084 49.8113C58.022 49.9246 58.1569 50.0144 58.3054 50.0756C58.4539 50.1368 58.6131 50.1681 58.7737 50.1679H65.2326C65.5569 50.1678 65.8679 50.0393 66.0972 49.8106C66.3265 49.5819 66.4554 49.2718 66.4556 48.9485V43.3697C66.4547 43.047 66.3254 42.7377 66.0961 42.5098C65.8669 42.2819 65.5563 42.154 65.2326 42.1541Z" fill="#03DAC5"/>
<path d="M91.8765 44.313H69.3621C69.2153 44.313 69.0745 44.3711 68.9707 44.4746C68.8669 44.5781 68.8086 44.7185 68.8086 44.8649C68.8086 45.0113 68.8669 45.1516 68.9707 45.2552C69.0745 45.3587 69.2153 45.4168 69.3621 45.4168H91.8765C92.0233 45.4168 92.1641 45.3587 92.2679 45.2552C92.3717 45.1516 92.43 45.0113 92.43 44.8649C92.43 44.7185 92.3717 44.5781 92.2679 44.4746C92.1641 44.3711 92.0233 44.313 91.8765 44.313Z" fill="#9AF0E8"/>
<path d="M77.9116 46.9048H69.3621C69.2153 46.9048 69.0745 46.9629 68.9707 47.0664C68.8669 47.1699 68.8086 47.3103 68.8086 47.4567C68.8086 47.6031 68.8669 47.7434 68.9707 47.8469C69.0745 47.9505 69.2153 48.0086 69.3621 48.0086H77.9116C78.0584 48.0086 78.1991 47.9505 78.303 47.8469C78.4068 47.7434 78.4651 47.6031 78.4651 47.4567C78.4651 47.3103 78.4068 47.1699 78.303 47.0664C78.1991 46.9629 78.0584 46.9048 77.9116 46.9048Z" fill="#9AF0E8"/>
<path d="M65.2326 58.6665H58.7737C58.4494 58.6666 58.1384 58.7951 57.9091 59.0238C57.6798 59.2525 57.5509 59.5626 57.5508 59.8859V65.4647C57.5509 65.788 57.6798 66.0981 57.9091 66.3268C58.1384 66.5554 58.4494 66.6839 58.7737 66.6841H65.2326C65.5567 66.6833 65.8673 66.5546 66.0965 66.3261C66.3257 66.0976 66.4548 65.7878 66.4556 65.4647V59.8859C66.4548 59.5627 66.3257 59.253 66.0965 59.0245C65.8673 58.796 65.5567 58.6673 65.2326 58.6665Z" fill="#03DAC5"/>
<path d="M91.8764 60.8254H69.362C69.2147 60.8254 69.0735 60.8838 68.9693 60.9876C68.8651 61.0915 68.8066 61.2323 68.8066 61.3792C68.8066 61.5261 68.8651 61.6669 68.9693 61.7708C69.0735 61.8746 69.2147 61.933 69.362 61.933H91.8764C92.0237 61.933 92.1649 61.8746 92.2691 61.7708C92.3733 61.6669 92.4318 61.5261 92.4318 61.3792C92.4318 61.2323 92.3733 61.0915 92.2691 60.9876C92.1649 60.8838 92.0237 60.8254 91.8764 60.8254Z" fill="#9AF0E8"/>
<path d="M77.9115 63.4175H69.362C69.2147 63.4175 69.0735 63.4758 68.9693 63.5797C68.8651 63.6835 68.8066 63.8244 68.8066 63.9713C68.8066 64.1181 68.8651 64.259 68.9693 64.3628C69.0735 64.4667 69.2147 64.525 69.362 64.525H77.9115C78.0588 64.525 78.2 64.4667 78.3042 64.3628C78.4083 64.259 78.4669 64.1181 78.4669 63.9713C78.4669 63.8244 78.4083 63.6835 78.3042 63.5797C78.2 63.4758 78.0588 63.4175 77.9115 63.4175Z" fill="#9AF0E8"/>
<path d="M66.2797 75.7756C66.1718 75.5946 66.0185 75.4447 65.8349 75.3408C65.6512 75.2368 65.4436 75.1823 65.2325 75.1826H58.7736C58.5789 75.1822 58.3869 75.2283 58.2138 75.3172C58.0407 75.4061 57.8915 75.5352 57.7788 75.6935L66.4554 76.8272V76.3983C66.4558 76.1785 66.395 75.9629 66.2797 75.7756Z" fill="#03DAC5"/>
<path d="M91.8764 77.3418H70.4204L78.8988 78.4456H88.9368L92.1344 77.409C92.0561 77.3638 91.9669 77.3406 91.8764 77.3418Z" fill="#9AF0E8"/>
<path d="M123.423 67.6163C123.382 67.6426 123.338 67.6639 123.292 67.6797L121.433 68.2801L106.391 73.1615L101.133 74.8619L100.938 74.9254L100.527 75.0596L92.1343 77.7818L88.9367 78.8185L86.1654 79.7172C86.1243 79.7284 86.0794 79.7359 86.0345 79.7433C86.0046 79.7396 85.9747 79.7396 85.941 79.7359L78.8987 78.8185L70.4203 77.7147L66.456 77.2001L57.7794 76.0665L49.4543 74.985L49.2486 74.9589L49.0429 74.9291L24.206 71.6959L23.9966 71.6661C23.9482 71.6617 23.9012 71.6477 23.8582 71.6251C23.7582 71.5803 23.6751 71.5047 23.6213 71.4094C23.5675 71.3141 23.5456 71.2041 23.559 71.0956C23.5688 71.0046 23.6038 70.9181 23.66 70.8457C23.6824 70.8233 23.7011 70.801 23.7236 70.7823C23.7423 70.7711 23.7647 70.7488 23.7872 70.7376C23.8876 70.6685 24.0103 70.6393 24.1312 70.6555L25.3729 70.8196L49.0429 73.9036L49.2486 73.9297L49.4543 73.9558L61.7175 75.5555L66.2802 76.1485L78.2891 77.7147L85.9597 78.7141L89.0452 77.7147L98.8587 74.5338L100.527 73.9931L100.732 73.9259L100.938 73.8588L106.073 72.1956L121.347 67.2396L122.716 66.7959L122.981 66.7101C123.096 66.6741 123.219 66.6794 123.33 66.7251C123.441 66.7708 123.532 66.854 123.587 66.96C123.601 66.9851 123.612 67.0113 123.621 67.0383C123.654 67.1431 123.653 67.2559 123.617 67.3599C123.582 67.464 123.513 67.5539 123.423 67.6163Z" fill="#03DAC5"/>
<path d="M71.7772 102.685C71.4488 102.685 71.1209 102.66 70.7964 102.61L33.2458 96.7621C31.9564 96.5572 30.7598 95.9666 29.8145 95.0685C28.8693 94.1704 28.22 93.0072 27.9525 91.7329L23.7617 71.4504L24.0198 71.4818L86.7936 79.0481L77.6152 98.9609C77.0989 100.072 76.2752 101.012 75.241 101.672C74.2068 102.332 73.0051 102.683 71.7772 102.685Z" fill="#03DAC5"/>
</svg>
