<svg width="150" height="150" viewBox="0 0 150 150" fill="none" xmlns="http://www.w3.org/2000/svg">
<path d="M141.976 91.332C140.942 92.4568 139.659 93.2941 138.267 93.9443H138.266C138.135 94.0061 138.004 94.0663 137.871 94.1231H137.87L137.868 94.1248L137.866 94.1231H137.865L137.864 94.1237L137.864 94.1243L137.864 94.1247L137.863 94.1248H137.861L137.859 94.1231C137.858 94.1248 137.858 94.1248 137.856 94.1231L137.854 94.1248L137.853 94.1231H137.851C137.849 94.1248 137.849 94.1248 137.848 94.1231H137.846C136.915 94.5242 135.958 94.8648 134.982 95.1426C129.244 96.7633 123.212 97.0769 117.336 96.0602C117.223 96.0401 117.112 96.02 117 96V82.4439C117.111 82.3971 117.223 82.3503 117.336 82.3052C118.069 82.0027 118.812 81.7247 119.564 81.4712C120.645 81.1035 121.741 80.7882 122.852 80.5253C126.478 79.6516 130.22 79.3504 133.939 79.6328C134.616 79.6829 135.291 79.7553 135.964 79.85C137.373 80.0456 138.85 80.3865 140.149 80.9782H140.151C140.341 81.0668 140.527 81.1587 140.712 81.2573C141.867 81.8807 142.841 82.7381 143.435 83.913C143.648 84.335 143.802 84.7844 143.892 85.2484V85.2517C143.925 85.4122 143.949 85.5743 143.967 85.7348C144.179 87.7136 143.354 89.8311 141.976 91.332Z" fill="#F2F2F2"/>
<path d="M143.841 85.9941C143.824 85.9977 143.808 85.9996 143.791 85.9999C140.928 86.1091 138.07 86.2711 135.215 86.486H135.21C135.199 86.4875 135.189 86.4875 135.177 86.4889C132.246 86.7102 129.321 86.9872 126.403 87.32C126.279 87.3345 126.157 87.3491 126.035 87.3622C124.016 87.5965 122.002 87.8566 119.991 88.1423C119.104 88.2689 118.218 88.4009 117.334 88.5382C117.222 88.5556 117.112 88.5716 117 88.5906V88.1496C117.112 88.1307 117.224 88.1146 117.334 88.0972C120.278 87.6431 123.233 87.2467 126.197 86.9081C126.942 86.8208 127.689 86.7383 128.436 86.6607C130.595 86.4336 132.757 86.2376 134.923 86.0727C135.082 86.061 135.239 86.0494 135.397 86.0378C138.17 85.8326 140.946 85.6768 143.725 85.5706C143.739 85.57 143.752 85.571 143.766 85.5735C144.033 85.5939 144.09 85.9432 143.841 85.9941Z" fill="white"/>
<path d="M138.708 94.1285C134.903 94.1551 131.155 92.6202 128.464 90.0796C127.704 89.36 127.035 88.5591 126.469 87.6929C126.288 87.4161 125.864 87.7214 126.044 87.9958C128.134 91.1849 131.615 93.4566 135.454 94.2919C136.544 94.5269 137.659 94.6404 138.777 94.6302C139.118 94.6278 139.047 94.1262 138.708 94.1285Z" fill="white"/>
<path d="M123 80.5369C122.984 80.5882 122.956 80.6343 122.918 80.6705C122.881 80.7067 122.835 80.7318 122.785 80.7432C121.943 80.9772 121.13 81.3143 120.362 81.7477C119.239 82.3764 118.221 83.1936 117.344 84.1674C117.298 84.2167 117.253 84.266 117.21 84.3172C117.138 84.3975 117.069 84.4797 117 84.5637V83.7675C117.11 83.6433 117.225 83.5209 117.344 83.4041C118.036 82.7012 118.803 82.0859 119.628 81.5705C120.737 81.1687 121.861 80.8242 123 80.5369Z" fill="white"/>
<path d="M140.651 80.558C138.293 81.5123 136.321 83.1502 135.02 85.2334C134.994 85.293 134.993 85.36 135.019 85.4198C135.045 85.4796 135.095 85.5275 135.158 85.5529C135.221 85.5765 135.292 85.5762 135.355 85.5521C135.418 85.528 135.469 85.4818 135.497 85.4233C136.738 83.4558 138.611 81.9104 140.845 81.01C141.152 80.8866 140.958 80.4345 140.651 80.558Z" fill="white"/>
<path d="M147.738 65.8838C147.343 67.3867 146.586 68.7481 145.645 69.9903L145.643 69.992C145.556 70.1079 145.466 70.2255 145.372 70.3379V70.3396C144.719 71.1456 144.013 71.9077 143.26 72.6212C140.552 75.2041 137.494 77.3914 134.175 79.1183C128.955 81.848 123.119 83.4616 117.34 83.5537C117.296 83.5554 117.252 83.5554 117.208 83.5554C117.138 83.5571 117.068 83.5571 117 83.5571V75.8127C117.111 75.6014 117.225 75.3901 117.34 75.1805C118.842 72.4754 120.674 69.9674 122.793 67.7139C122.844 67.6576 122.896 67.6014 122.949 67.5469C123.746 66.7051 124.581 65.9037 125.455 65.1426C128.816 62.1839 132.701 59.8809 136.909 58.3524C138.266 57.8651 139.753 57.4749 141.2 57.3982C141.413 57.3863 141.624 57.3812 141.837 57.3829C143.17 57.4016 144.448 57.7169 145.539 58.4973C145.93 58.7782 146.28 59.1113 146.581 59.4873C146.686 59.6185 146.783 59.7531 146.877 59.8911V59.8928C148.004 61.5797 148.266 63.8783 147.738 65.8838Z" fill="#F2F2F2"/>
<path d="M146.926 59.8298V59.8315C146.914 59.8428 146.9 59.8528 146.885 59.8613C144.362 61.3667 141.87 62.9269 139.41 64.5418C139.407 64.5436 139.405 64.5453 139.402 64.5471C139.392 64.5541 139.382 64.5605 139.371 64.5663C136.843 66.2273 134.35 67.9443 131.893 69.7172C131.791 69.7907 131.687 69.8658 131.583 69.941C129.886 71.1702 128.208 72.4255 126.546 73.7072C123.409 76.1305 120.341 78.6436 117.341 81.2464C117.227 81.3443 117.114 81.444 117 81.5436V80.8635C117.113 80.7638 117.227 80.6642 117.341 80.5663C118.49 79.5714 119.65 78.5905 120.819 77.6237C121.169 77.3352 121.52 77.0467 121.871 76.7617C124.991 74.2142 128.181 71.7617 131.441 69.4042H131.443C132.084 68.9409 132.726 68.4817 133.37 68.0265C135.197 66.7361 137.046 65.4767 138.914 64.2481C139.049 64.1589 139.185 64.0698 139.322 63.9806C141.714 62.414 144.137 60.8987 146.592 59.4347C146.604 59.4272 146.617 59.4208 146.63 59.4154C146.885 59.3105 147.126 59.6567 146.926 59.8298Z" fill="white"/>
<path d="M145.565 69.8749C142.157 72.0306 138.026 72.4065 134.347 71.0657C133.308 70.6843 132.309 70.1615 131.372 69.5077C131.071 69.2992 130.841 69.8781 131.139 70.0848C134.599 72.4875 138.855 73.0857 142.72 71.8762C143.816 71.5302 144.875 71.0343 145.875 70.3984C146.18 70.2051 145.868 69.6829 145.565 69.8749Z" fill="white"/>
<path d="M121.166 76.2909C121.02 75.4049 120.97 74.5035 121.017 73.605C121.122 71.5558 121.7 69.5681 122.699 67.8248C123.43 66.989 124.196 66.1928 124.996 65.4363C125.004 65.4858 125 65.5365 124.983 65.5836C124.967 65.6306 124.94 65.6723 124.905 65.7045C124.322 66.2812 123.803 66.9291 123.358 67.6353C121.769 70.1521 121.148 73.2431 121.629 76.249C121.637 76.2831 121.637 76.3188 121.628 76.3527C121.619 76.3866 121.603 76.4175 121.58 76.4425C121.547 76.474 121.506 76.4955 121.463 76.5048C121.42 76.5142 121.375 76.511 121.333 76.4957C121.291 76.4804 121.253 76.4534 121.224 76.4175C121.195 76.3816 121.175 76.3379 121.166 76.2909Z" fill="white"/>
<path d="M141.564 57.4721C140.017 59.3843 139.119 61.7419 139 64.2018C139.006 64.2673 139.037 64.3279 139.087 64.3704C139.137 64.4129 139.202 64.4339 139.267 64.4288C139.332 64.4218 139.392 64.3901 139.434 64.3401C139.476 64.2902 139.498 64.2258 139.494 64.1605C139.617 61.8315 140.475 59.6018 141.943 57.7932C142.144 57.5452 141.766 57.2236 141.564 57.4721Z" fill="white"/>
<path d="M123.949 63.1679V63.1696C123.937 63.3189 123.923 63.4664 123.907 63.6139V63.6173C123.786 64.6673 123.596 65.7084 123.34 66.734C123.218 67.2373 123.085 67.737 122.94 68.2368C122.923 68.301 122.904 68.3652 122.884 68.4277V68.4294C122.458 69.883 121.949 71.3112 121.359 72.7071C120.273 75.277 118.93 77.7317 117.349 80.0337C117.236 80.202 117.119 80.3703 117 80.5369V53.3615C117.117 53.3545 117.232 53.3545 117.349 53.358C117.405 53.358 117.461 53.3597 117.517 53.3632C118.009 53.3889 118.496 53.483 118.962 53.6426C119.126 53.6964 119.285 53.7571 119.442 53.8248C121.346 54.6543 122.843 56.4834 123.492 58.4946C123.979 60.0009 124.077 61.5852 123.949 63.1679Z" fill="#F2F2F2"/>
<path d="M118.992 53.6412C118.988 53.6577 118.983 53.6737 118.976 53.6885C118.399 55.0168 117.836 56.352 117.285 57.6939C117.189 57.9251 117.094 58.158 117 58.3893V57.2415C117.094 57.0119 117.189 56.7824 117.285 56.5528C117.71 55.53 118.143 54.5116 118.583 53.4977C118.588 53.4859 118.594 53.4746 118.6 53.464C118.731 53.2412 119.056 53.3931 118.992 53.6412Z" fill="white"/>
<path d="M123.966 62.7797C123.935 62.8393 123.904 62.899 123.869 62.9586C123.359 63.912 122.753 64.8019 122.06 65.6118C120.73 67.1605 119.129 68.4123 117.347 69.2954C117.233 69.355 117.116 69.4109 117 69.4631V68.8576C117.116 68.8017 117.233 68.7439 117.347 68.6843C119.926 67.3641 122.068 65.2307 123.487 62.5692C123.508 62.5312 123.536 62.4983 123.569 62.4729C123.602 62.4474 123.64 62.43 123.68 62.4217C123.721 62.4134 123.762 62.4144 123.802 62.4248C123.841 62.4351 123.879 62.4545 123.911 62.4816C123.933 62.4972 123.951 62.5174 123.966 62.5408C123.981 62.5643 123.991 62.5906 123.996 62.6183C124.001 62.646 124.001 62.6745 123.996 62.7022C123.991 62.7299 123.981 62.7562 123.966 62.7797Z" fill="white"/>
<path d="M117 31.9653V45.302H116.658V45.1598H2.34175V45.302H2V31.9653C2.00147 30.43 2.59604 28.9579 3.65322 27.8722C4.71041 26.7865 6.14384 26.1759 7.63893 26.1744H111.361C112.856 26.1759 114.29 26.7865 115.347 27.8722C116.404 28.9579 116.999 30.43 117 31.9653Z" fill="#03DAC5"/>
<path d="M111.361 26.1744H7.63893C6.14384 26.1759 4.71041 26.7784 3.65322 27.8497C2.59604 28.921 2.00147 30.3735 2 31.8885V107.038C2.00147 108.553 2.59604 110.005 3.65322 111.076C4.71041 112.148 6.14384 112.75 7.63893 112.752H111.361C112.856 112.75 114.29 112.148 115.347 111.076C116.404 110.005 116.999 108.553 117 107.038V31.8885C116.999 30.3735 116.404 28.921 115.347 27.8497C114.29 26.7784 112.856 26.1759 111.361 26.1744ZM116.658 107.038C116.656 108.461 116.098 109.825 115.105 110.831C114.112 111.837 112.765 112.403 111.361 112.405H7.63893C6.23458 112.403 4.88826 111.837 3.89524 110.831C2.90221 109.825 2.34355 108.461 2.34175 107.038V31.8885C2.34355 30.4655 2.90221 29.1012 3.89524 28.0949C4.88826 27.0887 6.23458 26.5226 7.63893 26.5207H111.361C112.765 26.5226 114.112 27.0887 115.105 28.0949C116.098 29.1012 116.656 30.4655 116.658 31.8885V107.038Z" fill="#3F3D56"/>
<path d="M25.5 39.2617C27.433 39.2617 29 37.6842 29 35.7382C29 33.7922 27.433 32.2147 25.5 32.2147C23.567 32.2147 22 33.7922 22 35.7382C22 37.6842 23.567 39.2617 25.5 39.2617Z" fill="white"/>
<path d="M93.5 39.2617C95.433 39.2617 97 37.6842 97 35.7382C97 33.7922 95.433 32.2147 93.5 32.2147C91.567 32.2147 90 33.7922 90 35.7382C90 37.6842 91.567 39.2617 93.5 39.2617Z" fill="white"/>
<path d="M34.8516 74.4967H15.1484C14.3137 74.4957 13.5134 74.1531 12.9232 73.544C12.333 72.9349 12.0009 72.1091 12 71.2478V61.6382C12.0009 60.7768 12.333 59.951 12.9232 59.3419C13.5134 58.7329 14.3137 58.3903 15.1484 58.3893H34.8516C35.6863 58.3903 36.4866 58.7329 37.0768 59.3419C37.667 59.951 37.9991 60.7768 38 61.6382V71.2478C37.9991 72.1091 37.667 72.9349 37.0768 73.544C36.4866 74.1531 35.6863 74.4957 34.8516 74.4967Z" fill="#03DAC5"/>
<path d="M69.7305 74.4967H49.2695C48.4027 74.4957 47.5716 74.1531 46.9587 73.544C46.3458 72.9349 46.001 72.1091 46 71.2478V61.6382C46.001 60.7768 46.3458 59.951 46.9587 59.3419C47.5716 58.7329 48.4027 58.3903 49.2695 58.3893H69.7305C70.5973 58.3903 71.4284 58.7329 72.0413 59.3419C72.6542 59.951 72.999 60.7768 73 61.6382V71.2478C72.999 72.1091 72.6542 72.9349 72.0413 73.544C71.4284 74.1531 70.5973 74.4957 69.7305 74.4967Z" fill="#03DAC5"/>
<path d="M69.656 98.6577H49.344C48.4575 98.6567 47.6075 98.308 46.9805 97.688C46.3536 97.0681 46.001 96.2275 46 95.3508V85.8572C46.001 84.9804 46.3536 84.1399 46.9805 83.5199C47.6075 82.9 48.4575 82.5513 49.344 82.5503H69.656C70.5426 82.5513 71.3925 82.9 72.0195 83.5199C72.6464 84.1399 72.999 84.9804 73 85.8572V95.3508C72.999 96.2275 72.6464 97.0681 72.0195 97.688C71.3925 98.308 70.5426 98.6567 69.656 98.6577Z" fill="#F2F2F2"/>
<path d="M34.656 98.6577H14.344C13.4574 98.6567 12.6075 98.308 11.9805 97.688C11.3536 97.0681 11.001 96.2275 11 95.3508V85.8572C11.001 84.9804 11.3536 84.1399 11.9805 83.5199C12.6075 82.9 13.4574 82.5513 14.344 82.5503H34.656C35.5425 82.5513 36.3925 82.9 37.0194 83.5199C37.6464 84.1399 37.999 84.9804 38 85.8572V95.3508C37.999 96.2275 37.6464 97.0681 37.0194 97.688C36.3925 98.308 35.5426 98.6567 34.656 98.6577Z" fill="#F2F2F2"/>
<path d="M104.656 98.6577H84.344C83.4574 98.6567 82.6075 98.308 81.9805 97.688C81.3536 97.0681 81.001 96.2275 81 95.3508V85.8572C81.001 84.9804 81.3536 84.1399 81.9805 83.5199C82.6075 82.9 83.4574 82.5513 84.344 82.5503H104.656C105.543 82.5513 106.393 82.9 107.019 83.5199C107.646 84.1399 107.999 84.9804 108 85.8572V95.3508C107.999 96.2275 107.646 97.0681 107.019 97.688C106.393 98.308 105.543 98.6567 104.656 98.6577Z" fill="#F2F2F2"/>
<path d="M104.656 74.4967H84.344C83.4574 74.4956 82.6075 74.1251 81.9805 73.4664C81.3536 72.8077 81.001 71.9146 81 70.9831V60.8961C81.001 59.9646 81.3536 59.0715 81.9805 58.4128C82.6075 57.7541 83.4574 57.3836 84.344 57.3826H104.656C105.543 57.3836 106.393 57.7541 107.019 58.4128C107.646 59.0715 107.999 59.9646 108 60.8961V70.9831C107.999 71.9146 107.646 72.8077 107.019 73.4664C106.393 74.1251 105.543 74.4956 104.656 74.4967Z" fill="#F2F2F2"/>
<path d="M25 71.4765C28.3137 71.4765 31 68.9976 31 65.9396C31 62.8817 28.3137 60.4027 25 60.4027C21.6863 60.4027 19 62.8817 19 65.9396C19 68.9976 21.6863 71.4765 25 71.4765Z" fill="white"/>
<path d="M24.566 68.4564C24.4622 68.4566 24.3612 68.4181 24.2782 68.3467L24.273 68.3422L23.1891 67.3895C23.1388 67.3454 23.0966 67.2903 23.0649 67.2275C23.0331 67.1646 23.0125 67.0952 23.0042 67.0232C22.9959 66.9512 23 66.878 23.0163 66.8078C23.0326 66.7376 23.0608 66.6718 23.0993 66.6142C23.1378 66.5565 23.1858 66.5081 23.2406 66.4718C23.2954 66.4354 23.3559 66.4118 23.4186 66.4023C23.4814 66.3928 23.5451 66.3976 23.6062 66.4164C23.6674 66.4352 23.7247 66.4677 23.7749 66.5119L24.477 67.1299L26.1362 64.646C26.1747 64.5884 26.2227 64.54 26.2774 64.5037C26.3322 64.4674 26.3926 64.4438 26.4553 64.4343C26.518 64.4248 26.5818 64.4296 26.6429 64.4484C26.7039 64.4671 26.7612 64.4995 26.8114 64.5437L26.8011 64.5598L26.8117 64.5439C26.9129 64.6332 26.9791 64.765 26.9959 64.9103C27.0126 65.0556 26.9784 65.2026 26.9008 65.319L24.9492 68.2407C24.904 68.308 24.846 68.3625 24.7795 68.3999C24.7131 68.4373 24.64 68.4566 24.566 68.4564Z" fill="#03DAC5"/>
<path d="M59.5 71.4765C62.5376 71.4765 65 68.9976 65 65.9396C65 62.8817 62.5376 60.4027 59.5 60.4027C56.4624 60.4027 54 62.8817 54 65.9396C54 68.9976 56.4624 71.4765 59.5 71.4765Z" fill="white"/>
<path d="M58.9572 68.4564C58.8275 68.4567 58.7012 68.4085 58.5974 68.3192L58.591 68.3137L57.2359 67.1228C57.1091 67.0114 57.0262 66.8467 57.0052 66.665C56.9843 66.4833 57.027 66.2995 57.1242 66.154C57.2213 66.0086 57.3647 65.9133 57.523 65.8893C57.6813 65.8652 57.8415 65.9143 57.9682 66.0258L58.8459 66.7983L60.9202 63.6934C60.9683 63.6214 61.0282 63.561 61.0967 63.5156C61.1652 63.4702 61.2407 63.4407 61.3191 63.4288C61.3975 63.4169 61.4772 63.4229 61.5535 63.4463C61.6299 63.4698 61.7015 63.5103 61.7642 63.5655L61.7513 63.5856L61.7646 63.5658C61.8911 63.6774 61.9739 63.8422 61.9948 64.0238C62.0157 64.2054 61.973 64.3891 61.876 64.5347L59.4362 68.1867C59.3798 68.2709 59.3072 68.339 59.2242 68.3858C59.1411 68.4325 59.0498 68.4567 58.9572 68.4564Z" fill="#03DAC5"/>
<path d="M97.4986 91.9993C97.6874 91.7983 97.8286 91.5593 97.9123 91.2994C97.996 91.0394 98.0202 90.7647 97.9831 90.4947C97.9461 90.2247 97.8486 89.9658 97.6977 89.7364C97.5469 89.507 97.3462 89.3126 97.1098 89.1669L93.9016 72.4833L90 73.8924L94.3803 89.8487C94.1554 90.2517 94.09 90.7211 94.1966 91.1679C94.3031 91.6147 94.5743 92.0078 94.9587 92.2729C95.343 92.538 95.8139 92.6566 96.282 92.6061C96.7501 92.5557 97.183 92.3398 97.4986 91.9993Z" fill="#A0616A"/>
<path d="M66.9019 67.084C66.9113 67.1799 66.9125 67.2763 66.9057 67.3723L74.2274 72.6335L76.3037 71.8374L78 74.606L74.471 76.3486C74.1859 76.4894 73.8596 76.5401 73.541 76.493C73.2225 76.4459 72.9289 76.3036 72.7043 76.0874L65.3859 69.0432C64.9985 69.1247 64.5936 69.0942 64.2252 68.9558C63.8569 68.8173 63.5423 68.5774 63.3236 68.268C63.1048 67.9586 62.9921 67.5943 63.0004 67.2236C63.0088 66.8529 63.1379 66.4934 63.3704 66.1929C63.603 65.8923 63.928 65.665 64.3024 65.5412C64.6767 65.4173 65.0825 65.4028 65.4659 65.4995C65.8492 65.5963 66.192 65.7997 66.4485 66.0827C66.705 66.3658 66.8632 66.715 66.9019 67.084Z" fill="#A0616A"/>
<path d="M83.9995 121.812H81.9671L81 114.765L84 114.765L83.9995 121.812Z" fill="#A0616A"/>
<path d="M84.9999 123.826L78 123.825V123.73C78 123.346 78.0705 122.966 78.2074 122.611C78.3443 122.256 78.545 121.934 78.798 121.662C79.051 121.39 79.3514 121.175 79.6819 121.028C80.0125 120.881 80.3668 120.805 80.7246 120.805L85 120.806L84.9999 123.826Z" fill="#2F2E41"/>
<path d="M91.9995 121.812H89.9671L89 114.765L92 114.765L91.9995 121.812Z" fill="#A0616A"/>
<path d="M92.9999 123.826L86 123.825V123.73C86 123.346 86.0705 122.966 86.2074 122.611C86.3443 122.256 86.545 121.934 86.798 121.662C87.051 121.39 87.3514 121.175 87.6819 121.028C88.0125 120.881 88.3668 120.805 88.7246 120.805L93 120.806L92.9999 123.826Z" fill="#2F2E41"/>
<path d="M81.6563 119.765C81.4601 119.766 81.271 119.695 81.126 119.567C80.9809 119.439 80.8904 119.263 80.8721 119.073L79 94.6579L79.0885 94.651L91.9718 93.6241L91.9753 93.7129L92.9994 119.005C93.0034 119.108 92.986 119.211 92.9482 119.307C92.9103 119.403 92.8529 119.49 92.7794 119.565C92.7058 119.639 92.6176 119.697 92.52 119.738C92.4224 119.778 92.3174 119.799 92.2114 119.799H89.6853C89.4967 119.8 89.3141 119.734 89.171 119.615C89.0279 119.496 88.9338 119.331 88.906 119.15L85.4756 98.7184C85.4722 98.6973 85.4608 98.6782 85.4436 98.6649C85.4263 98.6516 85.4046 98.6451 85.3826 98.6466C85.3607 98.6482 85.3401 98.6577 85.325 98.6732C85.31 98.6888 85.3015 98.7093 85.3014 98.7307L85.1458 118.904C85.1441 119.099 85.066 119.286 84.9272 119.427C84.7883 119.568 84.5994 119.652 84.3987 119.662L81.6986 119.764C81.6844 119.765 81.6703 119.765 81.6563 119.765Z" fill="#2F2E41"/>
<path d="M84 63.4228C86.2091 63.4228 88 61.62 88 59.396C88 57.172 86.2091 55.3691 84 55.3691C81.7909 55.3691 80 57.172 80 59.396C80 61.62 81.7909 63.4228 84 63.4228Z" fill="#A0616A"/>
<path d="M84.7822 96.6443C82.9351 96.6388 81.0968 96.385 79.3159 95.8897C79.1445 95.8393 78.9956 95.7308 78.8942 95.5824C78.7928 95.4341 78.7451 95.2549 78.7592 95.0752C79.3281 86.4382 79.4618 79.7357 78.2655 75.0983C77.7556 73.1217 77.9871 71.0401 78.9006 69.3871C80.2754 66.8994 82.8023 65.3853 85.4977 65.4376C85.6265 65.4401 85.7566 65.4447 85.8879 65.4515C89.9785 65.6643 93.1659 69.4022 92.9933 73.784L92.1705 94.6698C92.1675 94.8222 92.1199 94.9703 92.0337 95.0954C91.9475 95.2205 91.8265 95.317 91.6861 95.3727C89.4789 96.2114 87.1404 96.6422 84.7822 96.6443Z" fill="#3F3D56"/>
<path d="M78.6621 77.1452L75.2413 73.1907C75.144 73.0782 75.0735 72.9472 75.0346 72.8067C74.9958 72.6661 74.9895 72.5194 75.0163 72.3763C75.043 72.2333 75.1021 72.0974 75.1895 71.9779C75.2769 71.8583 75.3906 71.758 75.5228 71.6836L80.1567 69.0788C80.7697 68.6122 81.5539 68.3939 82.3372 68.4719C83.1206 68.55 83.8392 68.9178 84.3354 69.4949C84.8316 70.0721 85.065 70.8113 84.9844 71.5504C84.9037 72.2896 84.5156 72.9685 83.9052 73.4381L80.2836 77.1872C80.1799 77.2945 80.0529 77.3794 79.9112 77.4362C79.7695 77.4931 79.6166 77.5204 79.4627 77.5164C79.3088 77.5125 79.1576 77.4772 79.0195 77.4132C78.8813 77.3491 78.7594 77.2577 78.6621 77.1452Z" fill="#3F3D56"/>
<path d="M88.4589 76.4172C88.3155 76.3548 88.1876 76.2632 88.084 76.1484C87.9804 76.0337 87.9035 75.8986 87.8585 75.7523L86.2869 70.6446C85.9458 69.9374 85.9073 69.1275 86.1798 68.3927C86.4524 67.6579 87.0139 67.0581 87.741 66.7249C88.4681 66.3917 89.3016 66.3522 90.0586 66.6153C90.8156 66.8783 91.4344 67.4222 91.7791 68.1279L94.8183 72.5872C94.9051 72.7145 94.9625 72.8584 94.9868 73.0092C95.0111 73.16 95.0017 73.3141 94.9592 73.4611C94.9167 73.608 94.842 73.7443 94.7404 73.8607C94.6388 73.9771 94.5125 74.0708 94.3702 74.1356L89.3693 76.4098C89.2271 76.4746 89.0721 76.5088 88.9149 76.5101C88.7578 76.5113 88.6023 76.4797 88.4589 76.4172Z" fill="#3F3D56"/>
<path d="M85.7677 63.3605L82.7188 62.5996C82.4043 62.5211 82.0265 62.3713 81.9829 62.0228C81.9243 61.5544 82.5425 61.228 82.4854 60.7594C82.4302 60.3055 81.8671 60.247 81.4655 60.113C81.0916 59.9699 80.7833 59.6738 80.606 59.2873C80.4287 58.9008 80.3963 58.4542 80.5156 58.0421C80.0812 58.7097 79.0886 58.7669 78.5251 58.226C77.9616 57.6851 77.8535 56.7038 78.1919 55.973C78.3747 55.6141 78.6326 55.3073 78.9447 55.0776C79.2567 54.8478 79.6141 54.7016 79.9878 54.6509C80.739 54.558 81.4986 54.7124 82.1686 55.0942C82.2133 54.5768 82.8057 54.367 83.2823 54.3624C84.2722 54.375 85.234 54.7238 86.0337 55.3603C86.8334 55.9967 87.4312 56.8892 87.744 57.9135C88.3288 59.9683 87.9376 62.2206 86.3015 63.4228L85.7677 63.3605Z" fill="#2F2E41"/>
<path d="M116.83 123.826H52.1697C52.1247 123.826 52.0815 123.773 52.0497 123.678C52.0179 123.584 52 123.456 52 123.322C52 123.189 52.0179 123.061 52.0497 122.966C52.0815 122.872 52.1247 122.819 52.1697 122.819H116.83C116.875 122.819 116.918 122.872 116.95 122.966C116.982 123.061 117 123.189 117 123.322C117 123.456 116.982 123.584 116.95 123.678C116.918 123.773 116.875 123.826 116.83 123.826Z" fill="#3F3D56"/>
</svg>
