<svg width="150" height="150" viewBox="0 0 150 150" fill="none" xmlns="http://www.w3.org/2000/svg">
<path d="M98.6985 136.221H43.6496C37.6816 136.221 32.8262 131.463 32.8262 125.614V22.5278C32.8262 16.679 37.6816 11.9205 43.6496 11.9205H98.6985C104.666 11.9205 109.522 16.679 109.522 22.5278V125.614C109.522 131.463 104.666 136.221 98.6985 136.221Z" fill="#3F3D56"/>
<path d="M109.065 49.7512C108.814 49.7512 108.609 49.9532 108.609 50.2016V64.6133C108.609 64.8617 108.814 65.0637 109.065 65.0637C109.317 65.0637 109.522 64.8617 109.522 64.6133V50.2016C109.522 49.9532 109.317 49.7512 109.065 49.7512Z" fill="#3F3D56"/>
<path d="M108.609 22.4368V125.705C108.609 130.805 104.553 134.977 99.4247 135.3H99.4224C99.3466 135.305 99.2708 135.309 99.1927 135.312C99.0572 135.318 98.9217 135.321 98.7839 135.321C98.7839 135.321 98.2787 135.285 97.3554 135.217C96.423 135.15 95.0657 135.049 93.3731 134.916C92.8656 134.878 92.3305 134.835 91.7655 134.79C90.6402 134.7 89.4046 134.601 88.0794 134.489C87.5512 134.446 87.0046 134.399 86.4465 134.352C83.5941 134.111 80.3995 133.83 77.0304 133.511C76.4609 133.46 75.8867 133.406 75.308 133.349C75.1564 133.334 75.0025 133.32 74.8486 133.304C72.4464 133.073 69.9775 132.823 67.4995 132.558C67.3456 132.542 67.1917 132.527 67.0401 132.511C62.7707 132.05 58.4853 131.549 54.4754 131.01C51.391 130.596 48.4697 130.16 45.847 129.708C44.9927 129.56 44.1705 129.411 43.385 129.261C43.2312 129.232 43.0773 129.202 42.9257 129.171C37.3748 128.083 33.7393 126.91 33.7393 125.705V22.4368C33.7393 17.1255 38.1373 12.8212 43.5642 12.8212H49.4297C50.3667 12.8212 51.12 13.5359 51.2004 14.4507C51.2073 14.5114 51.2142 14.5721 51.2257 14.6328C51.3956 15.5521 52.2569 16.1927 53.2122 16.1927H89.1359C90.0912 16.1927 90.9525 15.5521 91.1224 14.6328C91.1339 14.5721 91.1408 14.5114 91.1477 14.4507C91.2281 13.5359 91.9814 12.8212 92.9184 12.8212H98.7839C104.211 12.8212 108.609 17.1255 108.609 22.4368Z" fill="white"/>
<path d="M61.9533 117.017C61.9863 117.169 62.015 117.317 62.0436 117.469H46.1639C45.1374 117.469 44.2651 118.157 43.9633 119.107C43.9039 119.008 43.8422 118.909 43.7827 118.809V118.807C43.8003 118.649 43.818 118.491 43.8378 118.333C44.1528 115.78 44.7695 113.273 45.6749 110.871C46.9547 111.097 48.1728 110.216 48.3953 108.905C48.512 108.205 48.3226 107.485 47.8754 106.941L47.7961 106.271L47.8776 106.122C49.6288 103.027 53.4969 101.975 56.5147 103.77C57.9487 104.621 58.9994 106.018 59.4377 107.657C60.2704 110.751 61.3057 113.875 61.9533 117.017Z" fill="#FAFAFA"/>
<path d="M106.659 91.3062L106.618 91.4526C105.73 91.689 104.859 91.9794 104.01 92.3217C103.524 92.5198 103.045 92.7338 102.573 92.9657C100.948 93.7718 100.289 95.7308 101.104 97.343C101.515 98.1603 102.255 98.7683 103.143 99.0205L103.206 99.0385L103.342 99.0768C101.467 102.308 99.0476 105.197 96.1875 107.615C92.0676 120.452 81.3694 120.384 70.5805 115.152L70.5737 115.149C69.7429 117.401 68.8099 119.61 67.7794 121.776C67.6296 122.089 67.4798 122.4 67.3254 122.71V119.554C67.3254 119.351 67.3005 119.153 67.2505 118.966C67.3413 118.766 67.4276 118.565 67.5138 118.362C70.2854 111.896 72.1558 105.062 73.0547 98.0522C73.402 95.3164 73.5949 92.5649 73.6335 89.8088C73.663 87.5504 73.5904 85.2942 73.4202 83.0425C72.4759 70.8203 68.6238 58.9945 62.1772 48.5354C58.7292 46.0698 56.1256 42.6135 54.7183 38.6347C54.2052 37.2049 53.9056 35.7075 53.8262 34.1899C54.237 34.298 56.196 28.1306 55.9281 27.705C56.6227 26.9012 57.7191 26.595 58.4636 25.8204C62.1636 21.961 66.4265 23.249 67.9678 29.3105C72.5167 32.348 72.0537 36.3875 68.5807 39.8957C66.372 42.1271 65.6865 45.4326 63.689 47.8667C63.832 48.1053 63.9841 48.3395 64.1271 48.5782C66.7511 52.96 68.9348 57.5849 70.6486 62.39C70.7348 57.2584 72.0469 52.2192 74.478 47.6888C76.8932 43.4849 80.8405 40.1839 84.3862 36.7298C87.0102 34.1359 91.2595 34.1426 93.8745 36.7456C95.1297 37.9953 95.8334 39.6885 95.8334 41.4516L95.8289 41.6227C95.3431 41.8209 94.8642 42.0348 94.392 42.2667C92.7667 43.0728 92.1107 45.034 92.9234 46.644C93.3342 47.4613 94.0742 48.0716 94.9618 48.3215L95.0253 48.3395C94.6576 49.945 94.1696 51.5189 93.5612 53.05C95.5769 68.5934 86.4087 73.0202 74.2805 71.757C73.9945 71.8606 73.7175 71.9642 73.4338 72.0588C74.9138 78.8026 75.5017 85.7108 75.1839 92.6032C74.9841 96.6697 74.453 100.714 73.5972 104.695L73.6358 104.555C75.0795 100.189 77.9963 96.4513 81.8961 93.9722C87.6821 90.3537 95.2886 89.7052 101.381 86.9762C103.263 86.0845 105.515 86.8749 106.414 88.7415C106.799 89.5409 106.886 90.4483 106.659 91.3062Z" fill="#FAFAFA"/>
<path d="M33.2827 38.9425C33.0309 38.9425 32.8262 39.1445 32.8262 39.3929V42.9958C32.8262 43.2442 33.0309 43.4462 33.2827 43.4462C33.5345 43.4462 33.7392 43.2442 33.7392 42.9958V39.3929C33.7392 39.1445 33.5345 38.9425 33.2827 38.9425Z" fill="#3F3D56"/>
<path d="M33.2827 49.7512C33.0309 49.7512 32.8262 49.959 32.8262 50.2145V57.3946C32.8262 57.65 33.0309 57.8578 33.2827 57.8578C33.5345 57.8578 33.7392 57.65 33.7392 57.3946V50.2145C33.7392 49.959 33.5345 49.7512 33.2827 49.7512Z" fill="#3F3D56"/>
<path d="M33.2827 59.6593C33.0309 59.6593 32.8262 59.8671 32.8262 60.1225V67.3027C32.8262 67.5581 33.0309 67.7659 33.2827 67.7659C33.5345 67.7659 33.7392 67.5581 33.7392 67.3027V60.1225C33.7392 59.8671 33.5345 59.6593 33.2827 59.6593Z" fill="#3F3D56"/>
<path d="M48.8394 14.6227H41.4649C41.2321 14.6227 41.0435 14.784 41.0435 14.983V15.1631C41.0435 15.3621 41.2321 15.5234 41.4649 15.5234H48.8394C49.0722 15.5234 49.2609 15.3621 49.2609 15.1631V14.983C49.2609 14.784 49.0722 14.6227 48.8394 14.6227Z" fill="#3F3D56"/>
<path d="M94 15.5234C94.5042 15.5234 94.913 15.1201 94.913 14.6227C94.913 14.1252 94.5042 13.7219 94 13.7219C93.4957 13.7219 93.0869 14.1252 93.0869 14.6227C93.0869 15.1201 93.4957 15.5234 94 15.5234Z" fill="#3F3D56"/>
<path d="M96.7392 15.5234C97.2435 15.5234 97.6523 15.1201 97.6523 14.6227C97.6523 14.1252 97.2435 13.7219 96.7392 13.7219C96.235 13.7219 95.8262 14.1252 95.8262 14.6227C95.8262 15.1201 96.235 15.5234 96.7392 15.5234Z" fill="#3F3D56"/>
<path d="M99.4785 15.5234C99.9827 15.5234 100.392 15.1201 100.392 14.6227C100.392 14.1252 99.9827 13.7219 99.4785 13.7219C98.9742 13.7219 98.5654 14.1252 98.5654 14.6227C98.5654 15.1201 98.9742 15.5234 99.4785 15.5234Z" fill="#3F3D56"/>
<path d="M92.0306 26.3321H50.3179C49.2318 26.3321 48.3481 25.322 48.3481 24.0803C48.3481 22.8386 49.2318 21.8285 50.3179 21.8285H92.0306C93.1167 21.8285 94.0003 22.8386 94.0003 24.0803C94.0003 25.322 93.1167 26.3321 92.0306 26.3321Z" fill="#E6E6E6"/>
<path d="M51.5434 24.5307C50.7883 24.5307 50.1738 24.1266 50.1738 23.63C50.1738 23.1333 50.7883 22.7292 51.5434 22.7292C52.2985 22.7292 52.913 23.1333 52.913 23.63C52.913 24.1266 52.2985 24.5307 51.5434 24.5307ZM51.5434 23.0895C51.0903 23.0895 50.7217 23.332 50.7217 23.63C50.7217 23.928 51.0903 24.1704 51.5434 24.1704C51.9965 24.1704 52.3651 23.928 52.3651 23.63C52.3651 23.332 51.9965 23.0895 51.5434 23.0895Z" fill="white"/>
<path d="M53.5532 25.4316C53.4864 25.4316 53.4194 25.419 53.3667 25.3935L52.0863 24.7744C51.9763 24.7213 51.9707 24.6322 52.0738 24.5755C52.1767 24.5186 52.3493 24.5158 52.4594 24.569L53.7397 25.1882C53.8498 25.2413 53.8554 25.3304 53.7523 25.3871C53.6986 25.4167 53.626 25.4316 53.5532 25.4316Z" fill="white"/>
<path d="M51.4113 64.163C51.2324 64.163 51.0869 64.3145 51.0869 64.5007V64.7259C51.0869 64.9122 51.2324 65.0637 51.4113 65.0637H58.9799C59.1588 65.0637 59.3043 64.9122 59.3043 64.7259V64.5007C59.3043 64.3145 59.1588 64.163 58.9799 64.163H51.4113Z" fill="#3F3D56"/>
<path d="M64.6419 60.56H45.7496C44.1615 60.56 42.8696 59.2855 42.8696 57.7189V39.0813C42.8696 37.5147 44.1615 36.2402 45.7496 36.2402H64.6419C66.2299 36.2402 67.5218 37.5147 67.5218 39.0813V57.7189C67.5218 59.2855 66.2299 60.56 64.6419 60.56ZM45.7496 36.6948C44.4135 36.6948 43.3304 37.7633 43.3304 39.0813V57.7189C43.3304 59.0369 44.4135 60.1054 45.7496 60.1054H58.9832C63.4444 60.1054 67.061 56.5376 67.061 52.1365V39.0813C67.061 37.7633 65.9779 36.6948 64.6419 36.6948H45.7496Z" fill="#F2F2F2"/>
<path d="M48.7964 38.8499C47.3511 38.8499 46.1753 40.0108 46.1753 41.4379V45.4888C46.1753 46.9159 47.3511 48.0768 48.7964 48.0768H52.8991C54.3445 48.0768 55.5203 46.9159 55.5203 45.4888V41.4379C55.5203 40.0108 54.3445 38.8499 52.8991 38.8499H48.7964Z" fill="#F2F2F2"/>
<path d="M59.5093 38.8499C58.064 38.8499 56.8882 40.0108 56.8882 41.4379V45.4888C56.8882 46.9159 58.064 48.0768 59.5093 48.0768H63.612C65.0574 48.0768 66.2332 46.9159 66.2332 45.4888V41.4379C66.2332 40.0108 65.0574 38.8499 63.612 38.8499H59.5093Z" fill="#F2F2F2"/>
<path d="M47.9991 49.0895C46.5537 49.0895 45.3779 50.2504 45.3779 51.6775V55.7284C45.3779 57.1555 46.5537 58.3165 47.9991 58.3165H52.1018C53.5471 58.3165 54.7229 57.1555 54.7229 55.7284V51.6775C54.7229 50.2504 53.5471 49.0895 52.1018 49.0895H47.9991Z" fill="#F2F2F2"/>
<path d="M83.3678 64.163C83.189 64.163 83.0435 64.3145 83.0435 64.5007V64.7259C83.0435 64.9122 83.189 65.0637 83.3678 65.0637H90.9365C91.1153 65.0637 91.2609 64.9122 91.2609 64.7259V64.5007C91.2609 64.3145 91.1153 64.163 90.9365 64.163H83.3678Z" fill="#3F3D56"/>
<path d="M51.4113 103.795C51.2324 103.795 51.0869 103.947 51.0869 104.133V104.358C51.0869 104.544 51.2324 104.696 51.4113 104.696H58.9799C59.1588 104.696 59.3043 104.544 59.3043 104.358V104.133C59.3043 103.947 59.1588 103.795 58.9799 103.795H51.4113Z" fill="#3F3D56"/>
<path d="M64.6419 100.192H45.7496C44.1615 100.192 42.8696 98.9649 42.8696 97.4563V79.5091C42.8696 78.0005 44.1615 76.7732 45.7496 76.7732H64.6419C66.2299 76.7732 67.5218 78.0005 67.5218 79.5091V97.4563C67.5218 98.9649 66.2299 100.192 64.6419 100.192ZM45.7496 77.2109C44.4135 77.2109 43.3304 78.2398 43.3304 79.5091V97.4563C43.3304 98.7256 44.4135 99.7545 45.7496 99.7545H59.2136C63.5476 99.7545 67.061 96.4168 67.061 92.2996V79.5091C67.061 78.2398 65.9779 77.2109 64.6419 77.2109H45.7496Z" fill="#F2F2F2"/>
<path d="M48.1699 78.5746C46.7577 78.5746 45.6089 79.7079 45.6089 81.101V85.0555C45.6089 86.4486 46.7577 87.5819 48.1699 87.5819H52.1783C53.5905 87.5819 54.7393 86.4486 54.7393 85.0555V81.101C54.7393 79.7079 53.5905 78.5746 52.1783 78.5746H48.1699Z" fill="#F2F2F2"/>
<path d="M58.4694 78.5746C56.916 78.5746 55.6523 79.7079 55.6523 81.101V85.0555C55.6523 86.4486 56.916 87.5819 58.4694 87.5819H62.8788C64.4321 87.5819 65.6958 86.4486 65.6958 85.0555V81.101C65.6958 79.7079 64.4321 78.5746 62.8788 78.5746H58.4694Z" fill="#F2F2F2"/>
<path d="M48.1699 89.3834C46.7577 89.3834 45.6089 90.5167 45.6089 91.9099V95.8643C45.6089 97.2574 46.7577 98.3907 48.1699 98.3907H52.1783C53.5905 98.3907 54.7393 97.2574 54.7393 95.8643V91.9099C54.7393 90.5167 53.5905 89.3834 52.1783 89.3834H48.1699Z" fill="#F2F2F2"/>
<path d="M83.3678 103.795C83.189 103.795 83.0435 103.947 83.0435 104.133V104.358C83.0435 104.544 83.189 104.696 83.3678 104.696H90.9365C91.1153 104.696 91.2609 104.544 91.2609 104.358V104.133C91.2609 103.947 91.1153 103.795 90.9365 103.795H83.3678Z" fill="#3F3D56"/>
<path d="M96.5984 100.192H77.7061C76.1181 100.192 74.8262 98.9649 74.8262 97.4563V79.5091C74.8262 78.0005 76.1181 76.7732 77.7061 76.7732H96.5984C98.1864 76.7732 99.4784 78.0005 99.4784 79.5091V97.4563C99.4784 98.9649 98.1864 100.192 96.5984 100.192ZM77.7061 77.2109C76.37 77.2109 75.287 78.2398 75.287 79.5091V97.4563C75.287 98.7256 76.37 99.7545 77.7061 99.7545H91.3216C95.572 99.7545 99.0176 96.4812 99.0176 92.4435V79.5091C99.0176 78.2398 97.9345 77.2109 96.5984 77.2109H77.7061Z" fill="#F2F2F2"/>
<path d="M79.4694 78.5746C77.916 78.5746 76.6523 79.7079 76.6523 81.101V85.0555C76.6523 86.4486 77.916 87.5819 79.4694 87.5819H83.8788C85.4321 87.5819 86.6958 86.4486 86.6958 85.0555V81.101C86.6958 79.7079 85.4321 78.5746 83.8788 78.5746H79.4694Z" fill="#F2F2F2"/>
<path d="M90.1694 78.5746C88.7572 78.5746 87.6084 79.7079 87.6084 81.101V85.0555C87.6084 86.4486 88.7572 87.5819 90.1694 87.5819H94.1779C95.59 87.5819 96.7388 86.4486 96.7388 85.0555V81.101C96.7388 79.7079 95.59 78.5746 94.1779 78.5746H90.1694Z" fill="#F2F2F2"/>
<path d="M79.4694 89.3834C77.916 89.3834 76.6523 90.5167 76.6523 91.9099V95.8643C76.6523 97.2574 77.916 98.3907 79.4694 98.3907H83.8788C85.4321 98.3907 86.6958 97.2574 86.6958 95.8643V91.9099C86.6958 90.5167 85.4321 89.3834 83.8788 89.3834H79.4694Z" fill="#F2F2F2"/>
<path d="M67.5218 119.212V132.618C67.3675 132.603 67.2131 132.587 67.061 132.571V119.212C67.061 119.01 67.0357 118.812 66.985 118.626C66.7177 117.609 65.7685 116.854 64.6419 116.854H45.7496C44.6759 116.854 43.7636 117.539 43.4479 118.484C43.3719 118.713 43.3304 118.958 43.3304 119.212V129.325C43.1761 129.295 43.0217 129.266 42.8696 129.235V119.212C42.8696 118.662 43.0332 118.148 43.3166 117.714C43.8281 116.928 44.7266 116.405 45.7496 116.405H64.6419C65.7939 116.405 66.7892 117.068 67.2523 118.024C67.4251 118.383 67.5218 118.788 67.5218 119.212Z" fill="#F2F2F2"/>
<path d="M52.1783 119.108H48.1699C46.758 119.108 45.6089 120.241 45.6089 121.634V125.588C45.6089 126.981 46.758 128.115 48.1699 128.115H52.1783C53.5902 128.115 54.7393 126.981 54.7393 125.588V121.634C54.7393 120.241 53.5902 119.108 52.1783 119.108Z" fill="#F2F2F2"/>
<path d="M62.8788 119.108H58.4694C56.9163 119.108 55.6523 120.241 55.6523 121.634V125.588C55.6523 126.981 56.9163 128.115 58.4694 128.115H62.8788C64.4318 128.115 65.6958 126.981 65.6958 125.588V121.634C65.6958 120.241 64.4318 119.108 62.8788 119.108Z" fill="#F2F2F2"/>
<path d="M52.27 129.016H48.333C47.6221 129.016 46.9791 129.41 46.522 130.039C49.0198 130.622 51.8019 131.184 54.7394 131.718C54.5163 130.181 53.4948 129.016 52.27 129.016Z" fill="#F2F2F2"/>
<path d="M99.4784 119.205V135.321H99.0176V119.205C99.0176 117.908 97.9324 116.853 96.5984 116.853H77.7061C76.3721 116.853 75.287 117.908 75.287 119.205V133.365C75.1349 133.35 74.9805 133.336 74.8262 133.321V119.205C74.8262 117.662 76.1187 116.405 77.7061 116.405H96.5984C98.1858 116.405 99.4784 117.662 99.4784 119.205Z" fill="#F2F2F2"/>
<path d="M83.8788 119.108H79.4694C77.9163 119.108 76.6523 120.241 76.6523 121.634V125.588C76.6523 126.981 77.9163 128.115 79.4694 128.115H83.8788C85.4318 128.115 86.6958 126.981 86.6958 125.588V121.634C86.6958 120.241 85.4318 119.108 83.8788 119.108Z" fill="#F2F2F2"/>
<path d="M94.1779 119.108H90.1694C88.7575 119.108 87.6084 120.241 87.6084 121.634V125.588C87.6084 126.981 88.7575 128.115 90.1694 128.115H94.1779C95.5897 128.115 96.7388 126.981 96.7388 125.588V121.634C96.7388 120.241 95.5897 119.108 94.1779 119.108Z" fill="#F2F2F2"/>
<path d="M83.8788 129.016H79.4694C77.9163 129.016 76.6523 130.168 76.6523 131.585V133.584C80.2459 133.902 83.6534 134.181 86.6958 134.42V131.585C86.6958 130.168 85.4318 129.016 83.8788 129.016Z" fill="#F2F2F2"/>
<path d="M56.9328 89.3834C56.2267 89.3834 55.6523 89.8367 55.6523 90.394V91.9758C55.6523 92.533 56.2267 92.9863 56.9328 92.9863H58.9371C59.6432 92.9863 60.2176 92.533 60.2176 91.9758V90.394C60.2176 89.8367 59.6432 89.3834 58.9371 89.3834H56.9328Z" fill="#F2F2F2"/>
<path d="M62.4109 89.3834C61.7048 89.3834 61.1304 89.8367 61.1304 90.394V91.9758C61.1304 92.533 61.7048 92.9863 62.4109 92.9863H64.4151C65.1212 92.9863 65.6956 92.533 65.6956 91.9758V90.394C65.6956 89.8367 65.1212 89.3834 64.4151 89.3834H62.4109Z" fill="#F2F2F2"/>
<path d="M56.9328 49.7512C56.2267 49.7512 55.6523 50.2045 55.6523 50.7618V52.3436C55.6523 52.9008 56.2267 53.3541 56.9328 53.3541H58.9371C59.6432 53.3541 60.2176 52.9008 60.2176 52.3436V50.7618C60.2176 50.2045 59.6432 49.7512 58.9371 49.7512H56.9328Z" fill="#F2F2F2"/>
<path d="M62.4109 49.7512C61.7048 49.7512 61.1304 50.2045 61.1304 50.7618V52.3436C61.1304 52.9008 61.7048 53.3541 62.4109 53.3541H64.4151C65.1212 53.3541 65.6956 52.9008 65.6956 52.3436V50.7618C65.6956 50.2045 65.1212 49.7512 64.4151 49.7512H62.4109Z" fill="#F2F2F2"/>
<path d="M90.8928 129.016H88.8893C88.1823 129.016 87.6084 129.582 87.6084 130.279V132.256C87.6084 132.953 88.1823 133.519 88.8893 133.519H90.8928C91.5997 133.519 92.1736 132.953 92.1736 132.256V130.279C92.1736 129.582 91.5997 129.016 90.8928 129.016Z" fill="#F2F2F2"/>
<path d="M96.3713 129.016H94.3678C93.6608 129.016 93.0869 129.582 93.0869 130.279V132.256C93.0869 132.953 93.6608 133.519 94.3678 133.519H96.3713C97.0782 133.519 97.6521 132.953 97.6521 132.256V130.279C97.6521 129.582 97.0782 129.016 96.3713 129.016Z" fill="#F2F2F2"/>
<path d="M90.2207 134.42H88.4731C88.1249 134.42 87.8132 134.621 87.6084 134.936C88.9214 135.08 90.1456 135.206 91.2606 135.321C91.1013 134.793 90.6963 134.42 90.2207 134.42Z" fill="#F2F2F2"/>
<path d="M96.3595 134.42H94.3375C93.7346 134.42 93.2265 134.701 93.0869 135.081C95.0273 135.187 96.5832 135.267 97.6521 135.321V135.297C97.6521 134.813 97.0729 134.42 96.3595 134.42Z" fill="#F2F2F2"/>
<path d="M100.701 39.3098L101.468 43.0879L99.3432 43.8218L98.6758 39.7988C98.5782 39.7201 98.4903 39.6262 98.4165 39.5174C98.0149 38.9256 98.1753 38.1245 98.7747 37.728C99.3741 37.3315 100.185 37.4899 100.587 38.0817C100.843 38.4591 100.87 38.9213 100.701 39.3098Z" fill="#A0616A"/>
<path d="M111.811 64.0479L114.921 60.7401L104.951 50.6706C104.951 50.6706 104.544 50.2924 104.819 50.24C105.094 50.1876 104.678 49.7804 104.678 49.7804C104.678 49.7804 104.028 49.1714 104.549 49.3615C105.07 49.5515 104.41 48.9074 104.41 48.9074L102.075 41.2964L101.661 39.9465L98.1733 42.0017C98.1733 42.0017 98.2043 42.263 98.2659 42.7086C98.5771 44.957 99.67 51.899 101.515 53.6631C103.727 55.7768 111.811 64.0479 111.811 64.0479Z" fill="#03DAC5"/>
<path d="M103.037 134.535L100.84 134.534L99.7949 126.168L103.037 126.169L103.037 134.535Z" fill="#A0616A"/>
<path d="M103.114 136.797L96.3589 136.797V136.713C96.359 135.279 97.5361 134.117 98.9881 134.117L100.222 133.192L102.524 134.117L103.114 134.117L103.114 136.797Z" fill="#2F2E41"/>
<path d="M120.957 132.409L118.88 133.114L115.136 125.538L118.202 124.498L120.957 132.409Z" fill="#A0616A"/>
<path d="M121.776 134.523L115.388 136.693L115.36 136.613C114.888 135.257 115.618 133.78 116.991 133.314L117.854 132.043L120.335 132.178L120.893 131.989L121.776 134.523Z" fill="#2F2E41"/>
<path d="M116.858 78.552H102.127C102.127 78.552 101.41 84.8491 101.144 84.4669C100.878 84.0846 100.955 84.6398 101.03 85.1499C101.106 85.6599 100.355 85.9747 100.844 86.2674C101.333 86.5601 101.158 87.1031 100.676 87.2817C100.194 87.4603 100.422 88.8106 100.422 88.8106L97.9146 112.985L99.9659 131.12H103.385L107.943 98.0376V114.916L117.06 129.994L120.023 128.869L116.377 112.666L119.112 82.7343L116.858 78.552Z" fill="#2F2E41"/>
<path d="M119.34 80.2586L118.214 81.4784L101.106 82.059L100.422 80.4837L103.841 72.832L107.488 57.3037L109.083 53.928V53.5568C109.083 53.5049 109.071 53.4537 109.047 53.4074C108.949 53.2139 109.061 52.981 109.274 52.9324L109.311 52.3527L108.855 52.5777L111.818 51.2274L114.257 51.4637L114.325 51.6775L114.834 52.0623C116.951 53.6602 118.173 56.156 118.125 58.7868L117.972 67.2058L119.34 80.2586Z" fill="#3F3D56"/>
<path d="M109.37 50.0973C109.472 50.1204 109.574 50.1405 109.675 50.156C109.991 50.2069 110.307 50.2224 110.615 50.2038C111.551 50.156 112.433 49.8147 113.146 49.2525C113.9 48.6595 114.463 47.8209 114.699 46.8232C115.255 44.468 113.77 42.1113 111.385 41.5631C109.034 41.021 106.683 42.4356 106.083 44.7306C106.073 44.7661 106.064 44.8001 106.056 44.8356C105.501 47.1923 106.983 49.5475 109.37 50.0973Z" fill="#A0616A"/>
<path d="M102.63 80.4867L104.913 77.361L106.903 78.3991L104.371 81.6191C104.379 81.7433 104.369 81.8708 104.339 81.9982C104.172 82.6914 103.469 83.1204 102.767 82.9564C102.065 82.7924 101.63 82.0975 101.796 81.4044C101.902 80.9623 102.227 80.6286 102.63 80.4867Z" fill="#A0616A"/>
<path d="M113.433 55.616H108.862L108.171 69.6815C108.171 69.6815 108.168 70.2335 107.941 70.07C107.715 69.9065 107.696 70.4848 107.696 70.4848C107.696 70.4848 107.686 71.369 107.473 70.8628C107.259 70.3566 107.23 71.2726 107.23 71.2726L103.17 78.1404L102.45 79.3586L106.348 80.4838C106.348 80.4838 106.521 80.2837 106.809 79.9358C108.267 78.181 112.676 72.6672 112.73 70.1316C112.794 67.0934 113.433 55.616 113.433 55.616Z" fill="#03DAC5"/>
<path d="M107.488 58.879C107.488 58.879 111.135 54.153 114.326 58.654L113.642 52.8027L110.154 52.1686C109.95 52.1469 109.773 52.3089 109.78 52.5119L107.488 58.879Z" fill="#3F3D56"/>
<path d="M108.855 54.1531L108.844 53.3744L108.739 53.2079L108.855 53.0279L108.873 52.9874L109.311 51.2275L113.208 49.8772L114.257 51.4638C112.682 52.5125 112.324 54.1914 108.855 54.1531Z" fill="#03DAC5"/>
<path d="M112.535 49.4468L112.155 46.6305C112.117 46.351 111.749 46.2667 111.591 46.5013H110.907L110.223 44.2509C110.223 44.2509 109.962 45.2695 109.522 45.0199C109.036 44.7449 108.429 44.8828 107.889 45.028L108.135 44.3816L107.038 44.6778L107.185 44.2192L106.503 44.4349C106.62 44.3487 106.514 44.1436 106.37 44.1215C106.225 44.0994 105.665 44.7009 105.437 44.7009C105.249 44.7009 105.064 44.5521 104.919 44.4342C104.534 44.1215 104.342 42.5515 104.525 42.2254C104.864 41.6206 105.633 41.8217 106.12 41.3252C106.229 41.2146 107.378 41.2091 107.488 41.1002C107.624 40.9659 108.608 40.4855 108.801 40.4838C108.993 40.4822 109.175 40.7198 109.05 40.8641C109.139 40.5779 109.512 40.504 109.816 40.5098C110.029 40.5139 110.694 39.9564 110.907 39.9749C111.365 40.0149 111.37 40.631 111.828 40.6709C112.198 40.7032 112.637 40.7825 112.783 41.1197C112.854 41.2845 112.833 41.4714 112.838 41.6505C112.843 41.8295 112.891 42.0292 113.045 42.1232C113.18 42.205 113.359 42.1787 113.495 42.0985C113.631 42.0184 113.732 41.8931 113.829 41.7705C113.977 42.2433 114.809 43.3912 114.957 43.8639C115.107 44.3421 115.257 44.8225 115.333 45.3174C115.566 46.8259 113.921 48.4288 112.862 49.5403" fill="#2F2E41"/>
<path d="M77.5262 37.1409C76.0373 37.1409 74.8262 38.2915 74.8262 39.7058V57.9949C74.8262 59.4093 76.0373 60.5599 77.5262 60.5599H96.7784C98.2672 60.5599 99.4784 59.4093 99.4784 57.9949V39.7058C99.4784 38.2915 98.2672 37.1409 96.7784 37.1409H77.5262Z" fill="#F2F2F2"/>
<path d="M79.4694 38.9425C77.916 38.9425 76.6523 40.0758 76.6523 41.4689V45.4234C76.6523 46.8165 77.916 47.9498 79.4694 47.9498H83.8788C85.4321 47.9498 86.6958 46.8165 86.6958 45.4234V41.4689C86.6958 40.0758 85.4321 38.9425 83.8788 38.9425H79.4694Z" fill="#03DAC5"/>
<path d="M90.1694 38.9425C88.7572 38.9425 87.6084 40.0758 87.6084 41.4689V45.4234C87.6084 46.8165 88.7572 47.9498 90.1694 47.9498H94.1779C95.59 47.9498 96.7388 46.8165 96.7388 45.4234V41.4689C96.7388 40.0758 95.59 38.9425 94.1779 38.9425H90.1694Z" fill="#03DAC5"/>
<path d="M79.4694 48.8506C77.916 48.8506 76.6523 50.0972 76.6523 51.6297V55.9795C76.6523 57.512 77.916 58.7586 79.4694 58.7586H83.8788C85.4321 58.7586 86.6958 57.512 86.6958 55.9795V51.6297C86.6958 50.0972 85.4321 48.8506 83.8788 48.8506H79.4694Z" fill="white"/>
<path d="M88.8908 49.0896C88.2738 49.0896 87.772 49.5851 87.772 50.1943V51.9233C87.772 52.5324 88.2738 53.0279 88.8908 53.0279H90.6419C91.2588 53.0279 91.7607 52.5324 91.7607 51.9233V50.1943C91.7607 49.5851 91.2588 49.0896 90.6419 49.0896H88.8908Z" fill="white"/>
<path d="M94.361 49.0897C93.7441 49.0897 93.2422 49.5853 93.2422 50.1944V51.9234C93.2422 52.5325 93.7441 53.0281 94.361 53.0281H96.1121C96.729 53.0281 97.2309 52.5325 97.2309 51.9234V50.1944C97.2309 49.5853 96.729 49.0897 96.1121 49.0897H94.361Z" fill="white"/>
<path d="M88.8908 54.2656C88.2738 54.2656 87.772 54.7612 87.772 55.3703V57.0993C87.772 57.7084 88.2738 58.204 88.8908 58.204H90.6419C91.2588 58.204 91.7607 57.7084 91.7607 57.0993V55.3703C91.7607 54.7612 91.2588 54.2656 90.6419 54.2656H88.8908Z" fill="white"/>
<path d="M94.361 54.2656C93.7441 54.2656 93.2422 54.7612 93.2422 55.3703V57.0993C93.2422 57.7084 93.7441 58.204 94.361 58.204H96.1121C96.729 58.204 97.2309 57.7084 97.2309 57.0993V55.3703C97.2309 54.7612 96.729 54.2656 96.1121 54.2656H94.361Z" fill="white"/>
<path d="M123.633 133.185C124.104 133.214 124.364 132.637 124.008 132.3L123.972 132.161C123.977 132.15 123.982 132.139 123.986 132.128C124.462 131.006 126.076 131.014 126.548 132.137C126.968 133.134 127.501 134.132 127.632 135.185C127.691 135.651 127.665 136.124 127.56 136.581C128.542 134.463 129.059 132.15 129.059 129.825C129.059 129.24 129.027 128.656 128.96 128.073C128.906 127.596 128.831 127.123 128.734 126.653C128.208 124.115 127.07 121.698 125.429 119.679C124.64 119.253 123.982 118.587 123.584 117.789C123.441 117.502 123.329 117.192 123.276 116.876C123.366 116.888 123.615 115.538 123.547 115.455C123.672 115.267 123.896 115.174 124.033 114.991C124.713 114.081 125.649 114.24 126.138 115.477C127.183 115.997 127.193 116.86 126.552 117.69C126.144 118.219 126.088 118.933 125.73 119.499C125.767 119.545 125.806 119.59 125.842 119.637C126.517 120.492 127.101 121.41 127.593 122.375C127.454 121.303 127.659 120.01 128.009 119.177C128.408 118.228 129.155 117.429 129.812 116.609C130.602 115.623 132.222 116.053 132.361 117.302C132.363 117.315 132.364 117.327 132.365 117.339C132.268 117.393 132.172 117.451 132.079 117.512C131.545 117.86 131.73 118.676 132.361 118.773L132.376 118.775C132.34 119.122 132.28 119.467 132.192 119.805C133.035 123.027 131.214 124.201 128.613 124.253C128.555 124.282 128.5 124.311 128.442 124.339C128.706 125.072 128.916 125.823 129.072 126.585C129.212 127.258 129.309 127.938 129.364 128.621C129.431 129.483 129.426 130.349 129.352 131.21L129.356 131.179C129.543 130.232 130.064 129.347 130.821 128.733C131.948 127.819 133.541 127.482 134.757 126.747C135.342 126.393 136.093 126.851 135.99 127.521L135.985 127.553C135.804 127.626 135.628 127.71 135.457 127.804C135.359 127.859 135.264 127.917 135.17 127.978C134.637 128.326 134.821 129.142 135.453 129.238L135.467 129.24C135.478 129.242 135.486 129.243 135.497 129.245C135.186 129.973 134.753 130.649 134.211 131.232C133.684 134.044 131.418 134.311 128.994 133.492H128.993C128.728 134.632 128.341 135.745 127.843 136.806H123.736C123.721 136.761 123.708 136.715 123.694 136.67C124.074 136.693 124.457 136.671 124.831 136.603C124.526 136.233 124.221 135.861 123.917 135.492C123.909 135.485 123.903 135.478 123.898 135.47C123.743 135.281 123.587 135.094 123.432 134.905L123.432 134.905C123.423 134.325 123.493 133.746 123.633 133.185Z" fill="#F2F2F2"/>
<path d="M10 136.818C10 136.967 10.1208 137.086 10.2712 137.086H135.697C135.847 137.086 135.968 136.967 135.968 136.818C135.968 136.67 135.847 136.55 135.697 136.55H10.2712C10.1208 136.55 10 136.67 10 136.818Z" fill="#CCCCCC"/>
</svg>
