<svg width="150" height="150" viewBox="0 0 150 150" fill="none" xmlns="http://www.w3.org/2000/svg">
<path d="M116.139 124.604L61.2266 99.5346L89.5018 37.5969L144.414 62.666L116.139 124.604Z" fill="#E6FBF9"/>
<path d="M124.504 88.6209L82.9339 69.643C82.8556 69.6072 82.7947 69.5418 82.7646 69.4612C82.7345 69.3806 82.7377 69.2913 82.7734 69.213C82.8092 69.1347 82.8746 69.0738 82.9552 69.0437C83.0359 69.0136 83.1252 69.0168 83.2034 69.0525L124.774 88.0305C124.852 88.0662 124.913 88.1316 124.943 88.2122C124.973 88.2929 124.97 88.3822 124.934 88.4605C124.898 88.5388 124.833 88.5997 124.752 88.6298C124.672 88.6599 124.582 88.6567 124.504 88.6209Z" fill="#9AF0E8"/>
<path d="M126.816 83.5576L85.2454 64.5796C85.2067 64.5619 85.1717 64.5368 85.1427 64.5056C85.1137 64.4744 85.091 64.4378 85.0761 64.3978C85.0612 64.3579 85.0544 64.3154 85.0559 64.2728C85.0574 64.2302 85.0673 64.1884 85.085 64.1496C85.1027 64.1108 85.1278 64.0759 85.159 64.0469C85.1902 64.0178 85.2268 63.9952 85.2667 63.9803C85.3067 63.9654 85.3491 63.9585 85.3917 63.96C85.4343 63.9616 85.4762 63.9714 85.515 63.9891L127.085 82.9671C127.124 82.9848 127.159 83.01 127.188 83.0412C127.217 83.0723 127.24 83.109 127.254 83.1489C127.269 83.1888 127.276 83.2313 127.275 83.2739C127.273 83.3165 127.263 83.3583 127.246 83.3971C127.228 83.4359 127.203 83.4708 127.172 83.4998C127.14 83.5289 127.104 83.5515 127.064 83.5664C127.024 83.5813 126.981 83.5882 126.939 83.5867C126.896 83.5852 126.854 83.5753 126.816 83.5576Z" fill="#9AF0E8"/>
<path d="M129.127 78.4939L87.557 59.5159C87.5182 59.4982 87.4833 59.473 87.4542 59.4418C87.4252 59.4107 87.4026 59.374 87.3877 59.3341C87.3728 59.2942 87.3659 59.2517 87.3674 59.2091C87.3689 59.1665 87.3788 59.1246 87.3965 59.0859C87.4142 59.0471 87.4394 59.0122 87.4705 58.9832C87.5017 58.9541 87.5383 58.9315 87.5783 58.9166C87.6182 58.9017 87.6607 58.8948 87.7033 58.8963C87.7458 58.8978 87.7877 58.9077 87.8265 58.9254L129.397 77.9034C129.475 77.9392 129.536 78.0046 129.566 78.0852C129.596 78.1658 129.592 78.2549 129.557 78.3331C129.521 78.4113 129.456 78.4722 129.375 78.5023C129.295 78.5324 129.205 78.5294 129.127 78.4939Z" fill="#9AF0E8"/>
<path d="M131.439 73.4301L89.8685 54.4522C89.8297 54.4345 89.7948 54.4093 89.7658 54.3781C89.7367 54.3469 89.7141 54.3103 89.6992 54.2704C89.6843 54.2305 89.6774 54.188 89.6789 54.1454C89.6804 54.1028 89.6903 54.0609 89.708 54.0222C89.7257 53.9834 89.7509 53.9485 89.7821 53.9194C89.8133 53.8904 89.8499 53.8678 89.8898 53.8529C89.9297 53.838 89.9722 53.8311 90.0148 53.8326C90.0574 53.8341 90.0993 53.844 90.138 53.8617L131.708 72.8397C131.747 72.8574 131.782 72.8825 131.811 72.9137C131.84 72.9449 131.863 72.9815 131.878 73.0214C131.892 73.0614 131.899 73.1038 131.898 73.1464C131.896 73.189 131.886 73.2309 131.869 73.2697C131.851 73.3085 131.826 73.3434 131.795 73.3724C131.763 73.4015 131.727 73.4241 131.687 73.439C131.647 73.4539 131.605 73.4608 131.562 73.4592C131.519 73.4577 131.477 73.4478 131.439 73.4301Z" fill="#9AF0E8"/>
<path d="M122.415 93.1972L80.8445 74.2193C80.8058 74.2016 80.7709 74.1764 80.7418 74.1452C80.7128 74.114 80.6902 74.0774 80.6753 74.0375C80.6604 73.9976 80.6535 73.9551 80.655 73.9125C80.6565 73.8699 80.6664 73.828 80.6841 73.7893C80.7018 73.7505 80.727 73.7156 80.7581 73.6865C80.7893 73.6575 80.8259 73.6349 80.8659 73.62C80.9058 73.6051 80.9483 73.5982 80.9909 73.5997C81.0335 73.6012 81.0753 73.6111 81.1141 73.6288L122.684 92.6068C122.763 92.6425 122.824 92.7079 122.854 92.7885C122.884 92.8692 122.881 92.9585 122.845 93.0368C122.809 93.1151 122.744 93.176 122.663 93.2061C122.582 93.2361 122.493 93.233 122.415 93.1972Z" fill="#9AF0E8"/>
<path d="M129.356 66.0024L96.8844 51.1782C96.7017 51.0995 96.5543 50.9564 96.4701 50.7761C96.386 50.5958 96.3711 50.3909 96.4281 50.2003C96.4631 50.0967 96.5194 50.0016 96.5934 49.9211C96.6674 49.8406 96.7574 49.7766 96.8577 49.7332C96.958 49.6897 97.0664 49.6678 97.1757 49.6689C97.285 49.6699 97.3929 49.6939 97.4923 49.7393L129.954 64.559C130.14 64.6381 130.29 64.7833 130.376 64.9665C130.461 65.1498 130.476 65.3581 130.417 65.5515C130.381 65.6538 130.324 65.7474 130.25 65.8265C130.175 65.9055 130.085 65.9682 129.986 66.0106C129.886 66.0531 129.778 66.0742 129.67 66.0728C129.562 66.0714 129.455 66.0474 129.356 66.0024Z" fill="#9AF0E8"/>
<path d="M4.41406 62.666L59.3265 37.5969L87.6017 99.5346L32.6893 124.604L4.41406 62.666Z" fill="#E6FBF9"/>
<path d="M24.3241 88.6209L65.8943 69.643C65.933 69.6253 65.9679 69.6001 65.997 69.5689C66.026 69.5377 66.0486 69.5011 66.0635 69.4612C66.0784 69.4213 66.0853 69.3788 66.0838 69.3362C66.0823 69.2936 66.0724 69.2517 66.0547 69.213C66.037 69.1742 66.0119 69.1393 65.9807 69.1102C65.9495 69.0812 65.9129 69.0586 65.8729 69.0437C65.833 69.0288 65.7905 69.0219 65.748 69.0234C65.7054 69.0249 65.6635 69.0348 65.6247 69.0525L24.0545 88.0305C24.0157 88.0482 23.9808 88.0733 23.9518 88.1045C23.9227 88.1357 23.9001 88.1723 23.8852 88.2122C23.8703 88.2522 23.8634 88.2946 23.865 88.3372C23.8665 88.3798 23.8764 88.4217 23.8941 88.4605C23.9118 88.4992 23.9369 88.5342 23.9681 88.5632C23.9993 88.5922 24.0359 88.6149 24.0758 88.6298C24.1158 88.6447 24.1582 88.6516 24.2008 88.65C24.2434 88.6485 24.2853 88.6386 24.3241 88.6209Z" fill="#9AF0E8"/>
<path d="M22.013 83.5576L63.5832 64.5796C63.6615 64.5439 63.7224 64.4785 63.7525 64.3978C63.7826 64.3172 63.7794 64.2279 63.7437 64.1496C63.7079 64.0713 63.6426 64.0104 63.5619 63.9803C63.4813 63.9502 63.392 63.9534 63.3137 63.9891L21.7435 82.9671C21.7047 82.9848 21.6698 83.01 21.6408 83.0412C21.6117 83.0723 21.5891 83.109 21.5742 83.1489C21.5593 83.1888 21.5524 83.2313 21.5539 83.2739C21.5554 83.3165 21.5653 83.3583 21.583 83.3971C21.6007 83.4359 21.6259 83.4708 21.6571 83.4998C21.6883 83.5289 21.7249 83.5515 21.7648 83.5664C21.8047 83.5813 21.8472 83.5882 21.8898 83.5867C21.9324 83.5852 21.9743 83.5753 22.013 83.5576Z" fill="#9AF0E8"/>
<path d="M19.7012 78.4939L61.2714 59.5159C61.3497 59.4802 61.4106 59.4148 61.4407 59.3341C61.4708 59.2535 61.4676 59.1642 61.4318 59.0859C61.3961 59.0076 61.3307 58.9467 61.2501 58.9166C61.1694 58.8865 61.0801 58.8897 61.0018 58.9254L19.4316 77.9034C19.3534 77.9392 19.2926 78.0046 19.2626 78.0852C19.2326 78.1658 19.2358 78.255 19.2715 78.3333C19.3072 78.4115 19.3725 78.4724 19.4531 78.5025C19.5337 78.5326 19.6229 78.5295 19.7012 78.4939Z" fill="#9AF0E8"/>
<path d="M17.3895 73.4301L58.9597 54.4522C58.9985 54.4345 59.0334 54.4093 59.0624 54.3781C59.0915 54.3469 59.1141 54.3103 59.129 54.2704C59.1439 54.2305 59.1508 54.188 59.1493 54.1454C59.1477 54.1028 59.1379 54.0609 59.1202 54.0222C59.1025 53.9834 59.0773 53.9485 59.0461 53.9194C59.0149 53.8904 58.9783 53.8678 58.9384 53.8529C58.8985 53.838 58.856 53.8311 58.8134 53.8326C58.7708 53.8341 58.7289 53.844 58.6901 53.8617L17.1199 72.8397C17.0416 72.8754 16.9807 72.9408 16.9507 73.0214C16.9206 73.1021 16.9237 73.1914 16.9595 73.2697C16.9952 73.348 17.0606 73.4089 17.1413 73.439C17.2219 73.4691 17.3112 73.4659 17.3895 73.4301Z" fill="#9AF0E8"/>
<path d="M26.4134 93.1972L67.9836 74.2193C68.0619 74.1835 68.1228 74.1181 68.1529 74.0375C68.183 73.9568 68.1798 73.8676 68.1441 73.7893C68.1083 73.7109 68.0429 73.6501 67.9623 73.62C67.8817 73.5899 67.7924 73.5931 67.7141 73.6288L26.1439 92.6067C26.1051 92.6244 26.0702 92.6496 26.0411 92.6808C26.0121 92.712 25.9895 92.7486 25.9746 92.7885C25.9597 92.8285 25.9528 92.8709 25.9543 92.9135C25.9558 92.9561 25.9657 92.998 25.9834 93.0368C26.0011 93.0755 26.0263 93.1104 26.0575 93.1395C26.0886 93.1685 26.1253 93.1911 26.1652 93.206C26.2051 93.2209 26.2476 93.2278 26.2902 93.2263C26.3328 93.2248 26.3747 93.2149 26.4134 93.1972Z" fill="#9AF0E8"/>
<path d="M19.4714 66.0024L51.943 51.1782C52.1257 51.0995 52.2731 50.9564 52.3573 50.7761C52.4414 50.5958 52.4563 50.3909 52.3993 50.2003C52.3643 50.0967 52.308 50.0016 52.234 49.9211C52.16 49.8406 52.07 49.7766 51.9697 49.7332C51.8694 49.6897 51.761 49.6678 51.6517 49.6689C51.5424 49.6699 51.4345 49.6939 51.3351 49.7393L18.8734 64.559C18.6873 64.6381 18.5371 64.7833 18.4517 64.9665C18.3662 65.1498 18.3516 65.3581 18.4107 65.5515C18.4467 65.6538 18.5036 65.7474 18.5778 65.8264C18.6521 65.9055 18.7419 65.9682 18.8417 66.0106C18.9415 66.0531 19.049 66.0742 19.1574 66.0728C19.2658 66.0714 19.3727 66.0474 19.4714 66.0024Z" fill="#9AF0E8"/>
<path d="M115.531 125.124H33.4209V32.5089H115.531V125.124Z" fill="white"/>
<path d="M115.27 125.124H33.1592V32.5089H115.27V125.124ZM33.6006 124.683H114.828V32.9504H33.6006L33.6006 124.683Z" fill="#03DAC5"/>
<path d="M105.294 75.8736H43.1343C43.0764 75.8736 43.0189 75.8622 42.9654 75.84C42.9118 75.8179 42.8632 75.7853 42.8222 75.7443C42.7812 75.7034 42.7487 75.6547 42.7265 75.6011C42.7043 75.5476 42.6929 75.4902 42.6929 75.4322C42.6929 75.3742 42.7043 75.3168 42.7265 75.2632C42.7487 75.2097 42.7812 75.161 42.8222 75.12C42.8632 75.079 42.9118 75.0465 42.9654 75.0243C43.0189 75.0021 43.0764 74.9907 43.1343 74.9907H105.294C105.411 74.9907 105.524 75.0372 105.606 75.12C105.689 75.2028 105.736 75.3151 105.736 75.4322C105.736 75.5493 105.689 75.6616 105.606 75.7443C105.524 75.8271 105.411 75.8736 105.294 75.8736Z" fill="#9AF0E8"/>
<path d="M105.294 68.3019H43.1343C43.0172 68.3019 42.905 68.2554 42.8222 68.1726C42.7394 68.0898 42.6929 67.9775 42.6929 67.8604C42.6929 67.7433 42.7394 67.631 42.8222 67.5482C42.905 67.4655 43.0172 67.4189 43.1343 67.4189H105.294C105.411 67.4189 105.524 67.4655 105.606 67.5482C105.689 67.631 105.736 67.7433 105.736 67.8604C105.736 67.9775 105.689 68.0898 105.606 68.1726C105.524 68.2554 105.411 68.3019 105.294 68.3019Z" fill="#9AF0E8"/>
<path d="M105.294 60.7303H43.1343C43.0764 60.7303 43.0189 60.7189 42.9654 60.6967C42.9118 60.6746 42.8632 60.642 42.8222 60.601C42.7812 60.56 42.7487 60.5114 42.7265 60.4578C42.7043 60.4043 42.6929 60.3468 42.6929 60.2889C42.6929 60.2309 42.7043 60.1735 42.7265 60.1199C42.7487 60.0664 42.7812 60.0177 42.8222 59.9767C42.8632 59.9357 42.9118 59.9032 42.9654 59.881C43.0189 59.8588 43.0764 59.8474 43.1343 59.8474H105.294C105.411 59.8474 105.524 59.8939 105.606 59.9767C105.689 60.0595 105.736 60.1718 105.736 60.2889C105.736 60.406 105.689 60.5182 105.606 60.601C105.524 60.6838 105.411 60.7303 105.294 60.7303Z" fill="#9AF0E8"/>
<path d="M105.294 53.1589H43.1343C43.0172 53.1589 42.905 53.1124 42.8222 53.0296C42.7394 52.9468 42.6929 52.8345 42.6929 52.7175C42.6929 52.6004 42.7394 52.4881 42.8222 52.4053C42.905 52.3225 43.0172 52.276 43.1343 52.276H105.294C105.411 52.276 105.524 52.3225 105.606 52.4053C105.689 52.4881 105.736 52.6004 105.736 52.7175C105.736 52.8345 105.689 52.9468 105.606 53.0296C105.524 53.1124 105.411 53.1589 105.294 53.1589Z" fill="#9AF0E8"/>
<path d="M105.294 82.7162H43.1343C43.0172 82.7162 42.905 82.6697 42.8222 82.5869C42.7394 82.5041 42.6929 82.3918 42.6929 82.2747C42.6929 82.1576 42.7394 82.0453 42.8222 81.9625C42.905 81.8798 43.0172 81.8333 43.1343 81.8333H105.294C105.411 81.8333 105.524 81.8798 105.606 81.9625C105.689 82.0453 105.736 82.1576 105.736 82.2747C105.736 82.3918 105.689 82.5041 105.606 82.5869C105.524 82.6697 105.411 82.7162 105.294 82.7162Z" fill="#9AF0E8"/>
<path d="M105.294 116.686H43.1343C43.0172 116.686 42.905 116.64 42.8222 116.557C42.7394 116.474 42.6929 116.362 42.6929 116.245C42.6929 116.127 42.7394 116.015 42.8222 115.932C42.905 115.85 43.0172 115.803 43.1343 115.803H105.294C105.411 115.803 105.524 115.85 105.606 115.932C105.689 116.015 105.736 116.127 105.736 116.245C105.736 116.362 105.689 116.474 105.606 116.557C105.524 116.64 105.411 116.686 105.294 116.686Z" fill="#9AF0E8"/>
<path d="M90.4042 109.599H58.0248C57.8084 109.599 57.6009 109.513 57.4478 109.36C57.2948 109.207 57.2087 108.999 57.2085 108.783V89.736C57.2087 89.5196 57.2948 89.3121 57.4478 89.159C57.6009 89.006 57.8084 88.9199 58.0248 88.9197H90.4042C90.6206 88.9199 90.8281 89.006 90.9811 89.159C91.1341 89.3121 91.2202 89.5196 91.2204 89.736V108.783C91.2202 108.999 91.1341 109.207 90.9811 109.36C90.8281 109.513 90.6206 109.599 90.4042 109.599Z" fill="#E6FBF9"/>
<path d="M79.5913 98.7182C79.4265 98.5417 79.2279 98.4002 79.0073 98.3021C78.7867 98.2039 78.5486 98.1511 78.3072 98.1468C78.0658 98.1425 77.826 98.1867 77.6021 98.2769C77.3781 98.3672 77.1746 98.5015 77.0036 98.6719L67.8912 107.785C67.6504 108.025 67.3244 108.16 66.9843 108.16C66.6442 108.161 66.3178 108.027 66.0763 107.787L64.7267 106.44C64.5599 106.273 64.3618 106.141 64.1437 106.051C63.9257 105.96 63.692 105.914 63.456 105.914C63.22 105.914 62.9863 105.96 62.7682 106.051C62.5502 106.141 62.3521 106.273 62.1852 106.44L59.5732 109.055H88.8561V108.683L79.5913 98.7182Z" fill="#03DAC5"/>
<path d="M90.4042 109.599H58.0248C57.8084 109.599 57.6009 109.513 57.4478 109.36C57.2948 109.207 57.2087 108.999 57.2085 108.783V89.736C57.2087 89.5196 57.2948 89.3121 57.4478 89.159C57.6009 89.006 57.8084 88.9199 58.0248 88.9197H90.4042C90.6206 88.9199 90.8281 89.006 90.9811 89.159C91.1341 89.3121 91.2202 89.5196 91.2204 89.736V108.783C91.2202 108.999 91.1341 109.207 90.9811 109.36C90.8281 109.513 90.6206 109.599 90.4042 109.599ZM58.0248 89.4639C57.9526 89.464 57.8835 89.4927 57.8325 89.5437C57.7815 89.5947 57.7528 89.6638 57.7527 89.736V108.783C57.7528 108.855 57.7815 108.924 57.8325 108.975C57.8835 109.026 57.9526 109.055 58.0248 109.055H90.4042C90.4763 109.055 90.5455 109.026 90.5965 108.975C90.6475 108.924 90.6762 108.855 90.6763 108.783V89.736C90.6762 89.6638 90.6475 89.5947 90.5965 89.5437C90.5455 89.4927 90.4763 89.464 90.4042 89.4639L58.0248 89.4639Z" fill="#03DAC5"/>
<path d="M98.7547 47.0373H50.3187C50.0488 47.0491 49.7861 46.8589 49.5807 46.5029C49.3752 46.1469 49.2413 45.6499 49.2044 45.1063C49.1891 44.8064 49.205 44.5033 49.251 44.2167C49.297 43.93 49.3721 43.6662 49.4714 43.4423C49.5708 43.2184 49.6921 43.0394 49.8277 42.9168C49.9632 42.7943 50.1099 42.7309 50.2582 42.7309H98.6795C98.9537 42.7162 99.2209 42.9084 99.4296 43.2703C99.6383 43.6322 99.7738 44.1383 99.8099 44.6911C99.823 44.989 99.8055 45.2891 99.7585 45.5724C99.7114 45.8557 99.6358 46.116 99.5366 46.3367C99.4373 46.5574 99.3165 46.7337 99.1819 46.8543C99.0473 46.9749 98.9018 47.0372 98.7547 47.0373Z" fill="#03DAC5"/>
</svg>
