<svg width="400" height="400" viewBox="0 0 400 400" fill="none" xmlns="http://www.w3.org/2000/svg">
<path d="M101.795 287.675C101.66 287.675 101.531 287.621 101.436 287.526C101.341 287.431 101.288 287.302 101.288 287.167V136.338C101.288 136.204 101.341 136.074 101.436 135.979C101.531 135.884 101.66 135.831 101.795 135.831C101.93 135.831 102.059 135.884 102.154 135.979C102.249 136.074 102.303 136.204 102.303 136.338V287.167C102.303 287.302 102.249 287.431 102.154 287.526C102.059 287.621 101.93 287.675 101.795 287.675Z" fill="#F2F1F1"/>
<path d="M131.585 287.675C131.452 287.672 131.324 287.618 131.229 287.523C131.135 287.429 131.08 287.301 131.078 287.167V136.338C131.078 136.204 131.131 136.074 131.226 135.979C131.322 135.884 131.451 135.831 131.585 135.831C131.72 135.831 131.849 135.884 131.944 135.979C132.039 136.074 132.093 136.204 132.093 136.338V287.167C132.093 287.302 132.039 287.431 131.944 287.526C131.849 287.621 131.72 287.675 131.585 287.675Z" fill="#F2F1F1"/>
<path d="M161.355 287.675C161.221 287.672 161.094 287.618 160.999 287.523C160.905 287.429 160.85 287.301 160.848 287.167V136.338C160.848 136.204 160.901 136.074 160.996 135.979C161.092 135.884 161.221 135.831 161.355 135.831C161.49 135.831 161.619 135.884 161.714 135.979C161.809 136.074 161.863 136.204 161.863 136.338V287.167C161.863 287.302 161.809 287.431 161.714 287.526C161.619 287.621 161.49 287.675 161.355 287.675Z" fill="#F2F1F1"/>
<path d="M191.176 287.675C191.041 287.675 190.912 287.621 190.817 287.526C190.722 287.431 190.668 287.302 190.668 287.167V136.338C190.668 136.204 190.722 136.074 190.817 135.979C190.912 135.884 191.041 135.831 191.176 135.831C191.311 135.831 191.44 135.884 191.535 135.979C191.63 136.074 191.683 136.204 191.683 136.338V287.167C191.681 287.301 191.627 287.429 191.532 287.523C191.437 287.618 191.31 287.672 191.176 287.675Z" fill="#F2F1F1"/>
<path d="M220.966 287.675C220.832 287.675 220.703 287.621 220.607 287.526C220.512 287.431 220.459 287.302 220.459 287.167V136.338C220.459 136.204 220.512 136.074 220.607 135.979C220.703 135.884 220.832 135.831 220.966 135.831C221.101 135.831 221.23 135.884 221.325 135.979C221.42 136.074 221.474 136.204 221.474 136.338V287.167C221.471 287.301 221.417 287.429 221.322 287.523C221.228 287.618 221.1 287.672 220.966 287.675Z" fill="#F2F1F1"/>
<path d="M250.756 287.675C250.622 287.675 250.493 287.621 250.398 287.526C250.302 287.431 250.249 287.302 250.249 287.167V136.338C250.249 136.204 250.302 136.074 250.398 135.979C250.493 135.884 250.622 135.831 250.756 135.831C250.891 135.831 251.02 135.884 251.115 135.979C251.21 136.074 251.264 136.204 251.264 136.338V287.167C251.264 287.302 251.21 287.431 251.115 287.526C251.02 287.621 250.891 287.675 250.756 287.675Z" fill="#F2F1F1"/>
<path d="M280.547 287.675C280.413 287.672 280.285 287.618 280.191 287.523C280.096 287.429 280.042 287.301 280.039 287.167V136.338C280.039 136.204 280.093 136.074 280.188 135.979C280.283 135.884 280.412 135.831 280.547 135.831C280.681 135.831 280.81 135.884 280.906 135.979C281.001 136.074 281.054 136.204 281.054 136.338V287.167C281.054 287.302 281.001 287.431 280.906 287.526C280.81 287.621 280.681 287.675 280.547 287.675Z" fill="#F2F1F1"/>
<path d="M310.337 287.675C310.203 287.672 310.076 287.618 309.981 287.523C309.886 287.429 309.832 287.301 309.829 287.167V136.338C309.829 136.204 309.883 136.074 309.978 135.979C310.073 135.884 310.202 135.831 310.337 135.831C310.472 135.831 310.601 135.884 310.696 135.979C310.791 136.074 310.844 136.204 310.844 136.338V287.167C310.844 287.302 310.791 287.431 310.696 287.526C310.601 287.621 310.472 287.675 310.337 287.675Z" fill="#F2F1F1"/>
<path d="M310.337 136.856H69.5688C69.4342 136.856 69.3051 136.802 69.21 136.707C69.1148 136.612 69.0613 136.483 69.0613 136.348C69.0613 136.214 69.1148 136.085 69.21 135.989C69.3051 135.894 69.4342 135.841 69.5688 135.841H310.337C310.472 135.841 310.601 135.894 310.696 135.989C310.791 136.085 310.844 136.214 310.844 136.348C310.844 136.483 310.791 136.612 310.696 136.707C310.601 136.802 310.472 136.856 310.337 136.856Z" fill="#F2F1F1"/>
<path d="M310.337 166.636H69.5688C69.4342 166.636 69.3051 166.582 69.21 166.487C69.1148 166.392 69.0613 166.263 69.0613 166.128C69.0613 165.994 69.1148 165.865 69.21 165.77C69.3051 165.674 69.4342 165.621 69.5688 165.621H310.337C310.472 165.621 310.601 165.674 310.696 165.77C310.791 165.865 310.844 165.994 310.844 166.128C310.844 166.263 310.791 166.392 310.696 166.487C310.601 166.582 310.472 166.636 310.337 166.636Z" fill="#F2F1F1"/>
<path d="M310.337 196.436H69.5688C69.4342 196.436 69.3051 196.383 69.21 196.288C69.1148 196.193 69.0613 196.063 69.0613 195.929C69.0613 195.794 69.1148 195.665 69.21 195.57C69.3051 195.475 69.4342 195.421 69.5688 195.421H310.337C310.472 195.421 310.601 195.475 310.696 195.57C310.791 195.665 310.844 195.794 310.844 195.929C310.844 196.063 310.791 196.193 310.696 196.288C310.601 196.383 310.472 196.436 310.337 196.436Z" fill="#F2F1F1"/>
<path d="M310.337 226.227H69.5688C69.4342 226.227 69.3051 226.173 69.21 226.078C69.1148 225.983 69.0613 225.854 69.0613 225.719C69.0613 225.584 69.1148 225.455 69.21 225.36C69.3051 225.265 69.4342 225.212 69.5688 225.212H310.337C310.472 225.212 310.601 225.265 310.696 225.36C310.791 225.455 310.844 225.584 310.844 225.719C310.844 225.854 310.791 225.983 310.696 226.078C310.601 226.173 310.472 226.227 310.337 226.227Z" fill="#F2F1F1"/>
<path d="M310.337 256.017H69.5688C69.4342 256.017 69.3051 255.963 69.21 255.868C69.1148 255.773 69.0613 255.644 69.0613 255.509C69.0613 255.375 69.1148 255.246 69.21 255.15C69.3051 255.055 69.4342 255.002 69.5688 255.002H310.337C310.472 255.002 310.601 255.055 310.696 255.15C310.791 255.246 310.844 255.375 310.844 255.509C310.844 255.644 310.791 255.773 310.696 255.868C310.601 255.963 310.472 256.017 310.337 256.017Z" fill="#F2F1F1"/>
<path d="M310.337 285.807H69.5688C69.4342 285.807 69.3051 285.754 69.21 285.658C69.1148 285.563 69.0613 285.434 69.0613 285.3C69.0613 285.165 69.1148 285.036 69.21 284.941C69.3051 284.846 69.4342 284.792 69.5688 284.792H310.337C310.472 284.792 310.601 284.846 310.696 284.941C310.791 285.036 310.844 285.165 310.844 285.3C310.844 285.434 310.791 285.563 310.696 285.658C310.601 285.754 310.472 285.807 310.337 285.807Z" fill="#F2F1F1"/>
<path d="M329.023 289.786H69.5688C68.6266 289.786 67.723 289.412 67.0568 288.745C66.3906 288.079 66.0163 287.176 66.0163 286.233V122.818C66.0163 121.876 66.3906 120.973 67.0568 120.306C67.723 119.64 68.6266 119.266 69.5688 119.266C70.511 119.266 71.4146 119.64 72.0808 120.306C72.747 120.973 73.1213 121.876 73.1213 122.818V282.681H329.023C329.965 282.681 330.869 283.055 331.535 283.721C332.201 284.388 332.576 285.291 332.576 286.233C332.576 287.176 332.201 288.079 331.535 288.745C330.869 289.412 329.965 289.786 329.023 289.786Z" fill="#484646"/>
<path d="M101.795 262.005C105.383 262.005 108.291 259.097 108.291 255.509C108.291 251.922 105.383 249.013 101.795 249.013C98.2074 249.013 95.2991 251.922 95.2991 255.509C95.2991 259.097 98.2074 262.005 101.795 262.005Z" fill="#FF931E"/>
<path d="M163.304 234.56C166.892 234.56 169.8 231.651 169.8 228.064C169.8 224.476 166.892 221.568 163.304 221.568C159.716 221.568 156.808 224.476 156.808 228.064C156.808 231.651 159.716 234.56 163.304 234.56Z" fill="#FF931E"/>
<path d="M161.376 170.391C164.963 170.391 167.872 167.483 167.872 163.895C167.872 160.308 164.963 157.399 161.376 157.399C157.788 157.399 154.88 160.308 154.88 163.895C154.88 167.483 157.788 170.391 161.376 170.391Z" fill="#484646"/>
<path d="M220.966 159.064C224.554 159.064 227.462 156.156 227.462 152.568C227.462 148.98 224.554 146.072 220.966 146.072C217.379 146.072 214.47 148.98 214.47 152.568C214.47 156.156 217.379 159.064 220.966 159.064Z" fill="#484646"/>
<path d="M278.953 176.887C282.541 176.887 285.449 173.979 285.449 170.391C285.449 166.804 282.541 163.895 278.953 163.895C275.366 163.895 272.457 166.804 272.457 170.391C272.457 173.979 275.366 176.887 278.953 176.887Z" fill="#484646"/>
<path d="M101.795 202.415C105.383 202.415 108.291 199.506 108.291 195.919C108.291 192.331 105.383 189.423 101.795 189.423C98.2074 189.423 95.2991 192.331 95.2991 195.919C95.2991 199.506 98.2074 202.415 101.795 202.415Z" fill="#484646"/>
<path d="M220.966 262.005C224.554 262.005 227.462 259.097 227.462 255.509C227.462 251.922 224.554 249.013 220.966 249.013C217.379 249.013 214.47 251.922 214.47 255.509C214.47 259.097 217.379 262.005 220.966 262.005Z" fill="#FF931E"/>
<path d="M280.547 202.415C284.134 202.415 287.043 199.506 287.043 195.919C287.043 192.331 284.134 189.423 280.547 189.423C276.959 189.423 274.051 192.331 274.051 195.919C274.051 199.506 276.959 202.415 280.547 202.415Z" fill="#FF931E"/>
<path d="M220.966 257.539C220.664 257.538 220.366 257.468 220.093 257.336L163.253 230.287L99.5012 256.737C99.2525 256.856 98.9824 256.923 98.7071 256.934C98.4319 256.944 98.1574 256.899 97.9002 256.8C97.643 256.702 97.4086 256.552 97.2113 256.36C97.0139 256.167 96.8578 255.937 96.7523 255.683C96.6468 255.428 96.5942 255.155 96.5976 254.879C96.6011 254.604 96.6606 254.332 96.7725 254.081C96.8844 253.829 97.0463 253.603 97.2484 253.415C97.4505 253.228 97.6886 253.084 97.9482 252.992L162.522 226.176C162.786 226.068 163.07 226.016 163.355 226.025C163.64 226.034 163.92 226.102 164.177 226.227L220.54 253.053L279.095 194.488C279.284 194.299 279.508 194.149 279.754 194.047C280.001 193.945 280.265 193.893 280.531 193.893C280.798 193.893 281.062 193.945 281.309 194.047C281.555 194.149 281.779 194.299 281.968 194.488C282.156 194.676 282.306 194.9 282.408 195.146C282.51 195.393 282.563 195.657 282.563 195.924C282.563 196.19 282.51 196.455 282.408 196.701C282.306 196.947 282.156 197.171 281.968 197.36L222.377 256.94C222.003 257.317 221.497 257.532 220.966 257.539Z" fill="#FF931E"/>
<path d="M101.795 197.959C101.34 197.963 100.896 197.814 100.536 197.536C100.175 197.258 99.9186 196.867 99.8073 196.425C99.6961 195.983 99.7365 195.517 99.9221 195.101C100.108 194.686 100.428 194.344 100.831 194.132L160.421 162.109C160.606 162.011 160.805 161.943 161.01 161.906L222.377 150.579C222.715 150.512 223.064 150.533 223.392 150.64L279.603 168.463C279.865 168.536 280.11 168.662 280.323 168.832C280.536 169.002 280.713 169.213 280.843 169.453C280.972 169.693 281.052 169.956 281.078 170.228C281.103 170.499 281.074 170.773 280.992 171.033C280.909 171.292 280.775 171.533 280.598 171.74C280.42 171.947 280.203 172.116 279.959 172.237C279.714 172.358 279.448 172.429 279.176 172.445C278.904 172.461 278.631 172.422 278.375 172.33L222.641 154.659L162.096 165.824L102.759 197.756C102.459 197.902 102.128 197.971 101.795 197.959Z" fill="#484646"/>
<path d="M77.0291 127.904H62.0984C61.7283 127.916 61.3618 127.827 61.0387 127.646C60.7155 127.465 60.4479 127.199 60.265 126.878C60.0821 126.556 59.9907 126.19 60.0008 125.819C60.0108 125.449 60.122 125.089 60.3222 124.777L67.7926 112.273C67.9689 111.958 68.2259 111.696 68.5372 111.513C68.8486 111.331 69.2029 111.234 69.5637 111.234C69.9246 111.234 70.2789 111.331 70.5902 111.513C70.9015 111.696 71.1586 111.958 71.3349 112.273L78.8053 124.777C79.0055 125.089 79.1166 125.449 79.1267 125.819C79.1368 126.19 79.0454 126.556 78.8625 126.878C78.6795 127.199 78.412 127.465 78.0888 127.646C77.7657 127.827 77.3992 127.916 77.0291 127.904Z" fill="#484646"/>
<path d="M322.994 293.704V278.763C322.982 278.393 323.071 278.026 323.251 277.703C323.432 277.38 323.698 277.112 324.02 276.93C324.342 276.747 324.708 276.655 325.078 276.665C325.448 276.675 325.809 276.787 326.12 276.987L338.615 284.457C338.93 284.633 339.192 284.89 339.374 285.202C339.557 285.513 339.653 285.867 339.653 286.228C339.653 286.589 339.557 286.943 339.374 287.255C339.192 287.566 338.93 287.823 338.615 287.999L326.12 295.47C325.809 295.669 325.45 295.781 325.081 295.791C324.711 295.801 324.346 295.711 324.025 295.529C323.703 295.348 323.437 295.082 323.255 294.76C323.074 294.438 322.983 294.073 322.994 293.704Z" fill="#484646"/>
<path d="M188.902 104H143.654C142.36 104.003 141.119 104.518 140.204 105.433C139.289 106.348 138.774 107.588 138.771 108.882V136.399C138.771 137.695 139.286 138.938 140.201 139.855C141.116 140.772 142.358 141.289 143.654 141.291H148.028L157.59 151.797V141.291H188.902C189.549 141.298 190.19 141.176 190.789 140.933C191.387 140.69 191.932 140.331 192.391 139.876C192.85 139.421 193.214 138.879 193.462 138.282C193.71 137.685 193.837 137.045 193.835 136.399V108.882C193.835 108.237 193.707 107.598 193.459 107.002C193.21 106.407 192.846 105.866 192.387 105.412C191.929 104.958 191.384 104.6 190.786 104.357C190.188 104.115 189.548 103.994 188.902 104Z" fill="#FF931E"/>
<path d="M322.385 228.551H285.185L277.613 216.026V228.581H277.289C276.007 228.581 274.778 229.09 273.872 229.996C272.966 230.903 272.457 232.131 272.457 233.413V264.685C272.46 265.965 272.97 267.191 273.876 268.095C274.782 268.999 276.009 269.506 277.289 269.506H322.385C323.665 269.506 324.892 268.999 325.798 268.095C326.704 267.191 327.214 265.965 327.216 264.685V233.382C327.216 232.101 326.707 230.872 325.801 229.966C324.895 229.06 323.666 228.551 322.385 228.551Z" fill="#FF931E"/>
<path d="M184.193 116.485H148.373C148.239 116.485 148.11 116.431 148.015 116.336C147.919 116.241 147.866 116.112 147.866 115.977C147.866 115.843 147.919 115.714 148.015 115.618C148.11 115.523 148.239 115.47 148.373 115.47H184.193C184.327 115.47 184.456 115.523 184.552 115.618C184.647 115.714 184.7 115.843 184.7 115.977C184.698 116.111 184.643 116.239 184.549 116.333C184.454 116.428 184.327 116.482 184.193 116.485Z" fill="white"/>
<path d="M176.184 126.706H148.373C148.239 126.706 148.11 126.652 148.015 126.557C147.919 126.462 147.866 126.333 147.866 126.198C147.866 126.064 147.919 125.935 148.015 125.839C148.11 125.744 148.239 125.691 148.373 125.691H176.184C176.319 125.691 176.448 125.744 176.543 125.839C176.638 125.935 176.692 126.064 176.692 126.198C176.692 126.333 176.638 126.462 176.543 126.557C176.448 126.652 176.319 126.706 176.184 126.706Z" fill="white"/>
<path d="M317.746 244.446H281.927C281.793 244.443 281.666 244.389 281.571 244.294C281.476 244.2 281.422 244.072 281.42 243.938C281.42 243.804 281.473 243.675 281.568 243.579C281.663 243.484 281.793 243.431 281.927 243.431H317.746C317.881 243.431 318.01 243.484 318.105 243.579C318.201 243.675 318.254 243.804 318.254 243.938C318.254 244.005 318.241 244.071 318.215 244.133C318.19 244.194 318.152 244.25 318.105 244.297C318.058 244.344 318.002 244.382 317.941 244.407C317.879 244.433 317.813 244.446 317.746 244.446Z" fill="white"/>
<path d="M309.748 254.596H281.927C281.793 254.593 281.666 254.539 281.571 254.444C281.476 254.35 281.422 254.222 281.42 254.088C281.42 253.954 281.473 253.825 281.568 253.729C281.663 253.634 281.793 253.581 281.927 253.581H309.748C309.883 253.581 310.012 253.634 310.107 253.729C310.202 253.825 310.256 253.954 310.256 254.088C310.253 254.222 310.199 254.35 310.104 254.444C310.01 254.539 309.882 254.593 309.748 254.596Z" fill="white"/>
</svg>
