<svg width="150" height="150" viewBox="0 0 150 150" fill="none" xmlns="http://www.w3.org/2000/svg">
<g clip-path="url(#clip0_1232_26761)">
<path d="M103.663 40.9465L46.9432 33.6296C46.7904 33.6097 46.6365 33.5996 46.4825 33.5993C46.3306 33.599 46.1789 33.6087 46.0283 33.6283C45.878 33.6479 45.7291 33.6774 45.5825 33.7166C45.4343 33.7567 45.2887 33.8064 45.1468 33.8654C45.0077 33.9231 44.8723 33.9894 44.7412 34.0638C44.6083 34.1387 44.4799 34.2215 44.3566 34.3118C44.2306 34.4044 44.1098 34.5041 43.9949 34.6106C43.8763 34.7201 43.7635 34.836 43.6572 34.9578C43.548 35.0831 43.4453 35.2141 43.3494 35.3501C43.2525 35.4878 43.1616 35.631 43.0766 35.7798C42.9916 35.9291 42.9128 36.0843 42.8401 36.2455C42.7674 36.4067 42.701 36.5734 42.6411 36.7455C42.579 36.9234 42.5246 37.1052 42.4779 37.291C42.4311 37.4768 42.3921 37.6659 42.3607 37.8582C42.33 38.0503 42.3065 38.2455 42.2901 38.4439C42.2738 38.6423 42.2656 38.8431 42.2656 39.0462C42.2663 39.2493 42.2744 39.4516 42.2901 39.6533C42.3058 39.855 42.3294 40.055 42.3607 40.2534C42.3924 40.4526 42.4316 40.6499 42.4783 40.8451C42.5251 41.0404 42.5795 41.2334 42.6416 41.4242C42.7015 41.6085 42.7679 41.7886 42.8406 41.9645C42.9133 42.1406 42.9921 42.3119 43.0771 42.4783C43.162 42.6448 43.253 42.8065 43.3499 42.9634C43.4466 43.1209 43.5492 43.2725 43.6577 43.4182C43.7662 43.5638 43.8787 43.7028 43.9954 43.835C44.1121 43.9665 44.2326 44.0905 44.3571 44.207C44.4816 44.3236 44.6098 44.4324 44.7417 44.5336C44.8721 44.6338 45.0075 44.7271 45.1473 44.8133C45.2881 44.9003 45.4335 44.9792 45.583 45.0497C45.728 45.118 45.8769 45.1777 46.0288 45.2285C46.1776 45.2782 46.3293 45.3187 46.483 45.3497C46.6351 45.3804 46.789 45.4015 46.9437 45.413L103.663 49.611C103.828 49.6232 103.994 49.6064 104.154 49.5614C104.235 49.5386 104.314 49.5091 104.39 49.4732C104.47 49.4357 104.546 49.3921 104.62 49.343C104.694 49.2931 104.765 49.2385 104.832 49.1793C104.902 49.1172 104.969 49.051 105.032 48.9809C105.098 48.9069 105.161 48.8294 105.219 48.7488C105.279 48.6658 105.337 48.5774 105.393 48.4835C105.448 48.3896 105.501 48.2916 105.55 48.1896C105.6 48.0876 105.646 47.9816 105.689 47.8717C105.733 47.7619 105.773 47.6483 105.809 47.531C105.846 47.4136 105.88 47.2927 105.91 47.1684C105.942 47.0398 105.969 46.9089 105.992 46.7756C106.015 46.6424 106.035 46.5071 106.051 46.3699C106.067 46.2327 106.079 46.0937 106.087 45.9528C106.095 45.812 106.099 45.6695 106.099 45.5255C106.098 45.3817 106.094 45.2385 106.087 45.096C106.079 44.9535 106.068 44.8121 106.051 44.6717C106.035 44.5314 106.016 44.3922 105.992 44.2541C105.969 44.1161 105.941 43.9795 105.91 43.8445C105.88 43.7139 105.846 43.5862 105.809 43.4616C105.773 43.3386 105.733 43.2174 105.689 43.098C105.646 42.9787 105.599 42.8629 105.55 42.7509C105.501 42.6389 105.448 42.5303 105.393 42.425C105.337 42.3197 105.279 42.2195 105.219 42.1244C105.159 42.0294 105.096 41.9393 105.032 41.8541C104.967 41.769 104.901 41.6893 104.832 41.6151C104.765 41.5424 104.694 41.4733 104.62 41.4083C104.547 41.3445 104.47 41.2855 104.39 41.2315C104.314 41.1804 104.235 41.1349 104.154 41.0951C104.075 41.057 103.994 41.0252 103.911 40.9998C103.83 40.9752 103.747 40.9574 103.663 40.9465" fill="#03DAC5"/>
<path d="M103.663 57.4491L46.9432 56.0745C46.6355 56.0668 46.3281 56.0985 46.0283 56.169C45.8771 56.2046 45.7282 56.2497 45.5825 56.3041C45.4336 56.3597 45.2881 56.4243 45.1468 56.4975C45.0073 56.5699 44.8719 56.65 44.7412 56.7376C44.608 56.8268 44.4796 56.9233 44.3566 57.0265C44.2305 57.1324 44.1097 57.2448 43.9949 57.3633C43.8781 57.4836 43.7655 57.6116 43.6572 57.7471C43.5489 57.883 43.4463 58.0246 43.3494 58.1719C43.2525 58.3192 43.1615 58.472 43.0766 58.6302C42.9916 58.7884 42.9128 58.9519 42.8401 59.1207C42.7674 59.2895 42.701 59.4631 42.6411 59.6415C42.579 59.8261 42.5246 60.0138 42.4779 60.2044C42.4311 60.395 42.3921 60.5881 42.3607 60.7837C42.33 60.9792 42.3065 61.1771 42.2901 61.3771C42.2738 61.5771 42.2656 61.7787 42.2656 61.9819C42.2663 62.1851 42.2744 62.3866 42.2901 62.5865C42.3058 62.7864 42.3293 62.984 42.3607 63.1794C42.3924 63.3739 42.4316 63.5662 42.4783 63.7565C42.5251 63.9468 42.5795 64.1341 42.6416 64.3184C42.7015 64.4973 42.7679 64.6709 42.8406 64.8392C42.9133 65.0075 42.9921 65.1705 43.0771 65.3282C43.162 65.4859 43.253 65.6381 43.3498 65.7847C43.4466 65.9309 43.5492 66.0714 43.6577 66.2063C43.7662 66.3412 43.8787 66.4684 43.9954 66.588C44.1102 66.7057 44.2309 66.8173 44.3571 66.9225C44.4801 67.0249 44.6085 67.1205 44.7417 67.2089C44.8724 67.2956 45.0078 67.3748 45.1473 67.4462C45.2886 67.5186 45.4341 67.5823 45.583 67.6369C45.7287 67.6903 45.8776 67.7345 46.0288 67.7691C46.1785 67.8036 46.3302 67.8284 46.4829 67.8435C46.6361 67.8583 46.79 67.8634 46.9437 67.8586L103.663 66.1126C103.746 66.11 103.829 66.1003 103.911 66.0836C103.994 66.0666 104.075 66.0428 104.154 66.0124C104.235 65.9808 104.314 65.943 104.39 65.8993C104.47 65.8533 104.547 65.8017 104.62 65.7451C104.694 65.6874 104.765 65.6252 104.832 65.5591C104.902 65.4896 104.969 65.4165 105.032 65.3399C105.096 65.2618 105.159 65.1779 105.219 65.0882C105.279 64.9984 105.337 64.9039 105.393 64.8047C105.448 64.7049 105.501 64.6014 105.55 64.4942C105.6 64.3871 105.646 64.2763 105.689 64.1619C105.733 64.0457 105.773 63.9274 105.809 63.8071C105.846 63.6867 105.88 63.5627 105.91 63.4351C105.942 63.3045 105.969 63.1713 105.992 63.0356C106.015 62.8999 106.035 62.7626 106.051 62.6237C106.067 62.4843 106.079 62.3438 106.087 62.2021C106.095 62.0605 106.099 61.9176 106.099 61.7736C106.098 61.631 106.094 61.4885 106.087 61.3461C106.079 61.2038 106.068 61.0632 106.051 60.9245C106.035 60.7853 106.016 60.6482 105.992 60.5131C105.969 60.3781 105.941 60.2444 105.91 60.1121C105.879 59.9845 105.846 59.8602 105.809 59.7392C105.772 59.6182 105.732 59.5006 105.689 59.3866C105.646 59.2725 105.6 59.162 105.551 59.055C105.501 58.948 105.448 58.845 105.393 58.7458C105.337 58.6464 105.279 58.5522 105.219 58.4631C105.159 58.374 105.097 58.2904 105.032 58.2124C104.969 58.1361 104.903 58.0634 104.832 57.9944C104.765 57.9287 104.694 57.8671 104.62 57.8099C104.547 57.7537 104.47 57.7026 104.39 57.6571C104.314 57.614 104.235 57.5769 104.154 57.546C104.075 57.5161 103.994 57.4928 103.911 57.4763C103.829 57.4602 103.746 57.451 103.663 57.4491Z" fill="#E4E4E4"/>
<path d="M103.663 72.9199L46.9432 77.1173C46.7885 77.1287 46.6346 77.1498 46.4825 77.1805C46.3288 77.2116 46.1771 77.2521 46.0283 77.3018C45.8764 77.3525 45.7275 77.4122 45.5825 77.4806C45.433 77.5511 45.2876 77.63 45.1468 77.7169C45.007 77.8031 44.8716 77.8965 44.7412 77.9966C44.6092 78.0986 44.481 78.2075 44.3566 78.3232C44.2323 78.4394 44.1117 78.5634 43.9949 78.6952C43.8781 78.8269 43.7655 78.9659 43.6572 79.112C43.5489 79.2587 43.4463 79.4104 43.3494 79.5673C43.2525 79.7242 43.1616 79.8859 43.0766 80.0524C42.9916 80.219 42.9128 80.3903 42.8401 80.5662C42.7674 80.7421 42.701 80.9222 42.6411 81.1066C42.579 81.297 42.5246 81.49 42.4779 81.6856C42.4311 81.8812 42.3921 82.0782 42.3607 82.2766C42.33 82.4753 42.3065 82.6754 42.2901 82.8769C42.2738 83.0785 42.2656 83.2808 42.2656 83.484C42.2663 83.6872 42.2744 83.8879 42.2901 84.0863C42.3058 84.2847 42.3294 84.48 42.3607 84.6723C42.3924 84.8651 42.4316 85.0542 42.4783 85.2397C42.5251 85.4252 42.5795 85.607 42.6416 85.7853C42.7015 85.9575 42.7679 86.1242 42.8406 86.2852C42.9133 86.4464 42.9921 86.6016 43.0771 86.7509C43.162 86.9002 43.253 87.0434 43.3499 87.1807C43.4458 87.3167 43.5485 87.4476 43.6577 87.573C43.764 87.6947 43.8768 87.8106 43.9954 87.9201C44.1103 88.0266 44.2311 88.1264 44.3571 88.219C44.4804 88.3092 44.6088 88.392 44.7417 88.4669C44.8728 88.5413 45.0082 88.6076 45.1473 88.6653C45.2892 88.7244 45.4348 88.7741 45.583 88.8141C45.7296 88.8534 45.8785 88.8828 46.0288 88.9024C46.1794 88.922 46.3311 88.9317 46.483 88.9314C46.637 88.9311 46.7909 88.921 46.9437 88.9012L103.663 81.5859C103.747 81.5751 103.83 81.5572 103.911 81.5326C103.994 81.5072 104.075 81.4754 104.154 81.4374C104.235 81.3976 104.314 81.352 104.39 81.301C104.47 81.247 104.547 81.1879 104.62 81.1242C104.694 81.0591 104.765 80.9901 104.832 80.9174C104.9 80.843 104.967 80.7633 105.032 80.6783C105.096 80.5933 105.159 80.5032 105.219 80.408C105.279 80.3128 105.337 80.2126 105.393 80.1075C105.448 80.003 105.501 79.8944 105.55 79.7816C105.6 79.6689 105.646 79.5531 105.689 79.4344C105.733 79.3152 105.773 79.1933 105.809 79.0687C105.846 78.944 105.88 78.8164 105.91 78.6858C105.942 78.5505 105.969 78.4139 105.992 78.2759C106.015 78.1378 106.035 77.9986 106.051 77.8583C106.067 77.7179 106.079 77.5765 106.087 77.434C106.095 77.2915 106.099 77.1482 106.099 77.0042C106.098 76.861 106.094 76.719 106.086 76.5782C106.079 76.4373 106.067 76.2983 106.051 76.1611C106.035 76.0234 106.016 75.8879 105.992 75.7546C105.969 75.6214 105.941 75.4904 105.91 75.3618C105.88 75.2373 105.846 75.1165 105.809 74.9993C105.773 74.882 105.733 74.7685 105.689 74.6585C105.646 74.5486 105.6 74.4426 105.551 74.3406C105.501 74.2394 105.448 74.1417 105.392 74.0475C105.336 73.9533 105.279 73.8648 105.218 73.7822C105.16 73.7015 105.098 73.624 105.031 73.55C104.969 73.48 104.902 73.4138 104.831 73.3517C104.764 73.2925 104.693 73.2378 104.619 73.188C104.546 73.1388 104.469 73.0953 104.39 73.0578C104.313 73.0219 104.234 72.9923 104.153 72.9695C103.994 72.9245 103.828 72.9078 103.663 72.9199" fill="#E4E4E4"/>
<path d="M72.7474 73.689C73.1067 74.2934 73.6728 74.7433 74.3383 74.9533C75.0039 75.1632 75.7224 75.1186 76.3575 74.8279C76.9926 74.5371 77.5001 74.0206 77.7837 73.3762C78.0673 72.7318 78.1071 72.0045 77.8957 71.3324L88.8885 48.4808L83.6266 45.2532L74.133 69.5262C74.0967 69.5405 74.061 69.5554 74.0258 69.5711C73.9906 69.5867 73.9556 69.603 73.9206 69.6201C73.8857 69.6371 73.8511 69.655 73.8167 69.6738C73.7823 69.6926 73.7481 69.7124 73.7142 69.7331C73.0677 70.128 72.6026 70.7665 72.4212 71.5083C72.2399 72.2501 72.3571 73.0344 72.7472 73.6887L72.7474 73.689Z" fill="#9E616A"/>
<path d="M86.7899 57.2925L78.9805 55.2672C78.9805 55.2672 79.2354 54.684 79.6498 53.7178C80.0642 52.7516 80.6432 51.4042 81.2946 49.8746C81.9459 48.3449 82.6685 46.6357 83.3743 44.9462C84.0802 43.2567 84.7666 41.5874 85.3447 40.1405C85.9229 38.6937 86.5796 37.8271 87.2397 37.3415C87.7861 36.9213 88.4742 36.7362 89.1546 36.8264C89.6834 36.9061 90.1889 37.1008 90.6362 37.3971C90.848 37.5304 91.0471 37.6833 91.231 37.8539L93.0417 41.1857L86.7899 57.2925Z" fill="#CCCCCC"/>
<path d="M24.2915 55.4828C24.1024 55.4969 23.9142 55.5218 23.7278 55.5572C23.5402 55.5927 23.3547 55.6388 23.1722 55.6951C22.9869 55.7523 22.8048 55.8197 22.6267 55.8969C22.4444 55.9759 22.2663 56.0645 22.0931 56.1623C21.9237 56.2587 21.7581 56.3635 21.5963 56.4767C21.4346 56.59 21.2775 56.7116 21.1251 56.8417C20.9728 56.9715 20.825 57.1099 20.6817 57.2569C20.5384 57.4038 20.4004 57.5588 20.2675 57.7218C20.1347 57.8848 20.0088 58.0537 19.8899 58.2285C19.7709 58.4032 19.6593 58.5832 19.5551 58.7686C19.4518 58.9542 19.3552 59.1449 19.2654 59.3406C19.1755 59.5364 19.0938 59.7367 19.0203 59.9415C18.9437 60.1539 18.8766 60.3686 18.8191 60.5855C18.7616 60.8024 18.7136 61.0211 18.6752 61.2417C18.6367 61.4622 18.6078 61.6842 18.5885 61.9078C18.5692 62.1313 18.5596 62.3557 18.5596 62.581C18.5596 62.8064 18.5692 63.0288 18.5885 63.2484C18.6078 63.4679 18.6367 63.6841 18.6752 63.8968C18.7136 64.1096 18.7616 64.3186 18.8191 64.5237C18.8766 64.7289 18.9434 64.9298 19.0196 65.1266C19.0938 65.3165 19.1754 65.5003 19.2647 65.6778C19.3528 65.8536 19.4497 66.0247 19.5548 66.1907C19.6583 66.3534 19.7701 66.5107 19.8896 66.6618C20.008 66.812 20.1341 66.9558 20.2675 67.0926C20.3987 67.227 20.537 67.3542 20.6817 67.4735C20.8235 67.5903 20.9715 67.699 21.1253 67.7991C21.4287 67.9967 21.7535 68.1584 22.0934 68.2812C22.4417 68.4071 22.8038 68.4904 23.1717 68.5292C23.3563 68.5484 23.5418 68.5567 23.7273 68.554C23.9158 68.5513 24.104 68.5378 24.291 68.5135C24.4797 68.4892 24.6669 68.4544 24.8517 68.4091C25.0372 68.3637 25.22 68.3082 25.3995 68.2427C25.581 68.1765 25.7589 68.1006 25.9325 68.0153C26.1094 67.9285 26.2819 67.8327 26.4492 67.7282C26.6121 67.6253 26.7707 67.5151 26.9251 67.3974C27.0795 67.2796 27.2291 67.1542 27.3738 67.0209C27.5186 66.8877 27.6584 66.7472 27.7932 66.5994C27.928 66.4516 28.0575 66.2965 28.1819 66.1341C28.307 65.972 28.4248 65.8049 28.5353 65.633C28.6457 65.461 28.7491 65.2845 28.8456 65.1035C28.9419 64.9225 29.0312 64.7373 29.1132 64.5478C29.1952 64.3583 29.2699 64.1649 29.3374 63.9675C29.4074 63.7632 29.4685 63.5571 29.521 63.3493C29.5734 63.1415 29.6172 62.9322 29.6524 62.7214C29.6873 62.5104 29.7136 62.2984 29.7313 62.0853C29.7489 61.8722 29.7577 61.6582 29.7577 61.4433C29.7576 61.2284 29.7488 61.0161 29.7313 60.8065C29.7138 60.5969 29.6875 60.3902 29.6524 60.1865C29.6174 59.9832 29.5736 59.7828 29.521 59.5854C29.4684 59.388 29.4072 59.1943 29.3374 59.0044C29.2696 58.8206 29.1949 58.6423 29.1132 58.4695C29.0303 58.2972 28.9407 58.1301 28.8443 57.9681C28.6535 57.6479 28.4316 57.3477 28.1819 57.0721C28.0593 56.9365 27.9299 56.8075 27.7942 56.6855C27.6605 56.5658 27.5205 56.4535 27.3748 56.349C27.2306 56.2456 27.0808 56.1503 26.9261 56.0636C26.7715 55.9769 26.6123 55.8991 26.4492 55.8305C26.1123 55.6885 25.7601 55.5874 25.3997 55.5292C25.2184 55.4999 25.0355 55.4814 24.852 55.4739C24.665 55.4662 24.4778 55.4694 24.2912 55.4833" fill="#E4E4E4"/>
<path d="M24.2915 78.7932C24.1024 78.8073 23.9142 78.8321 23.7278 78.8676C23.5402 78.9031 23.3547 78.9491 23.1722 79.0054C22.9869 79.0627 22.8048 79.1301 22.6267 79.2073C22.4444 79.2863 22.2663 79.3748 22.0931 79.4726C21.9237 79.569 21.7581 79.6738 21.5963 79.7871C21.4346 79.9003 21.2775 80.022 21.1251 80.1521C20.9728 80.2819 20.825 80.4203 20.6817 80.5672C20.5384 80.7142 20.4004 80.8692 20.2675 81.0322C20.1347 81.1952 20.0088 81.3641 19.8899 81.5388C19.7709 81.7136 19.6593 81.8936 19.5551 82.0789C19.4518 82.2646 19.3552 82.4553 19.2654 82.651C19.1755 82.8467 19.0938 83.047 19.0203 83.2519C18.9437 83.4643 18.8766 83.679 18.8191 83.8959C18.7616 84.1128 18.7136 84.3315 18.6752 84.552C18.6367 84.7726 18.6078 84.9946 18.5885 85.2181C18.5692 85.4416 18.5596 85.6661 18.5596 85.8914C18.5596 86.1167 18.5692 86.3392 18.5885 86.5587C18.6078 86.7783 18.6367 86.9944 18.6752 87.2072C18.7136 87.42 18.7616 87.6289 18.8191 87.8341C18.8766 88.0393 18.9434 88.2402 19.0196 88.4369C19.0938 88.6269 19.1754 88.8106 19.2647 88.9882C19.3528 89.164 19.4497 89.3351 19.5548 89.501C19.6583 89.6638 19.7701 89.8211 19.8896 89.9722C20.008 90.1224 20.1341 90.2662 20.2675 90.4029C20.3987 90.5374 20.537 90.6645 20.6817 90.7839C20.8235 90.9007 20.9715 91.0094 21.1253 91.1095C21.4287 91.307 21.7535 91.4688 22.0934 91.5915C22.4417 91.7175 22.8038 91.8007 23.1717 91.8395C23.3563 91.8588 23.5418 91.8671 23.7273 91.8643C23.9158 91.8616 24.104 91.8481 24.291 91.8239C24.4797 91.7996 24.6669 91.7647 24.8517 91.7195C25.0372 91.6741 25.22 91.6186 25.3995 91.5531C25.581 91.4868 25.7589 91.4109 25.9325 91.3257C26.1094 91.2389 26.2819 91.143 26.4492 91.0385C26.6121 90.9357 26.7707 90.8254 26.9251 90.7077C27.0795 90.59 27.2291 90.4645 27.3738 90.3313C27.5186 90.198 27.6584 90.0575 27.7932 89.9097C27.928 89.7619 28.0575 89.6068 28.1819 89.4445C28.307 89.2823 28.4248 89.1153 28.5353 88.9433C28.6457 88.7714 28.7491 88.5949 28.8456 88.4139C28.9419 88.2329 29.0312 88.0476 29.1132 87.8582C29.1952 87.6687 29.2699 87.4753 29.3374 87.2779C29.4074 87.0735 29.4685 86.8675 29.521 86.6597C29.5734 86.4518 29.6172 86.2425 29.6524 86.0318C29.6873 85.8208 29.7136 85.6088 29.7313 85.3957C29.7489 85.1826 29.7577 84.9686 29.7577 84.7537C29.7576 84.5387 29.7488 84.3265 29.7313 84.1168C29.7138 83.9072 29.6875 83.7006 29.6524 83.4969C29.6174 83.2935 29.5736 83.0932 29.521 82.8958C29.4684 82.6984 29.4072 82.5047 29.3374 82.3148C29.2696 82.1309 29.1949 81.9526 29.1132 81.7799C29.0303 81.6076 28.9407 81.4405 28.8443 81.2784C28.6535 80.9582 28.4316 80.6581 28.1819 80.3825C28.0593 80.2469 27.9299 80.1179 27.7942 79.9959C27.6605 79.8762 27.5205 79.7638 27.3748 79.6594C27.2306 79.5559 27.0808 79.4606 26.9261 79.3739C26.7715 79.2873 26.6123 79.2095 26.4492 79.1408C26.1123 78.9989 25.7601 78.8977 25.3997 78.8395C25.2184 78.8103 25.0355 78.7918 24.852 78.7842C24.665 78.7766 24.4778 78.7797 24.2912 78.7936" fill="#E4E4E4"/>
<path d="M24.2925 30.2302C24.1044 30.2256 23.9162 30.2318 23.7289 30.2488C23.5422 30.2658 23.3567 30.2936 23.1733 30.3321C22.9888 30.3711 22.8066 30.4208 22.6277 30.4809C22.4461 30.5418 22.2679 30.6129 22.0942 30.6939C21.9241 30.7732 21.7583 30.8615 21.5974 30.9585C21.4349 31.0565 21.2776 31.1629 21.1261 31.2774C20.9721 31.3938 20.8241 31.5179 20.6825 31.6494C20.5386 31.7831 20.4003 31.9249 20.2676 32.0747C20.1348 32.2246 20.0089 32.3812 19.8899 32.5444C19.771 32.7075 19.6594 32.8767 19.5552 33.0517C19.4514 33.2291 19.3546 33.4109 19.2647 33.597C19.1749 33.7832 19.0932 33.9755 19.0197 34.1739C18.9435 34.3783 18.8767 34.5862 18.8192 34.7975C18.7617 35.0088 18.7137 35.2228 18.6753 35.4396C18.6368 35.657 18.6078 35.8762 18.5886 36.0972C18.5693 36.3182 18.5596 36.5414 18.5596 36.7668C18.5596 36.9918 18.5693 37.2149 18.5886 37.4363C18.6078 37.6577 18.6367 37.8766 18.6753 38.0932C18.7137 38.3098 18.7617 38.5235 18.8192 38.7343C18.8767 38.945 18.9435 39.1525 19.0197 39.3567C19.0938 39.5539 19.1755 39.7457 19.2647 39.932C19.3546 40.1177 19.4516 40.2978 19.5559 40.4724C19.6601 40.6469 19.7717 40.8153 19.8907 40.9775C20.0094 41.1402 20.1353 41.2959 20.2683 41.4447C20.4013 41.5935 20.5394 41.734 20.6825 41.8663C20.8233 41.9973 20.9707 42.1209 21.1239 42.2368C21.2754 42.3502 21.4328 42.4556 21.5952 42.5524C21.7561 42.6484 21.9219 42.7357 22.092 42.8138C22.2658 42.8937 22.4439 42.9637 22.6255 43.0234C22.9828 43.1404 23.3523 43.2152 23.7266 43.2465C24.1014 43.278 24.4786 43.2664 24.8508 43.2121C25.0354 43.1851 25.2182 43.1475 25.3986 43.0995C25.5794 43.0513 25.7573 42.9928 25.9316 42.9244C26.108 42.8552 26.2804 42.7763 26.4482 42.6881C26.6119 42.6021 26.7711 42.5076 26.9252 42.4051C27.0802 42.302 27.2299 42.191 27.3739 42.0726C27.5187 41.9536 27.6584 41.8268 27.7932 41.6922C27.928 41.5576 28.0576 41.4153 28.1819 41.2652C28.3071 41.115 28.4249 40.9595 28.5353 40.7985C28.6458 40.6374 28.7492 40.4711 28.8456 40.2995C28.9423 40.1279 29.0316 39.9514 29.1132 39.7701C29.1949 39.5887 29.2697 39.403 29.3375 39.2129C29.4074 39.0155 29.4686 38.8154 29.5211 38.6127C29.5735 38.4101 29.6173 38.2051 29.6524 37.9977C29.6874 37.7896 29.7137 37.5798 29.7313 37.3684C29.749 37.1569 29.7578 36.9437 29.7578 36.7288C29.7576 36.5141 29.7488 36.301 29.7313 36.0895C29.7139 35.8781 29.6876 35.6689 29.6524 35.4619C29.6175 35.2547 29.5737 35.0499 29.5211 34.8474C29.4685 34.6449 29.4073 34.4451 29.3375 34.2482C29.2697 34.058 29.1949 33.8724 29.1132 33.6915C29.0316 33.5107 28.9419 33.3345 28.8444 33.1631C28.748 32.9931 28.6446 32.8278 28.5341 32.6671C28.4237 32.5064 28.3063 32.3517 28.1819 32.2029C28.0584 32.0543 27.9292 31.913 27.7942 31.7791C27.6593 31.6452 27.5195 31.5193 27.3749 31.4014C27.231 31.2837 27.0813 31.1735 26.9264 31.0711C26.7723 30.9695 26.6131 30.8761 26.4495 30.7911C26.2816 30.7039 26.1091 30.6261 25.9328 30.558C25.7585 30.4907 25.5805 30.4334 25.3998 30.3864C25.2194 30.3395 25.0365 30.3031 24.852 30.2773C24.6661 30.2514 24.4789 30.2361 24.2913 30.2317M24.2913 29.6112C25.1146 29.634 25.922 29.8455 26.6529 30.2297C27.3792 30.614 28.0229 31.1402 28.5469 31.7778C29.0946 32.4424 29.5211 33.2002 29.8066 34.0159C30.4179 35.7715 30.4179 37.6859 29.8066 39.4415C29.5208 40.2595 29.0943 41.02 28.5469 41.6877C28.0228 42.3284 27.3792 42.8584 26.6526 43.2473C25.9228 43.6361 25.1154 43.8528 24.2911 43.8814C23.4616 43.9089 22.637 43.7426 21.8814 43.3953C21.1186 43.0418 20.4362 42.5326 19.8769 41.8998C19.283 41.2296 18.8182 40.4529 18.5064 39.6099C17.8312 37.7746 17.8312 35.7547 18.5064 33.9194C18.8185 33.0738 19.2833 32.2943 19.8769 31.6206C20.436 30.9842 21.1183 30.4707 21.8814 30.1119C22.6365 29.7598 23.4614 29.5881 24.2925 29.6102L24.2913 29.6112Z" fill="#03DAC5"/>
<path d="M24.2918 38.5002L22.3613 34.4308L22.8196 34.1288L24.4097 37.4718L31.0861 29.5314L31.4903 29.9671L24.2918 38.5002Z" fill="#03DAC5"/>
<path d="M94.5501 118.841L89.771 118.822L91.3121 131.457L94.5501 131.474V118.841Z" fill="#9E616A"/>
<path d="M95.3759 134.653L84.9409 134.597V134.464C84.9407 134.193 84.9668 133.923 85.0188 133.657C85.1214 133.132 85.326 132.634 85.6205 132.19C85.9197 131.74 86.3031 131.354 86.7491 131.054C87.1891 130.758 87.6829 130.553 88.2017 130.451C88.4647 130.4 88.7321 130.375 88.9999 130.377L95.3759 130.409V134.653Z" fill="#2F2E41"/>
<path d="M79.2487 118.781L74.4834 118.762L76.0196 131.38L79.2487 131.397V118.781Z" fill="#9E616A"/>
<path d="M80.0721 134.571L69.6646 134.516V134.382C69.6645 134.112 69.6906 133.842 69.7425 133.576C69.8448 133.053 70.0487 132.555 70.3424 132.112C70.6407 131.662 71.0232 131.277 71.4683 130.976C71.9072 130.681 72.3997 130.477 72.9172 130.375C73.1796 130.324 73.4463 130.299 73.7135 130.301L80.0721 130.333V134.571Z" fill="#2F2E41"/>
<path d="M79.0461 67.1365L71.0327 97.3958L73.9658 126.402L80.4604 126.583L79.0463 100.392L87.1484 87.322L88.9056 126.761L94.7968 126.34L98.074 92.4299C99.1871 89.7822 100.003 87.0165 100.508 84.1848C100.904 81.962 101.097 79.7069 101.083 77.4483C101.077 75.9278 100.961 74.4097 100.738 72.906C100.658 72.3457 100.55 71.7898 100.414 71.2406L98.0248 68.7898L79.0461 67.1365Z" fill="#2F2E41"/>
<path d="M89.663 72.1974C88.3154 72.1974 87.0509 72.1536 85.9043 72.0672C84.7331 71.9859 83.568 71.8307 82.4158 71.6026C81.4348 71.4172 80.4795 71.1129 79.5705 70.6962C78.8388 70.3764 78.2025 69.8683 77.725 69.2224L77.6704 69.1421L79.8607 54.7187L82.2227 38.5014C82.3781 37.4282 82.9182 36.4503 83.74 35.7539C84.5618 35.0575 85.608 34.6912 86.6795 34.7246L94.0768 34.954C94.6315 34.9712 95.1771 35.1009 95.6814 35.3355C96.1856 35.57 96.6382 35.9046 97.0123 36.3195C97.3863 36.7343 97.6743 37.2209 97.8591 37.7504C98.0439 38.2799 98.1217 38.8416 98.088 39.4021L97.1169 55.5304L100.699 71.4392L100.445 71.475C100.343 71.4887 99.9499 71.5412 99.3342 71.6113C98.5293 71.7029 97.7075 71.7854 96.8916 71.8566C95.7372 71.9573 94.6076 72.0364 93.5341 72.092C92.1728 72.1622 90.868 72.1962 89.663 72.1974Z" fill="#CCCCCC"/>
<path d="M85.558 31.8587C85.5561 31.8587 85.5541 31.8587 85.5521 31.8587C85.3969 31.8586 85.2433 31.8276 85.0999 31.7674C84.9566 31.7072 84.8264 31.6191 84.7167 31.508C84.607 31.3969 84.5201 31.265 84.4608 31.1199C84.4015 30.9747 84.371 30.8192 84.3711 30.6622V23.989C84.3699 22.7934 84.6064 21.6098 85.0664 20.5086C85.9671 18.3595 87.6527 16.6451 89.7719 15.7225C91.1122 15.1408 92.5742 14.9046 94.0268 15.0349C95.4795 15.1652 96.8776 15.658 98.0959 16.4692C99.3142 17.2804 100.315 18.3846 101.008 19.683C101.701 20.9814 102.065 22.4335 102.067 23.9092V30.5925C102.067 30.7534 102.035 30.9126 101.973 31.0607C101.852 31.3497 101.625 31.58 101.339 31.7035C101.193 31.7667 101.036 31.7995 100.876 31.8L85.557 31.8587H85.558Z" fill="#2F2E41"/>
<path d="M97.214 21.7004C97.8311 22.8408 98.1004 24.1407 97.9878 25.4358C97.8752 26.731 97.3858 27.9634 96.5814 28.9772C95.777 29.9911 94.6938 30.7411 93.4684 31.1324C92.243 31.5237 90.9306 31.5388 89.6967 31.1758C88.8797 30.9383 88.1174 30.539 87.454 30.0012C86.7905 29.4634 86.2392 28.7978 85.8318 28.0428C85.2162 26.9029 84.9479 25.6041 85.0608 24.3101C85.1737 23.0161 85.6627 21.7849 86.4662 20.7718C87.2696 19.7586 88.3516 19.0088 89.5756 18.617C90.7995 18.2251 92.1108 18.2087 93.344 18.5699C94.1618 18.8066 94.9249 19.2052 95.5893 19.7426C96.2536 20.28 96.8059 20.9456 97.214 21.7007V21.7004Z" fill="#9E616A"/>
<path d="M82.2793 24.5321C82.2785 23.5865 82.4655 22.6504 82.8292 21.7795C83.5414 20.0801 84.8744 18.7245 86.5503 17.9953C87.4101 17.6225 88.3353 17.4285 89.2707 17.4249L90.5907 17.4182C90.6055 17.4181 90.6203 17.4181 90.6351 17.4181C91.5492 17.4187 92.4542 17.6014 93.2984 17.9558C94.1426 18.3103 94.9096 18.8295 95.5555 19.4839C96.2015 20.1383 96.7137 20.915 97.0629 21.7697C97.4122 22.6244 97.5917 23.5403 97.5911 24.4651V24.5988L94.7987 24.6102L93.8466 21.9186L93.6561 24.6154L92.2138 24.6218L91.7337 23.2639L91.6374 24.6236L82.2805 24.666L82.2793 24.5321Z" fill="#2F2E41"/>
<path d="M71.0376 38.5704C70.6079 38.6768 70.2061 38.876 69.8598 39.1545C69.5892 39.3712 69.3577 39.6337 69.1758 39.9305C68.8171 40.5178 68.659 41.2081 68.726 41.8952C68.7597 42.2423 68.8528 42.5808 69.001 42.8958C69.1836 43.2882 69.4465 43.637 69.7721 43.9191C70.0978 44.2013 70.479 44.4102 70.8904 44.5323C71.3018 44.6544 71.7341 44.6868 72.1588 44.6274C72.5835 44.568 72.9909 44.4181 73.3541 44.1876C73.3809 44.1701 73.4074 44.1524 73.4336 44.1344C73.4599 44.1164 73.4856 44.098 73.511 44.0792C73.5364 44.0605 73.5615 44.0414 73.5861 44.022C73.6106 44.0027 73.6351 43.983 73.6593 43.9631L89.0681 49.5121C89.5422 49.6828 90.0583 49.6929 90.5386 49.5411C91.0189 49.3893 91.4375 49.0838 91.7314 48.6704L95.3844 43.5526L90.9678 40.5433L88.6501 43.2074L74.5485 40.369C74.5331 40.332 74.5171 40.2952 74.5007 40.2586C74.4842 40.222 74.467 40.1856 74.449 40.1493C74.4308 40.1131 74.412 40.0771 74.3927 40.0413C74.3734 40.0055 74.353 39.97 74.3314 39.9348C73.995 39.3847 73.4951 38.9565 72.9035 38.7114C72.3118 38.4664 71.6587 38.417 71.0376 38.5704Z" fill="#9E616A"/>
<path d="M88.8989 41.5272C89.3598 40.9452 90.0043 40.1894 90.6591 39.4399C91.3138 38.6903 91.9783 37.9474 92.4795 37.3916C92.9807 36.8359 93.318 36.4675 93.318 36.4675C93.7807 35.7597 94.4712 35.2358 95.2723 34.9847C96.0734 34.7336 96.9358 34.7709 97.7128 35.0902C98.4899 35.4094 99.1337 35.9911 99.535 36.7362C99.9363 37.4814 100.07 38.3441 99.9143 39.1779C99.8251 39.6579 99.6409 40.1147 99.3728 40.5208C99.3728 40.5208 98.87 41.1864 98.1112 42.1799C97.3524 43.1734 96.3371 44.496 95.3131 45.8108C94.289 47.1256 93.2549 48.4336 92.4576 49.3992C91.6603 50.3647 91.0992 50.9885 91.0201 50.9351L88.239 42.57C88.1599 42.5166 88.438 42.1093 88.8989 41.5272Z" fill="#CCCCCC"/>
<path d="M90.5496 31.6484C90.5059 31.8642 90.5228 32.088 90.5986 32.2944C90.6366 32.4001 90.6891 32.4998 90.7545 32.5908C90.8104 32.6682 90.8753 32.7387 90.9476 32.8008C91.1619 32.984 91.4337 33.084 91.7142 33.0828C91.7317 33.0826 91.7492 33.0821 91.7667 33.0813C91.7841 33.0805 91.8016 33.0792 91.8191 33.0776C91.8367 33.0761 91.8543 33.0741 91.8718 33.0716C91.8893 33.0691 91.9068 33.0663 91.9245 33.0632L92.9156 32.8809L94.2807 29.9299V32.6329L98.7867 31.8121V20.3417L91.2326 20.3784L91.4194 20.5978C92.0393 21.3342 92.4463 22.2294 92.5958 23.1848C92.7423 24.1525 92.7239 25.1384 92.5414 26.0998C92.3639 27.0726 92.0946 28.026 91.737 28.9467C91.4245 29.7623 91.0657 30.5591 90.6626 31.333C90.6105 31.4323 90.5725 31.5385 90.5496 31.6484Z" fill="#2F2E41"/>
<path d="M38.226 135H131.601C131.666 135 131.729 134.974 131.775 134.927C131.821 134.881 131.846 134.818 131.846 134.752C131.846 134.686 131.821 134.623 131.775 134.577C131.729 134.53 131.666 134.504 131.601 134.504H38.226C38.161 134.504 38.0987 134.53 38.0527 134.577C38.0068 134.623 37.981 134.686 37.981 134.752C37.981 134.818 38.0068 134.881 38.0527 134.927C38.0987 134.974 38.161 135 38.226 135Z" fill="#CACACA"/>
</g>
<defs>
<clipPath id="clip0_1232_26761">
<rect width="113.846" height="120" fill="white" transform="translate(18 15)"/>
</clipPath>
</defs>
</svg>
