<svg width="400" height="400" viewBox="0 0 400 400" fill="none" xmlns="http://www.w3.org/2000/svg">
<path d="M265.32 268.965C265.186 268.965 265.057 268.911 264.961 268.816C264.866 268.721 264.813 268.592 264.813 268.457V234.698C264.813 234.564 264.866 234.435 264.961 234.339C265.057 234.244 265.186 234.191 265.32 234.191C265.455 234.191 265.584 234.244 265.679 234.339C265.774 234.435 265.828 234.564 265.828 234.698V268.457C265.828 268.592 265.774 268.721 265.679 268.816C265.584 268.911 265.455 268.965 265.32 268.965Z" fill="#484646"/>
<path d="M334.686 275.278H65.5075C65.3737 275.275 65.2461 275.221 65.1515 275.126C65.0569 275.032 65.0026 274.904 65 274.77C65 274.636 65.0535 274.507 65.1486 274.412C65.2438 274.316 65.3729 274.263 65.5075 274.263H334.686C334.82 274.263 334.949 274.316 335.044 274.412C335.14 274.507 335.193 274.636 335.193 274.77C335.19 274.904 335.136 275.032 335.041 275.126C334.947 275.221 334.819 275.275 334.686 275.278Z" fill="#D1D1D1"/>
<path d="M294.958 112.645H104.006C99.9983 112.645 96.7491 115.894 96.7491 119.902V250.928C96.7491 254.936 99.9983 258.185 104.006 258.185H294.958C298.966 258.185 302.216 254.936 302.216 250.928V119.902C302.216 115.894 298.966 112.645 294.958 112.645Z" fill="white"/>
<path d="M294.958 258.693H103.996C101.939 258.69 99.9663 257.871 98.5124 256.415C97.0584 254.959 96.2417 252.986 96.2417 250.928V119.902C96.2417 117.844 97.0584 115.871 98.5124 114.415C99.9663 112.959 101.939 112.14 103.996 112.137H294.958C297.017 112.14 298.99 112.959 300.446 114.414C301.902 115.87 302.72 117.843 302.723 119.902V250.928C302.72 252.987 301.902 254.96 300.446 256.416C298.99 257.871 297.017 258.69 294.958 258.693ZM103.996 113.152C102.208 113.155 100.494 113.867 99.2301 115.133C97.9664 116.398 97.2567 118.113 97.2567 119.902V250.928C97.2567 252.717 97.9664 254.432 99.2301 255.697C100.494 256.963 102.208 257.675 103.996 257.678H294.958C296.749 257.678 298.465 256.967 299.731 255.701C300.997 254.435 301.708 252.718 301.708 250.928V119.902C301.708 118.112 300.997 116.395 299.731 115.129C298.465 113.863 296.749 113.152 294.958 113.152H103.996Z" fill="#484646"/>
<path d="M294.623 122.784H104.341V248.056H294.623V122.784Z" fill="#FF931E"/>
<path d="M230.049 279.257H168.906L175.818 258.185H223.147L230.049 279.257Z" fill="white"/>
<path d="M230.049 279.785H168.906C168.822 279.784 168.74 279.763 168.666 279.724C168.591 279.686 168.528 279.63 168.479 279.561C168.433 279.494 168.402 279.417 168.39 279.336C168.377 279.255 168.384 279.173 168.408 279.094L175.32 258.023C175.356 257.92 175.423 257.83 175.512 257.766C175.602 257.702 175.708 257.668 175.818 257.668H223.137C223.247 257.665 223.355 257.698 223.445 257.762C223.535 257.826 223.601 257.918 223.634 258.023L230.547 279.094C230.576 279.172 230.585 279.255 230.573 279.337C230.56 279.419 230.527 279.496 230.475 279.561C230.428 279.631 230.365 279.688 230.29 279.727C230.216 279.766 230.133 279.786 230.049 279.785ZM169.626 278.77H229.329L222.761 258.693H176.203L169.626 278.77Z" fill="#484646"/>
<path d="M235.104 279.257H163.851C162.214 279.257 160.887 280.584 160.887 282.221V282.231C160.887 283.868 162.214 285.195 163.851 285.195H235.104C236.741 285.195 238.068 283.868 238.068 282.231V282.221C238.068 280.584 236.741 279.257 235.104 279.257Z" fill="white"/>
<path d="M235.104 285.712H163.861C163.387 285.738 162.913 285.667 162.468 285.503C162.023 285.339 161.616 285.087 161.271 284.76C160.927 284.434 160.653 284.041 160.465 283.605C160.278 283.17 160.181 282.7 160.181 282.226C160.181 281.751 160.278 281.282 160.465 280.846C160.653 280.41 160.927 280.017 161.271 279.691C161.616 279.365 162.023 279.112 162.468 278.949C162.913 278.785 163.387 278.714 163.861 278.739H235.104C235.577 278.714 236.051 278.785 236.497 278.949C236.942 279.112 237.349 279.365 237.693 279.691C238.038 280.017 238.312 280.41 238.499 280.846C238.687 281.282 238.784 281.751 238.784 282.226C238.784 282.7 238.687 283.17 238.499 283.605C238.312 284.041 238.038 284.434 237.693 284.76C237.349 285.087 236.942 285.339 236.497 285.503C236.051 285.667 235.577 285.738 235.104 285.712ZM163.861 279.785C163.527 279.763 163.192 279.81 162.878 279.923C162.563 280.036 162.274 280.212 162.03 280.441C161.786 280.67 161.592 280.946 161.459 281.253C161.326 281.56 161.257 281.891 161.257 282.226C161.257 282.56 161.326 282.891 161.459 283.198C161.592 283.505 161.786 283.781 162.03 284.01C162.274 284.239 162.563 284.415 162.878 284.528C163.192 284.641 163.527 284.688 163.861 284.667H235.104C235.438 284.688 235.772 284.641 236.087 284.528C236.402 284.415 236.69 284.239 236.934 284.01C237.178 283.781 237.373 283.505 237.506 283.198C237.639 282.891 237.707 282.56 237.707 282.226C237.707 281.891 237.639 281.56 237.506 281.253C237.373 280.946 237.178 280.67 236.934 280.441C236.69 280.212 236.402 280.036 236.087 279.923C235.772 279.81 235.438 279.763 235.104 279.785H163.861Z" fill="#484646"/>
<path d="M170.743 273.674C171.758 273.146 224.67 263.524 224.67 263.524L222.934 258.236H175.605L170.743 273.674Z" fill="#484646"/>
<path d="M170.733 274.192C170.613 274.194 170.497 274.15 170.408 274.07C170.331 274.004 170.275 273.917 170.248 273.819C170.22 273.722 170.223 273.618 170.256 273.522L175.128 258.033C175.158 257.93 175.221 257.84 175.307 257.776C175.393 257.712 175.497 257.678 175.605 257.678H222.934C223.041 257.679 223.144 257.714 223.23 257.778C223.316 257.842 223.379 257.931 223.411 258.033L225.147 263.321C225.176 263.387 225.191 263.458 225.191 263.529C225.191 263.601 225.176 263.672 225.147 263.737C225.068 263.861 224.944 263.948 224.802 263.981C210.287 266.63 172.346 273.624 171.007 274.131C170.924 274.179 170.828 274.2 170.733 274.192ZM175.98 258.693L171.494 272.964C178.061 271.502 214.773 264.773 224 263.078L222.558 258.693H175.98Z" fill="#484646"/>
<path d="M288.462 189.876C288.383 189.878 288.305 189.86 288.234 189.825C288.164 189.789 288.103 189.737 288.056 189.673C287.853 189.409 283.276 183.136 283.276 167.444V111.792C283.278 111.658 283.333 111.531 283.427 111.436C283.522 111.341 283.649 111.287 283.783 111.284C283.918 111.284 284.047 111.338 284.142 111.433C284.237 111.528 284.291 111.657 284.291 111.792V167.444C284.291 182.801 288.818 189.003 288.868 189.064C288.947 189.172 288.98 189.307 288.961 189.44C288.942 189.572 288.872 189.692 288.767 189.774C288.679 189.841 288.572 189.877 288.462 189.876Z" fill="#484646"/>
<path d="M92.8313 220.265H83.0569V296.116H92.8313V220.265Z" fill="white"/>
<path d="M92.8414 296.613H83.0568C82.9222 296.613 82.7931 296.56 82.698 296.465C82.6028 296.369 82.5493 296.24 82.5493 296.106V220.265C82.5493 220.13 82.6028 220.001 82.698 219.906C82.7931 219.811 82.9222 219.757 83.0568 219.757H92.8414C92.976 219.757 93.1051 219.811 93.2003 219.906C93.2954 220.001 93.3489 220.13 93.3489 220.265V296.106C93.3489 296.172 93.3358 296.238 93.3103 296.3C93.2848 296.362 93.2474 296.417 93.2003 296.465C93.1531 296.512 93.0972 296.549 93.0356 296.575C92.9741 296.6 92.9081 296.613 92.8414 296.613ZM83.5643 295.598H92.3339V220.772H83.5643V295.598Z" fill="#484646"/>
<path d="M152.726 220.265H142.952V296.116H152.726V220.265Z" fill="white"/>
<path d="M152.737 296.613H142.952C142.817 296.613 142.688 296.56 142.593 296.465C142.498 296.369 142.444 296.24 142.444 296.106V220.265C142.444 220.13 142.498 220.001 142.593 219.906C142.688 219.811 142.817 219.757 142.952 219.757H152.737C152.871 219.757 153 219.811 153.095 219.906C153.191 220.001 153.244 220.13 153.244 220.265V296.106C153.244 296.24 153.191 296.369 153.095 296.465C153 296.56 152.871 296.613 152.737 296.613ZM143.459 295.598H152.229V220.772H143.459V295.598Z" fill="#484646"/>
<path d="M160.298 225.949H73.5361V251.994H160.298V225.949Z" fill="white"/>
<path d="M160.298 225.949V251.994H73.5361V225.949H160.298ZM160.298 224.934H73.5361C73.2669 224.934 73.0088 225.041 72.8184 225.231C72.6281 225.422 72.5211 225.68 72.5211 225.949V251.994C72.5211 252.263 72.6281 252.521 72.8184 252.712C73.0088 252.902 73.2669 253.009 73.5361 253.009H160.298C160.568 253.009 160.826 252.902 161.016 252.712C161.206 252.521 161.313 252.263 161.313 251.994V225.949C161.313 225.68 161.206 225.422 161.016 225.231C160.826 225.041 160.568 224.934 160.298 224.934Z" fill="#484646"/>
<path d="M104.879 251.994H91.5726L75.1296 225.959H88.4363L104.879 251.994Z" fill="#D1D1D1"/>
<path d="M131.787 251.994H118.48L102.037 225.959H115.344L131.787 251.994Z" fill="#D1D1D1"/>
<path d="M158.695 251.994H145.388L128.945 225.959H142.252L158.695 251.994Z" fill="#D1D1D1"/>
<path d="M158.705 262.357H73.5361V270.771H158.705V262.357Z" fill="white"/>
<path d="M158.695 271.279H73.5362C73.4016 271.279 73.2725 271.225 73.1773 271.13C73.0822 271.035 73.0287 270.906 73.0287 270.771V262.357C73.0287 262.223 73.0822 262.093 73.1773 261.998C73.2725 261.903 73.4016 261.85 73.5362 261.85H158.695C158.829 261.85 158.958 261.903 159.054 261.998C159.149 262.093 159.202 262.223 159.202 262.357V270.771C159.202 270.906 159.149 271.035 159.054 271.13C158.958 271.225 158.829 271.279 158.695 271.279ZM74.0437 270.264H158.187V262.865H74.0437V270.264Z" fill="#484646"/>
<path d="M326.19 287.631H296.39L297.79 282.89L298.054 281.987L299.688 276.486L300.49 273.766L302.216 267.929L302.571 266.742L304.469 260.327L304.652 259.708L306.377 253.872L307.352 250.583L308.813 245.65L310.478 240.007H312.081L313.746 245.65L314.538 248.289L316.182 253.872L316.923 256.348L317.918 259.708L318.496 261.647L320.354 267.929L320.881 269.716L322.089 273.766L322.455 275.014L324.515 281.987L324.83 283.063L326.19 287.631Z" fill="white"/>
<path d="M312.081 240.007L313.746 245.65L314.538 248.289L316.182 253.872L316.923 256.348L317.938 259.708L318.517 261.657L320.374 267.929L320.902 269.716L322.099 273.776L322.465 275.024L324.495 281.997L324.809 283.073L326.159 287.641H296.389L297.79 282.901L298.054 281.997L299.688 276.496L300.49 273.776L302.216 267.94L302.571 266.752L304.469 260.337L304.641 259.708L306.367 253.872L307.382 250.583L308.844 245.65L310.508 240.007H312.112M312.112 238.992H310.508C310.29 238.994 310.079 239.066 309.905 239.198C309.732 239.329 309.605 239.513 309.544 239.723L307.869 245.356L306.408 250.299L305.443 253.587L303.708 259.414L303.525 260.033L301.596 266.448L301.241 267.645L299.516 273.481L298.714 276.192L297.08 281.703L296.816 282.606L295.415 287.346C295.371 287.498 295.363 287.657 295.391 287.812C295.419 287.967 295.483 288.114 295.578 288.24C295.672 288.366 295.795 288.468 295.936 288.538C296.077 288.609 296.232 288.646 296.389 288.646H326.18C326.341 288.652 326.501 288.62 326.647 288.552C326.793 288.485 326.921 288.383 327.02 288.256C327.12 288.129 327.187 287.981 327.217 287.822C327.248 287.664 327.24 287.501 327.195 287.346L325.845 282.779L325.52 281.703L323.49 274.72L323.125 273.481L321.917 269.421L321.389 267.645L319.542 261.362L318.963 259.414L317.948 256.064L317.207 253.577L315.563 248.005L314.771 245.356L313.107 239.723C313.043 239.505 312.909 239.315 312.725 239.182C312.541 239.05 312.318 238.983 312.092 238.992H312.112Z" fill="#484646"/>
<path d="M329.255 287.631H293.324C292.719 287.631 292.228 288.121 292.228 288.727V290.757C292.228 291.362 292.719 291.853 293.324 291.853H329.255C329.861 291.853 330.351 291.362 330.351 290.757V288.727C330.351 288.121 329.861 287.631 329.255 287.631Z" fill="white"/>
<path d="M329.255 292.36H293.324C292.899 292.36 292.491 292.191 292.19 291.891C291.889 291.59 291.72 291.182 291.72 290.757V288.727C291.72 288.516 291.762 288.308 291.843 288.113C291.923 287.918 292.041 287.742 292.19 287.593C292.339 287.444 292.516 287.326 292.71 287.245C292.905 287.165 293.114 287.123 293.324 287.123H329.255C329.466 287.123 329.674 287.165 329.869 287.245C330.063 287.326 330.24 287.444 330.389 287.593C330.538 287.742 330.656 287.918 330.737 288.113C330.817 288.308 330.859 288.516 330.859 288.727V290.757C330.859 291.182 330.69 291.59 330.389 291.891C330.088 292.191 329.68 292.36 329.255 292.36ZM293.324 288.128C293.168 288.128 293.018 288.19 292.908 288.3C292.797 288.411 292.735 288.56 292.735 288.717V290.747C292.735 290.903 292.797 291.052 292.908 291.163C293.018 291.273 293.168 291.335 293.324 291.335H329.255C329.411 291.335 329.561 291.273 329.671 291.163C329.782 291.052 329.844 290.903 329.844 290.747V288.717C329.844 288.56 329.782 288.411 329.671 288.3C329.561 288.19 329.411 288.128 329.255 288.128H293.324Z" fill="#484646"/>
<path d="M324.515 281.987H298.054L299.688 276.486L300.49 273.766H322.089L322.455 275.014L324.515 281.987Z" fill="#D1D1D1"/>
<path d="M320.354 267.929H302.216L302.571 266.742L304.469 260.327L304.652 259.708H317.918L318.496 261.647L320.354 267.929Z" fill="#D1D1D1"/>
<path d="M316.182 253.872H306.377L307.352 250.583L308.813 245.65H313.746L314.538 248.289L316.182 253.872Z" fill="#D1D1D1"/>
<path d="M271.877 112.776L307.798 155.691C307.908 155.815 308.056 155.9 308.219 155.933C308.382 155.966 308.551 155.944 308.7 155.872C308.85 155.799 308.972 155.68 309.047 155.532C309.122 155.383 309.147 155.215 309.117 155.051C308.303 151.387 307.106 147.818 305.545 144.404L276.404 110.208L272.709 110.665C272.478 110.693 272.259 110.782 272.075 110.925C271.891 111.067 271.748 111.256 271.663 111.472C271.578 111.689 271.553 111.924 271.59 112.154C271.628 112.384 271.727 112.599 271.877 112.776Z" fill="white"/>
<path d="M308.367 156.472C308.184 156.471 308.004 156.429 307.839 156.35C307.674 156.271 307.528 156.157 307.413 156.015L271.481 113.101C271.272 112.853 271.134 112.553 271.081 112.232C271.029 111.911 271.065 111.582 271.184 111.28C271.304 110.978 271.504 110.714 271.761 110.517C272.019 110.319 272.326 110.195 272.649 110.158L276.343 109.701C276.427 109.692 276.512 109.704 276.59 109.736C276.668 109.768 276.737 109.819 276.79 109.884L305.931 144.079C305.957 144.111 305.98 144.145 306.002 144.181C307.573 147.632 308.781 151.238 309.605 154.94C309.644 155.124 309.642 155.315 309.598 155.499C309.554 155.683 309.469 155.854 309.351 156.001C309.232 156.148 309.082 156.266 308.912 156.348C308.742 156.429 308.555 156.472 308.367 156.472ZM272.263 112.452L308.194 155.366C308.228 155.409 308.276 155.439 308.33 155.45C308.384 155.461 308.44 155.453 308.488 155.427C308.538 155.403 308.578 155.363 308.602 155.313C308.626 155.263 308.633 155.207 308.62 155.153C307.809 151.551 306.632 148.041 305.108 144.678L276.222 110.746L272.801 111.163C272.66 111.182 272.527 111.239 272.415 111.326C272.303 111.413 272.215 111.528 272.162 111.66C272.112 111.792 272.098 111.935 272.121 112.074C272.145 112.213 272.204 112.343 272.294 112.452H272.263Z" fill="#484646"/>
<path d="M276.404 110.209L305.545 144.404C305.545 144.404 316.618 131.067 314.365 120.186C312.112 109.305 302.297 102.129 291.446 103.773C280.596 105.418 276.404 110.209 276.404 110.209Z" fill="white"/>
<path d="M305.545 144.911C305.471 144.911 305.398 144.895 305.331 144.864C305.265 144.832 305.206 144.786 305.159 144.729L276.019 110.503C275.94 110.411 275.897 110.294 275.897 110.173C275.897 110.052 275.94 109.935 276.019 109.843C276.191 109.64 280.414 104.89 291.345 103.235C302.277 101.581 312.528 108.798 314.863 120.054C317.146 131.046 306.387 144.14 305.931 144.698C305.884 144.755 305.825 144.801 305.758 144.833C305.692 144.865 305.619 144.881 305.545 144.881V144.911ZM277.125 110.239L305.545 143.602C307.453 141.146 315.837 129.666 313.888 120.257C311.665 109.539 302.043 102.647 291.558 104.24C282.555 105.621 278.252 109.163 277.094 110.239H277.125Z" fill="#484646"/>
<path d="M306.783 135.685C306.713 135.699 306.64 135.699 306.57 135.685C306.509 135.658 306.455 135.619 306.41 135.57C306.364 135.521 306.33 135.464 306.307 135.401C306.284 135.339 306.274 135.273 306.277 135.206C306.281 135.14 306.297 135.075 306.326 135.015C309.253 128.711 310.064 121.63 308.641 114.827C308.606 114.692 308.626 114.549 308.696 114.429C308.766 114.309 308.882 114.222 309.016 114.187C309.151 114.152 309.294 114.172 309.414 114.243C309.534 114.313 309.621 114.428 309.656 114.563C311.182 121.594 310.347 128.933 307.281 135.441C307.228 135.524 307.154 135.591 307.066 135.634C306.979 135.677 306.88 135.694 306.783 135.685Z" fill="#D1D1D1"/>
<path d="M303.657 142.191L308.174 138.294L311.29 141.765L306.743 146.576L303.657 142.191Z" fill="white"/>
<path d="M306.743 147.043C306.668 147.036 306.596 147.014 306.532 146.977C306.467 146.941 306.411 146.89 306.367 146.83L303.322 142.445C303.25 142.342 303.219 142.216 303.236 142.092C303.253 141.968 303.317 141.855 303.413 141.775L307.839 137.908C307.935 137.817 308.062 137.767 308.194 137.767C308.326 137.767 308.453 137.817 308.549 137.908L311.665 141.369C311.75 141.464 311.797 141.587 311.797 141.714C311.797 141.841 311.75 141.964 311.665 142.059L307.118 146.87C307.072 146.925 307.014 146.969 306.95 146.998C306.885 147.028 306.814 147.043 306.743 147.043ZM304.337 142.242L306.793 145.734L310.6 141.674L308.133 138.923L304.337 142.242Z" fill="#484646"/>
<path d="M303.18 132.884C303.11 132.898 303.037 132.898 302.967 132.884C302.844 132.828 302.749 132.727 302.701 132.601C302.654 132.475 302.658 132.336 302.713 132.214C304.255 128.945 305.104 125.393 305.207 121.781C305.31 118.169 304.665 114.574 303.312 111.223C303.255 111.102 303.248 110.963 303.291 110.836C303.335 110.709 303.426 110.604 303.545 110.543C303.605 110.514 303.67 110.497 303.737 110.492C303.804 110.488 303.871 110.497 303.934 110.519C303.997 110.541 304.055 110.575 304.105 110.619C304.155 110.663 304.196 110.717 304.225 110.777C305.63 114.257 306.302 117.989 306.199 121.74C306.096 125.492 305.22 129.182 303.626 132.579C303.587 132.666 303.525 132.741 303.446 132.794C303.367 132.848 303.275 132.879 303.18 132.884Z" fill="#D1D1D1"/>
<path d="M96.7492 180.822C96.6147 180.837 96.4797 180.798 96.374 180.713C96.2684 180.628 96.2007 180.505 96.1859 180.37C96.1711 180.236 96.2104 180.101 96.2951 179.995C96.3798 179.89 96.503 179.822 96.6376 179.807C97.2669 179.675 160.197 165.343 178.853 112.472C178.896 112.346 178.988 112.242 179.108 112.183C179.227 112.125 179.366 112.115 179.492 112.157C179.619 112.203 179.723 112.297 179.781 112.418C179.84 112.54 179.849 112.679 179.807 112.807C161.009 166.226 97.541 180.66 96.9015 180.812L96.7492 180.822Z" fill="#484646"/>
<path d="M199.975 135.716C199.298 135.716 198.638 135.716 197.995 135.716C159.882 134.366 128.975 113.304 128.661 113.091C128.605 113.054 128.558 113.007 128.521 112.952C128.485 112.896 128.459 112.834 128.447 112.769C128.435 112.704 128.436 112.636 128.45 112.572C128.464 112.507 128.491 112.445 128.529 112.391C128.567 112.335 128.615 112.287 128.671 112.251C128.727 112.214 128.79 112.189 128.857 112.176C128.923 112.164 128.991 112.165 129.056 112.179C129.122 112.193 129.184 112.22 129.239 112.259C129.544 112.472 160.217 133.361 198.026 134.701C227.603 135.716 247.162 112.584 247.355 112.371C247.443 112.268 247.568 112.205 247.703 112.193C247.838 112.182 247.971 112.224 248.076 112.31C248.127 112.352 248.17 112.404 248.201 112.463C248.232 112.521 248.25 112.586 248.256 112.652C248.262 112.718 248.254 112.785 248.234 112.848C248.213 112.911 248.18 112.97 248.136 113.02C247.944 113.203 228.953 135.716 199.975 135.716Z" fill="#484646"/>
<path d="M238.89 145.013C238.589 145.028 238.287 145.028 237.986 145.013C232.12 144.404 227.836 138.578 225.695 128.174C224.693 123.078 224.179 117.899 224.162 112.705C224.162 112.571 224.216 112.442 224.311 112.347C224.406 112.251 224.535 112.198 224.67 112.198C224.805 112.201 224.934 112.256 225.029 112.353C225.124 112.45 225.177 112.58 225.177 112.716C225.177 113.01 224.954 142.628 238.088 144.008C239.097 144.118 240.117 144.009 241.079 143.686C242.041 143.364 242.922 142.836 243.66 142.14C251.252 135.34 251.466 112.929 251.466 112.705C251.466 112.571 251.519 112.442 251.614 112.347C251.709 112.251 251.839 112.198 251.973 112.198C252.041 112.198 252.107 112.211 252.17 112.238C252.232 112.264 252.288 112.302 252.336 112.35C252.383 112.398 252.42 112.456 252.445 112.518C252.47 112.581 252.482 112.648 252.481 112.716C252.481 113.649 252.257 135.797 244.361 142.892C242.872 144.266 240.916 145.024 238.89 145.013Z" fill="#484646"/>
</svg>
