<svg width="150" height="150" viewBox="0 0 150 150" fill="none" xmlns="http://www.w3.org/2000/svg">
<path d="M108.481 62.8532C108.56 53.3251 108.953 43.705 109.659 33.9928C109.671 33.8 109.686 33.6101 109.7 33.4173C110.074 28.3611 110.53 23.2868 111.071 18.1942V18.1655C111.07 17.3261 110.732 16.5212 110.131 15.9277C109.529 15.3342 108.714 15.0005 107.863 15H21.8293C20.9815 15.0016 20.1687 15.3337 19.5679 15.9239C18.967 16.5141 18.6268 17.3146 18.6213 18.1511C17.8747 25.164 17.2894 32.1424 16.8656 39.0863C16.8481 39.3137 16.8364 39.5381 16.8248 39.7654C16.6148 43.1985 16.4476 46.623 16.3231 50.0388C16.3144 50.2403 16.3056 50.4417 16.3027 50.6431C15.5065 71.6014 16.2815 92.589 18.6213 113.434C18.6274 114.271 18.9679 115.07 19.5687 115.66C20.1695 116.25 20.982 116.581 21.8293 116.583H107.863C108.714 116.582 109.529 116.248 110.131 115.655C110.732 115.061 111.07 114.257 111.071 113.417V113.386C110.648 109.682 110.277 105.954 109.957 102.203C109.91 101.653 109.865 101.104 109.82 100.554C109.598 97.8517 109.405 95.139 109.239 92.4158C109.204 91.8661 109.172 91.3165 109.143 90.7669C108.831 85.3165 108.627 79.8239 108.531 74.2892C108.519 73.7395 108.51 73.1928 108.502 72.6403C108.467 69.9381 108.456 67.2254 108.47 64.5021C108.47 63.9525 108.472 63.4028 108.481 62.8532Z" fill="#E6FBF9"/>
<path d="M134.402 36.5828C134.401 35.7434 134.063 34.9386 133.462 34.3451C132.86 33.7515 132.045 33.4179 131.194 33.4174H45.1603C44.3125 33.419 43.4997 33.7511 42.8989 34.3412C42.298 34.9314 41.9578 35.7319 41.9523 36.5684C39.0476 63.8979 38.5663 90.7439 40.5116 116.583C40.7478 119.78 41.0239 122.961 41.3398 126.125C41.509 127.82 41.6888 129.51 41.8794 131.196C41.9027 131.414 41.926 131.633 41.9523 131.852C41.9584 132.688 42.2989 133.488 42.8997 134.077C43.5005 134.667 44.313 134.999 45.1603 135H131.194C132.045 135 132.86 134.666 133.462 134.072C134.063 133.479 134.401 132.674 134.402 131.835V131.803C130.923 101.366 130.923 69.3396 134.402 36.6116V36.5828Z" fill="white"/>
<path d="M134.402 36.5828C134.401 35.7434 134.063 34.9386 133.462 34.3451C132.86 33.7515 132.045 33.4179 131.194 33.4174H45.1603C44.3125 33.419 43.4997 33.7511 42.8989 34.3412C42.298 34.9314 41.9578 35.7319 41.9523 36.5684C39.0476 63.8979 38.5663 90.7439 40.5116 116.583C40.7478 119.78 41.0239 122.961 41.3398 126.125C41.509 127.82 41.6888 129.51 41.8794 131.196C41.9027 131.414 41.926 131.633 41.9523 131.852C41.9584 132.688 42.2989 133.488 42.8997 134.077C43.5005 134.667 44.313 134.999 45.1603 135H131.194C132.045 135 132.86 134.666 133.462 134.072C134.063 133.479 134.401 132.674 134.402 131.835V131.803C130.923 101.366 130.923 69.3396 134.402 36.6116V36.5828ZM133.819 131.852C133.813 132.536 133.535 133.19 133.043 133.671C132.552 134.153 131.887 134.424 131.194 134.424H45.1603C44.4645 134.423 43.7975 134.15 43.3055 133.665C42.8135 133.179 42.5366 132.521 42.5356 131.835V131.803C42.5151 131.619 42.4947 131.432 42.4743 131.248C42.2731 129.486 42.0855 127.72 41.9114 125.95C41.6052 122.845 41.334 119.722 41.0978 116.583C39.1525 90.7583 39.6308 63.9296 42.5356 36.6116V36.5828C42.5366 35.8962 42.8135 35.2381 43.3055 34.7526C43.7975 34.2671 44.4645 33.9939 45.1603 33.9929H131.194C131.887 33.9931 132.553 34.2641 133.045 34.7466C133.536 35.2292 133.815 35.8841 133.819 36.5684C130.339 69.3224 130.339 101.383 133.819 131.852Z" fill="#03DAC5"/>
<path d="M51.0906 62.8533C50.8692 62.8538 50.6572 62.941 50.5009 63.0956C50.3446 63.2503 50.2568 63.4597 50.2568 63.6781C50.2568 63.8965 50.3446 64.106 50.5009 64.2606C50.6572 64.4152 50.8692 64.5024 51.0906 64.503H121.006C121.227 64.5024 121.439 64.4152 121.595 64.2606C121.752 64.106 121.839 63.8965 121.839 63.6781C121.839 63.4597 121.752 63.2503 121.595 63.0956C121.439 62.941 121.227 62.8538 121.006 62.8533H51.0906Z" fill="#9AF0E8"/>
<path d="M51.0912 67.8029C50.8698 67.8033 50.6576 67.8904 50.5011 68.045C50.3447 68.1996 50.2568 68.4092 50.2568 68.6277C50.2568 68.8462 50.3447 69.0558 50.5011 69.2104C50.6576 69.3651 50.8698 69.4521 51.0912 69.4526H98.554C98.7754 69.4521 98.9877 69.3651 99.1441 69.2104C99.3005 69.0558 99.3884 68.8462 99.3884 68.6277C99.3884 68.4092 99.3005 68.1996 99.1441 68.045C98.9877 67.8904 98.7754 67.8033 98.554 67.8029H51.0912Z" fill="#9AF0E8"/>
<path d="M51.0912 72.6404C50.8698 72.6408 50.6576 72.7279 50.5011 72.8825C50.3447 73.0372 50.2568 73.2467 50.2568 73.4652C50.2568 73.6837 50.3447 73.8933 50.5011 74.0479C50.6576 74.2026 50.8698 74.2897 51.0912 74.2901H121.006C121.228 74.2897 121.44 74.2026 121.596 74.0479C121.753 73.8933 121.841 73.6837 121.841 73.4652C121.841 73.2467 121.753 73.0372 121.596 72.8825C121.44 72.7279 121.228 72.6408 121.006 72.6404H51.0912Z" fill="#9AF0E8"/>
<path d="M51.0906 77.59C50.8692 77.5905 50.6572 77.6777 50.5009 77.8323C50.3446 77.9869 50.2568 78.1964 50.2568 78.4148C50.2568 78.6332 50.3446 78.8427 50.5009 78.9973C50.6572 79.1519 50.8692 79.2391 51.0906 79.2397H98.5533C98.7746 79.2391 98.9867 79.1519 99.143 78.9973C99.2993 78.8427 99.3871 78.6332 99.3871 78.4148C99.3871 78.1964 99.2993 77.9869 99.143 77.8323C98.9867 77.6777 98.7746 77.5905 98.5533 77.59H51.0906Z" fill="#9AF0E8"/>
<path d="M51.0906 90.7668C50.8692 90.7674 50.6572 90.8546 50.5009 91.0092C50.3446 91.1638 50.2568 91.3733 50.2568 91.5917C50.2568 91.8101 50.3446 92.0195 50.5009 92.1742C50.6572 92.3288 50.8692 92.416 51.0906 92.4165H121.006C121.227 92.416 121.439 92.3288 121.595 92.1742C121.752 92.0195 121.839 91.8101 121.839 91.5917C121.839 91.3733 121.752 91.1638 121.595 91.0092C121.439 90.8546 121.227 90.7674 121.006 90.7668H51.0906Z" fill="#9AF0E8"/>
<path d="M51.0912 95.7166C50.8698 95.717 50.6576 95.804 50.5011 95.9587C50.3447 96.1133 50.2568 96.3229 50.2568 96.5414C50.2568 96.7599 50.3447 96.9695 50.5011 97.1241C50.6576 97.2788 50.8698 97.3658 51.0912 97.3662H98.554C98.7754 97.3658 98.9877 97.2788 99.1441 97.1241C99.3005 96.9695 99.3884 96.7599 99.3884 96.5414C99.3884 96.3229 99.3005 96.1133 99.1441 95.9587C98.9877 95.804 98.7754 95.717 98.554 95.7166H51.0912Z" fill="#9AF0E8"/>
<path d="M51.0912 100.554C50.8698 100.554 50.6576 100.642 50.5011 100.796C50.3447 100.951 50.2568 101.16 50.2568 101.379C50.2568 101.597 50.3447 101.807 50.5011 101.962C50.6576 102.116 50.8698 102.203 51.0912 102.204H121.006C121.228 102.203 121.44 102.116 121.596 101.962C121.753 101.807 121.841 101.597 121.841 101.379C121.841 101.16 121.753 100.951 121.596 100.796C121.44 100.642 121.228 100.554 121.006 100.554H51.0912Z" fill="#9AF0E8"/>
<path d="M51.0906 105.504C50.8692 105.504 50.6572 105.591 50.5009 105.746C50.3446 105.901 50.2568 106.11 50.2568 106.328C50.2568 106.547 50.3446 106.756 50.5009 106.911C50.6572 107.065 50.8692 107.153 51.0906 107.153H98.5533C98.7746 107.153 98.9867 107.065 99.143 106.911C99.2993 106.756 99.3871 106.547 99.3871 106.328C99.3871 106.11 99.2993 105.901 99.143 105.746C98.9867 105.591 98.7746 105.504 98.5533 105.504H51.0906Z" fill="#9AF0E8"/>
<path d="M64.9249 52.6114H51.5713C51.3984 52.6112 51.2325 52.5433 51.1102 52.4227C50.9879 52.302 50.9191 52.1384 50.9189 51.9677V49.8566C50.9191 49.6859 50.9879 49.5223 51.1102 49.4016C51.2325 49.281 51.3984 49.2131 51.5713 49.2129H64.9249C65.0979 49.2131 65.2637 49.281 65.386 49.4016C65.5083 49.5223 65.577 49.6859 65.5772 49.8566V51.9677C65.577 52.1384 65.5083 52.302 65.386 52.4227C65.2637 52.5433 65.0979 52.6112 64.9249 52.6114Z" fill="#03DAC5"/>
<path d="M111.315 120.518L107.224 121.852C106.543 122.074 105.861 122.297 105.179 122.519C104.548 122.724 103.865 122.968 103.189 122.88C102.722 122.819 102.189 122.554 102.044 122.08C101.906 121.631 102.198 121.161 102.551 120.896C103.527 120.163 104.762 120.909 105.453 121.668C106.299 122.596 106.778 123.794 107.571 124.765C108.278 125.637 109.173 126.34 110.192 126.825C112.216 127.768 114.685 127.668 116.491 126.293C118.647 124.652 118.867 121.808 118.878 119.326C118.874 119.214 118.826 119.108 118.745 119.031C118.663 118.953 118.554 118.909 118.441 118.909C118.327 118.909 118.218 118.953 118.137 119.031C118.055 119.108 118.007 119.214 118.003 119.326C117.993 121.575 117.863 124.332 115.785 125.739C113.794 127.087 111.178 126.73 109.345 125.294C108.324 124.493 107.696 123.45 107.025 122.369C106.37 121.314 105.558 120.291 104.326 119.881C103.798 119.691 103.219 119.688 102.689 119.871C102.158 120.053 101.707 120.411 101.414 120.884C101.279 121.107 101.195 121.356 101.165 121.614C101.136 121.872 101.163 122.133 101.244 122.379C101.325 122.626 101.458 122.853 101.635 123.045C101.812 123.237 102.028 123.39 102.269 123.493C103.698 124.165 105.332 123.378 106.707 122.929L111.547 121.351C112.079 121.177 111.851 120.343 111.315 120.518L111.315 120.518Z" fill="#03DAC5"/>
</svg>
