<svg width="150" height="150" viewBox="0 0 150 150" fill="none" xmlns="http://www.w3.org/2000/svg">
<path d="M114.386 122.038L112.795 121.663L113.757 114.307L116.106 114.859L114.386 122.038Z" fill="#FFB6B6"/>
<path d="M108.103 123.935C108.034 124.203 108.167 124.469 108.401 124.53L111.541 125.348C111.541 125.348 112.172 124.182 113.57 123.974L113.196 125.778L114.816 126.2L115.361 123.284C115.361 123.284 116.191 121.864 115.494 120.846C114.797 119.829 115.497 120.127 115.497 120.127L115.602 118.262L113.08 117.914L112.342 120.693L110.439 123.146L108.474 123.556C108.299 123.592 108.153 123.741 108.103 123.935H108.103Z" fill="#2F2E41"/>
<path d="M129.642 120.302L128.19 121.056L124.15 114.84L126.292 113.727L129.642 120.302Z" fill="#FFB6B6"/>
<path d="M126.1 125.842C126.221 126.091 126.495 126.206 126.712 126.1L129.627 124.672C129.627 124.672 129.351 123.375 130.278 122.305L131.164 123.919L132.667 123.183L131.19 120.613C131.19 120.613 130.9 118.993 129.71 118.674C128.521 118.356 129.247 118.126 129.247 118.126L128.117 116.641L125.975 118.022L127.216 120.614L127.363 123.719L126.136 125.312C126.026 125.454 126.012 125.662 126.1 125.842L126.1 125.842V125.842Z" fill="#2F2E41"/>
<path d="M56.8522 92.9777H99.0333C99.5644 92.9777 99.9949 92.5459 99.9949 92.0132V32.1449C99.9949 31.6122 99.5644 31.1804 99.0333 31.1804H56.8522C56.3211 31.1804 55.8906 31.6122 55.8906 32.1449V92.0132C55.8906 92.5459 56.3211 92.9777 56.8522 92.9777Z" fill="white"/>
<path d="M100.174 93.1581H55.7104V31H100.174V93.1581ZM56.0702 92.7973H99.8147V31.3608H56.0702V92.7973Z" fill="#E6E6E6"/>
<path d="M90.1824 40.9575C90.3535 40.9575 90.4923 41.0967 90.4923 41.2684V41.89C90.4923 42.0617 90.3535 42.2008 90.1824 42.2008H65.7035C65.5323 42.2008 65.3936 42.0617 65.3936 41.89V41.2684C65.3936 41.0967 65.5323 40.9575 65.7035 40.9575H90.1824Z" fill="#E6E6E6"/>
<path d="M90.1824 43.9099C90.3535 43.9099 90.4923 44.0491 90.4923 44.2207V44.8424C90.4923 45.0141 90.3535 45.1532 90.1824 45.1532H65.7035C65.5323 45.1532 65.3936 45.0141 65.3936 44.8424V44.2207C65.3936 44.0491 65.5323 43.9099 65.7035 43.9099H90.1824Z" fill="#E6E6E6"/>
<path d="M90.1824 46.8625C90.3535 46.8625 90.4923 47.0017 90.4923 47.1734V47.795C90.4923 47.9667 90.3535 48.1059 90.1824 48.1059H65.7035C65.5323 48.1059 65.3936 47.9667 65.3936 47.795V47.1736C65.3936 47.0019 65.5323 46.8627 65.7035 46.8627H90.1824" fill="#03DAC5"/>
<path d="M122.91 54.6088H131.041C131.029 54.2256 131.11 53.8452 131.278 53.5005C131.282 53.8831 131.366 54.2604 131.524 54.6088H131.893C132.458 54.6082 132.916 54.149 132.916 53.5824V48.2826C132.916 45.6877 130.704 41.7977 128.301 43.4255C128.223 43.4214 127.005 42.8801 126.927 42.8801C124.813 42.8818 124.085 44.7958 123.447 46.8176C122.719 46.4813 122.218 47.8851 121.855 50.356C121.749 51.0771 121.655 51.889 121.571 52.775C121.338 53.5185 121.75 54.3107 122.491 54.5445C122.627 54.5873 122.768 54.6092 122.91 54.6095L122.91 54.6088V54.6088Z" fill="#2F2E41"/>
<path d="M106.953 84.908C106.55 85.8665 106.717 86.852 107.325 87.1094C107.933 87.3667 108.753 86.7982 109.156 85.8393C109.322 85.4585 109.395 85.0433 109.368 84.6284L111.025 80.5455L109.099 79.8063L107.669 83.91C107.354 84.1805 107.109 84.5226 106.953 84.9078L106.953 84.908Z" fill="#FFB6B6"/>
<path d="M124.77 52.8148L128.657 53.6303L128.061 55.424L129.253 69.1434L127.266 73.561L115.145 72.5643L118.125 66.5847C118.125 66.5847 116.933 61.6021 118.523 60.6051C120.112 59.6081 122.696 54.6255 122.696 54.6255L124.77 52.8148Z" fill="#03DAC5"/>
<path d="M128.393 54.4237L131.836 55.822L130.643 73.3612L133.227 88.5087L124.881 89.9039C124.881 89.9039 125.874 56.4199 126.47 55.822C127.066 55.224 128.393 54.4229 128.393 54.4229V54.4237V54.4237Z" fill="#2F2E41"/>
<path d="M121.65 56.6111C121.65 56.6111 119.409 55.1894 118.199 56.2421C116.988 57.2948 107.669 82.7414 107.669 82.7414L110.183 83.8368L115.948 71.7135L121.65 56.6111Z" fill="#2F2E41"/>
<path d="M115.231 99.4855L112.958 117.011L116.138 117.21C116.138 117.21 117.791 112.686 119.677 107.356C120.078 106.226 120.49 105.06 120.897 103.892C121.338 102.625 121.777 101.357 122.194 100.133C123.226 97.1157 124.13 94.3691 124.646 92.5754C124.736 92.2606 124.815 91.9757 124.881 91.7243C126.271 86.3668 127.066 72.3662 127.066 72.3662L115.541 71.3696L115.418 71.5231L112.958 74.6064L113.074 75.2582L116.138 92.4964L115.232 99.4862L115.231 99.4855Z" fill="#2F2E41"/>
<path d="M116.138 92.4962L115.232 99.486L119.307 106.683L119.676 107.356L125.288 117.585L128.06 116.008C128.06 116.008 124.453 107.695 122.194 100.133C121.944 99.302 121.711 98.4788 121.503 97.6776C120.888 95.3316 121.894 91.0507 121.501 89.8706C120.171 85.8884 115.839 77.9219 113.828 74.313L113.073 75.2577L116.138 92.4962Z" fill="#2F2E41"/>
<path d="M122.745 54.4752L118.722 56.022L108.19 86.915L114.549 87.9116L117.529 69.9737L122.745 54.4752Z" fill="#2F2E41"/>
<path d="M132.808 87.8217C132.91 88.8569 133.526 89.6431 134.183 89.5776C134.839 89.5122 135.289 88.62 135.186 87.5844C135.151 87.1702 135.017 86.7705 134.796 86.4187L134.307 82.0378L132.263 82.3118L132.962 86.6014C132.814 86.99 132.761 87.4084 132.808 87.8217Z" fill="#FFB6B6"/>
<path d="M130.445 55.8227C130.445 55.8227 133.028 55.2247 133.823 56.62C134.618 58.0152 135.015 85.1213 135.015 85.1213L132.282 85.3206L130.842 71.9673L130.445 55.8232L130.445 55.8227Z" fill="#2F2E41"/>
<path d="M127.148 52.3313C129.429 52.3313 131.278 50.4764 131.278 48.1882C131.278 45.9001 129.429 44.0452 127.148 44.0452C124.866 44.0452 123.017 45.9001 123.017 48.1882C123.017 50.4764 124.866 52.3313 127.148 52.3313Z" fill="#FFB6B6"/>
<path d="M128.806 54.6085H130.846C130.95 54.6085 131.038 54.5283 131.043 54.4245L131.043 54.4131C131.054 54.1966 131.357 54.1602 131.427 54.3651C131.456 54.4476 131.488 54.5288 131.524 54.6085H131.725V48.2212C131.725 47.1257 130.839 46.2375 129.747 46.2375C128.814 46.2375 128.009 46.891 127.813 47.8055C127.813 47.8055 126.427 49.511 127.244 50.4699C128.061 51.4287 126.872 52.2092 126.872 52.2092C126.608 53.444 127.547 54.6085 128.806 54.6085Z" fill="#2F2E41"/>
<path d="M73.5002 62.0485C73.958 61.7524 74.0544 61.1187 73.7342 60.6768L72.2343 58.6066C71.884 58.1226 71.2088 58.0151 70.7262 58.3664C70.6835 58.3976 70.643 58.4318 70.6053 58.4689C68.0654 59.8308 66.6983 61.8197 68.2184 64.1707C68.2184 64.5634 68.2469 64.9555 68.3038 65.3439C68.3284 65.5124 68.385 65.6773 68.4809 65.8179C68.7656 66.2355 69.2679 66.3888 69.7099 66.2443L72.1631 65.4448C72.6843 65.2749 72.9665 64.7042 72.7739 64.1896C72.5251 63.5245 72.6277 62.613 73.5002 62.0485Z" fill="#F2F2F2"/>
<path d="M79.3225 68.1553C78.6167 68.0854 78.0142 68.6688 78.0142 69.3802V71.5028C78.0142 71.5578 78.0184 71.6127 78.0267 71.667C78.1174 72.2585 78.669 72.6642 79.2587 72.5733C82.6967 72.9982 85.046 71.4987 85.1874 68.2087C85.2099 68.1625 85.2291 68.1148 85.2449 68.0659C85.4281 67.4974 85.1172 66.8875 84.5504 66.7037L82.4965 66.0343C81.7879 65.8034 81.0514 66.2649 80.9274 67.0017C80.8154 67.6674 80.3774 68.2598 79.3225 68.1553Z" fill="#E6E6E6"/>
<path d="M66.6237 70.2307C67.3367 74.475 71.0495 76.0852 74.9219 76.3397C74.9977 76.3514 75.0743 76.3573 75.151 76.3573C75.9862 76.3577 76.6636 75.679 76.664 74.8413V71.2921C76.664 70.2993 75.8528 69.5261 74.8631 69.5161C73.9063 69.5064 73.2827 69.0522 73.0265 68.2184C72.7338 67.266 71.6905 66.7638 70.7455 67.0718L67.5155 68.1245C67.0971 68.2608 66.7585 68.5728 66.5878 68.9795C66.418 69.382 66.4311 69.8387 66.6237 70.2307Z" fill="#3F3D56"/>
<path d="M86.5221 55.5549C85.926 54.9692 84.9695 54.9792 84.3856 55.5771C84.3336 55.6303 84.2857 55.6873 84.242 55.7476L81.3721 59.7097C81.0051 60.2163 81.2149 60.9222 81.7885 61.1695C83.132 61.749 82.9908 63.0497 82.5534 63.8457C82.339 64.2358 82.5159 64.724 82.9383 64.8616L87.7745 66.4378C88.5701 66.6955 89.4234 66.2574 89.6803 65.4593C89.7061 65.379 89.7253 65.2966 89.7375 65.2131C89.8206 64.6577 89.8623 64.0969 89.8623 63.5353C90.6803 60.4754 89.5483 57.5909 86.5221 55.5549H86.5221Z" fill="#03DAC5"/>
<path d="M78.2176 60.1492C78.7535 60.4518 79.4295 60.3054 79.791 59.8065L80.7526 58.4792C80.9392 58.2218 81.004 57.8953 80.9298 57.5859C80.8582 57.2821 80.6573 57.0252 80.3803 56.8829C78.1178 54.8325 75.44 54.7066 73.1692 56.8724C72.8838 57.0169 72.676 57.2798 72.6009 57.5915C72.5268 57.8988 72.591 58.2232 72.7765 58.4788L73.9001 60.0299C74.286 60.5626 75.0336 60.702 75.5654 60.3159C76.3381 59.7548 77.4606 59.7217 78.2176 60.1492V60.1492Z" fill="#E6E6E6"/>
<path d="M145 125.885H5V126.189H145V125.885Z" fill="#E6E6E6"/>
<path d="M65.5502 86.8871C65.6365 86.5205 66.0419 86.4 66.3734 86.4139C66.5828 86.4281 66.7905 86.461 66.9941 86.5124C67.207 86.5602 67.418 86.6169 67.6279 86.6768C68.0128 86.7868 68.3936 86.9199 68.7848 87.006C69.1129 87.0961 69.4585 87.1012 69.7891 87.0208C70.1072 86.9332 70.3576 86.6869 70.451 86.3695C70.546 86.0664 70.4092 85.7387 70.1272 85.5938C69.8662 85.4495 69.5381 85.5448 69.3942 85.8066C69.3921 85.8104 69.39 85.8143 69.388 85.8182C69.2671 86.1411 69.362 86.5053 69.6249 86.7276C69.7597 86.8546 69.9073 86.967 70.0654 87.0632C70.2258 87.1728 70.4043 87.253 70.5927 87.3C70.9131 87.3852 71.2516 87.2526 71.4298 86.9723C71.4652 86.9052 71.4865 86.8315 71.4924 86.7558C71.5017 86.6528 71.3413 86.6533 71.3319 86.7558C71.305 87.0509 70.9603 87.1887 70.7024 87.1566C70.5285 87.1277 70.3624 87.063 70.2146 86.9667C70.0719 86.8832 69.9367 86.7876 69.8105 86.6807C69.592 86.4909 69.3871 86.1788 69.5339 85.8828C69.6481 85.6926 69.8945 85.6312 70.0841 85.7458C70.1095 85.7611 70.133 85.7791 70.1544 85.7996C70.3839 85.988 70.3429 86.3295 70.1916 86.5532C70.0098 86.7867 69.7292 86.9209 69.4339 86.9156C69.1225 86.9161 68.8129 86.8674 68.5166 86.7713C68.147 86.6661 67.7811 86.5483 67.4099 86.4491C67.1991 86.3928 66.9867 86.3421 66.7721 86.3026C66.5692 86.2577 66.3607 86.2433 66.1536 86.2597C65.8039 86.2762 65.5013 86.5092 65.3949 86.8438C65.3717 86.945 65.5264 86.9879 65.5502 86.8871Z" fill="#3F3D56"/>
<path d="M71.9024 82.6926C71.9508 82.6926 71.99 82.8317 71.99 83.0035V83.6251C71.99 83.7967 71.9508 83.936 71.9024 83.936H64.9836C64.9352 83.936 64.896 83.7969 64.896 83.6251V83.0035C64.896 82.8317 64.9352 82.6926 64.9836 82.6926H71.9024Z" fill="#E6E6E6"/>
<path d="M90.4039 82.6926C90.4523 82.6926 90.4915 82.8317 90.4915 83.0035V83.6251C90.4915 83.7967 90.4523 83.936 90.4039 83.936H83.4851C83.4367 83.936 83.3975 83.7969 83.3975 83.6251V83.0035C83.3975 82.8317 83.4367 82.6926 83.4851 82.6926H90.4039Z" fill="#E6E6E6"/>
<path d="M87.3239 86.1943L85.9505 86.6496L85.2638 86.8773C85.0529 86.9676 84.8245 87.0097 84.5954 87.0005C84.4262 86.9892 84.2776 86.8836 84.2109 86.7272C84.1816 86.5704 84.2488 86.4113 84.3814 86.3233C84.7091 86.0732 85.1235 86.3278 85.3559 86.5867C85.6398 86.9035 85.8006 87.3124 86.067 87.644C86.3041 87.9416 86.6048 88.1821 86.9469 88.3476C87.6305 88.6877 88.4459 88.6178 89.062 88.1663C89.786 87.6061 89.8599 86.6352 89.8637 85.7882C89.8608 85.7069 89.7928 85.6432 89.7117 85.6461C89.6346 85.6488 89.5727 85.7109 89.57 85.7882C89.5665 86.5558 89.523 87.4968 88.8252 87.9772C88.1566 88.4374 87.2784 88.3153 86.6627 87.825C86.3454 87.5417 86.0815 87.2035 85.8836 86.8266C85.6638 86.4658 85.3909 86.1174 84.9773 85.9775C84.6115 85.8442 84.2028 85.9875 83.9994 86.3202C83.8241 86.6162 83.9212 86.9986 84.2163 87.1744C84.2391 87.188 84.2628 87.2001 84.2871 87.2107C84.7668 87.44 85.3156 87.1714 85.7773 87.0182L87.4025 86.4795C87.5811 86.4203 87.5046 86.1357 87.3244 86.1954L87.3239 86.1943Z" fill="#03DAC5"/>
<path d="M36.2762 120.479C36.2583 120.464 36.2445 120.455 36.2352 120.455C36.0111 120.457 35.8115 120.575 35.7014 120.77L33.2889 125.264C33.2337 125.362 33.2066 125.469 33.2075 125.576C33.2085 125.683 33.2374 125.789 33.2943 125.886C33.408 126.08 38.7361 126.149 38.7361 126.149C38.9601 126.147 39.5751 123.383 36.2762 120.479H36.2762Z" fill="#E6E6E6"/>
<path d="M27.0552 125.061L28.8864 125.044L29.6958 117.952L26.9932 117.976L27.0552 125.061Z" fill="#FFB6B6"/>
<path d="M33.3286 124.964C33.3865 125.06 33.4193 125.37 33.4202 125.482C33.4232 125.827 33.1474 126.108 32.8042 126.111L27.1332 126.161C26.8991 126.163 26.7076 125.974 26.7055 125.739L26.7035 125.502C26.7035 125.502 26.4167 124.793 26.9867 123.911C26.9867 123.911 27.7105 124.592 28.7738 123.506L29.0851 122.929L31.3894 124.588L32.6599 124.734C32.9378 124.766 33.1837 124.724 33.3286 124.964H33.3286Z" fill="#2F2E41"/>
<path d="M34.0215 118.938L35.7614 119.51L38.7928 113.052L36.2249 112.206L34.0215 118.938Z" fill="#FFB6B6"/>
<path d="M39.9957 120.861C40.0199 120.971 39.9518 121.276 39.917 121.382C39.8099 121.709 39.4587 121.887 39.1325 121.78L33.7445 120.005C33.522 119.932 33.4009 119.691 33.4739 119.468L33.5476 119.243C33.5476 119.243 33.5024 118.479 34.3241 117.827C34.3241 117.827 34.7925 118.704 36.1463 118.017L36.6256 117.57L38.2786 119.883L39.4357 120.429C39.6888 120.548 39.935 120.587 39.9957 120.861L39.9957 120.861Z" fill="#2F2E41"/>
<path d="M36.479 77.8155L40.1375 89.5815L44.4265 100.156L37.9254 115.372L34.3081 113.958L37.5456 100.789L32.0114 90.956L29.396 120.474L26.2144 120.092L22.0776 84.7332L22.7264 77.0442L36.479 77.8155Z" fill="#2F2E41"/>
<path d="M32.7354 51.0255L28.7824 50.0685L27.6919 52.6663C27.6919 52.6663 22.3503 53.5714 22.0772 57.673C22.0772 57.673 21.0126 63.0571 21.6941 64.5611C22.3756 66.0651 24.0557 71.3835 24.0557 71.3835C24.0557 71.3835 21.3956 78.0097 22.0772 78.4192C22.7589 78.8287 37.3653 80.3219 37.3653 79.5016C37.3653 78.6814 37.532 68.9355 37.532 68.9355L36.9601 54.1696L33.2807 52.803L32.7354 51.0257V51.0255V51.0255Z" fill="#E6E6E6"/>
<path d="M32.0669 50.3648C34.2669 50.3648 36.0504 48.576 36.0504 46.3693C36.0504 44.1627 34.2669 42.3739 32.0669 42.3739C29.8669 42.3739 28.0835 44.1627 28.0835 46.3693C28.0835 48.576 29.8669 50.3648 32.0669 50.3648Z" fill="#FFB6B6"/>
<path d="M29.4288 46.9633C29.7468 47.1378 29.4455 47.9712 29.6442 48.0432C29.8738 48.1264 30.7108 47.1702 30.7208 46.0994C30.7238 45.7754 30.6494 45.6198 30.7208 45.2356C30.8141 44.733 31.101 44.1401 31.3667 44.1557C31.5242 44.165 31.6782 44.3883 31.6897 44.5877C31.7059 44.867 31.4354 44.9771 31.4744 45.1276C31.5487 45.4142 32.685 45.6117 33.0893 45.1276C33.4063 44.748 33.1628 44.0819 33.3046 44.0477C33.4091 44.0226 33.5214 44.3893 33.9506 44.8036C34.1123 44.9597 34.3527 45.1919 34.4889 45.1276C34.6856 45.0347 34.5424 44.3804 34.5965 44.3717C34.6413 44.3645 34.6696 44.8244 34.9195 45.2356C35.2406 45.7638 35.9026 46.1708 36.2114 45.9915C36.4006 45.8816 36.4155 45.5758 36.4268 45.3436C36.4505 44.8543 37.159 43.7287 36.9754 43.2053C36.6018 42.1402 35.9625 42.8913 35.6731 42.536C35.2814 42.0548 34.9301 42.3137 34.2736 41.7801C33.6321 41.2587 33.6264 40.7346 33.1969 40.7002C32.8102 40.6693 32.6729 41.0831 32.228 41.0242C31.8512 40.9743 31.7691 40.6534 31.4744 40.7002C31.2046 40.7431 31.1869 41.0258 30.8284 41.1321C30.5996 41.2001 30.5492 41.1019 30.2901 41.1321C29.751 41.1951 29.389 41.6878 29.3212 41.7801C29.0598 42.1358 29.1613 42.2858 28.8905 42.6439C28.657 42.9528 28.1393 42.8218 27.9448 42.9761C27.309 43.4802 27.036 44.4096 27.0309 45.4687C27.0273 46.2095 27.1237 46.5838 27.3389 47.5188C27.5023 48.2287 28.2584 49.146 28.6752 49.555C28.7871 49.6648 29.1008 49.9725 29.3212 49.8789C29.5301 49.7902 29.5362 49.3916 29.5365 49.339C29.5374 49.158 29.4892 48.934 29.1059 48.3671C28.7031 47.7716 28.5432 47.7037 28.5676 47.5033C28.6106 47.1489 29.1754 46.8243 29.4288 46.9633L29.4288 46.9633Z" fill="#2F2E41"/>
<path d="M18.1638 86.8157C18.0251 87.9775 18.5102 88.9911 19.2473 89.0797C19.9844 89.1682 20.6944 88.2982 20.8331 87.1363C20.8938 86.6278 20.835 86.1476 20.6878 85.761L21.2141 80.8307L18.9021 80.6323L18.6287 85.5137C18.3947 85.8545 18.2245 86.3071 18.1638 86.8157Z" fill="#FFB6B6"/>
<path d="M24.8211 54.0736C24.8211 54.0736 23.6233 54.0903 22.8296 55.6436C22.4079 56.4691 19.6666 71.2637 19.6666 71.2637L18.8965 75.9428L19.2923 76.7167C18.6631 77.6819 18.4899 78.8762 18.8188 79.9812L18.0664 84.5528L21.6046 84.5719L24.3657 72.5959L26.6874 65.6504L24.8211 54.0736V54.0736Z" fill="#E6E6E6"/>
<path d="M42.8979 86.6353C43.0366 87.7971 42.5516 88.8107 41.8145 88.8992C41.0773 88.9878 40.3674 88.1177 40.2286 86.9559C40.1679 86.4474 40.2267 85.9672 40.3739 85.5806L39.8477 80.6503L42.1596 80.4519L42.433 85.3333C42.667 85.6741 42.8372 86.1267 42.8979 86.6353Z" fill="#FFB6B6"/>
<path d="M36.2403 53.8933C36.2403 53.8933 37.4381 53.91 38.2318 55.4633C38.6535 56.2888 41.3948 71.0834 41.3948 71.0834L42.1649 75.7625L41.7691 76.5364C42.3983 77.5016 42.5715 78.6959 42.2426 79.8009L42.995 84.3725L39.4569 84.3916L36.6957 72.4156L34.374 65.4701L36.2403 53.8933V53.8933Z" fill="#E6E6E6"/>
<path d="M122.183 47.573C122.329 47.8142 123.109 46.9316 124.306 46.8342C124.611 46.8088 125.298 47.9793 126.086 47.9962C126.609 48.0068 126.93 48.0026 127.573 47.9962C128.334 47.9878 128.542 47.9709 128.689 47.7846C128.973 47.4227 128.739 46.7794 128.874 46.7264C128.988 46.682 129.282 47.0799 129.432 47.573C129.748 48.6079 128.614 50.0491 128.503 51.3824C128.384 52.8194 129.555 50.066 129.432 51.3824C129.295 52.8638 128.802 52.7516 128.808 53.2871C128.809 53.3675 128.83 53.4373 128.874 53.4987C128.914 53.5537 128.953 53.5749 129.618 53.7103C130.414 53.8733 130.813 53.9537 130.919 53.922C131.193 53.8415 131.47 53.395 131.663 53.0754C131.983 52.5527 131.756 53.0797 131.663 52.4405C131.574 51.8226 131.295 51.7422 131.291 51.1707C131.287 50.4512 131.728 50.2332 132.035 49.4777C132.602 48.0809 132.048 46.464 131.849 45.8799C131.753 45.5998 131.58 45.2453 131.276 44.6595C131.032 44.1893 130.709 43.775 130.314 43.4647C129.723 42.9995 129.036 42.6807 128.293 42.5544C127.886 42.4852 127.472 42.5216 127.072 42.631L126.036 42.9144C125.6 43.0335 125.19 43.2494 124.828 43.5497C124.49 43.551 124.198 43.7992 124.082 44.16C124.07 44.1978 124.059 44.2198 124.05 44.2166C122.183 43.552 122.184 45.5204 122.204 46.75C122.206 46.8759 122.202 46.9873 122.188 47.0778V47.0841C122.151 47.3275 122.142 47.5053 122.183 47.573Z" fill="#2F2E41"/>
</svg>
