<svg width="150" height="150" viewBox="0 0 150 150" fill="none" xmlns="http://www.w3.org/2000/svg">
<g clip-path="url(#clip0_1233_27097)">
<path d="M83.1808 134.996H83.2305V135L83.2424 134.996H86.3962C85.4562 134.837 84.5183 134.714 83.5783 134.892C83.5564 134.896 83.5365 134.9 83.5147 134.906C83.4193 134.924 83.3239 134.947 83.2285 134.973C83.2226 134.974 83.2146 134.976 83.2087 134.978C83.2 134.981 83.1919 134.985 83.1848 134.99C83.1797 134.991 83.1749 134.993 83.1709 134.996H83.1808Z" fill="white"/>
<path d="M98.0095 47.6075C98.0631 41.115 98.3307 34.5598 98.8123 27.9418C98.8203 27.8104 98.8302 27.681 98.8401 27.5496C99.0945 24.1044 99.4058 20.6467 99.7741 17.1766V17.157C99.7738 16.585 99.5434 16.0366 99.1335 15.6321C98.7236 15.2277 98.1678 15.0003 97.5882 15H38.9643C38.3866 15.0011 37.8328 15.2274 37.4233 15.6295C37.0139 16.0317 36.7821 16.5772 36.7783 17.1472C36.2696 21.9258 35.8708 26.681 35.582 31.4126C35.5701 31.5675 35.5621 31.7204 35.5542 31.8753C35.4111 34.2147 35.2972 36.5481 35.2124 38.8757C35.2064 39.0129 35.2005 39.1502 35.1985 39.2875C34.6559 53.5685 35.184 67.8696 36.7783 82.0739C36.7825 82.6436 37.0145 83.1886 37.4239 83.5904C37.8333 83.9921 38.3869 84.2181 38.9643 84.2191H97.5882C98.1678 84.2187 98.7236 83.9914 99.1335 83.5869C99.5434 83.1825 99.7738 82.6341 99.7741 82.0621V82.0405C99.486 79.5169 99.2329 76.9769 99.015 74.4206C98.9832 74.046 98.9521 73.6715 98.9216 73.297C98.7706 71.4557 98.6388 69.6073 98.5261 67.7516C98.5023 67.3771 98.4804 67.0026 98.4606 66.628C98.2479 62.9141 98.1088 59.1714 98.0432 55.4C98.0353 55.0255 98.0293 54.6529 98.0234 54.2764C97.9995 52.4352 97.9922 50.5867 98.0015 48.7311C98.0015 48.3565 98.0035 47.982 98.0095 47.6075Z" fill="#F0F0F0"/>
<path d="M115.672 29.7067C115.672 29.1347 115.441 28.5863 115.031 28.1818C114.622 27.7774 114.066 27.55 113.486 27.5497H54.8622C54.2845 27.5508 53.7307 27.7771 53.3213 28.1792C52.9119 28.5814 52.68 29.1268 52.6763 29.6968C50.697 48.3193 50.3691 66.6124 51.6946 84.2191C51.8555 86.3977 52.0437 88.5651 52.2589 90.7214C52.3742 91.8764 52.4967 93.0281 52.6266 94.1765C52.6425 94.3255 52.6584 94.4745 52.6763 94.6236C52.6804 95.1933 52.9125 95.7383 53.3218 96.14C53.7312 96.5418 54.2849 96.7678 54.8622 96.7688H113.486C114.066 96.7684 114.622 96.5411 115.031 96.1366C115.441 95.7322 115.672 95.1838 115.672 94.6118V94.5902C113.301 73.85 113.301 52.0274 115.672 29.7263V29.7067Z" fill="white"/>
<path d="M115.672 29.7067C115.672 29.1347 115.441 28.5863 115.031 28.1818C114.622 27.7774 114.066 27.55 113.486 27.5497H54.8622C54.2845 27.5508 53.7307 27.7771 53.3213 28.1792C52.9119 28.5814 52.68 29.1268 52.6763 29.6968C50.697 48.3193 50.3691 66.6124 51.6946 84.2191C51.8555 86.3977 52.0437 88.5651 52.2589 90.7214C52.3742 91.8764 52.4967 93.0281 52.6266 94.1765C52.6425 94.3255 52.6584 94.4745 52.6763 94.6236C52.6804 95.1933 52.9125 95.7383 53.3218 96.14C53.7312 96.5418 54.2849 96.7678 54.8622 96.7688H113.486C114.066 96.7684 114.622 96.5411 115.031 96.1366C115.441 95.7322 115.672 95.1838 115.672 94.6118V94.5902C113.301 73.85 113.301 52.0274 115.672 29.7263V29.7067ZM115.275 94.6236C115.271 95.0895 115.081 95.5351 114.746 95.8634C114.411 96.1918 113.958 96.3762 113.486 96.3766H54.8622C54.3881 96.3759 53.9336 96.1897 53.5983 95.8589C53.2631 95.5281 53.0744 95.0796 53.0737 94.6118V94.5902C53.0598 94.4647 53.0459 94.3373 53.032 94.2118C52.8949 93.0117 52.767 91.8084 52.6484 90.6018C52.4398 88.486 52.255 86.3584 52.094 84.2191C50.7685 66.6222 51.0944 48.3409 53.0737 29.7263V29.7067C53.0744 29.2388 53.2631 28.7903 53.5983 28.4595C53.9336 28.1287 54.3881 27.9426 54.8622 27.9419H113.486C113.959 27.942 114.412 28.1266 114.747 28.4555C115.082 28.7843 115.272 29.2305 115.275 29.6968C112.904 52.0156 112.904 73.8618 115.275 94.6236Z" fill="#E4E4E4"/>
<path d="M58.9036 47.6075C58.7527 47.6079 58.6083 47.6673 58.5018 47.7727C58.3953 47.8781 58.3354 48.0208 58.3354 48.1696C58.3354 48.3184 58.3953 48.4611 58.5018 48.5665C58.6083 48.6719 58.7527 48.7313 58.9036 48.7317H106.544C106.695 48.7313 106.839 48.6719 106.946 48.5665C107.052 48.4611 107.112 48.3184 107.112 48.1696C107.112 48.0208 107.052 47.8781 106.946 47.7727C106.839 47.6673 106.695 47.6079 106.544 47.6075H58.9036Z" fill="#E6E6E6"/>
<path d="M58.9035 50.9802C58.7526 50.9805 58.608 51.0398 58.5014 51.1452C58.3948 51.2506 58.335 51.3934 58.335 51.5423C58.335 51.6912 58.3948 51.834 58.5014 51.9393C58.608 52.0447 58.7526 52.1041 58.9035 52.1043H91.245C91.3958 52.1041 91.5405 52.0447 91.647 51.9393C91.7536 51.834 91.8135 51.6912 91.8135 51.5423C91.8135 51.3934 91.7536 51.2506 91.647 51.1452C91.5405 51.0398 91.3958 50.9805 91.245 50.9802H58.9035Z" fill="#E6E6E6"/>
<path d="M58.9035 54.2765C58.7526 54.2768 58.608 54.3361 58.5014 54.4415C58.3948 54.5469 58.335 54.6897 58.335 54.8385C58.335 54.9874 58.3948 55.1302 58.5014 55.2356C58.608 55.341 58.7526 55.4003 58.9035 55.4006H106.544C106.695 55.4003 106.84 55.341 106.946 55.2356C107.053 55.1302 107.113 54.9874 107.113 54.8385C107.113 54.6897 107.053 54.5469 106.946 54.4415C106.84 54.3361 106.695 54.2768 106.544 54.2765H58.9035Z" fill="#E6E6E6"/>
<path d="M58.9036 57.6492C58.7527 57.6496 58.6083 57.709 58.5018 57.8143C58.3953 57.9197 58.3354 58.0624 58.3354 58.2112C58.3354 58.36 58.3953 58.5028 58.5018 58.6081C58.6083 58.7135 58.7527 58.7729 58.9036 58.7733H91.245C91.3958 58.7729 91.5403 58.7135 91.6468 58.6081C91.7533 58.5028 91.8131 58.36 91.8131 58.2112C91.8131 58.0624 91.7533 57.9197 91.6468 57.8143C91.5403 57.709 91.3958 57.6496 91.245 57.6492H58.9036Z" fill="#E6E6E6"/>
<path d="M58.9036 66.6281C58.7527 66.6284 58.6083 66.6878 58.5018 66.7932C58.3953 66.8986 58.3354 67.0413 58.3354 67.1901C58.3354 67.3389 58.3953 67.4817 58.5018 67.587C58.6083 67.6924 58.7527 67.7518 58.9036 67.7522H106.544C106.695 67.7518 106.839 67.6924 106.946 67.587C107.052 67.4817 107.112 67.3389 107.112 67.1901C107.112 67.0413 107.052 66.8986 106.946 66.7932C106.839 66.6878 106.695 66.6284 106.544 66.6281H58.9036Z" fill="#E6E6E6"/>
<path d="M58.9035 70.0007C58.7526 70.001 58.608 70.0604 58.5014 70.1657C58.3948 70.2711 58.335 70.4139 58.335 70.5628C58.335 70.7117 58.3948 70.8545 58.5014 70.9599C58.608 71.0652 58.7526 71.1246 58.9035 71.1248H91.245C91.3958 71.1246 91.5405 71.0652 91.647 70.9599C91.7536 70.8545 91.8135 70.7117 91.8135 70.5628C91.8135 70.4139 91.7536 70.2711 91.647 70.1657C91.5405 70.0604 91.3958 70.001 91.245 70.0007H58.9035Z" fill="#E6E6E6"/>
<path d="M58.9035 73.2971C58.7526 73.2974 58.608 73.3567 58.5014 73.4621C58.3948 73.5675 58.335 73.7103 58.335 73.8592C58.335 74.0081 58.3948 74.1509 58.5014 74.2562C58.608 74.3616 58.7526 74.4209 58.9035 74.4212H106.544C106.695 74.4209 106.84 74.3616 106.946 74.2562C107.053 74.1509 107.113 74.0081 107.113 73.8592C107.113 73.7103 107.053 73.5675 106.946 73.4621C106.84 73.3567 106.695 73.2974 106.544 73.2971H58.9035Z" fill="#E6E6E6"/>
<path d="M58.9036 76.6697C58.7527 76.6701 58.6083 76.7295 58.5018 76.8348C58.3953 76.9402 58.3354 77.0829 58.3354 77.2317C58.3354 77.3805 58.3953 77.5233 58.5018 77.6286C58.6083 77.734 58.7527 77.7934 58.9036 77.7938H91.245C91.3958 77.7934 91.5403 77.734 91.6468 77.6286C91.7533 77.5233 91.8131 77.3805 91.8131 77.2317C91.8131 77.0829 91.7533 76.9402 91.6468 76.8348C91.5403 76.7295 91.3958 76.6701 91.245 76.6697H58.9036Z" fill="#E6E6E6"/>
<path d="M68.3294 40.6286H59.2302C59.1123 40.6285 58.9993 40.5823 58.916 40.5C58.8327 40.4178 58.7858 40.3063 58.7856 40.19V38.7515C58.7858 38.6352 58.8327 38.5237 58.916 38.4415C58.9993 38.3592 59.1123 38.313 59.2302 38.3129H68.3294C68.4472 38.313 68.5602 38.3592 68.6436 38.4415C68.7269 38.5237 68.7738 38.6352 68.7739 38.7515V40.19C68.7738 40.3063 68.7269 40.4178 68.6436 40.5C68.5602 40.5823 68.4472 40.6285 68.3294 40.6286Z" fill="#03DAC5"/>
<path d="M99.9402 86.9009L97.1531 87.8098C96.6886 87.9612 96.2241 88.1127 95.7595 88.2642C95.3293 88.4039 94.8637 88.5702 94.4032 88.5101C94.0849 88.4685 93.7221 88.2878 93.6229 87.9646C93.5291 87.6589 93.728 87.339 93.9689 87.1582C94.634 86.6589 95.475 87.1671 95.9463 87.6841C96.5227 88.3165 96.849 89.1329 97.3896 89.7949C97.8709 90.3885 98.481 90.868 99.1751 91.198C100.554 91.8406 102.237 91.7723 103.467 90.8359C104.936 89.7176 105.086 87.7795 105.094 86.0886C105.091 86.0123 105.059 85.9401 105.003 85.8871C104.948 85.8341 104.873 85.8044 104.796 85.8044C104.719 85.8044 104.644 85.8341 104.589 85.8871C104.533 85.9401 104.501 86.0123 104.498 86.0886C104.491 87.621 104.403 89.4996 102.986 90.4585C101.63 91.3771 99.8471 91.1335 98.5983 90.1547C97.9023 89.6094 97.4742 88.8982 97.0173 88.1617C96.5712 87.4429 96.0174 86.746 95.178 86.4664C94.8181 86.3374 94.424 86.3349 94.0624 86.4595C93.7008 86.584 93.3939 86.828 93.1936 87.1501C93.102 87.3021 93.0444 87.4716 93.0244 87.6473C93.0045 87.823 93.0227 88.0008 93.0779 88.169C93.1331 88.3372 93.2239 88.4919 93.3444 88.6227C93.4649 88.7536 93.6123 88.8576 93.7767 88.9278C94.75 89.3855 95.8634 88.8492 96.8006 88.5436L100.099 87.4681C100.461 87.3499 100.306 86.7816 99.9402 86.9009L99.9402 86.9009Z" fill="#03DAC5"/>
<path d="M91.6811 130.138L89.7267 130.774L86.313 123.638L89.1975 122.7L91.6811 130.138Z" fill="#9F616A"/>
<path d="M93.0752 131.759L92.9421 131.361L92.5923 130.312L92.3538 129.598L91.702 129.81L91.5669 129.8L89.7764 129.68L89.5379 129.664L89.1842 129.641L88.8185 129.615L87.7971 131.08H87.7951C87.4133 131.203 87.06 131.399 86.7557 131.658C86.4514 131.916 86.2022 132.232 86.0225 132.586C86.0006 132.629 85.9807 132.672 85.9609 132.716C85.9116 132.821 85.8697 132.93 85.8357 133.041C85.681 133.522 85.6523 134.033 85.7522 134.527C85.7779 134.65 85.8104 134.771 85.8496 134.89L85.8556 134.91L85.8794 134.982L86.0225 134.935L87.2784 134.527L91.6782 133.098L92.5506 132.814L92.8189 132.725H92.8208L93.3415 132.557L93.0752 131.759Z" fill="#2F2E41"/>
<path d="M73.1561 131.816L71.0985 131.815L70.1196 123.984L73.1565 123.984L73.1561 131.816Z" fill="#9F616A"/>
<path d="M69.8631 97.485L68.951 99.0419C68.951 99.0419 67.9487 99.312 68.2762 102.536C68.5075 104.812 68.5826 115.005 69.1649 121.627C69.4073 124.383 69.7375 126.52 70.2035 127.211L70.4904 127.464L73.4845 127.747L73.56 127.721L74.6595 120.058C74.8569 118.683 74.8274 117.285 74.572 115.919L74.3733 113.762L77.1302 102.84C77.1302 102.84 79.9376 109.84 81.7261 116.507C82.1567 118.112 83.792 119.133 84.412 120.51C84.6198 120.971 84.8239 121.418 85.023 121.847C86.3344 124.672 86.9917 126.729 87.4892 126.9H87.8866L90.2713 126.115L90.7404 124.951L87.0917 114.35L84.3594 97.2326C79.1533 94.4705 74.2698 94.1632 69.8631 97.485Z" fill="#2F2E41"/>
<path d="M84.7763 74.4206C84.5965 74.03 84.3852 73.6542 84.1443 73.297C83.5937 72.4503 82.8285 71.7602 81.9246 71.295L81.1416 71.1244L79.7386 70.8185L78.9993 70.0008L77.7871 68.6615H73.6139L73.0555 70.0008L72.5865 71.1244L72.3858 71.6028L68.8127 73.3656C68.8107 73.3656 68.8107 73.3657 68.8087 73.3676C68.8564 73.7206 68.9034 74.0716 68.9498 74.4206C69.0512 75.1795 69.1465 75.9292 69.236 76.6697C69.2817 77.0462 69.3254 77.4208 69.3671 77.7933C69.5003 78.962 69.6149 80.1104 69.7109 81.2386C69.7964 82.2465 69.8646 83.24 69.9156 84.2191C70.0399 86.4428 70.0492 88.6713 69.9434 90.8959C69.9156 91.4195 70.4422 92.0156 70.4005 92.5274C70.331 93.3627 69.6771 94.1039 69.5619 94.902C69.4903 95.3922 69.5221 95.9138 69.3969 96.3766C69.3621 96.512 69.3101 96.6424 69.2419 96.7648C69.2419 96.7668 69.2399 96.7668 69.2399 96.7688C67.8091 99.2905 68.9319 98.0865 68.7988 98.6532L68.8624 98.6689C68.8922 98.6767 68.9836 98.7002 69.1306 98.7336C69.9713 98.9316 73.437 95.7216 75.7641 95.7216C77.1611 95.7216 80.8594 97.9884 82.0975 98.1531C83.0772 98.2826 83.9516 98.4002 84.4722 97.9472C84.6233 97.8151 84.7387 97.648 84.8081 97.4609L84.814 97.4433L84.812 97.4256L84.7624 96.7688L84.7325 96.3766L84.3073 90.7489C84.0698 90.4583 83.9197 90.1078 83.874 89.7373C83.8283 89.3667 83.889 88.9909 84.0489 88.6527L84.1364 88.4703L83.8144 84.2191L83.7548 83.425L83.733 83.1563V83.1544L83.578 81.1013L83.9516 79.9797V79.9777L84.6789 77.7933L85.0525 76.6697L85.287 75.9638L85.3029 75.9168C85.1778 75.4021 85.0014 74.901 84.7763 74.4206Z" fill="#03DAC5"/>
<path d="M88.4021 94.698L84.3959 84.4814L82.5352 80.7508L86.1132 78.8004L88.9949 83.8103L90.9266 94.2777C91.2307 94.4826 91.4657 94.7724 91.6016 95.1101C91.7374 95.4477 91.7679 95.8177 91.689 96.1726C91.6101 96.5274 91.4255 96.8509 91.1589 97.1014C90.8923 97.352 90.5558 97.5181 90.1928 97.5786C89.8297 97.639 89.4567 97.5909 89.1215 97.4406C88.7864 97.2902 88.5044 97.0444 88.3119 96.7347C88.1194 96.4251 88.0252 96.0657 88.0412 95.7027C88.0573 95.3398 88.183 94.9899 88.4021 94.698H88.4021Z" fill="#9F616A"/>
<path d="M88.4826 80.6228L87.4571 79.9679L86.2787 77.7933L85.6706 76.6697L85.2871 75.9638L85.1241 75.6618L83.2819 74.4206L82.0379 73.5813L81.0244 74.4206L80.5415 74.8206L81.0145 76.6697L81.3006 77.7933L81.9246 80.2306L83.7549 83.4249L84.21 84.2191L84.4703 84.676L84.4723 84.6799L84.5081 84.7407L89.1324 84.5505L89.2775 84.5446L89.2854 84.2191L89.2894 84.1014C89.2914 84.0426 89.2914 83.9838 89.2914 83.9249C89.2908 82.7765 89.0135 81.6447 88.4826 80.6228Z" fill="#03DAC5"/>
<path d="M53.4825 90.6349L61.6781 83.2452L64.5264 80.181L67.6663 82.7637L63.9801 87.2307L54.7951 92.8038C54.7119 93.1577 54.5234 93.479 54.2538 93.7264C53.9842 93.9737 53.6458 94.1359 53.282 94.1921C52.9183 94.2483 52.5459 94.1959 52.2125 94.0416C51.8792 93.8873 51.6003 93.6382 51.4115 93.3263C51.2227 93.0144 51.1328 92.6539 51.1532 92.2912C51.1737 91.9285 51.3036 91.5801 51.5262 91.2908C51.7488 91.0014 52.054 90.7844 52.4026 90.6675C52.7512 90.5506 53.1273 90.5393 53.4825 90.6349H53.4825Z" fill="#9F616A"/>
<path d="M70.4009 77.7933L70.385 76.6697L70.3552 74.4205L70.3433 73.548L70.3095 73.5244C70.1244 73.4046 69.9147 73.3269 69.6954 73.297C69.5027 73.2654 69.3059 73.2654 69.1132 73.297C69.0116 73.3125 68.9113 73.3354 68.8131 73.3656C68.8111 73.3656 68.8111 73.3656 68.8091 73.3676C68.22 73.5762 67.6999 73.9396 67.3048 74.4186L67.3028 74.4205C66.7068 75.12 66.1786 75.873 65.7249 76.6697C65.5003 77.0462 65.2857 77.4266 65.085 77.7933C64.3259 79.1874 63.7794 80.3953 63.7694 80.4169L61.5 83.3249L61.5318 83.3778L62.0306 84.2191L63.8589 87.3035L64.149 87.7937L64.8903 87.4035C65.7543 86.9486 66.4356 86.2169 66.8219 85.3289L67.0862 84.3328L67.1836 84.2191L69.7113 81.2385L70.4347 80.3836L70.4009 77.7933Z" fill="#03DAC5"/>
<path d="M79.0622 64.8241C79.4006 62.7662 77.9843 60.8272 75.8988 60.4933C73.8132 60.1593 71.8482 61.5569 71.5098 63.6147C71.1713 65.6726 72.5876 67.6115 74.6732 67.9455C76.7587 68.2794 78.7237 66.8819 79.0622 64.8241Z" fill="#9F616A"/>
<path d="M71.5881 61.7447C71.418 61.1575 71.078 60.6542 71.248 60.6542C71.418 60.6542 71.503 60.2348 71.503 60.2348C71.503 60.2348 71.6731 60.1509 71.7581 60.2348C71.8431 60.3186 71.9281 59.6476 71.9281 59.6476C71.9281 59.6476 72.0131 59.3959 72.0981 59.5637C72.1831 59.7315 72.1831 59.6476 72.2682 59.3959C72.3532 59.1443 72.7783 58.9765 72.7783 58.9765C72.7783 58.9765 74.3935 59.0604 74.6485 58.7248C74.9036 58.3893 77.794 58.6409 78.3891 59.0604C78.9842 59.4798 81.3288 60.2296 79.9377 62.5827C80.7326 63.9553 79.5459 66.4035 79.2393 66.6939C78.7544 67.1533 78.4187 67.3189 76.1244 67.7693C75.6754 67.8575 74.5722 64.1514 74.5722 64.1514C74.5722 64.1514 71.7581 62.3319 71.5881 61.7447Z" fill="#2F2E41"/>
<path d="M73.2804 131.51L73.1571 131.461L70.9433 130.57L70.6035 130.435L69.1687 131.51H69.1667C68.3561 131.511 67.5789 131.829 67.0059 132.395C66.4329 132.96 66.1108 133.728 66.1104 134.527V134.625H73.966V131.51H73.2804Z" fill="#2F2E41"/>
<path d="M96.3703 134.761C96.3705 134.792 96.3645 134.822 96.3527 134.851C96.3408 134.879 96.3235 134.905 96.3015 134.927C96.2795 134.949 96.2534 134.966 96.2247 134.978C96.1959 134.99 96.1651 134.996 96.1339 134.996H55.7331C55.6701 134.996 55.6097 134.971 55.5652 134.927C55.5206 134.884 55.4956 134.824 55.4956 134.762C55.4956 134.7 55.5206 134.64 55.5652 134.596C55.6097 134.552 55.6701 134.527 55.7331 134.527H96.1339C96.1965 134.528 96.2566 134.552 96.3009 134.596C96.3452 134.64 96.3702 134.699 96.3703 134.761Z" fill="#CCCCCC"/>
</g>
<defs>
<clipPath id="clip0_1233_27097">
<rect width="80.6723" height="120" fill="white" transform="translate(35 15)"/>
</clipPath>
</defs>
</svg>
