<svg width="150" height="150" viewBox="0 0 150 150" fill="none" xmlns="http://www.w3.org/2000/svg">
<g clip-path="url(#clip0_1233_27100)">
<path d="M126.028 112.104C122.096 115.106 117.306 118.147 112.597 119.581C111.239 120.007 109.838 120.279 108.42 120.391C107.094 120.498 105.76 120.394 104.467 120.084C101.068 119.236 97.9154 117.752 94.8651 116.017C93.8685 115.45 92.8834 114.856 91.9041 114.25C90.3055 113.259 88.7227 112.234 87.1356 111.233C86.8979 111.081 86.6618 110.932 86.4241 110.785H86.4227C86.0396 110.544 85.6555 110.306 85.2705 110.072C85.2028 110.03 85.1352 109.989 85.066 109.948C84.3387 109.506 83.5989 109.074 82.8467 108.652C82.7545 108.602 82.6623 108.55 82.5702 108.499C81.1147 107.69 79.6188 106.956 78.0883 106.3C77.083 105.875 76.0648 105.492 75.0365 105.166H75.0351C74.6419 105.042 74.2473 104.925 73.8512 104.818C72.6637 104.491 71.4534 104.254 70.2306 104.108C68.5456 103.903 66.8413 103.917 65.1597 104.148C65.0459 104.164 64.9336 104.18 64.8198 104.199C60.2688 104.929 56.1153 107.393 51.5441 107.973C51.3958 107.992 51.2489 108.01 51.1005 108.023C51.0372 108.028 50.9738 108.036 50.9104 108.04C49.582 108.154 48.2452 108.121 46.924 107.942C43.2328 107.454 39.638 105.939 36.4019 104.03C28.8366 99.5658 22.7014 92.7048 18.9713 84.7593C18.3308 83.3976 17.7621 82.003 17.2675 80.5814C15.885 76.6394 15.1236 72.5053 15.0108 68.3281C14.6608 53.8349 22.8742 39.2941 35.7697 32.7393C48.6666 26.1844 65.6321 28.352 76.0331 38.4219C82.3426 44.5305 85.9935 52.8082 90.7418 60.2035C95.4901 67.5974 102.239 74.6606 110.943 75.7379C115.378 76.2866 120.018 75.2252 124.268 76.6058C126.621 77.3712 128.629 78.8355 130.246 80.7013C131.334 81.9674 132.244 83.3764 132.951 84.8892C133.469 85.9829 133.89 87.1205 134.208 88.2887C134.267 88.5039 134.322 88.719 134.375 88.9342C136.492 97.6047 133.109 106.694 126.028 112.104Z" fill="#F2F2F2"/>
<path d="M55.2049 96.4075H41.6671C39.6389 96.4075 37.9946 98.0562 37.9946 100.09V100.09C37.9946 102.124 39.6389 103.772 41.6671 103.772H55.2049C57.2332 103.772 58.8774 102.124 58.8774 100.09C58.8774 98.0562 57.2332 96.4075 55.2049 96.4075Z" fill="#3F3D56"/>
<path d="M51.1004 101.895V108.022C49.7098 108.157 48.3082 108.13 46.9238 107.942V101.895H51.1004Z" fill="#3F3D56"/>
<path d="M65.1595 104.148C65.0458 104.164 64.9334 104.18 64.8196 104.198C60.2686 104.929 56.1151 107.393 51.544 107.973C51.3956 107.992 51.2487 108.009 51.1004 108.022C51.037 108.028 50.9736 108.035 50.9103 108.04C49.7941 106.944 48.678 105.777 47.6295 104.568C47.0606 103.914 46.5105 103.247 45.9934 102.571C44.6512 100.826 43.5134 99.0328 42.7617 97.271C42.838 96.4262 42.3138 94.4723 42.0632 92.9762L42.0617 92.9747C41.9552 92.3465 41.8975 91.8007 41.9508 91.4497C42.2562 89.4251 43.9052 89.6576 44.4121 87.6734C44.8694 87.2928 45.3563 86.9494 45.8682 86.6466C45.9531 86.5961 46.0395 86.5455 46.1288 86.495L51.6304 82.6825L53.733 84.7505L56.9331 87.8987L60.4011 91.3082L57.4574 94.2903C57.4574 94.2903 59.9172 97.1338 62.7933 100.925C63.5652 101.943 64.3674 103.03 65.1595 104.148Z" fill="#2F2E41"/>
<path d="M112.597 101.895V119.581C111.239 120.007 109.838 120.279 108.42 120.391V101.895H112.597Z" fill="#3F3D56"/>
<path d="M117.997 100.451H104.46C102.431 100.451 100.787 102.1 100.787 104.133V104.133C100.787 106.167 102.431 107.816 104.46 107.816H117.997C120.026 107.816 121.67 106.167 121.67 104.133C121.67 102.1 120.026 100.451 117.997 100.451Z" fill="#3F3D56"/>
<path d="M85.0662 109.947C84.3389 109.506 83.5991 109.074 82.8468 108.652C82.7547 108.602 82.6625 108.55 82.5703 108.499L83.0657 108.287L84.4022 107.71L84.4152 107.705L84.4296 107.754L85.0662 109.947Z" fill="#FFB6B6"/>
<path d="M87.1358 111.233C86.8982 111.081 86.662 110.932 86.4244 110.785H86.4229C86.0398 110.544 85.6558 110.306 85.2708 110.072C85.2031 110.03 85.1354 109.989 85.0662 109.947C84.3389 109.506 83.5992 109.074 82.8469 108.652C82.7547 108.602 82.6626 108.55 82.5704 108.499C81.115 107.689 79.619 106.955 78.0885 106.3C77.0833 105.875 76.0651 105.492 75.0368 105.166H75.0353L74.2274 103.81L70.5909 97.7028L69.7916 96.3612C69.7916 96.3612 67.0653 97.1699 63.207 97.9454C61.8028 98.2284 60.2503 98.5057 58.6214 98.7397C56.8803 98.988 55.0541 99.1859 53.2394 99.2812C52.3739 99.3274 51.5112 99.3505 50.6615 99.3433C48.4652 99.3289 46.3553 99.1223 44.5076 98.6313C43.8912 98.0508 42.0333 97.2609 40.7026 96.5374H40.7011C40.1423 96.2341 39.6786 95.9438 39.4352 95.6853C38.0325 94.1979 39.2307 93.0383 37.9835 91.4151C37.9667 90.8196 37.997 90.2237 38.0742 89.633C38.0872 89.5348 38.1001 89.4352 38.116 89.3341L38.5092 82.6392L41.4299 82.2522L45.8743 81.663L50.6889 81.0247L51.2189 85.1866C51.2189 85.1866 54.9677 84.996 59.7174 85.0595C67.3461 85.1635 77.5542 85.926 78.9368 89.1984C79.0664 89.506 79.196 89.8165 79.3256 90.1269C79.6339 90.8692 79.9392 91.6153 80.2416 92.3653C81.3376 95.0803 82.3832 97.8212 83.338 100.412C83.9314 102.024 84.4902 103.577 85.0043 105.032C85.4177 106.201 85.8008 107.308 86.1507 108.326C86.4704 109.256 86.7599 110.112 87.0177 110.88C87.058 111 87.0969 111.119 87.1358 111.233Z" fill="#2F2E41"/>
<path d="M60.2682 70.6693L51.043 62.8131L57.045 56.7223L61.2323 63.5996L76.7539 66.6853C77.2206 66.3331 77.7794 66.1246 78.3622 66.0854C78.945 66.0462 79.5266 66.1778 80.0361 66.4643C80.5456 66.7507 80.9609 67.1797 81.2315 67.6988C81.5021 68.2178 81.6162 68.8047 81.5599 69.3876C81.5036 69.9706 81.2794 70.5246 80.9145 70.982C80.5497 71.4394 80.06 71.7805 79.5052 71.9637C78.9504 72.1469 78.3544 72.1642 77.7899 72.0136C77.2255 71.863 76.7169 71.551 76.3262 71.1156L60.2682 70.6693Z" fill="#A0616A"/>
<path d="M42.89 52.4881C41.8238 55.9659 51.9775 64.2606 51.9775 64.2606C52.0903 63.4256 57.8471 70.6253 58.2388 69.9733C59.3519 68.1201 60.5768 63.5394 61.8619 62.954C62.5968 62.6192 58.3808 57.9655 58.3808 57.9655C58.3808 57.9655 56.2302 55.1125 53.3907 51.4967C52.6069 50.4595 51.5741 49.638 50.3885 49.1088C49.2028 48.5795 47.9029 48.3596 46.6097 48.4696C46.6097 48.4696 43.9561 49.0103 42.89 52.4881Z" fill="#3F3D56"/>
<path d="M47.3791 44.789C50.8251 44.789 53.6186 41.9879 53.6186 38.5325C53.6186 35.0771 50.8251 32.276 47.3791 32.276C43.9332 32.276 41.1396 35.0771 41.1396 38.5325C41.1396 41.9879 43.9332 44.789 47.3791 44.789Z" fill="#A0616A"/>
<path d="M50.4988 48.9241C51.843 49.7255 52.6471 51.1978 53.1087 52.696C53.9633 55.4697 54.4777 58.3376 54.6405 61.2361L55.1281 69.9137L61.1663 88.3908C55.9332 92.8309 36.2626 89.3999 36.2626 89.3999C36.2626 89.3999 35.6588 89.1981 36.2626 88.5926C36.8665 87.9871 37.4543 88.5235 36.8505 87.9181C36.2467 87.3126 36.6629 87.9871 36.8642 87.3817C37.0655 86.7762 36.8642 87.1799 36.6629 86.978C36.4616 86.7762 38.2211 84.9598 38.2211 84.9598L36.6109 74.3538L34.5981 52.9606C37.0134 49.9332 41.8709 48.1486 41.8709 48.1486L43.126 45.8833L49.4015 46.3867L50.4988 48.9241Z" fill="#3F3D56"/>
<path d="M52.5228 35.2086C53.0077 35.5712 53.367 36.0773 53.55 36.6555C53.6203 35.7106 53.6248 34.7619 53.5634 33.8164C53.4898 33.152 53.0233 33.0026 52.4832 32.8294C51.9954 32.6729 51.4437 32.4962 51.2952 31.8512C49.3339 29.938 45.9196 30.0345 43.583 30.7018C42.2972 31.0691 41.5574 31.5409 41.4912 31.8173L41.4775 31.8742L41.4253 31.9004C40.4342 32.3973 40.2412 33.9664 40.254 35.1952C40.2781 37.5103 41.0753 40.1397 41.5244 40.3533C41.5482 40.3646 41.5542 40.3601 41.5645 40.3515C42.2407 39.8097 43.0657 40.3927 43.4283 40.7097C43.6421 39.2708 44.3307 37.9453 45.3839 36.9448C46.4372 35.9443 47.7945 35.3266 49.2389 35.1904C49.7106 35.1447 50.1786 35.066 50.6394 34.9549C50.8731 34.8943 51.1134 34.8626 51.3548 34.8608C51.7704 34.8544 52.178 34.9758 52.5228 35.2086Z" fill="#2F2E41"/>
<path d="M44.6604 80.0954L42.7518 79.1152C42.6495 79.0421 42.5769 78.9346 42.5471 78.8123C42.5174 78.6899 42.5325 78.561 42.5897 78.4489C42.647 78.3368 42.7425 78.2491 42.8589 78.2018C42.9753 78.1546 43.1047 78.1508 43.2236 78.1913L45.1323 79.1715C45.2345 79.2446 45.3072 79.3521 45.3369 79.4744C45.3667 79.5968 45.3515 79.7257 45.2943 79.8378C45.2371 79.9499 45.1415 80.0376 45.0252 80.0848C44.9088 80.1321 44.7793 80.1359 44.6604 80.0954L44.6604 80.0954Z" fill="#03DAC5"/>
<path d="M38.237 77.4694L35.0972 65.7486L43.4875 64.156L43.0363 72.2011L54.0606 83.5834C54.6442 83.5594 55.2222 83.7063 55.724 84.0061C56.2258 84.3058 56.6298 84.7455 56.8867 85.2715C57.1437 85.7975 57.2424 86.3871 57.1709 86.9684C57.0994 87.5497 56.8608 88.0976 56.4842 88.5453C56.1075 88.993 55.6091 89.3211 55.0497 89.4896C54.4903 89.6582 53.894 89.6599 53.3337 89.4945C52.7733 89.3291 52.2731 89.0039 51.8939 88.5583C51.5147 88.1128 51.273 87.5663 51.1983 86.9854L38.237 77.4694Z" fill="#A0616A"/>
<path d="M34.2386 52.6072C31.3906 54.8617 35.046 67.4722 35.046 67.4722C35.6119 66.8494 36.2696 76.0539 36.9613 75.7405C38.9274 74.8497 42.5309 71.7781 43.9202 72.0285C44.7146 72.1717 43.8823 65.9402 43.8823 65.9402C43.8823 65.9402 43.7292 62.3672 43.4415 57.774C43.3841 56.4739 42.9997 55.2095 42.3239 54.0984C41.6482 52.9874 40.7031 52.0659 39.5766 51.4196C39.5766 51.4196 37.0865 50.3527 34.2386 52.6072Z" fill="#3F3D56"/>
<path d="M132.951 84.8891L18.9713 84.7591C18.3308 83.3974 17.7621 82.0029 17.2676 80.5813L130.246 80.7012C131.334 81.9673 132.244 83.3763 132.951 84.8891Z" fill="#3F3D56"/>
<path d="M96.6483 115.19C96.0592 115.476 95.4649 115.751 94.8653 116.017C93.8687 115.45 92.8836 114.856 91.9043 114.249L95.5365 112.649L96.6483 115.19Z" fill="#FFB6B6"/>
<path d="M123.13 95.2896C122.54 96.0839 121.93 96.8623 121.303 97.6248C120.724 98.328 120.129 99.0178 119.52 99.6942C119.268 99.9743 119.013 100.253 118.752 100.529C118.272 101.044 117.782 101.551 117.282 102.05C116.38 102.334 114.554 102.835 112.597 103.303C111.172 103.642 109.679 103.964 108.42 104.169C107.715 104.296 107.003 104.373 106.287 104.398C105.437 104.405 104.575 104.382 103.709 104.336C102.733 104.284 101.755 104.203 100.788 104.099C98.2753 103.834 95.8414 103.423 93.7416 103C92.9725 102.847 92.2495 102.691 91.5842 102.539C90.324 102.255 89.2698 101.989 88.5065 101.787C87.6467 101.561 87.157 101.416 87.157 101.416L85.0039 105.032L83.8863 106.908L83.0654 108.287L82.8465 108.652C82.7543 108.601 82.6622 108.55 82.57 108.499C81.1146 107.689 79.6186 106.955 78.0881 106.3C77.0829 105.875 76.0647 105.492 75.0364 105.166H75.0349C74.6417 105.042 74.2471 104.925 73.8511 104.818C73.9749 104.484 74.1002 104.148 74.227 103.81C74.4632 103.179 74.7041 102.542 74.95 101.899C75.4814 100.507 76.0315 99.0949 76.5975 97.6897C77.0613 96.5359 77.5337 95.3864 78.0118 94.2527C78.2321 93.73 78.68 93.2707 79.3065 92.8678C79.6059 92.6785 79.9183 92.5106 80.2412 92.3653C82.0343 91.5465 84.6756 91.0136 87.5862 90.6713C87.8267 90.6439 88.0687 90.6165 88.3121 90.5905C90.7215 90.3363 93.2778 90.2049 95.6686 90.1442C96.8654 90.1139 98.0204 90.1023 99.0948 90.1009C99.4419 90.1009 99.7794 90.1019 100.107 90.1038H100.109C100.994 90.1081 101.81 90.1211 102.527 90.1356C102.666 90.1384 102.802 90.1428 102.934 90.1457H102.936C103.025 90.1471 103.113 90.15 103.199 90.1514C104.768 90.1919 105.73 90.241 105.73 90.241L106.103 87.3065L106.179 86.7144L106.251 86.1512V86.1498L106.26 86.079L106.319 86.0776L107.356 86.0574L116.072 85.887L120.833 85.7931L120.078 89.0366L118.833 94.3885C118.959 95.2347 123.173 94.5719 123.13 95.2896Z" fill="#2F2E41"/>
<path d="M97.7224 114.655C97.3667 114.837 97.0081 115.016 96.6481 115.19C96.059 115.476 95.4647 115.751 94.8651 116.017C93.8685 115.45 92.8834 114.856 91.9041 114.25C90.3054 113.259 88.7227 112.234 87.1356 111.233C86.898 111.081 86.6618 110.932 86.4241 110.785H86.4227C85.7688 109.812 85.102 108.798 84.4295 107.754C84.4194 107.739 84.4107 107.725 84.4021 107.711C84.2293 107.445 84.0574 107.177 83.8865 106.908C82.8107 105.218 81.7291 103.456 80.6792 101.657L83.3378 100.412L88.2805 98.0985L89.1331 97.7L91.5843 102.539L93.7705 106.856L94.2573 107.816L97.7224 114.655Z" fill="#2F2E41"/>
<path d="M98.4672 91.422L111.069 79.236L114.562 69.3193L109.41 67.0729C106.764 69.6147 103.903 77.5318 103.903 77.5318L95.2312 88.5944C95.1636 88.6176 95.0962 88.6422 95.0297 88.6717C94.6391 88.8444 94.2995 89.1152 94.0438 89.458C93.7881 89.8007 93.6249 90.2038 93.57 90.6283C93.515 91.0527 93.5702 91.4842 93.7302 91.8811C93.8901 92.2779 94.1495 92.6267 94.4832 92.8936C94.8169 93.1606 95.2136 93.3367 95.635 93.405C96.0564 93.4733 96.4882 93.4315 96.8888 93.2835C97.2893 93.1356 97.645 92.8865 97.9215 92.5604C98.1981 92.2343 98.386 91.8422 98.4672 91.422Z" fill="#FFB8B8"/>
<path d="M107.96 68.1801L114.495 70.2604L114.52 70.2563C116.952 69.8477 118.971 65.8643 120.235 62.5946C120.651 61.5162 120.644 60.3195 120.214 59.2465C119.784 58.1735 118.963 57.3043 117.918 56.8146C117.145 56.4586 116.288 56.3265 115.444 56.4333C114.6 56.5401 113.803 56.8815 113.142 57.4189L109.786 60.1684L107.96 68.1801Z" fill="#03DAC5"/>
<path d="M123.104 95.436L123.142 95.3851C125.181 92.6736 122.392 85.9588 121.971 84.985L123.867 84.4219L123.536 80.8024L123.377 79.1884L124.851 77.7848L124.856 77.749L125.87 70.515L127.196 65.7272C127.696 63.9172 127.707 62.0064 127.227 60.191C126.747 58.3755 125.794 56.7209 124.465 55.3968L121.754 52.6973L118.505 47.5986L113.059 47.4576L111.1 50.9465C109.279 51.3192 107.645 52.3209 106.485 53.777C105.324 55.233 104.71 57.0513 104.748 58.9149L104.933 68.2029L102.978 79.7106L102.924 81.801L101.005 83.8307L101.36 85.8827L99.9251 86.4558L99.2229 89.3717C98.9548 89.7081 97.1841 91.9524 97.168 92.578C97.1656 92.6719 97.2324 92.7645 97.3782 92.8691C98.5243 93.6913 104.93 95.473 107.813 94.4018C110.884 93.2619 122.92 95.4029 123.041 95.4247L123.104 95.436Z" fill="#03DAC5"/>
<path d="M115.306 45.8946C119.291 45.8946 122.522 42.6551 122.522 38.659C122.522 34.6629 119.291 31.4235 115.306 31.4235C111.321 31.4235 108.09 34.6629 108.09 38.659C108.09 42.6551 111.321 45.8946 115.306 45.8946Z" fill="#FFB8B8"/>
<path d="M114.426 45.9914C115.544 46.0089 116.661 45.9306 117.765 45.7575C118.859 45.5343 121.308 43.7352 121.99 42.6526C122.497 41.8483 122.821 40.5922 123.004 39.6802C123.25 38.4733 123.241 37.2281 122.977 36.0251C122.712 34.8221 122.199 33.6881 121.47 32.6967C121.19 32.282 120.803 31.951 120.35 31.7386C120.31 31.7229 120.269 31.709 120.227 31.6971C119.568 31.5231 118.976 31.1556 118.526 30.6416C118.439 30.5376 118.344 30.4401 118.243 30.3497C117.735 29.9199 117.133 29.6167 116.486 29.4649C115.441 29.1845 113.929 29.4628 111.992 30.2928C111.019 30.7099 109.955 30.5589 109.136 30.3809C109.09 30.372 109.043 30.3753 108.998 30.3905C108.954 30.4057 108.915 30.4322 108.884 30.4675C108.535 30.7954 108.076 30.979 107.598 30.9813C107.306 30.9942 106.999 31.4005 106.628 31.9303C106.543 32.0506 106.445 32.191 106.374 32.2763L106.365 32.1123L106.199 32.2953C105.939 32.5829 105.756 32.9318 105.666 33.3096C105.577 33.6874 105.584 34.0818 105.687 34.456C105.791 34.8302 105.987 35.1721 106.258 35.4499C106.528 35.7276 106.865 35.9321 107.235 36.0444C107.53 36.1229 107.831 36.1711 108.135 36.1882C108.32 36.2048 108.51 36.222 108.693 36.2538C109.279 36.3741 109.824 36.6448 110.275 37.0394C110.725 37.434 111.066 37.9391 111.264 38.5052C111.311 38.6361 111.387 38.7544 111.487 38.8511C111.586 38.9477 111.707 39.0201 111.839 39.0627C111.971 39.1053 112.111 39.1169 112.248 39.0966C112.385 39.0763 112.516 39.0247 112.63 38.9457C112.82 38.7972 113.043 38.697 113.28 38.6537C113.518 38.6103 113.762 38.6252 113.992 38.697C114.191 38.8079 114.346 38.9841 114.431 39.1959C114.534 39.4319 114.705 39.6318 114.921 39.77C115.663 40.1535 115.714 41.852 115.448 43.268C115.191 44.6329 114.684 45.6202 114.214 45.669C113.852 45.7066 113.811 45.7323 113.784 45.7965L113.761 45.8539L113.802 45.9076C114.001 45.9803 114.214 46.0089 114.426 45.9914Z" fill="#2F2E41"/>
<path d="M109.752 65.9925L106.97 60.4304C102.931 60.707 94.9161 65.3891 94.9161 65.3891L79.7511 68.6132C79.3018 68.4401 78.815 68.3886 78.3397 68.4641C77.8643 68.5395 77.4171 68.7392 77.0432 69.0431C76.6692 69.3469 76.3817 69.7442 76.2096 70.1949C76.0374 70.6455 75.9867 71.1337 76.0625 71.6103C76.1384 72.0869 76.3381 72.535 76.6415 72.9096C76.945 73.2842 77.3415 73.5721 77.7912 73.7441C78.2408 73.9162 78.7278 73.9665 79.203 73.8899C79.6781 73.8133 80.1248 73.6125 80.498 73.3078L99.7889 71.9212L109.752 65.9925Z" fill="#FFB8B8"/>
<path d="M108.63 66.9058L115.896 61.4912L117.176 56.8661C117.424 55.9572 117.414 54.9969 117.146 54.0936C116.878 53.1904 116.364 52.3802 115.661 51.7547C114.702 50.9133 113.461 50.4681 112.188 50.5093C110.915 50.5505 109.704 51.075 108.802 51.9766C106.068 54.7134 102.949 58.5315 103.619 61.179L103.626 61.2059L108.63 66.9058Z" fill="#03DAC5"/>
<path d="M99.635 81.3885H80.1924V83.988H99.635V81.3885Z" fill="white"/>
<path d="M49.9485 81.3885H30.5059V83.988H49.9485V81.3885Z" fill="white"/>
<path d="M52.2188 68.888V81.2647C52.2189 81.4224 52.2814 81.5736 52.3926 81.6852C52.5039 81.7967 52.6547 81.8594 52.812 81.8595H71.1031C71.2604 81.8594 71.4112 81.7967 71.5224 81.6852C71.6336 81.5736 71.6962 81.4224 71.6963 81.2647V68.888C71.6959 68.7304 71.6333 68.5794 71.5221 68.468C71.4109 68.3567 71.2602 68.294 71.1031 68.2938H52.812C52.6548 68.294 52.5041 68.3567 52.393 68.468C52.2818 68.5794 52.2191 68.7304 52.2188 68.888Z" fill="#3F3D56"/>
<path d="M52.6479 69.0421V81.1121C52.6481 81.1964 52.6815 81.2771 52.741 81.3367C52.8004 81.3963 52.881 81.4298 52.965 81.43H70.9509C71.0349 81.4298 71.1155 81.3963 71.1749 81.3367C71.2344 81.2771 71.2678 81.1964 71.2679 81.1121V69.0421C71.2679 68.9577 71.2346 68.8768 71.1751 68.8171C71.1157 68.7573 71.035 68.7237 70.9509 68.7235H52.965C52.8809 68.7237 52.8002 68.7573 52.7408 68.8171C52.6813 68.8768 52.648 68.9577 52.6479 69.0421Z" fill="#03DAC5"/>
<path d="M51.8359 83.6784C51.8694 83.7206 51.912 83.7545 51.9605 83.7778C52.009 83.8011 52.0621 83.813 52.1158 83.8127H71.7013C71.7548 83.8127 71.8077 83.8006 71.8561 83.7775C71.9044 83.7543 71.947 83.7207 71.9807 83.679C72.0145 83.6373 72.0385 83.5885 72.0511 83.5363C72.0637 83.4841 72.0645 83.4298 72.0536 83.3772L71.7495 81.9292C71.7369 81.8701 71.7098 81.8152 71.6706 81.7693C71.6314 81.7235 71.5814 81.6882 71.5251 81.6666C71.4844 81.6506 71.441 81.6424 71.3972 81.6425H52.4186C52.3749 81.6424 52.3315 81.6506 52.2907 81.6666C52.2345 81.6882 52.1845 81.7235 52.1453 81.7693C52.1061 81.8152 52.0789 81.8701 52.0663 81.9292L51.7623 83.3772C51.7515 83.4298 51.7525 83.484 51.7652 83.5362C51.778 83.5883 51.8021 83.6369 51.8359 83.6784Z" fill="#2F2E41"/>
<path d="M70.7254 82.2662H71.188C71.2268 82.2662 71.2583 82.2347 71.2583 82.1957V81.9738C71.2583 81.9349 71.2268 81.9033 71.188 81.9033H70.7254C70.6866 81.9033 70.6551 81.9349 70.6551 81.9738V82.1957C70.6551 82.2347 70.6866 82.2662 70.7254 82.2662Z" fill="#3F3D56"/>
<path d="M69.5188 82.2662H69.9814C70.0203 82.2662 70.0518 82.2347 70.0518 82.1957V81.9738C70.0518 81.9349 70.0203 81.9033 69.9814 81.9033H69.5188C69.48 81.9033 69.4485 81.9349 69.4485 81.9738V82.1957C69.4485 82.2347 69.48 82.2662 69.5188 82.2662Z" fill="#3F3D56"/>
<path d="M68.3128 82.2662H68.7754C68.8142 82.2662 68.8457 82.2347 68.8457 82.1957V81.9738C68.8457 81.9349 68.8142 81.9033 68.7754 81.9033H68.3128C68.274 81.9033 68.2425 81.9349 68.2425 81.9738V82.1957C68.2425 82.2347 68.274 82.2662 68.3128 82.2662Z" fill="#3F3D56"/>
<path d="M67.1062 82.2662H67.5688C67.6077 82.2662 67.6392 82.2347 67.6392 82.1957V81.9738C67.6392 81.9349 67.6077 81.9033 67.5688 81.9033H67.1062C67.0674 81.9033 67.0359 81.9349 67.0359 81.9738V82.1957C67.0359 82.2347 67.0674 82.2662 67.1062 82.2662Z" fill="#3F3D56"/>
<path d="M65.8997 82.2662H66.3623C66.4011 82.2662 66.4326 82.2347 66.4326 82.1957V81.9738C66.4326 81.9349 66.4011 81.9033 66.3623 81.9033H65.8997C65.8609 81.9033 65.8294 81.9349 65.8294 81.9738V82.1957C65.8294 82.2347 65.8609 82.2662 65.8997 82.2662Z" fill="#3F3D56"/>
<path d="M64.6932 82.2662H65.1558C65.1946 82.2662 65.2261 82.2347 65.2261 82.1957V81.9738C65.2261 81.9349 65.1946 81.9033 65.1558 81.9033H64.6932C64.6543 81.9033 64.6229 81.9349 64.6229 81.9738V82.1957C64.6229 82.2347 64.6543 82.2662 64.6932 82.2662Z" fill="#3F3D56"/>
<path d="M63.4866 82.2662H63.9492C63.9881 82.2662 64.0195 82.2347 64.0195 82.1957V81.9738C64.0195 81.9349 63.9881 81.9033 63.9492 81.9033H63.4866C63.4478 81.9033 63.4163 81.9349 63.4163 81.9738V82.1957C63.4163 82.2347 63.4478 82.2662 63.4866 82.2662Z" fill="#3F3D56"/>
<path d="M62.2806 82.2662H62.7432C62.782 82.2662 62.8135 82.2347 62.8135 82.1957V81.9738C62.8135 81.9349 62.782 81.9033 62.7432 81.9033H62.2806C62.2417 81.9033 62.2103 81.9349 62.2103 81.9738V82.1957C62.2103 82.2347 62.2417 82.2662 62.2806 82.2662Z" fill="#3F3D56"/>
<path d="M61.074 82.2662H61.5366C61.5755 82.2662 61.6069 82.2347 61.6069 82.1957V81.9738C61.6069 81.9349 61.5755 81.9033 61.5366 81.9033H61.074C61.0352 81.9033 61.0037 81.9349 61.0037 81.9738V82.1957C61.0037 82.2347 61.0352 82.2662 61.074 82.2662Z" fill="#3F3D56"/>
<path d="M59.8675 82.2662H60.3301C60.3689 82.2662 60.4004 82.2347 60.4004 82.1957V81.9738C60.4004 81.9349 60.3689 81.9033 60.3301 81.9033H59.8675C59.8286 81.9033 59.7972 81.9349 59.7972 81.9738V82.1957C59.7972 82.2347 59.8286 82.2662 59.8675 82.2662Z" fill="#3F3D56"/>
<path d="M58.6609 82.2662H59.1235C59.1624 82.2662 59.1938 82.2347 59.1938 82.1957V81.9738C59.1938 81.9349 59.1624 81.9033 59.1235 81.9033H58.6609C58.6221 81.9033 58.5906 81.9349 58.5906 81.9738V82.1957C58.5906 82.2347 58.6221 82.2662 58.6609 82.2662Z" fill="#3F3D56"/>
<path d="M57.4544 82.2662H57.917C57.9558 82.2662 57.9873 82.2347 57.9873 82.1957V81.9738C57.9873 81.9349 57.9558 81.9033 57.917 81.9033H57.4544C57.4156 81.9033 57.3841 81.9349 57.3841 81.9738V82.1957C57.3841 82.2347 57.4156 82.2662 57.4544 82.2662Z" fill="#3F3D56"/>
<path d="M56.2483 82.2662H56.7109C56.7498 82.2662 56.7812 82.2347 56.7812 82.1957V81.9738C56.7812 81.9349 56.7498 81.9033 56.7109 81.9033H56.2483C56.2095 81.9033 56.178 81.9349 56.178 81.9738V82.1957C56.178 82.2347 56.2095 82.2662 56.2483 82.2662Z" fill="#3F3D56"/>
<path d="M55.0418 82.2662H55.5044C55.5432 82.2662 55.5747 82.2347 55.5747 82.1957V81.9738C55.5747 81.9349 55.5432 81.9033 55.5044 81.9033H55.0418C55.003 81.9033 54.9715 81.9349 54.9715 81.9738V82.1957C54.9715 82.2347 55.003 82.2662 55.0418 82.2662Z" fill="#3F3D56"/>
<path d="M53.8353 82.2662H54.2979C54.3367 82.2662 54.3682 82.2347 54.3682 82.1957V81.9738C54.3682 81.9349 54.3367 81.9033 54.2979 81.9033H53.8353C53.7964 81.9033 53.7649 81.9349 53.7649 81.9738V82.1957C53.7649 82.2347 53.7964 82.2662 53.8353 82.2662Z" fill="#3F3D56"/>
<path d="M52.6287 82.2662H53.0913C53.1301 82.2662 53.1616 82.2347 53.1616 82.1957V81.9738C53.1616 81.9349 53.1301 81.9033 53.0913 81.9033H52.6287C52.5899 81.9033 52.5584 81.9349 52.5584 81.9738V82.1957C52.5584 82.2347 52.5899 82.2662 52.6287 82.2662Z" fill="#3F3D56"/>
<path d="M70.7395 82.8711H71.2021C71.241 82.8711 71.2725 82.8395 71.2725 82.8006V82.5787C71.2725 82.5397 71.241 82.5082 71.2021 82.5082H70.7395C70.7007 82.5082 70.6692 82.5397 70.6692 82.5787V82.8006C70.6692 82.8395 70.7007 82.8711 70.7395 82.8711Z" fill="#3F3D56"/>
<path d="M69.5335 82.8711H69.9961C70.0349 82.8711 70.0664 82.8395 70.0664 82.8006V82.5787C70.0664 82.5397 70.0349 82.5082 69.9961 82.5082H69.5335C69.4947 82.5082 69.4632 82.5397 69.4632 82.5787V82.8006C69.4632 82.8395 69.4947 82.8711 69.5335 82.8711Z" fill="#3F3D56"/>
<path d="M68.3269 82.8711H68.7896C68.8284 82.8711 68.8599 82.8395 68.8599 82.8006V82.5787C68.8599 82.5397 68.8284 82.5082 68.7896 82.5082H68.3269C68.2881 82.5082 68.2566 82.5397 68.2566 82.5787V82.8006C68.2566 82.8395 68.2881 82.8711 68.3269 82.8711Z" fill="#3F3D56"/>
<path d="M67.1204 82.8711H67.583C67.6218 82.8711 67.6533 82.8395 67.6533 82.8006V82.5787C67.6533 82.5397 67.6218 82.5082 67.583 82.5082H67.1204C67.0816 82.5082 67.0501 82.5397 67.0501 82.5787V82.8006C67.0501 82.8395 67.0816 82.8711 67.1204 82.8711Z" fill="#3F3D56"/>
<path d="M65.9139 82.8711H66.3765C66.4153 82.8711 66.4468 82.8395 66.4468 82.8006V82.5787C66.4468 82.5397 66.4153 82.5082 66.3765 82.5082H65.9139C65.875 82.5082 65.8435 82.5397 65.8435 82.5787V82.8006C65.8435 82.8395 65.875 82.8711 65.9139 82.8711Z" fill="#3F3D56"/>
<path d="M64.7073 82.8711H65.1699C65.2088 82.8711 65.2402 82.8395 65.2402 82.8006V82.5787C65.2402 82.5397 65.2088 82.5082 65.1699 82.5082H64.7073C64.6685 82.5082 64.637 82.5397 64.637 82.5787V82.8006C64.637 82.8395 64.6685 82.8711 64.7073 82.8711Z" fill="#3F3D56"/>
<path d="M63.5013 82.8711H63.9639C64.0027 82.8711 64.0342 82.8395 64.0342 82.8006V82.5787C64.0342 82.5397 64.0027 82.5082 63.9639 82.5082H63.5013C63.4624 82.5082 63.431 82.5397 63.431 82.5787V82.8006C63.431 82.8395 63.4624 82.8711 63.5013 82.8711Z" fill="#3F3D56"/>
<path d="M62.2947 82.8711H62.7573C62.7962 82.8711 62.8276 82.8395 62.8276 82.8006V82.5787C62.8276 82.5397 62.7962 82.5082 62.7573 82.5082H62.2947C62.2559 82.5082 62.2244 82.5397 62.2244 82.5787V82.8006C62.2244 82.8395 62.2559 82.8711 62.2947 82.8711Z" fill="#3F3D56"/>
<path d="M61.0882 82.8711H61.5508C61.5896 82.8711 61.6211 82.8395 61.6211 82.8006V82.5787C61.6211 82.5397 61.5896 82.5082 61.5508 82.5082H61.0882C61.0493 82.5082 61.0179 82.5397 61.0179 82.5787V82.8006C61.0179 82.8395 61.0493 82.8711 61.0882 82.8711Z" fill="#3F3D56"/>
<path d="M59.8816 82.8711H60.3442C60.3831 82.8711 60.4146 82.8395 60.4146 82.8006V82.5787C60.4146 82.5397 60.3831 82.5082 60.3442 82.5082H59.8816C59.8428 82.5082 59.8113 82.5397 59.8113 82.5787V82.8006C59.8113 82.8395 59.8428 82.8711 59.8816 82.8711Z" fill="#3F3D56"/>
<path d="M58.6751 82.8711H59.1377C59.1765 82.8711 59.208 82.8395 59.208 82.8006V82.5787C59.208 82.5397 59.1765 82.5082 59.1377 82.5082H58.6751C58.6363 82.5082 58.6048 82.5397 58.6048 82.5787V82.8006C58.6048 82.8395 58.6363 82.8711 58.6751 82.8711Z" fill="#3F3D56"/>
<path d="M57.469 82.8711H57.9316C57.9705 82.8711 58.002 82.8395 58.002 82.8006V82.5787C58.002 82.5397 57.9705 82.5082 57.9316 82.5082H57.469C57.4302 82.5082 57.3987 82.5397 57.3987 82.5787V82.8006C57.3987 82.8395 57.4302 82.8711 57.469 82.8711Z" fill="#3F3D56"/>
<path d="M56.2625 82.8711H56.7251C56.7639 82.8711 56.7954 82.8395 56.7954 82.8006V82.5787C56.7954 82.5397 56.7639 82.5082 56.7251 82.5082H56.2625C56.2237 82.5082 56.1922 82.5397 56.1922 82.5787V82.8006C56.1922 82.8395 56.2237 82.8711 56.2625 82.8711Z" fill="#3F3D56"/>
<path d="M55.056 82.8711H55.5186C55.5574 82.8711 55.5889 82.8395 55.5889 82.8006V82.5787C55.5889 82.5397 55.5574 82.5082 55.5186 82.5082H55.056C55.0171 82.5082 54.9856 82.5397 54.9856 82.5787V82.8006C54.9856 82.8395 55.0171 82.8711 55.056 82.8711Z" fill="#3F3D56"/>
<path d="M53.8494 82.8711H54.312C54.3508 82.8711 54.3823 82.8395 54.3823 82.8006V82.5787C54.3823 82.5397 54.3508 82.5082 54.312 82.5082H53.8494C53.8106 82.5082 53.7791 82.5397 53.7791 82.5787V82.8006C53.7791 82.8395 53.8106 82.8711 53.8494 82.8711Z" fill="#3F3D56"/>
<path d="M52.6429 82.8711H53.1055C53.1443 82.8711 53.1758 82.8395 53.1758 82.8006V82.5787C53.1758 82.5397 53.1443 82.5082 53.1055 82.5082H52.6429C52.604 82.5082 52.5726 82.5397 52.5726 82.5787V82.8006C52.5726 82.8395 52.604 82.8711 52.6429 82.8711Z" fill="#3F3D56"/>
<path d="M60.7265 83.5969H65.4116C65.4505 83.5969 65.4819 83.5654 65.4819 83.5264V83.3045C65.4819 83.2656 65.4505 83.234 65.4116 83.234H60.7265C60.6876 83.234 60.6561 83.2656 60.6561 83.3045V83.5264C60.6561 83.5654 60.6876 83.5969 60.7265 83.5969Z" fill="#3F3D56"/>
</g>
<defs>
<clipPath id="clip0_1233_27100">
<rect width="120" height="91.4286" fill="white" transform="translate(15 29)"/>
</clipPath>
</defs>
</svg>
