<svg width="150" height="150" viewBox="0 0 150 150" fill="none" xmlns="http://www.w3.org/2000/svg">
<path d="M113.783 41.1484C113.107 48.5669 111.183 56.3893 108.166 63.9369C104.435 73.2705 99.3369 81.4915 93.4234 87.7111L93.0952 87.4258C98.9801 81.2362 104.055 73.0514 107.77 63.7565C111.129 55.3567 113.126 46.6156 113.549 38.4818L113.969 38.5518C113.924 39.4108 113.862 40.2764 113.783 41.1484Z" fill="#F2F2F2"/>
<path d="M116.472 84.2339C108.166 97.4085 98.0892 106.822 88.0976 110.74L87.8955 110.37C97.818 106.479 107.836 97.1143 116.104 83.9999L116.472 84.2339Z" fill="#F2F2F2"/>
<path d="M113.581 50.3847C112.906 57.8033 110.982 65.6257 107.964 73.1733C104.233 82.5069 99.1352 90.7279 93.2217 96.9475L92.8936 96.6622C98.7784 90.4725 103.853 82.2878 107.569 72.9928C110.927 64.5931 112.924 55.8519 113.348 47.7181L113.767 47.7881C113.722 48.6472 113.66 49.5127 113.581 50.3847Z" fill="#F2F2F2"/>
<path d="M20.3372 69.4304H14.8875C14.7711 69.4307 14.6561 69.4046 14.5512 69.3542C14.4463 69.3039 14.3542 69.2305 14.2819 69.1395C14.2104 69.0509 14.1599 68.9473 14.1343 68.8365C14.1087 68.7257 14.1086 68.6105 14.134 68.4996C14.653 66.2163 14.6204 63.8427 14.0389 61.5744C14.0021 61.425 14.011 61.2681 14.0644 61.1238C14.1179 60.9796 14.2134 60.8545 14.3387 60.7649C17.1409 58.7555 19.3477 58.8138 20.8979 60.9385C20.9678 61.0353 21.0142 61.147 21.0336 61.2647C21.4478 63.7474 21.4707 66.2793 21.1015 68.769C21.0758 68.9527 20.9843 69.121 20.8437 69.2426C20.7032 69.3642 20.5233 69.4309 20.3372 69.4304Z" fill="#E6E6E6"/>
<path d="M18.6474 63.9894H16.7727C16.669 63.9894 16.5696 63.9483 16.4963 63.8752C16.423 63.8021 16.3818 63.703 16.3818 63.5997C16.3818 63.4963 16.423 63.3972 16.4963 63.3241C16.5696 63.251 16.669 63.21 16.7727 63.21H18.6474C18.7509 63.2102 18.8501 63.2513 18.9233 63.3244C18.9964 63.3975 19.0374 63.4965 19.0374 63.5997C19.0374 63.7029 18.9964 63.8019 18.9233 63.8749C18.8501 63.948 18.7509 63.9892 18.6474 63.9894Z" fill="white"/>
<path d="M18.6474 65.3561H16.7727C16.669 65.3561 16.5696 65.315 16.4963 65.2419C16.423 65.1688 16.3818 65.0697 16.3818 64.9664C16.3818 64.863 16.423 64.7639 16.4963 64.6908C16.5696 64.6177 16.669 64.5767 16.7727 64.5767H18.6474C18.7509 64.5769 18.8501 64.618 18.9233 64.6911C18.9964 64.7642 19.0374 64.8632 19.0374 64.9664C19.0374 65.0696 18.9964 65.1686 18.9233 65.2416C18.8501 65.3147 18.7509 65.3559 18.6474 65.3561Z" fill="white"/>
<path d="M18.6474 66.7228H16.7727C16.669 66.7228 16.5696 66.6817 16.4963 66.6086C16.423 66.5355 16.3818 66.4364 16.3818 66.3331C16.3818 66.2297 16.423 66.1306 16.4963 66.0575C16.5696 65.9844 16.669 65.9434 16.7727 65.9434H18.6474C18.7509 65.9436 18.8501 65.9847 18.9233 66.0578C18.9964 66.1309 19.0374 66.2299 19.0374 66.3331C19.0374 66.4363 18.9964 66.5353 18.9233 66.6083C18.8501 66.6814 18.7509 66.7226 18.6474 66.7228Z" fill="white"/>
<path d="M119.379 93.6899H113.929C113.813 93.6902 113.698 93.6641 113.593 93.6138C113.488 93.5634 113.396 93.49 113.323 93.3991C113.252 93.3104 113.201 93.2068 113.176 93.096C113.15 92.9852 113.15 92.87 113.176 92.7592C113.695 90.4758 113.662 88.1022 113.08 85.8339C113.044 85.6845 113.053 85.5276 113.106 85.3834C113.159 85.2391 113.255 85.1141 113.38 85.0244C116.182 83.015 118.389 83.0733 119.939 85.198C120.009 85.2948 120.056 85.4065 120.075 85.5242C120.489 88.0069 120.512 90.5388 120.143 93.0285C120.117 93.2123 120.026 93.3805 119.885 93.5021C119.745 93.6237 119.565 93.6905 119.379 93.6899Z" fill="#E6E6E6"/>
<path d="M117.689 88.2488H115.814C115.711 88.2486 115.612 88.2074 115.539 88.1343C115.465 88.0613 115.424 87.9623 115.424 87.8591C115.424 87.7559 115.465 87.6569 115.539 87.5838C115.612 87.5107 115.711 87.4696 115.814 87.4694H117.689C117.793 87.4694 117.892 87.5104 117.965 87.5835C118.039 87.6566 118.08 87.7557 118.08 87.8591C118.08 87.9624 118.039 88.0616 117.965 88.1346C117.892 88.2077 117.793 88.2488 117.689 88.2488Z" fill="white"/>
<path d="M117.689 89.6156H115.814C115.711 89.6154 115.612 89.5742 115.539 89.5012C115.465 89.4281 115.424 89.3291 115.424 89.2259C115.424 89.1227 115.465 89.0237 115.539 88.9506C115.612 88.8776 115.711 88.8364 115.814 88.8362H117.689C117.793 88.8362 117.892 88.8772 117.965 88.9503C118.039 89.0234 118.08 89.1225 118.08 89.2259C118.08 89.3293 118.039 89.4284 117.965 89.5015C117.892 89.5745 117.793 89.6156 117.689 89.6156Z" fill="white"/>
<path d="M117.689 90.9823H115.814C115.711 90.9821 115.612 90.9409 115.539 90.8679C115.465 90.7948 115.424 90.6958 115.424 90.5926C115.424 90.4894 115.465 90.3904 115.539 90.3173C115.612 90.2442 115.711 90.2031 115.814 90.2029H117.689C117.793 90.2029 117.892 90.2439 117.965 90.317C118.039 90.3901 118.08 90.4892 118.08 90.5926C118.08 90.6959 118.039 90.7951 117.965 90.8682C117.892 90.9412 117.793 90.9823 117.689 90.9823Z" fill="white"/>
<path d="M140 126.92C140 126.947 139.995 126.973 139.985 126.998C139.974 127.023 139.959 127.045 139.94 127.064C139.921 127.083 139.899 127.098 139.874 127.108C139.849 127.118 139.823 127.123 139.796 127.123H10.2039C10.1498 127.123 10.098 127.102 10.0597 127.064C10.0215 127.026 10 126.974 10 126.92C10 126.866 10.0215 126.814 10.0597 126.776C10.098 126.738 10.1498 126.717 10.2039 126.717H139.796C139.823 126.717 139.849 126.722 139.874 126.732C139.899 126.742 139.921 126.757 139.94 126.776C139.959 126.795 139.974 126.817 139.985 126.842C139.995 126.867 140 126.893 140 126.92Z" fill="#CCCCCC"/>
<path d="M73.4578 61.9672C75.2559 61.9672 76.7135 60.5139 76.7135 58.7212C76.7135 56.9285 75.2559 55.4752 73.4578 55.4752C71.6598 55.4752 70.2021 56.9285 70.2021 58.7212C70.2021 60.5139 71.6598 61.9672 73.4578 61.9672Z" fill="#03DAC5"/>
<path d="M75.1298 57.3682C75.0808 57.3216 75.0157 57.2957 74.948 57.2957C74.8803 57.2957 74.8152 57.3216 74.7663 57.3682C74.0755 57.9175 73.455 58.5494 72.9188 59.2497C72.7871 58.9957 72.6555 58.7418 72.5239 58.4879C72.3719 58.1947 71.9282 58.4537 72.08 58.7465C72.2725 59.118 72.4651 59.4894 72.6576 59.8608C72.6808 59.8987 72.7134 59.9301 72.7523 59.9518C72.7912 59.9735 72.835 59.985 72.8795 59.985C72.9241 59.985 72.9679 59.9735 73.0068 59.9518C73.0457 59.9301 73.0783 59.8987 73.1015 59.8608C73.6729 59.0585 74.3558 58.3412 75.1298 57.7306C75.1776 57.6824 75.2044 57.6173 75.2044 57.5494C75.2044 57.4816 75.1776 57.4165 75.1298 57.3682Z" fill="white"/>
<path d="M58.89 67.9256L53.9805 60.2385L59.6656 57.2029L61.1577 63.0678L71.6711 68.7321C72.0862 68.5831 72.5357 68.5578 72.965 68.6592C73.3942 68.7606 73.7846 68.9844 74.0885 69.3032C74.3924 69.6219 74.5968 70.022 74.6766 70.4546C74.7564 70.8871 74.7082 71.3335 74.538 71.7392C74.3677 72.145 74.0828 72.4926 73.7178 72.7397C73.3528 72.9867 72.9237 73.1226 72.4826 73.1306C72.0416 73.1387 71.6077 73.0187 71.2339 72.7852C70.8601 72.5516 70.5625 72.2147 70.3774 71.8155L58.89 67.9256Z" fill="#A0616A"/>
<path d="M50.3938 51.0185C48.8512 53.2767 54.3332 61.4848 54.3332 61.4848C54.6002 60.9108 57.1531 67.3559 57.5807 66.9752C58.7959 65.8931 60.6983 62.879 61.7557 62.7447C62.3604 62.6678 60.3532 58.3919 60.3532 58.3919C60.3532 58.3919 59.4359 55.8669 58.1911 52.6416C57.8561 51.7232 57.2935 50.9043 56.5557 50.261C55.8179 49.6177 54.9289 49.171 53.9713 48.9624C53.9713 48.9624 51.9364 48.7604 50.3938 51.0185Z" fill="#3F3D56"/>
<path d="M50.4693 124.589L52.8009 124.589L53.91 115.622L50.4688 115.622L50.4693 124.589Z" fill="#A0616A"/>
<path d="M49.874 123.83L50.5303 123.83L53.0926 122.791L54.4658 123.83H54.466C55.2421 123.83 55.9864 124.137 56.5351 124.684C57.0839 125.231 57.3922 125.973 57.3923 126.747V126.842L49.8742 126.842L49.874 123.83Z" fill="#2F2E41"/>
<path d="M61.3011 124.589L63.6327 124.589L64.742 115.622L61.3008 115.622L61.3011 124.589Z" fill="#A0616A"/>
<path d="M60.707 123.83L61.3633 123.83L63.9256 122.791L65.2989 123.83H65.299C66.0751 123.83 66.8194 124.137 67.3682 124.684C67.9169 125.231 68.2253 125.973 68.2253 126.747V126.842L60.7072 126.842L60.707 123.83Z" fill="#2F2E41"/>
<path d="M62.3106 75.5677L47.1446 75.9458C44.2643 77.5056 44.2205 80.8815 45.1643 84.8897C45.1643 84.8897 44.8457 87.2721 45.4829 87.9074C46.1201 88.5427 46.4387 88.5427 46.1201 89.6545C45.8015 90.7662 47.4848 92.5821 47.2803 92.7859C47.0759 92.9898 46.598 94.1015 46.598 94.1015L48.191 103.155C48.191 103.155 49.3061 118.878 49.6247 119.196C49.9433 119.513 50.2619 119.196 49.9433 119.99C49.6247 120.784 49.3061 120.466 49.6247 120.784C49.9069 121.087 50.1728 121.405 50.4212 121.737H54.2726C54.2726 121.737 54.5629 120.149 54.5629 119.99C54.5629 119.831 54.8815 118.878 54.8815 118.719C54.8815 118.56 54.5999 118.28 54.5999 118.28C54.5026 117.957 54.4369 117.625 54.4036 117.29C54.4036 116.972 53.4478 104.743 53.4478 104.743L55.3594 88.8603L59.9791 104.425C59.9791 104.425 59.9791 118.084 60.2977 118.402C60.6163 118.719 60.6163 118.56 60.457 119.196C60.2977 119.831 59.6605 119.672 60.1384 120.149C60.6163 120.625 60.7756 119.831 60.6163 120.625L60.457 121.419L65.236 121.487C65.236 121.487 65.8731 120.149 65.5545 119.672C65.236 119.196 65.2551 119.326 65.6438 118.546C66.0324 117.766 66.1917 117.608 66.0325 117.449C65.8732 117.29 65.8731 116.445 65.8731 116.445L65.0767 101.249C65.0767 101.249 64.9174 85.2074 64.9174 84.7309C64.9053 84.4857 64.9506 84.2411 65.0497 84.0164V83.3697L64.4395 81.078L62.3106 75.5677Z" fill="#2F2E41"/>
<path d="M53.2004 44.1265C55.8029 44.1265 57.9126 42.0231 57.9126 39.4284C57.9126 36.8338 55.8029 34.7303 53.2004 34.7303C50.598 34.7303 48.4883 36.8338 48.4883 39.4284C48.4883 42.0231 50.598 44.1265 53.2004 44.1265Z" fill="#A0616A"/>
<path d="M55.5562 47.2317C56.5714 47.8334 57.1786 48.939 57.5272 50.064C58.1726 52.1468 58.5611 54.3003 58.6841 56.4769L59.0523 62.993L63.6124 76.8677C59.6603 80.2019 44.8049 77.6255 44.8049 77.6255C44.8049 77.6255 44.3489 77.4739 44.8049 77.0193C45.2609 76.5646 45.7048 76.9674 45.2488 76.5128C44.7928 76.0581 45.1072 76.5646 45.2592 76.11C45.4112 75.6553 45.2592 75.9584 45.1072 75.8069C44.9552 75.6553 46.2839 74.2913 46.2839 74.2913L45.0679 66.3271L43.5479 50.2627C45.3719 47.9894 49.0403 46.6493 49.0403 46.6493L49.9882 44.9482L54.7276 45.3263L55.5562 47.2317Z" fill="#3F3D56"/>
<path d="M57.0843 36.9325C57.4506 37.2048 57.7219 37.5848 57.8601 38.019C57.9132 37.3095 57.9166 36.5971 57.8702 35.8871C57.8147 35.3882 57.4624 35.276 57.0544 35.1459C56.686 35.0285 56.2694 34.8957 56.1573 34.4114C54.6761 32.9747 52.0975 33.0472 50.3329 33.5483C49.3619 33.8241 48.8031 34.1784 48.7531 34.3859L48.7428 34.4287L48.7034 34.4483C47.9549 34.8214 47.8092 35.9997 47.8188 36.9224C47.837 38.6609 48.4391 40.6353 48.7782 40.7957C48.7962 40.8042 48.8007 40.8009 48.8085 40.7944C49.3192 40.3875 49.9422 40.8254 50.2161 41.0634C50.3776 39.9829 50.8975 38.9875 51.693 38.2363C52.4884 37.485 53.5134 37.0212 54.6043 36.9188C54.9606 36.8845 55.314 36.8254 55.662 36.742C55.8385 36.6965 56.0199 36.6727 56.2023 36.6713C56.5161 36.6666 56.8239 36.7577 57.0843 36.9325Z" fill="#2F2E41"/>
<path d="M86.3376 79.3112L95.402 70.1339L97.7902 62.794L93.9471 61.2441C92.0433 63.1588 90.0835 69.02 90.0835 69.02L83.8968 77.2987C83.8473 77.317 83.7981 77.3364 83.7496 77.3592C83.4647 77.4933 83.2194 77.6984 83.0373 77.9547C82.8552 78.2109 82.7424 78.5097 82.71 78.822C82.6775 79.1344 82.7264 79.4499 82.8519 79.7379C82.9775 80.0259 83.1754 80.2768 83.4266 80.4663C83.6778 80.6557 83.9738 80.7774 84.286 80.8195C84.5981 80.8616 84.9159 80.8227 85.2086 80.7066C85.5012 80.5904 85.7589 80.401 85.9567 80.1566C86.1544 79.9121 86.2856 79.621 86.3376 79.3112Z" fill="#FFB8B8"/>
<path d="M92.8979 62.0839L97.7581 63.4857L97.7762 63.4822C99.5626 63.1363 100.976 60.1763 101.847 57.7541C102.133 56.9552 102.105 56.0776 101.767 55.2988C101.429 54.5199 100.808 53.898 100.028 53.5587C99.4507 53.3122 98.816 53.2316 98.1954 53.3259C97.5748 53.4203 96.993 53.6858 96.5159 54.0926L94.0927 56.1729L92.8979 62.0839Z" fill="#03DAC5"/>
<path d="M88.74 124.316L86.1261 124.316L84.8828 114.265L88.7403 114.265L88.74 124.316Z" fill="#FFB8B8"/>
<path d="M89.4065 123.465L88.6708 123.465L85.7985 122.301L84.2591 123.465H84.2589C83.3889 123.465 82.5545 123.81 81.9394 124.423C81.3242 125.036 80.9786 125.868 80.9785 126.736V126.842L89.4063 126.842L89.4065 123.465Z" fill="#2F2E41"/>
<path d="M100.338 124.316L97.7238 124.316L96.4805 114.265L100.338 114.265L100.338 124.316Z" fill="#FFB8B8"/>
<path d="M101.004 123.465L100.268 123.465L97.3962 122.301L95.8567 123.465H95.8565C94.9865 123.465 94.1522 123.81 93.537 124.423C92.9219 125.036 92.5762 125.868 92.5762 126.736V126.842L101.004 126.842L101.004 123.465Z" fill="#2F2E41"/>
<path d="M104.324 81.0206C104.324 81.0206 104.629 84.6721 103.866 88.1715C103.103 91.6708 103.103 101.526 103.103 101.526L101.424 120.731L96.3884 120.274L95.015 88.1715L90.1317 98.9738L90.5896 100.495L89.9798 100.876C89.9798 100.876 90.4369 103.843 90.1317 103.843C89.8265 103.843 89.0635 104.299 89.0635 104.299L89.6739 119.97L84.4855 119.818L82.6543 97.7567L84.6381 85.1285L84.7907 82.6942L85.4774 82.7223L85.8271 81.7053L86.4693 79.9556L104.324 81.0206Z" fill="#2F2E41"/>
<path d="M104.587 81.7877L104.614 81.7497C106.066 79.7221 103.882 74.85 103.552 74.1438L104.94 73.6948L104.628 71.0462L104.48 69.8655L105.54 68.808L105.543 68.7816L106.154 63.4565L107.041 59.9196C107.376 58.5825 107.347 57.1808 106.959 55.8583C106.57 54.5359 105.836 53.3403 104.831 52.3944L102.779 50.4659L100.286 46.7878H96.2654L94.8868 49.384C93.5503 49.692 92.3645 50.4577 91.536 51.5477C90.7075 52.6377 90.2887 53.983 90.3528 55.3492L90.6652 62.1581L89.4421 70.6358L89.4413 72.17L88.0649 73.6952L88.3655 75.1936L87.3179 75.6412L86.8553 77.7932C86.6639 78.045 85.4004 79.7247 85.4004 80.1839C85.4004 80.2529 85.4514 80.3195 85.561 80.3934C86.422 80.9748 91.1813 82.1599 93.2877 81.3195C95.5314 80.4251 104.45 81.7669 104.54 81.7806L104.587 81.7877Z" fill="#03DAC5"/>
<path d="M97.7563 45.6004C100.697 45.6004 103.081 43.2236 103.081 40.2916C103.081 37.3596 100.697 34.9828 97.7563 34.9828C94.8156 34.9828 92.4316 37.3596 92.4316 40.2916C92.4316 43.2236 94.8156 45.6004 97.7563 45.6004Z" fill="#FFB8B8"/>
<path d="M97.2465 45.6864C98.0712 45.678 98.8936 45.5994 99.7048 45.4515C100.508 45.267 102.28 43.9009 102.763 43.0939C103.121 42.4943 103.337 41.5669 103.454 40.8945C103.613 40.0046 103.582 39.0914 103.365 38.2141C103.147 37.3368 102.747 36.5148 102.19 35.8015C101.975 35.5026 101.684 35.2672 101.346 35.12C101.316 35.1092 101.285 35.0998 101.254 35.0918C100.765 34.9768 100.321 34.7184 99.9793 34.35C99.9131 34.2754 99.8415 34.2056 99.7652 34.1413C99.3823 33.8357 98.9323 33.6247 98.452 33.5257C97.676 33.3399 96.566 33.5727 95.1529 34.2183C94.4429 34.5426 93.655 34.4521 93.0476 34.3371C93.0136 34.3314 92.9786 34.3347 92.9463 34.3467C92.9139 34.3587 92.8853 34.3789 92.8632 34.4054C92.6125 34.6525 92.2772 34.7959 91.9248 34.8066C91.7092 34.8216 91.4904 35.1255 91.2267 35.5212C91.1669 35.611 91.097 35.7158 91.0464 35.7798L91.0362 35.6596L90.9176 35.797C90.7311 36.0129 90.6025 36.2723 90.5436 36.5511C90.4848 36.8299 90.4976 37.119 90.581 37.3915C90.6644 37.6641 90.8156 37.9111 91.0206 38.1097C91.2255 38.3082 91.4775 38.4518 91.7531 38.5272C91.9718 38.5792 92.1952 38.6088 92.4199 38.6156C92.5561 38.6243 92.697 38.6332 92.8323 38.6531C93.2669 38.7302 93.6741 38.9184 94.014 39.1993C94.3539 39.4802 94.615 39.8441 94.7717 40.2556C94.8087 40.3507 94.8671 40.436 94.9425 40.505C95.0178 40.5741 95.108 40.6249 95.2062 40.6536C95.3044 40.6823 95.4078 40.6882 95.5086 40.6707C95.6094 40.6532 95.7048 40.6128 95.7875 40.5528C95.925 40.4402 96.0878 40.3625 96.262 40.3262C96.4361 40.2899 96.6165 40.2962 96.7877 40.3444C96.9366 40.422 97.0542 40.5483 97.1208 40.7021C97.2013 40.8732 97.3311 41.0166 97.4937 41.1139C98.0481 41.381 98.118 42.6259 97.9484 43.6695C97.785 44.6755 97.4293 45.4093 97.0836 45.454C96.8174 45.4884 96.7874 45.5081 96.7693 45.5557L96.7531 45.5983L96.7841 45.6369C96.9329 45.6864 97.0906 45.7033 97.2465 45.6864Z" fill="#2F2E41"/>
<path d="M92.8293 62.6517L90.2699 59.4003C87.6628 60.116 83.0369 64.227 83.0369 64.227L73.5369 68.3374C73.2198 68.2842 72.8943 68.3153 72.5931 68.4275C72.2919 68.5397 72.0256 68.729 71.8212 68.9764C71.6167 69.2238 71.4812 69.5205 71.4283 69.8367C71.3754 70.1529 71.4069 70.4774 71.5198 70.7776C71.6327 71.0777 71.8229 71.3429 72.0713 71.5465C72.3196 71.7501 72.6174 71.8848 72.9346 71.9372C73.2518 71.9896 73.5773 71.9577 73.8782 71.8448C74.1791 71.7319 74.4449 71.542 74.6488 71.2941L87.0936 67.8325L92.8293 62.6517Z" fill="#FFB8B8"/>
<path d="M92.2155 63.395L96.2539 58.9065L96.4782 55.7261C96.5199 55.1016 96.3856 54.4779 96.0905 53.9255C95.7953 53.3731 95.3511 52.9139 94.808 52.6C94.0689 52.1794 93.1971 52.0544 92.3691 52.2501C91.541 52.4458 90.8184 52.9477 90.3473 53.6543C88.9203 55.7985 87.3852 58.6975 88.1751 60.332L88.1831 60.3486L92.2155 63.395Z" fill="#03DAC5"/>
<path d="M54.9936 80.2656L44.4976 74.9061C43.751 74.5248 43.5037 73.5137 43.9463 72.652L50.79 59.3291C51.2326 58.4675 52.2001 58.0766 52.9467 58.4578L63.4427 63.8174C64.1893 64.1986 64.4366 65.2097 63.994 66.0714L57.1504 79.3943C56.7077 80.256 55.7402 80.6468 54.9936 80.2656Z" fill="#E6E6E6"/>
<path d="M53.2 77.8018L46.0688 74.1604C45.3696 73.8034 45.1379 72.8564 45.5525 72.0494L51.2381 60.981C51.6526 60.174 52.5587 59.808 53.2579 60.165L61.871 64.563C62.5702 64.92 62.8018 65.867 62.3872 66.674L59.2985 72.6869C57.4521 76.2815 56.3146 79.3921 53.2 77.8018Z" fill="white"/>
<path d="M56.7262 71.7572L50.4099 68.532C50.3327 68.4772 50.2779 68.3964 50.2554 68.3046C50.2329 68.2127 50.2443 68.1159 50.2876 68.0317C50.3308 67.9476 50.4029 67.8817 50.4908 67.8462C50.5787 67.8107 50.6765 67.8079 50.7663 67.8383L57.0826 71.0636C57.1598 71.1184 57.2147 71.1992 57.2371 71.291C57.2596 71.3829 57.2482 71.4797 57.2049 71.5639C57.1617 71.648 57.0896 71.7139 57.0017 71.7494C56.9138 71.7849 56.816 71.7877 56.7262 71.7572Z" fill="#03DAC5"/>
<path d="M51.1473 70.6387L49.7058 69.9027C49.6286 69.8478 49.5738 69.767 49.5513 69.6752C49.5288 69.5833 49.5402 69.4865 49.5835 69.4023C49.6267 69.3182 49.6989 69.2523 49.7867 69.2168C49.8746 69.1813 49.9724 69.1785 50.0622 69.2089L51.5036 69.945C51.5809 69.9998 51.6357 70.0806 51.6582 70.1724C51.6807 70.2643 51.6692 70.3611 51.626 70.4453C51.5828 70.5294 51.5106 70.5953 51.4227 70.6308C51.3348 70.6663 51.2371 70.6691 51.1473 70.6387Z" fill="#03DAC5"/>
<path d="M52.9961 73.3128L49.0017 71.2731C48.9245 71.2183 48.8696 71.1375 48.8472 71.0457C48.8247 70.9538 48.8361 70.857 48.8794 70.7728C48.9226 70.6887 48.9947 70.6228 49.0826 70.5873C49.1705 70.5518 49.2683 70.549 49.3581 70.5794L53.3525 72.619C53.4297 72.6739 53.4846 72.7546 53.5071 72.8465C53.5295 72.9384 53.5181 73.0352 53.4749 73.1194C53.4316 73.2035 53.3595 73.2694 53.2716 73.3049C53.1837 73.3404 53.0859 73.3432 52.9961 73.3128V73.3128Z" fill="#03DAC5"/>
<path d="M59.2253 66.8914L52.909 63.6662C52.8317 63.6113 52.7769 63.5306 52.7544 63.4387C52.7319 63.3469 52.7434 63.25 52.7866 63.1659C52.8298 63.0817 52.902 63.0159 52.9899 62.9804C53.0778 62.9449 53.1755 62.9421 53.2653 62.9725L59.5816 66.1977C59.6588 66.2526 59.7137 66.3333 59.7362 66.4252C59.7586 66.517 59.7472 66.6139 59.704 66.698C59.6607 66.7822 59.5886 66.848 59.5007 66.8835C59.4128 66.919 59.3151 66.9218 59.2253 66.8914Z" fill="#03DAC5"/>
<path d="M53.6463 65.7727L52.2049 65.0367C52.1276 64.9818 52.0728 64.9011 52.0503 64.8092C52.0278 64.7174 52.0393 64.6205 52.0825 64.5364C52.1257 64.4522 52.1979 64.3864 52.2858 64.3509C52.3737 64.3153 52.4714 64.3125 52.5612 64.343L54.0027 65.079C54.0799 65.1339 54.1347 65.2146 54.1572 65.3065C54.1797 65.3983 54.1682 65.4952 54.125 65.5793C54.0818 65.6635 54.0096 65.7293 53.9218 65.7648C53.8339 65.8003 53.7361 65.8031 53.6463 65.7727Z" fill="#03DAC5"/>
<path d="M55.4952 68.4469L51.5008 66.4073C51.4235 66.3524 51.3687 66.2717 51.3462 66.1798C51.3237 66.088 51.3352 65.9911 51.3784 65.907C51.4216 65.8228 51.4938 65.757 51.5817 65.7215C51.6696 65.6859 51.7673 65.6831 51.8571 65.7136L55.8515 67.7532C55.9288 67.8081 55.9836 67.8888 56.0061 67.9807C56.0285 68.0725 56.0171 68.1694 55.9739 68.2535C55.9307 68.3377 55.8585 68.4035 55.7706 68.439C55.6827 68.4745 55.585 68.4773 55.4952 68.4469L55.4952 68.4469Z" fill="#03DAC5"/>
<path d="M46.296 68.6667L43.9248 59.8654L50.2613 58.6694L49.9206 64.7106L58.2462 73.2577C58.687 73.2397 59.1234 73.35 59.5024 73.5751C59.8814 73.8002 60.1865 74.1304 60.3806 74.5254C60.5746 74.9204 60.6492 75.3631 60.5952 75.7996C60.5412 76.2361 60.361 76.6475 60.0765 76.9837C59.7921 77.3199 59.4157 77.5663 58.9932 77.6928C58.5707 77.8194 58.1204 77.8207 57.6973 77.6965C57.2741 77.5723 56.8963 77.3281 56.6099 76.9935C56.3235 76.6589 56.141 76.2485 56.0845 75.8123L46.296 68.6667Z" fill="#A0616A"/>
<path d="M43.276 49.9973C41.1252 51.6902 43.8858 61.1597 43.8858 61.1597C44.3132 60.692 44.8099 67.6038 45.3323 67.3685C46.8171 66.6996 49.5385 64.393 50.5877 64.581C51.1877 64.6886 50.5591 60.0093 50.5591 60.0093C50.5591 60.0093 50.4434 57.3262 50.2261 53.8771C50.1829 52.9009 49.8925 51.9514 49.3822 51.1171C48.8718 50.2828 48.1581 49.5909 47.3074 49.1056C47.3074 49.1056 45.4268 48.3044 43.276 49.9973Z" fill="#3F3D56"/>
<path d="M79.0642 88.2019L73.3365 85.5053C73.214 85.448 73.1061 85.3637 73.021 85.2589C72.9358 85.154 72.8755 85.0313 72.8447 84.8999C72.8137 84.7714 72.8122 84.6375 72.8405 84.5084C72.8687 84.3792 72.926 84.2581 73.0079 84.1542C74.667 82.04 75.8063 79.5678 76.3343 76.9355C76.3742 76.7339 76.483 76.5524 76.6421 76.4219C76.8012 76.2913 77.0008 76.2198 77.2069 76.2196C80.1281 76.2295 82.3113 77.293 83.6957 79.38C83.7687 79.4886 83.817 79.6117 83.8374 79.7408C83.8578 79.87 83.8497 80.0019 83.8136 80.1276C83.012 82.8822 81.7922 85.4983 80.1967 87.8849C80.0783 88.0654 79.8983 88.1969 79.69 88.2552C79.4818 88.3134 79.2595 88.2945 79.0642 88.2019Z" fill="#E6E6E6"/>
<path d="M80.7491 84.4198L76.3697 82.3579C76.2607 82.3066 76.1767 82.2143 76.136 82.1012C76.0954 81.9881 76.1014 81.8635 76.1529 81.7549C76.2043 81.6463 76.2969 81.5625 76.4104 81.5219C76.5238 81.4814 76.6487 81.4874 76.7577 81.5387L81.1371 83.6006C81.1911 83.626 81.2395 83.6617 81.2796 83.7058C81.3197 83.7498 81.3507 83.8013 81.3708 83.8573C81.3909 83.9133 81.3998 83.9727 81.3969 84.0321C81.394 84.0915 81.3794 84.1498 81.3539 84.2036C81.3285 84.2574 81.2926 84.3056 81.2484 84.3456C81.2043 84.3856 81.1526 84.4165 81.0964 84.4366C81.0403 84.4566 80.9807 84.4655 80.9211 84.4626C80.8615 84.4597 80.8031 84.4452 80.7491 84.4198H80.7491Z" fill="white"/>
<path d="M81.4298 82.9834L77.0504 80.9215C76.9414 80.8702 76.8574 80.7779 76.8167 80.6648C76.776 80.5517 76.7821 80.4271 76.8335 80.3185C76.885 80.2099 76.9776 80.1261 77.091 80.0855C77.2045 80.045 77.3294 80.051 77.4383 80.1023L81.8178 82.1642C81.9267 82.2155 82.0108 82.3078 82.0515 82.4209C82.0921 82.534 82.0861 82.6586 82.0346 82.7672C81.9832 82.8758 81.8905 82.9596 81.7771 83.0002C81.6637 83.0407 81.5388 83.0347 81.4298 82.9834V82.9834Z" fill="white"/>
<path d="M75.5775 37.8909L75.1698 37.9354C73.3521 30.814 69.829 25.8803 64.9809 23.6677C58.8177 20.8551 51.1967 22.7438 43.5217 28.986C35.8077 35.2601 28.9788 45.1704 24.293 56.8918L23.8975 56.7113C28.6038 44.9387 35.4678 34.9805 43.225 28.6716C51.0212 22.3307 58.7977 20.4282 65.1221 23.3144C70.1093 25.5904 73.7246 30.6309 75.5775 37.8909Z" fill="#F2F2F2"/>
<path d="M30.6021 47.1656C29.536 49.4048 28.522 51.7246 27.5882 54.0605C22.2145 67.5027 19.4913 81.2308 19.7139 93.7613L19.2939 93.7166C19.0711 81.1395 21.8021 67.3641 27.1926 53.88C28.1291 51.5375 29.1461 49.2112 30.2152 46.9657L30.6021 47.1656Z" fill="#F2F2F2"/>
<path d="M30.4 56.402C29.3339 58.6411 28.3199 60.9609 27.386 63.2968C22.0123 76.739 19.2892 90.4671 19.5117 102.998L19.0917 102.953C18.869 90.3758 21.6 76.6005 26.9905 63.1163C27.927 60.7738 28.9439 58.4475 30.0131 56.202L30.4 56.402Z" fill="#F2F2F2"/>
<path d="M19.1127 59.7611C19.577 59.0654 19.3022 58.0695 18.4989 57.5366C17.6957 57.0038 16.6682 57.1359 16.2039 57.8317C15.7396 58.5274 16.0144 59.5234 16.8177 60.0562C17.6209 60.589 18.6485 60.4569 19.1127 59.7611Z" fill="#CCCCCC"/>
<path d="M117.973 84.8866C118.437 84.1909 118.163 83.1949 117.359 82.6621C116.556 82.1293 115.529 82.2614 115.064 82.9572C114.6 83.6529 114.875 84.6488 115.678 85.1817C116.481 85.7145 117.509 85.5824 117.973 84.8866Z" fill="#CCCCCC"/>
</svg>
