<svg width="150" height="150" viewBox="0 0 150 150" fill="none" xmlns="http://www.w3.org/2000/svg">
<g clip-path="url(#clip0_1149_26958)">
<path d="M69.8193 81.0226C69.7961 81.0226 69.7814 81.022 69.7763 81.0217L66.9908 81.022V80.6113H69.7864C69.8511 80.6136 71.1717 80.6509 72.3884 79.1745C74.2016 76.9741 75.6907 71.5271 72.4873 58.0729C68.1799 39.9819 71.7724 23.9995 73.5169 17.9677C73.6029 17.6693 73.6183 17.355 73.5618 17.0496C73.5054 16.7443 73.3788 16.4562 73.1919 16.2082C73.005 15.9602 72.763 15.759 72.485 15.6206C72.207 15.4822 71.9006 15.4103 71.5901 15.4107H29.9899C29.6736 15.4111 29.3619 15.4861 29.08 15.6296C28.7982 15.7731 28.5541 15.981 28.3676 16.2365C27.6286 17.253 26.6145 19.2059 25.9799 22.7371L25.5757 22.6645C26.224 19.0566 27.2712 17.0462 28.0354 15.995C28.26 15.6872 28.5541 15.4366 28.8937 15.2638C29.2333 15.0909 29.6088 15.0005 29.9899 15H71.5901C71.9643 14.9996 72.3335 15.0863 72.6685 15.2532C73.0034 15.42 73.295 15.6625 73.5202 15.9614C73.7453 16.2603 73.8979 16.6075 73.9658 16.9755C74.0337 17.3435 74.0151 17.7223 73.9115 18.0819C72.176 24.0823 68.6021 39.9818 72.8869 57.9779C76.1353 71.6212 74.5737 77.1863 72.6917 79.4523C71.4503 80.9469 70.0825 81.0226 69.8193 81.0226Z" fill="#E6E6E6"/>
<path d="M62.3238 88.5181C62.3005 88.5181 62.2858 88.5175 62.2807 88.5172L59.4952 88.5175V88.1068H62.2908C62.3559 88.1088 63.6761 88.1464 64.8929 86.67C66.7061 84.4697 68.1951 79.0226 64.9917 65.5684C60.6843 47.4774 64.2769 31.495 66.0214 25.4633C66.1073 25.1648 66.1227 24.8505 66.0663 24.5451C66.0099 24.2398 65.8832 23.9517 65.6963 23.7037C65.5094 23.4557 65.2674 23.2545 64.9894 23.1161C64.7114 22.9777 64.405 22.9059 64.0945 22.9062H22.4943C22.178 22.9067 21.8663 22.9816 21.5845 23.1251C21.3026 23.2686 21.0585 23.4765 20.8721 23.732C20.1331 24.7485 19.1189 26.7014 18.4843 30.2326L18.0801 30.16C18.7285 26.5521 19.7756 24.5418 20.5399 23.4905C20.7645 23.1827 21.0585 22.9322 21.3981 22.7593C21.7377 22.5864 22.1133 22.496 22.4943 22.4955H64.0945C64.4687 22.4952 64.8379 22.5818 65.1729 22.7487C65.5079 22.9155 65.7994 23.158 66.0246 23.4569C66.2498 23.7558 66.4023 24.103 66.4702 24.471C66.5382 24.839 66.5196 25.2178 66.4159 25.5774C64.6804 31.5778 61.1065 47.4773 65.3913 65.4734C68.6397 79.1167 67.0781 84.6818 65.1961 86.9479C63.9547 88.4424 62.587 88.5181 62.3238 88.5181Z" fill="#CCCCCC"/>
<path d="M54.8281 96.0136C54.8049 96.0136 54.7902 96.013 54.7851 96.0127L13.8261 96.013C13.4318 96.0135 13.0433 95.9173 12.6948 95.7329C12.3462 95.5485 12.0482 95.2814 11.8267 94.9551C11.6053 94.6288 11.4671 94.2532 11.4245 93.8612C11.3818 93.4692 11.4358 93.0727 11.5819 92.7064C13.068 88.9934 15.069 80.0854 11.7732 62.1412C7.8814 40.9525 11.3656 33.2949 13.0442 30.986C13.2688 30.6782 13.5629 30.4277 13.9025 30.2548C14.2421 30.0819 14.6176 29.9915 14.9987 29.991H56.5989C56.9731 29.9907 57.3423 30.0773 57.6773 30.2442C58.0122 30.411 58.3038 30.6535 58.529 30.9524C58.7541 31.2513 58.9067 31.5985 58.9746 31.9665C59.0425 32.3345 59.0239 32.7133 58.9203 33.0729C57.1848 39.0733 53.6109 54.9728 57.8957 72.9689C61.1441 86.6123 59.5825 92.1773 57.7005 94.4434C56.4591 95.9379 55.0913 96.0136 54.8281 96.0136ZM14.9987 30.4017C14.6824 30.4022 14.3707 30.4772 14.0888 30.6206C13.807 30.7641 13.5629 30.972 13.3764 31.2275C11.7289 33.4935 8.31407 41.0348 12.1771 62.067C15.3256 79.2089 13.7986 88.2734 11.9632 92.859C11.8395 93.1615 11.793 93.4901 11.8281 93.8151C11.8631 94.1401 11.9785 94.4512 12.1638 94.7204C12.3476 94.9922 12.5952 95.2148 12.8851 95.3685C13.1749 95.5223 13.498 95.6026 13.8261 95.6023H54.7952C54.8598 95.6054 56.1805 95.642 57.3972 94.1655C59.2104 91.9652 60.6995 86.5181 57.4961 73.0639C53.1887 54.9729 56.7812 38.9905 58.5257 32.9588C58.6117 32.6604 58.6271 32.346 58.5706 32.0407C58.5142 31.7353 58.3876 31.4472 58.2007 31.1992C58.0138 30.9512 57.7718 30.75 57.4938 30.6116C57.2158 30.4732 56.9094 30.4014 56.5989 30.4017H14.9987Z" fill="#3F3D56"/>
<path d="M49.523 48.4731H16.8714C16.4357 48.4731 16.0178 48.3 15.7097 47.9919C15.4016 47.6838 15.2285 47.266 15.2285 46.8303C15.2285 46.3945 15.4016 45.9767 15.7097 45.6686C16.0178 45.3605 16.4357 45.1874 16.8714 45.1874H49.523C49.9588 45.1874 50.3766 45.3605 50.6847 45.6686C50.9928 45.9767 51.1659 46.3945 51.1659 46.8303C51.1659 47.266 50.9928 47.6838 50.6847 47.9919C50.3766 48.3 49.9588 48.4731 49.523 48.4731Z" fill="#03DAC5"/>
<path d="M49.523 55.4552H16.8714C16.4357 55.4552 16.0178 55.2821 15.7097 54.974C15.4016 54.666 15.2285 54.2481 15.2285 53.8124C15.2285 53.3767 15.4016 52.9588 15.7097 52.6507C16.0178 52.3426 16.4357 52.1695 16.8714 52.1695H49.523C49.9588 52.1695 50.3766 52.3426 50.6847 52.6507C50.9928 52.9588 51.1659 53.3767 51.1659 53.8124C51.1659 54.2481 50.9928 54.666 50.6847 54.974C50.3766 55.2821 49.9588 55.4552 49.523 55.4552Z" fill="#CCCCCC"/>
<path d="M49.523 62.4373H16.8714C16.4357 62.4373 16.0178 62.2643 15.7097 61.9562C15.4016 61.6481 15.2285 61.2302 15.2285 60.7945C15.2285 60.3588 15.4016 59.9409 15.7097 59.6328C16.0178 59.3247 16.4357 59.1516 16.8714 59.1516H49.523C49.9588 59.1516 50.3766 59.3247 50.6847 59.6328C50.9928 59.9409 51.1659 60.3588 51.1659 60.7945C51.1659 61.2302 50.9928 61.6481 50.6847 61.9562C50.3766 62.2643 49.9588 62.4373 49.523 62.4373Z" fill="#CCCCCC"/>
<path d="M51.9874 69.4195H19.3357C18.9 69.4195 18.4821 69.2464 18.174 68.9383C17.866 68.6302 17.6929 68.2123 17.6929 67.7766C17.6929 67.3409 17.866 66.923 18.174 66.6149C18.4821 66.3068 18.9 66.1338 19.3357 66.1338H51.9874C52.4231 66.1338 52.841 66.3068 53.1491 66.6149C53.4572 66.923 53.6303 67.3409 53.6303 67.7766C53.6303 68.2123 53.4572 68.6302 53.1491 68.9383C52.841 69.2464 52.4231 69.4195 51.9874 69.4195Z" fill="#CCCCCC"/>
<path d="M51.9874 76.4016H19.3357C18.9 76.4016 18.4821 76.2285 18.174 75.9204C17.866 75.6123 17.6929 75.1944 17.6929 74.7587C17.6929 74.323 17.866 73.9051 18.174 73.5971C18.4821 73.289 18.9 73.1159 19.3357 73.1159H51.9874C52.4231 73.1159 52.841 73.289 53.1491 73.5971C53.4572 73.9051 53.6303 74.323 53.6303 74.7587C53.6303 75.1944 53.4572 75.6123 53.1491 75.9204C52.841 76.2285 52.4231 76.4016 51.9874 76.4016Z" fill="#CCCCCC"/>
<path d="M32.2731 41.491H16.8714C16.4357 41.491 16.0178 41.3179 15.7097 41.0098C15.4016 40.7017 15.2285 40.2839 15.2285 39.8481C15.2285 39.4124 15.4016 38.9946 15.7097 38.6865C16.0178 38.3784 16.4357 38.2053 16.8714 38.2053H32.2731C32.7088 38.2053 33.1267 38.3784 33.4348 38.6865C33.7429 38.9946 33.916 39.4124 33.916 39.8481C33.916 40.2839 33.7429 40.7017 33.4348 41.0098C33.1267 41.3179 32.7088 41.491 32.2731 41.491Z" fill="#03DAC5"/>
<path d="M30.2847 87.6596C30.6161 86.256 32.1735 85.7959 33.4468 85.8474C34.2513 85.9016 35.0493 86.0279 35.8312 86.2246C36.6493 86.4077 37.4595 86.6244 38.2657 86.8543C39.7439 87.2758 41.2069 87.7857 42.7095 88.1153C43.9605 88.3897 45.3199 88.5507 46.5673 88.1718C47.7665 87.8077 48.7838 86.9138 49.1101 85.6779C49.4176 84.5132 48.9954 83.2397 47.8668 82.7075C46.8376 82.2221 45.5376 82.4689 45.0275 83.5666C44.4523 84.8042 45.027 86.1539 45.9377 87.0495C46.4553 87.5355 47.0223 87.9662 47.6294 88.3344C48.2456 88.7543 48.9314 89.0615 49.655 89.2417C50.843 89.4954 52.2581 89.1215 52.8708 87.9865C53.007 87.7296 53.0889 87.4474 53.1114 87.1575C53.1477 86.7629 52.5314 86.7653 52.4953 87.1575C52.3915 88.2877 51.068 88.817 50.0782 88.693C49.4101 88.5823 48.7721 88.3347 48.2043 87.9657C47.6562 87.6461 47.1369 87.2797 46.6521 86.8705C45.8127 86.1441 45.0258 84.9486 45.5896 83.815C46.0487 82.8919 47.2454 82.9011 47.9733 83.4964C48.8548 84.2173 48.6976 85.5259 48.1162 86.382C47.4725 87.33 46.3056 87.7274 45.2055 87.7702C44.0101 87.8168 42.8247 87.5425 41.6823 87.2181C40.2627 86.815 38.8573 86.3638 37.4309 85.9843C36.6212 85.7689 35.8052 85.5744 34.9808 85.4231C34.2013 85.2513 33.4006 85.1959 32.6049 85.2587C31.3194 85.4071 30.0072 86.1554 29.6906 87.4958C29.5996 87.8814 30.1934 88.0459 30.2847 87.6596Z" fill="#3F3D56"/>
<path d="M52.9207 87.8055C52.8428 87.7407 52.7859 87.6542 52.757 87.5571C52.7282 87.4599 52.7288 87.3564 52.7587 87.2595C52.7886 87.1627 52.8465 87.0769 52.9251 87.0129C53.0037 86.9489 53.0995 86.9096 53.2004 86.9C54.3205 86.7918 55.4509 86.9077 56.5257 87.2408L67.4744 90.6221C67.6161 90.6659 67.7478 90.7372 67.862 90.8318C67.9761 90.9265 68.0706 91.0427 68.1398 91.1739C68.2091 91.305 68.2518 91.4486 68.2656 91.5962C68.2794 91.7439 68.264 91.8929 68.2202 92.0346C68.1765 92.1763 68.1052 92.308 68.0106 92.4222C67.9159 92.5364 67.7996 92.6308 67.6685 92.7001C67.5373 92.7693 67.3938 92.8121 67.2461 92.8259C67.0985 92.8397 66.9495 92.8242 66.8078 92.7805L55.8591 89.3992C54.7836 89.0682 53.7847 88.5264 52.9207 87.8055Z" fill="#3F3D56"/>
<path d="M97.8006 101.852C97.5032 101.727 97.2368 101.539 97.0201 101.3C96.8034 101.061 96.6416 100.778 96.5463 100.469C96.451 100.161 96.4244 99.836 96.4684 99.5165C96.5124 99.197 96.6259 98.8911 96.801 98.6202L94.9243 88.8059L99.7074 88.433L99.9961 98.0327C100.432 98.357 100.733 98.8297 100.844 99.3613C100.954 99.893 100.865 100.447 100.595 100.917C100.324 101.388 99.8902 101.743 99.3752 101.916C98.8603 102.088 98.3 102.065 97.8006 101.852Z" fill="#FFB8B8"/>
<path d="M94.629 96.7867L89.7573 74.0984C89.5573 73.1665 89.7356 72.1933 90.253 71.3929C90.7705 70.5925 91.5847 70.0305 92.5166 69.8304C93.4485 69.6303 94.4217 69.8087 95.2221 70.3261C96.0225 70.8436 96.5845 71.6578 96.7846 72.5897L101.656 95.2778C101.707 95.5174 101.661 95.7675 101.528 95.9732C101.395 96.179 101.186 96.3236 100.947 96.3753L95.7265 97.4962C95.6078 97.5217 95.4853 97.5236 95.3659 97.5018C95.2465 97.4799 95.1326 97.4347 95.0307 97.3688C94.9288 97.3029 94.8408 97.2176 94.7719 97.1177C94.703 97.0178 94.6544 96.9053 94.629 96.7867Z" fill="#03DAC5"/>
<path d="M86.6328 132.477H84.1153L82.9175 122.766L86.6334 122.766L86.6328 132.477Z" fill="#FFB8B8"/>
<path d="M82.3169 131.758H87.1723V134.815H79.2598C79.2598 134.413 79.3388 134.016 79.4925 133.645C79.6461 133.274 79.8713 132.937 80.1552 132.653C80.4391 132.369 80.7761 132.144 81.147 131.99C81.5179 131.837 81.9154 131.758 82.3169 131.758Z" fill="#2F2E41"/>
<path d="M95.0527 132.272H92.5352L91.3374 122.561L95.0533 122.561L95.0527 132.272Z" fill="#FFB8B8"/>
<path d="M90.7368 131.552H95.5922V134.609H87.6797C87.6797 134.208 87.7588 133.81 87.9124 133.439C88.066 133.069 88.2912 132.732 88.5751 132.448C88.859 132.164 89.196 131.939 89.5669 131.785C89.9378 131.631 90.3353 131.552 90.7368 131.552Z" fill="#2F2E41"/>
<path d="M83.6166 130.666C83.5222 130.588 83.4442 130.493 83.3872 130.385C83.3302 130.277 83.2954 130.158 83.2847 130.037L80.3578 97.8411C80.3464 97.7161 80.3607 97.5901 80.3996 97.4708C80.4385 97.3515 80.5013 97.2414 80.5842 97.1472C80.6671 97.053 80.7683 96.9766 80.8816 96.9227C80.995 96.8689 81.1181 96.8387 81.2435 96.834L95.9223 96.2835C96.0493 96.2788 96.176 96.3003 96.2943 96.3467C96.4127 96.3931 96.5201 96.4635 96.6101 96.5533C96.7 96.6432 96.7704 96.7506 96.8169 96.8689C96.8635 96.9872 96.8851 97.1138 96.8805 97.2409L95.7071 129.313C95.6985 129.537 95.6085 129.751 95.454 129.914C95.2995 130.077 95.091 130.178 94.8673 130.199L91.9075 130.468C91.7848 130.479 91.661 130.466 91.5436 130.429C91.4262 130.391 91.3174 130.331 91.2237 130.251C91.13 130.171 91.0532 130.073 90.9979 129.963C90.9427 129.852 90.91 129.732 90.9018 129.609L89.5435 109.235C89.5425 109.195 89.5338 109.157 89.5177 109.121C89.5017 109.085 89.4787 109.053 89.4501 109.026C89.4216 109 89.3879 108.979 89.3512 108.965C89.3145 108.952 89.2754 108.946 89.2363 108.947H89.235C89.1958 108.946 89.1566 108.952 89.1198 108.966C89.083 108.98 89.0494 109.001 89.0208 109.028C88.9923 109.055 88.9694 109.087 88.9536 109.123C88.9377 109.159 88.9292 109.198 88.9286 109.237L87.713 129.749C87.7009 129.969 87.6104 130.177 87.458 130.335C87.3057 130.494 87.1015 130.593 86.8825 130.614L84.2969 130.873C84.1754 130.885 84.0527 130.873 83.9359 130.838C83.8191 130.802 83.7105 130.744 83.6166 130.666H83.6166Z" fill="#2F2E41"/>
<path d="M89.263 65.0091C92.0486 65.0091 94.3068 62.751 94.3068 59.9654C94.3068 57.1798 92.0486 54.9216 89.263 54.9216C86.4774 54.9216 84.2192 57.1798 84.2192 59.9654C84.2192 62.751 86.4774 65.0091 89.263 65.0091Z" fill="#FFB8B8"/>
<path d="M79.5499 98.0591C79.4601 97.9571 79.3941 97.8364 79.3567 97.7057C79.3193 97.5751 79.3115 97.4377 79.3337 97.3036C80.2649 91.6437 79.7401 83.3242 79.1358 77.3416C78.9781 75.7546 79.2413 74.154 79.8989 72.7011C80.5565 71.2482 81.5853 69.9942 82.8818 69.0653L85.5158 66.8076C85.6909 66.6593 85.9143 66.5802 86.1437 66.5854L92.6876 66.7723C92.9236 66.7788 93.148 66.8756 93.3146 67.0429L94.3258 69.2821L94.3363 69.2897C95.5412 70.1755 96.5079 71.346 97.1499 72.6967C97.7919 74.0473 98.0892 75.5361 98.0152 77.0297L97.052 96.9363C97.0397 97.1677 96.9413 97.3862 96.7761 97.5489C96.6109 97.7115 96.391 97.8065 96.1593 97.8152L80.2755 98.3734C80.2653 98.3736 80.2551 98.3738 80.2449 98.3738C80.1133 98.374 79.9832 98.346 79.8633 98.2917C79.7435 98.2374 79.6366 98.1581 79.5499 98.0591Z" fill="#03DAC5"/>
<path d="M60.4977 89.7522C60.4898 89.4298 60.5527 89.1096 60.6819 88.8141C60.8112 88.5186 61.0036 88.255 61.2457 88.042C61.4878 87.8289 61.7737 87.6715 62.0832 87.5809C62.3928 87.4903 62.7184 87.4686 63.0372 87.5174L71.2237 81.7883L73.5216 85.9997L64.8808 90.1922C64.7633 90.7224 64.4554 91.1909 64.0155 91.5092C63.5755 91.8275 63.0341 91.9733 62.4938 91.9191C61.9536 91.8648 61.4519 91.6143 61.084 91.2149C60.7162 90.8156 60.5075 90.2951 60.4977 89.7522L60.4977 89.7522Z" fill="#FFB8B8"/>
<path d="M67.3872 90.7481C67.2671 90.73 67.1519 90.6882 67.0481 90.6253C66.9442 90.5624 66.8539 90.4795 66.7823 90.3815L63.623 86.0772C63.4783 85.8795 63.4179 85.6325 63.455 85.3903C63.4922 85.1481 63.6238 84.9306 63.8212 84.7853L82.528 71.0545C83.2964 70.4905 84.2574 70.2549 85.1995 70.3994C85.666 70.471 86.1138 70.6337 86.5174 70.8784C86.921 71.123 87.2724 71.4447 87.5517 71.8252C87.8309 72.2056 88.0325 72.6374 88.1449 73.0957C88.2573 73.5541 88.2783 74.0301 88.2067 74.4966C88.1352 74.9631 87.9724 75.4109 87.7278 75.8145C87.4832 76.2181 87.1614 76.5696 86.781 76.8488L68.0741 90.5796C67.9163 90.696 67.7254 90.7589 67.5293 90.7589C67.4817 90.7589 67.4342 90.7553 67.3872 90.7481Z" fill="#03DAC5"/>
<path d="M89.5212 64.4554C90.19 63.6353 90.1168 62.386 89.58 61.474C89.0431 60.562 88.1318 59.9338 87.1941 59.4432C86.2564 58.9526 85.2603 58.5668 84.3778 57.9826C83.4953 57.3985 83.5338 54.9254 83.2988 53.8935L83.8592 54.0802C83.6439 53.8046 83.5748 52.9904 83.3594 52.7149C83.9926 52.7774 84.4796 53.3787 85.1128 53.4412L84.7474 52.4604C86.9189 52.3265 88.269 53.8354 90.4405 53.7016C91.5164 53.6352 92.6849 53.5933 93.5694 54.2094C94.338 54.7449 94.727 55.6716 94.9823 56.5729C95.5305 58.508 95.6156 60.6757 94.6689 62.4502C93.7222 64.2247 91.54 65.4204 89.6335 64.7796L89.5212 64.4554Z" fill="#2F2E41"/>
<path d="M61.8294 134.928H140.07C140.125 134.928 140.177 134.907 140.215 134.868C140.254 134.83 140.276 134.777 140.276 134.723C140.276 134.668 140.254 134.616 140.215 134.578C140.177 134.539 140.125 134.517 140.07 134.517H61.8294C61.7749 134.517 61.7227 134.539 61.6842 134.578C61.6457 134.616 61.624 134.668 61.624 134.723C61.624 134.777 61.6457 134.83 61.6842 134.868C61.7227 134.907 61.7749 134.928 61.8294 134.928Z" fill="#3F3D56"/>
</g>
<defs>
<clipPath id="clip0_1149_26958">
<rect width="130.276" height="120" fill="white" transform="translate(10 15)"/>
</clipPath>
</defs>
</svg>
