<svg width="400" height="400" viewBox="0 0 400 400" fill="none" xmlns="http://www.w3.org/2000/svg">
<path d="M187.304 137.89C182.96 142.965 184.655 156.16 184.655 156.16L189.08 160.667C190.681 162.131 192.561 163.259 194.607 163.982C196.654 164.705 198.824 165.008 200.99 164.874C203.156 164.74 205.273 164.172 207.215 163.203C209.157 162.233 210.883 160.883 212.292 159.232C213.701 157.582 214.763 155.664 215.415 153.594C216.067 151.524 216.296 149.344 216.088 147.184C215.879 145.024 215.238 142.928 214.203 141.021C213.167 139.114 211.758 137.434 210.06 136.083L204.924 132.409C204.924 132.409 191.628 132.795 187.304 137.89Z" fill="#484646"/>
<path d="M199.545 165.051C195.577 165.056 191.739 163.641 188.725 161.062L184.259 156.525C184.178 156.447 184.128 156.343 184.117 156.231C184.046 155.683 182.432 142.752 186.877 137.555C191.323 132.358 204.346 131.942 204.904 131.922C205.014 131.917 205.123 131.953 205.208 132.023L210.344 135.698C212.946 137.906 214.806 140.86 215.674 144.161C216.541 147.461 216.374 150.949 215.195 154.151C214.015 157.353 211.881 160.116 209.08 162.066C206.279 164.015 202.947 165.058 199.534 165.051H199.545ZM185.111 155.916L189.415 160.301C192.594 162.834 196.633 164.031 200.679 163.64C204.725 163.249 208.46 161.301 211.095 158.207C213.731 155.112 215.061 151.115 214.803 147.058C214.545 143.002 212.721 139.205 209.715 136.469L204.752 132.927C203.209 132.987 191.557 133.637 187.639 138.194C183.721 142.752 184.939 154.404 185.111 155.937V155.916Z" fill="#484646"/>
<path d="M196.439 161.885C205.363 161.885 212.598 154.65 212.598 145.726C212.598 136.801 205.363 129.567 196.439 129.567C187.514 129.567 180.28 136.801 180.28 145.726C180.28 154.65 187.514 161.885 196.439 161.885Z" fill="white"/>
<path d="M196.439 162.351C192.093 162.177 187.989 160.306 185.007 157.14C182.026 153.974 180.404 149.765 180.491 145.417C180.578 141.068 182.367 136.928 185.473 133.883C188.579 130.839 192.754 129.134 197.104 129.134C201.453 129.134 205.628 130.839 208.734 133.883C211.84 136.928 213.629 141.068 213.716 145.417C213.803 149.765 212.181 153.974 209.2 157.14C206.218 160.306 202.114 162.177 197.768 162.351C197.291 162.331 196.855 162.351 196.439 162.351ZM196.439 129.993C192.754 129.985 189.183 131.273 186.353 133.634C183.523 135.994 181.613 139.275 180.96 142.901C180.306 146.528 180.949 150.269 182.777 153.469C184.605 156.669 187.501 159.123 190.957 160.402C194.413 161.681 198.209 161.702 201.68 160.463C205.15 159.224 208.074 156.802 209.938 153.624C211.803 150.445 212.489 146.711 211.876 143.077C211.264 139.443 209.392 136.141 206.589 133.749C203.76 131.33 200.161 129.998 196.439 129.993Z" fill="#484646"/>
<path d="M201.027 108.729L205.087 113.388C207.675 116.616 215.886 114.342 223.428 108.313C230.969 102.284 235.009 94.7423 232.4 91.5146L228.34 86.8557L201.027 108.729Z" fill="#484646"/>
<path d="M208.923 115.367C208.142 115.437 207.354 115.327 206.621 115.048C205.888 114.768 205.228 114.325 204.691 113.753L200.631 109.115C200.577 109.056 200.538 108.987 200.515 108.911C200.492 108.836 200.487 108.756 200.499 108.678C200.515 108.542 200.584 108.418 200.692 108.333L228.005 86.4599C228.107 86.3777 228.237 86.3381 228.368 86.3494C228.498 86.3608 228.619 86.4222 228.706 86.5208L232.766 91.1796C235.587 94.7017 231.608 102.345 223.732 108.699C218.403 112.982 212.831 115.367 208.923 115.367ZM201.757 108.79L205.472 113.053C207.857 116.027 215.927 113.662 223.113 107.907C230.299 102.152 234.369 94.7829 231.964 91.8292L228.239 87.5561L201.757 108.79Z" fill="#484646"/>
<path d="M219.376 103.648C226.919 97.6067 230.935 90.0882 228.345 86.8547C225.756 83.6212 217.541 85.8973 209.998 91.9385C202.455 97.9796 198.439 105.498 201.029 108.732C203.618 111.965 211.833 109.689 219.376 103.648Z" fill="white"/>
<path d="M204.863 110.708C204.084 110.774 203.301 110.659 202.574 110.372C201.846 110.085 201.195 109.634 200.671 109.054C199.291 107.338 199.524 104.557 201.311 101.208C205.767 93.8147 212.713 88.2513 220.9 85.5159C224.554 84.5009 227.325 84.8866 228.706 86.602C231.497 90.0936 227.518 97.767 219.662 104.05C214.323 108.282 208.761 110.708 204.863 110.708ZM224.514 85.8915C223.376 85.9124 222.246 86.0865 221.154 86.4091C217.18 87.6584 213.49 89.6758 210.294 92.3469C206.996 94.8614 204.22 97.9955 202.123 101.573C200.55 104.527 200.276 107.024 201.392 108.404C203.777 111.378 211.877 109.023 219.083 103.248C226.29 97.4726 230.36 90.053 227.975 87.1095C227.529 86.6537 226.987 86.3039 226.388 86.0861C225.788 85.8682 225.148 85.7879 224.514 85.8509V85.8915Z" fill="#484646"/>
<path d="M161.776 102.862L166.202 98.5282C169.034 95.4832 177.042 98.447 184.076 105.075C191.11 111.703 194.51 119.508 191.668 122.523L187.304 126.847L161.776 102.862Z" fill="white"/>
<path d="M187.304 127.314C187.184 127.315 187.068 127.272 186.979 127.192L161.462 103.197C161.37 103.109 161.316 102.989 161.31 102.862C161.311 102.736 161.362 102.616 161.452 102.527L165.877 98.2136C167.369 96.62 170.16 96.4576 173.723 97.7568C177.701 99.3654 181.325 101.738 184.391 104.74C191.719 111.652 195.068 119.6 192.013 122.848L187.578 127.182C187.504 127.256 187.407 127.302 187.304 127.314ZM162.497 102.852L187.294 126.197L191.354 122.137C193.952 119.376 190.491 111.683 183.761 105.359C180.79 102.443 177.276 100.136 173.419 98.5688C170.272 97.4219 167.765 97.5031 166.547 98.8023L162.497 102.852Z" fill="#484646"/>
<path d="M187.255 126.848C190.095 123.833 186.693 116.017 179.658 109.391C172.622 102.766 164.616 99.8397 161.776 102.856C158.936 105.871 162.337 113.687 169.373 120.313C176.409 126.938 184.415 129.864 187.255 126.848Z" fill="#484646"/>
<path d="M183.985 128.542C182.52 128.502 181.074 128.207 179.712 127.669C175.731 126.06 172.103 123.688 169.034 120.686C165.852 117.797 163.266 114.315 161.421 110.434C159.899 106.943 159.899 104.131 161.421 102.517C162.944 100.903 165.745 100.731 169.328 102.04C173.315 103.648 176.946 106.024 180.016 109.033C183.199 111.916 185.786 115.396 187.629 119.275C189.151 122.766 189.151 125.588 187.629 127.202C187.148 127.667 186.576 128.027 185.948 128.258C185.321 128.488 184.652 128.585 183.985 128.542ZM165.055 102.152C164.527 102.112 163.997 102.182 163.498 102.357C162.998 102.531 162.54 102.807 162.152 103.167C160.944 104.446 161.015 106.932 162.335 109.988C164.129 113.743 166.639 117.111 169.724 119.904C172.693 122.815 176.203 125.115 180.057 126.674C183.183 127.821 185.67 127.689 186.877 126.461C188.085 125.182 188.014 122.695 186.685 119.64C184.898 115.883 182.391 112.514 179.306 109.724C176.337 106.813 172.827 104.513 168.973 102.954C167.721 102.475 166.395 102.214 165.055 102.182V102.152Z" fill="#484646"/>
<path d="M163.959 155.145C162.162 152.77 160.589 149.37 163.553 147.705C165.583 146.538 168.628 147.116 170.922 148.07C173.216 149.024 175.276 150.344 177.864 150.628C185.091 151.389 190.734 143.807 197.738 145.289C200.367 145.837 202.204 147.573 204.691 148.405C209.299 149.938 214.536 148.05 219.246 146.69C223.955 145.33 230.411 144.863 233.07 147.999C235.729 151.136 232.451 154.871 230.025 158.028C226.979 161.941 225.15 166.664 224.767 171.608C224.676 172.999 224.666 174.511 223.519 175.668C222.372 176.825 220.027 177.313 217.967 177.698C205.218 179.728 190.877 181.149 180.006 174.521C172.596 169.934 168.536 161.133 163.959 155.145Z" fill="#FF931E"/>
<path d="M284.997 275.067C284.997 309.699 247.158 318.712 200.499 318.712C153.839 318.712 116 309.679 116 275.067C116 240.456 153.809 172.877 200.499 172.877C247.189 172.877 284.997 240.435 284.997 275.067Z" fill="#FF931E"/>
<path d="M208.192 183.159C214.37 198.08 219.266 213.499 222.829 229.25L241.373 222.145C241.373 222.145 227.792 202.058 219.845 191.908C211.897 181.758 208.192 183.159 208.192 183.159Z" fill="white"/>
<path d="M222.829 229.717C222.755 229.715 222.682 229.697 222.616 229.666C222.556 229.636 222.505 229.593 222.464 229.54C222.424 229.488 222.396 229.427 222.382 229.362C218.796 213.638 213.893 198.244 207.726 183.342C207.7 183.284 207.687 183.222 207.687 183.159C207.687 183.096 207.7 183.034 207.726 182.976C207.748 182.917 207.784 182.864 207.83 182.82C207.875 182.777 207.93 182.743 207.989 182.722C208.406 182.57 212.252 181.505 220.169 191.624C228.086 201.744 241.627 221.658 241.758 221.851C241.798 221.91 241.824 221.977 241.835 222.047C241.845 222.117 241.84 222.189 241.819 222.257C241.799 222.323 241.763 222.384 241.716 222.435C241.668 222.486 241.61 222.526 241.545 222.551L223.001 229.656C222.948 229.687 222.89 229.708 222.829 229.717ZM208.832 183.565C214.816 198.176 219.608 213.247 223.164 228.631L240.662 221.891C238.531 218.775 226.605 201.348 219.439 192.203C213.592 184.671 210.121 183.646 208.872 183.565H208.832Z" fill="#484646"/>
<path d="M211.907 181.758C211.907 181.758 235.07 192.923 243.545 202.951L229.71 212.949C229.71 212.949 217.764 189.229 208.192 183.149L211.907 181.758Z" fill="white"/>
<path d="M229.71 213.426H229.599C229.533 213.411 229.472 213.381 229.419 213.339C229.367 213.296 229.324 213.243 229.294 213.183C229.172 212.949 217.297 189.503 207.979 183.555C207.909 183.507 207.852 183.442 207.814 183.365C207.777 183.288 207.76 183.203 207.766 183.118C207.777 183.032 207.811 182.951 207.865 182.883C207.919 182.815 207.99 182.763 208.071 182.733L211.786 181.342C211.843 181.317 211.905 181.304 211.968 181.304C212.031 181.304 212.093 181.317 212.151 181.342C213.095 181.789 235.496 192.639 243.941 202.657C243.982 202.706 244.012 202.762 244.03 202.824C244.047 202.885 244.052 202.949 244.042 203.012C244.036 203.076 244.016 203.138 243.985 203.194C243.953 203.25 243.911 203.298 243.86 203.337L230.025 213.325C229.936 213.396 229.824 213.432 229.71 213.426ZM209.197 183.271C217.957 189.564 228.127 208.859 229.873 212.269L242.865 202.891C234.694 193.573 214.019 183.311 211.877 182.266L209.197 183.271Z" fill="#484646"/>
<path d="M229.934 183.677C224.118 186.346 206.477 184.813 202.752 184.813H181.894C178.849 184.813 164.923 186.102 169.176 181.119C169.643 180.571 170.353 180.104 170.78 179.586C171.795 178.196 170.84 176.541 170.059 175.039C166.628 168.584 176.87 169.852 182.3 169.852H217.236C221.661 169.852 231.202 168.167 230.137 173.334C229.903 174.45 229.122 175.506 229.213 176.622C229.386 178.226 231.375 179.454 231.751 181.038C232.014 182.195 231.304 183.057 229.934 183.677Z" fill="white"/>
<path d="M216.739 185.717C212.922 185.717 209.136 185.534 206.345 185.402C204.752 185.331 203.493 185.27 202.782 185.27H181.894C181.478 185.27 180.879 185.27 180.138 185.331C174.586 185.544 169.084 185.575 168.069 183.474C167.704 182.722 167.958 181.829 168.821 180.824C169.069 180.548 169.34 180.293 169.633 180.063C169.92 179.838 170.182 179.583 170.414 179.302C171.236 178.216 170.485 176.805 169.754 175.445L169.653 175.252C168.8 173.659 168.638 172.359 169.287 171.375C170.708 169.081 175.601 169.223 179.915 169.345C180.767 169.345 181.579 169.345 182.3 169.345H217.236C218.028 169.345 219.012 169.345 220.048 169.233C223.742 169.02 228.35 168.756 230.025 170.695C230.324 171.067 230.531 171.505 230.63 171.972C230.729 172.439 230.716 172.923 230.593 173.384C230.476 173.85 230.32 174.305 230.127 174.745C229.836 175.296 229.679 175.908 229.67 176.531C229.88 177.3 230.29 178.001 230.857 178.561C231.467 179.21 231.925 179.987 232.197 180.835C232.41 181.758 232.197 183.047 230.167 184.012C227.345 185.372 222.007 185.717 216.739 185.717ZM181.924 184.346H202.782C203.513 184.346 204.812 184.407 206.386 184.478C212.963 184.783 225.194 185.351 229.731 183.26C231.395 182.499 231.416 181.687 231.284 181.139C231.039 180.431 230.644 179.783 230.127 179.241C229.431 178.534 228.952 177.643 228.746 176.673C228.719 175.894 228.894 175.121 229.254 174.43C229.428 174.048 229.567 173.65 229.67 173.242C229.773 172.921 229.794 172.58 229.732 172.248C229.67 171.917 229.527 171.606 229.315 171.344C227.934 169.751 223.397 170.005 220.088 170.197C219.073 170.258 218.058 170.319 217.226 170.319H182.3C181.569 170.319 180.757 170.319 179.894 170.319C176.23 170.218 171.216 170.076 170.079 171.913C169.653 172.593 169.785 173.587 170.465 174.866L170.566 175.059C171.358 176.521 172.332 178.348 171.155 179.911C170.881 180.245 170.571 180.547 170.231 180.814C169.979 181.013 169.745 181.234 169.531 181.474C169.115 181.961 168.668 182.641 168.902 183.118C169.744 184.854 177.022 184.57 180.067 184.448C180.848 184.367 181.467 184.346 181.894 184.346H181.924Z" fill="#484646"/>
<path d="M195.86 280.142V275.067C194.013 274.56 192.216 274.184 190.491 273.585C187.115 272.516 184.203 270.333 182.229 267.394C180.602 264.827 179.772 261.835 179.843 258.797H189.75C190.207 262.481 192.003 265.12 195.84 266.135V252.686C193.861 252.108 191.871 251.57 189.912 250.941C187.75 250.338 185.77 249.212 184.147 247.662C182.45 245.971 181.33 243.786 180.95 241.42C180.355 238.542 180.57 235.556 181.569 232.792C182.294 230.803 183.45 228.998 184.954 227.506C186.457 226.015 188.272 224.874 190.268 224.165C191.909 223.638 193.58 223.207 195.271 222.876C195.454 222.876 195.647 222.795 195.88 222.754V216.035H205.147V216.684C205.147 218.603 205.147 220.531 205.147 222.45C205.147 222.927 205.29 223.069 205.746 223.17C208.917 223.788 211.885 225.183 214.384 227.23C217.021 229.4 218.77 232.463 219.297 235.837C219.459 236.761 219.54 237.695 219.652 238.669H209.573C209.549 237.294 209.123 235.955 208.348 234.819C207.572 233.682 206.481 232.798 205.208 232.275V244.83L206.294 245.084C209.018 245.619 211.672 246.468 214.201 247.611C216.101 248.432 217.742 249.755 218.947 251.438C220.152 253.12 220.877 255.099 221.042 257.163C221.599 260.991 220.654 264.886 218.403 268.033C216.548 270.613 213.932 272.547 210.923 273.565C209.065 274.215 207.127 274.641 205.127 275.189V280.112L195.86 280.142ZM205.158 254.615V266.298C206.649 266.071 208.051 265.446 209.218 264.491C211.369 262.725 212.131 258.33 208.984 256.371C207.744 255.711 206.466 255.125 205.158 254.615ZM195.82 242.658V231.371C194.608 231.9 193.429 232.5 192.287 233.168C189.709 234.883 189.303 239.644 192.592 241.288C193.607 241.826 194.693 242.191 195.82 242.658Z" fill="#484646"/>
<path d="M170.78 180.043C170.677 180.044 170.578 180.01 170.497 179.948C170.416 179.885 170.358 179.797 170.333 179.698C170.305 179.579 170.325 179.455 170.387 179.351C170.45 179.246 170.55 179.171 170.668 179.14C170.901 179.079 176.382 177.729 186.583 177.952C186.707 177.952 186.826 178.001 186.913 178.089C187.001 178.176 187.05 178.295 187.05 178.419C187.05 178.543 187.001 178.661 186.913 178.749C186.826 178.837 186.707 178.886 186.583 178.886C176.524 178.662 170.972 180.023 170.922 180.033L170.78 180.043Z" fill="#484646"/>
<path d="M228.553 175.902H228.482C228.34 175.902 213.45 173.679 204.934 174.734C204.812 174.746 204.691 174.711 204.594 174.635C204.498 174.559 204.434 174.45 204.417 174.328C204.402 174.206 204.437 174.083 204.513 173.986C204.589 173.889 204.7 173.826 204.823 173.811C213.46 172.796 228.472 174.968 228.624 174.988C228.736 175.011 228.835 175.074 228.903 175.165C228.972 175.255 229.005 175.368 228.996 175.481C228.987 175.595 228.937 175.701 228.856 175.78C228.774 175.859 228.667 175.906 228.553 175.912V175.902Z" fill="#484646"/>
<path d="M219.063 202.799C218.962 202.801 218.863 202.768 218.783 202.708C218.702 202.647 218.643 202.562 218.617 202.464C217.185 197.389 212.527 188.011 212.435 187.919C212.382 187.81 212.373 187.684 212.411 187.568C212.449 187.453 212.53 187.357 212.638 187.3C212.692 187.272 212.751 187.255 212.811 187.251C212.872 187.246 212.933 187.253 212.99 187.272C213.048 187.291 213.101 187.321 213.147 187.361C213.193 187.4 213.23 187.449 213.257 187.503C213.46 187.889 218.048 197.034 219.51 202.21C219.538 202.329 219.521 202.454 219.46 202.559C219.4 202.665 219.301 202.743 219.185 202.779L219.063 202.799Z" fill="#484646"/>
<path d="M233.415 206.118C233.333 206.119 233.252 206.097 233.181 206.056C233.109 206.015 233.05 205.956 233.009 205.885C233.009 205.804 228.574 198.14 224.737 194.415C224.692 194.373 224.657 194.321 224.633 194.265C224.609 194.208 224.596 194.147 224.596 194.085C224.596 194.024 224.609 193.963 224.633 193.906C224.657 193.849 224.692 193.798 224.737 193.756C224.824 193.671 224.94 193.624 225.062 193.624C225.183 193.624 225.299 193.671 225.387 193.756C229.325 197.582 233.649 205.113 233.831 205.438C233.89 205.545 233.905 205.67 233.873 205.788C233.841 205.906 233.764 206.006 233.659 206.067C233.583 206.105 233.499 206.122 233.415 206.118Z" fill="#484646"/>
</svg>
