<svg width="150" height="150" viewBox="0 0 150 150" fill="none" xmlns="http://www.w3.org/2000/svg">
<path d="M132.395 39.8623C132.449 39.3621 132.348 38.8574 132.105 38.4167C131.863 37.976 131.49 37.6207 131.039 37.3991L85.7183 15.2486C85.4301 15.1076 85.117 15.0247 84.7967 15.0047C84.4765 14.9848 84.1555 15.0281 83.852 15.1321C83.5485 15.2362 83.2685 15.3991 83.028 15.6114C82.7874 15.8237 82.591 16.0813 82.45 16.3695L82.4492 16.3712L65.4512 51.1493C65.1675 51.7319 65.1264 52.4031 65.3368 53.0159C65.5472 53.6287 65.9921 54.1331 66.5738 54.4185L111.894 76.569C112.477 76.8527 113.148 76.8938 113.761 76.6833C114.373 76.4729 114.878 76.028 115.163 75.4463L132.161 40.6682C132.285 40.4152 132.364 40.1425 132.395 39.8623Z" fill="#EDEBEB"/>
<path d="M105.845 117.053H47.0395C46.2992 117.052 45.5894 116.757 45.0659 116.234C44.5424 115.71 44.2479 115 44.2471 114.26V34.4295C44.2479 33.6892 44.5424 32.9794 45.0659 32.4559C45.5894 31.9324 46.2992 31.6379 47.0395 31.6371H105.845C106.585 31.6379 107.295 31.9324 107.818 32.4559C108.342 32.9794 108.636 33.6892 108.637 34.4295V114.26C108.636 115 108.342 115.71 107.818 116.234C107.295 116.757 106.585 117.052 105.845 117.053Z" fill="white"/>
<path d="M62.6364 55.4419C64.7552 55.4419 66.4729 53.7242 66.4729 51.6053C66.4729 49.4864 64.7552 47.7687 62.6364 47.7687C60.5175 47.7687 58.7998 49.4864 58.7998 51.6053C58.7998 53.7242 60.5175 55.4419 62.6364 55.4419Z" fill="#DFDBDB"/>
<path d="M56.7891 62.0911C57.3312 62.3992 57.8985 62.6607 58.485 62.8726L58.5886 62.9085C59.7699 63.3232 61.013 63.5344 62.265 63.5329C62.5169 63.5329 62.7595 63.5241 62.9862 63.507C63.5379 63.4732 64.0862 63.3976 64.6265 63.2808C64.923 63.216 65.2185 63.1385 65.5045 63.0508C65.5736 63.0304 65.6377 63.0104 65.7078 62.9884C66.8732 62.6105 67.9683 62.043 68.9491 61.3088C68.8703 61.1599 68.7841 61.0151 68.6908 60.8749C68.1865 60.1044 67.4981 59.4718 66.6877 59.0344C65.8774 58.597 64.9708 58.3685 64.05 58.3698H62.0307C60.9657 58.37 59.9231 58.6763 59.0272 59.2522C58.1313 59.8281 57.4198 60.6494 56.9775 61.6183C56.9068 61.7726 56.8439 61.9304 56.7891 62.0911Z" fill="#DFDBDB"/>
<path d="M63.9385 63.1853C63.8097 63.1948 63.6857 63.2383 63.5791 63.3114C64.1205 63.2777 64.6585 63.203 65.1886 63.088L63.9385 63.1853Z" fill="#2F2E41"/>
<path d="M62.8693 41.1941C60.3984 41.1943 57.9966 42.0103 56.0368 43.5152C54.077 45.0202 52.6688 47.13 52.0308 49.5172C51.3928 51.9043 51.5607 54.4354 52.5084 56.7174C53.4561 58.9994 55.1306 60.9047 57.2719 62.1377C57.8404 62.4668 58.4371 62.7446 59.055 62.9676L59.1599 63.0039C60.3518 63.4224 61.6061 63.6354 62.8693 63.6339C63.1136 63.6339 63.358 63.6259 63.5982 63.6077C64.1545 63.5735 64.7073 63.4972 65.252 63.3795C65.557 63.3129 65.8558 63.2341 66.1385 63.1473C66.2071 63.1271 66.2717 63.1069 66.3424 63.0847C68.882 62.2575 71.0432 60.5516 72.4376 58.2736C73.832 55.9956 74.3682 53.2949 73.9497 50.657C73.5311 48.0191 72.1854 45.6169 70.1544 43.8824C68.1234 42.1478 65.5402 41.1946 62.8693 41.1941L62.8693 41.1941ZM69.3793 60.8191C68.4113 61.566 67.3218 62.1405 66.1587 62.5173C66.0961 62.5375 66.0314 62.5577 65.9668 62.5779C65.6982 62.6607 65.4156 62.7333 65.1248 62.7959C64.6095 62.9084 64.0863 62.9813 63.5599 63.014C63.3317 63.0302 63.0994 63.0382 62.8693 63.0382C61.6736 63.039 60.4864 62.8376 59.3578 62.4426L59.2589 62.4082C58.6444 62.1874 58.0521 61.9088 57.49 61.5763C55.5325 60.4239 53.9963 58.6739 53.107 56.5837C52.2177 54.4934 52.0224 52.173 52.5496 49.9635C53.0769 47.7539 54.2989 45.7718 56.0362 44.3083C57.7735 42.8447 59.9344 41.977 62.2013 41.8327C64.4683 41.6883 66.7218 42.2748 68.6307 43.5061C70.5396 44.7374 72.0033 46.5485 72.8066 48.6733C73.6099 50.7981 73.7104 53.1245 73.0936 55.3107C72.4767 57.4969 71.1748 59.4276 69.3793 60.8191V60.8191Z" fill="#C7C7C7"/>
<path d="M105.845 117.053H47.0395C46.2992 117.052 45.5894 116.757 45.0659 116.234C44.5424 115.71 44.2479 115 44.2471 114.26V34.4295C44.2479 33.6892 44.5424 32.9794 45.0659 32.4559C45.5894 31.9324 46.2992 31.6379 47.0395 31.6371H105.845C106.585 31.6379 107.295 31.9324 107.818 32.4559C108.342 32.9794 108.636 33.6892 108.637 34.4295V114.26C108.636 115 108.342 115.71 107.818 116.234C107.295 116.757 106.585 117.052 105.845 117.053ZM47.0395 31.9656C46.3863 31.9663 45.76 32.2262 45.2981 32.6881C44.8362 33.15 44.5763 33.7763 44.5756 34.4295V114.26C44.5763 114.913 44.8362 115.54 45.2981 116.002C45.76 116.463 46.3863 116.723 47.0395 116.724H105.845C106.498 116.723 107.124 116.463 107.586 116.002C108.048 115.54 108.308 114.913 108.309 114.26V34.4295C108.308 33.7763 108.048 33.15 107.586 32.6881C107.124 32.2262 106.498 31.9663 105.845 31.9656L47.0395 31.9656Z" fill="#C7C7C7"/>
<path d="M94.4607 52.3707H77.8208C77.4717 52.3707 77.1368 52.232 76.89 51.9852C76.6431 51.7383 76.5044 51.4034 76.5044 51.0543C76.5044 50.7052 76.6431 50.3704 76.89 50.1235C77.1368 49.8766 77.4717 49.7379 77.8208 49.7379H94.4607C94.8098 49.7379 95.1446 49.8766 95.3915 50.1235C95.6384 50.3704 95.7771 50.7052 95.7771 51.0543C95.7771 51.4034 95.6384 51.7383 95.3915 51.9852C95.1446 52.232 94.8098 52.3707 94.4607 52.3707Z" fill="#DFDBDB"/>
<path d="M99.8908 56.8136H77.8208C77.4717 56.8136 77.1368 56.6749 76.89 56.428C76.6431 56.1811 76.5044 55.8463 76.5044 55.4972C76.5044 55.148 76.6431 54.8132 76.89 54.5663C77.1368 54.3194 77.4717 54.1808 77.8208 54.1808H99.8908C100.24 54.1808 100.575 54.3194 100.822 54.5663C101.069 54.8132 101.207 55.148 101.207 55.4972C101.207 55.8463 101.069 56.1811 100.822 56.428C100.575 56.6749 100.24 56.8136 99.8908 56.8136Z" fill="#DFDBDB"/>
<path d="M94.4364 73.8538H52.9932C52.644 73.8538 52.3092 73.7151 52.0623 73.4682C51.8154 73.2213 51.6768 72.8865 51.6768 72.5374C51.6768 72.1882 51.8154 71.8534 52.0623 71.6065C52.3092 71.3597 52.644 71.221 52.9932 71.221H94.4364C94.7855 71.221 95.1203 71.3597 95.3672 71.6065C95.6141 71.8534 95.7528 72.1882 95.7528 72.5374C95.7528 72.8865 95.6141 73.2213 95.3672 73.4682C95.1203 73.7151 94.7855 73.8538 94.4364 73.8538Z" fill="#DFDBDB"/>
<path d="M99.8665 78.2967H52.9932C52.644 78.2967 52.3092 78.158 52.0623 77.9111C51.8154 77.6642 51.6768 77.3294 51.6768 76.9803C51.6768 76.6311 51.8154 76.2963 52.0623 76.0494C52.3092 75.8025 52.644 75.6638 52.9932 75.6638H99.8665C100.216 75.6638 100.55 75.8025 100.797 76.0494C101.044 76.2963 101.183 76.6311 101.183 76.9803C101.183 77.3294 101.044 77.6642 100.797 77.9111C100.55 78.158 100.216 78.2967 99.8665 78.2967Z" fill="#DFDBDB"/>
<path d="M94.4364 88.508H52.9932C52.644 88.508 52.3092 88.3694 52.0623 88.1225C51.8154 87.8756 51.6768 87.5408 51.6768 87.1916C51.6768 86.8425 51.8154 86.5077 52.0623 86.2608C52.3092 86.0139 52.644 85.8752 52.9932 85.8752H94.4364C94.7855 85.8752 95.1203 86.0139 95.3672 86.2608C95.6141 86.5077 95.7528 86.8425 95.7528 87.1916C95.7528 87.5408 95.6141 87.8756 95.3672 88.1225C95.1203 88.3694 94.7855 88.508 94.4364 88.508Z" fill="#DFDBDB"/>
<path d="M99.8665 92.9509H52.9932C52.644 92.9509 52.3092 92.8122 52.0623 92.5653C51.8154 92.3185 51.6768 91.9836 51.6768 91.6345C51.6768 91.2854 51.8154 90.9505 52.0623 90.7037C52.3092 90.4568 52.644 90.3181 52.9932 90.3181H99.8665C100.216 90.3181 100.55 90.4568 100.797 90.7037C101.044 90.9505 101.183 91.2854 101.183 91.6345C101.183 91.9836 101.044 92.3185 100.797 92.5653C100.55 92.8122 100.216 92.9509 99.8665 92.9509Z" fill="#DFDBDB"/>
<path d="M94.4364 103.162H52.9932C52.644 103.162 52.3092 103.024 52.0623 102.777C51.8154 102.53 51.6768 102.195 51.6768 101.846C51.6768 101.497 51.8154 101.162 52.0623 100.915C52.3092 100.668 52.644 100.529 52.9932 100.529H94.4364C94.7855 100.529 95.1203 100.668 95.3672 100.915C95.6141 101.162 95.7528 101.497 95.7528 101.846C95.7528 102.195 95.6141 102.53 95.3672 102.777C95.1203 103.024 94.7855 103.162 94.4364 103.162Z" fill="#DFDBDB"/>
<path d="M99.8665 107.605H52.9932C52.644 107.605 52.3092 107.466 52.0623 107.22C51.8154 106.973 51.6768 106.638 51.6768 106.289C51.6768 105.94 51.8154 105.605 52.0623 105.358C52.3092 105.111 52.644 104.972 52.9932 104.972H99.8665C100.215 104.973 100.55 105.112 100.796 105.358C101.043 105.605 101.181 105.94 101.181 106.289C101.181 106.638 101.043 106.972 100.796 107.219C100.55 107.466 100.215 107.605 99.8665 107.605Z" fill="#DFDBDB"/>
<path d="M130.376 62.6798C130.43 62.1796 130.329 61.6748 130.086 61.2341C129.844 60.7934 129.471 60.4381 129.019 60.2165L83.6993 38.066C83.4111 37.925 83.0979 37.8422 82.7777 37.8222C82.4575 37.8022 82.1365 37.8455 81.833 37.9496C81.5295 38.0537 81.2495 38.2165 81.0089 38.4288C80.7684 38.6411 80.572 38.8987 80.431 39.1869L80.4301 39.1886L63.4321 73.9668C63.1484 74.5493 63.1073 75.2206 63.3178 75.8334C63.5282 76.4462 63.973 76.9506 64.5548 77.2359L109.875 99.3864C110.458 99.6701 111.129 99.7112 111.742 99.5008C112.354 99.2903 112.859 98.8455 113.144 98.2638L130.142 63.4856C130.266 63.2326 130.345 62.9599 130.376 62.6798Z" fill="white"/>
<path d="M130.376 62.6798C130.43 62.1796 130.329 61.6748 130.086 61.2341C129.844 60.7934 129.471 60.4381 129.019 60.2165L83.6993 38.066C83.4111 37.925 83.0979 37.8422 82.7777 37.8222C82.4575 37.8022 82.1365 37.8455 81.833 37.9496C81.5295 38.0537 81.2495 38.2165 81.0089 38.4288C80.7684 38.6411 80.572 38.8987 80.431 39.1869L80.4301 39.1886L63.4321 73.9668C63.1484 74.5493 63.1073 75.2206 63.3178 75.8334C63.5282 76.4462 63.973 76.9506 64.5548 77.2359L109.875 99.3864C110.458 99.6701 111.129 99.7112 111.742 99.5008C112.354 99.2903 112.859 98.8455 113.144 98.2638L130.142 63.4856C130.266 63.2326 130.345 62.9599 130.376 62.6798ZM112.886 98.1375C112.634 98.6509 112.189 99.0435 111.648 99.2292C111.108 99.4149 110.515 99.3785 110.001 99.1281L64.681 76.9776C64.1677 76.7259 63.7751 76.2808 63.5894 75.7401C63.4037 75.1993 63.44 74.607 63.6905 74.093L80.6885 39.3149C80.9402 38.8015 81.3852 38.4089 81.926 38.2233C82.4667 38.0376 83.059 38.0739 83.573 38.3244L128.893 60.4748C129.407 60.7265 129.799 61.1716 129.985 61.7123C130.171 62.2531 130.134 62.8454 129.884 63.3594L112.886 98.1375Z" fill="#3F3D56"/>
<path d="M125.432 64.2611L113.563 88.5456C113.484 88.7078 113.344 88.8318 113.173 88.8904C113.002 88.9491 112.815 88.9376 112.653 88.8584H112.653L71.4285 68.7095C71.399 68.6954 71.3708 68.6788 71.3442 68.6599C71.209 68.5679 71.1115 68.4302 71.0696 68.2722C71.0277 68.1141 71.0441 67.9462 71.1159 67.7993L82.9851 43.5148C83.0243 43.4345 83.0789 43.3628 83.1459 43.3036C83.2128 43.2444 83.2907 43.1991 83.3752 43.17C83.4597 43.141 83.5491 43.1288 83.6383 43.1343C83.7274 43.1398 83.8146 43.1628 83.8949 43.2021L125.12 63.3509C125.282 63.4301 125.406 63.5704 125.465 63.741C125.523 63.9117 125.512 64.0986 125.433 64.2607V64.2607L125.432 64.2611Z" fill="#DFDBDB"/>
<path d="M89.2402 63.0278C92.5375 63.0278 95.2105 60.3549 95.2105 57.0576C95.2105 53.7603 92.5375 51.0874 89.2402 51.0874C85.943 51.0874 83.27 53.7603 83.27 57.0576C83.27 60.3549 85.943 63.0278 89.2402 63.0278Z" fill="#03DAC5"/>
<path d="M97.9816 81.8081L71.6682 68.9473C71.6351 68.9316 71.6035 68.9129 71.5737 68.8914L94.5547 53.4174C94.6962 53.3203 94.861 53.2625 95.0323 53.2499C95.2035 53.2373 95.375 53.2704 95.5292 53.3458C95.6835 53.4212 95.8149 53.5362 95.9102 53.679C96.0055 53.8218 96.0611 53.9874 96.0715 54.1588L97.3532 72.7071L97.415 73.5948L97.9816 81.8081Z" fill="#3F3D56"/>
<path opacity="0.2" d="M97.9816 81.8081L88.9976 77.417L96.5388 73.1665L97.0818 72.8604L97.3532 72.7072L97.415 73.5948L97.9816 81.8081Z" fill="black"/>
<path d="M112.633 88.9689L89.874 77.8453L97.4152 73.5948L97.9582 73.2885L107.785 67.749C108.43 67.386 109.353 67.795 109.562 68.4895C109.576 68.5366 109.587 68.5846 109.594 68.6331L112.633 88.9689Z" fill="#3F3D56"/>
<path d="M42.4108 91.0885L44.8861 91.0883L46.064 81.5397L42.4102 81.5399L42.4108 91.0885Z" fill="#FFB8B8"/>
<path d="M41.7793 90.2803L46.6545 90.2801H46.6547C47.0627 90.2801 47.4667 90.3604 47.8437 90.5166C48.2206 90.6727 48.5631 90.9015 48.8516 91.19C49.1401 91.4785 49.369 91.821 49.5251 92.198C49.6813 92.5749 49.7616 92.9789 49.7616 93.3869V93.4879L41.7795 93.4882L41.7793 90.2803Z" fill="#2F2E41"/>
<path d="M23.1689 89.5123L25.7338 90.0139L28.8895 80.3599L25.1042 79.6194L23.1689 89.5123Z" fill="#FFB8B8"/>
<path d="M22.6789 88.5469L27.7299 89.5349L27.7301 89.535C28.1528 89.6177 28.5551 89.7828 28.914 90.021C29.2729 90.2591 29.5814 90.5657 29.8218 90.923C30.0622 91.2804 30.2299 91.6817 30.3152 92.1039C30.4006 92.526 30.402 92.9609 30.3192 93.3836L30.2988 93.4882L22.0288 91.8705L22.6789 88.5469Z" fill="#2F2E41"/>
<path d="M123.306 135H23.6635C21.8968 134.998 20.2031 134.295 18.9539 133.046C17.7047 131.797 17.002 130.103 17 128.336V73.615C17.002 71.8484 17.7047 70.1547 18.9539 68.9054C20.2031 67.6562 21.8968 66.9535 23.6635 66.9515H35.8805C37.5381 66.9501 39.1365 67.568 40.3622 68.684L53.6107 78.1443C54.4745 78.9337 55.6025 79.3709 56.7726 79.3699H123.925C124.808 79.3699 125.682 79.5455 126.497 79.8865C127.312 80.2275 128.051 80.727 128.671 81.3561C129.291 81.9853 129.779 82.7313 130.109 83.551C130.438 84.3707 130.6 85.2476 130.587 86.1308L129.969 128.434C129.936 130.182 129.221 131.848 127.975 133.075C126.73 134.302 125.054 134.993 123.306 135Z" fill="white"/>
<path d="M122.421 131.769H24.2531C23.4008 131.768 22.5838 131.429 21.9811 130.827C21.3785 130.224 21.0395 129.407 21.0386 128.555V72.9385C21.0395 72.0862 21.3785 71.2692 21.9812 70.6666C22.5838 70.0639 23.4008 69.7249 24.2531 69.724C25.0069 69.7248 25.7296 70.0246 26.2626 70.5577C26.7956 71.0907 27.0955 71.8134 27.0963 72.5672V124.718C27.0972 125.517 27.4149 126.283 27.9797 126.847C28.5444 127.412 29.3102 127.73 30.1089 127.731H122.089C122.546 127.726 122.992 127.874 123.355 128.151C123.717 128.429 123.977 128.82 124.091 129.263C124.22 129.682 124.204 130.133 124.046 130.542C123.888 130.951 123.598 131.296 123.222 131.521C122.983 131.677 122.706 131.763 122.421 131.769Z" fill="#EDEBEB"/>
<path d="M74.2303 105.06L73.9718 104.802C73.9183 104.752 73.8868 104.682 73.8844 104.609C73.882 104.536 73.9088 104.464 73.959 104.411C73.9631 104.406 73.9674 104.402 73.9718 104.398L76.2394 102.128C76.2643 102.102 76.2941 102.08 76.3272 102.065C76.3603 102.05 76.396 102.042 76.4323 102.041C76.4686 102.04 76.5048 102.046 76.5388 102.058C76.5728 102.071 76.6039 102.091 76.6304 102.115C76.6349 102.12 76.6391 102.124 76.6433 102.128L78.9109 104.396C78.9374 104.421 78.9586 104.452 78.9733 104.486C78.988 104.52 78.9959 104.556 78.9966 104.593C78.9972 104.63 78.9906 104.666 78.9771 104.701C78.9636 104.735 78.9435 104.766 78.9179 104.793L78.9109 104.8L78.6524 105.058C78.6268 105.085 78.5962 105.106 78.5624 105.121C78.5286 105.135 78.4923 105.143 78.4554 105.144C78.4186 105.144 78.382 105.138 78.3477 105.124C78.3134 105.111 78.2821 105.091 78.2556 105.065L78.2486 105.058L76.9078 103.645V106.999C76.9081 107.035 76.9011 107.072 76.8874 107.105C76.8736 107.139 76.8533 107.17 76.8276 107.196C76.8019 107.222 76.7714 107.243 76.7377 107.257C76.704 107.272 76.6678 107.279 76.6312 107.279L76.6291 107.279H76.2556C76.1811 107.279 76.1098 107.25 76.0571 107.197C76.0045 107.144 75.9749 107.073 75.9749 106.999V103.649L74.6341 105.062C74.5822 105.115 74.5112 105.146 74.4367 105.147C74.3623 105.148 74.2905 105.119 74.2372 105.067L74.2303 105.06Z" fill="#03DAC5"/>
<path d="M76.4371 100.067C77.3473 100.067 78.237 100.336 78.9938 100.842C79.7505 101.348 80.3404 102.067 80.6887 102.907C81.037 103.748 81.1281 104.674 80.9506 105.566C80.773 106.459 80.3347 107.279 79.6911 107.922C79.0475 108.566 78.2276 109.004 77.3349 109.182C76.4422 109.359 75.5169 109.268 74.6761 108.92C73.8352 108.572 73.1165 107.982 72.6108 107.225C72.1052 106.468 71.8353 105.579 71.8353 104.668C71.8363 103.448 72.3215 102.278 73.1843 101.416C74.0471 100.553 75.217 100.068 76.4371 100.067ZM76.4371 99.4608C75.4072 99.4608 74.4003 99.7662 73.5439 100.338C72.6875 100.911 72.0201 101.724 71.6259 102.676C71.2317 103.627 71.1286 104.674 71.3296 105.684C71.5305 106.695 72.0265 107.622 72.7548 108.351C73.4831 109.079 74.411 109.575 75.4212 109.776C76.4313 109.977 77.4784 109.874 78.43 109.48C79.3816 109.085 80.1949 108.418 80.7671 107.562C81.3393 106.705 81.6447 105.698 81.6447 104.668C81.6447 103.287 81.0961 101.963 80.1195 100.986C79.1428 100.009 77.8183 99.4608 76.4371 99.4608Z" fill="#3F3D56"/>
<path d="M123.306 135H23.6635C21.8968 134.998 20.2031 134.295 18.9539 133.046C17.7047 131.797 17.002 130.103 17 128.336V73.615C17.002 71.8484 17.7047 70.1547 18.9539 68.9054C20.2031 67.6562 21.8968 66.9535 23.6635 66.9515H35.8805C37.5381 66.9501 39.1365 67.568 40.3622 68.684L53.6107 78.1443C54.4745 78.9337 55.6025 79.3709 56.7726 79.3699H123.925C124.808 79.3699 125.682 79.5455 126.497 79.8865C127.312 80.2275 128.051 80.727 128.671 81.3561C129.291 81.9853 129.779 82.7313 130.109 83.551C130.438 84.3707 130.6 85.2476 130.587 86.1308L129.969 128.434C129.936 130.182 129.221 131.848 127.975 133.075C126.73 134.302 125.054 134.993 123.306 135ZM23.6635 67.3554C22.0039 67.3573 20.4128 68.0174 19.2393 69.1909C18.0658 70.3644 17.4057 71.9555 17.4038 73.615V128.336C17.4057 129.996 18.0658 131.587 19.2393 132.761C20.4128 133.934 22.0039 134.594 23.6635 134.596H123.306C124.948 134.589 126.523 133.94 127.692 132.787C128.862 131.635 129.534 130.07 129.565 128.428L130.184 86.1249C130.196 85.2952 130.043 84.4715 129.734 83.7014C129.425 82.9314 128.966 82.2306 128.383 81.6396C127.801 81.0486 127.107 80.5793 126.341 80.259C125.576 79.9387 124.754 79.7737 123.925 79.7737H56.7726C55.506 79.7748 54.2846 79.3031 53.3475 78.4509L40.099 68.9905C38.9466 67.9374 37.4416 67.3541 35.8805 67.3554H23.6635Z" fill="#3F3D56"/>
</svg>
