<svg width="150" height="150" viewBox="0 0 150 150" fill="none" xmlns="http://www.w3.org/2000/svg">
<path d="M87.1898 53.6846L87.1906 53.6844C87.3895 53.6405 87.5745 53.5507 87.7308 53.423L79.6016 17.4656L87.1898 53.6846ZM87.1898 53.6846L52.2345 61.5105L44.0748 25.4184C44.0748 25.4184 44.0748 25.4183 44.0747 25.4183C43.9097 24.6841 44.044 23.9147 44.4483 23.2787C44.8527 22.6426 45.4943 22.1918 46.2327 22.0256M87.1898 53.6846L46.2327 22.0256M46.2327 22.0256L76.1901 15.3187C76.1902 15.3186 76.1903 15.3186 76.1904 15.3186C76.9291 15.1542 77.7031 15.2881 78.3426 15.6907C78.9821 16.0933 79.4346 16.7316 79.6015 17.4653L46.2327 22.0256Z" fill="#E6FBF9" stroke="#03DAC5" stroke-width="0.5"/>
<path d="M65.2537 20.0779L48.836 23.7536C48.1051 23.918 47.4695 24.3641 47.0687 24.9942C46.6679 25.6242 46.5346 26.3868 46.698 27.1145L54.4215 61.2771L85.6831 54.2781L80.0584 29.399C79.3339 26.2112 77.3683 23.4396 74.5928 21.6922C71.8174 19.9448 68.4587 19.3642 65.2537 20.0779Z" fill="white"/>
<path d="M79.6715 52.4366L59.0616 57.0508C58.9733 57.0704 58.8897 57.1071 58.8156 57.1589C58.7415 57.2107 58.6785 57.2766 58.63 57.3526C58.5815 57.4287 58.5486 57.5136 58.5331 57.6023C58.5176 57.6911 58.5199 57.782 58.5397 57.8699C58.5596 57.9578 58.5967 58.0409 58.6489 58.1146C58.7011 58.1882 58.7674 58.2508 58.8439 58.2989C58.9205 58.347 59.0058 58.3796 59.095 58.3948C59.1842 58.4101 59.2756 58.4076 59.3639 58.3877L79.9738 53.7735C80.0622 53.7539 80.1459 53.7172 80.22 53.6654C80.2942 53.6137 80.3573 53.5478 80.4058 53.4717C80.4544 53.3956 80.4873 53.3107 80.5028 53.2219C80.5183 53.1331 80.5161 53.0422 80.4962 52.9542C80.4763 52.8663 80.4392 52.7831 80.387 52.7095C80.3347 52.6358 80.2684 52.5732 80.1918 52.5251C80.1152 52.477 80.0298 52.4444 79.9405 52.4292C79.8512 52.414 79.7598 52.4165 79.6715 52.4366Z" fill="#9AF0E8"/>
<path d="M79.0741 49.7924L58.4642 54.4066C58.2859 54.4465 58.1308 54.5553 58.0331 54.709C57.9353 54.8627 57.903 55.0488 57.9431 55.2263C57.9832 55.4037 58.0925 55.5581 58.247 55.6553C58.4015 55.7526 58.5885 55.7848 58.7668 55.7449L79.3767 51.1306C79.465 51.1109 79.5485 51.074 79.6225 51.0221C79.6964 50.9702 79.7594 50.9043 79.8078 50.8282C79.8562 50.7521 79.8891 50.6672 79.9045 50.5785C79.9199 50.4897 79.9177 50.3988 79.8978 50.311C79.8779 50.2231 79.8409 50.14 79.7887 50.0664C79.7366 49.9927 79.6703 49.93 79.5939 49.8819C79.5174 49.8337 79.4321 49.801 79.3429 49.7857C79.2537 49.7703 79.1624 49.7726 79.0741 49.7924H79.0741Z" fill="#9AF0E8"/>
<path d="M66.8001 49.7642L57.866 51.7644C57.6879 51.8043 57.5329 51.9129 57.4353 52.0665C57.3377 52.2201 57.3053 52.4059 57.3454 52.5832C57.3855 52.7605 57.4947 52.9147 57.649 53.0119C57.8033 53.109 57.9901 53.1412 58.1683 53.1013L67.1023 51.1011C67.1907 51.0816 67.2744 51.0449 67.3486 50.9931C67.4227 50.9413 67.4858 50.8755 67.5344 50.7994C67.5829 50.7233 67.6159 50.6384 67.6314 50.5496C67.6469 50.4608 67.6446 50.3698 67.6248 50.2818C67.6049 50.1939 67.5678 50.1107 67.5155 50.0371C67.4633 49.9635 67.397 49.9008 67.3204 49.8527C67.2437 49.8046 67.1583 49.7721 67.0691 49.7569C66.9798 49.7417 66.8884 49.7442 66.8001 49.7642Z" fill="#9AF0E8"/>
<path d="M77.2245 41.6141L56.6146 46.2284C56.5263 46.2481 56.4428 46.285 56.3688 46.3369C56.2948 46.3888 56.2318 46.4547 56.1834 46.5308C56.0857 46.6845 56.0533 46.8706 56.0935 47.0481C56.1336 47.2255 56.2429 47.3799 56.3974 47.4771C56.5519 47.5744 56.7388 47.6066 56.9172 47.5666L77.527 42.9524C77.6153 42.9327 77.6989 42.8958 77.7729 42.8439C77.8468 42.792 77.9098 42.7261 77.9582 42.65C78.0066 42.5739 78.0395 42.489 78.0549 42.4003C78.0703 42.3115 78.068 42.2206 78.0482 42.1327C78.0283 42.0449 77.9912 41.9617 77.9391 41.8881C77.8869 41.8145 77.8207 41.7518 77.7443 41.7037C77.6678 41.6555 77.5825 41.6228 77.4933 41.6075C77.4041 41.5921 77.3128 41.5944 77.2245 41.6141Z" fill="#9AF0E8"/>
<path d="M76.6271 38.9714L56.0172 43.5857C55.9288 43.6053 55.8452 43.642 55.7712 43.6938C55.6971 43.7456 55.634 43.8114 55.5855 43.8875C55.5371 43.9636 55.5041 44.0485 55.4887 44.1372C55.4732 44.226 55.4754 44.3169 55.4953 44.4048C55.5152 44.4927 55.5523 44.5758 55.6045 44.6494C55.6567 44.723 55.7229 44.7857 55.7995 44.8338C55.876 44.8819 55.9614 44.9145 56.0506 44.9297C56.1398 44.945 56.2312 44.9425 56.3195 44.9226L76.9293 40.3084C77.0176 40.2887 77.1011 40.2519 77.1751 40.2001C77.2491 40.1483 77.3121 40.0824 77.3605 40.0064C77.4089 39.9303 77.4418 39.8455 77.4572 39.7568C77.4727 39.6681 77.4704 39.5772 77.4506 39.4894C77.4307 39.4015 77.3937 39.3185 77.3415 39.2449C77.2894 39.1713 77.2232 39.1087 77.1467 39.0606C77.0702 39.0125 76.985 38.9798 76.8958 38.9645C76.8066 38.9493 76.7153 38.9516 76.6271 38.9714Z" fill="#9AF0E8"/>
<path d="M64.3538 38.942L55.4198 40.9422C55.3315 40.962 55.2479 40.9989 55.174 41.0508C55.1 41.1027 55.037 41.1685 54.9886 41.2447C54.9402 41.3208 54.9074 41.4056 54.8919 41.4944C54.8765 41.5831 54.8788 41.674 54.8986 41.7619C54.9185 41.8498 54.9556 41.9329 55.0077 42.0065C55.0599 42.0801 55.1261 42.1428 55.2026 42.191C55.2791 42.2391 55.3643 42.2718 55.4535 42.2872C55.5427 42.3025 55.634 42.3003 55.7224 42.2805L64.6564 40.2803C64.7447 40.2605 64.8282 40.2237 64.9022 40.1718C64.9762 40.1199 65.0392 40.054 65.0876 39.9779C65.136 39.9018 65.1688 39.8169 65.1842 39.7281C65.1997 39.6394 65.1974 39.5485 65.1775 39.4606C65.1577 39.3727 65.1206 39.2896 65.0685 39.216C65.0163 39.1424 64.9501 39.0797 64.8736 39.0316C64.7971 38.9834 64.7118 38.9507 64.6227 38.9353C64.5335 38.92 64.4421 38.9223 64.3538 38.942Z" fill="#9AF0E8"/>
<path d="M74.7777 30.7919L54.1678 35.4061C53.9895 35.446 53.8344 35.5548 53.7367 35.7085C53.6389 35.8623 53.6066 36.0483 53.6467 36.2258C53.6868 36.4033 53.7961 36.5576 53.9506 36.6549C54.1051 36.7521 54.2921 36.7843 54.4704 36.7444L75.0803 32.1302C75.1686 32.1104 75.2521 32.0735 75.3261 32.0216C75.4001 31.9697 75.463 31.9038 75.5114 31.8277C75.5598 31.7516 75.5927 31.6667 75.6081 31.578C75.6236 31.4892 75.6213 31.3983 75.6014 31.3105C75.5815 31.2226 75.5445 31.1395 75.4923 31.0659C75.4402 30.9922 75.374 30.9296 75.2975 30.8814C75.221 30.8332 75.1357 30.8006 75.0465 30.7852C74.9574 30.7698 74.866 30.7721 74.7777 30.7919Z" fill="#E6FBF9"/>
<path d="M74.181 28.1495L53.5711 32.7638C53.4828 32.7835 53.3993 32.8204 53.3253 32.8723C53.2514 32.9242 53.1884 32.9901 53.14 33.0662C53.0423 33.2199 53.0099 33.406 53.05 33.5835C53.0901 33.7609 53.1995 33.9153 53.3539 34.0125C53.5084 34.1098 53.6954 34.142 53.8737 34.102L74.4836 29.4878C74.5719 29.4681 74.6554 29.4312 74.7294 29.3793C74.8034 29.3274 74.8664 29.2615 74.9147 29.1854C74.9631 29.1093 74.996 29.0244 75.0114 28.9357C75.0269 28.8469 75.0246 28.756 75.0047 28.6681C74.9849 28.5803 74.9478 28.4971 74.8956 28.4235C74.8435 28.3499 74.7773 28.2872 74.7008 28.2391C74.6243 28.1909 74.539 28.1582 74.4499 28.1429C74.3607 28.1275 74.2693 28.1298 74.181 28.1495Z" fill="#E6FBF9"/>
<path d="M61.9071 28.1198L52.973 30.1199C52.7947 30.1599 52.6396 30.2687 52.5418 30.4224C52.4441 30.5761 52.4117 30.7622 52.4519 30.9396C52.492 31.1171 52.6013 31.2714 52.7558 31.3687C52.9103 31.466 53.0972 31.4982 53.2756 31.4582L62.2096 29.458C62.2979 29.4383 62.3815 29.4014 62.4554 29.3495C62.5294 29.2976 62.5924 29.2317 62.6408 29.1556C62.6892 29.0795 62.722 28.9946 62.7375 28.9059C62.7529 28.8171 62.7506 28.7262 62.7308 28.6383C62.7109 28.5505 62.6738 28.4674 62.6217 28.3937C62.5695 28.3201 62.5033 28.2574 62.4268 28.2093C62.3503 28.1611 62.2651 28.1284 62.1759 28.1131C62.0867 28.0977 61.9954 28.1 61.9071 28.1198Z" fill="#E6FBF9"/>
<path d="M16.3699 57.2336C16.1746 57.2339 15.9874 57.3112 15.8493 57.4486C15.7112 57.586 15.6335 57.7723 15.6333 57.9666V133.76C15.6335 133.954 15.7112 134.141 15.8493 134.278C15.9874 134.416 16.1746 134.493 16.3699 134.493H111.865C112.06 134.493 112.247 134.416 112.385 134.278C112.523 134.141 112.601 133.954 112.601 133.76V70.1331C112.601 69.9388 112.523 69.7524 112.385 69.615C112.247 69.4776 112.06 69.4002 111.865 69.4H57.057C56.5006 69.4005 55.9641 69.1942 55.5526 68.8215L43.231 57.6805C42.9131 57.3927 42.4987 57.2333 42.0689 57.2336H16.3699Z" fill="#03DAC5"/>
<path d="M105.193 105.957L105.194 105.957C105.602 106.133 106.048 106.2 106.488 106.151L133.051 44.6657L105.193 105.957ZM105.193 105.957L45.3466 80.3532M105.193 105.957L45.3466 80.3532M45.3466 80.3532L72.0399 18.5659C72.6042 17.2638 73.6646 16.2374 74.9888 15.712C76.313 15.1866 77.7926 15.2053 79.1029 15.7641L45.3466 80.3532ZM79.1032 15.7642L130.235 37.6395C130.235 37.6395 130.235 37.6395 130.235 37.6396C131.544 38.2014 132.575 39.2568 133.103 40.5738C133.631 41.8908 133.612 43.3622 133.051 44.6654L79.1032 15.7642Z" fill="#E6FBF9" stroke="#03DAC5" stroke-width="0.5"/>
<path d="M109.016 33.23L80.9939 21.2417C79.7456 20.709 78.336 20.6908 77.0742 21.1911C75.8124 21.6913 74.8015 22.6691 74.2632 23.9101L49.0728 82.2188L102.43 105.046L120.775 62.5826C123.12 57.1376 123.199 50.9894 120.994 45.4866C118.79 39.9839 114.482 35.576 109.016 33.23Z" fill="white"/>
<path d="M95.5775 95.9789L60.4005 80.9294C60.2498 80.8647 60.0879 80.8301 59.9238 80.8278C59.7598 80.8254 59.5969 80.8552 59.4445 80.9156C59.292 80.9759 59.153 81.0656 59.0354 81.1794C58.9179 81.2932 58.824 81.4291 58.7592 81.579C58.6944 81.729 58.6599 81.8903 58.6578 82.0535C58.6557 82.2167 58.6859 82.3788 58.7468 82.5304C58.8077 82.682 58.898 82.8202 59.0126 82.937C59.1272 83.0538 59.2638 83.147 59.4146 83.2113L94.5917 98.2608C94.7423 98.3255 94.9042 98.3601 95.0683 98.3624C95.2323 98.3648 95.3952 98.335 95.5476 98.2746C95.7001 98.2143 95.8391 98.1246 95.9567 98.0108C96.0742 97.8969 96.1681 97.7611 96.2329 97.6112C96.2977 97.4612 96.3322 97.2999 96.3343 97.1367C96.3364 96.9735 96.3062 96.8114 96.2453 96.6598C96.1844 96.5082 96.0941 96.37 95.9795 96.2532C95.8649 96.1364 95.7283 96.0432 95.5775 95.9789Z" fill="#9AF0E8"/>
<path d="M97.5271 91.4666L62.3501 76.417C62.0458 76.287 61.7019 76.2825 61.3943 76.4046C61.0866 76.5268 60.8403 76.7655 60.7095 77.0683C60.5787 77.3712 60.574 77.7133 60.6966 78.0195C60.8192 78.3257 61.059 78.5709 61.3633 78.7012L96.5403 93.7508C96.691 93.8152 96.853 93.8495 97.0171 93.8517C97.1811 93.8539 97.3439 93.8239 97.4963 93.7634C97.6487 93.703 97.7877 93.6132 97.9052 93.4993C98.0227 93.3855 98.1166 93.2497 98.1814 93.0997C98.2462 92.9497 98.2807 92.7885 98.2828 92.6252C98.285 92.462 98.2549 92.2999 98.1941 92.1483C98.1334 91.9966 98.0432 91.8584 97.9288 91.7414C97.8143 91.6244 97.6778 91.531 97.5271 91.4666H97.5271Z" fill="#9AF0E8"/>
<path d="M79.5472 78.4308L64.2985 71.9071C64.1479 71.8425 63.986 71.8081 63.8221 71.8058C63.6581 71.8035 63.4953 71.8334 63.343 71.8938C63.1906 71.9541 63.0517 72.0438 62.9342 72.1576C62.8167 72.2714 62.7229 72.4071 62.6581 72.5571C62.5933 72.707 62.5589 72.8681 62.5567 73.0313C62.5546 73.1944 62.5848 73.3564 62.6456 73.508C62.7064 73.6595 62.7966 73.7977 62.9111 73.9145C63.0255 74.0314 63.162 74.1246 63.3127 74.1889L78.5614 80.7126C78.712 80.7772 78.8739 80.8116 79.0378 80.8139C79.2018 80.8162 79.3646 80.7863 79.5169 80.726C79.6693 80.6656 79.8082 80.5759 79.9257 80.4621C80.0432 80.3483 80.137 80.2126 80.2018 80.0626C80.2666 79.9127 80.301 79.7516 80.3032 79.5884C80.3053 79.4253 80.2751 79.2633 80.2143 79.1117C80.1535 78.9602 80.0633 78.822 79.9489 78.7052C79.8344 78.5884 79.6979 78.4951 79.5472 78.4308Z" fill="#9AF0E8"/>
<path d="M103.558 77.5075L68.3806 62.458C68.0762 62.3282 67.7326 62.3239 67.4251 62.4461C67.1177 62.5683 66.8715 62.8069 66.7407 63.1096C66.61 63.4123 66.6053 63.7542 66.7277 64.0603C66.8502 64.3665 67.0897 64.6117 67.3937 64.7421L102.571 79.7917C102.722 79.8564 102.884 79.891 103.048 79.8933C103.212 79.8957 103.375 79.8658 103.528 79.8054C103.68 79.745 103.819 79.6552 103.937 79.5413C104.055 79.4273 104.149 79.2914 104.213 79.1413C104.278 78.9911 104.313 78.8298 104.315 78.6664C104.317 78.503 104.287 78.3408 104.226 78.1891C104.165 78.0373 104.075 77.899 103.96 77.7821C103.845 77.6651 103.708 77.5718 103.558 77.5075Z" fill="#9AF0E8"/>
<path d="M105.506 72.9972L70.3287 57.9477C70.1781 57.883 70.0161 57.8485 69.8521 57.8461C69.688 57.8437 69.5251 57.8735 69.3727 57.9339C69.2202 57.9942 69.0813 58.0839 68.9637 58.1977C68.8461 58.3116 68.7522 58.4474 68.6874 58.5973C68.6226 58.7473 68.5882 58.9086 68.586 59.0718C68.5839 59.235 68.6142 59.3971 68.675 59.5487C68.7359 59.7003 68.8262 59.8385 68.9408 59.9553C69.0554 60.0721 69.192 60.1653 69.3429 60.2296L104.52 75.2791C104.67 75.3438 104.832 75.3784 104.996 75.3807C105.161 75.3831 105.323 75.3533 105.476 75.2929C105.628 75.2326 105.767 75.1429 105.885 75.0291C106.002 74.9153 106.096 74.7795 106.161 74.6295C106.226 74.4795 106.26 74.3183 106.263 74.155C106.265 73.9918 106.234 73.8297 106.173 73.6781C106.113 73.5265 106.022 73.3883 105.908 73.2715C105.793 73.1547 105.657 73.0615 105.506 72.9972Z" fill="#9AF0E8"/>
<path d="M87.527 59.9591L72.2783 53.4353C71.974 53.3053 71.6302 53.3008 71.3225 53.423C71.0148 53.5451 70.7685 53.7838 70.6377 54.0866C70.5069 54.3895 70.5023 54.7316 70.6249 55.0378C70.7475 55.344 70.9873 55.5892 71.2915 55.7195L86.5402 62.2433C86.6909 62.3078 86.8529 62.3422 87.017 62.3444C87.1811 62.3466 87.344 62.3167 87.4965 62.2562C87.6489 62.1958 87.7879 62.1061 87.9055 61.9921C88.023 61.8782 88.1169 61.7424 88.1817 61.5924C88.2465 61.4424 88.281 61.2811 88.2832 61.1178C88.2854 60.9545 88.2552 60.7924 88.1944 60.6407C88.1336 60.4891 88.0433 60.3508 87.9288 60.2338C87.8143 60.1169 87.6778 60.0235 87.527 59.9591Z" fill="#9AF0E8"/>
<path d="M111.537 59.0361L76.3602 43.9866C76.0559 43.8569 75.7123 43.8527 75.4049 43.9749C75.0975 44.0972 74.8514 44.3358 74.7207 44.6384C74.59 44.941 74.5853 45.2829 74.7076 45.589C74.83 45.895 75.0694 46.1403 75.3734 46.2708L110.55 61.3203C110.701 61.3849 110.863 61.4192 111.027 61.4215C111.191 61.4237 111.354 61.3937 111.507 61.3333C111.659 61.2728 111.798 61.1831 111.916 61.0692C112.033 60.9553 112.127 60.8194 112.192 60.6694C112.257 60.5194 112.291 60.3581 112.293 60.1949C112.296 60.0316 112.265 59.8695 112.205 59.7178C112.144 59.5661 112.054 59.4279 111.939 59.3109C111.824 59.1939 111.688 59.1006 111.537 59.0361Z" fill="#03DAC5"/>
<path d="M113.486 54.526L78.3088 39.4765C78.0045 39.3467 77.6608 39.3424 77.3533 39.4646C77.0459 39.5868 76.7997 39.8255 76.669 40.1281C76.5382 40.4308 76.5335 40.7728 76.6559 41.0789C76.7784 41.385 77.0179 41.6302 77.322 41.7607L112.499 56.8102C112.65 56.8753 112.812 56.9101 112.976 56.9126C113.141 56.9151 113.304 56.8854 113.457 56.825C113.609 56.7647 113.749 56.6749 113.867 56.5609C113.984 56.4469 114.079 56.3108 114.143 56.1606C114.208 56.0103 114.243 55.8488 114.245 55.6852C114.247 55.5217 114.217 55.3593 114.155 55.2075C114.094 55.0556 114.004 54.9173 113.889 54.8003C113.774 54.6834 113.637 54.5902 113.486 54.526Z" fill="#03DAC5"/>
<path d="M95.507 41.4874L80.2583 34.9637C79.954 34.8336 79.6101 34.8291 79.3025 34.9513C78.9948 35.0734 78.7485 35.3121 78.6177 35.615C78.4869 35.9178 78.4822 36.2599 78.6048 36.5661C78.7274 36.8723 78.9672 37.1176 79.2715 37.2479L94.5202 43.7716C94.6709 43.8361 94.8329 43.8705 94.997 43.8727C95.1611 43.875 95.324 43.845 95.4764 43.7846C95.6289 43.7241 95.7678 43.6344 95.8854 43.5205C96.003 43.4066 96.0969 43.2707 96.1617 43.1207C96.2265 42.9707 96.261 42.8094 96.2632 42.6461C96.2653 42.4828 96.2352 42.3207 96.1744 42.1691C96.1136 42.0174 96.0233 41.8791 95.9088 41.7621C95.7943 41.6452 95.6578 41.5518 95.507 41.4874V41.4874Z" fill="#03DAC5"/>
<path d="M68.5976 98.5449L68.5983 98.5447C68.7972 98.5009 68.9822 98.411 69.1385 98.2834L61.0093 62.326L68.5976 98.5449ZM68.5976 98.5449L33.6422 106.371L25.4825 70.2788C25.4825 70.2787 25.4825 70.2787 25.4825 70.2786C25.3174 69.5445 25.4517 68.775 25.856 68.1391C26.2604 67.503 26.902 67.0522 27.6404 66.886M68.5976 98.5449L27.6404 66.886M27.6404 66.886L57.5978 60.179C57.5979 60.179 57.598 60.179 57.5981 60.179C58.3368 60.0145 59.1109 60.1484 59.7504 60.551C60.3898 60.9536 60.8424 61.5919 61.0092 62.3257L27.6404 66.886Z" fill="#E6FBF9" stroke="#03DAC5" stroke-width="0.5"/>
<path d="M46.6614 64.9383L30.2437 68.6139C29.5128 68.7783 28.8772 69.2245 28.4764 69.8545C28.0756 70.4846 27.9423 71.2471 28.1057 71.9749L35.8292 106.137L67.0908 99.1384L61.4661 74.2593C60.7416 71.0716 58.776 68.3 56.0005 66.5526C53.2251 64.8051 49.8664 64.2246 46.6614 64.9383Z" fill="white"/>
<path d="M61.0792 97.2969L40.4693 101.911C40.381 101.931 40.2974 101.967 40.2233 102.019C40.1492 102.071 40.0862 102.137 40.0377 102.213C39.9892 102.289 39.9563 102.374 39.9408 102.463C39.9253 102.551 39.9276 102.642 39.9475 102.73C39.9673 102.818 40.0044 102.901 40.0566 102.975C40.1088 103.049 40.1751 103.111 40.2516 103.159C40.3282 103.207 40.4135 103.24 40.5027 103.255C40.5919 103.27 40.6833 103.268 40.7716 103.248L61.3815 98.6338C61.4699 98.6143 61.5536 98.5776 61.6277 98.5258C61.7019 98.474 61.765 98.4082 61.8135 98.3321C61.8621 98.256 61.895 98.1711 61.9105 98.0823C61.9261 97.9935 61.9238 97.9025 61.9039 97.8146C61.884 97.7266 61.8469 97.6435 61.7947 97.5698C61.7424 97.4962 61.6761 97.4335 61.5995 97.3854C61.5229 97.3373 61.4375 97.3048 61.3482 97.2896C61.2589 97.2744 61.1675 97.2769 61.0792 97.2969Z" fill="#9AF0E8"/>
<path d="M60.4813 94.6532L39.8714 99.2674C39.6931 99.3074 39.538 99.4161 39.4403 99.5699C39.3425 99.7236 39.3102 99.9097 39.3503 100.087C39.3904 100.265 39.4998 100.419 39.6542 100.516C39.8087 100.613 39.9957 100.646 40.174 100.606L60.7839 95.9915C60.9622 95.9516 61.1173 95.8428 61.215 95.6891C61.3128 95.5353 61.3451 95.3493 61.305 95.1718C61.2649 94.9943 61.1556 94.84 61.0011 94.7427C60.8466 94.6455 60.6597 94.6133 60.4813 94.6532Z" fill="#9AF0E8"/>
<path d="M48.2083 94.6248L39.2742 96.625C39.186 96.6447 39.1026 96.6816 39.0287 96.7334C38.9548 96.7853 38.8918 96.8511 38.8435 96.9271C38.7951 97.0032 38.7623 97.0879 38.7469 97.1766C38.7315 97.2652 38.7338 97.3561 38.7536 97.4438C38.7735 97.5316 38.8105 97.6146 38.8626 97.6882C38.9147 97.7617 38.9808 97.8244 39.0572 97.8725C39.1336 97.9206 39.2188 97.9532 39.3079 97.9686C39.397 97.9839 39.4883 97.9817 39.5765 97.9619L48.5105 95.9617C48.5989 95.9422 48.6826 95.9055 48.7568 95.8537C48.8309 95.8019 48.894 95.7361 48.9426 95.66C48.9911 95.5839 49.0241 95.499 49.0396 95.4102C49.0551 95.3214 49.0528 95.2304 49.033 95.1424C49.0131 95.0545 48.976 94.9713 48.9237 94.8977C48.8715 94.8241 48.8052 94.7614 48.7286 94.7133C48.6519 94.6652 48.5666 94.6327 48.4773 94.6175C48.388 94.6023 48.2966 94.6048 48.2083 94.6248Z" fill="#9AF0E8"/>
<path d="M58.6322 86.475L38.0223 91.0892C37.934 91.109 37.8505 91.1459 37.7765 91.1977C37.7025 91.2496 37.6395 91.3155 37.5912 91.3916C37.4934 91.5454 37.4611 91.7314 37.5012 91.9089C37.5413 92.0864 37.6506 92.2407 37.8051 92.338C37.9596 92.4352 38.1466 92.4674 38.3249 92.4275L58.9348 87.8133C59.1131 87.7733 59.2682 87.6645 59.3659 87.5108C59.4637 87.3571 59.496 87.171 59.4559 86.9936C59.4158 86.8161 59.3064 86.6618 59.152 86.5645C58.9975 86.4672 58.8105 86.4351 58.6322 86.475Z" fill="#9AF0E8"/>
<path d="M58.0353 83.8323L37.4254 88.4465C37.3371 88.4661 37.2534 88.5029 37.1794 88.5546C37.1053 88.6064 37.0422 88.6723 36.9937 88.7484C36.9453 88.8244 36.9123 88.9093 36.8969 88.9981C36.8814 89.0868 36.8836 89.1777 36.9035 89.2656C36.9234 89.3535 36.9605 89.4367 37.0127 89.5103C37.0649 89.5839 37.1311 89.6465 37.2077 89.6946C37.2842 89.7427 37.3696 89.7753 37.4588 89.7905C37.548 89.8058 37.6394 89.8034 37.7277 89.7834L58.3375 85.1692C58.4258 85.1495 58.5093 85.1127 58.5833 85.0609C58.6573 85.0091 58.7203 84.9433 58.7687 84.8672C58.8171 84.7911 58.85 84.7063 58.8655 84.6176C58.8809 84.5289 58.8786 84.438 58.8588 84.3502C58.8389 84.2624 58.8019 84.1793 58.7497 84.1057C58.6976 84.0321 58.6314 83.9695 58.5549 83.9214C58.4784 83.8733 58.3932 83.8407 58.304 83.8254C58.2148 83.8101 58.1235 83.8124 58.0353 83.8323Z" fill="#9AF0E8"/>
<path d="M45.7611 83.8024L36.827 85.8026C36.6487 85.8425 36.4936 85.9513 36.3958 86.105C36.2981 86.2587 36.2657 86.4448 36.3059 86.6222C36.346 86.7997 36.4553 86.9541 36.6098 87.0513C36.7643 87.1486 36.9512 87.1808 37.1296 87.1408L46.0636 85.1407C46.242 85.1007 46.3971 84.9919 46.4948 84.8382C46.5925 84.6845 46.6249 84.4984 46.5848 84.321C46.5446 84.1435 46.4353 83.9892 46.2808 83.8919C46.1264 83.7947 45.9394 83.7624 45.7611 83.8024Z" fill="#9AF0E8"/>
<path d="M56.1854 75.6522L35.5755 80.2664C35.4872 80.2862 35.4037 80.3231 35.3297 80.375C35.2558 80.4269 35.1928 80.4928 35.1444 80.5689C35.0467 80.7226 35.0143 80.9087 35.0544 81.0861C35.0945 81.2636 35.2039 81.4179 35.3583 81.5152C35.5128 81.6125 35.6998 81.6447 35.8781 81.6047L56.488 76.9905C56.5763 76.9707 56.6598 76.9339 56.7338 76.882C56.8078 76.8301 56.8707 76.7642 56.9191 76.6881C56.9675 76.612 57.0004 76.5271 57.0158 76.4383C57.0313 76.3496 57.029 76.2587 57.0091 76.1708C56.9892 76.0829 56.9522 75.9998 56.9 75.9262C56.8479 75.8526 56.7817 75.7899 56.7052 75.7418C56.6287 75.6936 56.5434 75.6609 56.4543 75.6455C56.3651 75.6302 56.2737 75.6325 56.1854 75.6522H56.1854Z" fill="#E6FBF9"/>
<path d="M55.5882 73.0101L34.9784 77.6244C34.8901 77.6441 34.8065 77.681 34.7326 77.7329C34.6586 77.7848 34.5956 77.8507 34.5472 77.9268C34.4495 78.0805 34.4171 78.2666 34.4572 78.4441C34.4974 78.6215 34.6067 78.7759 34.7612 78.8731C34.9156 78.9704 35.1026 79.0026 35.2809 78.9626L55.8908 74.3484C56.0692 74.3085 56.2242 74.1997 56.322 74.046C56.4197 73.8923 56.4521 73.7062 56.4119 73.5287C56.3718 73.3513 56.2625 73.1969 56.108 73.0997C55.9536 73.0024 55.7666 72.9702 55.5882 73.0101H55.5882Z" fill="#E6FBF9"/>
<path d="M43.3143 72.9801L34.3802 74.9803C34.2019 75.0202 34.0468 75.129 33.9491 75.2827C33.8513 75.4365 33.819 75.6225 33.8591 75.8C33.8992 75.9775 34.0085 76.1318 34.163 76.229C34.3175 76.3263 34.5045 76.3585 34.6828 76.3186L43.6169 74.3184C43.7052 74.2986 43.7887 74.2617 43.8627 74.2098C43.9366 74.1579 43.9996 74.0921 44.048 74.0159C44.0964 73.9398 44.1293 73.855 44.1447 73.7662C44.1601 73.6775 44.1579 73.5866 44.138 73.4987C44.1181 73.4108 44.0811 73.3277 44.0289 73.2541C43.9768 73.1805 43.9106 73.1178 43.8341 73.0696C43.7576 73.0215 43.6723 72.9888 43.5831 72.9734C43.4939 72.9581 43.4026 72.9603 43.3143 72.9801Z" fill="#E6FBF9"/>
<path d="M15.7366 77.1411C15.6399 77.1411 15.5441 77.16 15.4548 77.1969C15.3654 77.2337 15.2842 77.2876 15.2158 77.3557C15.1474 77.4237 15.0931 77.5045 15.0561 77.5934C15.0191 77.6823 15 77.7776 15 77.8739C15 77.9014 15.0227 134.349 15.0227 134.349C15.0428 134.528 15.1287 134.694 15.2637 134.814C15.3987 134.934 15.5735 135 15.7546 135H118.337C118.518 135 118.693 134.934 118.828 134.814C118.963 134.694 119.049 134.528 119.069 134.349L125.454 77.9562C125.465 77.8536 125.455 77.7498 125.424 77.6515C125.392 77.5532 125.34 77.4626 125.271 77.3857C125.203 77.3083 125.118 77.2465 125.023 77.2043C124.929 77.1621 124.826 77.1406 124.722 77.1411L15.7366 77.1411Z" fill="#03DAC5"/>
<path d="M22.9753 80.2661C21.9346 80.2691 20.9368 80.6796 20.1977 81.4087C19.4586 82.1378 19.0375 83.1271 19.0254 84.1627L19.1535 127.91C19.1489 128.429 19.2477 128.944 19.4442 129.425C19.6407 129.906 19.9309 130.343 20.2981 130.712C20.6654 131.08 21.1024 131.373 21.5839 131.573C22.0654 131.772 22.5819 131.875 23.1035 131.875H88.2219C95.6904 131.88 102.899 129.145 108.467 124.192C114.036 119.24 117.575 112.418 118.406 105.032L120.715 84.6372C120.778 84.0873 120.723 83.5305 120.554 83.0033C120.385 82.4761 120.106 81.9902 119.736 81.5776C119.365 81.165 118.911 80.8349 118.404 80.6089C117.896 80.3829 117.346 80.2661 116.79 80.2661H22.9753ZM122.766 80.2661L122.754 80.0127H122.766V80.2661Z" fill="#E6FBF9"/>
<path d="M51.4203 113.042H26.1943C25.9336 113.042 25.6836 112.939 25.4993 112.755C25.315 112.572 25.2114 112.323 25.2114 112.064C25.2114 111.804 25.315 111.555 25.4993 111.372C25.6836 111.189 25.9336 111.086 26.1943 111.086H51.4203C52.6878 111.068 52.7005 113.059 51.4203 113.042Z" fill="#9AF0E8"/>
<path d="M85.4027 118.157H26.1943C25.9336 118.157 25.6836 118.054 25.4993 117.871C25.315 117.688 25.2114 117.439 25.2114 117.179C25.2114 116.92 25.315 116.671 25.4993 116.488C25.6836 116.304 25.9336 116.201 26.1943 116.201H85.4027C86.6701 116.184 86.6828 118.175 85.4027 118.157Z" fill="#9AF0E8"/>
</svg>
