<svg width="150" height="150" viewBox="0 0 150 150" fill="none" xmlns="http://www.w3.org/2000/svg">
<g clip-path="url(#clip0_1149_26750)">
<path d="M92.044 41.9876H58.9183C58.1634 41.9885 57.4397 42.2888 56.906 42.8226C56.3722 43.3564 56.0719 44.0801 56.071 44.8349V118.457L55.6913 118.573L47.5651 121.061C47.18 121.179 46.764 121.139 46.4085 120.95C46.0529 120.761 45.7869 120.438 45.6688 120.053L21.4969 41.0973C21.3793 40.7122 21.4194 40.2961 21.6084 39.9406C21.7974 39.585 22.1199 39.319 22.5049 39.201L35.0274 35.3666L71.3307 24.2545L83.8532 20.4201C84.0438 20.3615 84.244 20.341 84.4425 20.3598C84.641 20.3786 84.8339 20.4364 85.01 20.5299C85.1861 20.6233 85.3421 20.7506 85.469 20.9044C85.5959 21.0582 85.6912 21.2355 85.7495 21.4262L91.9282 41.608L92.044 41.9876Z" fill="#F2F2F2"/>
<path d="M99.2725 41.6077L91.8258 17.284C91.702 16.8787 91.4994 16.5018 91.2298 16.1749C90.9602 15.8479 90.6288 15.5773 90.2546 15.3784C89.8803 15.1796 89.4706 15.0564 89.0487 15.016C88.6268 14.9756 88.2011 15.0187 87.7959 15.1428L70.19 20.5319L33.8887 31.6459L16.2827 37.0368C15.4649 37.288 14.78 37.8533 14.3786 38.6089C13.9772 39.3644 13.8919 40.2484 14.1415 41.0667L39.5928 124.195C39.7955 124.856 40.2047 125.434 40.7602 125.845C41.3157 126.256 41.9883 126.478 42.6793 126.479C42.9991 126.479 43.3171 126.431 43.6227 126.336L55.6915 122.642L56.0711 122.525V122.128L55.6915 122.244L43.5107 125.974C42.7888 126.194 42.009 126.119 41.3425 125.764C40.676 125.41 40.1771 124.806 39.9553 124.085L14.506 40.9547C14.3962 40.5973 14.3579 40.2217 14.3933 39.8494C14.4288 39.4771 14.5374 39.1155 14.7128 38.7852C14.8883 38.455 15.1271 38.1626 15.4157 37.9248C15.7043 37.687 16.037 37.5084 16.3947 37.3994L34.0006 32.0084L70.3021 20.8963L87.908 15.5054C88.1793 15.4226 88.4614 15.3804 88.745 15.3801C89.3538 15.3815 89.9462 15.5777 90.4353 15.9402C90.9245 16.3026 91.2848 16.8121 91.4633 17.3941L98.8758 41.6077L98.9935 41.9874H99.3884L99.2725 41.6077Z" fill="#3F3D56"/>
<path d="M37.2873 39.2631C36.9214 39.2628 36.5653 39.1453 36.2711 38.9278C35.9769 38.7103 35.7602 38.4043 35.6527 38.0546L33.2077 30.0684C33.142 29.8539 33.1192 29.6286 33.1406 29.4052C33.162 29.1819 33.2272 28.965 33.3325 28.7668C33.4377 28.5687 33.581 28.3932 33.754 28.2505C33.9271 28.1077 34.1266 28.0005 34.3412 27.9348L67.7381 17.7103C68.1714 17.5781 68.6393 17.6232 69.0394 17.8357C69.4394 18.0482 69.7388 18.4107 69.8718 18.8437L72.3168 26.8299C72.4489 27.2631 72.4038 27.7311 72.1913 28.1311C71.9789 28.5311 71.6164 28.8305 71.1834 28.9636L37.7864 39.1881C37.6247 39.2377 37.4565 39.263 37.2873 39.2631Z" fill="#03DAC5"/>
<path d="M50.0953 23.5333C52.192 23.5333 53.8917 21.8336 53.8917 19.7369C53.8917 17.6402 52.192 15.9405 50.0953 15.9405C47.9985 15.9405 46.2988 17.6402 46.2988 19.7369C46.2988 21.8336 47.9985 23.5333 50.0953 23.5333Z" fill="#03DAC5"/>
<path d="M50.0954 22.1409C51.4231 22.1409 52.4994 21.0646 52.4994 19.7369C52.4994 18.4092 51.4231 17.3329 50.0954 17.3329C48.7677 17.3329 47.6914 18.4092 47.6914 19.7369C47.6914 21.0646 48.7677 22.1409 50.0954 22.1409Z" fill="white"/>
<path d="M128.393 125.509H64.2336C63.8058 125.508 63.3957 125.338 63.0932 125.036C62.7908 124.733 62.6206 124.323 62.6201 123.895V47.0179C62.6206 46.5901 62.7907 46.18 63.0932 45.8775C63.3957 45.575 63.8058 45.4049 64.2336 45.4044H128.393C128.821 45.4049 129.231 45.575 129.534 45.8775C129.836 46.18 130.006 46.5901 130.007 47.0179V123.895C130.006 124.323 129.836 124.733 129.534 125.036C129.231 125.338 128.821 125.508 128.393 125.509Z" fill="#E6E6E6"/>
<path d="M98.8757 41.608H58.9184C58.0629 41.6092 57.2428 41.9496 56.6379 42.5545C56.033 43.1594 55.6926 43.9795 55.6914 44.8349V122.244L56.071 122.128V44.8349C56.072 44.0801 56.3722 43.3564 56.906 42.8226C57.4398 42.2888 58.1635 41.9885 58.9184 41.9876H98.9934L98.8757 41.608ZM133.708 41.608H58.9184C58.0629 41.6092 57.2428 41.9496 56.6379 42.5545C56.033 43.1594 55.6926 43.9795 55.6914 44.8349V131.773C55.6926 132.629 56.033 133.449 56.6379 134.054C57.2428 134.658 58.0629 134.999 58.9184 135H133.708C134.563 134.999 135.383 134.658 135.988 134.054C136.593 133.449 136.934 132.629 136.935 131.773V44.8349C136.934 43.9795 136.593 43.1594 135.988 42.5545C135.383 41.9496 134.563 41.6092 133.708 41.608ZM136.555 131.773C136.554 132.528 136.254 133.252 135.72 133.785C135.186 134.319 134.463 134.619 133.708 134.62H58.9184C58.1635 134.619 57.4398 134.319 56.906 133.785C56.3722 133.252 56.072 132.528 56.071 131.773V44.8349C56.072 44.0801 56.3722 43.3564 56.906 42.8226C57.4398 42.2888 58.1635 41.9885 58.9184 41.9876H133.708C134.463 41.9885 135.186 42.2888 135.72 42.8226C136.254 43.3564 136.554 44.0801 136.555 44.8349V131.773Z" fill="#3F3D56"/>
<path d="M113.777 49.9601H78.85C78.3971 49.9596 77.9628 49.7794 77.6425 49.4592C77.3223 49.1389 77.1421 48.7047 77.1416 48.2517V39.8996C77.1421 39.4466 77.3223 39.0124 77.6425 38.6921C77.9628 38.3719 78.3971 38.1917 78.85 38.1912H113.777C114.23 38.1917 114.664 38.3719 114.985 38.6921C115.305 39.0124 115.485 39.4466 115.485 39.8996V48.2517C115.485 48.7047 115.305 49.1389 114.985 49.4592C114.664 49.7794 114.23 49.9596 113.777 49.9601Z" fill="#03DAC5"/>
<path d="M96.3135 38.7606C98.4102 38.7606 100.11 37.0609 100.11 34.9642C100.11 32.8675 98.4102 31.1678 96.3135 31.1678C94.2168 31.1678 92.5171 32.8675 92.5171 34.9642C92.5171 37.0609 94.2168 38.7606 96.3135 38.7606Z" fill="#03DAC5"/>
<path d="M96.3134 37.2766C97.5904 37.2766 98.6257 36.2413 98.6257 34.9642C98.6257 33.6871 97.5904 32.6519 96.3134 32.6519C95.0363 32.6519 94.001 33.6871 94.001 34.9642C94.001 36.2413 95.0363 37.2766 96.3134 37.2766Z" fill="white"/>
</g>
<defs>
<clipPath id="clip0_1149_26750">
<rect width="122.935" height="120" fill="white" transform="translate(14 15)"/>
</clipPath>
</defs>
</svg>
