<svg width="400" height="400" viewBox="0 0 400 400" fill="none" xmlns="http://www.w3.org/2000/svg">
<path d="M289.702 112.067C289.702 112.067 287.337 107.723 283.612 101.724C283.612 101.724 271.604 110.686 271.706 110.189C271.807 109.692 289.702 112.067 289.702 112.067Z" fill="#484646"/>
<path d="M289.702 112.574H289.631C283.317 111.732 272.995 110.483 271.888 110.636C271.584 110.757 271.503 110.697 271.401 110.636C271.312 110.578 271.241 110.496 271.2 110.398C271.158 110.3 271.147 110.192 271.168 110.088C271.168 109.945 271.229 109.803 271.564 109.722C272.264 109.448 279.115 104.424 283.277 101.318C283.332 101.276 283.397 101.246 283.465 101.23C283.533 101.214 283.604 101.213 283.672 101.227C283.741 101.238 283.806 101.264 283.864 101.302C283.922 101.341 283.971 101.391 284.007 101.45C287.743 107.398 290.097 111.783 290.158 111.823C290.208 111.902 290.234 111.994 290.234 112.087C290.234 112.18 290.208 112.272 290.158 112.351C290.109 112.425 290.04 112.485 289.96 112.524C289.88 112.563 289.791 112.581 289.702 112.574ZM273.462 109.692C275.674 109.814 280.049 110.291 288.737 111.438C287.895 109.925 285.997 106.606 283.398 102.465C277.978 106.525 275.075 108.626 273.492 109.692H273.462Z" fill="#484646"/>
<path d="M130.732 293.092L124.744 283.104L133.026 275.614L130.732 293.092Z" fill="#484646"/>
<path d="M130.732 293.6C130.645 293.599 130.559 293.577 130.483 293.534C130.406 293.491 130.342 293.43 130.296 293.356L124.307 283.368C124.247 283.267 124.224 283.147 124.243 283.03C124.262 282.914 124.32 282.807 124.409 282.729L132.691 275.238C132.769 275.168 132.866 275.124 132.969 275.111C133.073 275.099 133.178 275.118 133.27 275.167C133.361 275.217 133.434 275.293 133.481 275.386C133.528 275.478 133.547 275.582 133.534 275.685L131.24 293.133C131.227 293.239 131.181 293.338 131.108 293.417C131.035 293.495 130.939 293.549 130.834 293.569L130.732 293.6ZM125.393 283.206L130.418 291.58L132.346 276.913L125.393 283.206Z" fill="#484646"/>
<path d="M134.62 295.163L231.045 308.896C233.022 309.153 235.026 308.699 236.7 307.615C238.373 306.531 239.607 304.888 240.18 302.978L290.067 116.32C291.082 112.453 288.616 109.052 284.525 108.717L186.212 100.79C184.268 100.696 182.348 101.257 180.76 102.383C179.171 103.509 178.007 105.136 177.453 107.002L129.575 287.489C129.327 288.328 129.264 289.21 129.392 290.075C129.52 290.94 129.835 291.767 130.315 292.498C130.796 293.228 131.43 293.845 132.173 294.306C132.917 294.766 133.752 295.058 134.62 295.163Z" fill="#484646"/>
<path d="M232.111 309.515C231.72 309.513 231.33 309.486 230.943 309.434L134.518 295.69C133.586 295.576 132.689 295.262 131.888 294.77C131.088 294.277 130.403 293.619 129.88 292.838C129.36 292.036 129.017 291.132 128.875 290.187C128.733 289.241 128.796 288.277 129.058 287.357L176.935 106.9C177.521 104.918 178.754 103.189 180.437 101.989C182.121 100.79 184.157 100.189 186.222 100.283L284.535 108.21C285.541 108.263 286.522 108.538 287.408 109.015C288.294 109.492 289.064 110.16 289.661 110.971C290.202 111.763 290.561 112.666 290.712 113.613C290.863 114.561 290.802 115.53 290.534 116.452L240.626 303.141C240.077 304.975 238.952 306.584 237.419 307.732C235.886 308.879 234.025 309.504 232.111 309.515ZM134.671 294.686L231.096 308.429C232.942 308.658 234.81 308.227 236.369 307.211C237.928 306.194 239.076 304.659 239.611 302.877L289.549 116.228C289.782 115.45 289.839 114.63 289.714 113.828C289.589 113.025 289.287 112.26 288.829 111.59C288.32 110.899 287.663 110.331 286.906 109.927C286.149 109.523 285.311 109.294 284.454 109.255L186.141 101.298C184.314 101.202 182.507 101.726 181.015 102.785C179.523 103.845 178.432 105.377 177.92 107.134L130.073 287.621C129.846 288.401 129.789 289.221 129.907 290.025C130.024 290.828 130.312 291.597 130.753 292.28C131.2 292.939 131.782 293.494 132.462 293.909C133.141 294.324 133.901 294.589 134.691 294.686H134.671Z" fill="#484646"/>
<path d="M128.337 284.891L224.762 298.624C226.74 298.886 228.746 298.434 230.42 297.349C232.095 296.264 233.327 294.618 233.897 292.706L283.764 106.048C284.779 102.181 282.312 98.7805 278.222 98.4455L179.909 90.5184C177.964 90.4242 176.044 90.9851 174.456 92.1113C172.868 93.2375 171.704 94.8639 171.15 96.7302L123.303 277.187C123.049 278.027 122.982 278.911 123.107 279.78C123.231 280.648 123.545 281.478 124.024 282.212C124.504 282.946 125.139 283.567 125.884 284.029C126.629 284.492 127.466 284.786 128.337 284.891Z" fill="white"/>
<path d="M225.828 299.223C225.441 299.221 225.054 299.194 224.671 299.141L128.246 285.398C127.314 285.284 126.419 284.969 125.62 284.477C124.822 283.985 124.138 283.326 123.617 282.546C123.095 281.745 122.751 280.841 122.609 279.895C122.467 278.95 122.53 277.984 122.795 277.065L170.662 96.6084C171.247 94.6269 172.48 92.8993 174.165 91.7028C175.849 90.5064 177.886 89.9105 179.95 90.0109L278.263 97.938C279.26 97.9953 280.232 98.2726 281.109 98.7499C281.987 99.2272 282.748 99.8928 283.338 100.699C283.883 101.489 284.245 102.392 284.396 103.34C284.547 104.289 284.484 105.259 284.21 106.18L234.323 292.838C233.773 294.67 232.652 296.277 231.124 297.425C229.595 298.574 227.74 299.204 225.828 299.223ZM179.31 91.0056C177.571 91.037 175.886 91.6216 174.501 92.6746C173.116 93.7276 172.102 95.1943 171.606 96.8621L123.79 277.319C123.567 278.1 123.514 278.919 123.633 279.723C123.752 280.526 124.04 281.295 124.48 281.978C124.925 282.636 125.506 283.191 126.183 283.606C126.861 284.021 127.619 284.286 128.408 284.383L224.833 298.126C226.687 298.365 228.565 297.937 230.134 296.921C231.703 295.904 232.86 294.364 233.4 292.574L283.256 105.926C283.487 105.148 283.541 104.328 283.417 103.526C283.292 102.724 282.991 101.959 282.536 101.288C282.025 100.599 281.368 100.032 280.611 99.6279C279.855 99.2241 279.018 98.9936 278.161 98.953L179.848 91.0259L179.31 91.0056Z" fill="#484646"/>
<path d="M168.186 283.805L187.004 286.454C188.198 286.599 189.404 286.315 190.407 285.653C191.411 284.991 192.147 283.994 192.485 282.841L194.363 275.827C194.519 275.294 194.556 274.734 194.471 274.185C194.386 273.637 194.182 273.114 193.871 272.653C193.561 272.193 193.153 271.806 192.677 271.522C192.2 271.237 191.667 271.061 191.115 271.006L172.276 268.448C171.091 268.316 169.897 268.606 168.904 269.267C167.911 269.927 167.182 270.917 166.846 272.061L164.999 279.014C164.842 279.54 164.804 280.094 164.885 280.637C164.967 281.18 165.166 281.699 165.471 282.156C165.775 282.613 166.175 282.997 166.645 283.282C167.114 283.567 167.64 283.746 168.186 283.805Z" fill="white"/>
<path d="M187.633 287.043C187.399 287.046 187.164 287.029 186.933 286.992L168.115 284.353C167.497 284.283 166.903 284.079 166.372 283.755C165.842 283.432 165.389 282.996 165.045 282.479C164.7 281.961 164.473 281.375 164.38 280.761C164.286 280.146 164.327 279.519 164.501 278.923L166.349 271.97C166.716 270.708 167.518 269.617 168.611 268.889C169.705 268.161 171.021 267.843 172.327 267.991L191.176 270.539C191.802 270.613 192.406 270.821 192.945 271.148C193.484 271.475 193.947 271.915 194.302 272.437C194.64 272.958 194.864 273.545 194.957 274.16C195.049 274.774 195.009 275.402 194.84 275.999L192.982 282.983C192.645 284.144 191.942 285.166 190.979 285.897C190.016 286.628 188.843 287.03 187.633 287.043ZM171.657 268.955C170.683 268.966 169.738 269.289 168.961 269.878C168.184 270.466 167.617 271.289 167.343 272.224L165.516 279.146C165.381 279.603 165.348 280.085 165.42 280.556C165.491 281.027 165.665 281.477 165.929 281.874C166.193 282.271 166.542 282.605 166.949 282.853C167.357 283.1 167.813 283.256 168.287 283.307L187.095 285.946C188.168 286.079 189.253 285.827 190.156 285.234C191.06 284.641 191.723 283.746 192.028 282.709L193.896 275.695C194.03 275.236 194.063 274.753 193.993 274.28C193.923 273.807 193.751 273.355 193.49 272.954C193.215 272.553 192.857 272.216 192.44 271.966C192.023 271.715 191.557 271.558 191.074 271.503L172.236 268.955C172.044 268.925 171.851 268.911 171.657 268.915V268.955Z" fill="#F2F1F1"/>
<path d="M244.463 105.814L215.708 103.409C215.641 103.404 215.577 103.385 215.517 103.355C215.457 103.324 215.405 103.282 215.361 103.232C215.318 103.181 215.285 103.122 215.264 103.058C215.244 102.994 215.236 102.927 215.241 102.861C215.247 102.794 215.265 102.729 215.295 102.67C215.326 102.61 215.368 102.557 215.419 102.514C215.469 102.47 215.528 102.438 215.592 102.417C215.656 102.396 215.723 102.389 215.789 102.394L244.544 104.789C244.679 104.789 244.808 104.843 244.903 104.938C244.998 105.033 245.052 105.162 245.052 105.297C245.052 105.431 244.998 105.56 244.903 105.656C244.808 105.751 244.679 105.804 244.544 105.804L244.463 105.814Z" fill="#D1D1D1"/>
<path d="M211.719 103.074H211.668L207.862 102.759C207.728 102.749 207.603 102.685 207.515 102.582C207.428 102.479 207.385 102.346 207.395 102.211C207.406 102.077 207.47 101.952 207.573 101.864C207.675 101.777 207.809 101.734 207.943 101.744L211.76 102.069C211.894 102.069 212.023 102.123 212.119 102.218C212.214 102.313 212.267 102.442 212.267 102.577C212.267 102.711 212.214 102.84 212.119 102.935C212.023 103.031 211.894 103.084 211.76 103.084L211.719 103.074Z" fill="#D1D1D1"/>
<path d="M273.441 118.35L234.78 267.646L134.396 255.71L173.291 109.611L273.441 118.35Z" fill="white"/>
<path d="M234.78 268.154H234.729L134.336 256.207C134.264 256.2 134.195 256.178 134.134 256.141C134.072 256.104 134.02 256.054 133.98 255.994C133.939 255.934 133.912 255.865 133.899 255.794C133.887 255.722 133.891 255.648 133.909 255.578L172.804 109.479C172.835 109.362 172.906 109.261 173.004 109.192C173.103 109.123 173.222 109.092 173.342 109.103L273.482 117.842C273.556 117.85 273.627 117.874 273.692 117.91C273.756 117.947 273.813 117.996 273.857 118.055C273.899 118.117 273.926 118.187 273.939 118.261C273.951 118.334 273.947 118.41 273.928 118.482L235.277 267.758C235.252 267.87 235.189 267.971 235.098 268.043C235.008 268.115 234.896 268.154 234.78 268.154ZM135.066 255.273L234.435 267.098L272.802 118.806L173.636 110.159L135.066 255.273Z" fill="#484646"/>
<path d="M245.153 135.534L195.855 130.936C195.249 130.898 194.659 130.725 194.128 130.43C193.598 130.134 193.141 129.724 192.79 129.228C192.44 128.732 192.205 128.164 192.103 127.566C192.001 126.967 192.034 126.353 192.201 125.769C192.591 124.466 193.412 123.333 194.529 122.557C195.646 121.781 196.994 121.407 198.352 121.496L247.65 125.952C248.276 125.974 248.889 126.138 249.442 126.432C249.995 126.726 250.473 127.143 250.841 127.65C251.209 128.157 251.457 128.741 251.565 129.357C251.673 129.974 251.64 130.608 251.467 131.21C251.067 132.544 250.223 133.7 249.074 134.487C247.925 135.274 246.541 135.643 245.153 135.534Z" fill="#F2F1F1"/>
<path d="M264.895 137.888L254.359 136.873C254.287 136.867 254.216 136.844 254.153 136.808C254.09 136.771 254.035 136.72 253.994 136.66C253.951 136.601 253.922 136.533 253.908 136.461C253.894 136.389 253.896 136.315 253.913 136.244L256.237 127.322C256.268 127.206 256.339 127.105 256.437 127.036C256.536 126.967 256.655 126.936 256.775 126.947L267.301 127.901C267.375 127.907 267.447 127.93 267.512 127.966C267.577 128.003 267.633 128.054 267.676 128.114C267.717 128.174 267.745 128.243 267.757 128.314C267.769 128.386 267.766 128.46 267.747 128.53L265.433 137.482C265.409 137.604 265.34 137.713 265.241 137.788C265.142 137.862 265.019 137.898 264.895 137.888ZM255.009 135.95L264.52 136.833L266.55 128.885L257.039 128.023L255.009 135.95Z" fill="#D1D1D1"/>
<path d="M262.185 134.031C262.096 134.031 262.01 134.007 261.933 133.963C261.856 133.918 261.793 133.854 261.749 133.778L260.125 131.078C258.095 132.194 255.902 133.402 255.557 133.686C255.494 133.765 255.41 133.824 255.315 133.856C255.219 133.889 255.117 133.893 255.019 133.869C254.89 133.833 254.781 133.748 254.714 133.632C254.648 133.517 254.63 133.379 254.664 133.25C254.725 132.996 254.786 132.793 260.074 129.951C260.189 129.892 260.323 129.878 260.447 129.914C260.572 129.95 260.678 130.032 260.744 130.144L262.622 133.26C262.69 133.376 262.709 133.514 262.677 133.645C262.645 133.776 262.563 133.889 262.449 133.96C262.368 134.004 262.277 134.028 262.185 134.031Z" fill="#D1D1D1"/>
<path d="M266.062 133.412C265.989 133.414 265.917 133.4 265.85 133.37C265.783 133.34 265.724 133.296 265.677 133.24L264.073 131.423L261.85 132.915C261.738 132.99 261.601 133.018 261.469 132.993C261.337 132.967 261.22 132.89 261.145 132.778C261.069 132.666 261.041 132.529 261.067 132.397C261.093 132.265 261.17 132.148 261.282 132.072L263.87 130.327C263.974 130.259 264.099 130.231 264.222 130.248C264.345 130.265 264.458 130.325 264.54 130.418L266.438 132.57C266.532 132.666 266.584 132.796 266.584 132.93C266.584 133.065 266.532 133.194 266.438 133.29C266.332 133.376 266.198 133.42 266.062 133.412Z" fill="#D1D1D1"/>
<path d="M183.675 155.763C183.19 157.402 182.158 158.827 180.751 159.798C179.343 160.77 177.646 161.23 175.94 161.101C175.171 161.056 174.422 160.836 173.75 160.459C173.079 160.081 172.502 159.555 172.064 158.921C171.625 158.287 171.337 157.562 171.221 156.8C171.105 156.038 171.164 155.26 171.393 154.524C171.877 152.89 172.904 151.47 174.305 150.499C175.706 149.528 177.397 149.064 179.097 149.185C179.869 149.226 180.621 149.443 181.297 149.819C181.972 150.195 182.553 150.72 182.995 151.354C183.436 151.989 183.727 152.716 183.845 153.48C183.963 154.244 183.905 155.025 183.675 155.763Z" fill="#FF931E"/>
<path d="M170.114 206.959C169.64 208.601 168.608 210.026 167.197 210.99C165.785 211.953 164.082 212.394 162.38 212.237C161.607 212.167 160.858 211.925 160.19 211.529C159.522 211.133 158.95 210.594 158.516 209.949C158.083 209.305 157.798 208.571 157.684 207.803C157.569 207.035 157.627 206.251 157.853 205.508C158.325 203.869 159.353 202.445 160.761 201.482C162.169 200.519 163.868 200.076 165.567 200.23C166.343 200.295 167.095 200.534 167.767 200.928C168.439 201.322 169.014 201.862 169.45 202.507C169.886 203.153 170.172 203.887 170.287 204.658C170.402 205.428 170.343 206.215 170.114 206.959Z" fill="#F2F1F1"/>
<path d="M164.136 229.573C163.666 231.218 162.633 232.644 161.217 233.604C159.801 234.563 158.093 234.994 156.392 234.821C155.615 234.744 154.865 234.495 154.196 234.093C153.527 233.691 152.955 233.146 152.522 232.497C152.089 231.847 151.805 231.11 151.692 230.337C151.578 229.565 151.637 228.777 151.865 228.031C152.334 226.392 153.362 224.969 154.772 224.011C156.181 223.052 157.882 222.618 159.579 222.783C160.357 222.858 161.11 223.104 161.781 223.505C162.453 223.906 163.028 224.45 163.464 225.1C163.9 225.75 164.186 226.488 164.302 227.261C164.419 228.035 164.362 228.824 164.136 229.573Z" fill="#F2F1F1"/>
<path d="M231.593 157.833L189.785 153.651C189.718 153.645 189.653 153.626 189.594 153.594C189.535 153.562 189.483 153.519 189.44 153.468C189.398 153.416 189.366 153.356 189.347 153.292C189.328 153.227 189.321 153.16 189.328 153.093C189.344 152.96 189.411 152.838 189.515 152.755C189.62 152.671 189.753 152.632 189.887 152.647L231.694 156.818C231.829 156.825 231.955 156.885 232.046 156.985C232.136 157.085 232.183 157.216 232.177 157.351C232.17 157.486 232.11 157.612 232.01 157.702C231.91 157.793 231.778 157.84 231.644 157.833H231.593Z" fill="#D1D1D1"/>
<path d="M203.63 161.507H203.569L188.08 159.934C188.013 159.928 187.948 159.908 187.889 159.877C187.83 159.845 187.778 159.802 187.735 159.75C187.693 159.698 187.661 159.639 187.642 159.574C187.622 159.51 187.616 159.443 187.623 159.376C187.638 159.242 187.705 159.12 187.81 159.034C187.914 158.949 188.047 158.908 188.181 158.919L203.68 160.503C203.815 160.503 203.944 160.556 204.039 160.651C204.134 160.746 204.188 160.876 204.188 161.01C204.188 161.145 204.134 161.274 204.039 161.369C203.944 161.464 203.815 161.518 203.68 161.518L203.63 161.507Z" fill="#D1D1D1"/>
<path d="M246.716 174.266L171.748 166.41C171.682 166.404 171.617 166.384 171.558 166.353C171.498 166.321 171.446 166.278 171.404 166.226C171.361 166.174 171.329 166.114 171.31 166.05C171.291 165.986 171.285 165.918 171.292 165.852C171.307 165.719 171.374 165.597 171.479 165.513C171.583 165.43 171.717 165.391 171.85 165.405L246.818 173.261C246.951 173.276 247.073 173.344 247.156 173.448C247.24 173.553 247.279 173.686 247.264 173.819C247.258 173.885 247.239 173.948 247.208 174.006C247.177 174.064 247.135 174.116 247.084 174.157C247.033 174.199 246.974 174.23 246.911 174.248C246.848 174.267 246.782 174.273 246.716 174.266Z" fill="#D1D1D1"/>
<path d="M238.332 181.077H238.282L169.749 173.728C169.616 173.713 169.494 173.646 169.411 173.541C169.327 173.436 169.288 173.303 169.302 173.17C169.318 173.036 169.385 172.913 169.489 172.828C169.593 172.743 169.726 172.702 169.861 172.713L238.383 180.072C238.518 180.072 238.647 180.125 238.742 180.22C238.837 180.316 238.891 180.445 238.891 180.579C238.891 180.714 238.837 180.843 238.742 180.938C238.647 181.033 238.518 181.087 238.383 181.087L238.332 181.077Z" fill="#D1D1D1"/>
<path d="M227.898 249.599C227.586 249.599 227.274 249.579 226.964 249.538L149.693 239.47C148.863 239.38 148.063 239.111 147.348 238.682C146.633 238.252 146.02 237.673 145.551 236.983C145.085 236.274 144.778 235.472 144.652 234.632C144.526 233.793 144.583 232.936 144.821 232.121L167.069 148.485C167.581 146.762 168.664 145.265 170.14 144.24C171.616 143.214 173.396 142.721 175.189 142.842L252.563 150.363C253.444 150.425 254.301 150.68 255.072 151.109C255.844 151.539 256.512 152.133 257.029 152.85C257.504 153.543 257.821 154.332 257.958 155.162C258.095 155.992 258.048 156.841 257.82 157.65L235.49 243.925C235.001 245.56 233.998 246.994 232.631 248.016C231.264 249.038 229.605 249.593 227.898 249.599ZM227.096 248.534C228.711 248.721 230.34 248.33 231.695 247.431C233.049 246.532 234.041 245.182 234.496 243.621L256.826 157.397C257.017 156.729 257.058 156.027 256.948 155.341C256.837 154.655 256.577 154.002 256.186 153.428C255.749 152.841 255.189 152.356 254.546 152.005C253.903 151.655 253.192 151.448 252.461 151.398L175.078 143.887C173.522 143.781 171.977 144.208 170.697 145.097C169.417 145.986 168.477 147.285 168.034 148.779L145.775 232.415C145.575 233.095 145.525 233.81 145.629 234.511C145.732 235.212 145.986 235.882 146.373 236.475C146.764 237.04 147.271 237.514 147.862 237.865C148.452 238.215 149.111 238.434 149.794 238.505L227.096 248.534Z" fill="#D1D1D1"/>
<path d="M249.061 189.958H249L159.264 180.102C159.131 180.087 159.009 180.02 158.926 179.915C158.842 179.811 158.803 179.677 158.817 179.544C158.833 179.41 158.9 179.288 159.004 179.202C159.108 179.117 159.241 179.076 159.376 179.087L249.112 188.953C249.179 188.959 249.243 188.979 249.303 189.01C249.362 189.042 249.414 189.085 249.457 189.137C249.499 189.189 249.531 189.249 249.55 189.313C249.569 189.377 249.576 189.445 249.568 189.511C249.551 189.634 249.491 189.747 249.398 189.829C249.305 189.911 249.185 189.957 249.061 189.958Z" fill="#D1D1D1"/>
<path d="M245.448 203.914H245.387L155.661 193.663C155.526 193.648 155.403 193.58 155.318 193.475C155.234 193.369 155.194 193.234 155.209 193.099C155.224 192.965 155.292 192.842 155.397 192.757C155.503 192.672 155.638 192.633 155.772 192.648L245.498 202.93C245.633 202.936 245.759 202.996 245.85 203.096C245.94 203.196 245.987 203.328 245.981 203.463C245.974 203.597 245.914 203.724 245.814 203.814C245.714 203.904 245.582 203.951 245.448 203.945V203.914Z" fill="#D1D1D1"/>
<path d="M167.09 192.556H167.039L165.628 192.485C165.489 192.477 165.354 192.44 165.23 192.377C165.106 192.315 164.996 192.227 164.907 192.12C164.825 192.009 164.767 191.882 164.736 191.748C164.704 191.614 164.7 191.474 164.725 191.338L165.506 187.431C165.567 187.174 165.714 186.946 165.923 186.785C166.132 186.624 166.39 186.54 166.653 186.548L168.064 186.608C168.203 186.617 168.338 186.653 168.462 186.716C168.586 186.779 168.696 186.867 168.785 186.974C168.867 187.085 168.925 187.211 168.957 187.346C168.988 187.48 168.992 187.62 168.967 187.755L168.186 191.663C168.133 191.915 167.995 192.141 167.795 192.303C167.596 192.466 167.347 192.555 167.09 192.556ZM166.602 187.563C166.602 187.563 166.501 187.563 166.501 187.634L165.73 191.541H167.09C167.112 191.544 167.135 191.539 167.154 191.526C167.173 191.512 167.186 191.493 167.191 191.47L167.973 187.552L166.602 187.563Z" fill="#D1D1D1"/>
<path d="M174.885 192.942L168.876 192.648C168.803 192.642 168.731 192.622 168.666 192.587C168.602 192.552 168.545 192.503 168.501 192.445C168.456 192.388 168.425 192.322 168.409 192.252C168.394 192.182 168.394 192.109 168.409 192.039L169.211 187.979C169.234 187.882 169.283 187.795 169.353 187.725C169.901 187.146 170.49 186.426 171.058 185.695C172.621 183.777 173.555 182.701 174.428 182.954C174.551 182.988 174.664 183.049 174.76 183.134C174.855 183.218 174.929 183.324 174.976 183.442C175.26 184.122 174.702 185.472 174.215 186.436C175.08 186.446 175.937 186.596 176.753 186.882C177.108 187.065 177.92 187.491 175.372 192.648C175.331 192.741 175.262 192.819 175.175 192.871C175.088 192.924 174.986 192.949 174.885 192.942ZM169.485 191.633L174.56 191.886C175.259 190.57 175.781 189.168 176.113 187.715C175.204 187.506 174.275 187.4 173.342 187.4C173.253 187.402 173.165 187.379 173.088 187.334C173.012 187.289 172.948 187.225 172.906 187.146C172.861 187.071 172.837 186.985 172.837 186.898C172.837 186.81 172.861 186.724 172.906 186.649C173.413 185.814 173.783 184.902 174.002 183.949C173.177 184.648 172.437 185.441 171.799 186.314C171.261 186.984 170.693 187.674 170.145 188.263L169.485 191.633Z" fill="#D1D1D1"/>
<path d="M225.3 241.368L171.962 234.557C171.507 234.512 171.069 234.367 170.677 234.132C170.285 233.897 169.95 233.579 169.696 233.2C169.442 232.82 169.275 232.39 169.207 231.938C169.139 231.487 169.171 231.026 169.302 230.588C169.578 229.631 170.182 228.802 171.008 228.245C171.833 227.689 172.829 227.44 173.819 227.543L227.157 234.263C227.627 234.303 228.082 234.446 228.489 234.683C228.896 234.92 229.246 235.244 229.513 235.633C229.78 236.021 229.957 236.464 230.033 236.929C230.108 237.394 230.079 237.87 229.949 238.323C229.652 239.293 229.024 240.129 228.175 240.686C227.326 241.242 226.308 241.483 225.3 241.368Z" fill="#F2F1F1"/>
<path d="M214.358 220.357L180.122 216.206C179.262 216.136 178.429 215.875 177.683 215.442C176.937 215.009 176.298 214.415 175.811 213.702C175.325 212.99 175.003 212.178 174.871 211.326C174.739 210.473 174.799 209.602 175.047 208.776L175.676 206.401C176.203 204.592 177.343 203.022 178.901 201.961C180.458 200.9 182.336 200.413 184.213 200.585L218.459 204.554C219.333 204.621 220.182 204.881 220.943 205.317C221.704 205.753 222.359 206.352 222.859 207.072C223.36 207.793 223.694 208.615 223.837 209.48C223.98 210.346 223.928 211.232 223.686 212.075L223.057 214.49C222.519 216.33 221.355 217.923 219.767 218.994C218.178 220.066 216.265 220.548 214.358 220.357Z" fill="#FF931E"/>
<path d="M226.69 236.171L226.954 235.156L222.894 234.638L222.641 235.653L221.839 235.552L220.824 239.358L226.518 240.079L227.533 236.262L226.69 236.171ZM223.98 238.495C223.826 238.487 223.675 238.443 223.54 238.368C223.404 238.292 223.288 238.187 223.2 238.059C223.112 237.932 223.054 237.786 223.031 237.633C223.008 237.48 223.02 237.323 223.067 237.176C223.162 236.855 223.367 236.579 223.645 236.393C223.923 236.208 224.257 236.126 224.589 236.161C224.745 236.169 224.897 236.212 225.033 236.288C225.17 236.365 225.287 236.471 225.375 236.6C225.463 236.728 225.521 236.876 225.543 237.03C225.565 237.185 225.551 237.342 225.503 237.49C225.409 237.811 225.205 238.088 224.926 238.272C224.647 238.456 224.312 238.535 223.98 238.495Z" fill="#484646"/>
<path d="M183.878 220.753H183.786L174.651 219.637C174.517 219.619 174.396 219.549 174.312 219.443C174.229 219.337 174.19 219.202 174.205 219.068C174.225 218.935 174.295 218.815 174.4 218.732C174.506 218.649 174.639 218.61 174.773 218.622L183.908 219.738C184.043 219.746 184.169 219.807 184.258 219.908C184.348 220.009 184.393 220.141 184.385 220.276C184.377 220.411 184.316 220.536 184.215 220.626C184.114 220.715 183.982 220.761 183.847 220.753H183.878Z" fill="#D1D1D1"/>
<path d="M196.616 222.316H196.555L187.359 221.189C187.294 221.182 187.23 221.161 187.173 221.129C187.115 221.097 187.065 221.054 187.024 221.002C186.983 220.95 186.954 220.89 186.936 220.827C186.919 220.763 186.914 220.697 186.923 220.631C186.929 220.565 186.949 220.5 186.98 220.442C187.012 220.383 187.055 220.331 187.107 220.29C187.159 220.248 187.219 220.217 187.283 220.199C187.348 220.181 187.415 220.176 187.481 220.185L196.677 221.311C196.744 221.319 196.808 221.34 196.867 221.372C196.926 221.405 196.978 221.449 197.019 221.502C197.061 221.555 197.091 221.616 197.109 221.68C197.127 221.745 197.132 221.813 197.123 221.88C197.104 222.001 197.043 222.111 196.95 222.191C196.857 222.271 196.739 222.315 196.616 222.316Z" fill="#D1D1D1"/>
<path d="M217.454 210.765H217.393L183.644 206.787C183.51 206.769 183.389 206.699 183.305 206.593C183.222 206.487 183.183 206.352 183.198 206.218C183.215 206.084 183.285 205.963 183.391 205.879C183.497 205.796 183.632 205.757 183.766 205.772L217.515 209.75C217.649 209.759 217.775 209.82 217.865 209.921C217.954 210.021 218 210.154 217.992 210.288C217.984 210.423 217.923 210.549 217.822 210.638C217.721 210.728 217.589 210.774 217.454 210.765Z" fill="white"/>
<path d="M211.465 214.683H211.405L182.477 211.222C182.344 211.207 182.222 211.14 182.139 211.035C182.055 210.93 182.016 210.797 182.03 210.664C182.046 210.531 182.113 210.409 182.218 210.326C182.322 210.242 182.456 210.203 182.589 210.217L211.526 213.668C211.66 213.686 211.78 213.756 211.862 213.862C211.944 213.969 211.98 214.104 211.963 214.237C211.948 214.359 211.89 214.471 211.798 214.553C211.707 214.636 211.588 214.682 211.465 214.683Z" fill="white"/>
<path d="M203.559 197.56C203.274 197.56 203.051 197.266 202.026 195.611C201.671 195.611 201.326 195.611 201.011 195.611C200.17 195.558 199.35 195.326 198.606 194.931C197.862 194.535 197.211 193.985 196.697 193.318C196.41 192.921 196.215 192.466 196.125 191.985C196.036 191.504 196.054 191.009 196.18 190.536C196.809 188.161 199.864 186.578 203.132 186.943C203.977 186.993 204.802 187.222 205.551 187.616C206.3 188.01 206.957 188.559 207.477 189.227C207.763 189.624 207.958 190.079 208.048 190.56C208.137 191.04 208.119 191.535 207.994 192.008C207.736 192.769 207.297 193.457 206.716 194.012C206.134 194.567 205.427 194.973 204.655 195.195C204.33 196.413 204.168 197.053 204.147 197.154C204.128 197.258 204.079 197.354 204.007 197.431C203.936 197.508 203.843 197.564 203.741 197.591L203.559 197.56ZM202.3 194.586C202.386 194.586 202.472 194.607 202.548 194.648C202.624 194.688 202.689 194.748 202.736 194.82C203.011 195.277 203.224 195.622 203.396 195.835L203.731 194.576C203.753 194.495 203.796 194.421 203.854 194.36C203.913 194.3 203.986 194.256 204.066 194.231C204.726 194.075 205.338 193.76 205.848 193.312C206.358 192.864 206.75 192.298 206.989 191.663C207.075 191.331 207.087 190.985 207.024 190.648C206.961 190.311 206.824 189.992 206.624 189.714C206.182 189.173 205.633 188.728 205.011 188.408C204.389 188.089 203.708 187.901 203.011 187.857C200.25 187.552 197.631 188.872 197.144 190.709C197.058 191.041 197.046 191.387 197.109 191.724C197.173 192.061 197.309 192.38 197.509 192.658C197.947 193.198 198.493 193.641 199.111 193.959C199.73 194.277 200.408 194.463 201.102 194.505C201.494 194.541 201.888 194.541 202.28 194.505L202.3 194.586Z" fill="#D1D1D1"/>
<path d="M200.858 191.227C200.806 191.405 200.693 191.56 200.54 191.665C200.386 191.77 200.201 191.82 200.016 191.805C199.932 191.8 199.85 191.775 199.777 191.734C199.704 191.692 199.641 191.635 199.593 191.565C199.545 191.496 199.514 191.417 199.501 191.333C199.488 191.25 199.494 191.165 199.519 191.085C199.568 190.906 199.678 190.75 199.83 190.645C199.982 190.539 200.166 190.49 200.351 190.506C200.435 190.512 200.517 190.537 200.59 190.578C200.664 190.619 200.727 190.677 200.776 190.746C200.825 190.815 200.857 190.894 200.871 190.977C200.886 191.06 200.881 191.145 200.858 191.227Z" fill="#D1D1D1"/>
<path d="M202.919 191.46C202.87 191.641 202.758 191.798 202.604 191.904C202.45 192.009 202.263 192.057 202.077 192.039C201.992 192.032 201.91 192.006 201.837 191.963C201.764 191.921 201.701 191.862 201.654 191.792C201.606 191.722 201.574 191.642 201.562 191.558C201.549 191.475 201.555 191.389 201.579 191.308C201.632 191.13 201.745 190.977 201.899 190.873C202.053 190.77 202.237 190.722 202.422 190.739C202.506 190.745 202.588 190.769 202.661 190.811C202.734 190.853 202.797 190.91 202.845 190.979C202.893 191.049 202.924 191.128 202.937 191.211C202.95 191.295 202.944 191.38 202.919 191.46Z" fill="#D1D1D1"/>
<path d="M204.99 191.694C204.938 191.873 204.826 192.029 204.673 192.134C204.519 192.24 204.333 192.289 204.147 192.272C204.064 192.263 203.983 192.237 203.91 192.193C203.838 192.15 203.776 192.092 203.729 192.022C203.682 191.953 203.65 191.874 203.636 191.79C203.623 191.707 203.627 191.622 203.65 191.541C203.703 191.364 203.816 191.21 203.97 191.107C204.123 191.003 204.308 190.956 204.492 190.973C204.576 190.978 204.658 191.003 204.731 191.044C204.805 191.086 204.868 191.144 204.915 191.213C204.963 191.282 204.995 191.361 205.008 191.445C205.021 191.528 205.014 191.613 204.99 191.694Z" fill="#D1D1D1"/>
<path d="M230.923 198.21C230.801 198.209 230.682 198.166 230.588 198.088C230.499 198.01 230.441 197.903 230.422 197.787C230.404 197.67 230.426 197.55 230.487 197.449C231.709 195.527 233.422 193.968 235.45 192.932L235.084 192.089C235.044 192.014 235.024 191.931 235.024 191.846C235.024 191.761 235.044 191.677 235.084 191.602C235.132 191.53 235.197 191.472 235.273 191.433C235.35 191.394 235.435 191.375 235.521 191.379L240.17 191.531C240.254 191.535 240.335 191.559 240.408 191.602C240.48 191.644 240.541 191.703 240.586 191.775C240.626 191.848 240.647 191.93 240.647 192.013C240.647 192.097 240.626 192.179 240.586 192.252L238.678 196.312C238.642 196.392 238.586 196.462 238.514 196.514C238.443 196.566 238.359 196.597 238.272 196.606C238.185 196.616 238.098 196.603 238.018 196.569C237.938 196.536 237.868 196.482 237.815 196.413L236.983 195.337C234.909 195.946 232.945 196.881 231.167 198.108C231.096 198.163 231.012 198.198 230.923 198.21ZM236.333 192.424L236.577 192.972C236.631 193.095 236.636 193.234 236.588 193.36C236.54 193.485 236.445 193.587 236.323 193.642C235.202 194.171 234.174 194.877 233.278 195.733C234.531 195.144 235.827 194.652 237.155 194.262C237.252 194.234 237.354 194.235 237.45 194.266C237.546 194.297 237.631 194.355 237.693 194.434L238.231 195.134L239.459 192.526L236.333 192.424Z" fill="#D1D1D1"/>
<path d="M236.475 199.895L229.543 199.103C229.469 199.098 229.398 199.076 229.335 199.039C229.272 199.002 229.218 198.951 229.177 198.89C229.136 198.83 229.109 198.761 229.096 198.69C229.084 198.618 229.087 198.544 229.106 198.474L230.73 192.252C230.761 192.136 230.832 192.034 230.93 191.965C231.029 191.897 231.148 191.865 231.268 191.876L234.374 192.221C234.509 192.236 234.632 192.304 234.717 192.409C234.801 192.515 234.84 192.65 234.826 192.785C234.811 192.919 234.743 193.042 234.638 193.127C234.532 193.212 234.397 193.251 234.262 193.236L231.593 192.932L230.233 198.169L236.15 198.839L236.759 196.505C236.775 196.439 236.803 196.378 236.843 196.323C236.883 196.269 236.933 196.224 236.991 196.19C237.049 196.156 237.113 196.133 237.179 196.125C237.246 196.116 237.314 196.121 237.378 196.139C237.507 196.175 237.617 196.26 237.683 196.376C237.75 196.492 237.768 196.629 237.734 196.758L237.023 199.519C236.992 199.637 236.92 199.74 236.819 199.809C236.718 199.878 236.596 199.909 236.475 199.895Z" fill="#D1D1D1"/>
<path d="M265.616 143.826H265.565L168.023 134.539C167.957 134.534 167.892 134.516 167.833 134.485C167.774 134.455 167.722 134.413 167.679 134.361C167.637 134.31 167.605 134.251 167.585 134.188C167.566 134.124 167.56 134.057 167.567 133.991C167.572 133.924 167.59 133.86 167.621 133.801C167.651 133.742 167.693 133.689 167.744 133.647C167.795 133.604 167.854 133.572 167.918 133.553C167.982 133.533 168.049 133.527 168.115 133.534L265.656 142.811C265.723 142.818 265.788 142.837 265.847 142.869C265.906 142.9 265.959 142.943 266.001 142.995C266.044 143.047 266.075 143.107 266.095 143.171C266.114 143.235 266.12 143.303 266.113 143.369C266.103 143.494 266.046 143.61 265.954 143.695C265.862 143.78 265.741 143.827 265.616 143.826Z" fill="#D1D1D1"/>
<path d="M186.832 130.956H186.73L183.279 130.712C183.167 130.712 183.157 130.712 183.188 130.57C183.604 129.088 184.01 127.606 184.426 126.125C184.426 125.982 184.426 125.982 184.599 125.993L185.898 126.104C185.989 126.104 186.03 126.104 186.07 125.993C186.253 125.536 186.436 125.079 186.629 124.622L186.771 124.287C186.771 124.196 186.771 124.166 186.7 124.155L185.137 124.034C185.035 124.034 185.015 124.034 185.045 123.892C185.167 123.475 185.279 123.059 185.4 122.643C185.455 122.47 185.565 122.32 185.714 122.217C185.863 122.114 186.042 122.064 186.223 122.075L187.288 122.166C187.38 122.166 187.42 122.166 187.441 122.044L187.867 120.512C187.867 120.43 187.867 120.39 187.796 120.38C187.227 120.38 186.669 120.268 186.091 120.258C185.697 120.259 185.309 120.351 184.956 120.527C184.604 120.703 184.298 120.958 184.061 121.273C183.81 121.568 183.627 121.915 183.523 122.288C183.391 122.755 183.259 123.232 183.137 123.699C183.137 123.8 183.066 123.821 182.964 123.81L181.635 123.699C181.543 123.699 181.513 123.699 181.483 123.81C181.33 124.389 181.168 124.967 181.006 125.546C181.006 125.648 181.006 125.668 181.087 125.678L182.437 125.779C182.528 125.779 182.548 125.779 182.518 125.911L181.269 130.398C181.269 130.489 181.269 130.52 181.127 130.509L174.875 130.053H174.773L178.174 117.639L190.283 118.715L186.832 130.956Z" fill="#FF931E"/>
<path d="M148.058 110.372L86.0317 121.648C84.536 121.92 83.1083 122.483 81.8304 123.307C80.5525 124.13 79.4494 125.197 78.5841 126.447C77.7188 127.697 77.1082 129.105 76.7874 130.591C76.4665 132.077 76.4416 133.612 76.714 135.107L84.6209 178.631C85.1739 181.651 86.9029 184.328 89.4281 186.075C91.9533 187.822 95.0686 188.496 98.0899 187.948L151.215 178.285L161.456 187.085L160.918 176.479C163.753 175.755 166.208 173.984 167.788 171.522C169.368 169.06 169.957 166.091 169.434 163.213L161.517 119.7C161.247 118.203 160.684 116.774 159.861 115.495C159.039 114.216 157.972 113.112 156.722 112.246C155.472 111.379 154.063 110.768 152.577 110.446C151.09 110.125 149.555 110.099 148.058 110.372Z" fill="white"/>
<path d="M96.0092 188.638C93.1805 188.633 90.4432 187.637 88.2721 185.823C86.1011 184.01 84.6333 181.494 84.1235 178.712L76.1964 135.199C75.911 133.636 75.9369 132.033 76.2725 130.48C76.6081 128.928 77.2468 127.457 78.152 126.152C79.0573 124.847 80.2112 123.733 81.5477 122.875C82.8842 122.017 84.377 121.431 85.9404 121.151L147.967 109.874C151.115 109.303 154.361 110.002 156.994 111.819C159.627 113.635 161.432 116.422 162.015 119.568L169.932 163.081C170.468 166.019 169.899 169.052 168.334 171.596C166.77 174.14 164.32 176.017 161.456 176.864L161.974 187.014C161.977 187.112 161.952 187.209 161.901 187.293C161.851 187.376 161.777 187.444 161.689 187.487C161.601 187.53 161.503 187.546 161.406 187.535C161.309 187.523 161.217 187.483 161.142 187.42L151.093 178.783L98.2117 188.405C97.4861 188.549 96.7489 188.627 96.0092 188.638ZM148.15 110.869L86.1231 122.146C84.6925 122.405 83.3271 122.944 82.1048 123.731C80.8825 124.518 79.8274 125.539 78.9997 126.734C78.1721 127.929 77.5881 129.276 77.2813 130.697C76.9744 132.118 76.9507 133.586 77.2114 135.016L85.1284 178.539C85.6569 181.426 87.3086 183.985 89.7212 185.656C92.1339 187.326 95.1106 187.972 97.9986 187.451L151.124 177.788C151.199 177.773 151.276 177.776 151.35 177.795C151.423 177.815 151.492 177.85 151.55 177.9L160.868 185.928L160.441 176.509C160.438 176.392 160.474 176.277 160.544 176.183C160.614 176.089 160.714 176.021 160.827 175.992C163.531 175.287 165.869 173.587 167.374 171.233C168.88 168.879 169.441 166.044 168.947 163.294L161.04 119.781C160.512 116.894 158.86 114.335 156.447 112.664C154.035 110.994 151.058 110.348 148.17 110.869H148.15Z" fill="#484646"/>
<path d="M96.9329 150.84L112.077 148.079L116.066 170.023L102.962 172.409L96.9329 150.84Z" fill="#FF931E"/>
<path d="M102.962 172.916C102.851 172.915 102.743 172.878 102.655 172.811C102.567 172.743 102.504 172.648 102.475 172.541L96.4964 150.972C96.469 150.908 96.4549 150.839 96.4549 150.769C96.4549 150.699 96.469 150.63 96.4964 150.566C96.5346 150.506 96.5852 150.455 96.6448 150.417C96.7043 150.378 96.7713 150.353 96.8415 150.342L111.985 147.582C112.051 147.57 112.119 147.572 112.184 147.586C112.25 147.601 112.312 147.628 112.366 147.667C112.421 147.706 112.468 147.755 112.503 147.812C112.539 147.868 112.563 147.932 112.574 147.998L116.563 169.932C116.587 170.064 116.557 170.2 116.481 170.31C116.405 170.42 116.289 170.496 116.157 170.521L103.053 172.906L102.962 172.916ZM97.5723 151.236L103.327 171.82L115.507 169.617L111.721 148.678L97.5723 151.236Z" fill="#484646"/>
<path d="M111.315 168.724C112.291 168.724 113.082 167.933 113.082 166.958C113.082 165.983 112.291 165.192 111.315 165.192C110.34 165.192 109.549 165.983 109.549 166.958C109.549 167.933 110.34 168.724 111.315 168.724Z" fill="#484646"/>
<path d="M112.33 149.449C112.33 149.449 113.234 149.135 115.446 145.846C117.659 142.557 120.329 134.448 120.379 133.108C120.43 131.768 118.968 126.561 119.557 125.343C120.146 124.125 123.221 122.674 124.998 124.328C126.902 126.304 128.295 128.715 129.058 131.352C129.382 133.148 129.484 140.598 129.484 140.598L144.709 137.838C146.932 137.442 147.754 138.924 147.886 140.67C148.018 142.415 146.414 144.801 146.414 144.801C146.414 144.801 148.444 145.156 148.292 147.775C148.269 148.515 148.074 149.241 147.721 149.893C147.369 150.545 146.869 151.105 146.262 151.53C146.722 151.788 147.08 152.195 147.275 152.685C147.471 153.174 147.493 153.716 147.338 154.22C147.25 154.822 147.044 155.401 146.732 155.923C146.421 156.446 146.009 156.902 145.521 157.265C146.082 157.461 146.544 157.87 146.806 158.404C147.068 158.937 147.11 159.553 146.922 160.117C146.455 162.431 145.419 164.025 143.562 164.431C141.704 164.837 123.262 168.135 121.435 168.491C119.608 168.846 119.405 167.902 118.39 167.75C117.455 167.708 116.518 167.8 115.609 168.024L112.33 149.449Z" fill="white"/>
<path d="M120.765 168.998C120.169 169.001 119.585 168.824 119.091 168.491C118.88 168.344 118.642 168.24 118.39 168.186C117.523 168.149 116.654 168.238 115.812 168.45C115.745 168.468 115.676 168.472 115.608 168.461C115.54 168.451 115.474 168.426 115.416 168.389C115.358 168.352 115.308 168.303 115.269 168.245C115.231 168.188 115.205 168.123 115.193 168.054L111.823 149.541C111.803 149.424 111.823 149.304 111.88 149.201C111.937 149.097 112.028 149.017 112.138 148.972C112.209 148.972 113.061 148.475 115.02 145.562C117.243 142.263 119.831 134.234 119.872 133.087C119.807 132.2 119.678 131.318 119.486 130.448C118.999 127.86 118.695 125.962 119.101 125.12C119.445 124.6 119.893 124.157 120.417 123.82C120.941 123.483 121.53 123.258 122.146 123.161C122.704 123.034 123.285 123.042 123.839 123.185C124.393 123.328 124.905 123.602 125.333 123.983C127.326 126.03 128.783 128.536 129.575 131.281C129.85 132.813 129.961 138.193 129.992 140.02L144.587 137.361C145.009 137.256 145.448 137.242 145.875 137.321C146.302 137.4 146.708 137.569 147.064 137.817C147.465 138.171 147.788 138.605 148.012 139.091C148.236 139.577 148.355 140.104 148.363 140.639C148.335 142.034 147.912 143.392 147.145 144.557C147.707 144.879 148.162 145.36 148.451 145.94C148.74 146.52 148.851 147.172 148.769 147.815C148.724 149.222 148.13 150.555 147.115 151.53C147.463 151.898 147.714 152.346 147.845 152.836C147.976 153.325 147.983 153.839 147.866 154.331C147.683 155.389 147.184 156.365 146.435 157.133C146.891 157.479 147.232 157.955 147.413 158.498C147.594 159.042 147.607 159.627 147.45 160.178C146.902 162.878 145.643 164.461 143.704 164.887C142.222 165.212 130.205 167.364 124.419 168.399L121.557 168.917C121.296 168.966 121.031 168.993 120.765 168.998ZM117.974 167.151C118.163 167.135 118.353 167.135 118.542 167.151C118.907 167.22 119.253 167.365 119.557 167.577C119.813 167.755 120.105 167.875 120.412 167.927C120.719 167.98 121.033 167.964 121.334 167.882L124.206 167.374C129.971 166.359 141.979 164.187 143.491 163.862C145.003 163.537 145.998 162.248 146.465 159.944C146.63 159.51 146.616 159.027 146.426 158.603C146.235 158.178 145.885 157.847 145.45 157.681C145.358 157.652 145.276 157.597 145.213 157.524C145.15 157.45 145.109 157.36 145.095 157.265C145.085 157.169 145.102 157.072 145.143 156.984C145.184 156.897 145.248 156.822 145.328 156.767C146.188 156.129 146.761 155.177 146.922 154.118C147.206 152.525 146.242 152.027 146.13 151.977C146.047 151.936 145.976 151.874 145.925 151.798C145.873 151.721 145.842 151.632 145.836 151.54C145.831 151.449 145.851 151.358 145.893 151.278C145.936 151.197 146.001 151.13 146.079 151.083C146.607 150.694 147.037 150.188 147.338 149.605C147.639 149.023 147.802 148.379 147.815 147.724C147.906 145.694 146.516 145.308 146.353 145.278C146.271 145.257 146.194 145.218 146.129 145.164C146.064 145.109 146.012 145.04 145.978 144.963C145.94 144.889 145.921 144.807 145.921 144.724C145.921 144.642 145.94 144.56 145.978 144.486C146.404 143.867 147.49 141.969 147.358 140.7C147.364 140.304 147.288 139.911 147.134 139.546C146.981 139.18 146.753 138.851 146.465 138.579C146.218 138.42 145.94 138.316 145.65 138.272C145.359 138.229 145.063 138.246 144.78 138.325L129.555 141.086C129.482 141.096 129.407 141.091 129.336 141.072C129.264 141.052 129.198 141.019 129.139 140.974C129.082 140.927 129.036 140.868 129.004 140.802C128.973 140.735 128.956 140.662 128.956 140.588C128.956 140.517 128.855 133.158 128.54 131.453C127.789 128.923 126.438 126.611 124.602 124.714C124.293 124.443 123.923 124.25 123.524 124.151C123.125 124.052 122.708 124.05 122.308 124.145C121.844 124.214 121.397 124.375 120.995 124.617C120.593 124.859 120.242 125.178 119.963 125.556C119.669 126.155 120.126 128.601 120.43 130.256C120.646 131.197 120.782 132.154 120.836 133.118C120.775 134.549 118.055 142.781 115.761 146.12C114.959 147.453 113.956 148.655 112.787 149.683L115.995 167.344C116.647 167.22 117.31 167.155 117.974 167.151Z" fill="#484646"/>
<path d="M141.765 238.647L154.808 230.781L141.156 233.491L140.71 229.715C140.598 228.746 140.295 227.807 139.82 226.954C139.345 226.101 138.707 225.35 137.942 224.744C137.176 224.138 136.299 223.689 135.36 223.422C134.42 223.155 133.438 223.076 132.468 223.189L87.3614 228.437C86.3915 228.549 85.4532 228.851 84.6001 229.326C83.7471 229.801 82.9961 230.439 82.3899 231.205C81.7838 231.97 81.3345 232.848 81.0677 233.787C80.8008 234.726 80.7218 235.709 80.8349 236.678L83.8799 263.292C83.9979 264.266 84.3071 265.206 84.7897 266.061C85.2723 266.915 85.9188 267.665 86.6921 268.269C87.4654 268.872 88.3503 269.317 89.296 269.578C90.2417 269.838 91.2296 269.91 92.2029 269.788L137.289 264.54C139.249 264.311 141.037 263.313 142.261 261.766C143.485 260.218 144.044 258.248 143.816 256.288L141.765 238.647Z" fill="white"/>
<path d="M91.3402 270.376C89.393 270.373 87.5146 269.656 86.0597 268.362C84.6048 267.068 83.6741 265.286 83.4435 263.353L80.3985 236.739C80.1609 234.649 80.7596 232.55 82.0641 230.899C83.3685 229.249 85.2728 228.181 87.3614 227.929L132.458 222.682C134.55 222.441 136.652 223.04 138.304 224.348C139.955 225.655 141.021 227.563 141.268 229.655L141.644 232.892L154.747 230.284C154.865 230.258 154.989 230.275 155.096 230.332C155.202 230.389 155.285 230.482 155.329 230.595C155.373 230.707 155.376 230.832 155.336 230.946C155.296 231.06 155.217 231.157 155.113 231.218L142.344 238.911L144.374 256.268C144.617 258.361 144.019 260.464 142.711 262.117C141.404 263.769 139.494 264.834 137.401 265.078L92.3146 270.326C91.9913 270.365 91.6657 270.382 91.3402 270.376ZM133.341 223.686C133.074 223.671 132.806 223.671 132.539 223.686L87.4426 228.934C86.5382 229.039 85.6632 229.32 84.8677 229.763C84.0722 230.206 83.3717 230.801 82.8062 231.514C82.2406 232.228 81.8212 233.046 81.5718 233.921C81.3224 234.797 81.2479 235.713 81.3526 236.617L84.3976 263.241C84.6114 265.066 85.5403 266.732 86.9806 267.874C88.4209 269.016 90.2551 269.54 92.0811 269.331L137.178 264.083C139.003 263.87 140.669 262.941 141.811 261.5C142.952 260.06 143.476 258.226 143.268 256.4L141.238 238.719C141.228 238.621 141.246 238.523 141.289 238.435C141.332 238.348 141.398 238.273 141.481 238.221L152.047 231.857L141.238 233.999C141.17 234.013 141.099 234.013 141.031 233.999C140.963 233.985 140.899 233.958 140.842 233.918C140.732 233.829 140.659 233.702 140.639 233.562L140.202 229.787C140.006 228.101 139.2 226.546 137.936 225.415C136.672 224.284 135.037 223.654 133.341 223.646V223.686Z" fill="#484646"/>
<path d="M93.3397 246.625L103.134 245.539L104.698 259.719L96.2223 260.653L93.3397 246.625Z" fill="#FF931E"/>
<path d="M96.2223 261.16C96.1053 261.16 95.9919 261.12 95.9013 261.046C95.8107 260.972 95.7484 260.869 95.725 260.754L92.8424 246.727C92.8278 246.657 92.828 246.585 92.8431 246.516C92.8582 246.446 92.8877 246.38 92.9299 246.323C92.972 246.265 93.0257 246.217 93.0876 246.182C93.1495 246.147 93.2181 246.125 93.289 246.118L103.074 245.042C103.207 245.028 103.34 245.067 103.445 245.15C103.549 245.234 103.617 245.356 103.632 245.489L105.205 259.699C105.212 259.765 105.206 259.833 105.187 259.897C105.167 259.961 105.136 260.021 105.093 260.073C105.051 260.125 104.998 260.168 104.939 260.199C104.88 260.231 104.815 260.25 104.748 260.257L96.2832 261.191L96.2223 261.16ZM93.9487 247.062L96.6283 260.094L104.139 259.272L102.678 246.077L93.9487 247.062Z" fill="#484646"/>
<path d="M101.805 258.684C102.433 258.684 102.942 258.175 102.942 257.547C102.942 256.919 102.433 256.41 101.805 256.41C101.177 256.41 100.668 256.919 100.668 257.547C100.668 258.175 101.177 258.684 101.805 258.684Z" fill="#484646"/>
<path d="M103.226 246.443C103.226 246.443 103.825 246.28 105.378 244.281C106.997 241.84 108.252 239.177 109.103 236.374C109.194 235.521 108.494 232.131 108.92 231.38C109.346 230.629 111.376 229.847 112.442 230.994C113.575 232.341 114.362 233.944 114.736 235.663C114.858 236.82 114.594 241.581 114.594 241.581L124.409 240.495C125.84 240.343 126.276 241.327 126.307 242.444C126.173 243.386 125.784 244.275 125.18 245.012C125.576 245.157 125.902 245.448 126.091 245.825C126.279 246.202 126.317 246.638 126.195 247.042C126.153 247.512 126.001 247.966 125.753 248.367C125.504 248.769 125.166 249.107 124.764 249.356C125.047 249.54 125.258 249.816 125.362 250.138C125.465 250.46 125.455 250.807 125.333 251.122C125.155 251.877 124.689 252.533 124.033 252.949C124.384 253.099 124.662 253.381 124.806 253.734C124.951 254.088 124.95 254.484 124.805 254.837C124.399 256.288 123.668 257.252 122.47 257.435C121.273 257.618 109.275 258.887 108.169 259.008C107.063 259.13 106.91 258.552 106.281 258.41C105.686 258.341 105.085 258.358 104.495 258.46L103.226 246.443Z" fill="white"/>
<path d="M107.915 259.465C107.436 259.473 106.967 259.319 106.585 259.029C106.481 258.935 106.356 258.869 106.22 258.836C105.692 258.755 105.155 258.755 104.627 258.836C104.491 258.857 104.353 258.824 104.241 258.744C104.186 258.702 104.14 258.649 104.107 258.587C104.073 258.526 104.053 258.459 104.048 258.389L102.728 246.443C102.714 246.329 102.739 246.214 102.8 246.118C102.861 246.022 102.955 245.95 103.063 245.915C103.826 245.367 104.478 244.678 104.982 243.885C106.542 241.517 107.758 238.941 108.595 236.232C108.591 235.674 108.547 235.118 108.463 234.567C108.26 232.811 108.159 231.614 108.463 231.035C108.722 230.693 109.05 230.409 109.426 230.203C109.802 229.997 110.218 229.872 110.645 229.837C111.034 229.778 111.431 229.813 111.804 229.938C112.176 230.063 112.513 230.276 112.787 230.558C113.997 231.981 114.834 233.684 115.223 235.511C115.325 236.455 115.223 239.571 115.111 240.921L124.328 239.906C124.627 239.855 124.933 239.867 125.227 239.942C125.521 240.017 125.795 240.154 126.033 240.343C126.294 240.61 126.496 240.928 126.627 241.277C126.758 241.627 126.815 242 126.794 242.373C126.726 243.24 126.421 244.073 125.911 244.778C126.237 245.037 126.485 245.38 126.63 245.77C126.775 246.16 126.811 246.582 126.733 246.991C126.639 247.874 126.228 248.692 125.576 249.295C125.757 249.561 125.876 249.864 125.925 250.181C125.974 250.499 125.952 250.824 125.86 251.132C125.7 251.769 125.37 252.352 124.906 252.817C125.152 253.087 125.32 253.418 125.393 253.775C125.466 254.132 125.442 254.502 125.322 254.847C124.835 256.613 123.912 257.618 122.572 257.811C121.557 257.963 113.762 258.826 110.006 259.211L108.25 259.394C108.141 259.427 108.028 259.45 107.915 259.465ZM105.733 257.78C105.971 257.773 106.21 257.793 106.443 257.841C106.708 257.903 106.954 258.024 107.164 258.196C107.305 258.31 107.469 258.39 107.644 258.432C107.82 258.475 108.002 258.477 108.179 258.44L109.935 258.247C113.396 257.872 121.506 257.009 122.46 256.867C123.414 256.725 124.013 255.994 124.389 254.624C124.652 253.659 124.003 253.385 123.932 253.355C123.842 253.319 123.763 253.259 123.704 253.183C123.645 253.106 123.608 253.015 123.597 252.918C123.591 252.821 123.613 252.723 123.66 252.637C123.706 252.551 123.776 252.48 123.861 252.431C124.12 252.26 124.344 252.039 124.518 251.781C124.692 251.523 124.814 251.234 124.876 250.929C125.109 250.026 124.571 249.741 124.571 249.731C124.488 249.69 124.417 249.627 124.368 249.548C124.319 249.469 124.293 249.378 124.293 249.285C124.293 249.192 124.319 249.1 124.368 249.022C124.417 248.943 124.488 248.879 124.571 248.838C124.897 248.627 125.171 248.345 125.371 248.012C125.572 247.68 125.694 247.306 125.728 246.92C125.86 245.783 125.18 245.519 125.038 245.478C124.957 245.456 124.883 245.414 124.822 245.355C124.762 245.297 124.718 245.224 124.693 245.143C124.668 245.065 124.662 244.981 124.676 244.9C124.69 244.819 124.724 244.742 124.774 244.677C125.314 244.037 125.665 243.261 125.789 242.433C125.819 241.979 125.669 241.531 125.373 241.185C125.242 241.089 125.092 241.022 124.933 240.987C124.774 240.952 124.609 240.95 124.449 240.982L114.634 242.068C114.561 242.072 114.487 242.062 114.417 242.038C114.348 242.013 114.283 241.975 114.228 241.926C114.177 241.874 114.136 241.813 114.11 241.744C114.084 241.676 114.072 241.603 114.076 241.53C114.168 239.896 114.32 236.577 114.218 235.694C113.854 234.085 113.113 232.586 112.056 231.319C111.888 231.156 111.684 231.034 111.46 230.963C111.236 230.893 110.999 230.875 110.767 230.913C110.224 230.956 109.719 231.207 109.356 231.614C109.25 232.584 109.284 233.566 109.458 234.527C109.561 235.15 109.605 235.782 109.59 236.414C108.736 239.299 107.449 242.037 105.773 244.534C105.197 245.331 104.514 246.044 103.743 246.656L104.972 257.821C105.215 257.801 105.479 257.78 105.733 257.78Z" fill="#484646"/>
<path d="M322.506 268.255L315.249 219.434C315.131 218.631 314.856 217.859 314.44 217.163C314.023 216.467 313.474 215.859 312.822 215.376C312.171 214.892 311.43 214.542 310.643 214.344C309.856 214.147 309.038 214.107 308.236 214.227L246.96 223.362L231.847 212.197L238.19 224.742C236.833 225.218 235.685 226.153 234.944 227.385C234.202 228.617 233.915 230.07 234.13 231.492L241.388 280.323C241.507 281.125 241.783 281.896 242.2 282.591C242.617 283.286 243.167 283.892 243.818 284.375C244.469 284.857 245.209 285.207 245.996 285.403C246.782 285.6 247.6 285.64 248.401 285.52L317.36 275.269C318.97 275.016 320.415 274.137 321.379 272.823C322.343 271.509 322.749 269.867 322.506 268.255Z" fill="white"/>
<path d="M247.437 286.099C245.836 286.093 244.29 285.514 243.079 284.468C241.867 283.422 241.069 281.977 240.829 280.394L233.572 231.573C233.355 230.123 233.62 228.641 234.329 227.357C235.037 226.073 236.148 225.058 237.49 224.468L231.4 212.42C231.35 212.317 231.336 212.2 231.36 212.088C231.384 211.976 231.445 211.875 231.532 211.801C231.622 211.73 231.732 211.691 231.847 211.691C231.961 211.691 232.072 211.73 232.161 211.801L247.102 222.813L308.165 213.678C309.918 213.425 311.701 213.875 313.125 214.93C314.549 215.985 315.499 217.56 315.767 219.312L323.024 268.133C323.28 269.888 322.831 271.672 321.776 273.097C320.72 274.521 319.144 275.47 317.391 275.736L248.432 286.028C248.102 286.071 247.77 286.095 247.437 286.099ZM233.227 213.871L238.617 224.519C238.647 224.584 238.662 224.655 238.662 224.727C238.662 224.799 238.647 224.87 238.617 224.935C238.59 225.003 238.548 225.064 238.496 225.115C238.443 225.165 238.381 225.204 238.312 225.229C237.058 225.657 235.993 226.51 235.303 227.641C234.614 228.773 234.342 230.11 234.536 231.421L241.794 280.242C241.903 280.979 242.156 281.688 242.539 282.327C242.922 282.966 243.428 283.524 244.026 283.968C244.625 284.411 245.305 284.733 246.028 284.914C246.75 285.095 247.502 285.132 248.239 285.023L317.188 274.771C318.675 274.548 320.014 273.745 320.91 272.536C321.806 271.328 322.187 269.814 321.969 268.326L314.721 219.505C314.498 218.017 313.695 216.679 312.487 215.783C311.278 214.887 309.764 214.506 308.276 214.724L247.011 223.859C246.945 223.868 246.877 223.864 246.813 223.846C246.748 223.829 246.688 223.799 246.635 223.757L233.227 213.871Z" fill="#484646"/>
<path d="M304.602 245.519L288.189 246.372L289.438 270.133L303.627 269.392L304.602 245.519Z" fill="#FF931E"/>
<path d="M289.438 270.64C289.308 270.641 289.184 270.591 289.089 270.503C288.995 270.414 288.938 270.292 288.93 270.163L287.682 246.443C287.679 246.376 287.69 246.309 287.713 246.247C287.736 246.184 287.771 246.127 287.816 246.078C287.861 246.029 287.916 245.989 287.976 245.961C288.037 245.933 288.102 245.917 288.169 245.915L304.571 245.052C304.642 245.047 304.713 245.057 304.78 245.081C304.846 245.106 304.907 245.144 304.957 245.194C305.056 245.298 305.111 245.436 305.109 245.58L304.094 269.453C304.092 269.579 304.041 269.7 303.952 269.791C303.864 269.881 303.744 269.935 303.617 269.94L289.407 270.681L289.438 270.64ZM288.727 246.859L289.915 269.605L303.11 268.905L304.033 246.057L288.727 246.859Z" fill="#484646"/>
<path d="M293.62 267.676C294.662 267.676 295.507 266.831 295.507 265.789C295.507 264.746 294.662 263.901 293.62 263.901C292.577 263.901 291.732 264.746 291.732 265.789C291.732 266.831 292.577 267.676 293.62 267.676Z" fill="#484646"/>
<path d="M288.27 247.854C288.27 247.854 287.255 247.752 284.15 244.88C281.044 242.007 276.283 234.242 275.898 232.862C275.512 231.482 275.755 225.757 274.883 224.6C274.01 223.443 270.427 222.732 268.985 224.904C267.483 227.426 266.618 230.276 266.468 233.207C266.57 235.146 268.295 242.91 268.295 242.91L251.852 243.763C249.447 243.895 248.99 245.631 249.244 247.478C249.497 249.325 251.781 251.406 251.781 251.406C251.781 251.406 249.812 252.279 250.573 254.959C250.77 255.72 251.141 256.426 251.657 257.019C252.173 257.613 252.82 258.078 253.547 258.379C253.134 258.757 252.863 259.266 252.78 259.821C252.697 260.375 252.806 260.941 253.091 261.424C253.583 262.624 254.527 263.583 255.719 264.094C255.183 264.432 254.803 264.969 254.66 265.586C254.518 266.204 254.625 266.853 254.958 267.392C255.973 269.676 257.475 271.077 259.505 271.046C261.535 271.016 281.531 269.899 283.469 269.798C285.408 269.696 285.418 268.691 286.403 268.285C287.364 268.016 288.358 267.883 289.357 267.89L288.27 247.854Z" fill="white"/>
<path d="M259.404 271.564C257.323 271.564 255.658 270.234 254.451 267.616C254.155 267.081 254.027 266.47 254.083 265.862C254.139 265.254 254.377 264.677 254.765 264.205C253.793 263.591 253.032 262.695 252.583 261.637C252.337 261.155 252.218 260.618 252.235 260.076C252.253 259.535 252.408 259.007 252.685 258.541C252.038 258.17 251.472 257.673 251.019 257.081C250.566 256.488 250.235 255.812 250.046 255.09C249.8 254.446 249.753 253.742 249.913 253.07C250.072 252.399 250.429 251.791 250.939 251.325C249.854 250.302 249.08 248.993 248.706 247.549C248.583 246.998 248.576 246.427 248.686 245.873C248.796 245.319 249.021 244.794 249.345 244.331C249.651 243.989 250.026 243.715 250.447 243.53C250.867 243.344 251.322 243.251 251.781 243.256L267.635 242.433C267.219 240.576 266.001 234.892 265.92 233.227C266.062 230.186 266.958 227.228 268.529 224.62C268.872 224.129 269.327 223.726 269.856 223.446C270.386 223.165 270.974 223.014 271.574 223.006C272.234 222.953 272.899 223.038 273.525 223.256C274.151 223.475 274.724 223.822 275.207 224.275C275.827 225.046 275.979 227.087 276.111 229.888C276.122 230.84 276.203 231.79 276.354 232.73C276.689 233.907 281.348 241.621 284.474 244.504C287.296 247.113 288.291 247.336 288.331 247.346C288.448 247.361 288.555 247.417 288.634 247.505C288.712 247.592 288.756 247.706 288.758 247.823L289.773 267.879C289.777 267.949 289.767 268.018 289.742 268.083C289.718 268.147 289.68 268.206 289.631 268.255C289.534 268.352 289.402 268.407 289.265 268.407C288.335 268.392 287.408 268.515 286.514 268.773C286.264 268.889 286.039 269.054 285.855 269.26C285.542 269.589 285.163 269.849 284.744 270.024C284.324 270.199 283.873 270.284 283.419 270.275L280.201 270.447C273.989 270.793 261.038 271.462 259.424 271.523L259.404 271.564ZM271.868 224.021H271.655C271.209 224.02 270.769 224.125 270.372 224.328C269.974 224.531 269.631 224.826 269.371 225.189C267.933 227.619 267.098 230.358 266.935 233.177C267.027 235.054 268.732 242.718 268.752 242.799C268.767 242.871 268.767 242.945 268.751 243.017C268.735 243.089 268.705 243.156 268.661 243.215C268.616 243.274 268.56 243.322 268.495 243.357C268.43 243.392 268.359 243.413 268.285 243.418L251.842 244.271C251.523 244.261 251.206 244.318 250.91 244.439C250.615 244.56 250.348 244.741 250.127 244.971C249.898 245.338 249.747 245.748 249.684 246.176C249.621 246.604 249.647 247.04 249.761 247.458C249.944 248.828 251.538 250.503 252.136 251.071C252.198 251.129 252.245 251.2 252.273 251.28C252.301 251.359 252.31 251.444 252.299 251.528C252.284 251.612 252.248 251.692 252.195 251.759C252.142 251.826 252.073 251.88 251.994 251.914C251.842 251.985 250.452 252.695 251.071 254.857C251.247 255.535 251.578 256.162 252.038 256.69C252.498 257.219 253.073 257.633 253.72 257.902C253.809 257.929 253.889 257.982 253.948 258.055C254.008 258.127 254.045 258.215 254.055 258.308C254.07 258.399 254.06 258.493 254.026 258.578C253.992 258.664 253.935 258.739 253.862 258.795C253.542 259.109 253.338 259.522 253.285 259.967C253.231 260.411 253.331 260.861 253.568 261.241C253.996 262.313 254.832 263.171 255.892 263.627C255.985 263.659 256.066 263.717 256.127 263.794C256.187 263.871 256.224 263.964 256.232 264.062C256.241 264.16 256.221 264.258 256.175 264.345C256.129 264.431 256.059 264.503 255.973 264.55C255.763 264.688 255.582 264.866 255.44 265.073C255.299 265.281 255.199 265.515 255.149 265.761C255.098 266.007 255.096 266.261 255.143 266.508C255.191 266.755 255.286 266.99 255.425 267.199C256.44 269.483 257.82 270.61 259.485 270.559C261.15 270.508 274.01 269.828 280.222 269.483L283.429 269.311C283.767 269.321 284.102 269.257 284.413 269.124C284.723 268.991 285 268.791 285.225 268.539C285.512 268.239 285.858 268.001 286.24 267.839C287.084 267.568 287.963 267.424 288.849 267.413L287.834 248.229C286.356 247.459 285.013 246.454 283.855 245.255C280.709 242.352 275.867 234.476 275.461 233.004C275.284 231.998 275.189 230.98 275.177 229.959C275.096 228.183 274.964 225.503 274.497 224.884C273.765 224.267 272.823 223.958 271.868 224.021Z" fill="#484646"/>
<path d="M318.284 142.568L266.925 130.915C266.063 130.719 265.17 130.694 264.298 130.843C263.426 130.992 262.592 131.311 261.843 131.782C261.095 132.253 260.447 132.868 259.936 133.59C259.425 134.312 259.061 135.128 258.866 135.99L252.664 163.324L239.398 168.399L251.304 169.333L250.847 171.363C250.649 172.226 250.624 173.119 250.772 173.991C250.92 174.864 251.239 175.698 251.71 176.447C252.182 177.196 252.797 177.844 253.52 178.355C254.242 178.865 255.059 179.228 255.922 179.422L307.281 191.074C309.023 191.469 310.85 191.156 312.361 190.204C313.872 189.253 314.944 187.74 315.34 185.999L323.359 150.627C323.753 148.885 323.44 147.058 322.489 145.547C321.537 144.036 320.025 142.965 318.284 142.568Z" fill="white"/>
<path d="M308.784 191.754C308.241 191.754 307.699 191.693 307.17 191.572L255.851 179.92C253.978 179.494 252.351 178.341 251.327 176.716C250.303 175.09 249.966 173.125 250.391 171.251L250.715 169.79L239.398 168.907C239.332 168.916 239.264 168.912 239.199 168.895C239.133 168.879 239.072 168.849 239.019 168.808C238.965 168.768 238.92 168.717 238.885 168.659C238.851 168.601 238.829 168.537 238.82 168.47C238.81 168.404 238.814 168.336 238.831 168.271C238.848 168.206 238.878 168.144 238.918 168.091C238.959 168.037 239.009 167.992 239.067 167.958C239.125 167.924 239.189 167.901 239.256 167.892L252.268 162.928L258.409 135.848C258.845 133.996 259.992 132.389 261.602 131.375C263.213 130.36 265.157 130.02 267.016 130.428L318.375 142.07C320.247 142.499 321.873 143.652 322.896 145.276C323.92 146.901 324.258 148.865 323.836 150.738L315.818 186.111C315.451 187.719 314.547 189.154 313.256 190.18C311.964 191.206 310.362 191.761 308.713 191.754H308.784ZM241.641 168.064L251.304 168.826C251.376 168.833 251.446 168.855 251.509 168.891C251.572 168.926 251.627 168.975 251.67 169.034C251.713 169.092 251.744 169.159 251.759 169.23C251.775 169.3 251.775 169.374 251.761 169.445L251.294 171.475C250.933 173.084 251.225 174.771 252.106 176.166C252.987 177.561 254.385 178.549 255.993 178.915L307.393 190.618C308.19 190.799 309.015 190.822 309.821 190.685C310.627 190.547 311.398 190.252 312.09 189.817C312.782 189.381 313.381 188.814 313.853 188.147C314.326 187.479 314.662 186.726 314.843 185.928L322.841 150.515C323.202 148.904 322.911 147.216 322.03 145.82C321.149 144.423 319.751 143.433 318.142 143.065L266.813 131.413C266.016 131.231 265.19 131.209 264.383 131.347C263.577 131.485 262.806 131.781 262.114 132.217C261.422 132.654 260.822 133.222 260.35 133.891C259.879 134.559 259.543 135.314 259.363 136.112L253.162 163.446C253.142 163.527 253.103 163.601 253.048 163.663C252.994 163.725 252.924 163.772 252.847 163.801L241.641 168.064Z" fill="#484646"/>
<path d="M308.104 162.056L294.99 160.249L292.361 179.24L303.709 180.803L308.104 162.056Z" fill="#FF931E"/>
<path d="M303.709 181.31H303.638L292.29 179.747C292.224 179.737 292.16 179.714 292.103 179.68C292.046 179.645 291.996 179.6 291.957 179.546C291.917 179.492 291.889 179.431 291.873 179.367C291.857 179.302 291.854 179.234 291.864 179.168L294.482 160.168C294.502 160.036 294.573 159.917 294.679 159.835C294.785 159.754 294.918 159.717 295.051 159.731L308.165 161.548C308.235 161.557 308.304 161.58 308.365 161.617C308.426 161.653 308.479 161.703 308.52 161.761C308.559 161.82 308.585 161.887 308.597 161.957C308.61 162.027 308.607 162.098 308.591 162.167L304.206 180.914C304.181 181.027 304.117 181.128 304.027 181.2C303.937 181.272 303.824 181.311 303.709 181.31ZM292.94 178.803L303.323 180.244L307.474 162.482L295.436 160.817L292.94 178.803Z" fill="#484646"/>
<path d="M296.33 177.95C297.17 177.95 297.852 177.269 297.852 176.428C297.852 175.587 297.17 174.905 296.33 174.905C295.489 174.905 294.807 175.587 294.807 176.428C294.807 177.269 295.489 177.95 296.33 177.95Z" fill="#484646"/>
<path d="M294.817 161.426C294.817 161.426 294.036 161.193 292.006 158.442C289.921 155.106 288.341 151.481 287.316 147.683C287.215 146.536 288.331 142.009 287.733 140.984C287.134 139.959 284.495 138.832 283.023 140.335C281.45 142.099 280.332 144.221 279.765 146.516C279.552 148.069 279.765 154.474 279.765 154.474L266.621 152.667C264.692 152.393 264.073 153.682 263.992 155.204C263.91 156.727 265.403 158.696 265.403 158.696C264.868 158.865 264.416 159.23 264.138 159.717C263.86 160.204 263.775 160.778 263.9 161.325C263.94 161.959 264.128 162.575 264.448 163.123C264.769 163.671 265.214 164.136 265.748 164.481C265.358 164.717 265.062 165.081 264.91 165.51C264.759 165.939 264.76 166.408 264.915 166.836C265.125 167.858 265.726 168.758 266.59 169.343C266.115 169.531 265.733 169.899 265.526 170.366C265.319 170.832 265.304 171.362 265.484 171.84C265.971 173.809 266.925 175.139 268.529 175.423C270.132 175.707 286.139 177.849 287.692 178.062C289.245 178.275 289.397 177.494 290.24 177.321C291.04 177.253 291.847 177.297 292.635 177.453L294.817 161.426Z" fill="white"/>
<path d="M288.159 178.61C287.97 178.624 287.78 178.624 287.59 178.61L285.205 178.285C280.13 177.605 269.706 176.195 268.407 175.961C266.702 175.657 265.535 174.327 264.966 172.003C264.811 171.535 264.795 171.033 264.921 170.557C265.047 170.081 265.31 169.652 265.677 169.323C265.03 168.686 264.582 167.875 264.388 166.988C264.271 166.57 264.256 166.129 264.344 165.704C264.432 165.278 264.621 164.88 264.895 164.542C264.007 163.729 263.462 162.607 263.373 161.406C263.279 160.857 263.345 160.293 263.565 159.781C263.785 159.27 264.148 158.833 264.611 158.523C263.929 157.551 263.528 156.41 263.454 155.225C263.435 154.756 263.515 154.288 263.69 153.852C263.865 153.416 264.13 153.023 264.469 152.697C264.772 152.464 265.123 152.299 265.496 152.213C265.869 152.128 266.256 152.123 266.631 152.2L279.196 153.895C279.196 152.251 279.064 147.805 279.247 146.445C279.825 144.043 280.99 141.821 282.637 139.979C282.997 139.629 283.435 139.369 283.915 139.223C284.396 139.076 284.904 139.047 285.398 139.137C285.945 139.196 286.473 139.369 286.949 139.646C287.424 139.922 287.837 140.295 288.159 140.741C288.555 141.471 288.362 143.055 288.037 145.379C287.906 146.127 287.828 146.884 287.804 147.643C288.82 151.344 290.365 154.878 292.391 158.138C294.198 160.584 294.939 160.929 294.97 160.939C295.08 160.976 295.174 161.052 295.234 161.153C295.294 161.253 295.315 161.372 295.294 161.487L293.082 177.514C293.073 177.582 293.051 177.648 293.016 177.707C292.981 177.767 292.934 177.818 292.879 177.859C292.822 177.9 292.757 177.928 292.689 177.942C292.621 177.956 292.551 177.955 292.483 177.94C291.759 177.789 291.017 177.744 290.28 177.808C290.077 177.86 289.887 177.953 289.722 178.082C289.271 178.422 288.723 178.607 288.159 178.61ZM266.113 153.134C265.749 153.109 265.388 153.217 265.098 153.438C264.654 153.929 264.417 154.573 264.438 155.235C264.574 156.388 265.027 157.481 265.748 158.391C265.798 158.461 265.831 158.541 265.843 158.626C265.856 158.711 265.847 158.798 265.819 158.879C265.79 158.958 265.741 159.028 265.677 159.083C265.613 159.138 265.536 159.176 265.453 159.193C265.332 159.193 264.195 159.559 264.347 161.284C264.385 161.834 264.547 162.368 264.821 162.847C265.096 163.325 265.475 163.735 265.93 164.045C266.011 164.088 266.078 164.153 266.125 164.232C266.172 164.31 266.197 164.4 266.197 164.492C266.197 164.583 266.172 164.673 266.125 164.752C266.078 164.83 266.011 164.895 265.93 164.938C265.849 164.938 265.088 165.425 265.382 166.725C265.56 167.609 266.073 168.391 266.813 168.907C266.898 168.955 266.966 169.026 267.01 169.113C267.053 169.2 267.07 169.298 267.057 169.394C267.047 169.489 267.011 169.58 266.951 169.656C266.892 169.731 266.812 169.788 266.722 169.82C266.546 169.894 266.386 170.001 266.252 170.136C266.118 170.271 266.012 170.432 265.94 170.608C265.869 170.785 265.833 170.974 265.834 171.164C265.836 171.355 265.876 171.543 265.951 171.718C266.428 173.647 267.29 174.692 268.59 174.926C269.889 175.159 280.313 176.56 285.337 177.24L287.733 177.565C287.985 177.624 288.247 177.625 288.5 177.569C288.753 177.513 288.991 177.4 289.194 177.24C289.472 177.042 289.786 176.901 290.118 176.824C290.791 176.725 291.475 176.725 292.148 176.824L294.239 161.599C293.204 160.759 292.304 159.767 291.569 158.655C289.435 155.241 287.817 151.53 286.768 147.643C286.776 146.805 286.858 145.969 287.012 145.146C287.195 143.826 287.509 141.624 287.245 141.086C286.737 140.472 286.008 140.082 285.215 140C284.88 139.935 284.534 139.951 284.206 140.047C283.877 140.142 283.576 140.314 283.327 140.548C281.834 142.237 280.765 144.259 280.211 146.445C279.998 147.937 280.211 154.26 280.211 154.321C280.212 154.396 280.197 154.469 280.167 154.538C280.138 154.606 280.094 154.667 280.039 154.717C279.983 154.764 279.918 154.799 279.848 154.82C279.779 154.841 279.705 154.847 279.633 154.839L266.489 153.022L266.113 153.134Z" fill="#484646"/>
</svg>
