<svg width="150" height="150" viewBox="0 0 150 150" fill="none" xmlns="http://www.w3.org/2000/svg">
<path d="M102.572 96.8852C102.552 96.6598 102.581 96.4328 102.658 96.2201C102.735 96.0073 102.858 95.8141 103.018 95.6539C103.178 95.4938 103.371 95.3706 103.583 95.2931C103.796 95.2156 104.023 95.1857 104.248 95.2054L105.883 92.0692L108.031 92.5977L105.661 96.9942C105.602 97.3707 105.408 97.7127 105.114 97.9555C104.821 98.1982 104.449 98.3249 104.068 98.3115C103.687 98.298 103.325 98.1454 103.049 97.8825C102.773 97.6197 102.604 97.2648 102.572 96.8852H102.572Z" fill="#FFB7B7"/>
<path d="M112.329 127.438L110.516 127.438L109.654 120.446L112.329 120.446L112.329 127.438Z" fill="#FFB7B7"/>
<path d="M112.792 129.195L106.947 129.195V129.121C106.947 128.518 107.187 127.939 107.614 127.512C108.04 127.086 108.619 126.846 109.222 126.846H109.222L112.792 126.846L112.792 129.195Z" fill="#2F2E41"/>
<path d="M126.908 126.084L125.159 126.561L122.487 120.042L125.068 119.339L126.908 126.084Z" fill="#FFB7B7"/>
<path d="M127.816 127.657L122.177 129.195L122.157 129.124C121.999 128.542 122.078 127.92 122.377 127.396C122.676 126.873 123.171 126.489 123.753 126.33L123.754 126.33L127.198 125.391L127.816 127.657Z" fill="#2F2E41"/>
<path d="M109.02 97.2361L108.116 110.967L110.058 126.372L113.24 125.401L113.374 111.637L115.919 103.7L123.454 124.898L126.903 123.626L124.057 109.862L122.449 96.9348L109.02 97.2361Z" fill="#2F2E41"/>
<path d="M117.81 73.1251L112.453 73.9151L110.523 75.824L109.924 82.6824L110.296 88.7574L108.744 99.4704C108.744 99.4704 112.646 97.3044 115.67 100.016C118.693 102.727 122.924 100.495 123.011 98.6912L117.81 73.1251Z" fill="#CBCBCB"/>
<path d="M115.09 81.7267L115.09 81.719L117.752 73.0437L117.786 73.0414C117.976 73.0291 122.438 72.7661 123.436 74.9693L123.441 74.9799L123.138 83.9954L123.555 98.1149L115.302 99.9024L115.242 99.9155L115.09 81.7267Z" fill="#2F2E41"/>
<path d="M112.14 81.1271L112.628 73.7727C109.156 73.9887 109.208 76.4506 109.212 76.558L109.174 87.5586L108.479 99.3274L111.008 99.1377L112.14 81.1271Z" fill="#2F2E41"/>
<path d="M104.311 94.5089L107.394 87.3542L109.546 83.4029L110.669 90.5307L106.769 96.3813L104.311 94.5089Z" fill="#2F2E41"/>
<path d="M117.051 91.8763C117.098 91.6551 117.193 91.4468 117.33 91.2663C117.466 91.0858 117.64 90.9373 117.84 90.8315C118.04 90.7256 118.261 90.6648 118.487 90.6535C118.713 90.6422 118.939 90.6805 119.148 90.7658L121.635 88.2515L123.532 89.3902L119.97 92.8916C119.803 93.2342 119.517 93.5037 119.165 93.649C118.812 93.7944 118.419 93.8056 118.059 93.6805C117.7 93.5553 117.398 93.3025 117.212 92.97C117.027 92.6375 116.969 92.2484 117.051 91.8763Z" fill="#FFB7B7"/>
<path d="M119.143 89.848L124.213 84.2852L120.857 79.4954L121.202 77.1537L123.181 74.7099L123.219 74.7598C123.43 75.0327 128.386 81.4707 128.528 83.9079C128.671 86.3541 121.548 92.542 121.245 92.8041L121.202 92.8406L119.143 89.848Z" fill="#2F2E41"/>
<path d="M114.718 72.5224C116.709 72.5224 118.323 70.9088 118.323 68.9182C118.323 66.9277 116.709 65.3141 114.718 65.3141C112.728 65.3141 111.114 66.9277 111.114 68.9182C111.114 70.9088 112.728 72.5224 114.718 72.5224Z" fill="#FFB7B7"/>
<path d="M118.108 66.037L118.283 65.6854L117.404 65.2485C117.404 65.2485 116.434 63.6704 114.679 64.1139C112.924 64.5574 112.134 64.8228 112.134 64.8228L111.257 65.2641L111.698 65.702L110.908 65.9674L111.436 66.2295L110.822 66.5823L111.152 68.3908C111.152 68.3908 111.701 67.0191 112.756 67.5433C113.811 68.0675 115.741 67.2723 115.741 67.2723L117.417 70.517C117.417 70.517 117.763 69.3796 118.38 69.6829C118.38 69.6829 119.955 67.1739 118.108 66.037Z" fill="#2F2E41"/>
<path d="M82.8561 86.4421L28.048 101.557L10 36.1153L64.8081 21L82.8561 86.4421Z" fill="white"/>
<path d="M82.8561 86.4421L28.048 101.557L10 36.1153L64.8081 21L82.8561 86.4421ZM28.7483 100.324L81.6226 85.7419L64.1079 22.2336L11.2336 36.8155L28.7483 100.324Z" fill="#F1F1F1"/>
<path d="M52.8806 50.317L39.1419 54.1059C38.9481 54.1591 38.7411 54.1333 38.5663 54.0341C38.3915 53.9349 38.2632 53.7704 38.2096 53.5767L34.4206 39.838C34.3674 39.6442 34.3933 39.4372 34.4925 39.2624C34.5917 39.0876 34.7562 38.9593 34.9499 38.9057L48.6886 35.1167C48.8824 35.0635 49.0894 35.0894 49.2642 35.1886C49.4389 35.2878 49.5672 35.4523 49.6209 35.646L53.4098 49.3847C53.463 49.5785 53.4372 49.7855 53.338 49.9603C53.2388 50.135 53.0743 50.2633 52.8806 50.317ZM35.0305 39.198C34.9143 39.2302 34.8156 39.3072 34.756 39.412C34.6965 39.5169 34.681 39.6411 34.7129 39.7574L38.5019 53.4961C38.5341 53.6123 38.611 53.711 38.7159 53.7705C38.8208 53.8301 38.945 53.8456 39.0613 53.8136L52.7999 50.0247C52.9162 49.9925 53.0149 49.9155 53.0744 49.8107C53.1339 49.7058 53.1494 49.5816 53.1175 49.4653L49.3286 35.7266C49.2964 35.6104 49.2194 35.5117 49.1145 35.4522C49.0096 35.3926 48.8854 35.3771 48.7692 35.4091L35.0305 39.198Z" fill="#E5E5E5"/>
<path d="M49.3974 53.0861L35.6588 56.875C35.4843 56.9229 35.298 56.8997 35.1407 56.8104C34.9834 56.7211 34.868 56.573 34.8197 56.3987L31.0307 42.66C30.9828 42.4856 31.0061 42.2993 31.0954 42.142C31.1847 41.9847 31.3327 41.8692 31.507 41.8209L45.2457 38.032C45.4201 37.9841 45.6064 38.0074 45.7638 38.0967C45.9211 38.186 46.0365 38.334 46.0848 38.5083L49.8737 52.247C49.9216 52.4214 49.8984 52.6077 49.8091 52.765C49.7198 52.9224 49.5718 53.0378 49.3974 53.0861Z" fill="#03DAC5"/>
<path d="M65.3134 54.9617L26.9741 65.5352L27.3827 67.0167L65.722 56.4433L65.3134 54.9617Z" fill="#F1F1F1"/>
<path d="M66.3788 58.8245L28.0396 69.3979L28.4481 70.8795L66.7874 60.3061L66.3788 58.8245Z" fill="#F1F1F1"/>
<path d="M67.4443 62.6875L29.105 73.2609L29.5136 74.7425L67.8529 64.1691L67.4443 62.6875Z" fill="#F1F1F1"/>
<path d="M69.3188 69.4862L30.9795 80.0596L31.3881 81.5412L69.7274 70.9678L69.3188 69.4862Z" fill="#F1F1F1"/>
<path d="M70.3847 73.3491L32.0454 83.9225L32.454 85.4041L70.7933 74.8307L70.3847 73.3491Z" fill="#F1F1F1"/>
<path d="M71.4501 77.212L33.1108 87.7854L33.5194 89.267L71.8587 78.6935L71.4501 77.212Z" fill="#F1F1F1"/>
<path d="M100.401 101.339H43.5464V33.4536H100.401V101.339Z" fill="white"/>
<path d="M100.401 101.339H43.5464V33.4536H100.401V101.339ZM44.5494 100.336H99.3976V34.4566H44.5494V100.336Z" fill="#E5E5E5"/>
<path d="M90.0488 62.6366H57.543V64.1735H90.0488V62.6366Z" fill="#03DAC5"/>
<path d="M90.0488 66.6324H57.543V68.1693H90.0488V66.6324Z" fill="#03DAC5"/>
<path d="M90.0488 70.6284H57.543V72.1652H90.0488V70.6284Z" fill="#03DAC5"/>
<path d="M54.9014 64.6332C55.4554 64.6332 55.9044 64.1841 55.9044 63.6302C55.9044 63.0763 55.4554 62.6272 54.9014 62.6272C54.3475 62.6272 53.8984 63.0763 53.8984 63.6302C53.8984 64.1841 54.3475 64.6332 54.9014 64.6332Z" fill="#03DAC5"/>
<path d="M90.0488 45.4185H57.543V46.9553H90.0488V45.4185Z" fill="#E5E5E5"/>
<path d="M90.0488 49.4144H57.543V50.9512H90.0488V49.4144Z" fill="#E5E5E5"/>
<path d="M90.0488 53.4102H57.543V54.9471H90.0488V53.4102Z" fill="#E5E5E5"/>
<path d="M54.9014 47.2479C55.4554 47.2479 55.9044 46.7988 55.9044 46.2449C55.9044 45.6909 55.4554 45.2419 54.9014 45.2419C54.3475 45.2419 53.8984 45.6909 53.8984 46.2449C53.8984 46.7988 54.3475 47.2479 54.9014 47.2479Z" fill="#E5E5E5"/>
<path d="M90.0488 80.022H57.543V81.5588H90.0488V80.022Z" fill="#E5E5E5"/>
<path d="M90.0488 84.0178H57.543V85.5546H90.0488V84.0178Z" fill="#E5E5E5"/>
<path d="M90.0488 88.0137H57.543V89.5505H90.0488V88.0137Z" fill="#E5E5E5"/>
<path d="M54.9014 81.8513C55.4554 81.8513 55.9044 81.4023 55.9044 80.8483C55.9044 80.2944 55.4554 79.8453 54.9014 79.8453C54.3475 79.8453 53.8984 80.2944 53.8984 80.8483C53.8984 81.4023 54.3475 81.8513 54.9014 81.8513Z" fill="#E5E5E5"/>
<path d="M90.8745 107.184C97.2924 107.184 102.495 101.982 102.495 95.5639C102.495 89.146 97.2924 83.9432 90.8745 83.9432C84.4566 83.9432 79.2539 89.146 79.2539 95.5639C79.2539 101.982 84.4566 107.184 90.8745 107.184Z" fill="#03DAC5"/>
<path d="M94.0945 94.8225V92.599C94.0948 92.176 94.0118 91.7571 93.8501 91.3662C93.6885 90.9753 93.4514 90.6201 93.1524 90.3209C92.8534 90.0217 92.4983 89.7843 92.1076 89.6224C91.7168 89.4604 91.2979 89.3771 90.8749 89.3771C90.4519 89.3771 90.0331 89.4604 89.6423 89.6224C89.2516 89.7843 88.8965 90.0217 88.5975 90.3209C88.2985 90.6201 88.0614 90.9753 87.8998 91.3662C87.7381 91.7571 87.6551 92.176 87.6554 92.599V94.8225C87.225 94.8419 86.8187 95.0264 86.5209 95.3377C86.2231 95.6491 86.0569 96.0632 86.0566 96.494V101.748H95.6933V96.494C95.693 96.0632 95.5268 95.6491 95.229 95.3377C94.9312 95.0264 94.5249 94.8419 94.0945 94.8225ZM90.8749 90.513C91.428 90.5136 91.9582 90.7336 92.3492 91.1247C92.7403 91.5158 92.9602 92.046 92.9608 92.599V94.8186H88.7891V92.599C88.7897 92.046 89.0096 91.5158 89.4007 91.1247C89.7917 90.7336 90.3219 90.5136 90.8749 90.513Z" fill="white"/>
<path d="M91.7407 97.4172C91.7408 97.2679 91.7022 97.121 91.6288 96.991C91.5553 96.8609 91.4495 96.7521 91.3216 96.675C91.1937 96.5979 91.048 96.5552 90.8987 96.5511C90.7494 96.5469 90.6016 96.5814 90.4695 96.6512C90.3375 96.721 90.2258 96.8238 90.1452 96.9496C90.0646 97.0753 90.0179 97.2198 90.0096 97.3689C90.0014 97.518 90.0318 97.6667 90.0979 97.8006C90.1641 97.9345 90.2637 98.0491 90.3872 98.1331V100.016H91.3616V98.1331C91.4785 98.0537 91.5741 97.947 91.6401 97.8223C91.7062 97.6975 91.7407 97.5584 91.7407 97.4172Z" fill="#03DAC5"/>
<path d="M139.83 129.331H74.9997C74.9546 129.331 74.9113 129.313 74.8794 129.281C74.8475 129.249 74.8296 129.206 74.8296 129.161C74.8296 129.115 74.8475 129.072 74.8794 129.04C74.9113 129.008 74.9546 128.99 74.9997 128.99H139.83C139.875 128.99 139.918 129.008 139.95 129.04C139.982 129.072 140 129.115 140 129.161C140 129.206 139.982 129.249 139.95 129.281C139.918 129.313 139.875 129.331 139.83 129.331Z" fill="#CBCBCB"/>
</svg>
