<svg width="150" height="150" viewBox="0 0 150 150" fill="none" xmlns="http://www.w3.org/2000/svg">
<path d="M58.8652 128.912L121.186 107.913L58.8652 128.912ZM58.8652 128.912L58.8649 128.912C58.1514 129.151 57.3718 129.099 56.6971 128.766C56.0224 128.433 55.5079 127.847 55.2662 127.137L26.3985 41.9832L58.8652 128.912ZM26.5447 39.8233C26.211 40.4955 26.1585 41.2721 26.3984 41.9829L26.5447 39.8233ZM26.5447 39.8233C26.8783 39.151 27.4659 38.6379 28.1788 38.3968M26.5447 39.8233L28.1788 38.3968M28.1788 38.3968C28.1788 38.3967 28.1789 38.3967 28.179 38.3967M28.1788 38.3968L28.179 38.3967M28.179 38.3967L90.4995 17.3982L28.179 38.3967ZM92.6675 17.544C91.9928 17.2111 91.2132 17.1587 90.4998 17.3981L92.6675 17.544ZM92.6675 17.544C93.3422 17.8768 93.8567 18.4626 94.0984 19.1728M92.6675 17.544L94.0984 19.1728M94.0984 19.1728L94.0985 19.1731M94.0984 19.1728L94.0985 19.1731M94.0985 19.1731L122.966 104.327C123.206 105.038 123.154 105.815 122.82 106.487C122.486 107.159 121.899 107.672 121.186 107.913L94.0985 19.1731Z" fill="#CDF8F3" stroke="#03DAC5" stroke-width="0.5"/>
<path d="M119.675 106.578L59.2525 126.937C58.7281 127.113 58.155 127.074 57.6591 126.83C57.1631 126.585 56.7848 126.154 56.607 125.632L28.3807 42.3698C28.2042 41.847 28.2428 41.2757 28.4882 40.7813C28.7336 40.2868 29.1657 39.9096 29.6897 39.7324L90.1126 19.3733C90.637 19.1973 91.21 19.2358 91.7059 19.4805C92.2019 19.7251 92.5802 20.1559 92.758 20.6783L120.984 103.94C121.161 104.463 121.122 105.034 120.877 105.529C120.631 106.023 120.199 106.401 119.675 106.578Z" fill="#E6FBF9"/>
<path d="M104.485 132.33H38.7019C37.949 132.329 37.2272 132.031 36.695 131.5C36.1629 130.97 35.8637 130.251 35.8628 129.501V39.6145C35.8637 38.8646 36.1629 38.1454 36.695 37.6149C37.2272 37.0844 37.9489 36.7858 38.7018 36.7849H104.486C105.239 36.7858 105.96 37.0844 106.492 37.6149C107.025 38.1455 107.324 38.8647 107.325 39.6146V129.5C107.324 130.25 107.025 130.97 106.492 131.5C105.96 132.031 105.238 132.329 104.485 132.33Z" fill="#E6FBF9" stroke="#03DAC5" stroke-width="0.5"/>
<path d="M103.484 130.583H39.7033C39.1499 130.582 38.6194 130.362 38.2282 129.972C37.8369 129.582 37.6168 129.053 37.6162 128.502V40.6129C37.6168 40.0613 37.8369 39.5324 38.2282 39.1423C38.6194 38.7523 39.1499 38.5328 39.7033 38.5322H103.484C104.037 38.5328 104.568 38.7523 104.959 39.1423C105.35 39.5324 105.57 40.0613 105.571 40.6129V128.502C105.57 129.053 105.35 129.582 104.959 129.972C104.568 130.362 104.037 130.582 103.484 130.583Z" fill="white"/>
<path d="M89.8967 63.4634H47.7712C47.4163 63.4634 47.076 63.3229 46.825 63.0727C46.5741 62.8225 46.4331 62.4832 46.4331 62.1294C46.4331 61.7756 46.5741 61.4363 46.825 61.1861C47.076 60.936 47.4163 60.7954 47.7712 60.7954H89.8967C90.2515 60.7954 90.5919 60.936 90.8428 61.1861C91.0938 61.4363 91.2347 61.7756 91.2347 62.1294C91.2347 62.4832 91.0938 62.8225 90.8428 63.0727C90.5919 63.3229 90.2515 63.4634 89.8967 63.4634Z" fill="#CDF8F3"/>
<path d="M95.4162 67.9656H47.7712C47.5955 67.9656 47.4215 67.9311 47.2591 67.8641C47.0968 67.797 46.9493 67.6988 46.825 67.5749C46.7008 67.451 46.6022 67.304 46.535 67.1421C46.4677 66.9803 46.4331 66.8068 46.4331 66.6316C46.4331 66.4564 46.4677 66.283 46.535 66.1211C46.6022 65.9593 46.7008 65.8122 46.825 65.6883C46.9493 65.5645 47.0968 65.4662 47.2591 65.3992C47.4215 65.3321 47.5955 65.2976 47.7712 65.2976H95.4162C95.7711 65.2976 96.1114 65.4382 96.3624 65.6883C96.6133 65.9385 96.7543 66.2778 96.7543 66.6316C96.7543 66.9854 96.6133 67.3247 96.3624 67.5749C96.1114 67.8251 95.7711 67.9656 95.4162 67.9656Z" fill="#CDF8F3"/>
<path d="M89.8962 83.6402H47.7707C47.416 83.6398 47.0761 83.4991 46.8255 83.2489C46.5749 82.9988 46.4341 82.6597 46.4341 82.3062C46.4341 81.9526 46.5749 81.6135 46.8255 81.3634C47.0761 81.1133 47.416 80.9726 47.7707 80.9722H89.8962C90.251 80.9722 90.5914 81.1127 90.8423 81.3629C91.0933 81.6131 91.2342 81.9524 91.2342 82.3062C91.2342 82.66 91.0933 82.9993 90.8423 83.2494C90.5914 83.4996 90.251 83.6402 89.8962 83.6402Z" fill="#03DAC5"/>
<path d="M95.4157 88.1424H47.7707C47.416 88.142 47.0761 88.0013 46.8255 87.7511C46.5749 87.501 46.4341 87.1619 46.4341 86.8084C46.4341 86.4548 46.5749 86.1157 46.8255 85.8656C47.0761 85.6155 47.416 85.4748 47.7707 85.4744H95.4157C95.7706 85.4744 96.1109 85.6149 96.3619 85.8651C96.6128 86.1153 96.7538 86.4546 96.7538 86.8084C96.7538 87.1622 96.6128 87.5015 96.3619 87.7516C96.1109 88.0018 95.7706 88.1424 95.4157 88.1424Z" fill="#CDF8F3"/>
<path d="M89.8962 103.817H47.7707C47.416 103.817 47.0761 103.676 46.8255 103.426C46.5749 103.176 46.4341 102.836 46.4341 102.483C46.4341 102.129 46.5749 101.79 46.8255 101.54C47.0761 101.29 47.416 101.149 47.7707 101.149H89.8962C90.251 101.149 90.5914 101.289 90.8423 101.54C91.0933 101.79 91.2342 102.129 91.2342 102.483C91.2342 102.837 91.0933 103.176 90.8423 103.426C90.5914 103.676 90.251 103.817 89.8962 103.817Z" fill="#CDF8F3"/>
<path d="M95.4162 108.319H47.7712C47.4163 108.319 47.076 108.179 46.825 107.929C46.5741 107.678 46.4331 107.339 46.4331 106.985C46.4331 106.632 46.5741 106.292 46.825 106.042C47.076 105.792 47.4163 105.651 47.7712 105.651H95.4162C95.7711 105.651 96.1114 105.792 96.3624 106.042C96.6133 106.292 96.7543 106.632 96.7543 106.985C96.7543 107.339 96.6133 107.678 96.3624 107.929C96.1114 108.179 95.7711 108.319 95.4162 108.319Z" fill="#CDF8F3"/>
</svg>
