<svg width="400" height="400" viewBox="0 0 400 400" fill="none" xmlns="http://www.w3.org/2000/svg">
<path d="M347.36 289.719H75.1265C74.992 289.719 74.8629 289.665 74.7677 289.57C74.6725 289.475 74.619 289.346 74.619 289.211V101.507C74.619 101.373 74.6725 101.244 74.7677 101.149C74.8629 101.053 74.992 101 75.1265 101C75.2611 101 75.3902 101.053 75.4854 101.149C75.5806 101.244 75.634 101.373 75.634 101.507V288.704H347.36C347.494 288.704 347.623 288.757 347.719 288.853C347.814 288.948 347.867 289.077 347.867 289.211C347.867 289.346 347.814 289.475 347.719 289.57C347.623 289.665 347.494 289.719 347.36 289.719Z" fill="#D1D1D1"/>
<path d="M226.605 156.541H170.11V288.684H226.605V156.541Z" fill="white"/>
<path d="M226.595 156.541V288.684H170.111V156.541H226.595ZM226.595 155.526H170.111C169.842 155.526 169.583 155.633 169.393 155.823C169.203 156.013 169.096 156.272 169.096 156.541V288.684C169.096 288.953 169.203 289.211 169.393 289.401C169.583 289.592 169.842 289.699 170.111 289.699H226.595C226.865 289.699 227.123 289.592 227.313 289.401C227.504 289.211 227.61 288.953 227.61 288.684V156.541C227.61 156.272 227.504 156.013 227.313 155.823C227.123 155.633 226.865 155.526 226.595 155.526Z" fill="#484646"/>
<path d="M149.11 201.201H92.615V288.684H149.11V201.201Z" fill="white"/>
<path d="M149.11 201.201V288.684H92.6146V201.201H149.11ZM149.11 200.186H92.6146C92.3454 200.186 92.0872 200.293 91.8969 200.483C91.7065 200.673 91.5996 200.932 91.5996 201.201V288.684C91.5996 288.953 91.7065 289.211 91.8969 289.401C92.0872 289.592 92.3454 289.699 92.6146 289.699H149.11C149.379 289.699 149.637 289.592 149.827 289.401C150.018 289.211 150.125 288.953 150.125 288.684V201.201C150.125 200.932 150.018 200.673 149.827 200.483C149.637 200.293 149.379 200.186 149.11 200.186Z" fill="#484646"/>
<path d="M304.1 104.857H247.605V288.684H304.1V104.857Z" fill="white"/>
<path d="M304.091 104.857V288.684H247.606V104.857H304.091ZM304.091 103.842H247.606C247.337 103.842 247.078 103.949 246.888 104.139C246.698 104.33 246.591 104.588 246.591 104.857V288.684C246.591 288.953 246.698 289.211 246.888 289.401C247.078 289.592 247.337 289.699 247.606 289.699H304.091C304.36 289.699 304.618 289.592 304.808 289.401C304.999 289.211 305.106 288.953 305.106 288.684V104.857C305.106 104.588 304.999 104.33 304.808 104.139C304.618 103.949 304.36 103.842 304.091 103.842Z" fill="#484646"/>
<path d="M281.923 131.623L270.261 136.393L284.745 143.102L281.923 131.623Z" fill="#FF931E"/>
<path d="M207.553 271.662C209.59 269.84 211.894 268.341 214.384 267.216C214.587 274.514 211.623 281.234 208.883 285.832H199.981" fill="white"/>
<path d="M208.884 286.339H199.982C199.848 286.339 199.718 286.286 199.623 286.19C199.528 286.095 199.475 285.966 199.475 285.831C199.475 285.697 199.528 285.568 199.623 285.473C199.718 285.377 199.848 285.324 199.982 285.324H208.569C211.025 281.132 213.837 274.849 213.857 267.998C211.687 269.081 209.67 270.446 207.859 272.058C207.764 272.151 207.636 272.203 207.503 272.203C207.37 272.203 207.243 272.151 207.148 272.058C207.1 272.011 207.063 271.955 207.037 271.893C207.011 271.831 206.998 271.765 206.998 271.698C206.998 271.631 207.011 271.564 207.037 271.502C207.063 271.441 207.1 271.384 207.148 271.337C209.224 269.471 211.576 267.937 214.121 266.79C214.193 266.753 214.273 266.733 214.355 266.733C214.436 266.733 214.516 266.753 214.588 266.79C214.656 266.835 214.713 266.895 214.753 266.965C214.794 267.036 214.817 267.115 214.821 267.196C215.035 274.727 211.908 281.629 209.249 286.085C209.213 286.154 209.161 286.212 209.097 286.256C209.033 286.3 208.96 286.329 208.884 286.339Z" fill="#484646"/>
<path d="M194.785 273.631C196.978 262.212 205.95 255.026 205.95 255.026C207.618 260.403 208.171 266.064 207.574 271.662C207.124 276.502 206.102 281.272 204.529 285.872H194.958" fill="white"/>
<path d="M204.509 286.339H194.937C194.803 286.339 194.674 286.286 194.579 286.19C194.483 286.095 194.43 285.966 194.43 285.831C194.43 285.697 194.483 285.568 194.579 285.473C194.674 285.377 194.803 285.324 194.937 285.324H204.154C205.654 280.884 206.639 276.286 207.087 271.621C207.646 266.348 207.181 261.016 205.717 255.919C203.687 257.716 197.14 264.283 195.333 273.723C195.306 273.855 195.229 273.972 195.117 274.048C195.005 274.123 194.868 274.152 194.734 274.129C194.602 274.102 194.485 274.024 194.409 273.912C194.334 273.8 194.305 273.663 194.328 273.53C196.531 262.06 205.565 254.712 205.656 254.63C205.72 254.581 205.794 254.546 205.873 254.53C205.953 254.515 206.035 254.518 206.113 254.539C206.192 254.563 206.263 254.607 206.322 254.665C206.38 254.723 206.423 254.795 206.448 254.874C208.146 260.314 208.709 266.046 208.102 271.713C207.634 276.579 206.591 281.373 204.996 285.994C204.961 286.095 204.895 286.182 204.807 286.244C204.72 286.306 204.616 286.339 204.509 286.339Z" fill="#484646"/>
<path d="M190.055 285.831H198.54C198.621 283.324 198.053 279.518 195.333 274.585C195.14 274.25 194.967 273.936 194.785 273.631C189.872 265.308 185.375 265.4 185.375 265.4C183.477 274.159 187.487 281.964 190.055 285.831Z" fill="white"/>
<path d="M198.54 286.339H190.055C189.973 286.339 189.891 286.319 189.819 286.28C189.746 286.241 189.684 286.184 189.639 286.116C187.03 282.177 182.94 274.24 184.879 265.298C184.903 265.186 184.964 265.085 185.053 265.012C185.141 264.938 185.251 264.896 185.366 264.892C185.559 264.892 190.207 264.892 195.221 273.367L195.769 274.382C198.622 279.549 199.129 283.517 199.048 285.903C199.031 286.024 198.97 286.136 198.876 286.216C198.783 286.297 198.664 286.34 198.54 286.339ZM190.329 285.324H198.043C197.887 281.616 196.802 278.007 194.886 274.829L194.348 273.885C190.512 267.389 186.949 266.181 185.782 265.958C184.209 274.189 187.852 281.518 190.299 285.324H190.329Z" fill="#484646"/>
<path d="M191.598 299.28H208.244L210.913 285.831H188.918L191.598 299.28Z" fill="#484646"/>
<path d="M84.6574 289.648H51.5075C51.3729 289.648 51.2438 289.594 51.1486 289.499C51.0535 289.404 51 289.275 51 289.14C51 289.006 51.0535 288.877 51.1486 288.782C51.2438 288.686 51.3729 288.633 51.5075 288.633H84.6574C84.792 288.633 84.9211 288.686 85.0163 288.782C85.1114 288.877 85.1649 289.006 85.1649 289.14C85.1649 289.275 85.1114 289.404 85.0163 289.499C84.9211 289.594 84.792 289.648 84.6574 289.648Z" fill="#D1D1D1"/>
<path d="M78.4757 286.481C78.1802 286.484 77.8906 286.399 77.6434 286.238C77.3063 286.017 77.0701 285.673 76.9864 285.279C76.9027 284.885 76.9783 284.475 77.1968 284.136L121.999 214.69C122.125 214.495 122.294 214.332 122.492 214.212C122.691 214.093 122.915 214.02 123.146 214C123.377 213.978 123.609 214.009 123.826 214.092C124.043 214.175 124.237 214.307 124.394 214.477L159.666 252.671L200.519 177.704C200.638 177.483 200.81 177.296 201.019 177.158C201.228 177.02 201.468 176.935 201.717 176.912C201.966 176.89 202.216 176.93 202.446 177.027C202.676 177.125 202.879 177.277 203.036 177.47L239.069 221.775L283.13 149.842C283.342 149.499 283.681 149.254 284.073 149.161C284.465 149.068 284.878 149.134 285.221 149.344C285.393 149.447 285.542 149.584 285.66 149.745C285.779 149.907 285.864 150.09 285.91 150.285C285.956 150.48 285.963 150.682 285.93 150.88C285.897 151.077 285.825 151.266 285.718 151.435L240.541 225.266C240.414 225.474 240.239 225.648 240.03 225.773C239.822 225.899 239.586 225.972 239.343 225.987C239.101 226.004 238.858 225.963 238.635 225.865C238.412 225.768 238.216 225.618 238.064 225.429L202.103 181.226L161.32 256.062C161.204 256.273 161.04 256.455 160.841 256.591C160.641 256.727 160.412 256.813 160.173 256.843C159.933 256.869 159.69 256.84 159.463 256.757C159.236 256.675 159.031 256.541 158.864 256.366L123.491 218.04L79.7546 285.842C79.6094 286.044 79.4171 286.208 79.1943 286.32C78.9714 286.431 78.7248 286.486 78.4757 286.481Z" fill="#FF931E"/>
<path d="M326.212 265.109L335.213 260.507L296.543 184.874L287.542 189.476L326.212 265.109Z" fill="#484646"/>
<path d="M325.882 265.268L287.211 189.63C287.168 189.545 287.159 189.446 287.188 189.355C287.216 189.264 287.279 189.188 287.363 189.143L296.366 184.534C296.409 184.512 296.457 184.498 296.505 184.494C296.554 184.49 296.603 184.496 296.649 184.511C296.695 184.526 296.738 184.55 296.775 184.582C296.812 184.614 296.842 184.653 296.863 184.697L335.525 260.335C335.549 260.376 335.564 260.422 335.57 260.47C335.575 260.518 335.571 260.566 335.556 260.612C335.542 260.658 335.518 260.7 335.487 260.736C335.455 260.772 335.416 260.802 335.373 260.822L326.369 265.43C326.281 265.465 326.184 265.465 326.095 265.43C326.051 265.418 326.009 265.398 325.972 265.37C325.936 265.342 325.905 265.307 325.882 265.268ZM296.376 185.357L288.023 189.62L326.359 264.608L334.713 260.345L296.376 185.357Z" fill="#484646"/>
<path d="M338.145 281.322L341.344 279.687C345.127 277.752 346.626 273.117 344.692 269.334L320.036 221.111C318.102 217.328 313.467 215.829 309.683 217.763L306.484 219.399C302.701 221.333 301.202 225.968 303.136 229.752L327.792 277.974C329.726 281.758 334.361 283.257 338.145 281.322Z" fill="#484646"/>
<path d="M276.452 216.558C264.264 216.56 252.453 212.335 243.03 204.604C233.608 196.874 227.158 186.115 224.779 174.162C222.4 162.208 224.239 149.8 229.984 139.051C235.728 128.301 245.022 119.877 256.282 115.212C267.542 110.547 280.071 109.931 291.734 113.469C303.397 117.006 313.473 124.478 320.244 134.612C327.016 144.746 330.064 156.914 328.869 169.043C327.674 181.172 322.311 192.512 313.692 201.13C308.813 206.036 303.01 209.926 296.617 212.574C290.225 215.222 283.371 216.576 276.452 216.558ZM276.452 112.226C266.233 112.225 256.244 115.254 247.747 120.93C239.25 126.606 232.627 134.674 228.716 144.114C224.805 153.555 223.781 163.943 225.774 173.965C227.767 183.987 232.687 193.193 239.912 200.419C245.919 206.422 253.314 210.85 261.441 213.313C269.568 215.776 278.178 216.197 286.506 214.538C294.835 212.88 302.626 209.194 309.191 203.807C315.755 198.419 320.89 191.496 324.14 183.65C327.391 175.805 328.657 167.279 327.826 158.827C326.996 150.376 324.094 142.26 319.379 135.197C314.663 128.134 308.279 122.343 300.791 118.337C293.304 114.33 284.944 112.231 276.452 112.226Z" fill="#484646"/>
<path d="M239.313 201.028C230.703 192.433 225.34 181.118 224.138 169.011C222.937 156.904 225.971 144.755 232.724 134.635C239.477 124.515 249.53 117.05 261.171 113.513C272.811 109.975 285.318 110.584 296.56 115.236C307.802 119.888 317.083 128.294 322.821 139.022C328.558 149.75 330.398 162.136 328.026 174.069C325.654 186.002 319.217 196.743 309.813 204.461C300.408 212.179 288.618 216.397 276.452 216.395C262.526 216.393 249.169 210.866 239.313 201.028Z" fill="white"/>
<path d="M276.452 216.893C264.187 216.884 252.305 212.624 242.83 204.837C233.354 197.05 226.872 186.219 224.487 174.189C222.102 162.158 223.961 149.673 229.749 138.861C235.537 128.048 244.895 119.576 256.229 114.889C267.563 110.203 280.171 109.59 291.905 113.157C303.64 116.724 313.774 124.249 320.583 134.45C327.391 144.651 330.452 156.897 329.243 169.102C328.035 181.307 322.633 192.715 313.956 201.383C309.042 206.322 303.197 210.236 296.759 212.899C290.321 215.561 283.419 216.919 276.452 216.893ZM276.452 111.891C264.423 111.898 252.768 116.075 243.473 123.711C234.179 131.347 227.819 141.97 225.478 153.769C223.137 165.568 224.959 177.814 230.634 188.42C236.309 199.027 245.485 207.337 256.6 211.937C267.716 216.536 280.081 217.14 291.592 213.644C303.102 210.149 313.044 202.771 319.724 192.767C326.405 182.764 329.411 170.754 328.229 158.783C327.048 146.812 321.753 135.621 313.246 127.116C308.418 122.279 302.682 118.445 296.368 115.832C290.054 113.219 283.285 111.88 276.452 111.891Z" fill="#484646"/>
<path d="M304.74 135.612C301.026 131.896 296.616 128.948 291.763 126.937C286.909 124.926 281.707 123.89 276.454 123.889C265.844 123.887 255.668 128.1 248.164 135.601C240.66 143.102 236.443 153.277 236.441 163.887C236.439 174.497 240.652 184.674 248.154 192.177L248.813 192.817C252.415 196.282 256.646 199.028 261.278 200.906C269.827 204.416 279.327 204.856 288.164 202.152C297.001 199.448 304.629 193.767 309.75 186.075C314.872 178.383 317.172 169.154 316.258 159.958C315.345 150.762 311.275 142.166 304.74 135.632V135.612Z" fill="white"/>
<path d="M276.452 123.909C282.352 123.919 288.176 125.234 293.508 127.761C298.839 130.288 303.545 133.964 307.288 138.525C311.031 143.085 313.719 148.418 315.158 154.14C316.596 159.862 316.751 165.831 315.61 171.62C314.469 177.409 312.061 182.873 308.559 187.621C305.057 192.369 300.548 196.284 295.354 199.083C290.16 201.883 284.412 203.498 278.52 203.813C272.628 204.128 266.74 203.136 261.277 200.906C256.65 199.017 252.427 196.261 248.833 192.786L248.174 192.147C242.581 186.554 238.772 179.428 237.229 171.671C235.686 163.913 236.478 155.873 239.505 148.565C242.532 141.258 247.657 135.012 254.234 130.618C260.81 126.224 268.542 123.878 276.452 123.878M276.452 122.863C268.345 122.866 260.421 125.272 253.68 129.776C246.94 134.281 241.687 140.683 238.583 148.172C235.48 155.662 234.666 163.903 236.245 171.854C237.824 179.806 241.724 187.111 247.453 192.847L248.143 193.507C251.827 197.051 256.154 199.859 260.892 201.779C266.495 204.081 272.538 205.113 278.588 204.8C284.638 204.487 290.543 202.838 295.878 199.97C301.214 197.102 305.848 193.088 309.447 188.215C313.046 183.342 315.52 177.733 316.692 171.789C317.864 165.846 317.704 159.717 316.224 153.843C314.744 147.969 311.981 142.496 308.133 137.818C304.285 133.139 299.448 129.371 293.97 126.786C288.492 124.2 282.509 122.86 276.452 122.863Z" fill="#484646"/>
<path d="M294.225 141.316L292.327 185.215C292.313 185.552 292.211 185.879 292.033 186.165C291.854 186.452 291.604 186.686 291.307 186.847C291.011 187.008 290.677 187.088 290.34 187.082C290.003 187.075 289.673 186.981 289.383 186.808L276.493 179.114L261.268 200.886C256.646 199.001 252.426 196.252 248.834 192.786L263.734 171.471L249.971 163.351C249.67 163.172 249.423 162.915 249.255 162.607C249.088 162.299 249.007 161.952 249.021 161.602C249.034 161.252 249.142 160.912 249.332 160.618C249.523 160.324 249.789 160.086 250.103 159.931L291.423 139.529C291.723 139.383 292.055 139.317 292.388 139.336C292.721 139.355 293.043 139.459 293.324 139.638C293.605 139.818 293.836 140.066 293.993 140.36C294.151 140.653 294.231 140.983 294.225 141.316Z" fill="#FF931E"/>
<path d="M202.854 185.357C206.873 185.357 210.131 182.098 210.131 178.079C210.131 174.06 206.873 170.802 202.854 170.802C198.834 170.802 195.576 174.06 195.576 178.079C195.576 182.098 198.834 185.357 202.854 185.357Z" fill="#FF931E"/>
<path d="M124.283 222.414C128.303 222.414 131.561 219.156 131.561 215.137C131.561 211.117 128.303 207.859 124.283 207.859C120.264 207.859 117.006 211.117 117.006 215.137C117.006 219.156 120.264 222.414 124.283 222.414Z" fill="#FF931E"/>
<path d="M129.479 167.746H96.2585C96.1247 167.744 95.9971 167.689 95.9025 167.595C95.8079 167.5 95.7536 167.373 95.751 167.239C95.751 167.104 95.8044 166.975 95.8996 166.88C95.9948 166.785 96.1239 166.731 96.2585 166.731H129.479C129.614 166.731 129.743 166.785 129.838 166.88C129.933 166.975 129.987 167.104 129.987 167.239C129.984 167.373 129.93 167.5 129.835 167.595C129.741 167.689 129.613 167.744 129.479 167.746Z" fill="#D1D1D1"/>
<path d="M149.11 157.048H96.2585C96.1247 157.046 95.9971 156.991 95.9025 156.897C95.8079 156.802 95.7536 156.675 95.751 156.541C95.751 156.406 95.8044 156.277 95.8996 156.182C95.9948 156.087 96.1239 156.033 96.2585 156.033H149.11C149.244 156.033 149.373 156.087 149.468 156.182C149.564 156.277 149.617 156.406 149.617 156.541C149.614 156.675 149.56 156.802 149.466 156.897C149.371 156.991 149.243 157.046 149.11 157.048Z" fill="#D1D1D1"/>
<path d="M149.11 146.35H96.2585C96.1239 146.35 95.9948 146.297 95.8996 146.202C95.8044 146.106 95.751 145.977 95.751 145.843C95.751 145.708 95.8044 145.579 95.8996 145.484C95.9948 145.389 96.1239 145.335 96.2585 145.335H149.11C149.244 145.335 149.373 145.389 149.468 145.484C149.564 145.579 149.617 145.708 149.617 145.843C149.617 145.977 149.564 146.106 149.468 146.202C149.373 146.297 149.244 146.35 149.11 146.35Z" fill="#D1D1D1"/>
<path d="M149.11 135.652H96.2585C96.1239 135.652 95.9948 135.599 95.8996 135.503C95.8044 135.408 95.751 135.279 95.751 135.145C95.751 135.01 95.8044 134.881 95.8996 134.786C95.9948 134.691 96.1239 134.637 96.2585 134.637H149.11C149.244 134.637 149.373 134.691 149.468 134.786C149.564 134.881 149.617 135.01 149.617 135.145C149.617 135.279 149.564 135.408 149.468 135.503C149.373 135.599 149.244 135.652 149.11 135.652Z" fill="#D1D1D1"/>
<path d="M149.11 124.954H96.2585C96.1239 124.954 95.9948 124.9 95.8996 124.805C95.8044 124.71 95.751 124.581 95.751 124.446C95.7536 124.313 95.8079 124.185 95.9025 124.09C95.9971 123.996 96.1247 123.942 96.2585 123.939H149.11C149.243 123.942 149.371 123.996 149.466 124.09C149.56 124.185 149.614 124.313 149.617 124.446C149.617 124.581 149.564 124.71 149.468 124.805C149.373 124.9 149.244 124.954 149.11 124.954Z" fill="#D1D1D1"/>
</svg>
