<svg width="150" height="150" viewBox="0 0 150 150" fill="none" xmlns="http://www.w3.org/2000/svg">
<path d="M41.8897 81.1419C42.3338 82.4513 42.0156 83.741 41.1791 84.0224C40.3426 84.3039 39.3047 83.4705 38.8606 82.1606C38.676 81.6397 38.6193 81.0824 38.6952 80.5353L36.8838 74.9635L39.5265 74.1724L41.0316 79.7492C41.4252 80.1385 41.7194 80.616 41.8897 81.1419Z" fill="#FFB6B6"/>
<path d="M42.9993 49.5845C42.9993 49.5845 39.009 49.7573 38.8355 51.8314C38.662 53.9054 33.7056 66.8418 33.7056 66.8418L37.6031 78.7062L40.6345 76.7647L38.9023 67.4889L44.7486 58.6446L42.9993 49.5845Z" fill="#03DAC5"/>
<path d="M130.81 38.4394C130.81 30.323 123.924 25.8581 116.058 23.7434C105.974 21.0321 98.5882 26.5185 101.307 38.4394C101.923 41.1411 103.397 44.2966 105.221 46.9958H119.697C124.532 43.8596 130.81 44.7392 130.81 38.4394Z" fill="#03DAC5"/>
<path d="M33.0435 133.881L35.155 134.196L37.532 124.866L34.416 124.4L33.0435 133.881Z" fill="#FFB6B6"/>
<path d="M39.7539 139.193C39.7089 139.549 39.4186 139.807 39.1054 139.767L34.9018 139.241C34.9018 139.241 34.6972 137.532 33.1006 136.608L32.6851 138.963L30.5166 138.691L31.2603 134.914C31.2603 134.914 30.9376 132.803 32.2738 131.912C33.6101 131.021 32.616 131.044 32.616 131.044L33.3876 128.745L36.616 129.539L36.1727 133.244L37.2991 137.118L39.4867 138.558C39.6814 138.686 39.7864 138.936 39.7539 139.193Z" fill="#2F2E41"/>
<path d="M58.6831 134.451L60.8176 134.501L62.0074 124.948L58.8574 124.874L58.6831 134.451Z" fill="#FFB6B6"/>
<path d="M66.0063 138.888C66.0063 139.247 65.7504 139.538 65.4348 139.538H61.198C61.198 139.538 60.7811 137.868 59.0812 137.15L58.9639 139.538H56.7783L57.0431 135.698C57.0431 135.698 56.4585 133.644 57.6727 132.593C58.8869 131.543 57.9034 131.689 57.9034 131.689L58.3811 129.313L61.6837 129.7L61.708 133.43L63.3108 137.134L65.6616 138.291C65.8708 138.394 66.0063 138.628 66.0063 138.888Z" fill="#2F2E41"/>
<path d="M42.7269 71.4805L38.6137 85.0207L39.3529 105.494L33.4214 126.379H38.1309L47.9437 105.775L50.5956 87.5149L57.9278 127.123H62.4845L61.4217 85.6089L58.1066 71.1241L42.7269 71.4805Z" fill="#2F2E41"/>
<path d="M53.2782 44.5782L47.3767 44.2219L45.7672 47.4288L39.8657 50.6357L44.1577 62.038L40.6349 77.8432C40.6349 77.8432 44.2592 74.487 48.43 78.7061C54.6066 84.9542 60.9888 81.9418 60.9888 81.9418L57.3077 65.3317L58.6069 51.5258C58.7738 50.4367 60.3024 49.0797 59.2565 48.7215L54.8877 46.8943L53.2782 44.5782Z" fill="#03DAC5"/>
<path d="M51.9752 46.6051H44.9168C44.9271 46.1271 44.8567 45.6528 44.7115 45.2228C44.7074 45.6999 44.6346 46.1706 44.4977 46.6051H44.1772C43.6868 46.6043 43.2894 46.0316 43.2889 45.3249C41.6302 43.4897 41.8477 41.238 43.2889 38.7148C43.2891 35.4784 45.2092 30.6268 47.2957 32.657C47.363 32.6519 48.4206 31.9768 48.488 31.9768C50.3235 31.979 50.9547 34.366 51.509 36.8878C52.1406 36.4683 52.5758 38.2192 52.8906 41.3009C52.9825 42.2002 53.0641 43.2128 53.1374 44.318C53.3397 45.2452 52.9822 46.2333 52.3388 46.5249C52.221 46.5783 52.0982 46.6056 51.9748 46.6059L51.9752 46.6051Z" fill="#2F2E41"/>
<path d="M50.5325 43.7649C53.3971 43.7649 55.7193 41.4514 55.7193 38.5976C55.7193 35.7438 53.3971 33.4303 50.5325 33.4303C47.6679 33.4303 45.3457 35.7438 45.3457 38.5976C45.3457 41.4514 47.6679 43.7649 50.5325 43.7649Z" fill="#FFB6B6"/>
<path d="M51.0281 46.7801C50.5421 47.4254 49.6922 47.6822 48.9283 47.4145L46.6184 46.605C46.4022 46.605 46.2183 46.4789 46.2083 46.3154L46.2071 46.2974C46.1839 45.9566 45.5523 45.8993 45.4056 46.2219C45.3466 46.3517 45.2795 46.4796 45.2042 46.605H44.7856V36.5501C44.7856 34.8254 46.6327 33.4274 48.9111 33.4274C50.8564 33.4274 52.5374 34.456 52.945 35.8957C52.945 35.8957 55.8368 38.5805 54.1325 40.09C52.4281 41.5994 54.9076 42.828 54.9076 42.828C55.4001 44.5673 53.8347 47.3943 51.6184 47.9701C51.3577 48.0379 51.3045 46.7801 51.0281 46.7801Z" fill="#2F2E41"/>
<path d="M56.995 37.8301C56.7824 38.131 56.2266 38.9199 54.4929 38.7985C54.0514 38.7669 52.483 38.3369 51.3416 38.358C50.5851 38.3712 50.1194 38.3659 49.1879 38.358C48.0868 38.3474 47.7853 38.3263 47.5726 38.094C47.1607 37.6427 47.4999 36.8403 47.3034 36.7743C47.1392 36.7188 46.7138 37.2151 46.4958 37.8301C46.0381 39.1208 47.6803 40.9183 47.8418 42.5813C48.0141 44.3735 46.3181 40.9395 46.4958 42.5813C46.695 44.4289 47.4084 44.289 47.4003 44.9568C47.3976 45.0571 47.368 45.1442 47.3034 45.2208C47.2469 45.2894 47.1903 45.3158 46.2265 45.4847C45.0743 45.688 44.4955 45.7883 44.3421 45.7487C43.9463 45.6484 43.5452 45.0914 43.2652 44.6929C42.8022 44.0409 43.1306 44.6981 43.2652 43.901C43.3944 43.1303 43.7983 43.03 43.8036 42.3173C43.809 41.4198 43.171 41.148 42.7268 40.2057C41.9057 38.4636 42.7079 36.447 42.996 35.7185C43.1343 35.3691 43.3853 34.9269 43.8251 34.1964C44.1781 33.6099 44.6467 33.0932 45.2182 32.7061C46.0747 32.1259 47.0695 31.7284 48.1451 31.5708C48.7343 31.4845 49.335 31.5299 49.9142 31.6663L51.4146 32.0198C52.0453 32.1683 52.6398 32.4376 53.164 32.8121C53.6526 32.8137 54.0763 33.1234 54.2439 33.5734C54.2614 33.6205 54.2773 33.6479 54.2905 33.6439C56.995 32.815 56.9932 35.2701 56.9635 36.8037C56.9605 36.9607 56.9663 37.0996 56.987 37.2124V37.2204C57.0408 37.5239 57.0543 37.7456 56.995 37.8301Z" fill="#2F2E41"/>
<path d="M6 139.743C6 139.886 6.11477 140 6.25768 140H84.4879C84.6308 140 84.7456 139.886 84.7456 139.743C84.7456 139.601 84.6308 139.487 84.4879 139.487H6.25768C6.11477 139.487 6 139.601 6 139.743Z" fill="#CCCCCC"/>
<path d="M123.349 16.7956V39.6615C123.349 41.6836 121.698 43.3287 119.668 43.3287H96.7162C94.6864 43.3287 93.0352 41.6836 93.0352 39.6615V16.7956C93.0352 14.7735 94.6864 13.1284 96.7162 13.1284H119.668C121.698 13.1284 123.349 14.7735 123.349 16.7956ZM119.668 42.8972C121.462 42.8972 122.916 41.4486 122.916 39.6615V28.1334C122.916 20.0847 116.367 13.5599 108.288 13.5599H96.7162C94.9224 13.5599 93.4682 15.0085 93.4682 16.7956V39.6615C93.4682 41.4486 94.9224 42.8972 96.7162 42.8972H119.668Z" fill="#3F3D56"/>
<path d="M105.473 61.0155H98.0634C97.8766 61.0155 97.7246 60.864 97.7246 60.6779C97.7246 60.4918 97.8766 60.3405 98.0634 60.3405H105.473C105.66 60.3405 105.812 60.4918 105.812 60.6779C105.812 60.864 105.66 61.0155 105.473 61.0155Z" fill="#3F3D56"/>
<path d="M139.685 10.675H132.275C132.088 10.675 131.936 10.5236 131.936 10.3375C131.936 10.1514 132.088 10 132.275 10H139.685C139.871 10 140.023 10.1514 140.023 10.3375C140.023 10.5236 139.871 10.675 139.685 10.675Z" fill="#3F3D56"/>
<path d="M139.685 17.8719H132.275C132.088 17.8719 131.936 17.7205 131.936 17.5344C131.936 17.3483 132.088 17.1969 132.275 17.1969H139.685C139.871 17.1969 140.023 17.3483 140.023 17.5344C140.023 17.7205 139.871 17.8719 139.685 17.8719Z" fill="#3F3D56"/>
<path d="M143.661 14.2758H128.299C128.112 14.2758 127.96 14.1244 127.96 13.9383C127.96 13.7522 128.112 13.6008 128.299 13.6008H143.661C143.848 13.6008 144 13.7522 144 13.9383C144 14.1244 143.848 14.2758 143.661 14.2758Z" fill="#3F3D56"/>
<path d="M128.326 67.0576H96.2867C94.3745 67.0576 92.8188 65.5077 92.8188 63.6027V51.9608C92.8188 50.0558 94.3745 48.506 96.2867 48.506H128.326C130.239 48.506 131.794 50.0558 131.794 51.9608V63.6027C131.794 65.5077 130.239 67.0576 128.326 67.0576ZM96.2867 48.9374C94.6134 48.9374 93.2519 50.2936 93.2519 51.9608V63.6027C93.2519 65.2699 94.6134 66.6261 96.2867 66.6261H128.326C130 66.6261 131.361 65.2699 131.361 63.6027V51.9608C131.361 50.2936 130 48.9374 128.326 48.9374H96.2867Z" fill="#3F3D56"/>
<path d="M140.628 46.9959H136.761C130.202 46.9959 124.865 41.6797 124.865 35.1452V31.2928C124.865 29.96 125.954 28.8757 127.291 28.8757H140.628C141.965 28.8757 143.054 29.96 143.054 31.2928V44.5788C143.054 45.9116 141.965 46.9959 140.628 46.9959ZM127.291 29.3072C126.191 29.3072 125.298 30.1961 125.298 31.2927V35.1452C125.298 41.4519 130.43 46.5645 136.761 46.5645H140.628C141.728 46.5645 142.621 45.6755 142.621 44.5789V36.1167C142.621 32.3559 139.561 29.3072 135.786 29.3072H127.291Z" fill="#3F3D56"/>
<path d="M61.5249 82.5004C61.6253 83.8789 62.4207 84.9447 63.3013 84.8809C64.1819 84.8171 64.8141 83.6479 64.7135 82.2689C64.6808 81.7175 64.5161 81.1819 64.2331 80.7069L63.7335 74.8713L60.9897 75.1633L61.7736 80.8851C61.5624 81.396 61.4771 81.9499 61.5249 82.5004Z" fill="#FFB6B6"/>
<path d="M57.3247 48.506C57.3247 48.506 61.315 48.6788 61.4885 50.7529C61.662 52.8269 63.5704 66.1355 63.5704 66.1355L64.4378 79.444L61.315 79.9625L57.5242 64.2342L57.3247 48.506Z" fill="#03DAC5"/>
<path d="M115.842 53.7825C116.666 52.2187 117.71 51.0904 118.86 50.2316H105.302C108.791 55.1975 113.419 58.3846 115.842 53.7825Z" fill="#03DAC5"/>
<path d="M24.7539 135.856C24.3083 135.884 24.062 135.319 24.3991 134.99L24.4327 134.854C24.4283 134.843 24.4239 134.832 24.4194 134.822C23.9677 133.723 23.159 134.76 21.9935 134.834C20.2795 134.942 20.3051 136.265 20.9691 137.811C21.1493 138.231 19.6192 134.844 19.6192 132.57C19.6192 131.998 19.6498 131.427 19.7125 130.857C19.7641 130.391 19.8351 129.928 19.9271 129.469C20.4244 126.987 21.5012 124.623 23.0545 122.649C23.8011 122.233 24.4238 121.582 24.8 120.802C24.9351 120.52 26.096 120.283 26.1462 119.974C26.0612 119.986 24.7707 118.6 24.8348 118.519C24.7164 118.336 24.5044 118.245 24.3751 118.066C23.7318 117.176 22.8456 117.331 22.383 118.54C21.3947 119.049 21.3851 119.893 21.9916 120.705C22.3774 121.221 22.4304 121.92 22.7689 122.473C22.734 122.519 22.6978 122.563 22.663 122.608C22.6496 122.626 22.6363 122.643 22.623 122.661C22.0766 123.382 20.9855 123.197 20.6812 122.34C20.6591 122.278 20.4707 125.664 20.6124 122.159C20.7542 118.654 19.5185 120.438 18.8929 119.63C18.1457 118.664 16.6258 119.103 16.4941 120.326C16.4928 120.338 16.4916 120.349 16.4904 120.361C16.5829 120.414 16.6735 120.471 16.7621 120.531C17.2666 120.871 17.0921 121.669 16.4942 121.763L16.4806 121.765C16.5141 122.105 16.5712 122.442 16.6548 122.773C15.8566 125.922 17.5792 127.07 20.0395 127.122L20.1677 127.308C19.9347 127.992 19.7473 128.692 19.6067 129.402C19.4743 130.06 19.3824 130.725 19.3308 131.393L19.3287 131.421C19.286 131.99 18.5813 132.231 18.2271 131.791C18.1369 131.679 18.0447 131.58 17.9517 131.502C16.885 130.608 15.378 130.279 14.2273 129.561C13.6733 129.215 12.9635 129.662 13.0602 130.317L13.0649 130.348C13.2362 130.419 13.4034 130.502 13.565 130.594C13.6576 130.647 13.7483 130.704 13.8369 130.764C14.3415 131.104 14.1668 131.903 13.5688 131.996L13.5552 131.998C13.5455 132 13.5371 132.001 13.5274 132.003L13.5362 132.024C13.921 132.947 14.8405 133.545 15.8225 133.491C16.9784 133.426 18.4141 134.412 19.6805 136.156L19.6819 136.156C19.9326 137.27 20.299 138.359 20.7699 139.396H24.6565C24.6704 139.352 24.6829 139.307 24.6955 139.262C24.3361 139.285 23.9739 139.264 23.62 139.197C23.9084 138.836 24.1968 138.472 24.4851 138.111C24.4921 138.104 24.4977 138.097 24.5032 138.09C24.6495 137.905 24.7972 137.722 24.9434 137.537L24.9435 137.537C24.9527 136.97 24.8859 136.404 24.7539 135.856Z" fill="#F2F2F2"/>
</svg>
