<svg width="400" height="400" viewBox="0 0 400 400" fill="none" xmlns="http://www.w3.org/2000/svg">
<path d="M197.099 320.051C245.353 320.051 284.47 316.593 284.47 312.327C284.47 308.061 245.353 304.603 197.099 304.603C148.845 304.603 109.728 308.061 109.728 312.327C109.728 316.593 148.845 320.051 197.099 320.051Z" fill="#D1D1D1"/>
<path d="M250.873 276.64C250.247 276.642 249.629 276.499 249.068 276.222C248.506 275.946 248.016 275.543 247.636 275.046C238.886 263.577 216.292 234.801 213.887 232.264C213.115 231.581 212.632 230.629 212.535 229.603C212.439 228.576 212.737 227.552 213.368 226.737C214 225.922 214.918 225.378 215.936 225.215C216.954 225.052 217.996 225.282 218.85 225.859C221.256 227.504 253.776 269.697 254.091 270.123C254.548 270.724 254.828 271.441 254.9 272.192C254.972 272.944 254.833 273.7 254.499 274.377C254.164 275.054 253.648 275.624 253.008 276.024C252.367 276.424 251.628 276.637 250.873 276.64ZM213.938 232.304C214.039 232.397 214.148 232.482 214.262 232.558C214.15 232.479 214.041 232.395 213.938 232.304Z" fill="#484646"/>
<path d="M257.644 167.852C252.114 167.847 246.601 167.269 241.191 166.127C240.671 166.007 240.18 165.785 239.745 165.476C239.311 165.166 238.942 164.774 238.659 164.321C238.376 163.869 238.185 163.365 238.097 162.839C238.009 162.313 238.026 161.774 238.146 161.255C238.266 160.735 238.487 160.244 238.796 159.809C239.106 159.375 239.498 159.006 239.951 158.723C240.403 158.44 240.907 158.249 241.433 158.161C241.959 158.073 242.498 158.09 243.018 158.21C247.983 159.234 253.041 159.744 258.111 159.732C265.216 159.732 274.736 158.423 280.075 152.627C285.414 146.831 285.962 136.935 281.608 123.344C281.445 122.836 281.384 122.302 281.428 121.77C281.472 121.239 281.621 120.721 281.865 120.247C282.109 119.773 282.444 119.352 282.851 119.007C283.258 118.662 283.729 118.401 284.237 118.239C284.745 118.076 285.279 118.015 285.811 118.059C286.342 118.103 286.86 118.252 287.334 118.496C287.808 118.74 288.229 119.075 288.574 119.482C288.918 119.889 289.18 120.36 289.342 120.868C294.651 137.443 293.544 149.988 286.043 158.138C278.847 165.944 267.276 167.852 257.644 167.852Z" fill="#484646"/>
<path d="M122.852 223.738C121.798 223.737 120.786 223.325 120.03 222.591C115.848 218.531 95 197.805 95 185.868C95 172.856 124.841 164.706 133.996 162.524C134.518 162.391 135.06 162.364 135.592 162.443C136.124 162.522 136.635 162.706 137.095 162.985C137.555 163.263 137.956 163.63 138.273 164.064C138.59 164.499 138.818 164.992 138.943 165.515C139.068 166.038 139.088 166.581 139.002 167.112C138.915 167.642 138.724 168.151 138.439 168.607C138.155 169.064 137.782 169.459 137.344 169.77C136.905 170.081 136.409 170.302 135.884 170.42C118.741 174.48 103.12 181.89 103.12 185.868C103.12 192.141 116.315 207.711 125.663 216.755C126.246 217.316 126.647 218.039 126.816 218.83C126.985 219.621 126.914 220.444 126.612 221.194C126.31 221.945 125.79 222.588 125.12 223.041C124.451 223.494 123.66 223.737 122.852 223.738Z" fill="#484646"/>
<path d="M163.807 282.374C162.92 282.373 162.058 282.082 161.352 281.545C160.647 281.008 160.136 280.255 159.899 279.4C153.596 256.735 164.04 234.182 167.481 226.773C167.755 226.174 168.06 225.524 168.202 225.189C168.417 224.25 168.959 223.418 169.731 222.841C170.503 222.265 171.455 221.982 172.417 222.043C173.378 222.104 174.287 222.505 174.98 223.174C175.673 223.844 176.106 224.738 176.2 225.697C176.322 226.996 175.956 227.798 174.85 230.183C171.724 236.923 162.213 257.436 167.745 277.228C167.913 277.832 167.938 278.466 167.82 279.081C167.702 279.696 167.443 280.275 167.063 280.774C166.684 281.272 166.194 281.676 165.633 281.954C165.072 282.231 164.454 282.375 163.827 282.374H163.807Z" fill="#484646"/>
<path d="M192.389 245.571C229.079 245.571 258.821 215.828 258.821 179.139C258.821 142.45 229.079 112.707 192.389 112.707C155.7 112.707 125.958 142.45 125.958 179.139C125.958 215.828 155.7 245.571 192.389 245.571Z" fill="#FF931E"/>
<path d="M192.389 112.717C205.529 112.717 218.373 116.614 229.298 123.914C240.223 131.214 248.737 141.59 253.765 153.729C258.793 165.868 260.108 179.226 257.544 192.113C254.98 205 248.652 216.837 239.36 226.127C230.068 235.417 218.23 241.743 205.343 244.305C192.456 246.868 179.099 245.551 166.96 240.521C154.821 235.491 144.447 226.975 137.148 216.049C129.85 205.123 125.956 192.278 125.958 179.139C125.958 170.415 127.676 161.777 131.015 153.718C134.353 145.659 139.247 138.336 145.416 132.168C151.584 126 158.908 121.108 166.968 117.77C175.028 114.433 183.666 112.716 192.389 112.717ZM192.389 111.702C179.044 111.702 165.998 115.66 154.901 123.074C143.804 130.489 135.156 141.027 130.049 153.357C124.941 165.687 123.605 179.254 126.209 192.343C128.812 205.433 135.239 217.456 144.676 226.893C154.113 236.33 166.136 242.756 179.225 245.36C192.314 247.964 205.882 246.627 218.212 241.52C230.542 236.413 241.08 227.764 248.495 216.668C255.909 205.571 259.867 192.525 259.867 179.179C259.845 161.29 252.729 144.139 240.079 131.489C227.429 118.84 210.279 111.724 192.389 111.702Z" fill="#484646"/>
<path d="M170.526 174.693C173.441 174.693 175.804 169.086 175.804 162.168C175.804 155.251 173.441 149.643 170.526 149.643C167.611 149.643 165.248 155.251 165.248 162.168C165.248 169.086 167.611 174.693 170.526 174.693Z" fill="#484646"/>
<path d="M214.262 174.693C217.177 174.693 219.54 169.086 219.54 162.168C219.54 155.251 217.177 149.643 214.262 149.643C211.347 149.643 208.984 155.251 208.984 162.168C208.984 169.086 211.347 174.693 214.262 174.693Z" fill="#484646"/>
<path d="M192.389 222.621C171.145 222.621 153.819 209.355 153.819 193.064C153.819 192.661 153.98 192.273 154.265 191.988C154.551 191.702 154.938 191.542 155.342 191.542C155.746 191.542 156.133 191.702 156.418 191.988C156.704 192.273 156.864 192.661 156.864 193.064C156.864 207.68 172.79 219.576 192.389 219.576C211.989 219.576 227.914 207.68 227.914 193.064C227.914 192.661 228.075 192.273 228.36 191.988C228.646 191.702 229.033 191.542 229.437 191.542C229.841 191.542 230.228 191.702 230.513 191.988C230.799 192.273 230.959 192.661 230.959 193.064C230.919 209.355 213.633 222.621 192.389 222.621Z" fill="#484646"/>
<path d="M273.102 129.13C273.102 129.13 255.614 110.759 254.447 106.161C253.279 101.563 258.141 100.923 261.339 103.481C264.536 106.039 270.321 113.022 270.321 113.022C270.321 113.022 263.551 86.226 265.155 83.0287C266.759 79.8315 291.758 77.8624 294.813 89.4232C297.638 100.927 299.338 112.679 299.888 124.512L273.102 129.13Z" fill="white"/>
<path d="M273.102 129.647C273.032 129.65 272.961 129.637 272.896 129.609C272.831 129.58 272.773 129.538 272.727 129.485C272.006 128.734 255.127 110.961 253.939 106.282C253.289 103.704 254.436 102.527 255.177 102.05C256.872 100.974 259.603 101.42 261.673 103.065C264.386 105.523 266.929 108.161 269.286 110.961C267.642 104.242 263.267 85.5863 264.698 82.7544C265.713 80.7244 273.336 79.4861 280.349 80.2068C285.181 80.7143 293.544 82.5514 295.331 89.2504C299.766 106.018 300.406 124.268 300.406 124.451C300.411 124.576 300.37 124.7 300.292 124.798C300.214 124.897 300.103 124.964 299.979 124.989L273.163 129.607L273.102 129.647ZM257.349 102.527C256.788 102.511 256.233 102.652 255.746 102.933C254.863 103.501 254.589 104.567 254.954 105.978C255.837 109.469 267.215 122.126 273.285 128.511L299.37 124.024C299.239 121.101 298.355 104.689 294.295 89.5143C292.692 83.4243 284.785 81.7293 280.228 81.2522C273.123 80.5113 266.271 81.912 265.612 83.2213C264.495 85.4442 268.119 102.161 270.819 112.849C270.847 112.965 270.836 113.088 270.786 113.197C270.737 113.305 270.651 113.394 270.544 113.448C270.438 113.498 270.318 113.511 270.203 113.488C270.088 113.464 269.983 113.404 269.905 113.316C269.844 113.245 264.089 106.394 260.993 103.877C259.959 103.041 258.679 102.567 257.349 102.527Z" fill="#484646"/>
<path d="M298.706 122.233L272.009 126.83C269.804 127.21 268.325 129.304 268.705 131.509L268.796 132.039C269.176 134.243 271.27 135.722 273.474 135.343L300.172 130.746C302.376 130.366 303.855 128.272 303.476 126.067L303.384 125.537C303.005 123.333 300.91 121.854 298.706 122.233Z" fill="white"/>
<path d="M272.777 135.961C271.695 135.953 270.651 135.562 269.83 134.858C269.009 134.154 268.463 133.182 268.291 132.114L268.199 131.576C268.097 130.985 268.113 130.379 268.245 129.794C268.377 129.209 268.623 128.655 268.969 128.165C269.315 127.675 269.754 127.258 270.261 126.938C270.768 126.617 271.333 126.4 271.924 126.298L298.619 121.751C299.21 121.647 299.816 121.662 300.402 121.793C300.988 121.925 301.542 122.17 302.032 122.517C302.522 122.863 302.94 123.302 303.26 123.81C303.58 124.318 303.796 124.884 303.897 125.476L303.998 126.014C304.1 126.606 304.085 127.212 303.952 127.798C303.819 128.383 303.572 128.937 303.226 129.427C302.879 129.918 302.438 130.335 301.93 130.655C301.422 130.975 300.855 131.191 300.263 131.292L273.559 135.89C273.3 135.933 273.039 135.957 272.777 135.961ZM299.4 122.766C299.201 122.751 299.001 122.751 298.802 122.766L272.097 127.333C271.641 127.409 271.204 127.575 270.813 127.821C270.421 128.066 270.082 128.387 269.815 128.765C269.548 129.142 269.358 129.569 269.257 130.02C269.155 130.471 269.145 130.938 269.225 131.393L269.306 131.901C269.383 132.356 269.55 132.792 269.796 133.183C270.042 133.574 270.362 133.913 270.74 134.179C271.117 134.446 271.543 134.636 271.994 134.738C272.444 134.84 272.91 134.852 273.366 134.773L300.081 130.175C300.998 130.014 301.814 129.497 302.352 128.736C302.89 127.976 303.106 127.034 302.953 126.115L302.862 125.577C302.715 124.765 302.288 124.03 301.656 123.5C301.024 122.97 300.226 122.678 299.4 122.674V122.766Z" fill="#484646"/>
<path d="M286.916 116.158C286.84 116.157 286.765 116.139 286.697 116.106C286.628 116.072 286.568 116.024 286.52 115.965C283.871 112.92 280.989 111.185 277.974 110.982C275.328 110.882 272.736 111.744 270.676 113.407C270.627 113.462 270.566 113.507 270.498 113.537C270.431 113.567 270.357 113.582 270.283 113.582C270.209 113.582 270.136 113.567 270.068 113.536C270.001 113.506 269.94 113.462 269.891 113.407C269.841 113.352 269.804 113.287 269.781 113.216C269.758 113.146 269.751 113.071 269.759 112.997C269.767 112.924 269.79 112.852 269.828 112.788C269.865 112.724 269.916 112.669 269.976 112.626C272.232 110.762 275.101 109.803 278.025 109.936C281.344 110.159 284.47 111.966 287.312 115.285C287.358 115.337 287.392 115.398 287.414 115.464C287.436 115.53 287.444 115.599 287.439 115.668C287.433 115.738 287.413 115.805 287.381 115.866C287.349 115.928 287.305 115.982 287.251 116.026C287.207 116.069 287.154 116.103 287.097 116.126C287.039 116.148 286.978 116.159 286.916 116.158Z" fill="#484646"/>
<path d="M131.621 208.686C131.621 208.686 141.173 220.571 143.741 225.941C146.308 231.31 139.782 244.82 135.346 248.088C130.911 251.356 112.265 252.28 112.001 248.088C111.738 243.896 119.898 243.439 119.898 243.439C119.898 243.439 112.468 240.628 115.036 231.533L109.951 218.957L131.621 208.686Z" fill="white"/>
<path d="M121.197 251.417C117.959 251.417 115.016 251.052 113.3 250.24C112.163 249.702 111.554 248.991 111.514 248.118C111.433 246.738 112.103 244.85 115.736 243.693C116.557 243.439 117.395 243.242 118.243 243.104C116.132 241.683 112.701 238.232 114.508 231.564L109.433 219.16C109.378 219.038 109.374 218.898 109.422 218.773C109.469 218.647 109.565 218.546 109.687 218.49L131.377 208.208C131.483 208.159 131.602 208.146 131.716 208.172C131.83 208.198 131.932 208.261 132.007 208.351C132.392 208.838 141.629 220.358 144.187 225.707C146.744 231.056 140.38 244.992 135.63 248.504C133.194 250.321 126.769 251.417 121.197 251.417ZM110.61 219.191L115.543 231.371C115.584 231.482 115.584 231.604 115.543 231.716C113.138 240.252 119.806 242.881 120.091 242.992C120.202 243.037 120.295 243.116 120.355 243.219C120.416 243.322 120.441 243.442 120.426 243.561C120.406 243.679 120.347 243.787 120.259 243.868C120.17 243.949 120.058 243.998 119.938 244.007C119.857 244.007 112.336 244.474 112.539 248.067C112.539 248.524 112.965 248.94 113.727 249.306C118.081 251.336 131.408 250.321 135.042 247.672C139.447 244.424 145.669 231.188 143.273 226.174C140.989 221.414 133.012 211.284 131.469 209.345L110.61 219.191Z" fill="#484646"/>
<path d="M129.711 203.628L106.529 217.645C104.615 218.803 104.002 221.292 105.159 223.206L105.437 223.667C106.595 225.581 109.084 226.194 110.998 225.037L134.18 211.019C136.094 209.862 136.708 207.372 135.55 205.458L135.272 204.998C134.115 203.084 131.625 202.471 129.711 203.628Z" fill="white"/>
<path d="M108.936 226.164C108.567 226.16 108.199 226.115 107.84 226.032C107.255 225.888 106.705 225.631 106.221 225.273C105.736 224.916 105.328 224.467 105.018 223.951L104.734 223.484C104.113 222.445 103.928 221.203 104.218 220.028C104.509 218.853 105.253 217.841 106.287 217.211L129.479 203.194C129.993 202.884 130.562 202.677 131.155 202.587C131.748 202.496 132.353 202.523 132.935 202.666C133.518 202.81 134.066 203.066 134.55 203.422C135.033 203.777 135.442 204.224 135.752 204.737L136.036 205.204C136.348 205.717 136.555 206.287 136.645 206.881C136.736 207.474 136.708 208.08 136.564 208.663C136.42 209.246 136.161 209.795 135.804 210.277C135.447 210.76 134.998 211.168 134.483 211.477L111.291 225.504C110.581 225.935 109.766 226.163 108.936 226.164ZM131.834 203.58C131.194 203.581 130.566 203.757 130.017 204.087L106.825 218.115C106.027 218.599 105.454 219.379 105.232 220.285C105.009 221.191 105.155 222.148 105.637 222.946L105.911 223.413C106.397 224.211 107.179 224.784 108.087 225.007C108.994 225.229 109.953 225.083 110.753 224.601L133.945 210.583C134.743 210.097 135.316 209.315 135.539 208.408C135.762 207.5 135.616 206.542 135.133 205.742L134.859 205.285C134.544 204.76 134.097 204.327 133.563 204.027C133.029 203.728 132.426 203.574 131.814 203.58H131.834Z" fill="#484646"/>
<path d="M176.139 275.016C176.139 275.016 147.496 269.423 147.263 272.224C147.029 275.026 148.196 297.873 148.196 297.873C148.196 297.873 120.791 312.591 125.004 314.459C129.216 316.326 176.139 307.658 176.139 307.658V275.016Z" fill="white"/>
<path d="M127.379 315.261C126.505 315.314 125.629 315.215 124.79 314.966C124.58 314.89 124.397 314.752 124.265 314.572C124.133 314.391 124.058 314.175 124.049 313.951C124.049 313.312 123.958 311.607 136.067 304.248C141.193 301.132 146.379 298.29 147.648 297.6C147.506 294.666 146.521 274.854 146.735 272.225C146.752 272.086 146.798 271.951 146.869 271.831C146.941 271.71 147.037 271.606 147.151 271.524C149.8 269.494 171.846 273.696 176.241 274.569C176.358 274.593 176.464 274.656 176.539 274.749C176.615 274.841 176.657 274.957 176.657 275.077V307.719C176.659 307.842 176.617 307.962 176.539 308.056C176.461 308.151 176.351 308.215 176.23 308.237C171.927 308.998 137.691 315.261 127.379 315.261ZM150.135 271.971C148.825 271.971 147.983 272.093 147.76 272.367C147.557 275.036 148.704 297.65 148.714 297.884C148.721 297.983 148.699 298.082 148.65 298.169C148.601 298.255 148.528 298.326 148.44 298.371C136.909 304.573 125.024 312.084 125.095 313.921C125.095 313.921 125.095 313.982 125.217 314.022C128.505 315.484 162.295 309.719 175.611 307.262V275.493C165.492 273.514 154.814 271.971 150.135 271.971Z" fill="#484646"/>
<path d="M256.446 253.021C256.446 253.021 237.963 257.344 233.71 274.001L258.07 307.577L291.108 261.465L266.748 269.809L256.446 253.021Z" fill="white"/>
<path d="M258.05 308.095C257.967 308.097 257.884 308.078 257.81 308.041C257.736 308.004 257.672 307.949 257.623 307.881L233.263 274.305C233.218 274.243 233.187 274.172 233.173 274.096C233.159 274.021 233.162 273.943 233.182 273.869C237.455 257.101 256.121 252.554 256.304 252.503C256.412 252.479 256.526 252.489 256.628 252.533C256.73 252.577 256.815 252.651 256.872 252.747L266.89 269.18L290.895 260.968C291 260.933 291.113 260.932 291.219 260.965C291.325 260.997 291.417 261.063 291.484 261.151C291.551 261.24 291.587 261.349 291.587 261.46C291.587 261.572 291.551 261.681 291.484 261.77L258.446 307.881C258.395 307.947 258.331 308 258.257 308.037C258.183 308.074 258.102 308.093 258.019 308.095H258.05ZM234.278 273.899L258.04 306.684L289.708 262.491L266.85 270.306C266.738 270.34 266.618 270.337 266.508 270.297C266.398 270.256 266.304 270.181 266.241 270.083L256.202 253.62C253.624 254.34 238.176 259.212 234.278 273.899Z" fill="#484646"/>
<path d="M259.399 308.825C250.376 301.72 260.282 290.504 269.752 277.929C276.553 268.885 289.159 257.842 295.259 262.622C302.273 268.114 270.108 317.219 259.399 308.825Z" fill="#D1D1D1"/>
<path d="M262.282 310.318C261.12 310.333 259.988 309.95 259.075 309.232C250.417 302.441 258.435 291.916 266.931 280.812C267.723 279.797 268.535 278.721 269.326 277.655C274.878 270.276 283.902 261.943 290.641 261.06C291.511 260.907 292.402 260.934 293.261 261.138C294.119 261.343 294.927 261.72 295.635 262.247C296.65 263.059 297.026 264.612 296.711 266.865C295.199 277.472 277.528 304.837 265.561 309.648C264.521 310.079 263.408 310.307 262.282 310.318ZM259.724 308.409C261.064 309.424 262.881 309.536 265.124 308.633C275.843 304.329 294.042 277.807 295.625 266.683C295.808 265.404 295.828 263.739 294.935 263.039C294.339 262.591 293.658 262.269 292.934 262.095C292.209 261.92 291.457 261.896 290.723 262.024C284.633 262.826 275.761 270.773 270.169 278.264L267.763 281.431C259.237 292.596 251.878 302.279 259.724 308.43V308.409Z" fill="#484646"/>
<path d="M147.303 181.016C151.765 181.016 155.382 178.717 155.382 175.881C155.382 173.044 151.765 170.745 147.303 170.745C142.841 170.745 139.224 173.044 139.224 175.881C139.224 178.717 142.841 181.016 147.303 181.016Z" fill="white"/>
<path d="M237.486 181.016C241.948 181.016 245.565 178.717 245.565 175.881C245.565 173.044 241.948 170.745 237.486 170.745C233.024 170.745 229.406 173.044 229.406 175.881C229.406 178.717 233.024 181.016 237.486 181.016Z" fill="white"/>
</svg>
