<svg width="150" height="150" viewBox="0 0 150 150" fill="none" xmlns="http://www.w3.org/2000/svg">
<path d="M20.3602 101.867C24.828 101.867 28.4499 98.2023 28.4499 93.682C28.4499 89.1617 24.828 85.4973 20.3602 85.4973C15.8924 85.4973 12.2705 89.1617 12.2705 93.682C12.2705 98.2023 15.8924 101.867 20.3602 101.867Z" fill="#E4E4E4"/>
<path opacity="0.2" d="M14.3863 88.2153C13.6317 90.0012 13.5293 92.0003 14.0975 93.8555C14.6656 95.7107 15.8673 97.301 17.4877 98.3423C19.1081 99.3836 21.0417 99.8081 22.9429 99.5398C24.8442 99.2715 26.5892 98.328 27.8661 96.8778C27.4052 97.9689 26.7153 98.9455 25.8442 99.74C24.9732 100.535 23.9418 101.128 22.8215 101.479C21.7013 101.83 20.5189 101.931 19.3565 101.774C18.194 101.617 17.0791 101.206 16.0891 100.57C15.0991 99.9339 14.2577 99.0875 13.6231 98.0897C12.9885 97.0918 12.5759 95.9663 12.414 94.7911C12.252 93.6159 12.3445 92.4191 12.685 91.2837C13.0256 90.1482 13.6061 89.1013 14.3863 88.2153Z" fill="black"/>
<path d="M20.3823 93.6821H20.4044L20.8046 116.887H19.96L20.3823 93.6821Z" fill="#3F3D56"/>
<path d="M111.527 92.6713H36.7671V115.093H111.527V92.6713Z" fill="#F0F0F0"/>
<path d="M78.5051 97.3052H69.7881V115.093H78.5051V97.3052Z" fill="#CACACA"/>
<path d="M107.167 66.213H41.125V86.8414H107.167V66.213Z" fill="#F0F0F0"/>
<path d="M113.863 67.4837H34.43C34.2974 67.4837 34.1678 67.4436 34.0579 67.3685C33.948 67.2934 33.8628 67.1868 33.8133 67.0623C33.7637 66.9379 33.7521 66.8013 33.7799 66.6701C33.8077 66.5389 33.8736 66.4191 33.9692 66.3261L55.6785 45.214V36.018C55.6787 35.8397 55.7488 35.6687 55.8734 35.5426C55.9981 35.4165 56.1671 35.3455 56.3433 35.3453H60.628C60.8042 35.3455 60.9733 35.4165 61.0979 35.5426C61.2225 35.6687 61.2926 35.8397 61.2928 36.018V39.7541L62.9326 38.1595C65.6158 35.55 69.1759 34.0647 72.8972 34.0021C76.6186 33.9395 80.2255 35.3042 82.993 37.822L114.308 66.3108C114.408 66.4018 114.478 66.5213 114.51 66.6536C114.541 66.7859 114.532 66.9248 114.484 67.0518C114.436 67.1789 114.351 67.2882 114.24 67.3653C114.129 67.4424 113.998 67.4837 113.863 67.4837V67.4837Z" fill="#CACACA"/>
<path d="M58.5594 71.4449C59.1124 71.4449 59.6599 71.5551 60.1708 71.7692C60.6816 71.9833 61.1458 72.2971 61.5368 72.6927C61.9278 73.0883 62.238 73.558 62.4496 74.0748C62.6612 74.5917 62.7701 75.1457 62.7701 75.7051V81.4602H54.3486V75.7051C54.3486 75.1457 54.4575 74.5917 54.6692 74.0748C54.8808 73.558 55.1909 73.0883 55.5819 72.6927C55.9729 72.2971 56.4371 71.9833 56.948 71.7692C57.4589 71.5551 58.0064 71.4449 58.5594 71.4449Z" fill="white"/>
<path d="M74.1468 71.5197C75.2636 71.5197 76.3346 71.9685 77.1242 72.7674C77.9139 73.5664 78.3575 74.65 78.3575 75.7799V81.5349H69.936V75.7799C69.936 74.65 70.3797 73.5664 71.1693 72.7674C71.959 71.9685 73.03 71.5197 74.1468 71.5197Z" fill="white"/>
<path d="M89.7337 71.5945C90.8505 71.5945 91.9215 72.0433 92.7112 72.8423C93.5008 73.6412 93.9445 74.7248 93.9445 75.8547V81.6097H85.5229V75.8547C85.5229 74.7248 85.9666 73.6412 86.7563 72.8423C87.5459 72.0433 88.6169 71.5945 89.7337 71.5945Z" fill="white"/>
<path d="M95.9388 97.0809C97.0556 97.0809 98.1266 97.5298 98.9162 98.3287C99.7059 99.1277 100.15 100.211 100.15 101.341V107.096H91.728V101.341C91.728 100.211 92.1717 99.1277 92.9613 98.3287C93.751 97.5298 94.822 97.0809 95.9388 97.0809Z" fill="white"/>
<path d="M54.2747 97.0809C55.3915 97.0809 56.4625 97.5298 57.2522 98.3287C58.0419 99.1277 58.4855 100.211 58.4855 101.341V107.096H50.064V101.341C50.064 100.782 50.1729 100.228 50.3845 99.7108C50.5961 99.194 50.9063 98.7243 51.2973 98.3287C51.6883 97.9331 52.1525 97.6193 52.6633 97.4052C53.1742 97.1911 53.7218 97.0809 54.2747 97.0809Z" fill="white"/>
<path d="M122.449 93.0212L108.425 86.743C108.349 86.7093 108.268 86.6919 108.186 86.6919H41.3493C41.273 86.6919 41.1974 86.7068 41.1267 86.7359L25.8616 93.0141C25.7346 93.0663 25.6295 93.1616 25.5643 93.2835C25.4991 93.4055 25.4778 93.5466 25.5041 93.6827C25.5304 93.8188 25.6027 93.9414 25.7085 94.0296C25.8143 94.1177 25.9471 94.1659 26.0841 94.1659H30.0447V114.794H29.6015V116.887H118.692V114.794H117.954V94.1659H122.21C122.345 94.1659 122.476 94.1188 122.582 94.0325C122.687 93.9461 122.76 93.8258 122.788 93.6916C122.816 93.5575 122.797 93.4177 122.736 93.2956C122.674 93.1736 122.573 93.0767 122.449 93.0212ZM116.772 114.794H31.2267V94.1659H116.772V114.794Z" fill="#CACACA"/>
<path d="M63.8045 80.6381H53.019V82.4318H63.8045V80.6381Z" fill="#CACACA"/>
<path d="M79.6136 80.6381H68.8281V82.4318H79.6136V80.6381Z" fill="#CACACA"/>
<path d="M95.4217 80.6381H84.6362V82.4318H95.4217V80.6381Z" fill="#CACACA"/>
<path d="M101.332 106.498H90.5464V108.292H101.332V106.498Z" fill="#CACACA"/>
<path d="M59.5198 106.498H48.7344V108.292H59.5198V106.498Z" fill="#CACACA"/>
<path d="M139.857 116.979H10.143C10.1051 116.979 10.0687 116.96 10.0419 116.926C10.0151 116.892 10 116.847 10 116.799C10 116.751 10.0151 116.706 10.0419 116.672C10.0687 116.638 10.1051 116.619 10.143 116.619H139.857C139.895 116.619 139.931 116.638 139.958 116.672C139.985 116.706 140 116.751 140 116.799C140 116.847 139.985 116.892 139.958 116.926C139.931 116.96 139.895 116.979 139.857 116.979Z" fill="#3F3D56"/>
<path d="M98.515 65.9055C98.515 66.0228 98.5132 66.1418 98.5114 66.2591C98.5096 66.4001 98.506 66.5393 98.5005 66.6804C98.4951 66.8031 98.4896 66.924 98.4824 67.0449C98.4607 67.4497 98.4263 67.8527 98.3792 68.2575C98.3684 68.3601 98.3557 68.4608 98.3412 68.5634C98.3303 68.6422 98.3195 68.7228 98.3068 68.8034C98.2941 68.8931 98.2814 68.9829 98.2669 69.0726C98.238 69.2632 98.2054 69.4537 98.1692 69.6442C98.1511 69.7394 98.133 69.8347 98.1131 69.9299C98.0751 70.1186 98.0334 70.3091 97.99 70.4978C97.9864 70.5124 97.9827 70.5289 97.9791 70.5436C97.9574 70.637 97.9357 70.7286 97.9121 70.822C97.9049 70.8494 97.8995 70.8751 97.8904 70.9026C97.8741 70.9722 97.856 71.0418 97.8379 71.1114C97.8126 71.2085 97.7872 71.3037 97.7601 71.4008C97.7166 71.551 97.6732 71.6994 97.6279 71.8496C97.6222 71.8652 97.6174 71.8811 97.6134 71.8972C97.5265 72.1811 97.4342 72.4614 97.3328 72.7398C97.2803 72.8864 97.2242 73.0347 97.168 73.1813C97.1119 73.3278 97.0539 73.4744 96.9942 73.6191C96.9363 73.7601 96.8765 73.9012 96.8168 74.0404C96.8023 74.0733 96.7878 74.1063 96.7715 74.1393C96.7081 74.284 96.6429 74.425 96.576 74.5661C96.5742 74.5679 96.5742 74.5716 96.5724 74.5734C96.5199 74.687 96.4637 74.8006 96.4076 74.9123C96.4075 74.9157 96.4062 74.919 96.4039 74.9214C96.3497 75.0314 96.2935 75.1413 96.2356 75.2493L96.1433 75.427L96.1324 75.4472C96.0165 75.6651 95.8971 75.8813 95.7703 76.0956C95.7431 76.1432 95.716 76.1908 95.6889 76.2366C95.6617 76.2843 95.6327 76.3319 95.6037 76.3777C95.5857 76.4107 95.5657 76.4436 95.544 76.4766C95.506 76.5389 95.4679 76.603 95.4281 76.6653C95.4209 76.6781 95.4118 76.6909 95.4046 76.7037C95.3358 76.8118 95.267 76.9181 95.1982 77.0261C95.1131 77.1562 95.0262 77.2844 94.9375 77.4126L92.9713 80.5962L92.8862 80.5248L92.8626 80.5028H92.8608L92.7829 80.4369L92.5693 80.2537C92.5042 80.3178 92.4408 80.3819 92.3756 80.4442C92.3503 80.4698 92.3231 80.4937 92.2977 80.5193C92.2779 80.5376 92.2597 80.5559 92.2398 80.5742C88.8406 83.9327 84.3189 85.8776 79.5699 86.0237H79.5645C75.9695 86.1236 72.4108 85.2738 69.2392 83.5582C69.1686 83.5215 69.0998 83.4849 69.031 83.4427C68.6182 83.2156 68.2145 82.9757 67.818 82.7192C67.8162 82.7174 67.8144 82.7174 67.8125 82.7155C67.3527 82.3858 66.9037 82.0341 66.4655 81.6604C64.115 79.6559 62.2554 77.1277 61.0325 74.2741C59.8097 71.4205 59.2568 68.3191 59.4173 65.2131C59.4227 65.0903 59.43 64.9695 59.439 64.8467C59.468 64.4034 59.5126 63.962 59.573 63.5224C59.5893 63.3996 59.6074 63.2769 59.6255 63.156H98.3303C98.4064 63.7165 98.4589 64.2801 98.4879 64.8467C98.506 65.2003 98.515 65.552 98.515 65.9055Z" fill="#F0F0F0"/>
<path d="M98.3308 63.156C97.634 58.4677 95.2975 54.188 91.7462 51.0948C88.1948 48.0017 83.6644 46.3005 78.9784 46.3005C74.2924 46.3005 69.7619 48.0017 66.2106 51.0948C62.6592 54.188 60.3228 58.4677 59.6259 63.156C59.6079 63.2769 59.5897 63.3996 59.5734 63.5223C59.5137 63.962 59.4691 64.4034 59.4395 64.8467H98.4883C98.4593 64.2807 98.4068 63.7171 98.3308 63.156Z" fill="#03DAC5"/>
<path d="M80.2465 83.5576H69.0327V74.4819C69.2396 70.3343 72.7435 69.9994 76.0358 70.2219C76.5888 70.2219 77.1363 70.3321 77.6472 70.5461C78.1581 70.7602 78.6222 71.074 79.0133 71.4696C79.4043 71.8651 79.7144 72.3348 79.926 72.8516C80.1376 73.3685 80.2465 73.9225 80.2465 74.4819V83.5576Z" fill="#03DAC5"/>
<path d="M69.031 77.105V77.1069C69.031 77.1087 69.0328 77.1087 69.0346 77.1087L69.031 77.105ZM64.5211 63.1562C64.5138 63.202 64.5048 63.2478 64.4975 63.2936C64.5047 63.2478 64.5138 63.202 64.5229 63.1562H64.5211ZM64.2966 64.8469C64.2911 64.9165 64.2857 64.9861 64.2821 65.0557C64.2857 64.9861 64.2911 64.9165 64.2984 64.8469C64.2981 64.834 64.2987 64.8212 64.3002 64.8084C64.2984 64.8213 64.2984 64.8341 64.2966 64.8469ZM69.031 77.1069C69.031 77.1087 69.0328 77.1087 69.0346 77.1087L69.031 77.1051V77.1069ZM64.5211 63.1562C64.5138 63.202 64.5048 63.2478 64.4975 63.2936C64.5047 63.2478 64.5138 63.202 64.5229 63.1562H64.5211ZM64.2821 65.0557C64.2857 64.9861 64.2911 64.9165 64.2984 64.8469C64.2981 64.834 64.2987 64.8212 64.3002 64.8084C64.2984 64.8213 64.2984 64.8341 64.2966 64.8469C64.2911 64.9165 64.2857 64.9861 64.2821 65.0557ZM120.216 98.7528C120.18 98.715 120.143 98.6795 120.103 98.6465L120.102 98.6447L111.136 90.9898L110.904 90.792L110.023 90.0391L109.802 89.8504L108.545 88.777L108.201 88.4839L107.49 87.8758L107.126 87.5644L103.693 84.6354L101.725 82.9557L101.461 82.7304L95.6617 77.7791C95.7504 77.6509 95.8373 77.5227 95.9224 77.3926C95.9912 77.2845 96.06 77.1783 96.1288 77.0702C96.136 77.0574 96.1451 77.0446 96.1523 77.0317C96.1921 76.9695 96.2301 76.9054 96.2682 76.8431C96.2899 76.8101 96.3098 76.7771 96.3279 76.7442C96.3569 76.6984 96.3859 76.6508 96.4131 76.6031C96.4402 76.5573 96.4673 76.5097 96.4945 76.4621C96.6212 76.2478 96.7407 76.0316 96.8566 75.8137L96.8675 75.7935L96.9598 75.6158C97.0177 75.5077 97.0739 75.3978 97.1282 75.2879C97.1304 75.2854 97.1317 75.2822 97.1318 75.2788C97.1879 75.167 97.244 75.0535 97.2966 74.9399C97.2984 74.9381 97.2984 74.9344 97.3002 74.9326C97.3671 74.7915 97.4323 74.6505 97.4957 74.5058C97.512 74.4728 97.5265 74.4398 97.541 74.4069C97.6007 74.2677 97.6605 74.1266 97.7184 73.9856C97.7781 73.8409 97.8361 73.6943 97.8922 73.5478C97.9484 73.4012 98.0044 73.2529 98.057 73.1063C98.1565 72.8261 98.2501 72.5452 98.3376 72.2637C98.3416 72.2476 98.3464 72.2317 98.3521 72.2161C98.3973 72.0659 98.4408 71.9175 98.4843 71.7673C98.5114 71.6702 98.5368 71.575 98.5621 71.4779C98.5802 71.4083 98.5983 71.3387 98.6146 71.2691C98.6236 71.2416 98.6291 71.2159 98.6363 71.1885C98.6599 71.0951 98.6816 71.0035 98.7033 70.9101C98.7069 70.8954 98.7106 70.8789 98.7142 70.8643C98.7576 70.6756 98.7993 70.4851 98.8373 70.2964C98.8572 70.2012 98.8753 70.1059 98.8934 70.0107C98.9278 69.8202 98.9622 69.6296 98.9911 69.4391C99.0056 69.3494 99.0183 69.2596 99.031 69.1699C99.0437 69.0893 99.0545 69.0087 99.0654 68.9299C99.0799 68.8273 99.0925 68.7266 99.1034 68.624C99.1505 68.2192 99.1849 67.8162 99.2066 67.4114C99.2138 67.2905 99.2193 67.1696 99.2247 67.0468C99.2301 66.9058 99.2338 66.7666 99.2356 66.6256C99.2374 66.5083 99.2392 66.3893 99.2392 66.272C99.2392 65.9185 99.2302 65.5668 99.2121 65.2133C99.1831 64.6472 99.1306 64.0837 99.0545 63.5225C98.4059 58.726 96.0727 54.3259 92.4816 51.1264C88.8906 47.9269 84.2813 46.1417 79.4965 46.0973C74.7117 46.0528 70.0708 47.752 66.4223 50.8842C62.7737 54.0165 60.3611 58.3725 59.6255 63.1562C59.6074 63.2771 59.5893 63.3998 59.573 63.5225C59.5132 63.9622 59.4686 64.4036 59.439 64.8469C59.43 64.9696 59.4227 65.0905 59.4173 65.2133C59.2568 68.3193 59.8097 71.4207 61.0325 74.2743C62.2554 77.1279 64.115 79.6561 66.4655 81.6606C66.9037 82.0343 67.3527 82.386 67.8125 82.7157C67.8144 82.7176 67.8162 82.7176 67.818 82.7194C67.9719 82.8293 68.1258 82.9374 68.2815 83.0436C68.5295 83.2085 68.7794 83.3697 69.031 83.5235C69.0509 83.5345 69.0709 83.5473 69.0908 83.5583C69.308 83.6902 69.5271 83.8166 69.7462 83.9393H69.7479C70.5635 84.393 71.4099 84.7872 72.2809 85.119C74.8363 86.0917 77.5616 86.5244 80.2887 86.3902H80.2941C83.477 86.2345 86.5763 85.3065 89.3304 83.6847C89.7305 83.4503 90.1251 83.1993 90.5108 82.9319C90.6068 82.8659 90.7045 82.7981 90.7986 82.7304C90.9145 82.6479 91.0304 82.5619 91.1463 82.4758C91.1481 82.4758 91.1481 82.4739 91.1499 82.4739C91.1585 82.4666 91.1676 82.4599 91.177 82.4538C91.2549 82.3933 91.3345 82.3329 91.4106 82.2743C91.4305 82.2596 91.4504 82.245 91.4703 82.2285C91.4756 82.2248 91.4805 82.2204 91.4848 82.2156C91.5301 82.1827 91.5735 82.146 91.6188 82.1112C91.6641 82.0764 91.7075 82.0398 91.7528 82.0032C91.7604 81.9983 91.7677 81.9927 91.7745 81.9867C91.8252 81.9445 91.8759 81.9042 91.9266 81.8621C91.9791 81.82 92.0298 81.776 92.0787 81.7339C92.1294 81.6918 92.1783 81.6496 92.229 81.6057C92.2724 81.569 92.3177 81.5306 92.3611 81.4903C92.3756 81.4793 92.3883 81.4664 92.4028 81.4536C92.4084 81.4482 92.4144 81.4433 92.4208 81.439C92.4806 81.3877 92.5385 81.3345 92.5965 81.2814C92.611 81.2686 92.6236 81.2558 92.6381 81.2429C92.7269 81.1624 92.8156 81.0818 92.9025 80.9975C92.9224 80.9792 92.9441 80.959 92.964 80.9407C92.9839 80.9224 93.0021 80.9041 93.0219 80.8858C93.0473 80.8601 93.0745 80.8363 93.0998 80.8107C93.165 80.7484 93.2284 80.6843 93.2935 80.6202L93.5071 80.8034L93.585 80.8693H93.5868L93.6104 80.8913L93.6955 80.9627L94.9592 82.0435L94.9864 82.0672L95.0081 82.0838L95.1511 82.2065L95.4372 82.4519L95.7232 82.6956L95.7649 82.7304L97.0956 83.8661L97.2802 84.0236L98.5639 85.119L105.208 90.792L105.44 90.9898L114.534 98.7528L116.866 100.744L117.733 101.484C117.918 101.642 118.131 101.761 118.36 101.835C118.59 101.909 118.832 101.937 119.072 101.917C119.312 101.896 119.546 101.828 119.761 101.716C119.975 101.604 120.165 101.451 120.321 101.264C120.451 101.109 120.554 100.934 120.627 100.744C120.758 100.408 120.789 100.04 120.716 99.686C120.643 99.3321 120.469 99.0076 120.216 98.7528ZM67.7709 56.2907C69.5872 54.1131 71.9755 52.4997 74.6597 51.637C77.3439 50.7743 80.2145 50.6975 82.94 51.4155C85.6655 52.1334 88.1347 53.6169 90.0622 55.6944C91.9898 57.7719 93.2971 60.3588 93.8331 63.1562C93.8566 63.2789 93.8784 63.3998 93.8982 63.5225C93.9725 63.9603 94.0268 64.4036 94.0594 64.8469C94.0684 64.9696 94.0775 65.0905 94.0829 65.2132C94.0992 65.488 94.1064 65.7646 94.1064 66.0394C94.1075 67.7061 93.8346 69.3614 93.299 70.9375V70.9393C92.7004 72.7066 91.7812 74.3453 90.5886 75.7715C90.5633 75.8008 90.5379 75.832 90.5108 75.8613C90.2718 76.147 90.0202 76.4218 89.7612 76.6838C89.7595 76.6856 89.7576 76.6892 89.7558 76.6911C89.6671 76.7808 89.5765 76.8724 89.486 76.9567C89.3014 77.138 89.1131 77.3102 88.9212 77.4751C88.6333 77.7297 88.3382 77.9684 88.0359 78.1913C87.9345 78.2664 87.8331 78.3397 87.7298 78.4129C87.6285 78.4862 87.5253 78.5558 87.4221 78.6254C87.2156 78.7646 87.0057 78.8984 86.7938 79.0247C86.6888 79.0888 86.5802 79.1511 86.4734 79.2116C86.3665 79.2738 86.2579 79.3325 86.1493 79.3893C86.0407 79.4479 85.932 79.5046 85.8216 79.5596C85.6025 79.6713 85.3816 79.7757 85.1571 79.8728C85.0449 79.9241 84.9326 79.9717 84.8204 80.0157C84.7498 80.045 84.681 80.0743 84.6104 80.1C84.5828 80.1129 84.5543 80.1239 84.5253 80.133C84.4872 80.1494 84.4492 80.1641 84.4112 80.1769C84.3989 80.1826 84.3862 80.1875 84.3732 80.1916C84.2953 80.2227 84.2193 80.2502 84.1396 80.2777C84.0256 80.3198 83.9115 80.3583 83.7956 80.3949C83.6798 80.4334 83.5657 80.47 83.4498 80.503C83.3339 80.5396 83.2163 80.5726 83.1004 80.6037C82.9827 80.6367 82.8669 80.6678 82.7491 80.6953C82.6242 80.7283 82.4993 80.7576 82.3726 80.7851C82.2621 80.8107 82.1535 80.8327 82.0431 80.8529C81.9399 80.8748 81.8349 80.8931 81.7317 80.9115C81.5868 80.9371 81.442 80.9609 81.2954 80.9811C81.2157 80.9939 81.1378 81.0049 81.0582 81.0122C81.0238 81.0177 80.9912 81.0214 80.9586 81.025C80.8572 81.0397 80.7558 81.0507 80.6562 81.0598C80.6291 81.0617 80.6037 81.0653 80.5784 81.0672C80.468 81.0782 80.3557 81.0873 80.2452 81.0965C80.0081 81.1129 79.7727 81.1239 79.5355 81.1294C79.416 81.1313 79.2947 81.1331 79.1752 81.1331C79.0557 81.1331 78.9362 81.1313 78.8167 81.1276C78.8167 81.1276 78.8167 81.1294 78.8149 81.1276C78.8131 81.1294 78.8131 81.1294 78.8113 81.1276C78.8111 81.1278 78.8108 81.128 78.8105 81.1282C78.8102 81.1283 78.8098 81.1284 78.8095 81.1284C78.8092 81.1284 78.8088 81.1283 78.8085 81.1282C78.8082 81.128 78.8079 81.1278 78.8077 81.1276C78.8018 81.1294 78.7955 81.1294 78.7896 81.1276C78.7045 81.1276 78.6194 81.1239 78.5361 81.1184C78.4746 81.1166 78.4112 81.1148 78.3478 81.1093C78.2628 81.1056 78.1777 81.1001 78.0926 81.0928C78.0654 81.0928 78.0383 81.0892 78.0111 81.0873C77.9984 81.087 77.9857 81.0858 77.9731 81.0837C77.8862 81.0763 77.7975 81.069 77.7105 81.0598C77.6671 81.0562 77.6219 81.0525 77.5784 81.047C77.4462 81.0324 77.314 81.0159 77.1837 80.9976C77.0352 80.9792 76.8868 80.9573 76.7401 80.9298C76.6713 80.9206 76.6043 80.9078 76.5373 80.895C76.4486 80.8803 76.3599 80.8638 76.2712 80.8455C76.1788 80.8272 76.0865 80.8089 75.9942 80.7869C75.9199 80.7704 75.8439 80.7539 75.7697 80.7356C75.7335 80.7283 75.6973 80.7191 75.6629 80.71C75.4728 80.6642 75.2845 80.6147 75.098 80.5598C74.9803 80.5268 74.8626 80.492 74.7467 80.4554C74.5874 80.4059 74.4299 80.3528 74.2724 80.296C74.2108 80.2758 74.1511 80.2539 74.0895 80.23C74.028 80.2099 73.9682 80.1861 73.9067 80.1623C73.8506 80.1421 73.7944 80.1201 73.7401 80.0981C73.6496 80.0634 73.5609 80.0267 73.4721 79.9901C73.2893 79.915 73.11 79.8362 72.9308 79.752C72.8294 79.7025 72.728 79.6549 72.6285 79.6054C72.2356 79.4131 71.8487 79.1994 71.4679 78.9643C71.3738 78.9075 71.2796 78.8471 71.1855 78.7866C71.0678 78.7134 70.9538 78.6364 70.8397 78.5595C70.7763 78.5155 70.7147 78.4734 70.6532 78.4294C70.5391 78.3488 70.4269 78.2664 70.3164 78.184C70.2585 78.1418 70.2005 78.0979 70.1444 78.0539C69.9435 77.9 69.7461 77.7389 69.5524 77.574C69.4601 77.4952 69.3677 77.4146 69.2772 77.3322C69.2392 77.2992 69.2011 77.2644 69.1631 77.2296C69.1197 77.1893 69.0762 77.1509 69.0346 77.1087L69.031 77.1051C68.9676 77.0483 68.9042 76.9878 68.8427 76.9274C68.7468 76.8358 68.6526 76.7424 68.5621 76.6471C68.4679 76.5537 68.3774 76.4566 68.2887 76.3614C68.1982 76.2661 68.1113 76.169 68.0262 76.0701C67.9393 75.973 67.8542 75.8741 67.7709 75.7734C67.6894 75.6781 67.6098 75.5792 67.5337 75.4821C67.349 75.2513 67.1728 75.0162 67.005 74.7769C66.9272 74.667 66.853 74.5571 66.7805 74.4454C66.7027 74.3318 66.6284 74.2164 66.5578 74.101C66.4836 73.9856 66.413 73.8683 66.3442 73.7493C66.3424 73.7452 66.34 73.7415 66.337 73.7383C66.2012 73.5056 66.0708 73.2712 65.9495 73.0331C65.8246 72.7913 65.7069 72.547 65.5965 72.3004C65.5404 72.1776 65.486 72.0531 65.4353 71.9285C65.3303 71.6775 65.2325 71.4266 65.142 71.172C65.0968 71.0493 65.0551 70.9265 65.0135 70.802C65.0122 70.7937 65.0097 70.7857 65.0062 70.7782C64.923 70.5254 64.8469 70.2708 64.7799 70.0143C64.7781 70.0107 64.7781 70.007 64.7763 70.0033C64.7419 69.8769 64.7093 69.7505 64.6804 69.6223C64.6514 69.5106 64.6261 69.3989 64.6025 69.2853C64.5754 69.1589 64.5482 69.0325 64.5247 68.9043C64.512 68.8383 64.4993 68.7724 64.4884 68.7064C64.4776 68.6515 64.4685 68.5947 64.4594 68.5398C64.4504 68.4848 64.4414 68.428 64.4323 68.3712C64.4142 68.2595 64.3979 68.1478 64.3834 68.036C64.3653 67.9041 64.3509 67.7722 64.3364 67.6385C64.32 67.4792 64.3056 67.3198 64.2929 67.1586C64.2839 67.0505 64.2784 66.9406 64.273 66.8307C64.2675 66.73 64.2621 66.6292 64.2603 66.5285C64.2585 66.5231 64.2585 66.5173 64.2603 66.512C64.2601 66.5118 64.2599 66.5115 64.2598 66.5112C64.2596 66.5109 64.2596 66.5105 64.2596 66.5102C64.2596 66.5098 64.2596 66.5095 64.2598 66.5092C64.2599 66.5089 64.2601 66.5086 64.2603 66.5083C64.2585 66.5065 64.2585 66.5065 64.2603 66.5047C64.2601 66.5044 64.2599 66.5042 64.2598 66.5038C64.2596 66.5035 64.2596 66.5032 64.2596 66.5028C64.2596 66.5025 64.2596 66.5022 64.2598 66.5018C64.2599 66.5015 64.2601 66.5012 64.2603 66.501C64.2585 66.4607 64.2567 66.4204 64.2567 66.3801C64.2531 66.2611 64.2513 66.142 64.2513 66.0229C64.2513 65.9149 64.2531 65.8086 64.2549 65.7005C64.2585 65.5503 64.2639 65.4001 64.2712 65.2499C64.2712 65.2169 64.2748 65.1858 64.2766 65.1528C64.2784 65.1199 64.2802 65.0887 64.282 65.0558C64.2857 64.9861 64.2911 64.9165 64.2983 64.8469C64.298 64.8341 64.2987 64.8212 64.3002 64.8085C64.3056 64.7297 64.3128 64.6509 64.32 64.5722C64.3345 64.4146 64.3527 64.2553 64.3725 64.0977C64.3834 64.019 64.3925 63.9402 64.4052 63.8615C64.4124 63.8065 64.4214 63.7497 64.4305 63.6929C64.4377 63.6361 64.4468 63.5794 64.4577 63.5226C64.4703 63.4475 64.483 63.3705 64.4975 63.2936C64.5047 63.2478 64.5138 63.202 64.5228 63.1562C64.5572 62.973 64.5952 62.7899 64.6369 62.6067C64.6785 62.4217 64.7256 62.2385 64.7763 62.0553C64.8252 61.8703 64.8795 61.6853 64.9374 61.5003C64.9646 61.4069 64.9936 61.3153 65.0262 61.2237C65.0859 61.0387 65.1493 60.8555 65.2199 60.6742C65.2525 60.5844 65.2869 60.4928 65.3249 60.4031C65.3973 60.2217 65.4733 60.0404 65.5512 59.8627C65.591 59.773 65.6309 59.6832 65.6743 59.5935C65.7558 59.4158 65.8409 59.2381 65.9332 59.0641C66.0219 58.8864 66.1179 58.7124 66.2157 58.5402C66.3134 58.368 66.4148 58.1958 66.5216 58.0255C66.5705 57.9412 66.6248 57.8551 66.6809 57.7727C66.7896 57.6042 66.9036 57.4356 67.0195 57.2708C67.2531 56.9374 67.5048 56.6095 67.7709 56.2907ZM64.2966 64.8469C64.2911 64.9165 64.2857 64.9861 64.2821 65.0557C64.2857 64.9861 64.2911 64.9165 64.2984 64.8469C64.2981 64.834 64.2987 64.8212 64.3002 64.8084C64.2984 64.8213 64.2984 64.8341 64.2966 64.8469ZM64.5211 63.1562C64.5138 63.202 64.5048 63.2478 64.4975 63.2936C64.5048 63.2478 64.5138 63.202 64.5229 63.1562H64.5211ZM69.031 77.1051V77.1069C69.031 77.1087 69.0328 77.1087 69.0346 77.1087L69.031 77.1051Z" fill="#3F3D56"/>
<path opacity="0.3" d="M69.553 77.5739C66.6893 75.1289 64.8391 71.6837 64.3699 67.9225C63.9006 64.1612 64.8466 60.3589 67.0199 57.2706C66.7345 57.5614 66.4586 57.866 66.1922 58.1843C64.928 59.7002 63.9713 61.4531 63.3766 63.343C62.782 65.2329 62.5611 67.2228 62.7266 69.199C62.8921 71.1753 63.4407 73.0992 64.3411 74.861C65.2415 76.6227 66.4761 78.1878 67.9743 79.4669C71.0001 82.05 74.9162 83.3112 78.8611 82.9731C82.8061 82.635 86.4566 80.7252 89.0098 77.6638C89.2756 77.3451 89.526 77.0187 89.7608 76.6846C87.1175 79.3717 83.572 80.9548 79.8285 81.1195C76.0849 81.2843 72.417 80.0186 69.553 77.5739Z" fill="black"/>
</svg>
