<svg width="400" height="400" viewBox="0 0 400 400" fill="none" xmlns="http://www.w3.org/2000/svg">
<path d="M342.956 209.332V217.117L306.365 262.01L294.683 247.475L74.6204 324.961L73.0269 313.43L225.104 251.069C225.104 251.069 279.62 227.957 277.793 227.957C275.966 227.957 259.015 213.686 259.015 213.686L260.69 206.581L319.215 215.503L342.956 209.332Z" fill="#D1D1D1"/>
<path d="M74.6202 325.468C74.5273 325.47 74.4357 325.445 74.3563 325.397C74.2923 325.358 74.2381 325.304 74.1977 325.241C74.1572 325.178 74.1316 325.106 74.1228 325.032L72.5191 313.491C72.5061 313.379 72.5297 313.266 72.5864 313.169C72.6432 313.072 72.73 312.996 72.8338 312.953L224.942 250.602C243.882 242.573 271.784 230.586 276.768 228.059C273.043 226.029 262.263 217.056 258.721 214.072C258.648 214.012 258.593 213.932 258.562 213.843C258.532 213.753 258.527 213.657 258.548 213.564L260.223 206.459C260.252 206.335 260.327 206.227 260.432 206.156C260.537 206.084 260.666 206.055 260.791 206.074L319.225 214.985L342.824 208.895C342.899 208.877 342.978 208.876 343.054 208.892C343.131 208.909 343.202 208.942 343.263 208.99C343.325 209.038 343.375 209.099 343.409 209.168C343.444 209.238 343.462 209.315 343.463 209.393V217.178C343.462 217.294 343.419 217.406 343.341 217.492L306.751 262.386C306.706 262.446 306.648 262.495 306.581 262.528C306.514 262.562 306.44 262.579 306.365 262.579C306.287 262.589 306.208 262.577 306.138 262.542C306.067 262.508 306.009 262.454 305.969 262.386L294.51 248.176L74.7928 325.448C74.7368 325.464 74.6785 325.471 74.6202 325.468ZM73.6052 313.745L75.0566 324.281L294.53 247.029C294.63 246.993 294.738 246.99 294.84 247.019C294.942 247.048 295.033 247.108 295.098 247.191L306.385 261.229L342.469 216.965V210.012L319.398 215.99C319.331 216.005 319.261 216.005 319.195 215.99L261.126 207.139L259.614 213.493C267.592 220.202 276.626 227.328 277.833 227.45C277.956 227.452 278.074 227.493 278.171 227.568C278.268 227.643 278.338 227.748 278.371 227.866C278.483 228.454 278.534 228.698 251.758 240.249C238.705 245.872 225.469 251.485 225.368 251.535L73.6052 313.745Z" fill="#484646"/>
<path d="M105.679 204.977L94.0068 201.435L89.6829 209.443L100.574 213.371L105.679 204.977Z" fill="white"/>
<path d="M100.574 213.879H100.401L89.5104 209.951C89.4408 209.928 89.3772 209.889 89.3245 209.839C89.2718 209.788 89.2313 209.725 89.2059 209.657C89.1783 209.591 89.1641 209.52 89.1641 209.448C89.1641 209.377 89.1783 209.306 89.2059 209.24L93.5603 201.212C93.6144 201.109 93.7029 201.028 93.8105 200.983C93.9181 200.939 94.0379 200.933 94.149 200.968L105.832 204.51C105.903 204.537 105.969 204.577 106.025 204.63C106.081 204.682 106.126 204.745 106.156 204.815C106.189 204.885 106.206 204.961 106.206 205.038C106.206 205.115 106.189 205.192 106.156 205.262L101.081 213.656C101.027 213.737 100.95 213.801 100.86 213.841C100.77 213.88 100.671 213.894 100.574 213.879ZM90.4239 209.169L100.381 212.752L104.928 205.272L94.2708 202.044L90.4239 209.169Z" fill="#484646"/>
<path d="M66.3074 257.24L274.596 218.172L260.72 206.581L342.956 209.362L305.746 250.683L294.581 238.726L73.0267 313.43L66.3074 257.24Z" fill="white"/>
<path d="M73.0267 313.938C72.9297 313.936 72.835 313.908 72.7527 313.856C72.6901 313.816 72.6369 313.762 72.5967 313.699C72.5564 313.636 72.53 313.565 72.5192 313.491L65.7999 257.301C65.7822 257.173 65.8146 257.044 65.8903 256.94C65.966 256.835 66.0791 256.765 66.2059 256.742L273.438 217.868L260.396 206.967C260.314 206.9 260.256 206.809 260.229 206.707C260.202 206.605 260.207 206.497 260.243 206.398C260.277 206.296 260.345 206.208 260.435 206.149C260.526 206.09 260.633 206.063 260.741 206.074L342.956 208.855C343.053 208.855 343.149 208.884 343.23 208.938C343.311 208.992 343.375 209.069 343.413 209.159C343.449 209.248 343.46 209.346 343.444 209.441C343.427 209.536 343.385 209.625 343.321 209.697L306.111 251.018C306.065 251.072 306.008 251.116 305.943 251.146C305.878 251.176 305.807 251.191 305.736 251.19C305.665 251.191 305.595 251.178 305.531 251.15C305.466 251.122 305.408 251.08 305.36 251.028L294.429 239.315L73.1891 313.877C73.1394 313.907 73.0842 313.928 73.0267 313.938ZM66.8657 257.646L73.453 312.75L294.419 238.249C294.512 238.219 294.611 238.215 294.706 238.239C294.801 238.262 294.888 238.311 294.956 238.381L305.736 249.932L341.829 209.829L262.162 207.139L274.9 217.777C274.973 217.839 275.027 217.92 275.056 218.012C275.085 218.103 275.087 218.201 275.062 218.294C275.038 218.387 274.988 218.472 274.918 218.538C274.848 218.605 274.761 218.65 274.667 218.67L66.8657 257.646Z" fill="#484646"/>
<path d="M146.437 277.882C168.884 274.025 186.444 267.19 185.658 262.615C184.872 258.041 166.038 257.459 143.591 261.316C121.144 265.173 103.584 272.009 104.37 276.583C105.156 281.158 123.99 281.739 146.437 277.882Z" fill="#F2F1F1"/>
<path d="M172.334 239.843L166.488 248.927L177.785 252.165L185.692 242.695L172.334 239.843Z" fill="white"/>
<path d="M177.785 252.672C177.738 252.683 177.69 252.683 177.643 252.672L166.356 249.434C166.281 249.412 166.212 249.372 166.154 249.318C166.096 249.265 166.052 249.199 166.023 249.126C165.995 249.052 165.983 248.973 165.99 248.895C165.997 248.817 166.021 248.741 166.062 248.673L171.898 239.538C171.953 239.449 172.034 239.38 172.131 239.34C172.227 239.299 172.334 239.291 172.436 239.315L185.803 242.167C185.889 242.186 185.969 242.227 186.035 242.286C186.1 242.344 186.15 242.419 186.179 242.502C186.205 242.584 186.21 242.672 186.194 242.757C186.178 242.842 186.142 242.922 186.088 242.989L178.171 252.459C178.127 252.522 178.07 252.574 178.003 252.611C177.936 252.648 177.861 252.669 177.785 252.672ZM167.29 248.612L177.602 251.576L184.768 243.009L172.588 240.401L167.29 248.612Z" fill="#484646"/>
<path d="M166.488 248.917C166.488 248.917 161.037 255.271 161.301 256.022C161.565 256.773 184.646 265.492 185.661 263.807C186.676 262.122 177.754 252.124 177.754 252.124L166.488 248.917Z" fill="#484646"/>
<path d="M184.93 264.568C184.697 264.581 184.463 264.581 184.23 264.568C179.815 264.06 161.22 257.463 160.824 256.275C160.723 255.981 160.469 255.26 166.112 248.643C166.173 248.568 166.255 248.513 166.348 248.486C166.44 248.459 166.538 248.461 166.63 248.49L177.917 251.728C178.009 251.759 178.092 251.811 178.16 251.88C180.921 254.925 187.245 262.345 186.128 264.162C185.935 264.416 185.519 264.568 184.93 264.568ZM161.839 255.859C164.275 257.463 183.784 264.294 185.326 263.512C185.641 262.761 182.088 257.747 177.501 252.611L166.66 249.495C164.884 251.482 163.271 253.611 161.839 255.859Z" fill="#484646"/>
<path d="M177.166 182.576C177.166 182.576 202.642 206.936 203.353 212.702C204.063 218.467 183.763 247.628 183.763 247.628L168.538 241.122C168.538 241.122 185.631 219.472 182.109 213.026C178.587 206.581 159.586 195 159.586 195C159.586 195 147.355 222.039 139.286 226.231C131.217 230.423 97.6101 215.066 97.6101 215.066L104.512 201.151C104.512 201.151 126.771 209.342 130.953 205.8C135.135 202.257 141.854 169.645 141.854 169.645L177.166 182.576Z" fill="#484646"/>
<path d="M183.763 248.135C183.699 248.145 183.634 248.145 183.57 248.135L168.345 241.629C168.275 241.596 168.213 241.548 168.164 241.489C168.115 241.429 168.08 241.359 168.061 241.284C168.041 241.209 168.038 241.131 168.054 241.055C168.07 240.979 168.104 240.908 168.153 240.847C172.852 234.9 184.393 218.355 181.672 213.311C178.566 207.627 162.803 197.629 159.819 195.771C158.023 199.669 147.132 222.77 139.519 226.719C131.349 230.972 98.7773 216.153 97.3969 215.554C97.3355 215.525 97.2804 215.484 97.2351 215.433C97.1898 215.383 97.1551 215.324 97.133 215.259C97.1055 215.199 97.0913 215.133 97.0913 215.066C97.0913 215 97.1055 214.934 97.133 214.874L104.035 200.958C104.093 200.849 104.189 200.764 104.304 200.72C104.42 200.675 104.548 200.673 104.664 200.714C110.754 202.958 127.36 208.195 130.608 205.444C133.856 202.694 139.479 178.598 141.336 169.574C141.351 169.503 141.381 169.435 141.424 169.377C141.467 169.318 141.522 169.269 141.585 169.233C141.649 169.198 141.719 169.176 141.792 169.17C141.865 169.164 141.938 169.174 142.006 169.199L177.247 182.17C177.31 182.198 177.368 182.236 177.42 182.282C178.435 183.297 203.038 206.804 203.81 212.732C204.581 218.66 185.012 246.714 184.179 247.902C184.134 247.972 184.073 248.03 184 248.07C183.928 248.111 183.846 248.133 183.763 248.135ZM169.391 240.919L183.601 247.009C189.376 238.696 203.434 217.31 202.886 212.783C202.338 208.256 185.702 191.468 176.922 183.023L142.331 170.285C141.377 174.822 135.388 202.765 131.379 206.155C127.37 209.545 108.572 203.11 104.867 201.75L98.3916 214.792C102.502 216.63 131.887 229.551 139.154 225.795C146.959 221.735 159.089 195.071 159.21 194.797C159.24 194.731 159.283 194.673 159.338 194.625C159.392 194.578 159.456 194.543 159.525 194.523C159.589 194.496 159.658 194.481 159.728 194.481C159.798 194.481 159.867 194.496 159.931 194.523C160.713 195 179.084 206.266 182.637 212.793C185.976 218.944 172.04 237.488 169.391 240.919Z" fill="#484646"/>
<path d="M233.417 120.773C235.219 119.507 237.156 118.444 239.192 117.606C241.537 116.845 244.501 116.317 243.831 115.322C243.161 114.328 237.609 115.769 237.609 115.769C237.609 115.769 240.847 110.795 242.684 109.811C244.521 108.826 247.109 108.908 245.83 107.964C244.552 107.02 240.654 106.867 239.294 107.568C237.934 108.268 230.159 116.804 229.753 117.261C229.347 117.718 233.417 120.773 233.417 120.773Z" fill="white"/>
<path d="M233.417 121.28C233.308 121.278 233.202 121.242 233.112 121.179C230.585 119.281 229.266 117.982 229.164 117.413C229.153 117.327 229.16 117.239 229.185 117.155C229.209 117.071 229.251 116.993 229.306 116.926C229.377 116.845 237.426 107.913 239.01 107.121C240.593 106.33 244.592 106.472 246.064 107.558C246.226 107.669 246.693 108.025 246.602 108.573C246.51 109.121 245.871 109.314 244.917 109.588C244.216 109.757 243.535 110.002 242.887 110.318C241.77 110.927 239.903 113.363 238.746 115.028C240.908 114.541 243.608 114.165 244.227 115.099C244.321 115.217 244.385 115.357 244.413 115.505C244.441 115.654 244.433 115.807 244.389 115.952C244.115 116.703 242.948 117.078 240.908 117.667C240.39 117.809 239.893 117.972 239.355 118.134C237.367 118.937 235.474 119.958 233.711 121.179C233.627 121.245 233.524 121.281 233.417 121.28ZM230.281 117.403C231.247 118.407 232.3 119.324 233.427 120.144C235.173 118.92 237.053 117.898 239.03 117.099C239.548 116.926 240.045 116.774 240.623 116.622C241.638 116.317 243.252 115.86 243.425 115.525C243.039 115.241 240.38 115.525 237.741 116.226C237.641 116.254 237.535 116.25 237.437 116.216C237.339 116.182 237.254 116.119 237.193 116.035C237.132 115.951 237.099 115.85 237.097 115.746C237.095 115.642 237.125 115.541 237.183 115.454C237.315 115.251 240.512 110.379 242.42 109.364C243.143 109.002 243.906 108.726 244.694 108.542L245.435 108.329C243.557 107.529 241.457 107.421 239.507 108.025C238.37 108.603 231.58 115.952 230.281 117.403Z" fill="#484646"/>
<path d="M182.16 124.072C182.16 124.072 213.939 130.761 216.984 129.979L228.961 116.52L236.005 121.108C236.005 121.108 232.341 132.192 227.276 138.586C222.212 144.981 188.98 146.402 188.98 146.402L182.16 124.072Z" fill="#FF931E"/>
<path d="M182.616 116.845C180.69 116.679 178.824 116.086 177.156 115.109C175.723 114.217 174.495 113.032 173.55 111.633C172.606 110.234 171.967 108.652 171.675 106.989C170.676 106.863 169.713 106.54 168.842 106.038C167.97 105.536 167.207 104.865 166.598 104.064C165.988 103.264 165.544 102.35 165.292 101.376C165.04 100.402 164.984 99.3879 165.128 98.3922C166.333 98.7071 167.597 98.7257 168.811 98.4465C170.026 98.1672 171.154 97.5984 172.101 96.7885C170.918 96.8773 169.748 96.5036 168.835 95.7463C167.922 94.989 167.339 93.9071 167.209 92.7285C167.173 92.4627 167.212 92.1923 167.32 91.947C167.696 91.2466 168.721 91.3786 169.492 91.5511C173.319 92.3936 177.298 91.6628 181.134 90.8609C184.971 90.0591 188.889 89.1659 192.766 89.7038C198.329 90.4854 202.693 94.4743 201.8 100.341C201.564 102.357 201.073 104.336 200.338 106.228C199.962 106.86 199.457 107.407 198.856 107.832C195.75 110.42 193.568 114.226 189.721 115.952C187.465 116.84 185.022 117.147 182.616 116.845Z" fill="white"/>
<path d="M184.281 117.434C183.713 117.434 183.144 117.434 182.566 117.352C180.564 117.175 178.627 116.558 176.892 115.546C175.448 114.646 174.203 113.463 173.231 112.067C172.259 110.671 171.581 109.092 171.238 107.426C169.168 107.055 167.323 105.896 166.091 104.192C164.858 102.488 164.335 100.373 164.631 98.2907C164.644 98.2215 164.671 98.1559 164.711 98.0982C164.752 98.0404 164.804 97.9919 164.864 97.9558C164.923 97.916 164.99 97.8899 165.06 97.8794C165.13 97.8689 165.202 97.8742 165.27 97.8949C167.083 98.3586 169.006 98.1079 170.639 97.1945C169.85 97.012 169.115 96.6431 168.498 96.1186C167.986 95.7034 167.563 95.1891 167.254 94.6066C166.945 94.0241 166.757 93.3854 166.701 92.7285C166.665 92.3808 166.724 92.0296 166.874 91.7135C167.473 90.5869 169.015 90.9218 169.604 91.0538C173.258 91.8658 177.095 91.1857 181.033 90.3636L181.51 90.2621C185.205 89.4805 189.021 88.6685 192.837 89.2471C195.915 89.5834 198.733 91.1276 200.673 93.5405C201.4 94.5234 201.919 95.6442 202.198 96.8344C202.478 98.0246 202.511 99.2592 202.297 100.463C202.059 102.529 201.554 104.556 200.795 106.492C200.415 107.151 199.9 107.722 199.283 108.167L199.181 108.248C198.103 109.198 197.086 110.215 196.136 111.293C194.36 113.232 192.523 115.241 190.046 116.368C188.219 117.12 186.256 117.483 184.281 117.434ZM182.667 116.337C185.001 116.607 187.364 116.283 189.539 115.393C191.873 114.378 193.599 112.521 195.344 110.582C196.337 109.449 197.402 108.381 198.532 107.385L198.633 107.304C199.136 106.947 199.561 106.491 199.882 105.964C200.584 104.117 201.058 102.191 201.292 100.229C201.484 99.159 201.456 98.0609 201.21 97.0018C200.964 95.9426 200.505 94.9446 199.861 94.0683C198.982 92.9791 197.896 92.0741 196.667 91.4053C195.437 90.7365 194.087 90.3169 192.695 90.1707C189.062 89.6632 185.337 90.4448 181.723 91.1857L181.236 91.2872C177.176 92.1398 173.238 92.8402 169.381 91.9876C168.457 91.7846 167.929 91.8252 167.767 92.1297C167.726 92.2929 167.726 92.4638 167.767 92.627C167.88 93.6718 168.394 94.6321 169.2 95.306C170.006 95.9799 171.043 96.3148 172.091 96.2404C172.199 96.2304 172.309 96.2543 172.403 96.3088C172.498 96.3633 172.573 96.4458 172.619 96.5449C172.661 96.6445 172.671 96.7549 172.647 96.8605C172.624 96.9661 172.567 97.0616 172.487 97.1336C171.552 97.9382 170.448 98.5212 169.256 98.8394C168.064 99.1575 166.816 99.2024 165.605 98.9708C165.445 100.691 165.946 102.407 167.006 103.772C167.555 104.532 168.258 105.168 169.07 105.639C169.881 106.109 170.783 106.403 171.715 106.502C171.827 106.511 171.932 106.557 172.014 106.633C172.097 106.708 172.152 106.808 172.172 106.918C172.452 108.506 173.062 110.017 173.962 111.355C174.863 112.692 176.034 113.826 177.399 114.683C179.005 115.615 180.797 116.18 182.647 116.337H182.667Z" fill="#484646"/>
<path d="M201.028 108.299C201.028 108.299 204.023 113.81 203.221 114.835C202.419 115.86 200.105 114.927 200.105 114.927" fill="white"/>
<path d="M201.942 115.82C201.247 115.795 200.561 115.655 199.912 115.404C199.85 115.379 199.793 115.342 199.745 115.296C199.698 115.249 199.659 115.194 199.633 115.133C199.607 115.071 199.593 115.006 199.592 114.939C199.591 114.872 199.603 114.806 199.628 114.744C199.651 114.681 199.687 114.624 199.733 114.575C199.78 114.526 199.835 114.488 199.897 114.461C199.959 114.434 200.025 114.421 200.092 114.42C200.159 114.42 200.226 114.434 200.287 114.46C200.927 114.713 202.388 115.059 202.815 114.521C203.241 113.983 202.054 111.252 200.582 108.542C200.545 108.485 200.52 108.421 200.508 108.354C200.496 108.288 200.497 108.219 200.513 108.153C200.528 108.086 200.556 108.024 200.596 107.969C200.636 107.914 200.686 107.867 200.744 107.832C200.863 107.769 201.002 107.756 201.13 107.794C201.259 107.832 201.368 107.918 201.434 108.035C202.378 109.781 204.479 113.972 203.576 115.14C203.373 115.369 203.12 115.549 202.837 115.667C202.554 115.785 202.248 115.837 201.942 115.82Z" fill="#484646"/>
<path d="M200.886 101.336C202.916 103.366 201.962 107.05 201.729 109.517C201.404 112.974 200.998 116.429 200.511 119.88C200.206 122.062 194.512 121.615 193.568 120.895L193.467 128.203C193.467 128.203 191.792 132.1 187.377 129.583C182.962 127.066 182.16 124.072 182.16 124.072L183.398 114.084C183.398 114.084 187.153 114.429 189.762 110.146C192.371 105.863 192.868 98.9809 192.868 98.9809C192.868 98.9809 198.887 99.4072 200.886 101.336Z" fill="white"/>
<path d="M190.137 130.923C189.058 130.893 188.006 130.574 187.092 129.999C182.555 127.411 181.662 124.285 181.632 124.153C181.622 124.086 181.622 124.017 181.632 123.95L182.88 113.972C182.887 113.907 182.906 113.843 182.937 113.786C182.968 113.728 183.01 113.676 183.061 113.635C183.112 113.593 183.171 113.562 183.234 113.544C183.297 113.525 183.363 113.519 183.428 113.526C183.57 113.526 186.91 113.78 189.305 109.831C191.822 105.71 192.35 98.9606 192.35 98.8896C192.363 98.7558 192.427 98.6324 192.53 98.5452C192.632 98.4581 192.764 98.4142 192.898 98.4227C193.152 98.4227 199.13 98.9403 201.221 100.97C203.099 102.797 202.703 105.812 202.378 108.238C202.317 108.705 202.267 109.151 202.226 109.567C201.901 112.998 201.495 116.49 201.008 119.951C200.937 120.329 200.763 120.679 200.505 120.964C200.247 121.249 199.915 121.457 199.547 121.565C197.76 122.108 195.857 122.136 194.055 121.646L193.964 128.193C193.978 128.256 193.978 128.322 193.964 128.385C193.46 129.469 192.548 130.308 191.427 130.72C191.011 130.858 190.575 130.927 190.137 130.923ZM182.677 123.97C182.85 124.457 183.895 127.015 187.641 129.126C188.135 129.468 188.697 129.701 189.288 129.81C189.88 129.918 190.487 129.9 191.071 129.756C191.891 129.448 192.565 128.843 192.959 128.061L193.061 120.874C193.06 120.779 193.087 120.686 193.137 120.605C193.188 120.525 193.259 120.46 193.345 120.418C193.431 120.377 193.528 120.361 193.622 120.372C193.717 120.383 193.808 120.42 193.883 120.479C195.584 121.093 197.439 121.143 199.171 120.621C199.689 120.418 199.963 120.144 200.013 119.809C200.49 116.368 200.907 112.886 201.221 109.466C201.221 109.05 201.323 108.583 201.384 108.106C201.678 105.903 202.043 103.173 200.531 101.701C199.009 100.229 194.786 99.6711 193.325 99.4884C193.152 101.194 192.452 106.664 190.198 110.359C189.578 111.535 188.67 112.535 187.559 113.267C186.448 113.998 185.17 114.436 183.844 114.541L182.677 123.97Z" fill="#484646"/>
<path d="M200.653 117.292C200.653 117.292 197.831 118.713 196.593 115.81L200.653 117.292Z" fill="white"/>
<path d="M199.12 118.144C198.743 118.148 198.368 118.082 198.014 117.951C197.585 117.776 197.199 117.512 196.88 117.176C196.561 116.84 196.318 116.44 196.166 116.002C196.14 115.941 196.126 115.875 196.126 115.809C196.125 115.742 196.138 115.676 196.164 115.615C196.189 115.553 196.227 115.497 196.275 115.451C196.322 115.404 196.379 115.367 196.441 115.343C196.502 115.316 196.568 115.302 196.634 115.302C196.701 115.302 196.767 115.314 196.828 115.34C196.89 115.366 196.946 115.403 196.992 115.451C197.039 115.498 197.076 115.555 197.1 115.617C197.206 115.918 197.374 116.193 197.592 116.426C197.811 116.658 198.075 116.842 198.369 116.967C199.044 117.152 199.762 117.095 200.399 116.804C200.519 116.744 200.658 116.734 200.785 116.776C200.913 116.817 201.018 116.908 201.079 117.028C201.139 117.147 201.15 117.286 201.108 117.414C201.066 117.541 200.975 117.647 200.856 117.708C200.313 117.971 199.722 118.119 199.12 118.144Z" fill="#484646"/>
<path d="M194.187 109.943C194.164 109.07 193.901 108.22 193.426 107.487C193.137 106.872 192.757 106.304 192.299 105.802C192.07 105.552 191.788 105.357 191.474 105.231C191.159 105.104 190.821 105.05 190.482 105.071C190.182 105.126 189.897 105.245 189.646 105.421C189.396 105.596 189.186 105.823 189.031 106.086C188.713 106.593 188.515 107.166 188.452 107.761C188.281 109.06 188.456 110.381 188.958 111.591C189.461 112.801 190.274 113.857 191.315 114.653L191.142 114.429" fill="white"/>
<path d="M191.315 115.109C191.205 115.112 191.097 115.076 191.01 115.008C189.906 114.15 189.044 113.02 188.51 111.727C187.976 110.435 187.788 109.026 187.965 107.639C188.043 106.967 188.272 106.321 188.635 105.751C188.833 105.435 189.097 105.167 189.409 104.963C189.721 104.76 190.074 104.627 190.442 104.574C190.857 104.542 191.275 104.604 191.663 104.755C192.051 104.906 192.401 105.142 192.685 105.446C193.174 105.982 193.581 106.588 193.893 107.243C194.416 108.063 194.7 109.011 194.715 109.984C194.702 110.115 194.639 110.237 194.539 110.324C194.439 110.411 194.31 110.456 194.177 110.45C194.111 110.447 194.045 110.43 193.985 110.4C193.925 110.371 193.871 110.33 193.827 110.28C193.783 110.23 193.749 110.172 193.727 110.109C193.705 110.046 193.696 109.979 193.7 109.912C193.673 109.13 193.427 108.37 192.99 107.72C192.729 107.155 192.387 106.632 191.975 106.167C191.799 105.971 191.583 105.817 191.34 105.715C191.098 105.614 190.836 105.567 190.574 105.578C190.351 105.618 190.138 105.704 189.951 105.832C189.764 105.959 189.606 106.126 189.488 106.319C189.208 106.761 189.035 107.261 188.98 107.781C188.84 108.904 188.973 110.045 189.369 111.105C189.765 112.166 190.412 113.115 191.254 113.871C191.378 113.891 191.49 113.956 191.569 114.054L191.741 114.287C191.822 114.378 191.866 114.495 191.866 114.617C191.866 114.739 191.822 114.856 191.741 114.947C191.687 115.005 191.621 115.049 191.547 115.078C191.473 115.106 191.394 115.117 191.315 115.109Z" fill="#484646"/>
<path d="M193.568 120.874C191.924 120.185 190.515 119.036 189.508 117.566C189.508 117.566 189.254 122.864 193.639 124.772L193.568 120.874Z" fill="#484646"/>
<path d="M193.639 125.28C193.572 125.294 193.503 125.294 193.436 125.28C188.787 123.25 188.99 117.809 189.001 117.586C189.006 117.474 189.048 117.368 189.119 117.282C189.191 117.196 189.288 117.135 189.396 117.109C189.504 117.084 189.617 117.096 189.718 117.142C189.819 117.188 189.902 117.265 189.955 117.363C190.916 118.716 192.238 119.771 193.771 120.408C193.862 120.445 193.94 120.508 193.996 120.589C194.052 120.67 194.083 120.766 194.086 120.864L194.147 124.772C194.151 124.857 194.132 124.941 194.093 125.015C194.053 125.09 193.995 125.153 193.923 125.198C193.84 125.256 193.74 125.284 193.639 125.28ZM190.137 119.19C190.266 120.147 190.599 121.066 191.114 121.884C191.629 122.702 192.313 123.4 193.122 123.93V121.199C192.02 120.702 191.008 120.027 190.127 119.2L190.137 119.19Z" fill="#484646"/>
<path d="M199.75 105.855C199.921 105.193 199.849 104.602 199.589 104.534C199.328 104.467 198.978 104.949 198.806 105.611C198.635 106.273 198.707 106.864 198.967 106.931C199.228 106.999 199.578 106.517 199.75 105.855Z" fill="#484646"/>
<path d="M184.585 124.853C184.585 124.853 194.299 133.034 194.198 141.54C194.096 150.046 178.688 181.856 178.333 182.201C177.978 182.546 141.925 169.605 141.925 169.605C141.925 169.605 147.355 155.953 154.034 147.061C160.977 137.835 175.745 118.997 184.585 124.853Z" fill="#FF931E"/>
<path d="M238.157 159.505C233.691 158.876 230.88 156.46 230.555 151.974C229.966 143.986 226.688 137.114 223.237 130.04C210.478 103.843 225.571 72.0631 258.386 74.6615C280.635 76.4276 295.434 92.353 293.627 113.983C292.771 124.442 287.821 134.141 279.853 140.971C274.393 145.813 269.592 150.918 266.608 157.689C264.679 162.043 261.167 163.839 256.315 162.764C253.392 162.083 250.418 161.688 247.465 161.17C244.389 160.612 241.273 159.942 238.157 159.505Z" fill="white"/>
<path d="M259.005 163.555C258.061 163.549 257.121 163.433 256.204 163.21C254.174 162.753 252.144 162.408 250.114 162.083C249.2 161.931 248.297 161.789 247.394 161.627L244.47 161.089C242.379 160.703 240.228 160.297 238.106 160.003C233.255 159.323 230.392 156.491 230.068 152.005C229.479 143.945 226.089 136.993 222.81 130.263C216.071 116.449 216.801 100.656 224.718 89.0441C232.037 78.2952 244.003 73.0071 258.447 74.154C269.856 75.0574 279.691 79.7467 286.136 87.349C292.226 94.5251 295.007 103.751 294.155 114.023C293.248 124.6 288.234 134.401 280.188 141.327C275.468 145.509 270.221 150.756 267.074 157.871C265.42 161.627 262.659 163.555 259.005 163.555ZM238.228 158.998C240.37 159.302 242.542 159.698 244.633 160.094L247.546 160.622C248.449 160.784 249.353 160.926 250.256 161.079C252.286 161.414 254.387 161.749 256.427 162.226C261.015 163.241 264.283 161.688 266.141 157.486C269.368 150.188 274.717 144.849 279.518 140.586C283.428 137.256 286.642 133.186 288.974 128.61C291.307 124.034 292.712 119.042 293.109 113.922C293.941 103.924 291.262 94.9514 285.334 87.9783C279.062 80.5891 269.47 76.0318 258.335 75.1487C244.288 74.0424 232.635 79.2087 225.52 89.5922C217.816 100.899 217.116 116.307 223.683 129.796C227.012 136.607 230.443 143.661 231.052 151.913C231.346 155.973 233.823 158.369 238.218 159.018L238.228 158.998Z" fill="#484646"/>
<path d="M234.01 168.022L257.866 172.25C260.002 172.628 262.041 171.203 262.42 169.067L262.639 167.828C263.018 165.692 261.593 163.653 259.457 163.275L235.601 159.047C233.465 158.668 231.426 160.093 231.047 162.229L230.828 163.468C230.449 165.604 231.874 167.643 234.01 168.022Z" fill="white"/>
<path d="M258.599 172.792C258.337 172.792 258.076 172.771 257.818 172.731L233.955 168.498C233.38 168.399 232.831 168.187 232.34 167.873C231.848 167.559 231.424 167.151 231.093 166.671C230.421 165.708 230.158 164.519 230.362 163.362L230.585 162.124C230.791 160.967 231.447 159.939 232.41 159.265C233.373 158.591 234.564 158.327 235.721 158.531L259.584 162.753C260.741 162.959 261.769 163.615 262.443 164.578C263.116 165.541 263.38 166.732 263.177 167.889L262.964 169.138C262.777 170.16 262.238 171.085 261.441 171.752C260.644 172.42 259.639 172.787 258.599 172.792ZM234.94 159.475C234.138 159.479 233.363 159.763 232.75 160.279C232.136 160.794 231.722 161.508 231.58 162.297L231.367 163.535C231.286 163.978 231.294 164.432 231.39 164.871C231.487 165.311 231.669 165.727 231.926 166.096C232.184 166.465 232.512 166.779 232.891 167.021C233.271 167.262 233.694 167.426 234.138 167.504L257.95 171.777C258.392 171.856 258.845 171.846 259.283 171.75C259.721 171.653 260.136 171.471 260.504 171.213C260.872 170.956 261.185 170.628 261.426 170.249C261.667 169.871 261.831 169.448 261.908 169.006L262.131 167.767C262.288 166.874 262.084 165.955 261.565 165.211C261.046 164.467 260.253 163.96 259.36 163.799L235.498 159.597C235.298 159.549 235.094 159.522 234.889 159.516L234.94 159.475Z" fill="#484646"/>
<path d="M232.425 177.004L256.281 181.232C258.418 181.611 260.456 180.186 260.835 178.05L261.054 176.81C261.433 174.674 260.008 172.636 257.872 172.257L234.016 168.029C231.88 167.651 229.841 169.075 229.462 171.211L229.243 172.451C228.864 174.587 230.289 176.625 232.425 177.004Z" fill="white"/>
<path d="M256.955 181.815C256.696 181.817 256.438 181.793 256.184 181.744L232.321 177.522C231.163 177.313 230.135 176.657 229.459 175.695C229.122 175.218 228.884 174.679 228.759 174.109C228.633 173.539 228.623 172.95 228.728 172.376L228.941 171.137C229.043 170.563 229.256 170.015 229.57 169.524C229.884 169.032 230.291 168.608 230.769 168.274C231.247 167.94 231.786 167.704 232.355 167.579C232.925 167.454 233.513 167.442 234.087 167.544L257.95 171.777C259.108 171.985 260.136 172.643 260.809 173.607C261.483 174.572 261.747 175.764 261.543 176.923L261.319 178.161C261.134 179.184 260.596 180.111 259.799 180.778C259.001 181.446 257.995 181.813 256.955 181.815ZM233.305 168.488C232.504 168.492 231.729 168.776 231.116 169.292C230.502 169.807 230.088 170.521 229.946 171.31L229.723 172.558C229.569 173.45 229.774 174.367 230.293 175.108C230.812 175.85 231.603 176.356 232.493 176.517L256.356 180.749C257.249 180.903 258.167 180.698 258.91 180.18C259.653 179.661 260.161 178.87 260.325 177.978L260.538 176.73C260.617 176.288 260.608 175.835 260.511 175.396C260.414 174.958 260.232 174.543 259.974 174.175C259.717 173.807 259.389 173.494 259.011 173.253C258.632 173.012 258.209 172.849 257.767 172.771L233.904 168.539C233.706 168.507 233.506 168.49 233.305 168.488Z" fill="#484646"/>
<path d="M232.088 176.963C231.489 180.343 236.482 184.068 243.253 185.256C250.023 186.443 255.991 184.688 256.59 181.297L232.088 176.963Z" fill="white"/>
<path d="M247.434 186.149C245.994 186.142 244.558 186.01 243.141 185.753C240.067 185.275 237.141 184.105 234.584 182.333C232.311 180.648 231.235 178.709 231.539 176.872C231.564 176.74 231.64 176.624 231.75 176.548C231.86 176.472 231.996 176.442 232.128 176.466L256.64 180.8C256.771 180.829 256.887 180.905 256.965 181.013C257.003 181.067 257.03 181.128 257.043 181.193C257.057 181.257 257.058 181.324 257.046 181.389C256.569 184.332 252.621 186.149 247.434 186.149ZM232.524 177.562C232.524 178.851 233.468 180.242 235.183 181.521C237.613 183.194 240.388 184.301 243.303 184.759C249.322 185.824 254.864 184.434 255.91 181.714L232.524 177.562Z" fill="#484646"/>
<path d="M253.788 157.567C254.681 147.904 255.483 137.926 259.553 128.984C261.319 125.107 264.04 120.052 267.43 117.352C270.394 114.998 275.783 116.195 277.468 119.626C277.971 120.806 278.167 122.093 278.04 123.369C277.912 124.645 277.464 125.867 276.737 126.924C275.247 129.024 273.226 130.691 270.881 131.755C265.987 134.122 260.513 135.021 255.12 134.341C249.726 133.662 244.645 131.435 240.492 127.929C237.753 125.677 235.721 122.686 234.635 119.311C234.114 117.624 234 115.837 234.304 114.097C234.607 112.358 235.319 110.715 236.381 109.303C238.857 106.258 241.963 109.05 243.486 111.506C246.825 116.784 246.216 124.366 245.861 130.314C245.272 138.744 243.565 147.059 240.786 155.039" fill="white"/>
<path d="M253.788 158.094C253.654 158.082 253.531 158.017 253.444 157.915C253.357 157.813 253.313 157.68 253.321 157.546L253.412 156.633C254.072 149.437 254.742 142.037 256.823 135.044C253.174 134.803 249.603 133.877 246.297 132.314C245.581 140.122 243.918 147.815 241.344 155.222C241.3 155.348 241.209 155.452 241.089 155.511C240.969 155.569 240.831 155.579 240.705 155.537C240.578 155.493 240.474 155.402 240.414 155.282C240.353 155.163 240.341 155.025 240.38 154.897C242.978 147.442 244.638 139.692 245.323 131.826C243.503 130.857 241.8 129.682 240.248 128.325C237.434 126.015 235.348 122.941 234.239 119.474C233.696 117.709 233.579 115.839 233.898 114.02C234.217 112.201 234.964 110.484 236.076 109.009C236.418 108.523 236.875 108.13 237.407 107.866C237.938 107.602 238.528 107.475 239.121 107.497C241.588 107.649 243.516 110.41 244.054 111.252C247.333 116.459 246.896 123.757 246.541 129.614V130.365C246.541 130.649 246.541 130.943 246.541 131.227C249.894 132.881 253.547 133.841 257.28 134.049C257.848 132.257 258.526 130.501 259.31 128.791C261.878 123.138 264.577 119.159 267.328 116.977C268.171 116.365 269.138 115.947 270.16 115.75C271.183 115.554 272.236 115.584 273.246 115.84C274.227 116.075 275.148 116.515 275.947 117.13C276.746 117.746 277.407 118.524 277.884 119.413C278.435 120.67 278.655 122.048 278.521 123.415C278.388 124.781 277.907 126.091 277.123 127.218C275.58 129.404 273.476 131.133 271.033 132.222C266.914 134.274 262.346 135.262 257.746 135.095C255.635 142.068 254.955 149.497 254.295 156.724L254.214 157.638C254.206 157.751 254.159 157.858 254.082 157.941C254.004 158.025 253.901 158.079 253.788 158.094ZM258.132 134.09C262.471 134.203 266.771 133.252 270.657 131.319C272.923 130.301 274.875 128.696 276.311 126.67C276.99 125.687 277.41 124.548 277.533 123.36C277.655 122.171 277.476 120.971 277.011 119.87C276.554 119.107 275.947 118.445 275.227 117.923C274.507 117.402 273.689 117.032 272.822 116.835C271.955 116.639 271.057 116.62 270.182 116.781C269.308 116.941 268.475 117.277 267.734 117.769C265.115 119.799 262.517 123.706 260.01 129.218C259.291 130.804 258.664 132.431 258.132 134.09ZM238.847 108.502C238.443 108.524 238.05 108.639 237.698 108.838C237.346 109.037 237.045 109.314 236.817 109.649C235.81 110.998 235.136 112.567 234.85 114.227C234.564 115.887 234.675 117.591 235.173 119.2C236.236 122.475 238.215 125.378 240.877 127.563C242.267 128.777 243.785 129.835 245.404 130.72C245.404 130.578 245.404 130.446 245.404 130.304L245.455 129.553C245.8 123.838 246.226 116.723 243.11 111.8C242.146 110.268 240.552 108.603 238.979 108.512L238.847 108.502Z" fill="#D1D1D1"/>
<path d="M231.052 145.387L236.442 140.88C238.147 139.479 239.801 135.622 241.344 135.643C242.887 135.663 240.126 140.231 240.126 140.231C240.126 140.231 245.861 135.836 247.657 135.704C249.454 135.572 250.428 138.586 249.982 139.52C249.535 140.454 244.683 142.738 242.877 144.534C240.423 146.622 237.855 148.57 235.183 150.37" fill="white"/>
<path d="M235.194 150.878C235.111 150.877 235.03 150.856 234.958 150.818C234.885 150.779 234.823 150.723 234.777 150.655C234.703 150.544 234.675 150.408 234.7 150.277C234.724 150.146 234.8 150.03 234.909 149.954C237.551 148.171 240.093 146.243 242.522 144.179C243.829 143.058 245.243 142.069 246.744 141.225C247.744 140.693 248.677 140.046 249.525 139.297C249.588 138.893 249.569 138.482 249.47 138.086C249.371 137.69 249.193 137.318 248.947 136.993C248.825 136.761 248.645 136.567 248.424 136.427C248.203 136.288 247.949 136.21 247.688 136.201C246.49 136.282 242.613 138.962 240.441 140.626C240.349 140.7 240.234 140.741 240.116 140.741C239.998 140.741 239.884 140.7 239.791 140.626C239.703 140.548 239.645 140.441 239.628 140.323C239.611 140.206 239.637 140.087 239.7 139.987C240.715 138.302 241.456 136.495 241.294 136.11C240.685 136.11 239.69 137.581 238.888 138.718C238.289 139.661 237.577 140.527 236.767 141.296L231.387 145.793L230.728 145.021L236.117 140.515C236.856 139.8 237.507 138.999 238.056 138.129C239.132 136.597 240.147 135.155 241.334 135.155C241.503 135.148 241.67 135.188 241.817 135.27C241.964 135.353 242.085 135.475 242.167 135.622C242.512 136.231 242.167 137.409 241.629 138.515C243.517 137.165 246.338 135.308 247.607 135.216C248.046 135.206 248.48 135.315 248.862 135.531C249.245 135.747 249.561 136.063 249.779 136.445C250.13 136.913 250.37 137.455 250.483 138.03C250.595 138.605 250.577 139.197 250.429 139.764C250.165 140.332 249.109 140.992 247.262 142.118C245.819 142.915 244.459 143.853 243.202 144.92C240.731 147.028 238.142 148.994 235.447 150.807C235.37 150.852 235.283 150.876 235.194 150.878Z" fill="#484646"/>
<path d="M188.757 132.019C189.051 132.385 203.383 155.253 203.383 155.253L231.905 141.55L238.867 149.589C238.867 149.589 214.832 167.717 205.494 170.762C196.156 173.807 174.547 140.362 174.831 136.678C175.115 132.994 184.636 126.924 188.757 132.019Z" fill="#FF931E"/>
<path d="M203.383 155.76C203.298 155.762 203.214 155.741 203.139 155.7C203.064 155.659 203.001 155.599 202.957 155.527L189.985 134.881C189.921 134.769 189.902 134.635 189.933 134.509C189.964 134.383 190.042 134.273 190.152 134.203C190.261 134.133 190.393 134.107 190.521 134.131C190.648 134.156 190.762 134.228 190.838 134.333C191 134.577 201.779 151.741 203.566 154.633L218.608 146.767C218.728 146.705 218.867 146.693 218.996 146.734C219.124 146.775 219.231 146.866 219.293 146.985C219.355 147.105 219.367 147.245 219.326 147.373C219.285 147.502 219.195 147.609 219.075 147.67L203.617 155.79C203.537 155.8 203.457 155.79 203.383 155.76Z" fill="#484646"/>
<path d="M204.804 170.904C198.795 170.904 192.31 165.829 185.519 155.75C185.445 155.639 185.417 155.504 185.442 155.373C185.466 155.242 185.542 155.125 185.651 155.05C185.763 154.975 185.901 154.946 186.033 154.971C186.166 154.996 186.284 155.071 186.362 155.181C193.771 166.113 200.673 170.995 206.834 169.676C212.995 168.356 225.5 158.572 225.622 158.511C225.675 158.469 225.735 158.439 225.799 158.421C225.864 158.403 225.931 158.398 225.998 158.406C226.064 158.414 226.128 158.435 226.187 158.467C226.245 158.5 226.296 158.544 226.337 158.597C226.379 158.65 226.409 158.71 226.427 158.774C226.445 158.839 226.451 158.906 226.443 158.973C226.435 159.039 226.414 159.103 226.381 159.162C226.348 159.22 226.304 159.271 226.251 159.313C225.734 159.719 213.543 169.331 207.047 170.711C206.309 170.854 205.557 170.918 204.804 170.904Z" fill="#484646"/>
<path d="M193.893 127.117L193.213 129.147L194.888 131.329C194.888 131.329 191.609 148.279 166.234 134.76L158.114 137.683L162.946 144.26C162.946 144.26 193.396 155.973 195.74 131.522L196.167 128.791L193.893 127.117Z" fill="#484646"/>
<path d="M177.927 147.589C172.757 147.473 167.641 146.51 162.783 144.737C162.695 144.701 162.617 144.641 162.56 144.565L157.729 137.987C157.683 137.923 157.653 137.85 157.639 137.773C157.625 137.696 157.628 137.617 157.647 137.541C157.674 137.466 157.715 137.398 157.769 137.34C157.824 137.282 157.889 137.237 157.962 137.206L166.082 134.283C166.146 134.255 166.215 134.241 166.285 134.241C166.355 134.241 166.424 134.255 166.488 134.283C176.019 139.358 183.459 140.728 188.605 138.343C189.989 137.658 191.213 136.689 192.197 135.5C193.182 134.311 193.905 132.928 194.319 131.441L192.797 129.411C192.746 129.345 192.713 129.269 192.698 129.187C192.684 129.106 192.69 129.022 192.716 128.944L193.396 126.914C193.421 126.838 193.464 126.77 193.52 126.713C193.576 126.657 193.645 126.614 193.72 126.589C193.798 126.567 193.879 126.563 193.958 126.577C194.037 126.591 194.112 126.623 194.177 126.67L196.471 128.375C196.545 128.431 196.601 128.506 196.635 128.592C196.669 128.678 196.679 128.771 196.664 128.863L196.238 131.593C195.639 137.774 193.193 142.25 188.96 144.869C185.604 146.776 181.785 147.717 177.927 147.589ZM163.281 143.844C164.854 144.412 179.521 149.528 188.453 144.016C192.249 141.672 194.543 137.673 195.182 132.131C194.708 133.669 193.922 135.093 192.875 136.316C191.827 137.538 190.54 138.532 189.092 139.236C183.672 141.804 175.988 140.494 166.255 135.318L158.967 137.937L163.281 143.844ZM193.731 129.025L195.233 130.994V131.055L195.547 129.025L194.066 127.919L193.731 129.025Z" fill="#484646"/>
<path d="M94.0069 201.435C94.0069 201.435 84.6587 197.801 84.1411 198.146C83.6234 198.492 72.8543 214.752 74.8843 215.016C76.9143 215.28 89.6728 209.443 89.6728 209.443L94.0069 201.435Z" fill="#484646"/>
<path d="M74.9957 215.523H74.8232C74.6584 215.507 74.5033 215.438 74.3808 215.326C74.2583 215.215 74.175 215.067 74.1431 214.904C73.5341 212.336 83.745 197.811 83.8567 197.74C83.9683 197.669 84.6078 197.243 94.1894 200.968C94.2549 200.997 94.3139 201.039 94.3628 201.091C94.4117 201.143 94.4494 201.205 94.4736 201.273C94.5037 201.338 94.5192 201.409 94.5192 201.481C94.5192 201.553 94.5037 201.624 94.4736 201.689L90.1091 209.687C90.0555 209.783 89.9741 209.861 89.8756 209.91C88.6069 210.489 77.5434 215.523 74.9957 215.523ZM84.3642 198.634C83.8973 199.212 81.5729 202.623 79.2892 206.287C75.6047 212.306 75.1277 214.062 75.0871 214.518C76.8836 214.437 84.5672 211.209 89.2971 209.058L93.2657 201.699C90.3612 200.504 87.3889 199.48 84.3642 198.634Z" fill="#484646"/>
<path d="M153.039 99.4986C153.039 99.4986 135.277 97.0524 130.506 86.6385L118.397 102.462C118.397 102.462 127.218 118.804 142.757 116.672L153.039 99.4986Z" fill="white"/>
<path d="M140.027 117.373C126.05 117.373 118.032 102.858 117.951 102.696C117.898 102.614 117.87 102.519 117.87 102.422C117.87 102.325 117.898 102.23 117.951 102.148L130.1 86.3239C130.156 86.2553 130.228 86.2017 130.309 86.168C130.391 86.1343 130.479 86.1216 130.567 86.131C130.654 86.1426 130.736 86.1755 130.807 86.2269C130.878 86.2783 130.935 86.3465 130.973 86.4254C135.561 96.4637 152.928 98.9708 153.1 99.0012C153.183 99.0094 153.262 99.039 153.329 99.0871C153.397 99.1351 153.451 99.2 153.486 99.2753C153.526 99.3502 153.547 99.4339 153.547 99.5189C153.547 99.6038 153.526 99.6875 153.486 99.7625L143.194 116.967C143.155 117.032 143.102 117.088 143.039 117.13C142.976 117.172 142.904 117.2 142.828 117.21C141.899 117.323 140.963 117.377 140.027 117.373ZM119.006 102.493C120.255 104.624 128.7 117.911 142.453 116.216L152.207 99.8843C148.807 99.2956 135.125 96.4434 130.415 87.5926L119.006 102.493Z" fill="#D1D1D1"/>
<path d="M89.5508 160.439C89.5508 160.439 72.6917 151.172 56.5024 161.931L63.0695 184.058C63.0695 184.058 77.9798 172.893 89.5508 175.847V160.439Z" fill="white"/>
<path d="M63.0696 184.566C63.0159 184.575 62.9609 184.575 62.9072 184.566C62.8302 184.54 62.7605 184.496 62.704 184.438C62.6475 184.379 62.6058 184.308 62.5824 184.231L56.0255 162.104C55.9905 162 55.9916 161.887 56.0284 161.784C56.0652 161.681 56.1357 161.593 56.2285 161.535C72.4685 150.736 89.622 159.932 89.7946 160.033C89.8746 160.074 89.9416 160.137 89.9882 160.214C90.0348 160.291 90.0591 160.38 90.0584 160.47V175.837C90.0569 175.914 90.0378 175.989 90.0026 176.058C89.9675 176.127 89.9171 176.186 89.8555 176.233C89.7952 176.281 89.7242 176.315 89.6483 176.331C89.5724 176.347 89.4938 176.345 89.419 176.324C78.254 173.462 63.5162 184.342 63.3741 184.444C63.2865 184.513 63.1807 184.555 63.0696 184.566ZM57.1014 162.144L63.3538 183.226C66.2161 181.196 78.66 172.995 89.0434 175.207V160.754C86.8612 159.668 71.6565 152.715 57.1014 162.144Z" fill="#D1D1D1"/>
<path d="M86.7292 111.668C86.7292 111.668 86.6277 109.852 91.8042 109.476C94.8949 109.26 97.9546 110.209 100.381 112.135L86.7292 129.766C86.7292 129.766 83.7756 115.566 86.7292 111.668Z" fill="white"/>
<path d="M86.7292 130.273H86.6175C86.5227 130.254 86.4356 130.207 86.3671 130.138C86.2986 130.07 86.2516 129.983 86.2319 129.888C86.1101 129.299 83.3188 115.678 86.2319 111.496C86.3334 110.897 87.054 109.334 91.7331 108.989C94.96 108.752 98.1563 109.749 100.675 111.78C100.773 111.865 100.834 111.983 100.847 112.111C100.86 112.239 100.824 112.368 100.746 112.47L87.125 130.07C87.0805 130.134 87.0212 130.185 86.9522 130.221C86.8833 130.256 86.8067 130.274 86.7292 130.273ZM92.6568 109.973C92.3762 109.958 92.095 109.958 91.8144 109.973C88.1401 110.237 87.2671 111.283 87.2367 111.658C87.2391 111.768 87.2032 111.876 87.1352 111.963C84.8109 115.008 86.4044 125.158 87.0134 128.548L99.64 112.217C97.6016 110.758 95.163 109.964 92.6568 109.943V109.973Z" fill="#D1D1D1"/>
<path d="M86.7293 111.668L78.4368 128.619C80.8526 132.626 84.3211 135.895 88.465 138.069L96.585 122.844C96.585 122.844 87.8661 119.068 86.7293 111.668Z" fill="white"/>
<path d="M88.4649 138.576C88.38 138.575 88.2965 138.554 88.2213 138.515C83.9855 136.303 80.4444 132.963 77.9901 128.863C77.955 128.79 77.9368 128.71 77.9368 128.629C77.9368 128.548 77.955 128.468 77.9901 128.396L86.2826 111.445C86.329 111.348 86.4052 111.268 86.5001 111.217C86.595 111.166 86.7037 111.146 86.8104 111.161C86.9183 111.175 87.0185 111.225 87.0955 111.302C87.1725 111.379 87.2221 111.479 87.2367 111.587C88.3228 118.621 96.7067 122.356 96.798 122.397C96.861 122.425 96.9177 122.466 96.9648 122.516C97.0119 122.567 97.0483 122.626 97.0721 122.691C97.123 122.822 97.123 122.967 97.0721 123.097L88.9521 138.322C88.9038 138.407 88.8322 138.476 88.7458 138.521C88.6594 138.566 88.5619 138.585 88.4649 138.576ZM79.0152 128.599C81.3044 132.257 84.4817 135.278 88.2517 137.378L95.8845 123.057C94.1083 122.184 88.2314 118.895 86.5465 113.16L79.0152 128.599Z" fill="#D1D1D1"/>
<path d="M233.305 191.772C233.305 191.772 232.077 194.817 227.621 197.355C223.165 199.892 216.527 197.355 216.527 197.355L218.182 211.839C218.182 211.839 223.988 214.498 232.118 210.824C240.248 207.149 240.573 203.364 240.573 203.364L233.305 191.772Z" fill="white"/>
<path d="M223.561 213.29C221.652 213.324 219.754 212.979 217.979 212.275C217.899 212.238 217.831 212.181 217.779 212.11C217.728 212.039 217.695 211.956 217.685 211.869L216.02 197.375C216.012 197.289 216.026 197.202 216.059 197.123C216.093 197.043 216.146 196.973 216.213 196.918C216.283 196.865 216.365 196.831 216.452 196.818C216.539 196.806 216.628 196.816 216.71 196.847C216.771 196.847 223.176 199.283 227.368 196.847C231.56 194.411 232.818 191.549 232.828 191.518C232.866 191.434 232.925 191.362 233 191.308C233.075 191.255 233.163 191.222 233.255 191.214C233.348 191.203 233.443 191.219 233.528 191.26C233.612 191.301 233.683 191.367 233.732 191.447L241.009 203.059C241.063 203.151 241.087 203.257 241.08 203.364C241.08 203.536 240.624 207.525 232.321 211.25C229.579 212.545 226.593 213.241 223.561 213.29ZM218.659 211.484C219.846 211.92 225.053 213.463 231.854 210.387C238.654 207.312 239.812 204.196 239.974 203.485L233.275 192.787C231.902 194.885 230.024 196.606 227.814 197.791C224.059 199.933 218.984 198.695 217.065 198.086L218.659 211.484Z" fill="#D1D1D1"/>
<path d="M290.632 151.05C286.946 153.808 284.322 157.75 283.203 162.215L304.721 162.429C304.721 162.429 293.718 151.101 290.632 151.05Z" fill="white"/>
<path d="M304.721 162.916L283.203 162.703C283.126 162.704 283.051 162.687 282.982 162.653C282.913 162.62 282.853 162.571 282.807 162.51C282.758 162.451 282.725 162.382 282.709 162.308C282.693 162.234 282.695 162.157 282.716 162.083C283.842 157.492 286.543 153.44 290.349 150.634C290.434 150.58 290.532 150.548 290.633 150.543C293.84 150.604 303.95 160.886 305.086 162.053C305.156 162.125 305.204 162.215 305.223 162.314C305.241 162.412 305.23 162.514 305.191 162.606C305.152 162.698 305.087 162.777 305.003 162.832C304.919 162.887 304.821 162.916 304.721 162.916ZM283.863 161.698L303.503 161.891C299.199 157.567 292.917 151.883 290.775 151.568C287.454 154.126 285.034 157.673 283.863 161.698Z" fill="#D1D1D1"/>
<path d="M316.911 165.169C316.911 165.169 321.935 155.648 308.608 147.914L290.633 151.05C290.633 151.05 307.482 155.973 297.342 172L316.911 165.169Z" fill="white"/>
<path d="M297.342 172.508C297.266 172.506 297.191 172.489 297.122 172.455C297.054 172.422 296.994 172.374 296.946 172.315C296.886 172.228 296.854 172.125 296.854 172.02C296.854 171.915 296.886 171.812 296.946 171.726C299.991 166.935 300.843 162.703 299.504 159.16C297.413 153.618 290.582 151.558 290.521 151.538C290.454 151.534 290.389 151.518 290.329 151.489C290.268 151.461 290.214 151.421 290.169 151.371C290.079 151.271 290.032 151.139 290.039 151.005C290.042 150.938 290.058 150.873 290.087 150.812C290.116 150.752 290.156 150.698 290.205 150.653C290.255 150.609 290.313 150.574 290.375 150.552C290.438 150.529 290.505 150.519 290.572 150.523L308.557 147.376C308.676 147.357 308.798 147.378 308.902 147.437C316.007 151.497 317.906 156.176 318.291 159.353C318.572 161.405 318.258 163.493 317.388 165.372C317.361 165.429 317.323 165.48 317.276 165.522C317.229 165.564 317.174 165.596 317.114 165.616L297.545 172.447C297.482 172.481 297.413 172.501 297.342 172.508ZM292.531 151.193C294.855 152.208 298.824 154.532 300.417 158.754C301.757 162.307 301.117 166.428 298.509 171.015L316.545 164.722C317.154 163.393 320.23 155.293 308.517 148.401L292.531 151.193Z" fill="#D1D1D1"/>
<path d="M134.343 151.02C131.414 149.006 127.893 148.033 124.345 148.259C118.631 148.736 116.814 145.691 116.814 145.691L114.114 156.41C114.114 156.41 117.159 160.175 119.869 160.267C122.579 160.358 124.721 158.643 129.106 160.267L134.343 151.02Z" fill="white"/>
<path d="M120.082 160.774H119.849C116.986 160.673 113.86 156.897 113.759 156.714C113.708 156.653 113.672 156.58 113.655 156.503C113.637 156.425 113.638 156.345 113.657 156.268L116.357 145.549C116.379 145.451 116.431 145.363 116.506 145.295C116.58 145.228 116.674 145.186 116.773 145.174C116.872 145.154 116.974 145.166 117.065 145.208C117.156 145.25 117.231 145.32 117.281 145.407C117.352 145.519 119.047 148.178 124.325 147.742C127.999 147.491 131.65 148.496 134.678 150.594C134.777 150.668 134.845 150.776 134.871 150.897C134.897 151.018 134.879 151.145 134.82 151.253L129.572 160.5C129.513 160.603 129.419 160.681 129.308 160.722C129.197 160.762 129.075 160.763 128.963 160.723C126.935 159.949 124.713 159.843 122.62 160.419C121.788 160.625 120.938 160.744 120.082 160.774ZM114.672 156.278C115.322 157.019 117.798 159.688 119.879 159.759C120.724 159.753 121.566 159.647 122.386 159.444C124.521 158.873 126.777 158.944 128.872 159.647L133.673 151.182C130.91 149.417 127.659 148.571 124.386 148.767C120.326 149.112 118.072 147.752 117.068 146.737L114.672 156.278Z" fill="#D1D1D1"/>
</svg>
