<svg width="150" height="150" viewBox="0 0 150 150" fill="none" xmlns="http://www.w3.org/2000/svg">
<path d="M141.778 129.139L141.949 128.828C139.659 127.61 136.808 126.094 135.319 123.607C133.851 121.154 133.819 117.824 135.233 114.916C136.437 112.44 138.649 110.223 141.629 108.502C142.217 108.163 142.834 107.841 143.43 107.53C144.873 106.779 146.364 106.001 147.594 104.898C149.288 103.379 150.57 100.83 149.614 98.5598C149.3 97.8351 148.786 97.2115 148.129 96.7599C147.473 96.3082 146.701 96.0466 145.901 96.0048L145.881 96.3575C146.614 96.3957 147.321 96.6352 147.922 97.0487C148.524 97.4623 148.995 98.0334 149.284 98.6972C150.171 100.807 148.953 103.202 147.352 104.638C146.156 105.71 144.685 106.477 143.262 107.218C142.662 107.531 142.042 107.855 141.447 108.198C138.405 109.954 136.144 112.224 134.909 114.763C133.444 117.776 133.482 121.233 135.01 123.786C136.549 126.358 139.449 127.9 141.778 129.139Z" fill="#F1F1F1"/>
<path d="M143.624 97.8665C145.36 97.8665 146.767 97.1944 146.767 96.3653C146.767 95.5362 145.36 94.8641 143.624 94.8641C141.889 94.8641 140.481 95.5362 140.481 96.3653C140.481 97.1944 141.889 97.8665 143.624 97.8665Z" fill="#F1F1F1"/>
<path d="M141.11 107.756C142.846 107.756 144.253 107.084 144.253 106.255C144.253 105.426 142.846 104.754 141.11 104.754C139.374 104.754 137.967 105.426 137.967 106.255C137.967 107.084 139.374 107.756 141.11 107.756Z" fill="#F1F1F1"/>
<path d="M146.857 109.346C148.593 109.346 150 108.674 150 107.845C150 107.016 148.593 106.344 146.857 106.344C145.121 106.344 143.714 107.016 143.714 107.845C143.714 108.674 145.121 109.346 146.857 109.346Z" fill="#F1F1F1"/>
<path d="M137.877 117.647C139.613 117.647 141.02 116.975 141.02 116.145C141.02 115.316 139.613 114.644 137.877 114.644C136.142 114.644 134.734 115.316 134.734 116.145C134.734 116.975 136.142 117.647 137.877 117.647Z" fill="#F1F1F1"/>
<path d="M131.592 117.647C133.327 117.647 134.735 116.975 134.735 116.145C134.735 115.316 133.327 114.644 131.592 114.644C129.856 114.644 128.449 115.316 128.449 116.145C128.449 116.975 129.856 117.647 131.592 117.647Z" fill="#F1F1F1"/>
<path d="M24.6557 98.4775H13.5038C13.2018 98.4771 12.9123 98.359 12.6988 98.1491C12.4852 97.9391 12.3651 97.6544 12.3647 97.3574V61.2238C12.3651 60.9268 12.4852 60.6421 12.6988 60.4322C12.9123 60.2222 13.2018 60.1041 13.5038 60.1038H24.6557C24.9577 60.1041 25.2472 60.2222 25.4607 60.4322C25.6743 60.6421 25.7944 60.9268 25.7948 61.2238V97.3574C25.7944 97.6544 25.6743 97.9391 25.4607 98.1491C25.2472 98.359 24.9577 98.4771 24.6557 98.4775Z" fill="#03DAC5"/>
<path d="M44.9926 98.4774H33.8407C33.5387 98.4771 33.2492 98.359 33.0357 98.149C32.8221 97.939 32.702 97.6543 32.7017 97.3574V46.885C32.702 46.5881 32.8221 46.3034 33.0357 46.0934C33.2492 45.8835 33.5387 45.7653 33.8407 45.765H44.9926C45.2946 45.7653 45.5841 45.8835 45.7977 46.0934C46.0112 46.3034 46.1313 46.5881 46.1317 46.885V97.3574C46.1313 97.6543 46.0112 97.939 45.7977 98.149C45.5841 98.359 45.2946 98.4771 44.9926 98.4774Z" fill="#03DAC5"/>
<path d="M65.3295 98.4775H54.1776C53.8757 98.4771 53.5861 98.359 53.3726 98.1491C53.1591 97.9391 53.0389 97.6544 53.0386 97.3574V61.2238C53.0389 60.9268 53.1591 60.6421 53.3726 60.4322C53.5861 60.2222 53.8757 60.1041 54.1776 60.1038H65.3295C65.6315 60.1041 65.921 60.2222 66.1346 60.4322C66.3481 60.6421 66.4682 60.9268 66.4686 61.2238V97.3574C66.4682 97.6544 66.3481 97.9391 66.1346 98.1491C65.921 98.359 65.6315 98.4771 65.3295 98.4775Z" fill="#03DAC5"/>
<path d="M85.6664 98.4774H74.5146C74.2195 98.4836 73.9339 98.3746 73.7204 98.1742C73.5068 97.9738 73.3828 97.6983 73.3755 97.4081V41.1743C73.3828 40.8841 73.5068 40.6086 73.7204 40.4082C73.9339 40.2078 74.2195 40.0987 74.5146 40.105H85.6664C85.9615 40.0987 86.2471 40.2078 86.4606 40.4082C86.6741 40.6086 86.7982 40.8841 86.8055 41.1743V97.4081C86.7982 97.6983 86.6741 97.9738 86.4606 98.1742C86.2471 98.3746 85.9615 98.4836 85.6664 98.4774Z" fill="#03DAC5"/>
<path d="M106.003 98.4773H94.8515C94.5495 98.4769 94.26 98.3588 94.0464 98.1489C93.8329 97.9389 93.7128 97.6542 93.7124 97.3573V31.0369C93.7128 30.7399 93.8329 30.4552 94.0464 30.2453C94.26 30.0353 94.5495 29.9172 94.8515 29.9169H106.003C106.305 29.9172 106.595 30.0353 106.808 30.2453C107.022 30.4552 107.142 30.7399 107.142 31.0369V97.3573C107.142 97.6542 107.022 97.9389 106.808 98.1489C106.595 98.3588 106.305 98.4769 106.003 98.4773Z" fill="#03DAC5"/>
<path d="M19.0801 55.5756C20.3516 55.5756 21.3824 54.562 21.3824 53.3116C21.3824 52.0612 20.3516 51.0476 19.0801 51.0476C17.8086 51.0476 16.7778 52.0612 16.7778 53.3116C16.7778 54.562 17.8086 55.5756 19.0801 55.5756Z" fill="#3F3D56"/>
<path d="M39.417 40.8597C40.6886 40.8597 41.7193 39.846 41.7193 38.5957C41.7193 37.3453 40.6886 36.3317 39.417 36.3317C38.1455 36.3317 37.1147 37.3453 37.1147 38.5957C37.1147 39.846 38.1455 40.8597 39.417 40.8597Z" fill="#3F3D56"/>
<path d="M59.7539 55.5756C61.0255 55.5756 62.0562 54.562 62.0562 53.3116C62.0562 52.0612 61.0255 51.0476 59.7539 51.0476C58.4824 51.0476 57.4517 52.0612 57.4517 53.3116C57.4517 54.562 58.4824 55.5756 59.7539 55.5756Z" fill="#3F3D56"/>
<path d="M80.0904 33.6902C81.3619 33.6902 82.3927 32.6766 82.3927 31.4262C82.3927 30.1759 81.3619 29.1622 80.0904 29.1622C78.8189 29.1622 77.7881 30.1759 77.7881 31.4262C77.7881 32.6766 78.8189 33.6902 80.0904 33.6902Z" fill="#3F3D56"/>
<path d="M100.427 25.389C101.699 25.389 102.73 24.3753 102.73 23.125C102.73 21.8746 101.699 20.861 100.427 20.861C99.1558 20.861 98.125 21.8746 98.125 23.125C98.125 24.3753 99.1558 25.389 100.427 25.389Z" fill="#3F3D56"/>
<path d="M119.071 98.8978H0.179595C0.131963 98.8978 0.0862826 98.8792 0.052602 98.846C0.0189214 98.8129 0 98.768 0 98.7212C0 98.6743 0.0189214 98.6294 0.052602 98.5963C0.0862826 98.5632 0.131963 98.5446 0.179595 98.5446H119.071C119.119 98.5446 119.165 98.5632 119.198 98.5963C119.232 98.6294 119.251 98.6743 119.251 98.7212C119.251 98.768 119.232 98.8129 119.198 98.846C119.165 98.8792 119.119 98.8978 119.071 98.8978Z" fill="#CBCBCB"/>
<path d="M148.705 129.098H90.516C90.4684 129.098 90.4227 129.079 90.389 129.046C90.3553 129.013 90.3364 128.968 90.3364 128.921C90.3364 128.874 90.3553 128.829 90.389 128.796C90.4227 128.763 90.4684 128.745 90.516 128.745H148.705C148.752 128.745 148.798 128.763 148.832 128.796C148.865 128.829 148.884 128.874 148.884 128.921C148.884 128.968 148.865 129.013 148.832 129.046C148.798 129.079 148.752 129.098 148.705 129.098Z" fill="#CBCBCB"/>
<path d="M111.337 96.0271C111.485 95.8828 111.599 95.7084 111.671 95.5162C111.742 95.324 111.77 95.1186 111.753 94.9146C111.735 94.7106 111.672 94.5129 111.568 94.3355C111.464 94.158 111.322 94.0051 111.152 93.8874L111.858 90.7633L110.032 89.8783L109.098 94.3039C108.916 94.5986 108.85 94.9486 108.913 95.2877C108.976 95.6268 109.163 95.9314 109.439 96.1438C109.715 96.3563 110.061 96.4617 110.411 96.4402C110.761 96.4187 111.09 96.2717 111.337 96.0271Z" fill="#FFB7B7"/>
<path d="M131.305 96.0957C131.441 95.9405 131.541 95.758 131.597 95.5609C131.653 95.3638 131.665 95.1569 131.631 94.9549C131.598 94.7529 131.519 94.5605 131.402 94.3915C131.284 94.2225 131.131 94.0808 130.951 93.9765L131.41 90.808L129.52 90.0646L128.936 94.548C128.778 94.8556 128.74 95.2096 128.83 95.5429C128.919 95.8762 129.13 96.1657 129.422 96.3564C129.714 96.5472 130.067 96.626 130.414 96.5779C130.761 96.5299 131.078 96.3583 131.305 96.0956L131.305 96.0957Z" fill="#FFB7B7"/>
<path d="M117.071 127.193L115.209 127.193L114.323 120.13L117.071 120.13L117.071 127.193Z" fill="#FFB7B7"/>
<path d="M117.546 128.968L111.542 128.968V128.893C111.542 128.283 111.788 127.699 112.227 127.268C112.665 126.837 113.259 126.595 113.879 126.595H113.879L117.546 126.595L117.546 128.968Z" fill="#2F2E41"/>
<path d="M123.299 127.193L121.437 127.193L120.551 120.13L123.299 120.13L123.299 127.193Z" fill="#FFB7B7"/>
<path d="M123.773 128.968L117.769 128.968V128.893C117.769 128.283 118.015 127.699 118.454 127.268C118.892 126.837 119.486 126.595 120.106 126.595H120.106L123.773 126.595L123.773 128.968Z" fill="#2F2E41"/>
<path d="M127.047 67.7734L129.055 67.0609C129.055 67.0609 129.907 67.2389 129.907 69.5115C129.907 71.7842 132.17 92.9796 132.17 92.9796L128.209 94.0052L125.971 73.896L127.047 67.7734Z" fill="#2F2E41"/>
<path d="M113.631 67.7734L111.623 67.0609C111.623 67.0609 110.771 67.2389 110.771 69.5115C110.771 71.7842 108.507 92.9796 108.507 92.9796L112.468 94.0052L114.707 73.896L113.631 67.7734Z" fill="#2F2E41"/>
<path d="M113.656 91.947L113.107 107.869L114.322 125.481L117.453 125.552L117.909 109.123L120.491 100.908L120.23 125.12L123.775 125.078L125.971 108.421C125.971 108.421 128.871 94.6354 127.263 91.947L119.858 89.5255L113.656 91.947Z" fill="#2F2E41"/>
<path d="M113.716 90.0285L113.538 93.8586C113.538 93.8586 116.036 95.0812 120.428 94.3364C124.819 93.5917 127.738 94.0826 127.738 94.0826L127.401 89.2002L113.716 90.0285Z" fill="#E5E5E5"/>
<path d="M111.542 67.1176L117.317 64.6292L117.662 63.3259L123.279 63.486L123.522 64.8174L129.055 67.061L126.617 75.3964L126.867 81.2601L129.907 91.9471C129.907 91.9471 127.343 94.0884 121.183 93.1671L120.12 91.0609L119.47 93.2883C119.47 93.2883 114.068 95.2423 112.571 92.6986L113.656 74.3233L111.542 67.1176Z" fill="#2F2E41"/>
<path d="M120.42 62.1015C122.48 62.1015 124.15 60.4591 124.15 58.4332C124.15 56.4072 122.48 54.7649 120.42 54.7649C118.36 54.7649 116.689 56.4072 116.689 58.4332C116.689 60.4591 118.36 62.1015 120.42 62.1015Z" fill="#FFB7B7"/>
<path d="M124.852 57.0117C124.785 56.7131 124.657 56.4312 124.475 56.1834C124.402 55.4981 124.17 54.8385 123.796 54.256C123.649 53.9831 123.441 53.7468 123.187 53.5652C122.896 53.4006 122.565 53.3192 122.229 53.3304C122.169 53.3294 122.059 53.3475 121.961 53.352C121.898 53.3328 121.834 53.3157 121.771 53.2996C121.733 53.2182 121.66 52.9811 121.639 52.9971L121.361 53.2142C121.244 53.1942 121.126 53.1785 121.007 53.1661C120.964 53.0451 120.921 52.924 120.878 52.803C120.808 52.9113 120.746 53.0247 120.694 53.1423C120.576 53.1366 120.458 53.1346 120.34 53.1363L120.104 52.9132C120.09 52.9754 120.058 53.0323 120.011 53.0769C119.965 53.1214 119.907 53.1518 119.843 53.1642C119.734 53.1751 119.626 53.1895 119.518 53.2065C119.51 53.2065 119.501 53.2065 119.492 53.2063C118.91 53.192 118.285 53.1664 117.798 53.4804C117.571 53.6341 117.385 53.8408 117.259 54.0822C117.2 54.122 117.14 54.1615 117.082 54.2037C116.887 54.3345 116.718 54.4994 116.583 54.6901C116.485 54.8545 116.411 55.0315 116.362 55.2161C116.177 55.7714 116.091 56.3543 116.108 56.9386C116.128 57.527 116.354 58.0905 116.747 58.5341C116.997 58.7977 117.314 58.9923 117.564 59.2556C118.078 59.7976 118.174 60.5536 118.614 61.1271C119.079 61.7337 119.929 62.1329 120.675 62.2473C121.123 62.3137 121.58 62.2924 122.02 62.1845C122.46 62.0766 122.874 61.8842 123.238 61.6185C123.413 61.4988 123.562 61.3458 123.675 61.1684C123.934 60.7281 123.824 60.1747 123.92 59.675C124.1 58.7383 125.009 57.9523 124.852 57.0117Z" fill="#2F2E41"/>
<path d="M18.9571 53.4533L18.7427 53.17L39.4169 38.0342L59.688 52.9028L80.2365 30.9638L80.2733 30.949L100.216 22.8552L100.353 23.1818L80.447 31.2605L59.7327 53.3763L39.4167 38.4746L18.9571 53.4533Z" fill="#3F3D56"/>
</svg>
