<svg width="150" height="150" viewBox="0 0 150 150" fill="none" xmlns="http://www.w3.org/2000/svg">
<path d="M80.5048 12.7178C80.292 12.2119 79.9358 11.7796 79.4803 11.4743C79.0247 11.169 78.4898 11.0041 77.9417 11H26.7736C26.0381 11.0004 25.3328 11.2932 24.8128 11.814C24.2927 12.3349 24.0004 13.0412 24 13.7778V78.6081C24.0004 79.3447 24.2927 80.051 24.8128 80.5719C25.3328 81.0927 26.0381 81.3855 26.7736 81.3859H77.9417C78.677 81.3849 79.3819 81.0919 79.9019 80.5712C80.4218 80.0505 80.7143 79.3445 80.7153 78.6081V13.7787C80.7166 13.4146 80.645 13.0538 80.5048 12.7178ZM80.0994 78.6076C80.0983 79.18 79.8707 79.7287 79.4666 80.1334C79.0625 80.5382 78.5147 80.766 77.9432 80.7672H26.7736C26.2017 80.7672 25.6533 80.5396 25.2489 80.1347C24.8445 79.7297 24.6173 79.1804 24.6173 78.6076V13.7787C24.6185 13.2063 24.846 12.6577 25.2501 12.253C25.6543 11.8482 26.202 11.6203 26.7736 11.6192H77.9417C78.3729 11.621 78.7938 11.7515 79.1506 11.994C79.5073 12.2365 79.7838 12.58 79.9447 12.9807C79.976 13.0604 80.0031 13.1417 80.0258 13.2243C80.0749 13.4061 80.0998 13.5937 80.0998 13.782L80.0994 78.6076Z" fill="#68E9DC"/>
<path d="M69.8259 26.3072H54.4137C54.0867 26.3072 53.7731 26.1771 53.5418 25.9455C53.3106 25.714 53.1807 25.3998 53.1807 25.0723C53.1807 24.7448 53.3106 24.4307 53.5418 24.1991C53.7731 23.9675 54.0867 23.8374 54.4137 23.8374H69.8254C70.1483 23.8437 70.4558 23.9766 70.6819 24.2075C70.908 24.4384 71.0346 24.7489 71.0346 25.0723C71.0346 25.3957 70.908 25.7062 70.6819 25.9371C70.4558 26.1681 70.1483 26.3009 69.8254 26.3072H69.8259Z" fill="#68E9DC"/>
<path d="M69.8259 32.7906H54.4137C54.0867 32.7906 53.7731 32.6605 53.5418 32.4289C53.3106 32.1974 53.1807 31.8832 53.1807 31.5557C53.1807 31.2282 53.3106 30.9141 53.5418 30.6825C53.7731 30.4509 54.0867 30.3208 54.4137 30.3208H69.8254C70.1483 30.3271 70.4558 30.46 70.6819 30.6909C70.908 30.9218 71.0346 31.2323 71.0346 31.5557C71.0346 31.8791 70.908 32.1896 70.6819 32.4206C70.4558 32.6515 70.1483 32.7843 69.8254 32.7906H69.8259Z" fill="#68E9DC"/>
<path d="M46.5077 36.4819H35.2425C34.8747 36.4816 34.5222 36.3351 34.2621 36.0747C34.0021 35.8142 33.8558 35.4611 33.8555 35.0928V21.7812C33.8558 21.4129 34.0021 21.0598 34.2621 20.7994C34.5222 20.5389 34.8747 20.3925 35.2425 20.3921H46.5077C46.8754 20.3926 47.2279 20.5391 47.4879 20.7995C47.7479 21.0599 47.8942 21.413 47.8947 21.7812V35.0928C47.8943 35.4611 47.7481 35.8142 47.4881 36.0747C47.228 36.3351 46.8755 36.4816 46.5077 36.4819Z" fill="#68E9DC"/>
<path d="M69.718 46.065H34.8873C34.5603 46.065 34.2467 45.9349 34.0154 45.7034C33.7842 45.4718 33.6543 45.1577 33.6543 44.8301C33.6543 44.5026 33.7842 44.1885 34.0154 43.9569C34.2467 43.7253 34.5603 43.5952 34.8873 43.5952H69.718C70.0451 43.5952 70.3587 43.7253 70.5899 43.9569C70.8211 44.1885 70.9511 44.5026 70.9511 44.8301C70.9511 45.1577 70.8211 45.4718 70.5899 45.7034C70.3587 45.9349 70.0451 46.065 69.718 46.065Z" fill="#68E9DC"/>
<path d="M69.718 52.5502H34.8873C34.5603 52.5502 34.2467 52.4201 34.0154 52.1885C33.7842 51.9569 33.6543 51.6428 33.6543 51.3153C33.6543 50.9877 33.7842 50.6736 34.0154 50.442C34.2467 50.2104 34.5603 50.0803 34.8873 50.0803H69.718C70.0451 50.0803 70.3587 50.2104 70.5899 50.442C70.8211 50.6736 70.9511 50.9877 70.9511 51.3153C70.9511 51.6428 70.8211 51.9569 70.5899 52.1885C70.3587 52.4201 70.0451 52.5502 69.718 52.5502Z" fill="#68E9DC"/>
<path d="M69.718 59.0311H34.8873C34.5603 59.0311 34.2467 58.901 34.0154 58.6694C33.7842 58.4378 33.6543 58.1237 33.6543 57.7962C33.6543 57.4687 33.7842 57.1546 34.0154 56.923C34.2467 56.6914 34.5603 56.5613 34.8873 56.5613H69.718C70.0451 56.5613 70.3587 56.6914 70.5899 56.923C70.8211 57.1546 70.9511 57.4687 70.9511 57.7962C70.9511 58.1237 70.8211 58.4378 70.5899 58.6694C70.3587 58.901 70.0451 59.0311 69.718 59.0311Z" fill="#68E9DC"/>
<path d="M69.718 65.5157H34.8873C34.5603 65.5157 34.2467 65.3856 34.0154 65.154C33.7842 64.9225 33.6543 64.6083 33.6543 64.2808C33.6543 63.9533 33.7842 63.6392 34.0154 63.4076C34.2467 63.176 34.5603 63.0459 34.8873 63.0459H69.718C70.0451 63.0459 70.3587 63.176 70.5899 63.4076C70.8211 63.6392 70.9511 63.9533 70.9511 64.2808C70.9511 64.6083 70.8211 64.9225 70.5899 65.154C70.3587 65.3856 70.0451 65.5157 69.718 65.5157Z" fill="#68E9DC"/>
<path d="M69.718 71.9972H34.8873C34.5603 71.9972 34.2467 71.8671 34.0154 71.6355C33.7842 71.4039 33.6543 71.0898 33.6543 70.7623C33.6543 70.4348 33.7842 70.1206 34.0154 69.8891C34.2467 69.6575 34.5603 69.5273 34.8873 69.5273H69.718C70.0451 69.5273 70.3587 69.6575 70.5899 69.8891C70.8211 70.1206 70.9511 70.4348 70.9511 70.7623C70.9511 71.0898 70.8211 71.4039 70.5899 71.6355C70.3587 71.8671 70.0451 71.9972 69.718 71.9972Z" fill="#68E9DC"/>
<path d="M111.408 50.997C111.137 50.3539 110.685 49.8044 110.106 49.4164C109.527 49.0284 108.847 48.8189 108.15 48.814H43.1241C42.1893 48.8145 41.293 49.1866 40.6321 49.8485C39.9712 50.5105 39.5996 51.4082 39.5991 52.3443V134.735C39.5996 135.671 39.9712 136.569 40.6321 137.231C41.293 137.893 42.1893 138.265 43.1241 138.265H108.152C109.087 138.264 109.983 137.892 110.644 137.23C111.304 136.568 111.676 135.671 111.677 134.735V52.3443C111.679 51.8819 111.588 51.4237 111.41 50.997H111.408Z" fill="#CDF8F3"/>
<path d="M106.113 133.639H45.3436C44.4679 133.639 43.7822 132.679 43.7822 131.455V55.0269C43.7831 53.8019 44.4693 52.8425 45.3436 52.8425H106.113C106.989 52.8437 107.675 53.803 107.675 55.0269V131.455C107.674 132.68 106.988 133.639 106.113 133.639Z" fill="white"/>
<path d="M111.408 50.997C111.137 50.3539 110.685 49.8044 110.106 49.4164C109.527 49.0284 108.847 48.8189 108.15 48.814H43.1241C42.1893 48.8145 41.293 49.1866 40.6321 49.8485C39.9712 50.5105 39.5996 51.4082 39.5991 52.3443V134.735C39.5996 135.671 39.9712 136.569 40.6321 137.231C41.293 137.893 42.1893 138.265 43.1241 138.265H108.152C109.087 138.264 109.983 137.892 110.644 137.23C111.304 136.568 111.676 135.671 111.677 134.735V52.3443C111.679 51.8819 111.588 51.4237 111.41 50.997H111.408ZM110.892 134.735C110.891 135.463 110.602 136.161 110.088 136.676C109.574 137.191 108.877 137.48 108.15 137.481H43.1241C42.397 137.481 41.6997 137.192 41.1855 136.677C40.6713 136.162 40.3823 135.464 40.3819 134.736V52.3448C40.3829 51.6167 40.6721 50.9188 41.1862 50.4039C41.7002 49.8891 42.3971 49.5994 43.1241 49.5984H108.152C108.7 49.6005 109.235 49.766 109.688 50.0737C110.141 50.3814 110.493 50.8174 110.698 51.3261C110.738 51.4274 110.772 51.5309 110.801 51.6359C110.863 51.867 110.895 52.1054 110.895 52.3448L110.892 134.735Z" fill="#03DAC5"/>
<path d="M97.8374 68.266H78.2506C77.835 68.266 77.4364 68.1007 77.1426 67.8063C76.8487 67.512 76.6836 67.1128 76.6836 66.6966C76.6836 66.2804 76.8487 65.8812 77.1426 65.5869C77.4364 65.2926 77.835 65.1272 78.2506 65.1272H97.8374C98.253 65.1272 98.6516 65.2926 98.9454 65.5869C99.2393 65.8812 99.4044 66.2804 99.4044 66.6966C99.4044 67.1128 99.2393 67.512 98.9454 67.8063C98.6516 68.1007 98.253 68.266 97.8374 68.266Z" fill="#03DAC5"/>
<path d="M97.8374 76.505H78.2506C77.835 76.505 77.4364 76.3397 77.1426 76.0454C76.8487 75.751 76.6836 75.3518 76.6836 74.9356C76.6836 74.5194 76.8487 74.1202 77.1426 73.8259C77.4364 73.5316 77.835 73.3662 78.2506 73.3662H97.8374C98.253 73.3662 98.6516 73.5316 98.9454 73.8259C99.2393 74.1202 99.4044 74.5194 99.4044 74.9356C99.4044 75.3518 99.2393 75.751 98.9454 76.0454C98.6516 76.3397 98.253 76.505 97.8374 76.505Z" fill="#03DAC5"/>
<path d="M68.2014 81.1964H53.8874C53.42 81.1959 52.9719 81.0097 52.6414 80.6787C52.3109 80.3477 52.125 79.8988 52.1245 79.4307V62.5132C52.125 62.0451 52.3109 61.5963 52.6414 61.2653C52.9719 60.9342 53.42 60.7481 53.8874 60.7476H68.2014C68.6688 60.7481 69.1169 60.9342 69.4474 61.2653C69.7779 61.5963 69.9638 62.0451 69.9643 62.5132V79.4307C69.9638 79.8988 69.7779 80.3477 69.4474 80.6787C69.1169 81.0097 68.6688 81.1959 68.2014 81.1964Z" fill="#03DAC5"/>
<path d="M97.7016 93.3756H53.4356C53.02 93.3756 52.6215 93.2103 52.3276 92.916C52.0337 92.6216 51.8687 92.2225 51.8687 91.8062C51.8687 91.39 52.0337 90.9908 52.3276 90.6965C52.6215 90.4022 53.02 90.2368 53.4356 90.2368H97.7016C98.1172 90.2368 98.5158 90.4022 98.8097 90.6965C99.1035 90.9908 99.2687 91.39 99.2687 91.8062C99.2687 92.2225 99.1035 92.6216 98.8097 92.916C98.5158 93.2103 98.1172 93.3756 97.7016 93.3756Z" fill="#CDF8F3"/>
<path d="M97.7016 101.615H53.4356C53.02 101.616 52.621 101.452 52.3263 101.158C52.0316 100.865 51.8654 100.466 51.8643 100.05C51.8631 99.6334 52.0271 99.2337 52.3202 98.9386C52.6132 98.6434 53.0113 98.477 53.4269 98.4758H97.7016C98.1172 98.4758 98.5158 98.6412 98.8096 98.9355C99.1035 99.2298 99.2686 99.629 99.2686 100.045C99.2686 100.461 99.1035 100.861 98.8096 101.155C98.5158 101.449 98.1172 101.615 97.7016 101.615Z" fill="#CDF8F3"/>
<path d="M97.7016 109.854H53.4356C53.02 109.854 52.6215 109.689 52.3276 109.394C52.0337 109.1 51.8687 108.701 51.8687 108.284C51.8687 107.868 52.0337 107.469 52.3276 107.175C52.6215 106.88 53.02 106.715 53.4356 106.715H97.7016C98.1172 106.714 98.5163 106.878 98.811 107.172C99.1056 107.465 99.2719 107.864 99.273 108.28C99.2742 108.696 99.1102 109.096 98.8171 109.391C98.5241 109.686 98.1259 109.853 97.7103 109.854H97.7016Z" fill="#CDF8F3"/>
<path d="M97.7016 118.093H53.4356C53.2298 118.093 53.026 118.053 52.8356 117.975C52.6453 117.897 52.4722 117.782 52.3263 117.636C52.1804 117.491 52.0645 117.318 51.9852 117.128C51.9059 116.938 51.8648 116.734 51.8643 116.528C51.8637 116.322 51.9037 116.118 51.9819 115.927C52.0601 115.736 52.1751 115.563 52.3202 115.417C52.4653 115.271 52.6377 115.155 52.8276 115.075C53.0175 114.996 53.2211 114.955 53.4269 114.954H97.7016C98.1172 114.954 98.5158 115.119 98.8096 115.414C99.1035 115.708 99.2686 116.107 99.2686 116.524C99.2686 116.94 99.1035 117.339 98.8096 117.633C98.5158 117.928 98.1172 118.093 97.7016 118.093Z" fill="#CDF8F3"/>
<path d="M97.7016 126.332H53.4356C53.02 126.333 52.621 126.169 52.3263 125.875C52.0316 125.582 51.8654 125.183 51.8643 124.767C51.8631 124.351 52.0271 123.951 52.3202 123.656C52.6132 123.361 53.0113 123.194 53.4269 123.193H97.7016C98.1172 123.193 98.5158 123.358 98.8096 123.653C99.1035 123.947 99.2686 124.346 99.2686 124.763C99.2686 125.179 99.1035 125.578 98.8096 125.872C98.5158 126.167 98.1172 126.332 97.7016 126.332Z" fill="#CDF8F3"/>
<path d="M111.768 62.2746C119.076 62.2746 125 56.3503 125 49.0424C125 41.7345 119.076 35.8103 111.768 35.8103C104.46 35.8103 98.5356 41.7345 98.5356 49.0424C98.5356 56.3503 104.46 62.2746 111.768 62.2746Z" fill="#03DAC5"/>
<path d="M114.105 49.5311V42.4263H110.256V49.5311H108.459L110.32 52.5945L112.181 55.6584L114.042 52.5945L115.903 49.5306L114.105 49.5311Z" fill="white"/>
</svg>
