<svg width="400" height="400" viewBox="0 0 400 400" fill="none" xmlns="http://www.w3.org/2000/svg">
<path d="M339.822 173.499H60.24C51.8315 173.499 45.015 180.315 45.015 188.724V249.401C45.015 257.809 51.8315 264.626 60.24 264.626H339.822C348.23 264.626 355.047 257.809 355.047 249.401V188.724C355.047 180.315 348.23 173.499 339.822 173.499Z" fill="white"/>
<path d="M339.812 173.499C343.85 173.499 347.722 175.103 350.577 177.958C353.433 180.813 355.037 184.686 355.037 188.724V249.401C355.037 253.439 353.433 257.311 350.577 260.166C347.722 263.022 343.85 264.626 339.812 264.626H60.24C56.2021 264.626 52.3295 263.022 49.4743 260.166C46.6191 257.311 45.015 253.439 45.015 249.401V188.724C45.015 184.686 46.6191 180.813 49.4743 177.958C52.3295 175.103 56.2021 173.499 60.24 173.499H339.812ZM339.812 172.484H60.24C55.9329 172.484 51.8022 174.195 48.7566 177.24C45.711 180.286 44 184.417 44 188.724V249.401C44 253.708 45.711 257.838 48.7566 260.884C51.8022 263.93 55.9329 265.641 60.24 265.641H339.812C344.119 265.641 348.249 263.93 351.295 260.884C354.341 257.838 356.052 253.708 356.052 249.401V188.724C356.052 184.417 354.341 180.286 351.295 177.24C348.249 174.195 344.119 172.484 339.812 172.484Z" fill="#484646"/>
<path d="M275.593 173.499V264.626H60.24C56.2021 264.626 52.3296 263.022 49.4743 260.166C46.6191 257.311 45.015 253.439 45.015 249.401V188.724C45.015 184.686 46.6191 180.813 49.4743 177.958C52.3296 175.103 56.2021 173.499 60.24 173.499H275.593Z" fill="#FF931E"/>
<path d="M229.796 257.165C229.796 257.165 227.614 261.225 228.009 262.068C228.405 262.91 232.871 264.514 232.719 264.961C232.567 265.407 222.853 265.164 222.508 264.666C222.163 264.169 222.305 263.966 222.254 262.768C222.204 261.57 225.817 256.018 225.817 256.018" fill="#484646"/>
<path d="M229.329 265.681C226.406 265.681 222.488 265.519 222.092 264.95C221.815 264.555 221.695 264.07 221.757 263.59C221.757 263.387 221.757 263.134 221.757 262.789C221.706 261.53 224.528 257.074 225.401 255.744C225.436 255.687 225.482 255.638 225.537 255.599C225.591 255.561 225.653 255.534 225.719 255.519C225.784 255.505 225.852 255.504 225.917 255.517C225.983 255.529 226.046 255.555 226.101 255.592C226.214 255.665 226.293 255.78 226.322 255.911C226.351 256.042 226.326 256.179 226.253 256.292C224.558 258.901 222.752 262.108 222.772 262.748C222.772 263.113 222.772 263.387 222.772 263.601C222.772 264.017 222.772 264.128 222.863 264.281C225.7 264.639 228.562 264.765 231.42 264.656L230.608 264.26C228.882 263.428 227.816 262.88 227.563 262.23C227.116 261.215 228.679 258.17 229.369 256.881C229.401 256.823 229.445 256.771 229.497 256.729C229.549 256.687 229.608 256.656 229.672 256.637C229.737 256.618 229.804 256.612 229.87 256.619C229.937 256.626 230.001 256.646 230.06 256.678C230.118 256.71 230.17 256.753 230.212 256.805C230.254 256.857 230.285 256.917 230.304 256.981C230.323 257.045 230.329 257.113 230.322 257.179C230.315 257.245 230.295 257.31 230.263 257.368C229.177 259.398 228.365 261.428 228.497 261.824C229.282 262.431 230.146 262.93 231.064 263.306C232.739 264.118 233.429 264.453 233.216 265.082C233.094 265.448 232.678 265.509 232.435 265.549C232.191 265.59 230.821 265.681 229.329 265.681Z" fill="#484646"/>
<path d="M225.198 219.418L207.791 214.454L192.86 236.703C192.86 236.703 171.951 250.131 171.951 250.751C171.951 251.613 175.524 257.521 175.524 257.521C175.524 257.521 188.719 252.283 199.528 247.371C208.136 243.483 216.946 230.623 216.946 230.623L233.521 238.246L223.371 257.165L231.156 257.845C231.156 257.845 242.321 242.62 246.026 234.287C249.73 225.954 225.198 219.418 225.198 219.418Z" fill="#484646"/>
<path d="M231.105 258.353L223.31 257.673C223.227 257.665 223.148 257.637 223.078 257.591C223.009 257.545 222.953 257.483 222.914 257.409C222.874 257.336 222.853 257.254 222.853 257.17C222.853 257.087 222.874 257.005 222.914 256.932L232.902 238.5L217.159 231.313C215.647 233.455 207.72 244.305 199.772 247.898C189.125 252.699 175.879 257.947 175.747 257.998C175.637 258.044 175.513 258.049 175.4 258.012C175.286 257.974 175.189 257.897 175.128 257.795C174.032 255.978 171.484 251.705 171.484 250.761C171.484 250.405 171.484 249.868 192.535 236.348L207.405 214.19C207.463 214.1 207.549 214.031 207.649 213.993C207.75 213.955 207.859 213.949 207.963 213.977L225.38 218.93C226.162 219.143 243.204 223.741 246.381 230.38C246.709 231.014 246.889 231.714 246.906 232.428C246.924 233.142 246.779 233.851 246.482 234.5C242.798 242.844 231.663 257.998 231.552 258.15C231.501 258.22 231.433 258.275 231.355 258.31C231.277 258.346 231.191 258.361 231.105 258.353ZM224.132 256.719L230.862 257.307C232.272 255.379 242.118 241.758 245.518 234.084C245.754 233.567 245.868 233.003 245.853 232.434C245.837 231.866 245.691 231.309 245.427 230.806C242.443 224.574 225.249 219.945 225.127 219.905L208.065 215.043L193.337 236.987C193.298 237.042 193.25 237.09 193.195 237.129C185.501 242.072 173.91 249.624 172.55 250.893C173.496 252.961 174.578 254.965 175.788 256.891C178.081 255.978 189.784 251.289 199.376 246.954C207.76 243.179 216.499 230.511 216.631 230.38C216.699 230.281 216.799 230.21 216.914 230.179C217.03 230.147 217.152 230.157 217.26 230.207L233.876 237.789C233.939 237.817 233.996 237.858 234.043 237.909C234.09 237.959 234.126 238.019 234.15 238.083C234.178 238.147 234.192 238.217 234.192 238.286C234.192 238.356 234.178 238.425 234.15 238.489L224.132 256.719Z" fill="#484646"/>
<path d="M266.782 201.158C266.782 201.158 274.029 201.351 274.161 201.158C274.293 200.965 275.765 189.993 274.618 190.439C273.471 190.886 271.116 197.169 271.116 197.169L265.92 196.682" fill="white"/>
<path d="M271.979 201.757C270.842 201.757 269.188 201.757 266.762 201.665C266.696 201.664 266.631 201.649 266.57 201.623C266.51 201.596 266.455 201.557 266.41 201.509C266.364 201.461 266.329 201.404 266.306 201.342C266.283 201.28 266.272 201.214 266.275 201.148C266.283 201.015 266.34 200.89 266.436 200.797C266.532 200.705 266.659 200.653 266.793 200.65C269.614 200.731 272.781 200.772 273.745 200.711C274.009 199.209 274.76 192.977 274.517 191.201C273.323 193.141 272.34 195.203 271.583 197.351C271.544 197.454 271.472 197.542 271.379 197.6C271.285 197.659 271.175 197.686 271.066 197.676L265.879 197.189C265.745 197.176 265.622 197.112 265.535 197.009C265.448 196.907 265.404 196.775 265.412 196.641C265.43 196.507 265.497 196.385 265.6 196.299C265.704 196.212 265.836 196.168 265.97 196.174L270.781 196.631C271.482 194.814 273.268 190.46 274.425 189.972C274.562 189.915 274.714 189.905 274.858 189.944C275.001 189.982 275.127 190.067 275.217 190.186C276.13 191.343 274.872 201.056 274.578 201.462C274.446 201.635 274.354 201.757 271.979 201.757Z" fill="#484646"/>
<path d="M228.842 191.941C225.604 190.51 222.528 193.687 220.722 196.001C215.961 201.929 212.135 208.76 207.963 215.144C207.963 215.144 216.946 230.745 229.39 222.899L243.153 202.041H265.402C265.402 202.041 265.473 200.396 265.402 196.275C265.402 196.194 229.968 192.429 228.842 191.941Z" fill="white"/>
<path d="M222.356 225.538C221.374 225.54 220.395 225.421 219.443 225.183C212.236 223.396 207.709 215.662 207.517 215.327C207.469 215.247 207.444 215.156 207.444 215.063C207.444 214.97 207.469 214.879 207.517 214.799C208.745 212.922 209.963 210.973 211.14 209.085C213.919 204.417 216.969 199.916 220.275 195.606C221.452 194.144 225.005 189.698 228.984 191.454C229.847 191.749 241.235 193.078 262.824 195.423C265.869 195.748 265.869 195.748 265.869 196.174C265.93 200.234 265.869 201.919 265.869 201.99C265.864 202.121 265.808 202.245 265.713 202.336C265.619 202.427 265.493 202.477 265.361 202.477H243.427L229.806 223.112C229.771 223.174 229.718 223.224 229.654 223.254C227.49 224.7 224.957 225.493 222.356 225.538ZM208.562 215.083C209.415 216.444 213.637 222.696 219.727 224.218C221.318 224.589 222.969 224.626 224.574 224.325C226.18 224.025 227.706 223.394 229.055 222.473L242.757 201.716C242.804 201.646 242.868 201.588 242.942 201.547C243.016 201.507 243.099 201.484 243.184 201.482H264.945C264.945 200.772 264.945 199.239 264.945 196.682L262.804 196.448C239.905 193.961 229.38 192.723 228.679 192.388C226.477 191.373 224.02 192.672 221.158 196.245C217.857 200.524 214.807 204.991 212.023 209.623C210.896 211.429 209.729 213.256 208.562 215.083Z" fill="#484646"/>
<path d="M232.222 191.718C228.385 190.825 229.806 184.156 230.821 181.457C231.02 180.856 231.33 180.299 231.734 179.812C232.175 179.392 232.699 179.071 233.273 178.87C233.847 178.669 234.458 178.592 235.064 178.645C236.269 178.758 237.466 178.951 238.647 179.224C241.342 179.679 244.109 179.438 246.685 178.523C247.558 178.209 248.563 177.843 249.345 178.33C249.583 178.506 249.78 178.731 249.922 178.991C250.064 179.25 250.147 179.537 250.167 179.833C250.212 180.532 250.078 181.232 249.778 181.866C249.478 182.5 249.021 183.047 248.451 183.456C247.275 184.202 245.925 184.628 244.534 184.694C244.716 185.78 244.899 186.126 244.249 187.019C243.603 187.822 242.824 188.509 241.945 189.049C241.003 189.587 240.023 190.055 239.012 190.449C236.891 191.383 234.82 192.205 232.414 191.759L232.222 191.718Z" fill="white"/>
<path d="M233.795 192.388C233.301 192.388 232.809 192.344 232.323 192.256H232.11C231.628 192.155 231.175 191.946 230.785 191.645C230.395 191.345 230.078 190.96 229.857 190.521C228.476 187.963 229.572 183.416 230.344 181.386C230.566 180.722 230.91 180.106 231.359 179.569C231.849 179.098 232.434 178.736 233.074 178.506C233.714 178.277 234.396 178.186 235.074 178.239C235.932 178.291 236.785 178.416 237.621 178.615L238.728 178.828C241.338 179.265 244.017 179.031 246.513 178.148C247.528 177.803 248.634 177.397 249.558 178.006C249.856 178.221 250.101 178.501 250.277 178.824C250.452 179.148 250.554 179.506 250.573 179.873C250.627 180.656 250.48 181.44 250.146 182.151C249.812 182.862 249.302 183.475 248.665 183.933C247.584 184.662 246.331 185.096 245.031 185.192C245.139 185.567 245.154 185.963 245.074 186.345C244.995 186.727 244.823 187.084 244.574 187.384C243.885 188.236 243.058 188.967 242.128 189.546C241.374 189.992 240.587 190.379 239.773 190.703L239.124 190.987C237.463 191.816 235.648 192.293 233.795 192.388ZM234.81 179.193C234.306 179.164 233.802 179.239 233.329 179.413C232.855 179.588 232.423 179.859 232.059 180.208C231.696 180.645 231.42 181.148 231.247 181.69C230.415 183.913 229.583 187.963 230.699 190.043C230.854 190.354 231.076 190.626 231.35 190.839C231.624 191.051 231.943 191.199 232.282 191.272H232.445C234.658 191.688 236.505 190.977 238.748 190.003L239.408 189.719C240.172 189.42 240.909 189.057 241.61 188.633C242.438 188.13 243.173 187.487 243.782 186.735C244.209 186.136 244.178 185.953 244.046 185.192L243.975 184.796C243.954 184.66 243.987 184.522 244.067 184.41C244.107 184.357 244.157 184.313 244.215 184.28C244.272 184.247 244.336 184.226 244.402 184.217H244.625C245.855 184.155 247.048 183.774 248.086 183.111C248.587 182.758 248.989 182.283 249.254 181.73C249.519 181.177 249.637 180.566 249.598 179.954C249.585 179.734 249.525 179.52 249.424 179.324C249.323 179.128 249.182 178.956 249.01 178.818C248.451 178.472 247.599 178.818 246.838 179.041C244.197 179.979 241.36 180.227 238.596 179.762C238.21 179.701 237.835 179.619 237.449 179.548C236.67 179.357 235.875 179.238 235.074 179.193H234.81Z" fill="#484646"/>
<path d="M242.534 189.81C242.534 189.81 242.808 193.007 242.219 193.322C241.631 193.637 240.737 192.723 240.737 192.723" fill="white"/>
<path d="M241.945 193.89C241.344 193.815 240.79 193.527 240.382 193.078C240.3 192.981 240.257 192.855 240.263 192.728C240.269 192.6 240.323 192.479 240.414 192.389C240.505 192.3 240.626 192.248 240.754 192.244C240.882 192.239 241.006 192.284 241.103 192.368C241.428 192.693 241.874 192.926 241.986 192.875C242.118 191.865 242.118 190.841 241.986 189.83C241.977 189.696 242.021 189.564 242.108 189.462C242.196 189.359 242.319 189.295 242.453 189.282C242.519 189.277 242.587 189.284 242.65 189.305C242.714 189.325 242.773 189.358 242.824 189.402C242.875 189.445 242.917 189.498 242.947 189.558C242.978 189.617 242.996 189.682 243.001 189.749C243.204 192.094 243.001 193.433 242.412 193.748C242.27 193.833 242.11 193.882 241.945 193.89Z" fill="#484646"/>
<path d="M244.879 184.38C245.427 185.72 243.234 189.455 242.615 190.47C241.749 192.033 240.849 193.569 239.915 195.078C239.327 196.032 236.748 194.662 236.464 194.063L234.729 198.194C233.505 197.73 232.468 196.878 231.775 195.768C230.232 193.687 230.476 193.19 230.476 193.19L233.105 188.775C233.724 189.041 234.405 189.132 235.073 189.037C235.741 188.942 236.37 188.665 236.891 188.237C238.428 186.965 239.703 185.407 240.646 183.649C240.646 183.649 244.341 183.06 244.879 184.38Z" fill="white"/>
<path d="M234.729 198.803H234.617C233.271 198.325 232.127 197.405 231.369 196.194C230.222 194.641 229.765 193.596 230.019 193.088L232.678 188.633C232.746 188.52 232.855 188.438 232.982 188.404C233.108 188.37 233.243 188.386 233.358 188.45C233.894 188.671 234.481 188.74 235.053 188.651C235.626 188.561 236.163 188.316 236.606 187.942C238.076 186.719 239.296 185.223 240.2 183.537C240.234 183.469 240.285 183.409 240.346 183.364C240.408 183.318 240.479 183.287 240.555 183.273C241.235 183.141 244.686 182.593 245.346 184.207C245.873 185.496 244.635 187.993 243.224 190.5L243.062 190.795C242.199 192.337 241.286 193.89 240.352 195.413C240.22 195.615 240.034 195.775 239.815 195.876C239.596 195.976 239.352 196.013 239.113 195.981C238.223 195.893 237.373 195.571 236.647 195.047L235.196 198.509C235.154 198.597 235.088 198.673 235.006 198.725C234.923 198.777 234.827 198.804 234.729 198.803ZM230.973 193.444C231.224 194.23 231.635 194.956 232.181 195.575C232.774 196.416 233.552 197.111 234.455 197.605L235.997 193.941C236.032 193.852 236.092 193.775 236.169 193.72C236.247 193.664 236.339 193.631 236.434 193.626C236.531 193.621 236.628 193.645 236.713 193.693C236.797 193.742 236.866 193.814 236.911 193.9C237.549 194.466 238.347 194.821 239.195 194.915C239.286 194.915 239.438 194.915 239.489 194.824C240.413 193.322 241.326 191.779 242.169 190.246L242.341 189.952C243.985 187.029 244.686 185.212 244.371 184.542C244.057 183.872 242.341 183.964 240.93 184.177C239.98 185.927 238.693 187.472 237.144 188.724C236.605 189.141 235.975 189.427 235.305 189.557C234.635 189.687 233.944 189.659 233.287 189.475L230.973 193.444Z" fill="#484646"/>
<path d="M240.514 193.972C240.038 193.822 239.631 193.509 239.365 193.086C239.099 192.664 238.992 192.161 239.063 191.667" fill="white"/>
<path d="M240.514 194.449H240.392C239.8 194.269 239.291 193.884 238.957 193.363C238.622 192.843 238.483 192.22 238.565 191.607C238.576 191.472 238.64 191.347 238.743 191.26C238.845 191.172 238.979 191.129 239.113 191.14C239.248 191.15 239.373 191.214 239.46 191.317C239.548 191.42 239.591 191.553 239.58 191.688C239.513 192.064 239.586 192.452 239.784 192.779C239.982 193.106 240.292 193.349 240.656 193.464C240.791 193.482 240.913 193.552 240.996 193.659C241.079 193.767 241.115 193.903 241.098 194.038C241.08 194.172 241.01 194.294 240.902 194.377C240.795 194.46 240.659 194.497 240.524 194.479L240.514 194.449Z" fill="#484646"/>
<path d="M239.002 189.181C239.166 188.765 239.215 188.313 239.144 187.871C239.137 187.526 239.079 187.184 238.971 186.856C238.912 186.695 238.819 186.548 238.698 186.425C238.577 186.303 238.432 186.208 238.271 186.146C238.121 186.108 237.965 186.101 237.813 186.128C237.661 186.154 237.516 186.212 237.388 186.298C237.133 186.472 236.922 186.701 236.769 186.968C236.424 187.54 236.236 188.193 236.223 188.862C236.211 189.53 236.374 190.189 236.698 190.774V190.632" fill="white"/>
<path d="M236.617 191.221C236.543 191.224 236.469 191.207 236.405 191.171C236.34 191.136 236.287 191.082 236.251 191.018C235.882 190.352 235.695 189.6 235.711 188.838C235.727 188.077 235.945 187.334 236.343 186.684C236.54 186.357 236.803 186.073 237.114 185.851C237.304 185.729 237.518 185.648 237.742 185.613C237.966 185.578 238.194 185.59 238.413 185.648C238.647 185.731 238.86 185.865 239.036 186.041C239.211 186.217 239.345 186.429 239.428 186.663C239.55 187.058 239.611 187.469 239.611 187.881C239.694 188.418 239.623 188.967 239.408 189.465C239.343 189.583 239.235 189.672 239.106 189.712C238.977 189.752 238.838 189.739 238.718 189.678C238.655 189.638 238.601 189.584 238.56 189.522C238.519 189.459 238.492 189.389 238.481 189.315C238.469 189.241 238.473 189.165 238.493 189.093C238.513 189.021 238.548 188.954 238.596 188.896C238.717 188.572 238.748 188.222 238.687 187.881C238.685 187.588 238.637 187.297 238.545 187.019C238.518 186.926 238.469 186.84 238.404 186.768C238.339 186.696 238.259 186.64 238.17 186.603C238.091 186.584 238.01 186.583 237.931 186.598C237.852 186.614 237.778 186.647 237.713 186.694C237.522 186.823 237.365 186.998 237.256 187.201C236.983 187.657 236.823 188.171 236.789 188.7C236.755 189.23 236.849 189.76 237.063 190.246C237.133 190.304 237.183 190.382 237.205 190.47C237.238 190.597 237.228 190.732 237.177 190.853C237.125 190.974 237.035 191.075 236.921 191.14C236.826 191.187 236.722 191.214 236.617 191.221Z" fill="#484646"/>
<path d="M236.464 194.164C235.834 193.504 235.407 192.676 235.236 191.779C235.236 191.779 234.028 194.205 235.693 196.001L236.464 194.164Z" fill="#484646"/>
<path d="M235.693 196.509C235.623 196.508 235.553 196.494 235.489 196.466C235.424 196.438 235.366 196.397 235.317 196.347C233.44 194.317 234.729 191.667 234.779 191.556C234.83 191.458 234.91 191.378 235.009 191.329C235.107 191.28 235.219 191.263 235.328 191.282C235.436 191.301 235.535 191.355 235.61 191.435C235.685 191.516 235.732 191.619 235.744 191.728C235.902 192.496 236.279 193.201 236.83 193.758C236.899 193.829 236.946 193.919 236.964 194.017C236.983 194.115 236.971 194.215 236.931 194.306L236.16 196.144C236.126 196.222 236.073 196.291 236.005 196.345C235.938 196.398 235.859 196.433 235.774 196.448L235.693 196.509ZM235.328 193.464C235.266 193.982 235.343 194.508 235.551 194.986L235.845 194.306C235.651 194.046 235.478 193.771 235.328 193.484V193.464Z" fill="#484646"/>
<path d="M242.441 188.412C242.66 188.135 242.748 187.839 242.638 187.753C242.528 187.666 242.261 187.82 242.043 188.098C241.824 188.375 241.736 188.67 241.846 188.757C241.956 188.844 242.223 188.689 242.441 188.412Z" fill="#484646"/>
<path d="M242.95 188.572C242.87 188.574 242.79 188.556 242.719 188.518C242.648 188.481 242.588 188.426 242.544 188.359L241.722 187.262C241.683 187.209 241.655 187.149 241.639 187.085C241.623 187.021 241.621 186.954 241.631 186.889C241.641 186.824 241.665 186.761 241.7 186.705C241.734 186.649 241.78 186.6 241.834 186.562C241.941 186.481 242.077 186.447 242.21 186.466C242.343 186.485 242.463 186.556 242.544 186.663L243.356 187.76C243.396 187.814 243.424 187.875 243.44 187.94C243.456 188.005 243.458 188.072 243.448 188.138C243.438 188.204 243.414 188.267 243.379 188.324C243.344 188.381 243.299 188.431 243.245 188.47C243.159 188.533 243.056 188.569 242.95 188.572Z" fill="#484646"/>
<path d="M174.427 249.888C174.427 249.888 166.358 254.679 166.358 255.44C166.358 256.201 165.465 255.795 168.236 261.611C169.403 264.078 174.783 265.671 174.235 263.814C172.672 258.465 172.773 257.896 172.773 257.896L179.188 255.318" fill="#484646"/>
<path d="M173.382 265.133C171.667 265.133 168.683 263.753 167.769 261.824C165.435 256.902 165.627 256.262 165.81 255.643C165.821 255.576 165.821 255.507 165.81 255.44C165.81 255.125 165.81 254.425 174.123 249.451C174.24 249.384 174.38 249.366 174.51 249.4C174.641 249.434 174.754 249.518 174.823 249.634C174.89 249.75 174.908 249.888 174.874 250.017C174.84 250.146 174.756 250.257 174.641 250.324C171.129 252.415 167.302 254.902 166.825 255.541C166.814 255.673 166.787 255.802 166.744 255.927C166.642 256.262 166.48 256.82 168.652 261.388C169.251 262.657 171.23 263.753 172.712 264.047C173.043 264.146 173.396 264.146 173.727 264.047C173.727 264.047 173.727 264.047 173.727 263.946C173.033 261.949 172.54 259.889 172.255 257.795C172.27 257.71 172.306 257.631 172.359 257.563C172.412 257.496 172.481 257.443 172.56 257.409L178.975 254.841C179.099 254.791 179.237 254.791 179.361 254.842C179.485 254.894 179.583 254.992 179.634 255.115C179.685 255.24 179.685 255.381 179.634 255.506C179.583 255.631 179.485 255.731 179.36 255.785L173.27 258.211C173.644 260.051 174.115 261.871 174.681 263.661C174.734 263.791 174.76 263.93 174.756 264.07C174.753 264.21 174.721 264.347 174.661 264.474C174.602 264.601 174.518 264.714 174.413 264.806C174.308 264.899 174.185 264.969 174.052 265.011C173.837 265.088 173.611 265.129 173.382 265.133Z" fill="#484646"/>
<path d="M266.782 203.736C266.782 203.736 274.029 203.929 274.161 203.736C274.293 203.543 276.405 191.921 275.258 192.398C274.111 192.875 271.736 198.975 271.736 198.975L265.92 199.26" fill="white"/>
<path d="M271.979 204.335C270.853 204.335 269.198 204.335 266.762 204.243C266.629 204.238 266.504 204.181 266.413 204.084C266.322 203.987 266.272 203.858 266.275 203.726C266.273 203.658 266.286 203.591 266.312 203.529C266.337 203.466 266.376 203.41 266.424 203.363C266.473 203.316 266.531 203.28 266.594 203.257C266.658 203.234 266.725 203.224 266.793 203.228C269.635 203.299 272.811 203.34 273.766 203.289C274.448 199.969 274.892 196.604 275.095 193.22C273.929 195.095 272.959 197.084 272.202 199.158C272.167 199.25 272.106 199.329 272.027 199.387C271.948 199.444 271.854 199.478 271.756 199.483L265.95 199.767C265.883 199.77 265.817 199.761 265.754 199.738C265.691 199.716 265.633 199.681 265.584 199.636C265.484 199.546 265.424 199.42 265.417 199.285C265.41 199.15 265.457 199.019 265.548 198.919C265.638 198.819 265.765 198.759 265.899 198.752L271.38 198.478C272.071 196.732 273.887 192.388 275.065 191.931C275.197 191.873 275.346 191.861 275.486 191.898C275.626 191.935 275.75 192.018 275.836 192.134C276.851 193.413 274.628 203.959 274.578 204.03C274.527 204.101 274.364 204.335 271.979 204.335Z" fill="#484646"/>
<path d="M236.464 202.366L230.862 215.033L234.099 218.748L237.713 215.033V201.249L236.464 202.366Z" fill="#484646"/>
<path d="M227.309 193.89L268.437 198.245L267.259 205.664C267.259 205.664 233.764 206.446 225.533 203.817" fill="white"/>
<path d="M256.125 206.283C245.579 206.283 230.638 205.969 225.38 204.304C225.314 204.284 225.252 204.251 225.198 204.207C225.144 204.163 225.099 204.109 225.066 204.048C225.033 203.987 225.013 203.919 225.006 203.85C224.999 203.781 225.005 203.711 225.025 203.644C225.045 203.578 225.078 203.516 225.122 203.462C225.166 203.408 225.22 203.363 225.282 203.33C225.343 203.297 225.41 203.277 225.479 203.27C225.548 203.262 225.618 203.269 225.685 203.289C233.297 205.705 262.925 205.197 266.823 205.116L267.838 198.64L227.238 194.347C227.171 194.34 227.107 194.321 227.048 194.289C226.989 194.257 226.936 194.214 226.894 194.162C226.852 194.111 226.82 194.051 226.8 193.987C226.781 193.923 226.775 193.855 226.781 193.789C226.788 193.722 226.808 193.657 226.839 193.598C226.871 193.539 226.914 193.487 226.966 193.445C227.018 193.402 227.077 193.371 227.141 193.351C227.205 193.332 227.273 193.325 227.339 193.332L268.477 197.686C268.615 197.706 268.739 197.779 268.822 197.889C268.865 197.943 268.895 198.006 268.913 198.072C268.93 198.138 268.934 198.207 268.924 198.275L267.747 205.695C267.727 205.813 267.667 205.921 267.576 205.999C267.485 206.077 267.369 206.12 267.249 206.121C266.772 206.151 262.174 206.283 256.125 206.283Z" fill="#484646"/>
<path d="M147.104 136.116H149.621V152.356H158.137V154.691H147.104V136.116Z" fill="#D1D1D1"/>
<path d="M159.497 148.479C159.491 147.607 159.667 146.742 160.014 145.942C160.349 145.182 160.824 144.494 161.415 143.912C162.007 143.303 162.71 142.814 163.486 142.47C164.284 142.127 165.142 141.944 166.011 141.932C166.88 141.921 167.743 142.081 168.55 142.403C169.357 142.726 170.093 143.204 170.715 143.812C171.337 144.419 171.832 145.143 172.174 145.942C172.845 147.567 172.845 149.392 172.174 151.017C171.851 151.782 171.374 152.473 170.773 153.047C170.17 153.642 169.456 154.114 168.672 154.437C167.01 155.114 165.149 155.114 163.486 154.437C162.733 154.123 162.045 153.672 161.456 153.108C160.855 152.534 160.379 151.843 160.055 151.078C159.687 150.261 159.497 149.375 159.497 148.479ZM162.014 148.479C162.009 149.074 162.109 149.665 162.308 150.225C162.478 150.727 162.752 151.188 163.112 151.576C163.472 151.964 163.911 152.272 164.399 152.478C165.492 152.925 166.717 152.925 167.81 152.478C168.296 152.277 168.732 151.972 169.089 151.585C169.452 151.194 169.729 150.73 169.901 150.225C170.293 149.098 170.293 147.871 169.901 146.744C169.729 146.238 169.452 145.775 169.089 145.383C168.732 144.996 168.296 144.692 167.81 144.49C166.717 144.044 165.492 144.044 164.399 144.49C163.911 144.697 163.472 145.004 163.112 145.393C162.752 145.781 162.478 146.241 162.308 146.744C162.11 147.301 162.01 147.888 162.014 148.479Z" fill="#D1D1D1"/>
<path d="M175.717 143.79C176.385 143.179 177.173 142.712 178.031 142.42C178.872 142.121 179.757 141.966 180.649 141.963C181.444 141.947 182.236 142.06 182.994 142.298C183.587 142.497 184.136 142.811 184.608 143.222C185.012 143.586 185.328 144.037 185.532 144.541C185.735 145.037 185.839 145.568 185.836 146.104V152.438C185.836 152.874 185.836 153.28 185.836 153.646C185.836 154.011 185.836 154.366 185.907 154.661H183.816C183.765 154.031 183.735 153.402 183.735 152.783C183.289 153.513 182.645 154.101 181.878 154.478C181.092 154.824 180.239 154.994 179.381 154.975C178.824 154.982 178.269 154.903 177.736 154.742C177.234 154.598 176.765 154.357 176.356 154.031C175.965 153.718 175.646 153.323 175.422 152.874C175.19 152.368 175.076 151.817 175.087 151.26C175.057 150.545 175.244 149.837 175.625 149.23C175.997 148.677 176.499 148.224 177.087 147.911C177.769 147.547 178.506 147.296 179.269 147.17C180.147 147.02 181.037 146.945 181.928 146.947H183.654V146.47C183.652 146.146 183.59 145.826 183.471 145.526C183.347 145.208 183.161 144.918 182.923 144.673C182.662 144.407 182.347 144.199 181.999 144.064C181.58 143.913 181.136 143.84 180.69 143.851C180.291 143.845 179.892 143.886 179.502 143.973C179.182 144.056 178.869 144.168 178.569 144.308C178.301 144.436 178.046 144.589 177.807 144.764L177.158 145.262L175.717 143.79ZM182.375 148.723C181.802 148.724 181.229 148.754 180.66 148.814C180.115 148.862 179.579 148.982 179.066 149.169C178.619 149.318 178.212 149.568 177.878 149.9C177.726 150.061 177.607 150.251 177.529 150.458C177.451 150.666 177.414 150.887 177.422 151.108C177.397 151.406 177.451 151.705 177.577 151.975C177.703 152.246 177.898 152.479 178.142 152.651C178.737 152.992 179.417 153.154 180.101 153.118C180.667 153.136 181.229 153.025 181.746 152.793C182.175 152.598 182.554 152.306 182.852 151.94C183.128 151.596 183.332 151.199 183.451 150.773C183.57 150.361 183.632 149.934 183.634 149.504V148.723H182.375Z" fill="#D1D1D1"/>
<path d="M201.721 154.691H199.356V152.915H199.305C198.833 153.592 198.183 154.126 197.427 154.458C196.662 154.817 195.827 155.005 194.981 155.006C194.087 155.02 193.199 154.851 192.373 154.508C191.6 154.203 190.907 153.728 190.343 153.118C189.791 152.531 189.36 151.841 189.074 151.088C188.766 150.267 188.614 149.396 188.627 148.52C188.615 147.64 188.767 146.766 189.074 145.942C189.36 145.189 189.791 144.499 190.343 143.912C190.913 143.315 191.606 142.848 192.373 142.541C193.199 142.199 194.087 142.03 194.981 142.044C195.852 142.038 196.712 142.229 197.498 142.602C198.231 142.936 198.856 143.467 199.305 144.135H199.356V135H201.721V154.691ZM195.265 152.813C195.851 152.822 196.432 152.708 196.971 152.478C197.458 152.274 197.897 151.97 198.26 151.585C198.619 151.191 198.896 150.729 199.072 150.225C199.451 149.095 199.451 147.873 199.072 146.744C198.896 146.24 198.619 145.777 198.26 145.383C197.897 144.999 197.458 144.694 196.971 144.49C196.432 144.261 195.851 144.147 195.265 144.155C194.683 144.144 194.105 144.258 193.57 144.49C193.081 144.691 192.642 144.996 192.281 145.383C191.922 145.777 191.645 146.24 191.469 146.744C191.09 147.873 191.09 149.095 191.469 150.225C191.645 150.729 191.922 151.191 192.281 151.585C192.642 151.972 193.081 152.277 193.57 152.478C194.105 152.71 194.683 152.825 195.265 152.813Z" fill="#D1D1D1"/>
<path d="M204.908 137.822C204.924 137.369 205.112 136.94 205.435 136.622C205.758 136.305 206.191 136.124 206.644 136.116C207.101 136.122 207.539 136.307 207.861 136.631C208.184 136.956 208.366 137.394 208.369 137.852C208.366 138.309 208.184 138.746 207.861 139.069C207.538 139.392 207.1 139.575 206.644 139.578C206.186 139.575 205.747 139.393 205.423 139.07C205.098 138.747 204.913 138.31 204.908 137.852V137.822ZM205.466 142.278H207.821V154.691H205.466V142.278Z" fill="#D1D1D1"/>
<path d="M211.566 142.278H213.931V144.236H213.982C214.308 143.545 214.849 142.979 215.525 142.623C216.304 142.205 217.178 141.996 218.062 142.014C218.648 142.012 219.231 142.105 219.788 142.288C220.324 142.464 220.816 142.755 221.229 143.14C221.674 143.552 222.021 144.059 222.244 144.622C222.506 145.302 222.633 146.026 222.62 146.754V154.691H220.255V147.363C220.266 146.859 220.187 146.357 220.021 145.881C219.888 145.5 219.674 145.154 219.392 144.866C219.13 144.625 218.823 144.438 218.489 144.318C218.145 144.204 217.785 144.146 217.423 144.145C216.958 144.141 216.497 144.223 216.063 144.389C215.644 144.546 215.269 144.8 214.967 145.13C214.635 145.509 214.383 145.951 214.226 146.429C214.029 147.032 213.93 147.662 213.931 148.296V154.691H211.566V142.278Z" fill="#D1D1D1"/>
<path d="M238.596 154.59C238.608 155.473 238.442 156.35 238.109 157.168C237.798 157.932 237.331 158.624 236.738 159.198C236.1 159.77 235.35 160.206 234.536 160.477C233.643 160.793 232.702 160.951 231.755 160.943C230.649 160.958 229.548 160.79 228.497 160.446C227.448 160.071 226.487 159.483 225.675 158.721L227.279 156.691C227.848 157.324 228.538 157.838 229.309 158.203C230.073 158.549 230.905 158.722 231.745 158.71C232.487 158.737 233.226 158.609 233.917 158.335C234.447 158.104 234.919 157.757 235.297 157.32C235.633 156.917 235.879 156.446 236.018 155.939C236.158 155.434 236.23 154.911 236.231 154.387V152.651H236.15C235.717 153.38 235.073 153.961 234.302 154.315C233.532 154.671 232.694 154.854 231.846 154.853C230.98 154.861 230.12 154.695 229.319 154.366C228.57 154.06 227.891 153.605 227.322 153.03C226.753 152.454 226.307 151.769 226.01 151.017C225.688 150.21 225.526 149.348 225.533 148.479C225.528 147.61 225.679 146.747 225.979 145.932C226.264 145.178 226.695 144.488 227.248 143.902C227.815 143.295 228.508 142.82 229.278 142.511C230.101 142.168 230.985 141.999 231.877 142.014C232.725 142.015 233.564 142.202 234.333 142.562C235.086 142.894 235.732 143.428 236.2 144.105H236.261V142.278H238.596V154.59ZM232.151 144.155C231.565 144.147 230.984 144.261 230.445 144.49C229.957 144.697 229.519 145.004 229.158 145.393C228.798 145.781 228.524 146.241 228.354 146.744C228.156 147.301 228.056 147.888 228.06 148.479C228.032 149.035 228.116 149.591 228.306 150.114C228.496 150.636 228.788 151.116 229.166 151.524C229.988 152.256 231.05 152.661 232.151 152.661C233.251 152.661 234.313 152.256 235.135 151.524C235.511 151.115 235.802 150.635 235.992 150.112C236.182 149.59 236.267 149.035 236.241 148.479C236.245 147.888 236.145 147.301 235.947 146.744C235.775 146.238 235.498 145.775 235.135 145.383C234.778 144.996 234.342 144.692 233.856 144.49C233.314 144.259 232.729 144.145 232.14 144.155H232.151Z" fill="#D1D1D1"/>
<path d="M244.006 154.853C243.57 154.82 243.162 154.623 242.865 154.302C242.568 153.981 242.403 153.56 242.403 153.123C242.403 152.685 242.568 152.264 242.865 151.943C243.162 151.622 243.57 151.426 244.006 151.392C244.442 151.426 244.849 151.622 245.146 151.943C245.444 152.264 245.609 152.685 245.609 153.123C245.609 153.56 245.444 153.981 245.146 154.302C244.849 154.623 244.442 154.82 244.006 154.853Z" fill="#D1D1D1"/>
<path d="M251.293 154.853C250.857 154.82 250.45 154.623 250.153 154.302C249.856 153.981 249.69 153.56 249.69 153.123C249.69 152.685 249.856 152.264 250.153 151.943C250.45 151.622 250.857 151.426 251.293 151.392C251.73 151.426 252.137 151.622 252.434 151.943C252.731 152.264 252.896 152.685 252.896 153.123C252.896 153.56 252.731 153.981 252.434 154.302C252.137 154.623 251.73 154.82 251.293 154.853Z" fill="#D1D1D1"/>
<path d="M258.581 154.853C258.145 154.82 257.738 154.623 257.44 154.302C257.143 153.981 256.978 153.56 256.978 153.123C256.978 152.685 257.143 152.264 257.44 151.943C257.738 151.622 258.145 151.426 258.581 151.392C259.017 151.426 259.425 151.622 259.722 151.943C260.019 152.264 260.184 152.685 260.184 153.123C260.184 153.56 260.019 153.981 259.722 154.302C259.425 154.623 259.017 154.82 258.581 154.853Z" fill="#D1D1D1"/>
</svg>
