<svg width="80" height="36" viewBox="0 0 80 36" fill="none" xmlns="http://www.w3.org/2000/svg">
<path d="M28.4257 12.189V17.445H25.7365V3.74391H28.4257V4.80346C29.016 4.07622 29.9942 3.66736 30.9724 3.66736C33.3835 3.66736 35.6093 5.3776 35.6093 8.4797C35.6093 11.5818 33.3835 13.3007 30.9724 13.3007C29.9942 13.3007 29.0504 12.8901 28.4257 12.189ZM28.4343 8.4797C28.4343 9.96724 29.488 11.0355 30.6858 11.0355C31.8837 11.0355 32.9116 9.96724 32.9116 8.4797C32.9116 6.99215 31.8905 5.9326 30.6858 5.9326C29.4811 5.9326 28.4343 6.99215 28.4343 8.4797Z" fill="#049BE5"/>
<path d="M43.7815 4.76873V3.74223H46.4792V13.2208H43.7815V12.1612C43.1568 12.8624 42.2129 13.2973 41.2433 13.2973C38.8236 13.2973 36.5978 11.5192 36.5978 8.47628C36.5978 5.43334 38.8236 3.66394 41.2433 3.66394C42.2129 3.66394 43.1911 4.04844 43.7815 4.76699V4.76873ZM43.7729 8.47802C43.7729 6.99047 42.7192 5.93092 41.5213 5.93092C40.3235 5.93092 39.2955 6.99047 39.2955 8.47802C39.2955 9.96556 40.3149 11.0338 41.5213 11.0338C42.7278 11.0338 43.7729 9.96556 43.7729 8.47802Z" fill="#049BE5"/>
<path d="M54.8367 9.64189L57.3147 10.5831C56.5219 12.3612 54.7097 13.292 52.846 13.292C50.3336 13.292 47.9053 11.6166 47.9053 8.4797C47.9053 5.3428 50.3336 3.66736 52.846 3.66736C54.7097 3.66736 56.5219 4.59816 57.3147 6.37626L54.8367 7.32446C54.466 6.46151 53.716 5.91346 52.8477 5.91346C51.6086 5.91346 50.6047 6.99041 50.6047 8.47796C50.6047 9.9655 51.6086 11.0424 52.8477 11.0424C53.716 11.0424 54.466 10.4961 54.8367 9.64016V9.64189Z" fill="#049BE5"/>
<path d="M64.7884 12.9581C64.198 13.1721 63.5493 13.2834 62.9333 13.2921C61.037 13.3182 59.4513 12.1125 59.4513 10.1639V5.88049H58.1196V3.744H59.4513V1.83716L62.149 1.34131V3.744H64.4589V5.88049H62.149V9.70983C62.149 10.6163 62.554 11.0095 63.237 11.1034C63.7089 11.1974 64.265 11.1208 64.7386 10.9155L64.7884 12.9581Z" fill="#049BE5"/>
<path d="M65.54 8.47799C65.54 5.34109 67.9683 3.66565 70.4807 3.66565C72.9931 3.66565 75.4043 5.34109 75.4043 8.47799C75.4043 11.6149 72.976 13.299 70.4807 13.299C67.9855 13.299 65.54 11.5888 65.54 8.47799ZM72.7151 8.47799C72.7151 6.99044 71.7112 5.91349 70.4807 5.91349C69.2503 5.91349 68.2378 6.99044 68.2378 8.47799C68.2378 9.96553 69.2417 11.0512 70.4807 11.0512C71.7198 11.0512 72.7151 9.97423 72.7151 8.47799Z" fill="#049BE5"/>
<path d="M32.9202 22.8715V18.1792H35.6093V31.3253H32.9202V30.2657C32.2955 30.9669 31.3517 31.4018 30.3735 31.4018C27.9623 31.4018 25.7365 29.6237 25.7365 26.5808C25.7365 23.5378 27.9623 21.7684 30.3735 21.7684C31.3517 21.7684 32.3298 22.1529 32.9202 22.8715ZM32.9116 26.5808C32.9116 25.0932 31.8579 24.0337 30.6601 24.0337C29.4622 24.0337 28.4343 25.0932 28.4343 26.5808C28.4343 28.0683 29.4536 29.1366 30.6601 29.1366C31.8665 29.1366 32.9116 28.0683 32.9116 26.5808Z" fill="#049BE5"/>
<path d="M37.4833 19.1797C37.4833 18.402 38.1663 17.7617 39.0089 17.7617C39.8516 17.7617 40.5346 18.402 40.5346 19.1797C40.5346 19.9574 39.8516 20.5907 39.0089 20.5907C38.1663 20.5907 37.4833 19.9591 37.4833 19.1797ZM37.6601 21.8468H40.3578V31.3253H37.6601V21.8468Z" fill="#049BE5"/>
<path d="M49.086 21.8468H51.7837V30.9582C51.7837 33.9246 49.3468 35.6001 46.843 35.6001C44.9793 35.6001 43.1585 34.6762 42.3742 32.8999L44.8523 31.9517C45.2144 32.8059 45.9643 33.3539 46.8413 33.3539C48.0803 33.3539 49.0842 32.2857 49.0842 30.96V30.1736C48.4596 30.8747 47.5157 31.2853 46.5461 31.2853C44.1264 31.2853 41.9006 29.5072 41.9006 26.5252C41.9006 23.5431 44.1264 21.772 46.5461 21.772C47.5157 21.772 48.4939 22.1826 49.0842 22.9081V21.8485L49.086 21.8468ZM49.0774 26.5217C49.0774 25.095 48.0237 24.0337 46.8258 24.0337C45.628 24.0337 44.6 25.0933 44.6 26.5217C44.6 27.9501 45.6194 29.0166 46.8258 29.0166C48.0323 29.0166 49.0774 27.9483 49.0774 26.5217Z" fill="#049BE5"/>
<path d="M53.6491 19.1797C53.6491 18.402 54.3321 17.7617 55.1747 17.7617C56.0173 17.7617 56.7003 18.402 56.7003 19.1797C56.7003 19.9574 56.0173 20.5907 55.1747 20.5907C54.3321 20.5907 53.6491 19.9591 53.6491 19.1797ZM53.8259 21.8468H56.5236V31.3253H53.8259V21.8468Z" fill="#049BE5"/>
<path d="M64.7952 31.0608C64.2049 31.2748 63.5562 31.3862 62.9401 31.3949C61.0438 31.421 59.4581 30.2153 59.4581 28.2667V23.985H58.1264V21.8485H59.4581V19.9416L62.1559 19.4458V21.8485H64.4658V23.985H62.1559V27.8143C62.1559 28.7208 62.5609 29.114 63.2439 29.2079C63.7158 29.3019 64.2718 29.2253 64.7455 29.02L64.7952 31.0626V31.0608Z" fill="#049BE5"/>
<path d="M72.7305 22.8715V21.845H75.4283V31.3235H72.7305V30.264C72.1059 30.9651 71.162 31.4001 70.1924 31.4001C67.7727 31.4001 65.5469 29.622 65.5469 26.5791C65.5469 23.5361 67.7727 21.7667 70.1924 21.7667C71.162 21.7667 72.1402 22.1512 72.7305 22.8698V22.8715ZM72.722 26.5808C72.722 25.0933 71.6683 24.0337 70.4704 24.0337C69.2726 24.0337 68.2446 25.0933 68.2446 26.5808C68.2446 28.0683 69.264 29.1366 70.4704 29.1366C71.6769 29.1366 72.722 28.0683 72.722 26.5808Z" fill="#049BE5"/>
<path d="M77.3023 18.1792H80V31.3253H77.3023V18.1792Z" fill="#049BE5"/>
<path d="M14.8341 6.07532C15.1018 6.31889 15.3506 6.58508 15.5754 6.87041C15.3489 6.58508 15.1018 6.32063 14.8341 6.07532Z" fill="#FFA300"/>
<path d="M12.3646 21.6084C12.5311 21.5771 12.6941 21.5423 12.8571 21.5023C12.6941 21.5423 12.5293 21.5771 12.3646 21.6084Z" fill="#FFA300"/>
<path d="M19.9069 6.42151C20.2604 7.16093 20.535 7.94733 20.7135 8.77026C20.535 7.94733 20.2604 7.16267 19.9069 6.42151Z" fill="#FFA300"/>
<path d="M14.5011 20.956C14.7654 20.8429 15.0228 20.7194 15.2751 20.5854C15.0228 20.7194 14.7637 20.8429 14.5011 20.956Z" fill="#FFA300"/>
<path d="M19.1432 5.07837C19.2771 5.27845 19.4024 5.48201 19.5225 5.69078C19.4024 5.48201 19.2771 5.27671 19.1432 5.07837Z" fill="#FFA300"/>
<path d="M17.0479 0.400024V2.76966C17.192 2.88796 17.3344 3.01149 17.4717 3.13676C17.748 3.38903 18.0123 3.65522 18.2611 3.93534C18.3847 4.07626 18.5065 4.21893 18.6232 4.36507C18.8051 4.59473 18.9802 4.83308 19.1432 5.07666C19.2771 5.27673 19.4024 5.48029 19.5225 5.68907C19.6598 5.92743 19.7868 6.171 19.9069 6.4198C20.2604 7.15922 20.535 7.94562 20.7135 8.76681C20.7461 8.91644 20.7752 9.06606 20.801 9.21742C20.8799 9.67152 20.9297 10.136 20.9503 10.6075C20.9572 10.7641 20.9606 10.9224 20.9606 11.0825V0.400024H17.0479Z" fill="#03DAC5"/>
<path d="M4.16157 22.3739C4.15985 22.3652 4.1547 22.3565 4.15298 22.3461C4.1547 22.3548 4.15813 22.3635 4.16157 22.3739Z" fill="#03DAC5"/>
<path d="M16.4764 19.8407C16.2087 20.0321 15.9341 20.2113 15.6492 20.3783C15.9341 20.213 16.2087 20.0321 16.4764 19.8407Z" fill="#6200EE"/>
<path d="M11.5529 21.7319C11.8274 21.7023 12.0969 21.6589 12.3646 21.6084C12.0969 21.6589 11.8274 21.7023 11.5529 21.7319Z" fill="#6200EE"/>
<path d="M16.7149 19.6668C16.8282 19.5815 16.9397 19.4928 17.0496 19.4023C16.9397 19.4928 16.8282 19.5798 16.7149 19.6668Z" fill="#6200EE"/>
<path d="M16.7149 19.6667C16.636 19.7259 16.5571 19.7833 16.4764 19.839C16.5553 19.7816 16.636 19.7259 16.7149 19.6667Z" fill="white"/>
<path d="M20.801 9.22095C20.8799 9.67504 20.9297 10.1396 20.9503 10.6111C20.9297 10.1396 20.8799 9.67504 20.801 9.22095Z" fill="#6200EE"/>
<path d="M18.2612 3.93713C18.0123 3.65702 17.748 3.39082 17.4717 3.13855C17.748 3.39082 18.0123 3.65702 18.2612 3.93713Z" fill="#6200EE"/>
<path d="M19.5225 5.6908C19.6598 5.92915 19.7868 6.17273 19.9069 6.42152C19.7885 6.17273 19.6598 5.92915 19.5225 5.6908Z" fill="#6200EE"/>
<path d="M2.69944 27.7291C2.57588 27.5899 2.45404 27.4455 2.33734 27.2993C2.24639 27.1845 2.15715 27.068 2.06963 26.9496C1.98211 26.8313 1.89802 26.7095 1.81736 26.5878C1.65433 26.3424 1.49988 26.0919 1.35573 25.8327C1.21158 25.5734 1.07772 25.309 0.955874 25.0376C0.526846 24.0876 0.229959 23.0629 0.0909539 21.9894C0.03089 21.5284 0 21.0586 0 20.5819V31.2661H3.91274V28.8965C3.76858 28.7782 3.62614 28.6547 3.48886 28.5294C3.21256 28.2771 2.94828 28.0109 2.69944 27.7308V27.7291Z" fill="#049BE5"/>
<path d="M20.9503 10.611C20.9297 10.1395 20.8799 9.675 20.801 9.2209C20.7753 9.06954 20.7461 8.91992 20.7135 8.77029C20.535 7.94736 20.2604 7.1627 19.9069 6.42327C19.7885 6.17448 19.6598 5.93091 19.5225 5.69255C19.4024 5.48377 19.2771 5.27847 19.1432 5.08014C18.9802 4.83482 18.8052 4.59821 18.6232 4.36855C18.5066 4.22241 18.3864 4.078 18.2611 3.93881C18.0123 3.6587 17.748 3.39251 17.4717 3.14024C17.3327 3.01497 17.192 2.89144 17.0479 2.77314C15.4124 1.42304 13.3754 0.558348 11.1427 0.400024H0V20.5819C0 18.0261 0.883798 15.6826 2.35622 13.8401C2.81957 13.2608 3.34299 12.7336 3.91274 12.2638V4.36681H10.8493C11.232 4.39291 11.6044 4.45206 11.9664 4.54079C12.3285 4.62952 12.6786 4.74783 13.0133 4.89398C13.6843 5.18626 14.2986 5.58642 14.8341 6.07531C15.1018 6.31889 15.3506 6.58508 15.5754 6.87041C16.1349 7.57504 16.5553 8.39623 16.799 9.29224C16.8505 9.48188 16.8951 9.675 16.9312 9.8716C17.0015 10.2648 17.0427 10.6684 17.0427 11.0825C17.0427 12.0655 16.8299 12.9963 16.4575 13.8366C16.37 14.0367 16.2687 14.2281 16.1623 14.416C15.0177 16.4481 12.8691 17.8208 10.3962 17.8226H4.50308C4.13068 18.6646 3.91788 19.5954 3.91788 20.5767C3.91788 20.9908 3.95907 21.3944 4.02943 21.7876H10.6536C10.9557 21.7807 11.256 21.7598 11.5511 21.7267C11.8257 21.6971 12.0952 21.6536 12.3629 21.6032C12.5293 21.5719 12.6924 21.5371 12.8554 21.4971C13.4234 21.3596 13.9726 21.1752 14.4994 20.949C14.7637 20.8359 15.0211 20.7124 15.2734 20.5784C15.4004 20.5123 15.5239 20.4427 15.6475 20.3697C15.9324 20.2044 16.207 20.0234 16.4747 19.8321C16.5536 19.7746 16.6343 19.719 16.7132 19.6598C16.8265 19.5746 16.938 19.4858 17.0479 19.3954C17.6193 18.9256 18.141 18.3984 18.6044 17.8191C20.0768 15.9784 20.9606 13.6331 20.9606 11.0773C20.9606 10.919 20.9572 10.7606 20.9503 10.6023V10.611Z" fill="#049BE5"/>
<path d="M18.6061 17.826C18.1427 18.4054 17.6193 18.9325 17.0496 19.4023V27.2993H10.113C9.15717 27.2332 8.25793 26.9635 7.45651 26.5321C7.13559 26.3598 6.83013 26.1615 6.54354 25.9388C5.40404 25.0584 4.55456 23.8127 4.16329 22.3721C4.16157 22.3634 4.15642 22.3547 4.15471 22.3443C4.10666 22.1634 4.06547 21.9789 4.03115 21.791C3.96079 21.3978 3.9196 20.9942 3.9196 20.5801C3.9196 19.5971 4.1324 18.6663 4.50479 17.826C4.59232 17.6259 4.69357 17.4345 4.79997 17.2449C5.94461 15.2145 8.09318 13.8401 10.5661 13.8383H16.4592C16.8316 12.9963 17.0444 12.0655 17.0444 11.0842C17.0444 10.6701 17.0032 10.2665 16.9329 9.87329H10.307C8.14124 9.92723 6.13853 10.6423 4.4842 11.8254C4.28856 11.9646 4.09808 12.1107 3.91274 12.2621C3.34127 12.7318 2.81957 13.259 2.35622 13.8383C0.883798 15.6808 0 18.0261 0 20.5819C0 21.0586 0.03089 21.5283 0.0909539 21.9894C0.229959 23.0646 0.526846 24.0876 0.955874 25.0375C1.07943 25.309 1.21158 25.5734 1.35573 25.8326C1.49988 26.0919 1.65433 26.3424 1.81736 26.5877C1.89974 26.7095 1.98383 26.8313 2.06963 26.9496C2.15715 27.0679 2.24467 27.1845 2.33734 27.2993C2.45404 27.4455 2.57417 27.5899 2.69944 27.729C2.94828 28.0092 3.21256 28.2754 3.48886 28.5276C3.62786 28.6529 3.76858 28.7764 3.91274 28.8947C5.54819 30.2413 7.58693 31.106 9.81959 31.2644H20.9606V11.0842C20.9606 13.64 20.0768 15.9835 18.6044 17.826H18.6061Z" fill="#03DAC5"/>
</svg>
