<svg width="400" height="400" viewBox="0 0 400 400" fill="none" xmlns="http://www.w3.org/2000/svg">
<path d="M216.389 286.728C215.437 286.726 214.516 286.389 213.787 285.777C213.058 285.165 212.567 284.316 212.4 283.378C206.31 249.051 183.199 230.365 182.965 230.182C182.12 229.509 181.577 228.528 181.455 227.454C181.333 226.381 181.643 225.303 182.316 224.457C182.988 223.612 183.97 223.069 185.043 222.947C186.117 222.825 187.195 223.135 188.04 223.808C189.055 224.64 213.76 244.463 220.429 281.957C220.618 283.016 220.379 284.107 219.764 284.99C219.149 285.873 218.209 286.476 217.15 286.667C216.899 286.709 216.644 286.729 216.389 286.728Z" fill="#484646"/>
<path d="M164.208 286.961C163.383 286.96 162.578 286.708 161.9 286.239C161.222 285.769 160.703 285.104 160.412 284.332C149.643 255.79 159.996 229.522 160.412 228.406C160.816 227.407 161.6 226.61 162.592 226.189C163.583 225.768 164.702 225.759 165.7 226.163C166.699 226.566 167.496 227.35 167.917 228.342C168.338 229.334 168.347 230.452 167.943 231.451C167.832 231.745 158.372 256.014 167.943 281.48C168.322 282.487 168.286 283.603 167.842 284.583C167.399 285.563 166.585 286.327 165.578 286.707C165.141 286.873 164.676 286.959 164.208 286.961Z" fill="#484646"/>
<path d="M219.505 256.064C218.78 256.061 218.058 255.952 217.364 255.74C207.691 252.837 205.184 228.994 204.575 218.875C204.509 217.798 204.873 216.739 205.588 215.931C206.303 215.123 207.309 214.632 208.386 214.566C209.463 214.5 210.522 214.865 211.33 215.58C212.138 216.294 212.629 217.301 212.695 218.378C213.547 232.11 216.755 245.783 219.505 247.813C220.886 246.716 224.357 240.961 227.412 224.092L227.524 223.473C227.622 222.945 227.824 222.443 228.118 221.994C228.411 221.545 228.791 221.159 229.235 220.857C229.678 220.556 230.178 220.345 230.703 220.238C231.229 220.131 231.77 220.129 232.297 220.232C232.823 220.335 233.324 220.542 233.77 220.84C234.216 221.138 234.599 221.521 234.896 221.968C235.193 222.415 235.399 222.916 235.501 223.442C235.603 223.969 235.6 224.511 235.492 225.036L235.4 225.533C230.914 250.35 225.362 253.76 223.535 254.877C222.33 255.642 220.933 256.054 219.505 256.064Z" fill="#484646"/>
<path d="M141.411 255.669C139.635 255.669 137.148 254.867 135.027 251.233C131.546 245.285 129.455 232.659 128.511 225.655C125.963 206.664 127.648 205.061 128.764 204.005C129.436 203.368 130.304 202.98 131.226 202.904C132.148 202.828 133.069 203.07 133.835 203.588C134.601 204.107 135.167 204.872 135.439 205.756C135.711 206.64 135.673 207.591 135.331 208.451C135.149 210.481 135.585 218.601 137.128 228.477C138.62 237.967 140.244 243.336 141.411 245.955C143.878 240.099 146.801 223.148 147.999 202.148C148.059 201.071 148.545 200.062 149.349 199.344C150.154 198.625 151.21 198.255 152.287 198.316C153.364 198.377 154.372 198.862 155.091 199.667C155.81 200.471 156.179 201.528 156.119 202.604C156.119 203.092 155.418 214.612 153.825 226.629C150.891 248.696 147.44 254.095 143.157 255.415C142.591 255.588 142.003 255.673 141.411 255.669Z" fill="#484646"/>
<path d="M193.897 317.776C224.297 317.776 248.94 314.318 248.94 310.052C248.94 305.786 224.297 302.328 193.897 302.328C163.497 302.328 138.854 305.786 138.854 310.052C138.854 314.318 163.497 317.776 193.897 317.776Z" fill="#F2F1F1"/>
<path d="M187.614 237.602C224.303 237.602 254.046 207.859 254.046 171.17C254.046 134.481 224.303 104.738 187.614 104.738C150.925 104.738 121.182 134.481 121.182 171.17C121.182 207.859 150.925 237.602 187.614 237.602Z" fill="#FF931E"/>
<path d="M187.614 104.738C200.753 104.738 213.597 108.634 224.522 115.934C235.446 123.234 243.961 133.609 248.989 145.748C254.017 157.886 255.333 171.244 252.769 184.13C250.206 197.017 243.879 208.854 234.588 218.144C225.298 227.435 213.461 233.762 200.574 236.325C187.688 238.888 174.331 237.573 162.192 232.545C150.053 227.517 139.678 219.002 132.378 208.077C125.078 197.153 121.182 184.309 121.182 171.17C121.182 153.551 128.181 136.654 140.64 124.196C153.098 111.737 169.995 104.738 187.614 104.738ZM187.614 103.723C174.268 103.723 161.222 107.681 150.126 115.095C139.029 122.51 130.38 133.048 125.273 145.378C120.166 157.708 118.83 171.275 121.433 184.364C124.037 197.454 130.464 209.477 139.9 218.914C149.337 228.351 161.361 234.777 174.45 237.381C187.539 239.985 201.107 238.648 213.436 233.541C225.766 228.434 236.305 219.785 243.719 208.689C251.134 197.592 255.091 184.546 255.091 171.2C255.072 153.31 247.957 136.158 235.307 123.508C222.657 110.857 205.504 103.742 187.614 103.723Z" fill="#484646"/>
<path d="M156.522 156.696C157.548 154.051 155.008 150.599 150.848 148.985C146.688 147.37 142.484 148.205 141.458 150.85C140.432 153.494 142.972 156.946 147.132 158.561C151.292 160.175 155.496 159.34 156.522 156.696Z" fill="white"/>
<path d="M243.02 180.749C244.046 178.105 241.506 174.652 237.346 173.038C233.186 171.424 228.982 172.259 227.956 174.903C226.93 177.547 229.47 181 233.63 182.614C237.79 184.228 241.994 183.393 243.02 180.749Z" fill="white"/>
<path d="M224.286 143.075L224.844 142.557C226.053 141.463 227.544 140.728 229.148 140.436C230.68 140.18 232.254 140.387 233.668 141.03C235.082 141.674 236.272 142.725 237.085 144.049C237.908 145.407 238.265 146.997 238.1 148.576C237.981 149.592 237.743 150.59 237.39 151.55C237.072 152.496 236.639 153.399 236.101 154.24C235.227 155.541 234.106 156.659 232.802 157.528C231.465 158.417 230.075 159.224 228.64 159.944C226.174 161.243 223.707 162.532 221.251 163.842C220.52 164.227 219.82 164.643 219.099 165.049L218.978 165.12C218.856 164.948 218.744 164.786 218.643 164.613C217.12 162.278 215.506 160.005 213.882 157.741C212.867 156.26 211.761 154.788 210.837 153.225C210.128 152.109 209.562 150.909 209.152 149.652C208.739 148.313 208.591 146.906 208.716 145.511C208.797 144.48 208.98 143.46 209.264 142.466C209.651 141.005 210.478 139.698 211.633 138.723C212.788 137.748 214.214 137.152 215.719 137.015C217.223 136.845 218.745 137.119 220.094 137.805C221.444 138.49 222.562 139.557 223.312 140.872C223.709 141.509 224.029 142.19 224.266 142.902C224.266 142.902 224.266 143.014 224.286 143.075Z" fill="black"/>
<path d="M180.123 129.494L180.722 129.027C182.023 128.04 183.573 127.436 185.198 127.281C186.456 127.17 187.722 127.372 188.883 127.87C190.598 128.57 191.991 129.883 192.79 131.554C193.489 132.98 193.706 134.593 193.409 136.152C193.188 137.157 192.848 138.132 192.394 139.055C192.021 139.987 191.53 140.867 190.933 141.674C189.956 142.912 188.745 143.947 187.37 144.719C185.966 145.485 184.515 146.163 183.026 146.749L175.332 150.007C174.581 150.332 173.84 150.687 173.099 151.022L172.957 151.083L172.673 150.545C171.354 148.089 169.943 145.683 168.511 143.288C167.588 141.725 166.644 140.172 165.832 138.538C165.226 137.362 164.762 136.118 164.451 134.833C164.156 133.464 164.128 132.051 164.37 130.671C164.536 129.631 164.808 128.611 165.182 127.626C165.692 126.204 166.627 124.973 167.859 124.1C169.092 123.227 170.563 122.753 172.074 122.744C173.587 122.702 175.079 123.104 176.366 123.902C177.652 124.699 178.676 125.857 179.311 127.231C179.657 127.91 179.919 128.63 180.093 129.372C180.101 129.413 180.111 129.454 180.123 129.494Z" fill="black"/>
<path d="M115.153 122.064L115.377 121.76C115.846 121.13 116.482 120.645 117.214 120.359C117.782 120.139 118.395 120.062 119 120.136C119.835 120.218 120.615 120.59 121.204 121.187C121.794 121.784 122.156 122.568 122.228 123.404C122.268 123.895 122.248 124.39 122.167 124.876C122.109 125.356 121.989 125.827 121.812 126.276C121.523 126.978 121.098 127.616 120.563 128.154C120.016 128.703 119.437 129.218 118.828 129.697L115.691 132.255L114.788 133.026L114.585 132.813C113.641 131.798 112.656 130.925 111.672 130.001C111.032 129.403 110.383 128.804 109.784 128.164C109.342 127.697 108.957 127.179 108.637 126.622C108.317 126.026 108.113 125.375 108.038 124.703C107.987 124.2 107.987 123.694 108.038 123.191C108.082 122.46 108.35 121.761 108.806 121.189C109.262 120.617 109.883 120.199 110.586 119.994C111.283 119.769 112.031 119.753 112.736 119.95C113.442 120.147 114.074 120.547 114.554 121.1C114.808 121.369 115.026 121.669 115.204 121.993C115.194 122.021 115.176 122.046 115.153 122.064Z" fill="#F2F1F1"/>
<path d="M281.755 156.381L282.253 156.097C283.334 155.485 284.564 155.187 285.805 155.234C286.983 155.301 288.113 155.718 289.053 156.43C289.993 157.142 290.7 158.118 291.083 159.233C291.464 160.38 291.464 161.619 291.083 162.766C290.824 163.479 290.483 164.16 290.068 164.796C289.68 165.446 289.209 166.043 288.667 166.572C287.805 167.397 286.787 168.042 285.673 168.47C284.535 168.909 283.373 169.282 282.192 169.586L276.102 171.251C275.503 171.413 274.914 171.606 274.315 171.789H274.204C274.153 171.637 274.102 171.495 274.041 171.353C273.3 169.373 272.488 167.414 271.656 165.466C271.118 164.187 270.57 162.918 270.133 161.609C269.792 160.662 269.57 159.677 269.474 158.675C269.386 157.613 269.51 156.543 269.839 155.529C270.073 154.774 270.379 154.043 270.753 153.346C271.283 152.328 272.113 151.497 273.132 150.966C274.151 150.436 275.308 150.232 276.447 150.383C277.592 150.504 278.676 150.959 279.564 151.692C280.452 152.425 281.104 153.402 281.441 154.504C281.627 155.049 281.75 155.615 281.806 156.188C281.775 156.248 281.758 156.314 281.755 156.381Z" fill="#F2F1F1"/>
<path d="M273.727 106.809C273.96 106.667 274.163 106.525 274.386 106.403C275.808 105.552 277.439 105.112 279.096 105.134C280.668 105.168 282.195 105.668 283.482 106.572C284.768 107.476 285.757 108.742 286.323 110.209C286.87 111.725 286.912 113.377 286.445 114.919C286.134 115.912 285.701 116.864 285.156 117.75C284.661 118.635 284.058 119.453 283.359 120.186C282.228 121.341 280.879 122.259 279.39 122.886C277.888 123.52 276.35 124.062 274.782 124.51L266.662 126.987C265.86 127.231 265.079 127.515 264.287 127.779H264.145C264.064 127.576 263.983 127.393 263.912 127.2C262.836 124.581 261.669 121.993 260.481 119.425C259.71 117.74 258.928 116.066 258.278 114.35C257.784 113.097 257.443 111.788 257.263 110.453C257.11 109.035 257.235 107.601 257.629 106.23C257.909 105.211 258.29 104.221 258.766 103.277C259.433 101.892 260.509 100.747 261.849 99.9953C263.189 99.2436 264.728 98.9221 266.256 99.0744C267.791 99.1942 269.256 99.7608 270.472 100.704C271.688 101.648 272.6 102.926 273.097 104.383C273.374 105.109 273.561 105.865 273.656 106.636C273.674 106.696 273.697 106.754 273.727 106.809Z" fill="#F2F1F1"/>
<path d="M133.951 92.2333C134.103 92.1217 134.245 91.9999 134.398 91.8984C135.349 91.1717 136.484 90.7252 137.676 90.6093C138.602 90.5287 139.533 90.6787 140.386 91.0458C141.647 91.5588 142.674 92.5205 143.269 93.7457C143.779 94.7979 143.936 95.9872 143.715 97.1358C143.565 97.8721 143.326 98.5878 143.005 99.2673C142.712 99.938 142.34 100.572 141.898 101.155C141.192 102.052 140.316 102.8 139.32 103.358C138.287 103.93 137.219 104.439 136.123 104.88L130.47 107.276C129.911 107.519 129.373 107.783 128.825 108.027H128.724L128.511 107.631C127.546 105.824 126.481 104.058 125.466 102.292C124.786 101.145 124.095 99.9981 123.496 98.8004C123.048 97.9386 122.707 97.025 122.481 96.0802C122.266 95.0785 122.245 94.0447 122.421 93.0352C122.544 92.2801 122.741 91.5389 123.009 90.8225C123.387 89.7768 124.076 88.8718 124.983 88.2294C125.89 87.587 126.973 87.238 128.084 87.2294C129.196 87.1984 130.293 87.4945 131.238 88.0808C132.184 88.6672 132.936 89.5181 133.403 90.5281C133.662 91.0245 133.854 91.5537 133.971 92.1014L133.951 92.2333Z" fill="#F2F1F1"/>
<path d="M228.478 85.6155L228.793 85.3618C229.481 84.8428 230.299 84.5232 231.158 84.4381C231.823 84.3781 232.493 84.4863 233.106 84.7528C233.949 85.0969 234.647 85.7209 235.083 86.5195C235.52 87.3182 235.667 88.2427 235.502 89.1376C235.394 89.6668 235.224 90.1814 234.994 90.6702C234.783 91.1542 234.513 91.6109 234.192 92.0303C233.676 92.6793 233.034 93.2178 232.304 93.6137C231.563 94.0258 230.797 94.3919 230.011 94.7099L225.951 96.4354L224.773 96.9734H224.702C224.642 96.8822 224.588 96.7873 224.54 96.6892C223.85 95.39 223.098 94.1212 222.347 92.8525C221.86 92.0303 221.332 91.2082 220.926 90.3454C220.602 89.7218 220.357 89.0604 220.196 88.3763C220.053 87.649 220.053 86.9011 220.196 86.1738C220.287 85.6304 220.43 85.0969 220.622 84.5802C220.895 83.8291 221.392 83.1795 222.045 82.7186C222.698 82.2578 223.477 82.0078 224.276 82.0021C225.077 81.9761 225.868 82.1878 226.549 82.6105C227.23 83.0331 227.77 83.6479 228.102 84.3772C228.283 84.7351 228.419 85.1134 228.508 85.5039C228.503 85.5422 228.493 85.5798 228.478 85.6155Z" fill="#F2F1F1"/>
<path d="M232.436 194.363L144.192 166.958C144.192 166.958 133.027 200.25 173.566 214.581C214.106 228.913 232.436 194.363 232.436 194.363Z" fill="#484646"/>
<path d="M147.796 224.447C147.796 224.447 148.212 212.754 141.99 207.832C135.768 202.909 127.14 200.544 127.14 200.544C127.14 200.544 124.572 185.146 120.035 184.395C115.498 183.644 112.179 194.393 113.397 201.975C114.615 209.557 126.176 218.987 126.176 218.987L147.796 224.447Z" fill="white"/>
<path d="M147.796 224.965H147.664L126.064 219.474C125.99 219.454 125.921 219.42 125.861 219.372C125.384 218.976 114.128 209.73 112.89 202.036C111.936 196.037 113.742 188.141 116.777 185.136C117.187 184.664 117.708 184.301 118.292 184.078C118.876 183.855 119.506 183.779 120.127 183.857C124.654 184.608 127.14 197.469 127.597 200.097C129.252 200.585 136.732 202.96 142.315 207.416C148.668 212.44 148.334 223.96 148.313 224.447C148.312 224.526 148.294 224.603 148.259 224.674C148.223 224.744 148.173 224.805 148.11 224.853C148.021 224.925 147.91 224.964 147.796 224.965ZM126.481 218.469L147.319 223.767C147.319 221.27 146.821 212.288 141.716 208.238C135.626 203.437 127.14 201.041 127.049 201.021C126.952 200.996 126.865 200.944 126.799 200.87C126.732 200.796 126.688 200.703 126.673 200.605C125.973 196.423 123.415 185.451 120.005 184.883C119.546 184.836 119.084 184.904 118.658 185.081C118.233 185.259 117.859 185.539 117.569 185.898C114.788 188.658 113.072 196.281 113.976 201.894C115.042 208.816 125.364 217.586 126.43 218.469H126.481Z" fill="#484646"/>
<path d="M123.169 226.409L150.22 224.944C152.453 224.823 154.166 222.915 154.045 220.681L154.016 220.144C153.895 217.911 151.986 216.198 149.753 216.319L122.702 217.784C120.469 217.905 118.756 219.814 118.877 222.047L118.906 222.584C119.027 224.818 120.936 226.53 123.169 226.409Z" fill="white"/>
<path d="M122.938 226.934C121.813 226.938 120.727 226.521 119.893 225.767C119.446 225.366 119.081 224.881 118.822 224.339C118.562 223.798 118.412 223.21 118.381 222.61V222.072C118.317 220.863 118.735 219.677 119.544 218.776C120.352 217.874 121.485 217.329 122.695 217.261L149.734 215.769C150.943 215.708 152.127 216.127 153.028 216.935C153.929 217.743 154.475 218.874 154.545 220.083V220.631C154.58 221.23 154.496 221.83 154.297 222.396C154.099 222.962 153.79 223.484 153.388 223.93C152.577 224.831 151.442 225.375 150.232 225.442L123.192 226.934H122.938ZM122.725 218.306C121.792 218.356 120.918 218.775 120.293 219.469C119.669 220.164 119.346 221.078 119.396 222.011V222.549C119.446 223.482 119.864 224.357 120.559 224.981C121.254 225.605 122.168 225.928 123.101 225.878L150.171 224.417C151.102 224.364 151.974 223.945 152.596 223.25C153.218 222.556 153.54 221.643 153.49 220.712V220.164C153.435 219.233 153.015 218.362 152.321 217.738C151.628 217.115 150.716 216.79 149.785 216.835L122.725 218.306Z" fill="#484646"/>
<path d="M220.257 237.003C220.257 237.003 219.84 225.32 226.052 220.397C232.264 215.475 240.902 213.079 240.902 213.079C240.902 213.079 243.48 197.682 248.007 196.92C252.534 196.159 255.853 206.918 254.635 214.5C253.417 222.082 241.835 231.512 241.835 231.512L220.257 237.003Z" fill="white"/>
<path d="M220.256 237.531C220.144 237.529 220.034 237.494 219.942 237.429C219.879 237.381 219.827 237.32 219.79 237.25C219.753 237.18 219.732 237.102 219.729 237.023C219.729 236.536 219.373 225.016 225.727 219.981C231.361 215.525 238.801 213.16 240.445 212.663C240.912 210.014 243.388 197.164 247.915 196.423C248.535 196.343 249.165 196.416 249.749 196.638C250.333 196.859 250.854 197.221 251.265 197.692C254.31 200.737 256.116 208.603 255.152 214.592C253.914 222.285 242.668 231.542 242.191 231.928C242.131 231.975 242.062 232.01 241.988 232.029L220.378 237.52L220.256 237.531ZM248.453 197.408C248.332 197.398 248.209 197.398 248.088 197.408C244.677 197.976 242.12 208.958 241.419 213.14C241.401 213.237 241.356 213.328 241.29 213.401C241.224 213.474 241.138 213.528 241.044 213.556C240.962 213.556 232.436 215.972 226.377 220.773C221.302 224.833 220.805 233.806 220.774 236.302L241.612 230.994C242.678 230.111 253 221.331 254.117 214.378C255.02 208.765 253.305 201.183 250.534 198.382C249.994 197.798 249.247 197.448 248.453 197.408Z" fill="#484646"/>
<path d="M243.254 231.732L216.203 230.267C213.97 230.146 212.061 231.859 211.94 234.092L211.911 234.629C211.79 236.863 213.502 238.771 215.736 238.892L242.787 240.357C245.02 240.478 246.929 238.766 247.05 236.532L247.079 235.995C247.2 233.762 245.487 231.853 243.254 231.732Z" fill="white"/>
<path d="M243.023 240.89H242.769L215.709 239.429C214.498 239.363 213.363 238.82 212.552 237.918C211.741 237.016 211.322 235.829 211.385 234.618V234.069C211.456 232.861 212.001 231.73 212.903 230.922C213.804 230.114 214.988 229.695 216.196 229.756L243.266 231.217C244.475 231.288 245.606 231.833 246.414 232.735C247.222 233.636 247.641 234.82 247.58 236.028V236.576C247.513 237.741 247.004 238.835 246.157 239.637C245.31 240.439 244.189 240.887 243.023 240.89ZM215.983 230.791C215.082 230.792 214.216 231.137 213.561 231.756C212.907 232.375 212.513 233.221 212.461 234.12V234.658C212.432 235.121 212.496 235.585 212.649 236.023C212.803 236.46 213.042 236.863 213.354 237.206C213.662 237.551 214.034 237.832 214.451 238.032C214.867 238.232 215.319 238.348 215.78 238.373L242.85 239.835C243.782 239.882 244.695 239.558 245.389 238.934C246.084 238.31 246.503 237.437 246.555 236.505V235.967C246.605 235.035 246.282 234.12 245.658 233.426C245.033 232.731 244.159 232.313 243.226 232.263L216.166 230.791H215.983Z" fill="#484646"/>
<path d="M203.093 277.055C203.093 277.055 223.271 261.951 224.692 264.377C226.113 266.803 234.964 287.895 234.964 287.895C234.964 287.895 266.023 289.316 263.049 292.818C260.075 296.319 219.404 310.073 219.404 310.073L203.093 277.055Z" fill="white"/>
<path d="M219.444 310.58C219.347 310.579 219.252 310.551 219.169 310.499C219.087 310.447 219.021 310.373 218.977 310.286L202.616 277.288C202.563 277.178 202.551 277.053 202.581 276.934C202.61 276.816 202.68 276.711 202.778 276.639C204.646 275.238 221.129 262.966 224.428 263.626C224.577 263.649 224.719 263.704 224.843 263.789C224.968 263.873 225.072 263.984 225.149 264.113C226.488 266.407 234.182 284.687 235.299 287.387C240.526 287.641 262.328 288.849 263.658 291.914C263.745 292.121 263.77 292.348 263.728 292.569C263.687 292.789 263.581 292.992 263.424 293.153C260.379 296.725 221.261 309.991 219.597 310.55C219.548 310.567 219.496 310.578 219.444 310.58ZM203.752 277.217L219.718 309.413C231.279 305.485 260.318 295.203 262.643 292.473C262.704 292.402 262.724 292.361 262.714 292.33C261.983 290.646 248.017 289.022 234.943 288.423C234.843 288.419 234.745 288.386 234.663 288.329C234.58 288.271 234.515 288.191 234.477 288.098C234.395 287.895 225.636 267.006 224.245 264.641C223.007 263.91 212.705 270.579 203.752 277.217Z" fill="#484646"/>
<path d="M173.983 271.249C173.983 271.249 149.014 267.747 148.932 270.549C148.851 273.35 151.267 296.106 151.267 296.106C151.267 296.106 124.735 312.346 129.028 313.95C133.322 315.554 175.546 308.053 175.546 308.053L173.983 271.249Z" fill="white"/>
<path d="M131.271 314.681C130.455 314.725 129.637 314.643 128.845 314.437C128.624 314.369 128.429 314.236 128.286 314.055C128.143 313.873 128.058 313.653 128.043 313.422C127.983 312.783 127.83 311.077 139.513 303.069C144.456 299.679 149.49 296.553 150.678 295.792C150.363 292.879 148.293 273.157 148.374 270.498C148.377 270.346 148.415 270.197 148.483 270.062C148.552 269.927 148.65 269.809 148.77 269.716C151.307 267.575 171.699 270.366 174.013 270.731C174.133 270.75 174.243 270.81 174.325 270.9C174.406 270.991 174.454 271.107 174.459 271.229L176.023 308.032C176.027 308.158 175.987 308.282 175.909 308.38C175.831 308.479 175.72 308.546 175.596 308.57C174.084 308.844 141.198 314.681 131.271 314.681ZM153.652 270.021C151.267 270.021 149.704 270.203 149.45 270.64C149.379 273.35 151.764 295.873 151.794 296.096C151.804 296.195 151.785 296.294 151.74 296.382C151.695 296.47 151.626 296.543 151.541 296.593C140.376 303.424 128.916 311.575 129.089 313.402C129.089 313.402 129.089 313.463 129.221 313.493C132.581 314.782 162.97 309.788 174.997 307.657L173.475 271.746C166.907 270.77 160.288 270.18 153.652 269.98V270.021Z" fill="#484646"/>
</svg>
