<svg width="150" height="150" viewBox="0 0 150 150" fill="none" xmlns="http://www.w3.org/2000/svg">
<path d="M141.037 60.4214H140.99L114.067 71.9178L77.2301 87.6473C77.0862 87.7078 76.9317 87.7394 76.7756 87.7402C76.6194 87.741 76.4646 87.711 76.3201 87.652L38.3155 71.8849L10.7308 60.4402L10.6886 60.4214H10.6417C10.2064 60.4219 9.78913 60.595 9.48137 60.9028C9.1736 61.2105 9.00048 61.6278 9 62.0631V133.358C9.00048 133.794 9.1736 134.211 9.48137 134.519C9.78913 134.826 10.2064 135 10.6417 135H141.037C141.472 135 141.89 134.826 142.197 134.519C142.505 134.211 142.678 133.794 142.679 133.358V62.0631C142.678 61.6278 142.505 61.2105 142.197 60.9028C141.89 60.595 141.472 60.4219 141.037 60.4214Z" fill="#E6FBF9"/>
<path d="M141.506 60.8904C141.458 60.8905 141.411 60.8758 141.372 60.8484L76.5124 15.6783C76.315 15.5414 76.0805 15.4683 75.8403 15.4687C75.6002 15.4691 75.3659 15.5431 75.169 15.6806L10.7765 60.8479C10.7513 60.8656 10.7228 60.8782 10.6927 60.8849C10.6627 60.8916 10.6316 60.8923 10.6012 60.8869C10.5709 60.8816 10.5419 60.8704 10.5159 60.8538C10.4899 60.8373 10.4674 60.8158 10.4498 60.7906C10.4321 60.7654 10.4195 60.7369 10.4128 60.7069C10.4061 60.6768 10.4054 60.6457 10.4108 60.6154C10.4161 60.585 10.4273 60.556 10.4439 60.53C10.4604 60.504 10.4819 60.4816 10.5071 60.4639L74.8996 15.2965C75.1753 15.104 75.5034 15.0006 75.8396 15C76.1758 14.9994 76.5042 15.1018 76.7805 15.2934L141.64 60.4634C141.681 60.4919 141.712 60.5328 141.728 60.5801C141.744 60.6274 141.745 60.6785 141.73 60.7262C141.715 60.7738 141.685 60.8154 141.645 60.845C141.605 60.8745 141.556 60.8904 141.506 60.8904L141.506 60.8904Z" fill="#03DAC5"/>
<path d="M14.4561 62.4915L75.9039 16.9509L137.818 65.7319L79.07 100.559L47.1747 93.2885L14.4561 62.4915Z" fill="#CDF8F3"/>
<path d="M49.8668 122.07H19.5099C19.3235 122.07 19.1389 122.034 18.9666 121.962C18.7943 121.891 18.6378 121.787 18.5059 121.655C18.374 121.523 18.2694 121.367 18.198 121.195C18.1266 121.023 18.0898 120.838 18.0898 120.652C18.0898 120.465 18.1266 120.281 18.198 120.108C18.2694 119.936 18.374 119.78 18.5059 119.648C18.6378 119.516 18.7943 119.412 18.9666 119.341C19.1389 119.27 19.3235 119.233 19.5099 119.233H49.8668C50.0532 119.233 50.2378 119.27 50.4101 119.341C50.5824 119.412 50.7389 119.516 50.8708 119.648C51.0027 119.78 51.1073 119.936 51.1787 120.108C51.2501 120.281 51.2868 120.465 51.2868 120.652C51.2868 120.838 51.2501 121.023 51.1787 121.195C51.1073 121.367 51.0027 121.523 50.8708 121.655C50.7389 121.787 50.5824 121.891 50.4101 121.962C50.2378 122.034 50.0532 122.07 49.8668 122.07Z" fill="#03DAC5"/>
<path d="M30.4013 115.972H19.5099C19.3235 115.972 19.1389 115.936 18.9666 115.865C18.7943 115.794 18.6378 115.689 18.5059 115.557C18.374 115.426 18.2694 115.269 18.198 115.097C18.1266 114.925 18.0898 114.74 18.0898 114.554C18.0898 114.368 18.1266 114.183 18.198 114.011C18.2694 113.839 18.374 113.682 18.5059 113.55C18.6378 113.419 18.7943 113.314 18.9666 113.243C19.1389 113.172 19.3235 113.136 19.5099 113.136H30.4013C30.5877 113.136 30.7723 113.172 30.9446 113.243C31.1169 113.314 31.2734 113.419 31.4053 113.55C31.5372 113.682 31.6418 113.839 31.7132 114.011C31.7846 114.183 31.8214 114.368 31.8214 114.554C31.8214 114.74 31.7846 114.925 31.7132 115.097C31.6418 115.269 31.5372 115.426 31.4053 115.557C31.2734 115.689 31.1169 115.794 30.9446 115.865C30.7723 115.936 30.5877 115.972 30.4013 115.972Z" fill="#03DAC5"/>
<path d="M76.768 87.8571C76.5373 87.8573 76.3088 87.8125 76.0952 87.7253L38.1982 72.0007V22.7802C38.1987 22.345 38.3719 21.9277 38.6796 21.6199C38.9874 21.3122 39.4047 21.1391 39.8399 21.1385H112.542C112.978 21.1391 113.395 21.3122 113.703 21.6199C114.01 21.9277 114.184 22.345 114.184 22.7802V72.0351L114.113 72.0655L77.4613 87.7176C77.2418 87.8098 77.0061 87.8572 76.768 87.8571Z" fill="white"/>
<path d="M76.7681 87.9743C76.5221 87.9746 76.2784 87.9269 76.0506 87.8339L38.0811 72.0791V22.7803C38.0816 22.314 38.2671 21.8669 38.5968 21.5371C38.9266 21.2074 39.3736 21.0219 39.84 21.0214H112.542C113.009 21.0219 113.456 21.2074 113.786 21.5371C114.115 21.8669 114.301 22.314 114.301 22.7803V72.1125L77.5074 87.8254C77.2734 87.9239 77.022 87.9745 76.7681 87.9743ZM38.5501 71.7658L76.2294 87.4002C76.5809 87.5428 76.9745 87.5405 77.3242 87.3937L113.832 71.8029V22.7803C113.832 22.4383 113.696 22.1105 113.454 21.8687C113.212 21.6268 112.884 21.4908 112.542 21.4904H39.84C39.498 21.4908 39.1702 21.6268 38.9284 21.8687C38.6865 22.1105 38.5505 22.4383 38.5501 22.7803V71.7658Z" fill="#03DAC5"/>
<path d="M141.037 60.4214H140.99L114.067 71.9178L77.2301 87.6473C77.0862 87.7078 76.9317 87.7394 76.7756 87.7402C76.6194 87.741 76.4646 87.711 76.3201 87.652L38.3155 71.8849L10.7308 60.4402L10.6886 60.4214H10.6417C10.2064 60.4219 9.78913 60.595 9.48137 60.9028C9.1736 61.2105 9.00048 61.6278 9 62.0631V133.358C9.00048 133.794 9.1736 134.211 9.48137 134.519C9.78913 134.826 10.2064 135 10.6417 135H141.037C141.472 135 141.89 134.826 142.197 134.519C142.505 134.211 142.678 133.794 142.679 133.358V62.0631C142.678 61.6278 142.505 61.2105 142.197 60.9028C141.89 60.595 141.472 60.4219 141.037 60.4214ZM142.21 133.358C142.209 133.669 142.086 133.967 141.866 134.187C141.646 134.407 141.348 134.531 141.037 134.531H10.6417C10.3307 134.531 10.0325 134.407 9.81264 134.187C9.59276 133.967 9.46917 133.669 9.46905 133.358V62.0631C9.46947 61.7598 9.5871 61.4685 9.79733 61.2499C10.0076 61.0314 10.2941 60.9026 10.5971 60.8904L38.3155 72.3915L76.1396 88.0858C76.549 88.2524 77.0078 88.2499 77.4154 88.0788L114.067 72.4267L141.084 60.8904C141.386 60.9035 141.672 61.0327 141.882 61.2511C142.092 61.4695 142.209 61.7603 142.21 62.0631V133.358Z" fill="#03DAC5"/>
<path d="M70.8682 39.5373H45.0705C44.5729 39.5373 44.0957 39.3396 43.7439 38.9878C43.392 38.6359 43.1943 38.1587 43.1943 37.6611C43.1943 37.1635 43.392 36.6863 43.7439 36.3344C44.0957 35.9826 44.5729 35.7849 45.0705 35.7849H70.8682C71.3658 35.7849 71.843 35.9826 72.1948 36.3344C72.5467 36.6863 72.7444 37.1635 72.7444 37.6611C72.7444 38.1587 72.5467 38.6359 72.1948 38.9878C71.843 39.3396 71.3658 39.5373 70.8682 39.5373Z" fill="#03DAC5"/>
<path d="M57.5003 31.5634H45.0705C44.5729 31.5634 44.0957 31.3658 43.7439 31.0139C43.392 30.662 43.1943 30.1848 43.1943 29.6872C43.1943 29.1896 43.392 28.7124 43.7439 28.3606C44.0957 28.0087 44.5729 27.811 45.0705 27.811H57.5003C57.9979 27.811 58.4751 28.0087 58.827 28.3606C59.1788 28.7124 59.3765 29.1896 59.3765 29.6872C59.3765 30.1848 59.1788 30.662 58.827 31.0139C58.4751 31.3658 57.9979 31.5634 57.5003 31.5634Z" fill="#03DAC5"/>
<path d="M95.4857 58.2993H56.0857C55.5881 58.2993 55.1108 58.1016 54.759 57.7497C54.4071 57.3979 54.2095 56.9207 54.2095 56.4231C54.2095 55.9255 54.4071 55.4483 54.759 55.0964C55.1108 54.7445 55.5881 54.5469 56.0857 54.5469H95.4857C95.9833 54.5469 96.4605 54.7445 96.8124 55.0964C97.1642 55.4483 97.3619 55.9255 97.3619 56.4231C97.3619 56.9207 97.1642 57.3979 96.8124 57.7497C96.4605 58.1016 95.9833 58.2993 95.4857 58.2993Z" fill="#9AF0E8"/>
<path d="M95.4857 66.9767H56.0857C55.5881 66.9767 55.1108 66.7791 54.759 66.4272C54.4071 66.0754 54.2095 65.5982 54.2095 65.1006C54.2095 64.603 54.4071 64.1257 54.759 63.7739C55.1108 63.422 55.5881 63.2244 56.0857 63.2244H95.4857C95.9833 63.2244 96.4605 63.422 96.8124 63.7739C97.1642 64.1257 97.3619 64.603 97.3619 65.1006C97.3619 65.5982 97.1642 66.0754 96.8124 66.4272C96.4605 66.7791 95.9833 66.9767 95.4857 66.9767Z" fill="#9AF0E8"/>
</svg>
