<svg width="150" height="150" viewBox="0 0 150 150" fill="none" xmlns="http://www.w3.org/2000/svg">
<path d="M61.3503 69.4833C65.1665 69.4833 68.2601 66.3897 68.2601 62.5735C68.2601 58.7573 65.1665 55.6636 61.3503 55.6636C57.5341 55.6636 54.4404 58.7573 54.4404 62.5735C54.4404 66.3897 57.5341 69.4833 61.3503 69.4833Z" fill="#F2F2F2"/>
<path d="M40.046 38.7542H87.6528V41.3588H46.1234C43.6816 41.3588 41.2638 41.8397 39.0079 42.7741C36.7519 43.7086 34.7022 45.0782 32.9756 46.8048C31.249 48.5313 29.8794 50.5811 28.9449 52.837C28.0105 55.0929 27.5296 57.5108 27.5296 59.9525V89.5441H22.3204C22.0901 89.5441 21.8693 89.4527 21.7064 89.2898C21.5436 89.127 21.4522 88.9062 21.4521 88.6759V57.3479C21.4521 54.9061 21.9331 52.4883 22.8675 50.2324C23.8019 47.9765 25.1716 45.9267 26.8982 44.2001C28.6247 42.4735 30.6745 41.1039 32.9304 40.1695C35.1863 39.2351 37.6042 38.7541 40.046 38.7542Z" fill="#F2F2F2"/>
<path d="M49.2021 128.997V89.4326H60.7928V128.997C60.7925 129.263 60.6868 129.518 60.4987 129.706C60.3107 129.894 60.0557 130 59.7898 130H50.2052C49.9393 130 49.6843 129.894 49.4963 129.706C49.3082 129.518 49.2024 129.263 49.2021 128.997Z" fill="#3F3D56"/>
<path d="M19 88.6525V56.4806C19.0058 51.3591 21.0429 46.449 24.6643 42.8275C28.2858 39.206 33.1959 37.1689 38.3175 37.1631H87.4296V89.767H20.1145C19.819 89.7666 19.5357 89.6491 19.3268 89.4402C19.1179 89.2312 19.0003 88.9479 19 88.6525ZM86.9838 37.6089H38.3175C33.3141 37.6146 28.5173 39.6046 24.9794 43.1426C21.4415 46.6805 19.4515 51.4773 19.4458 56.4806V88.6525C19.446 88.8298 19.5165 88.9997 19.6419 89.1251C19.7672 89.2505 19.9372 89.321 20.1145 89.3212H86.9838V37.6089Z" fill="#3F3D56"/>
<path d="M61.3513 66.1398C60.2876 66.1386 59.2678 65.7155 58.5156 64.9634C57.7634 64.2112 57.3403 63.1914 57.3391 62.1277V33.3739C57.339 33.1966 57.2684 33.0266 57.1431 32.9012C57.0177 32.7759 56.8477 32.7054 56.6705 32.7052H41.0676C40.7721 32.7048 40.4889 32.5873 40.2799 32.3784C40.071 32.1694 39.9535 31.8862 39.9531 31.5907V21.1145C39.9535 20.819 40.071 20.5357 40.2799 20.3268C40.4889 20.1179 40.7721 20.0003 41.0676 20H64.249C64.5445 20.0003 64.8277 20.1179 65.0367 20.3268C65.2456 20.5357 65.3631 20.819 65.3635 21.1145V62.1277C65.3623 63.1914 64.9392 64.2112 64.187 64.9634C63.4348 65.7155 62.415 66.1386 61.3513 66.1398Z" fill="#03DAC5"/>
<path d="M89.213 36.7173C92.5756 36.7103 95.8032 38.0393 98.1859 40.412C100.569 42.7847 101.911 46.0067 101.918 49.3693V85.9936H126.883C127.886 85.9915 128.848 86.3878 129.559 87.0955C130.269 87.8031 130.67 88.7641 130.672 89.767H76.5078V49.3693C76.5149 46.0067 77.8574 42.7847 80.2401 40.412C82.6228 38.0393 85.8504 36.7103 89.213 36.7173Z" fill="#3F3D56"/>
<path d="M61.3503 63.688C62.212 63.688 62.9106 62.9894 62.9106 62.1277C62.9106 61.2659 62.212 60.5674 61.3503 60.5674C60.4886 60.5674 59.79 61.2659 59.79 62.1277C59.79 62.9894 60.4886 63.688 61.3503 63.688Z" fill="white"/>
</svg>
