<svg width="150" height="150" viewBox="0 0 150 150" fill="none" xmlns="http://www.w3.org/2000/svg">
<path d="M47.6469 41.0841L47.3265 41.4912L35.9813 32.7474C34.2398 31.4052 32.0343 30.7981 29.8501 31.0595C27.6659 31.3209 25.6818 32.4294 24.3343 34.1413L5.73613 57.7685C4.38865 59.4803 3.78816 61.6552 4.06675 63.8147C4.34535 65.9742 5.48022 67.9414 7.2217 69.2836L69.462 117.253C71.2035 118.595 73.4089 119.202 75.5931 118.941C77.7774 118.679 79.7615 117.571 81.1089 115.859L99.7071 92.2315C101.055 90.5197 101.655 88.3448 101.377 86.1853C101.098 84.0258 99.963 82.0586 98.2216 80.7164L55.4021 47.7152L55.7225 47.3081L47.6469 41.0841Z" fill="#3F3D56"/>
<path d="M34.9456 34.1567L97.0942 82.055C98.3947 83.0574 99.2422 84.5266 99.4503 86.1393C99.6584 87.7521 99.2099 89.3763 98.2037 90.6547L79.5162 114.395C78.5099 115.674 77.0282 116.501 75.397 116.697C73.7659 116.892 72.1189 116.438 70.8183 115.436L8.66959 67.5378C7.36906 66.5354 6.52154 65.0663 6.31349 63.4536C6.10543 61.8408 6.55386 60.2166 7.56014 58.9381L9.8272 56.058C10.0696 56.4722 10.4109 56.8219 10.8211 57.0762C11.2313 57.3306 11.6979 57.4819 12.1797 57.5168C12.6616 57.5516 13.144 57.469 13.5845 57.2762C14.025 57.0835 14.4101 56.7864 14.7059 56.4111L25.3606 42.8753C25.6559 42.4997 25.8527 42.0575 25.9338 41.5877C26.0149 41.1179 25.9778 40.6348 25.8256 40.1811C25.6735 39.7273 25.411 39.3167 25.0614 38.9854C24.7117 38.6541 24.2855 38.4123 23.8203 38.2811L26.2475 35.1977C27.2538 33.9193 28.7356 33.0914 30.3668 32.8962C31.998 32.701 33.645 33.1544 34.9456 34.1567Z" fill="white"/>
<path d="M22.2476 73.1068C22.1807 73.1932 22.1507 73.3019 22.1642 73.4091C22.1777 73.5163 22.2335 73.6133 22.3194 73.6788C22.4053 73.7443 22.5144 73.773 22.6226 73.7585C22.7308 73.744 22.8294 73.6876 22.8967 73.6016L44.0881 46.38C44.155 46.2937 44.185 46.185 44.1715 46.0777C44.158 45.9705 44.1022 45.8735 44.0163 45.808C43.9303 45.7425 43.8213 45.7139 43.7131 45.7283C43.6049 45.7428 43.5063 45.7992 43.439 45.8852L22.2476 73.1068Z" fill="#E6E6E6"/>
<path d="M28.7434 77.4344C28.6766 77.5207 28.6466 77.6294 28.66 77.7367C28.6735 77.8439 28.7293 77.9409 28.8153 78.0064C28.9012 78.0719 29.0102 78.1005 29.1184 78.0861C29.2267 78.0716 29.3252 78.0152 29.3925 77.9292L50.584 50.7076C50.6508 50.6213 50.6808 50.5125 50.6674 50.4053C50.6539 50.2981 50.5981 50.2011 50.5121 50.1356C50.4262 50.0701 50.3172 50.0414 50.209 50.0559C50.1007 50.0704 50.0022 50.1268 49.9349 50.2128L28.7434 77.4344Z" fill="#E6E6E6"/>
<path d="M31.6591 79.5982C31.5922 79.6845 31.5622 79.7932 31.5757 79.9005C31.5892 80.0077 31.645 80.1047 31.7309 80.1702C31.8169 80.2357 31.9259 80.2643 32.0341 80.2499C32.1423 80.2354 32.2409 80.179 32.3082 80.093L53.4997 52.8714C53.5665 52.785 53.5965 52.6763 53.583 52.5691C53.5696 52.4619 53.5137 52.3649 53.4278 52.2994C53.3419 52.2339 53.2329 52.2052 53.1246 52.2197C53.0164 52.2342 52.9179 52.2906 52.8505 52.3766L31.6591 79.5982Z" fill="#E6E6E6"/>
<path d="M36.0326 83.2045C35.9657 83.2909 35.9358 83.3996 35.9492 83.5068C35.9627 83.614 36.0185 83.711 36.1045 83.7765C36.1904 83.842 36.2994 83.8707 36.4076 83.8562C36.5159 83.8417 36.6144 83.7853 36.6817 83.6993L57.8732 56.4777C57.94 56.3914 57.97 56.2827 57.9566 56.1754C57.9431 56.0682 57.8873 55.9712 57.8013 55.9057C57.7154 55.8402 57.6064 55.8116 57.4982 55.826C57.3899 55.8405 57.2914 55.8969 57.2241 55.9829L36.0326 83.2045Z" fill="#E6E6E6"/>
<path d="M38.9483 85.3683C38.8814 85.4546 38.8514 85.5633 38.8649 85.6706C38.8784 85.7778 38.9342 85.8748 39.0201 85.9403C39.1061 86.0058 39.2151 86.0345 39.3233 86.02C39.4315 86.0055 39.5301 85.9491 39.5974 85.8631L60.7889 58.6415C60.8557 58.5552 60.8857 58.4465 60.8722 58.3392C60.8588 58.232 60.8029 58.135 60.717 58.0695C60.6311 58.004 60.522 57.9754 60.4138 57.9898C60.3056 58.0043 60.207 58.0607 60.1397 58.1467L38.9483 85.3683Z" fill="#E6E6E6"/>
<path d="M44.7796 90.4172C44.7128 90.5035 44.6828 90.6122 44.6963 90.7194C44.7097 90.8267 44.7656 90.9237 44.8515 90.9892C44.9374 91.0547 45.0465 91.0833 45.1547 91.0688C45.2629 91.0544 45.3615 90.9979 45.4288 90.9119L66.6202 63.6904C66.6871 63.604 66.7171 63.4953 66.7036 63.3881C66.6901 63.2808 66.6343 63.1839 66.5484 63.1184C66.4624 63.0529 66.3534 63.0242 66.2452 63.0387C66.137 63.0532 66.0384 63.1096 65.9711 63.1956L44.7796 90.4172Z" fill="#E6E6E6"/>
<path d="M63.0026 104.842C62.9358 104.929 62.9058 105.037 62.9193 105.145C62.9327 105.252 62.9885 105.349 63.0745 105.414C63.1604 105.48 63.2694 105.509 63.3777 105.494C63.4859 105.48 63.5844 105.423 63.6518 105.337L84.8432 78.1156C84.9101 78.0293 84.94 77.9206 84.9266 77.8134C84.9131 77.7061 84.8573 77.6091 84.7714 77.5436C84.6854 77.4781 84.5764 77.4495 84.4682 77.464C84.36 77.4784 84.2614 77.5349 84.1941 77.6209L63.0026 104.842Z" fill="#3F3D56"/>
<path d="M24.1953 74.5913C24.1284 74.6777 24.0983 74.7864 24.1118 74.8937C24.1252 75.001 24.181 75.0981 24.267 75.1636C24.353 75.2291 24.4621 75.2578 24.5703 75.2433C24.6786 75.2287 24.7772 75.1722 24.8445 75.0861L39.2306 56.6064C39.2975 56.52 39.3276 56.4113 39.3142 56.304C39.3007 56.1967 39.2449 56.0997 39.1589 56.0341C39.0729 55.9686 38.9638 55.94 38.8556 55.9545C38.7473 55.969 38.6487 56.0255 38.5814 56.1116L24.1953 74.5913Z" fill="#E6E6E6"/>
<path d="M22.4105 64.6494L18.363 69.8487C18.3105 69.916 18.2335 69.9602 18.149 69.9716C18.0644 69.983 17.9792 69.9607 17.912 69.9096L17.0813 69.2765C17.0142 69.2252 16.9707 69.1493 16.9602 69.0655C16.9498 68.9817 16.9734 68.8968 17.0257 68.8294L21.0732 63.6302C21.1257 63.5629 21.2027 63.5187 21.2873 63.5072C21.3718 63.4958 21.457 63.5181 21.5243 63.5692L22.3549 64.2024C22.422 64.2537 22.4656 64.3295 22.476 64.4133C22.4864 64.4971 22.4629 64.582 22.4105 64.6494Z" fill="#03DAC5"/>
<path fill-rule="evenodd" clip-rule="evenodd" d="M80.9353 76.3467C81.0626 76.7246 80.8562 77.1331 80.4743 77.2591C79.8165 77.4761 79.0257 78.0365 78.1983 78.8791C77.3832 79.7092 76.5842 80.76 75.9012 81.8736C75.5128 82.5069 75.1661 83.1536 74.8772 83.7837C75.3388 83.7568 75.8076 83.7578 76.2832 83.7891C79.0873 83.9741 81.0936 84.5793 82.4386 85.4561C83.8032 86.3456 84.4838 87.5178 84.57 88.7411C84.6545 89.9387 84.1621 91.0815 83.3899 91.937C82.6175 92.7928 81.5197 93.4127 80.3098 93.5216C78.1235 93.7182 76.3784 93.1185 75.0815 92.0364C73.7995 90.9667 73.0047 89.4682 72.6124 87.931C72.4399 87.2553 72.4979 86.4523 72.6894 85.6217C70.036 86.3933 67.6301 88.1734 65.5613 90.3736C62.627 93.4941 60.4832 97.3455 59.4153 99.9285C59.2629 100.297 58.8373 100.474 58.4647 100.323C58.0921 100.172 57.9136 99.751 58.066 99.3823C59.1849 96.6759 61.4147 92.6656 64.494 89.3909C66.8679 86.8664 69.8147 84.7101 73.2007 84.0065C73.5732 83.0577 74.0757 82.0696 74.6549 81.1252C75.3842 79.9362 76.248 78.7952 77.1527 77.8738C78.0451 76.9651 79.0311 76.2145 80.0133 75.8906C80.3952 75.7646 80.808 75.9688 80.9353 76.3467ZM74.2906 85.2869C73.9736 86.2945 73.8995 87.0829 74.0258 87.5778C74.3624 88.8964 75.0254 90.1027 76.0213 90.9336C77.0022 91.7521 78.3551 92.2489 80.1778 92.085C80.9725 92.0135 81.7426 91.5966 82.3026 90.9761C82.863 90.3552 83.1679 89.5822 83.1157 88.8415C83.0653 88.1264 82.6752 87.3377 81.6367 86.6607C80.5785 85.971 78.8491 85.4041 76.1863 85.2285C75.5433 85.1861 74.9111 85.2078 74.2906 85.2869Z" fill="#03DAC5"/>
<path d="M80.2382 73.9009C79.9566 74.2786 79.795 74.7287 79.7739 75.1945C79.7528 75.6604 79.8731 76.121 80.1197 76.5184C80.3662 76.9158 80.7279 77.2322 81.1593 77.4278C81.5906 77.6233 82.0723 77.6892 82.5435 77.6171C87.7766 76.823 92.8022 75.0188 97.3274 72.3098L143.437 44.7688C144.033 44.4123 144.553 43.9447 144.967 43.3928C145.38 42.8409 145.679 42.2154 145.846 41.5521C146.013 40.8888 146.044 40.2006 145.94 39.5268C145.835 38.8531 145.595 38.2069 145.234 37.6253C144.874 37.0437 144.399 36.538 143.837 36.1371C143.275 35.7362 142.638 35.448 141.961 35.2888C141.284 35.1296 140.58 35.1026 139.891 35.2094C139.201 35.3162 138.539 35.5546 137.942 35.9111L91.8333 63.4521C87.3026 66.1523 83.361 69.7042 80.2382 73.9009Z" fill="#3F3D56"/>
</svg>
