<svg width="150" height="150" viewBox="0 0 150 150" fill="none" xmlns="http://www.w3.org/2000/svg">
<path d="M75 137.069C108.209 137.069 135.13 135.477 135.13 133.514C135.13 131.55 108.209 129.958 75 129.958C41.7909 129.958 14.8696 131.55 14.8696 133.514C14.8696 135.477 41.7909 137.069 75 137.069Z" fill="#E6E6E6"/>
<path d="M83.0351 43.1634H82.3883V25.3246C82.3883 22.5863 81.3077 19.9602 79.3842 18.024C77.4607 16.0878 74.8519 15 72.1317 15H34.5867C31.8665 15 29.2576 16.0878 27.3342 18.024C25.4107 19.9602 24.3301 22.5863 24.3301 25.3246V123.189C24.3301 125.928 25.4107 128.554 27.3342 130.49C29.2576 132.426 31.8665 133.514 34.5867 133.514H72.1317C74.8519 133.514 77.4607 132.426 79.3842 130.49C81.3077 128.554 82.3883 125.928 82.3883 123.189V55.8614H83.0351V43.1634Z" fill="#3F3D56"/>
<path d="M80.2051 25.3967V123.117C80.2051 125.162 79.3981 127.123 77.9616 128.569C76.5251 130.015 74.5768 130.828 72.5454 130.828H34.8202C32.7888 130.828 30.8406 130.015 29.4042 128.569C27.9678 127.124 27.1607 125.162 27.1606 123.118V25.3967C27.1607 23.3518 27.9677 21.3906 29.4042 19.9446C30.8407 18.4986 32.7889 17.6862 34.8204 17.6862H39.397C39.1721 18.2424 39.0865 18.8458 39.1476 19.4432C39.2087 20.0406 39.4147 20.6137 39.7475 21.1122C40.0804 21.6106 40.5298 22.0191 41.0562 22.3017C41.5826 22.5843 42.17 22.7323 42.7666 22.7327H64.2758C64.8724 22.7323 65.4598 22.5843 65.9863 22.3018C66.5128 22.0192 66.9622 21.6107 67.295 21.1123C67.6278 20.6138 67.8339 20.0407 67.895 19.4432C67.9561 18.8458 67.8705 18.2424 67.6456 17.6862H72.5454C74.5768 17.6862 76.5251 18.4986 77.9616 19.9446C79.3981 21.3906 80.2051 23.3518 80.2051 25.3967Z" fill="white"/>
<path d="M44.5879 99.3836H43.7944L44.0593 83.7837H44.3242L44.5879 99.3836Z" fill="#E6E6E6"/>
<path d="M45.249 73.9623L46.5297 71.9701C46.1499 70.9141 45.7113 69.8804 45.2158 68.8741L44.3878 69.5475L45.0435 68.5275C44.4185 67.2894 43.9269 66.5092 43.9269 66.5092C43.9269 66.5092 41.3588 70.583 40.5004 74.897L42.1438 77.4536L40.3249 75.9744C40.2601 76.4769 40.2268 76.983 40.2251 77.4897C40.2251 82.5985 41.8826 86.7398 43.9272 86.7398C45.9718 86.7398 47.6293 82.5979 47.6293 77.4897C47.6293 75.906 47.2733 74.249 46.7817 72.7162L45.249 73.9623Z" fill="#CCCCCC"/>
<path d="M65.2427 99.3836H64.4492L64.7141 83.7837H64.979L65.2427 99.3836Z" fill="#E6E6E6"/>
<path d="M65.9035 73.9623L67.1842 71.9701C66.8044 70.9141 66.3658 69.8804 65.8703 68.8741L65.0423 69.5475L65.698 68.5275C65.073 67.2894 64.5814 66.5092 64.5814 66.5092C64.5814 66.5092 62.013 70.5833 61.1555 74.897L62.7976 77.4532L60.9787 75.9741C60.9139 76.4765 60.8806 76.9826 60.8789 77.4893C60.8789 82.5981 62.5364 86.7395 64.581 86.7395C66.6256 86.7395 68.2831 82.5976 68.2831 77.4893C68.2831 75.9056 67.9271 74.2487 67.4355 72.7158L65.9035 73.9623Z" fill="#CCCCCC"/>
<path d="M43.9841 47.6728C48.0102 47.6728 51.274 44.3874 51.274 40.3347C51.274 36.282 48.0102 32.9966 43.9841 32.9966C39.9581 32.9966 36.6943 36.282 36.6943 40.3347C36.6943 44.3874 39.9581 47.6728 43.9841 47.6728Z" fill="#E6E6E6"/>
<path d="M54.0811 97.1124H52.4453L52.9906 64.9468H53.5358L54.0811 97.1124Z" fill="#E6E6E6"/>
<path d="M55.4446 44.6958L58.0852 40.5884C57.3021 38.4109 56.3976 36.2796 55.3761 34.2047L53.6686 35.5928L55.0206 33.4895C53.7315 30.9365 52.7183 29.3279 52.7183 29.3279C52.7183 29.3279 47.4226 37.7283 45.6533 46.6226L49.0409 51.8942L45.2897 48.8443C45.1561 49.8804 45.0874 50.9239 45.084 51.9687C45.084 62.5025 48.5016 71.0418 52.7174 71.0418C56.9333 71.0418 60.3509 62.5025 60.3509 51.9687C60.3509 48.7032 59.617 45.2867 58.6046 42.1262L55.4446 44.6958Z" fill="#CCCCCC"/>
<path d="M80.2055 101.749V123.615C80.2055 128.051 76.7762 131.646 72.5457 131.646H34.8206C30.5903 131.646 27.1608 128.051 27.1606 123.615V103.881C33.7013 95.8312 43.1581 91.0203 53.2369 90.6152C63.3157 90.2101 73.0962 94.2478 80.2055 101.749Z" fill="#E6E6E6"/>
<path opacity="0.2" d="M53.7237 123.319C59.8884 123.319 64.8859 118.288 64.8859 112.083C64.8859 105.877 59.8884 100.846 53.7237 100.846C47.559 100.846 42.5615 105.877 42.5615 112.083C42.5615 118.288 47.559 123.319 53.7237 123.319Z" fill="#03DAC5"/>
<path d="M53.7241 121.13C58.6879 121.13 62.7119 117.079 62.7119 112.083C62.7119 107.086 58.6879 103.035 53.7241 103.035C48.7603 103.035 44.7363 107.086 44.7363 112.083C44.7363 117.079 48.7603 121.13 53.7241 121.13Z" fill="#03DAC5"/>
<path d="M52.6754 115.951L49.5078 111.851L51.3499 110.409L52.8495 112.35L57.9158 106.967L59.6101 108.582L52.6754 115.951Z" fill="white"/>
<path d="M101.486 98.0107C104.705 98.0107 107.314 95.3843 107.314 92.1444C107.314 88.9046 104.705 86.2782 101.486 86.2782C98.2678 86.2782 95.6587 88.9046 95.6587 92.1444C95.6587 95.3843 98.2678 98.0107 101.486 98.0107Z" fill="#2F2E41"/>
<path d="M103.848 125.076L104.297 127.208L112.68 126.48L112.018 123.333L103.848 125.076Z" fill="#FFB8B8"/>
<path d="M103.195 131.739L101.785 125.039L104.357 124.49L105.222 128.602C105.294 128.942 105.298 129.293 105.235 129.634C105.172 129.976 105.042 130.302 104.854 130.593C104.666 130.884 104.423 131.136 104.138 131.332C103.853 131.529 103.533 131.667 103.195 131.739Z" fill="#2F2E41"/>
<path d="M98.5969 124.963L97.6534 126.924L89.689 124.194L91.0816 121.3L98.5969 124.963Z" fill="#FFB8B8"/>
<path d="M96.423 128.056L98.2426 124.273L100.609 125.426L97.6435 131.591C97.016 131.285 96.5349 130.741 96.306 130.078C96.0771 129.415 96.1192 128.688 96.423 128.056Z" fill="#2F2E41"/>
<path d="M82.9042 121.089C83.1768 121.14 83.4573 121.13 83.7258 121.06C83.9944 120.99 84.2444 120.862 84.4584 120.685C84.6724 120.507 84.8451 120.284 84.9643 120.032C85.0835 119.78 85.1464 119.505 85.1485 119.226L98.2825 107.036L95.0208 104.493L83.1295 117.282C82.6632 117.309 82.2231 117.508 81.8926 117.84C81.562 118.172 81.3641 118.615 81.3364 119.085C81.3086 119.554 81.4529 120.017 81.7419 120.387C82.0309 120.756 82.4446 121.006 82.9044 121.089L82.9042 121.089Z" fill="#FFB8B8"/>
<path d="M100.755 98.2755C103.151 98.2755 105.093 96.3207 105.093 93.9094C105.093 91.4981 103.151 89.5433 100.755 89.5433C98.3599 89.5433 96.418 91.4981 96.418 93.9094C96.418 96.3207 98.3599 98.2755 100.755 98.2755Z" fill="#FFB8B8"/>
<path d="M104.648 119.574C101.605 119.574 97.941 118.929 95.6804 116.289L95.6295 116.23L95.6825 116.172C95.7002 116.153 97.3626 114.24 95.7021 110.828L93.4188 111.535L91.146 108.515L92.4051 104.713L97.5576 100.535C98.2958 99.9398 99.1945 99.5811 100.137 99.5057C101.844 99.3396 103.507 98.863 105.044 98.099C105.748 97.7549 106.523 97.5842 107.305 97.6013L107.406 97.6041C107.644 97.6108 107.878 97.6661 108.094 97.7666C108.31 97.8671 108.503 98.0107 108.662 98.1887C108.822 98.3667 108.943 98.5753 109.02 98.8021C109.097 99.0288 109.127 99.2688 109.108 99.5076C108.759 104.064 108.142 115.07 109.955 118.859L110.001 118.957L109.897 118.984C108.174 119.374 106.414 119.572 104.648 119.574L104.648 119.574Z" fill="#03DAC5"/>
<path d="M96.2775 116.231C96.2775 116.231 84.7989 115.165 83.5627 118.542C82.3266 121.92 83.7393 123.52 85.8585 124.231C87.9776 124.942 93.0988 125.831 93.0988 125.831L95.3946 122.987L101.399 123.342C101.399 123.342 108.089 127.248 109.939 131.426C110.336 132.33 110.969 133.109 111.77 133.679C112.572 134.25 113.512 134.592 114.491 134.667C115.974 134.771 117.292 134.208 117.292 131.874C117.292 126.541 109.875 118.898 109.875 118.898L96.2775 116.231Z" fill="#2F2E41"/>
<path d="M87.5356 121.476C87.5356 121.476 90.5377 120.587 95.3058 122.898Z" fill="#2F2E41"/>
<path d="M96.4282 91.1249C98.1221 92.1658 100.032 92.7992 102.009 92.9758L101.42 92.2663C101.849 92.4257 102.299 92.5157 102.756 92.533C102.984 92.5397 103.211 92.4923 103.418 92.3948C103.625 92.2973 103.806 92.1523 103.948 91.9714C104.063 91.7836 104.132 91.5705 104.147 91.3503C104.163 91.1301 104.126 90.9092 104.039 90.7066C103.859 90.3025 103.581 89.9513 103.228 89.6864C102.604 89.1893 101.867 88.8554 101.084 88.7144C100.3 88.5735 99.4941 88.6298 98.7374 88.8785C98.218 89.0345 97.7529 89.3347 97.3952 89.7446C97.2195 89.951 97.0975 90.1981 97.0401 90.4637C96.9827 90.7293 96.9917 91.0052 97.0663 91.2664" fill="#2F2E41"/>
<path d="M101.455 87.6351C102.226 85.8337 103.379 84.2243 104.835 82.9201C105.769 82.0846 106.861 81.3659 108.092 81.149C109.323 80.9322 110.711 81.3037 111.467 82.3065C112.085 83.1265 112.2 84.2251 112.132 85.2518C112.064 86.2786 111.836 87.2961 111.858 88.3243C111.88 89.3741 112.163 90.4017 112.679 91.3138C113.196 92.2258 113.931 92.9935 114.818 93.5471C115.704 94.1007 116.714 94.4227 117.755 94.4839C118.796 94.5451 119.836 94.3435 120.781 93.8974C119.717 94.4892 118.889 95.4262 117.902 96.1387C116.916 96.8512 115.613 97.3404 114.492 96.8693C113.305 96.3716 112.761 95.0172 112.336 93.7958L110.441 88.349C110.119 87.4231 109.781 86.4697 109.123 85.7457C108.466 85.0216 107.399 84.5801 106.494 84.9441C105.808 85.22 105.362 85.8788 104.97 86.5085C104.578 87.1381 104.165 87.8097 103.504 88.1402C102.843 88.4706 101.862 88.2673 101.646 87.5562" fill="#2F2E41"/>
<path d="M102.943 119.589C102.869 119.589 102.794 119.585 102.719 119.577C102.226 119.521 101.772 119.277 101.452 118.895C101.132 118.513 100.969 118.022 100.997 117.522C101.026 117.023 101.243 116.554 101.604 116.211C101.966 115.868 102.444 115.677 102.94 115.678C103.027 115.679 103.114 115.685 103.199 115.698L109.129 109.343L108.51 107.266L111.618 105.863L112.489 108.007C112.782 108.733 112.833 109.535 112.637 110.293C112.441 111.051 112.007 111.726 111.399 112.216L104.872 117.442C104.879 117.506 104.883 117.57 104.883 117.634C104.883 117.909 104.825 118.181 104.714 118.432C104.602 118.683 104.439 118.908 104.236 119.092C103.882 119.413 103.421 119.591 102.943 119.589Z" fill="#FFB8B8"/>
<path d="M107.579 98.4551C107.785 98.3631 108.007 98.3138 108.232 98.3104C108.457 98.3069 108.68 98.3493 108.888 98.4349C109.096 98.5205 109.285 98.6476 109.444 98.8086C109.602 98.9695 109.726 99.1611 109.809 99.3716L112.877 107.166L108.109 110.365L107.579 98.4551Z" fill="#03DAC5"/>
</svg>
