<svg width="400" height="400" viewBox="0 0 400 400" fill="none" xmlns="http://www.w3.org/2000/svg">
<path d="M261.743 256.879H261.53C260.997 256.852 260.475 256.72 259.994 256.491C259.512 256.262 259.08 255.941 258.723 255.545C258.366 255.149 258.09 254.687 257.912 254.184C257.733 253.682 257.655 253.149 257.683 252.616L263.377 145.889C263.435 144.812 263.918 143.803 264.72 143.082C265.523 142.362 266.578 141.99 267.655 142.047C268.732 142.105 269.742 142.589 270.462 143.391C271.182 144.193 271.555 145.249 271.497 146.326L265.803 253.043C265.746 254.08 265.293 255.057 264.537 255.77C263.782 256.484 262.782 256.881 261.743 256.879Z" fill="#484646"/>
<path d="M248.588 229.941L249.735 251.845C249.735 251.845 246.69 270.521 249.735 268.613C252.78 266.705 254.161 257.184 254.161 257.184C254.161 257.184 251.867 271.78 257.967 274.287C264.067 276.794 271.375 275.657 272.065 268.044C272.756 260.432 271.761 236.224 271.761 236.224L248.588 229.941Z" fill="white"/>
<path d="M263.651 276.022C261.613 275.995 259.599 275.571 257.723 274.774C254.12 273.282 253.237 268.065 253.166 263.68C252.435 265.964 251.39 268.197 250.009 269.059C249.833 269.191 249.622 269.266 249.403 269.275C249.184 269.284 248.967 269.227 248.781 269.11C246.751 267.781 248.588 255.611 249.207 251.855L248.07 229.962C248.066 229.879 248.081 229.796 248.115 229.72C248.148 229.645 248.199 229.578 248.263 229.525C248.329 229.476 248.405 229.442 248.486 229.426C248.567 229.41 248.651 229.413 248.73 229.434L271.852 235.717C271.96 235.745 272.056 235.808 272.126 235.896C272.196 235.984 272.235 236.092 272.238 236.204C272.238 236.447 273.253 260.564 272.542 268.085C272.497 269.413 272.129 270.71 271.472 271.865C270.814 273.019 269.886 273.997 268.766 274.713C267.213 275.61 265.444 276.063 263.651 276.022ZM254.617 257.407C254.404 258.899 252.79 271.617 258.129 273.81C261.844 275.342 265.711 275.342 268.228 273.81C269.209 273.181 270.02 272.321 270.59 271.305C271.16 270.289 271.471 269.148 271.497 267.984C272.136 261.01 271.334 239.746 271.212 236.62L249.157 230.621L250.263 251.804C250.263 251.804 250.263 251.886 250.263 251.916C248.913 260.168 248.507 267.608 249.36 268.217L249.471 268.156C251.714 266.755 253.145 260.178 253.531 257.387C253.531 257.235 253.531 257.133 253.531 257.093C253.539 257.02 253.562 256.951 253.6 256.888C253.637 256.826 253.687 256.772 253.746 256.731C253.806 256.69 253.874 256.662 253.945 256.649C254.017 256.636 254.09 256.638 254.16 256.656C254.297 256.676 254.42 256.749 254.504 256.859C254.587 256.969 254.624 257.108 254.607 257.245C254.605 257.299 254.609 257.354 254.617 257.407Z" fill="#484646"/>
<path d="M247.845 235.83L274.873 237.663C277.105 237.815 279.037 236.128 279.188 233.897L279.224 233.36C279.376 231.129 277.689 229.197 275.458 229.046L248.429 227.212C246.198 227.061 244.266 228.747 244.115 230.979L244.078 231.516C243.927 233.747 245.613 235.679 247.845 235.83Z" fill="white"/>
<path d="M275.161 238.193H274.846L247.807 236.356C247.207 236.316 246.622 236.158 246.083 235.892C245.545 235.625 245.065 235.255 244.67 234.802C244.275 234.35 243.973 233.824 243.781 233.254C243.59 232.685 243.513 232.083 243.554 231.484V230.946C243.593 230.347 243.749 229.762 244.015 229.224C244.28 228.685 244.65 228.205 245.101 227.81C245.553 227.415 246.078 227.113 246.647 226.921C247.216 226.729 247.817 226.652 248.416 226.693L275.476 228.52C276.683 228.604 277.809 229.162 278.606 230.073C279.403 230.984 279.807 232.174 279.729 233.382V233.93C279.651 235.085 279.139 236.167 278.295 236.958C277.451 237.749 276.338 238.191 275.181 238.193H275.161ZM248.142 227.719C247.25 227.722 246.393 228.063 245.743 228.673C245.093 229.284 244.699 230.118 244.64 231.007V231.545C244.608 232.007 244.668 232.471 244.816 232.91C244.964 233.349 245.197 233.755 245.503 234.103C245.805 234.454 246.175 234.74 246.59 234.946C247.004 235.152 247.456 235.272 247.918 235.301L274.958 237.138C275.889 237.199 276.807 236.888 277.509 236.273C278.211 235.659 278.641 234.79 278.703 233.859V233.311C278.765 232.38 278.454 231.462 277.839 230.76C277.224 230.058 276.356 229.628 275.425 229.566L248.385 227.729H248.142V227.719Z" fill="#484646"/>
<path d="M151.696 256.879C150.656 256.881 149.654 256.483 148.898 255.767C148.143 255.051 147.691 254.072 147.636 253.033L141.942 146.316C141.884 145.239 142.257 144.183 142.977 143.381C143.698 142.578 144.707 142.095 145.784 142.037C146.861 141.979 147.916 142.352 148.719 143.072C149.521 143.793 150.004 144.802 150.062 145.879L155.756 252.596C155.812 253.67 155.439 254.722 154.72 255.521C154 256.32 152.993 256.801 151.92 256.859L151.696 256.879Z" fill="#484646"/>
<path d="M164.841 229.941L163.694 251.845C163.694 251.845 166.739 270.521 163.694 268.613C160.649 266.705 159.319 257.184 159.319 257.184C159.319 257.184 161.603 271.78 155.503 274.287C149.403 276.794 142.095 275.657 141.404 268.044C140.714 260.432 141.719 236.224 141.719 236.224L164.841 229.941Z" fill="white"/>
<path d="M149.788 276.022C148.009 276.056 146.254 275.603 144.713 274.713C143.594 273.997 142.666 273.019 142.008 271.865C141.35 270.71 140.983 269.413 140.937 268.085C140.247 260.523 141.232 236.448 141.242 236.204C141.245 236.092 141.284 235.984 141.354 235.896C141.423 235.808 141.519 235.745 141.628 235.717L164.749 229.434C164.829 229.413 164.912 229.41 164.993 229.426C165.074 229.442 165.15 229.476 165.216 229.525C165.28 229.578 165.331 229.645 165.365 229.72C165.398 229.796 165.413 229.879 165.409 229.962L164.272 251.815C164.891 255.611 166.698 267.781 164.699 269.07C164.513 269.186 164.296 269.244 164.077 269.235C163.857 269.226 163.646 269.15 163.47 269.019C162.09 268.156 161.055 265.923 160.314 263.639C160.243 268.024 159.36 273.241 155.756 274.733C153.871 275.549 151.843 275.987 149.788 276.022ZM142.237 236.63C142.105 239.756 141.303 260.99 141.942 267.994C141.968 269.158 142.279 270.299 142.849 271.315C143.419 272.331 144.23 273.191 145.211 273.82C147.728 275.342 151.595 275.342 155.361 273.82C160.71 271.617 159.086 258.909 158.883 257.417C158.883 257.336 158.883 257.285 158.883 257.265C158.865 257.128 158.902 256.99 158.986 256.88C159.069 256.77 159.193 256.697 159.329 256.676C159.466 256.656 159.606 256.69 159.718 256.772C159.83 256.854 159.906 256.976 159.928 257.113C159.928 257.113 159.928 257.255 159.928 257.407C160.354 260.199 161.775 266.776 163.988 268.176L164.11 268.237C164.942 267.679 164.536 260.219 163.186 251.936C163.181 251.899 163.181 251.862 163.186 251.825L164.293 230.642L142.237 236.63Z" fill="#484646"/>
<path d="M165.004 227.209L137.976 229.042C135.744 229.193 134.058 231.125 134.209 233.357L134.246 233.893C134.397 236.125 136.329 237.811 138.56 237.66L165.589 235.827C167.82 235.676 169.506 233.744 169.355 231.512L169.319 230.976C169.167 228.744 167.236 227.058 165.004 227.209Z" fill="white"/>
<path d="M138.278 238.193C137.121 238.191 136.008 237.749 135.164 236.958C134.32 236.167 133.808 235.085 133.731 233.93V233.382C133.691 232.784 133.769 232.183 133.961 231.615C134.153 231.047 134.456 230.522 134.85 230.071C135.245 229.619 135.725 229.25 136.263 228.984C136.801 228.718 137.385 228.56 137.984 228.52L165.023 226.683C165.621 226.64 166.222 226.717 166.79 226.909C167.358 227.1 167.883 227.403 168.332 227.8C168.786 228.194 169.158 228.674 169.426 229.212C169.694 229.751 169.854 230.336 169.895 230.936V231.474C169.937 232.073 169.86 232.673 169.669 233.242C169.478 233.811 169.177 234.336 168.783 234.789C168.389 235.241 167.91 235.612 167.373 235.879C166.836 236.146 166.251 236.305 165.653 236.346L138.603 238.183L138.278 238.193ZM165.054 227.729L138.014 229.566C137.083 229.628 136.215 230.058 135.6 230.76C134.985 231.462 134.675 232.38 134.736 233.311V233.859C134.798 234.79 135.228 235.659 135.93 236.273C136.632 236.888 137.55 237.199 138.481 237.138L165.572 235.341C166.032 235.311 166.482 235.19 166.895 234.985C167.308 234.779 167.676 234.493 167.977 234.143C168.282 233.795 168.516 233.39 168.664 232.951C168.812 232.512 168.872 232.048 168.84 231.586V231.048C168.774 230.116 168.343 229.249 167.642 228.632C167.295 228.325 166.89 228.09 166.451 227.942C166.011 227.794 165.547 227.735 165.084 227.769L165.054 227.729Z" fill="#484646"/>
<path d="M191.87 284.061C190.793 284.061 189.761 283.633 188.999 282.872C188.238 282.111 187.81 281.078 187.81 280.001V191.696C187.81 190.619 188.238 189.587 188.999 188.825C189.761 188.064 190.793 187.636 191.87 187.636C192.947 187.636 193.98 188.064 194.741 188.825C195.502 189.587 195.93 190.619 195.93 191.696V280.001C195.93 281.078 195.502 282.111 194.741 282.872C193.98 283.633 192.947 284.061 191.87 284.061Z" fill="#484646"/>
<path d="M221.569 284.061C220.492 284.061 219.459 283.633 218.698 282.872C217.937 282.111 217.509 281.078 217.509 280.001V191.696C217.509 190.619 217.937 189.587 218.698 188.825C219.459 188.064 220.492 187.636 221.569 187.636C222.646 187.636 223.678 188.064 224.44 188.825C225.201 189.587 225.629 190.619 225.629 191.696V280.001C225.629 281.078 225.201 282.111 224.44 282.872C223.678 283.633 222.646 284.061 221.569 284.061Z" fill="#484646"/>
<path d="M206.72 309.375C242.613 309.375 271.71 305.917 271.71 301.651C271.71 297.385 242.613 293.927 206.72 293.927C170.826 293.927 141.729 297.385 141.729 301.651C141.729 305.917 170.826 309.375 206.72 309.375Z" fill="#F2F1F1"/>
<path d="M206.72 224.927C243.409 224.927 273.152 195.185 273.152 158.495C273.152 121.806 243.409 92.0637 206.72 92.0637C170.031 92.0637 140.288 121.806 140.288 158.495C140.288 195.185 170.031 224.927 206.72 224.927Z" fill="#FF931E"/>
<path d="M206.76 92.0638C224.155 92.136 240.828 99.0283 253.197 111.26C265.565 123.492 272.643 140.087 272.908 157.48C273.174 174.873 266.607 191.677 254.618 204.28C242.629 216.884 226.175 224.283 208.79 224.887C208.08 224.887 207.359 224.887 206.649 224.887C189.253 224.814 172.581 217.922 160.212 205.691C147.844 193.459 140.766 176.864 140.5 159.471C140.234 142.078 146.801 125.274 158.79 112.67C170.779 100.066 187.234 92.6676 204.619 92.0638C205.329 92.0638 206.05 92.0638 206.76 92.0638ZM206.76 91.0488C206.04 91.0488 205.299 91.0488 204.578 91.0488C186.859 91.5809 170.061 99.0645 157.815 111.882C145.569 124.699 138.858 141.821 139.134 159.546C139.41 177.271 146.651 194.176 159.29 206.606C171.929 219.036 188.952 225.993 206.679 225.973C207.4 225.973 208.141 225.973 208.861 225.973C226.759 225.694 243.812 218.317 256.271 205.465C268.729 192.612 275.572 175.337 275.293 157.44C275.014 139.543 267.637 122.489 254.785 110.03C241.933 97.5721 224.658 90.7296 206.76 91.0082V91.0488Z" fill="#484646"/>
<path d="M185.275 154.726C188.189 154.633 190.373 148.954 190.153 142.04C189.933 135.126 187.393 129.596 184.48 129.689C181.566 129.781 179.382 135.461 179.602 142.375C179.822 149.289 182.362 154.819 185.275 154.726Z" fill="#484646"/>
<path d="M228.894 153.802C231.809 153.715 234.004 148.036 233.797 141.119C233.589 134.202 231.058 128.665 228.143 128.752C225.228 128.84 223.033 134.518 223.24 141.436C223.448 148.353 225.979 153.89 228.894 153.802Z" fill="#484646"/>
<path d="M160.817 161.785C165.276 161.643 168.819 159.23 168.729 156.395C168.639 153.56 164.95 151.376 160.49 151.518C156.03 151.66 152.488 154.073 152.578 156.908C152.668 159.743 156.357 161.926 160.817 161.785Z" fill="white"/>
<path d="M252.963 161.771C257.422 161.63 260.965 159.216 260.875 156.381C260.785 153.546 257.096 151.363 252.636 151.505C248.176 151.646 244.634 154.06 244.724 156.895C244.814 159.73 248.503 161.913 252.963 161.771Z" fill="white"/>
<path d="M205.146 261.944C205.146 261.944 176.503 256.352 176.27 259.143C176.036 261.934 177.203 284.792 177.203 284.792C177.203 284.792 149.798 299.52 154.021 301.387C158.243 303.255 205.146 294.587 205.146 294.587V261.944Z" fill="white"/>
<path d="M156.396 302.159C155.523 302.212 154.647 302.113 153.808 301.864C153.597 301.787 153.413 301.65 153.28 301.469C153.146 301.289 153.069 301.073 153.057 300.849C153.057 300.2 152.975 298.505 165.074 291.136C170.2 288.02 175.397 285.178 176.665 284.487C176.513 281.564 175.529 261.751 175.752 259.112C175.767 258.972 175.81 258.837 175.88 258.715C175.95 258.592 176.045 258.486 176.158 258.402C178.807 256.372 200.853 260.584 205.248 261.447C205.368 261.471 205.476 261.535 205.554 261.629C205.632 261.724 205.674 261.842 205.674 261.965V294.607C205.674 294.729 205.632 294.848 205.554 294.942C205.476 295.037 205.368 295.101 205.248 295.125C200.944 295.896 166.708 302.159 156.396 302.159ZM179.152 258.859C177.833 258.859 177 258.981 176.777 259.244C176.564 261.924 177.711 284.538 177.731 284.772C177.733 284.87 177.709 284.967 177.661 285.053C177.613 285.139 177.542 285.21 177.457 285.259C165.927 291.461 154.041 298.972 154.112 300.809C154.112 300.809 154.163 300.87 154.244 300.91C157.533 302.372 191.312 296.596 204.639 294.15V262.381C194.499 260.412 183.821 258.859 179.152 258.859Z" fill="#484646"/>
<path d="M208.293 261.944C208.293 261.944 236.936 256.352 237.17 259.143C237.403 261.934 236.236 284.792 236.236 284.792C236.236 284.792 263.641 299.52 259.418 301.387C255.196 303.255 208.293 294.587 208.293 294.587V261.944Z" fill="white"/>
<path d="M257.043 302.159C246.741 302.159 212.495 295.896 208.191 295.104C208.071 295.081 207.963 295.016 207.885 294.922C207.808 294.828 207.765 294.709 207.765 294.587V261.944C207.765 261.822 207.808 261.704 207.885 261.609C207.963 261.515 208.071 261.45 208.191 261.427C212.586 260.574 234.581 256.352 237.281 258.382C237.394 258.465 237.489 258.572 237.559 258.694C237.629 258.817 237.673 258.952 237.687 259.092C237.911 261.741 236.926 281.554 236.774 284.467C241.382 286.954 260.504 297.49 260.383 300.829C260.37 301.053 260.293 301.269 260.159 301.449C260.026 301.63 259.842 301.767 259.632 301.844C258.794 302.099 257.918 302.206 257.043 302.159ZM208.81 294.15C222.137 296.596 255.927 302.372 259.205 300.91C259.286 300.91 259.337 300.839 259.337 300.809C259.408 298.972 247.523 291.461 235.992 285.259C235.905 285.211 235.834 285.141 235.785 285.055C235.737 284.968 235.714 284.87 235.718 284.772C235.718 284.538 236.875 261.924 236.652 259.194C235.637 258.016 221.782 259.864 208.81 262.381V294.15Z" fill="#484646"/>
<path d="M248.253 182.876H165.186C164.782 182.876 164.395 182.715 164.109 182.43C163.824 182.144 163.663 181.757 163.663 181.353C163.663 180.95 163.824 180.562 164.109 180.277C164.395 179.991 164.782 179.831 165.186 179.831H248.253C248.657 179.831 249.044 179.991 249.33 180.277C249.616 180.562 249.776 180.95 249.776 181.353C249.776 181.757 249.616 182.144 249.33 182.43C249.044 182.715 248.657 182.876 248.253 182.876Z" fill="#484646"/>
<path d="M74.5869 201.298C79.3293 201.298 83.1738 197.454 83.1738 192.711C83.1738 187.969 79.3293 184.124 74.5869 184.124C69.8445 184.124 66 187.969 66 192.711C66 197.454 69.8445 201.298 74.5869 201.298Z" fill="#F2F1F1"/>
<path d="M112.294 201.298C117.037 201.298 120.881 197.454 120.881 192.711C120.881 187.969 117.037 184.124 112.294 184.124C107.552 184.124 103.707 187.969 103.707 192.711C103.707 197.454 107.552 201.298 112.294 201.298Z" fill="#F2F1F1"/>
<path d="M288.437 201.298C293.18 201.298 297.024 197.454 297.024 192.711C297.024 187.969 293.18 184.124 288.437 184.124C283.695 184.124 279.851 187.969 279.851 192.711C279.851 197.454 283.695 201.298 288.437 201.298Z" fill="#F2F1F1"/>
<path d="M326.145 201.298C330.887 201.298 334.731 197.454 334.731 192.711C334.731 187.969 330.887 184.124 326.145 184.124C321.402 184.124 317.558 187.969 317.558 192.711C317.558 197.454 321.402 201.298 326.145 201.298Z" fill="#F2F1F1"/>
</svg>
