<svg width="150" height="150" viewBox="0 0 150 150" fill="none" xmlns="http://www.w3.org/2000/svg">
<g clip-path="url(#clip0_1154_26587)">
<path d="M76.4749 15.2616L72.1244 16.3835L18.5248 30.2058L14.1742 31.3277C12.0625 31.8748 10.2541 33.2372 9.14562 35.116C8.03717 36.9948 7.71925 39.2366 8.2616 41.3496L27.1265 114.503C27.6736 116.615 29.036 118.424 30.9148 119.532C32.7937 120.641 35.0354 120.959 37.1484 120.416L37.1596 120.413L99.4378 104.353L99.4491 104.35C101.561 103.803 103.369 102.441 104.478 100.562C105.586 98.6829 105.904 96.4411 105.362 94.3282L86.4968 21.1743C85.9497 19.0626 84.5873 17.2541 82.7085 16.1456C80.8297 15.0372 78.5879 14.7192 76.4749 15.2616Z" fill="#F0F0F0"/>
<path d="M77.0666 17.5552L71.9137 18.8841L19.9187 32.2925L14.7658 33.6213C13.262 34.0109 11.9742 34.9811 11.1848 36.3191C10.3955 37.657 10.1691 39.2535 10.5553 40.7581L29.4202 113.912C29.8098 115.416 30.78 116.704 32.118 117.493C33.4559 118.282 35.0524 118.509 36.557 118.123L36.5683 118.12L98.8465 102.059L98.8578 102.056C100.362 101.667 101.649 100.697 102.439 99.3587C103.228 98.0208 103.454 96.4244 103.068 94.9197L84.2033 21.7658C83.8137 20.262 82.8436 18.9742 81.5056 18.1848C80.1677 17.3954 78.5713 17.169 77.0666 17.5552Z" fill="white"/>
<path d="M73.1754 41.2444L41.6703 49.3689C41.3184 49.4596 40.9449 49.4069 40.6319 49.2222C40.319 49.0376 40.0922 48.7361 40.0014 48.3843C39.9107 48.0324 39.9634 47.6589 40.1481 47.3459C40.3327 47.0329 40.6342 46.8061 40.986 46.7154L72.4911 38.5908C72.8428 38.5005 73.2161 38.5534 73.5288 38.7381C73.8415 38.9228 74.0681 39.2241 74.1588 39.5758C74.2495 39.9274 74.1969 40.3007 74.0125 40.6136C73.828 40.9265 73.527 41.1534 73.1754 41.2444Z" fill="#F0F0F0"/>
<path d="M79.8035 44.3108L42.8256 53.8467C42.4737 53.9374 42.1002 53.8847 41.7872 53.7C41.4742 53.5154 41.2474 53.214 41.1567 52.8621C41.0659 52.5102 41.1187 52.1367 41.3034 51.8237C41.488 51.5107 41.7894 51.2839 42.1413 51.1932L79.1192 41.6573C79.4711 41.5666 79.8446 41.6193 80.1576 41.804C80.4706 41.9886 80.6974 42.29 80.7882 42.6419C80.8789 42.9938 80.8261 43.3673 80.6415 43.6803C80.4568 43.9933 80.1554 44.2201 79.8035 44.3108Z" fill="#F0F0F0"/>
<path d="M78.3502 61.3116L46.8451 69.4361C46.6709 69.4811 46.4895 69.4912 46.3114 69.4661C46.1332 69.4409 45.9617 69.3809 45.8068 69.2895C45.6518 69.198 45.5163 69.077 45.4081 68.9332C45.3 68.7894 45.2211 68.6258 45.1762 68.4515C45.1313 68.2773 45.1211 68.0959 45.1463 67.9177C45.1714 67.7396 45.2315 67.5681 45.3229 67.4131C45.4143 67.2582 45.5354 67.1227 45.6792 67.0145C45.8229 66.9064 45.9866 66.8275 46.1608 66.7826L77.6659 58.6581C77.8401 58.6132 78.0215 58.603 78.1996 58.6282C78.3778 58.6533 78.5493 58.7133 78.7043 58.8048C78.8592 58.8962 78.9947 59.0172 79.1029 59.161C79.211 59.3048 79.2899 59.4685 79.3348 59.6427C79.3797 59.8169 79.3899 59.9983 79.3647 60.1765C79.3396 60.3546 79.2796 60.5261 79.1881 60.6811C79.0967 60.8361 78.9756 60.9715 78.8319 61.0797C78.6881 61.1879 78.5244 61.2667 78.3502 61.3116Z" fill="#F0F0F0"/>
<path d="M84.9783 64.3781L48.0004 73.914C47.8262 73.9589 47.6448 73.9691 47.4666 73.9439C47.2885 73.9187 47.117 73.8587 46.962 73.7673C46.8071 73.6759 46.6716 73.5548 46.5634 73.411C46.4552 73.2673 46.3764 73.1036 46.3315 72.9293C46.2866 72.7551 46.2764 72.5737 46.3016 72.3956C46.3267 72.2174 46.3867 72.0459 46.4782 71.891C46.5696 71.736 46.6906 71.6006 46.8344 71.4924C46.9782 71.3842 47.1419 71.3054 47.3161 71.2604L84.2941 61.7246C84.6459 61.6338 85.0194 61.6866 85.3324 61.8712C85.6454 62.0559 85.8722 62.3573 85.963 62.7092C86.0537 63.0611 86.0009 63.4346 85.8163 63.7476C85.6316 64.0605 85.3302 64.2873 84.9783 64.3781Z" fill="#F0F0F0"/>
<path d="M83.525 81.3789L52.02 89.5035C51.6682 89.5939 51.2949 89.541 50.9821 89.3563C50.6694 89.1716 50.4427 88.8703 50.352 88.5186C50.2613 88.1669 50.314 87.7935 50.4984 87.4806C50.6829 87.1677 50.984 86.9409 51.3357 86.8499L82.8407 78.7254C83.1926 78.6347 83.5661 78.6874 83.8791 78.8721C84.1921 79.0567 84.4189 79.3582 84.5097 79.71C84.6004 80.0619 84.5476 80.4354 84.363 80.7484C84.1783 81.0614 83.8769 81.2882 83.525 81.3789Z" fill="#F0F0F0"/>
<path d="M90.1534 84.4453L53.1754 93.9812C53.0011 94.0263 52.8196 94.0367 52.6414 94.0116C52.4631 93.9865 52.2915 93.9266 52.1364 93.8352C51.9813 93.7438 51.8457 93.6227 51.7374 93.4788C51.6292 93.335 51.5503 93.1712 51.5053 92.9969C51.4604 92.8226 51.4502 92.6411 51.4754 92.4628C51.5006 92.2846 51.5607 92.113 51.6523 91.958C51.7438 91.803 51.8651 91.6675 52.009 91.5594C52.1529 91.4512 52.3167 91.3725 52.4911 91.3277L89.4691 81.7918C89.8209 81.7011 90.1945 81.7538 90.5074 81.9385C90.8204 82.1231 91.0472 82.4246 91.138 82.7764C91.2287 83.1283 91.176 83.5018 90.9913 83.8148C90.8067 84.1278 90.5052 84.3546 90.1534 84.4453Z" fill="#F0F0F0"/>
<path d="M36.2922 57.6994L25.1429 60.5746C24.9742 60.6179 24.7952 60.5925 24.6452 60.504C24.4951 60.4155 24.3864 60.2711 24.3427 60.1024L21.7834 50.178C21.74 50.0092 21.7654 49.8302 21.8539 49.6802C21.9424 49.5302 22.0869 49.4214 22.2555 49.3777L33.4048 46.5025C33.5735 46.4592 33.7525 46.4846 33.9026 46.5731C34.0526 46.6616 34.1614 46.806 34.205 46.9747L36.7644 56.8991C36.8077 57.0678 36.7823 57.2468 36.6938 57.3969C36.6053 57.5469 36.4609 57.6557 36.2922 57.6994Z" fill="#DDDDDD"/>
<path d="M41.4671 77.7667L30.3177 80.6419C30.149 80.6852 29.97 80.6598 29.82 80.5713C29.6699 80.4828 29.5612 80.3384 29.5175 80.1697L26.9582 70.2453C26.9148 70.0766 26.9402 69.8976 27.0287 69.7475C27.1173 69.5975 27.2617 69.4887 27.4303 69.445L38.5796 66.5699C38.7483 66.5265 38.9273 66.5519 39.0774 66.6404C39.2274 66.7289 39.3362 66.8734 39.3799 67.042L41.9392 76.9664C41.9825 77.1352 41.9571 77.3142 41.8686 77.4642C41.7801 77.6142 41.6357 77.723 41.4671 77.7667Z" fill="#DDDDDD"/>
<path d="M46.6419 97.8339L35.4925 100.709C35.3238 100.752 35.1448 100.727 34.9948 100.639C34.8448 100.55 34.736 100.406 34.6923 100.237L32.133 90.3125C32.0897 90.1438 32.115 89.9648 32.2035 89.8148C32.2921 89.6648 32.4365 89.556 32.6051 89.5123L43.7544 86.6371C43.9231 86.5938 44.1021 86.6192 44.2522 86.7077C44.4022 86.7962 44.511 86.9406 44.5547 87.1092L47.114 97.0337C47.1573 97.2024 47.1319 97.3814 47.0434 97.5315C46.9549 97.6815 46.8105 97.7903 46.6419 97.8339Z" fill="#DDDDDD"/>
<path d="M119.926 33.8052H55.5873C53.4059 33.8077 51.3145 34.6754 49.772 36.2179C48.2295 37.7604 47.3618 39.8517 47.3594 42.0332V117.58C47.3618 119.762 48.2295 121.853 49.772 123.396C51.3145 124.938 53.4059 125.806 55.5873 125.808H119.926C122.108 125.806 124.199 124.938 125.741 123.396C127.284 121.853 128.152 119.762 128.154 117.58V42.0332C128.152 39.8517 127.284 37.7604 125.741 36.2179C124.199 34.6754 122.108 33.8077 119.926 33.8052Z" fill="#DDDDDD"/>
<path d="M119.927 36.1738H55.5878C54.0344 36.1756 52.545 36.7934 51.4466 37.8919C50.3481 38.9903 49.7303 40.4797 49.7285 42.0331V117.58C49.7303 119.134 50.3481 120.623 51.4466 121.722C52.545 122.82 54.0344 123.438 55.5878 123.44H119.927C121.48 123.438 122.97 122.82 124.068 121.722C125.166 120.623 125.784 119.134 125.786 117.58V42.0331C125.784 40.4797 125.166 38.9904 124.068 37.8919C122.97 36.7935 121.48 36.1756 119.927 36.1738Z" fill="white"/>
<path d="M126.686 135C134.981 135 141.705 128.275 141.705 119.98C141.705 111.685 134.981 104.961 126.686 104.961C118.391 104.961 111.666 111.685 111.666 119.98C111.666 128.275 118.391 135 126.686 135Z" fill="#03DAC5"/>
<path d="M133.869 118.021H128.645V112.797C128.645 112.277 128.439 111.779 128.071 111.412C127.704 111.044 127.205 110.838 126.686 110.838C126.166 110.838 125.668 111.044 125.301 111.412C124.933 111.779 124.727 112.277 124.727 112.797V118.021H119.503C118.983 118.021 118.485 118.228 118.117 118.595C117.75 118.962 117.543 119.461 117.543 119.98C117.543 120.5 117.75 120.998 118.117 121.366C118.485 121.733 118.983 121.939 119.503 121.939H124.727V127.164C124.727 127.683 124.933 128.182 125.301 128.549C125.668 128.916 126.166 129.123 126.686 129.123C127.205 129.123 127.704 128.916 128.071 128.549C128.439 128.182 128.645 127.683 128.645 127.164V121.939H133.869C134.389 121.939 134.887 121.733 135.255 121.366C135.622 120.998 135.828 120.5 135.828 119.98C135.828 119.461 135.622 118.962 135.255 118.595C134.887 118.228 134.389 118.021 133.869 118.021Z" fill="white"/>
<path d="M110.243 77.6869H77.7076C77.5276 77.6871 77.3492 77.6518 77.1828 77.583C77.0164 77.5142 76.8652 77.4134 76.7378 77.2861C76.6104 77.1588 76.5093 77.0077 76.4404 76.8414C76.3714 76.6751 76.3359 76.4968 76.3359 76.3167C76.3359 76.1366 76.3714 75.9583 76.4404 75.792C76.5093 75.6257 76.6104 75.4746 76.7378 75.3473C76.8652 75.2201 77.0164 75.1192 77.1828 75.0504C77.3492 74.9816 77.5276 74.9463 77.7076 74.9465H110.243C110.607 74.9469 110.955 75.0915 111.211 75.3484C111.468 75.6053 111.612 75.9536 111.612 76.3167C111.612 76.6798 111.468 77.0281 111.211 77.285C110.955 77.5419 110.607 77.6865 110.243 77.6869Z" fill="#DDDDDD"/>
<path d="M115.895 82.3112H77.7076C77.5276 82.3114 77.3492 82.2761 77.1828 82.2073C77.0164 82.1386 76.8652 82.0377 76.7378 81.9104C76.6104 81.7832 76.5093 81.6321 76.4404 81.4657C76.3714 81.2994 76.3359 81.1211 76.3359 80.941C76.3359 80.761 76.3714 80.5827 76.4404 80.4163C76.5093 80.25 76.6104 80.0989 76.7378 79.9716C76.8652 79.8444 77.0164 79.7435 77.1828 79.6747C77.3492 79.606 77.5276 79.5707 77.7076 79.5709H115.895C116.259 79.5709 116.607 79.7152 116.864 79.9722C117.121 80.2291 117.266 80.5776 117.266 80.941C117.266 81.3044 117.121 81.6529 116.864 81.9099C116.607 82.1668 116.259 82.3112 115.895 82.3112Z" fill="#DDDDDD"/>
<path d="M110.243 98.4107H77.7076C77.5276 98.4109 77.3492 98.3756 77.1828 98.3068C77.0164 98.2381 76.8652 98.1372 76.7378 98.0099C76.6104 97.8827 76.5093 97.7316 76.4404 97.5652C76.3714 97.3989 76.3359 97.2206 76.3359 97.0405C76.3359 96.8605 76.3714 96.6822 76.4404 96.5158C76.5093 96.3495 76.6104 96.1984 76.7378 96.0711C76.8652 95.9439 77.0164 95.843 77.1828 95.7742C77.3492 95.7054 77.5276 95.6701 77.7076 95.6703H110.243C110.607 95.6703 110.955 95.8147 111.212 96.0717C111.469 96.3286 111.614 96.6771 111.614 97.0405C111.614 97.4039 111.469 97.7524 111.212 98.0094C110.955 98.2663 110.607 98.4107 110.243 98.4107Z" fill="#DDDDDD"/>
<path d="M115.895 103.035H77.7076C77.5276 103.035 77.3492 103 77.1828 102.931C77.0164 102.862 76.8652 102.761 76.7378 102.634C76.6104 102.507 76.5093 102.356 76.4404 102.189C76.3714 102.023 76.3359 101.845 76.3359 101.665C76.3359 101.485 76.3714 101.306 76.4404 101.14C76.5093 100.974 76.6104 100.823 76.7378 100.695C76.8652 100.568 77.0164 100.467 77.1828 100.398C77.3492 100.33 77.5276 100.294 77.7076 100.295H115.895C116.075 100.294 116.254 100.33 116.42 100.398C116.587 100.467 116.738 100.568 116.865 100.695C116.993 100.823 117.094 100.974 117.163 101.14C117.232 101.306 117.267 101.485 117.267 101.665C117.267 101.845 117.232 102.023 117.163 102.189C117.094 102.356 116.993 102.507 116.865 102.634C116.738 102.761 116.587 102.862 116.42 102.931C116.254 103 116.075 103.035 115.895 103.035Z" fill="#DDDDDD"/>
<path d="M70.4196 84.4104H58.9055C58.7313 84.4102 58.5643 84.341 58.4412 84.2178C58.318 84.0946 58.2487 83.9276 58.2485 83.7534V73.5043C58.2487 73.3301 58.318 73.1631 58.4412 73.0399C58.5643 72.9168 58.7313 72.8475 58.9055 72.8473H70.4196C70.5938 72.8475 70.7608 72.9168 70.884 73.0399C71.0072 73.1631 71.0764 73.3301 71.0766 73.5043V83.7534C71.0764 83.9276 71.0072 84.0946 70.884 84.2178C70.7608 84.341 70.5938 84.4102 70.4196 84.4104Z" fill="#DDDDDD"/>
<path d="M70.4196 105.134H58.9055C58.7313 105.134 58.5643 105.065 58.4412 104.942C58.318 104.818 58.2487 104.651 58.2485 104.477V94.2281C58.2487 94.0539 58.318 93.8869 58.4412 93.7637C58.5643 93.6406 58.7313 93.5713 58.9055 93.5711H70.4196C70.5938 93.5713 70.7608 93.6406 70.884 93.7637C71.0072 93.8869 71.0764 94.0539 71.0766 94.2281V104.477C71.0764 104.651 71.0072 104.818 70.884 104.942C70.7608 105.065 70.5938 105.134 70.4196 105.134Z" fill="#DDDDDD"/>
<path d="M110.28 54.6172H86.2925C85.9291 54.6172 85.5806 54.4729 85.3237 54.2159C85.0667 53.959 84.9224 53.6104 84.9224 53.2471C84.9224 52.8837 85.0667 52.5352 85.3237 52.2782C85.5806 52.0212 85.9291 51.8769 86.2925 51.8769H110.28C110.643 51.8769 110.992 52.0212 111.249 52.2782C111.506 52.5352 111.65 52.8837 111.65 53.2471C111.65 53.6104 111.506 53.959 111.249 54.2159C110.992 54.4729 110.643 54.6172 110.28 54.6172Z" fill="#CBCBCB"/>
<path d="M115.932 59.2415H86.2925C86.1126 59.2415 85.9344 59.2061 85.7682 59.1372C85.602 59.0683 85.4509 58.9674 85.3237 58.8402C85.1964 58.7129 85.0955 58.5619 85.0267 58.3957C84.9578 58.2294 84.9224 58.0513 84.9224 57.8713C84.9224 57.6914 84.9578 57.5132 85.0267 57.347C85.0955 57.1807 85.1964 57.0297 85.3237 56.9025C85.4509 56.7752 85.602 56.6743 85.7682 56.6055C85.9344 56.5366 86.1126 56.5012 86.2925 56.5012H115.932C116.295 56.5012 116.644 56.6455 116.901 56.9025C117.158 57.1594 117.302 57.5079 117.302 57.8713C117.302 58.2347 117.158 58.5832 116.901 58.8402C116.644 59.0971 116.295 59.2415 115.932 59.2415Z" fill="#CBCBCB"/>
<path d="M80.9836 64.8456H58.8694C58.6952 64.8455 58.5282 64.7762 58.405 64.653C58.2819 64.5298 58.2126 64.3628 58.2124 64.1887V46.9298C58.2126 46.7556 58.2819 46.5886 58.405 46.4654C58.5282 46.3422 58.6952 46.273 58.8694 46.2728H80.9836C81.1578 46.273 81.3248 46.3422 81.448 46.4654C81.5711 46.5886 81.6404 46.7556 81.6406 46.9298V64.1887C81.6404 64.3628 81.5711 64.5298 81.448 64.653C81.3248 64.7762 81.1578 64.8455 80.9836 64.8456Z" fill="#03DAC5"/>
</g>
<defs>
<clipPath id="clip0_1154_26587">
<rect width="133.706" height="120" fill="white" transform="translate(8 15)"/>
</clipPath>
</defs>
</svg>
