<svg width="150" height="150" viewBox="0 0 150 150" fill="none" xmlns="http://www.w3.org/2000/svg">
<path d="M97.6516 100.014H51.0052C47.0844 100.014 43.8945 96.8216 43.8945 92.8979V46.219C43.8945 42.2953 47.0844 39.1033 51.0052 39.1033H97.6516C101.572 39.1033 104.762 42.2953 104.762 46.219V92.8979C104.762 96.8216 101.572 100.014 97.6516 100.014ZM51.0052 40.2418C47.7064 40.2418 45.0322 42.9179 45.0322 46.219V92.8979C45.0322 96.199 47.7065 98.8751 51.0052 98.8751H83.6799C94.695 98.8751 103.625 89.9393 103.625 78.9164V46.219C103.625 42.9179 100.95 40.2418 97.6516 40.2418H51.0052V40.2418Z" fill="#F2F2F2"/>
<path d="M56.0335 45.0959C53.8258 45.0959 52.0298 46.8932 52.0298 49.1025V55.3736C52.0298 57.5829 53.8258 59.3801 56.0335 59.3801H62.3002C64.508 59.3801 66.304 57.5829 66.304 55.3736V49.1025C66.304 46.8932 64.508 45.0959 62.3002 45.0959H56.0335Z" fill="#F2F2F2"/>
<path d="M56.0335 62.7499C53.8258 62.7499 52.0298 64.5471 52.0298 66.7564V73.0275C52.0298 75.2368 53.8258 77.0341 56.0335 77.0341H62.3002C64.508 77.0341 66.304 75.2368 66.304 73.0275V66.7564C66.304 64.5471 64.508 62.7499 62.3002 62.7499H56.0335Z" fill="#F2F2F2"/>
<path d="M56.0335 80.4039C53.8258 80.4039 52.0298 82.2012 52.0298 84.4105V90.6816C52.0298 92.8908 53.8258 94.6881 56.0335 94.6881H62.3002C64.508 94.6881 66.304 92.8908 66.304 90.6816V84.4105C66.304 82.2012 64.508 80.4039 62.3002 80.4039H56.0335Z" fill="#F2F2F2"/>
<path d="M60.1894 29.7959C57.4075 29.7959 55.1445 32.0605 55.1445 34.8443V42.746C55.1445 45.5298 57.4076 47.7944 60.1894 47.7944H68.0856C70.8674 47.7944 73.1304 45.5298 73.1304 42.746V34.8443C73.1304 32.0605 70.8674 29.7959 68.0856 29.7959H60.1894Z" fill="#03DAC5"/>
<path d="M86.1864 51.8781C83.4046 51.8781 81.1416 54.1427 81.1416 56.9264V64.8282C81.1416 67.6119 83.4046 69.8765 86.1864 69.8765H94.0827C96.8645 69.8765 99.1275 67.6119 99.1275 64.8282V56.9264C99.1275 54.1427 96.8645 51.8781 94.0827 51.8781H86.1864Z" fill="#03DAC5"/>
<path d="M74.8841 131.413L73.2799 131.399L72.5698 125.063L74.9374 125.083L74.8841 131.413Z" fill="#A0616A"/>
<path d="M69.7456 133.965C69.7422 134.36 70.0604 134.685 70.4567 134.689L73.6461 134.716L74.2044 133.583L74.4095 134.721L75.6129 134.732L75.309 130.672L74.8904 130.644L73.1826 130.527L72.6316 130.49L72.622 131.638L70.0599 133.377C69.865 133.51 69.7476 133.729 69.7456 133.965H69.7456Z" fill="#2F2E41"/>
<path d="M83.0457 131.413L81.4415 131.399L80.7314 125.063L83.099 125.083L83.0457 131.413Z" fill="#A0616A"/>
<path d="M77.9073 133.965C77.9038 134.36 78.2221 134.685 78.6183 134.689L81.8077 134.716L82.3661 133.583L82.5711 134.721L83.7746 134.732L83.4707 130.672L83.052 130.644L81.3442 130.527L80.7932 130.49L80.7836 131.638L78.2215 133.377C78.0266 133.51 77.9092 133.729 77.9073 133.965Z" fill="#2F2E41"/>
<path d="M68.5891 80.1855L75.0914 80.391L81.2516 81.7609C81.2516 81.7609 80.6355 82.5143 82.6889 84.5691C82.6889 84.5691 85.4267 89.3637 83.5103 94.0212L82.6889 112.651C82.6889 112.651 85.0837 125.785 83.254 129.964L80.8357 130.116L76.7437 112.803L74.7492 94.1582L73.791 112.515C73.791 112.515 77.4569 125.114 75.142 130.116L72.5229 129.964L68.0415 112.515C68.0415 112.515 66.1251 92.3774 66.3988 88.5418C66.6726 84.7061 68.5891 80.1855 68.5891 80.1855H68.5891Z" fill="#2F2E41"/>
<path d="M90.4259 50.7468C89.537 50.9771 89.003 51.8849 89.2332 52.7744C89.3386 53.182 89.5871 53.5136 89.91 53.7326L89.9099 53.7349L89.7838 56.7913L92.1211 57.8738L92.3077 53.1704L92.2914 53.1709C92.4941 52.8096 92.5641 52.3731 92.4521 51.9403C92.222 51.0508 91.3148 50.5164 90.4259 50.7468V50.7468Z" fill="#A0616A"/>
<path d="M77.3625 61.6551C76.8715 61.1681 76.5866 60.5078 76.576 59.7897C76.5617 58.8264 77.0441 57.9522 77.8663 57.4511C78.8132 56.8739 79.9974 56.9323 80.883 57.5996L88.2226 63.1297L89.5304 55.1632L92.3382 56.0677L91.6683 66.4412C91.6214 67.1668 91.2116 67.806 90.572 68.1511C89.9324 68.4961 89.1736 68.4875 88.542 68.128L77.9352 62.0891C77.7221 61.9678 77.5302 61.8215 77.3625 61.6551V61.6551Z" fill="#3F3D56"/>
<path d="M66.1703 46.2908C66.6395 47.0806 66.38 48.1015 65.5907 48.571C65.2291 48.7862 64.8193 48.8466 64.4359 48.7746L64.4344 48.7763L62.3735 51.0357L59.9521 50.1576L63.1288 46.6861L63.14 46.6979C63.2502 46.2985 63.5076 45.9392 63.8916 45.7108C64.6809 45.2413 65.7011 45.5009 66.1703 46.2908Z" fill="#A0616A"/>
<path d="M67.0607 63.1456L55.2796 59.9611C54.5782 59.7714 54.0332 59.2429 53.8218 58.5473C53.6104 57.8516 53.7691 57.1089 54.2463 56.5606L61.0689 48.7219L63.6992 50.0578L59.0231 56.6366L68.126 57.8805C69.2244 58.0307 70.1064 58.8235 70.3728 59.9004C70.6042 60.8356 70.3316 61.7964 69.6437 62.4703C69.131 62.9727 68.4641 63.241 67.7728 63.2409C67.5366 63.2409 67.2974 63.2096 67.0607 63.1456H67.0607Z" fill="#3F3D56"/>
<path d="M83.8573 82.9263L67.3828 83.6825C66.9303 82.9949 67.0529 81.961 67.6865 80.6663C70.079 75.778 68.262 66.5303 67.0397 61.715C66.6968 60.3639 67.6174 59.0208 69.0035 58.8821L70.5568 58.7266L71.9927 54.3405H77.0214L79.1076 56.7255L82.6482 58.8779C82.0037 65.5206 79.2578 74.9008 83.1697 79.6048C84.0253 80.6337 84.2679 81.7462 83.8573 82.9263Z" fill="#3F3D56"/>
<path d="M73.8674 54.4417C76.5726 54.4417 78.7656 52.2472 78.7656 49.5401C78.7656 46.8331 76.5726 44.6385 73.8674 44.6385C71.1622 44.6385 68.9692 46.8331 68.9692 49.5401C68.9692 52.2472 71.1622 54.4417 73.8674 54.4417Z" fill="#A0616A"/>
<path d="M79.4096 46.4028C80.091 43.9164 72.6636 41.7843 71.2202 43.7866C71.0195 43.5019 70.2778 43.329 69.9375 43.4163C69.5971 43.5036 69.3109 43.7219 69.0317 43.9333C68.6477 44.2284 68.2498 44.5341 68.0142 44.9584C67.7769 45.3811 67.7402 45.9574 68.0596 46.3242C68.3127 46.6158 68.7573 48.1657 69.1378 48.2425C69.4031 48.2966 69.6265 48.3403 69.8184 48.3717C69.9895 48.122 70.4256 47.8083 70.3942 47.5062C70.6525 47.6773 70.5581 47.9784 70.5061 48.2862C70.3326 49.3109 66.4258 57.2438 68.6635 54.9062C68.8851 55.0372 69.1591 55.1594 69.475 55.2712C70.0108 54.4626 70.4506 53.509 70.7403 52.5118L70.7423 52.5302C70.8421 53.3969 71.4749 54.1079 72.3122 54.3507C75.6711 55.3244 78.388 53.8956 79.3226 51.3189C78.9805 50.6238 78.8314 50.6993 78.8621 50.6787C79.2892 50.3906 79.8762 50.579 80.0598 51.0606C80.1139 51.2025 80.1631 51.3238 80.2057 51.415C80.6926 49.672 81.2717 49.9236 79.4096 46.4028H79.4096Z" fill="#2F2E41"/>
<path d="M77.0927 44.5988L76.7496 42.8435C76.7208 42.6959 76.6934 42.5358 76.7599 42.401C76.8453 42.2278 77.0649 42.156 77.256 42.1836C77.447 42.2112 77.5899 42.3859 77.78 42.4195C78.4409 42.5364 79.3146 41.8831 79.5514 43.5358C79.6501 44.2248 80.7488 44.2976 81.1158 44.889C81.4827 45.4803 81.5278 46.3339 81.027 46.817C80.627 47.2029 79.9847 47.2474 79.4653 47.0503C78.9458 46.8532 78.5289 46.4551 78.1648 46.0353C77.8006 45.6154 77.4708 45.1611 77.0508 44.7973" fill="#2F2E41"/>
<path d="M79.671 47.2685C78.3307 47.0812 77.4172 46.5934 76.9557 45.8188C76.3517 44.8049 76.7563 43.6885 76.7738 43.6415L77.0571 43.7469C77.0533 43.7571 76.6863 44.7791 77.217 45.6666C77.6297 46.3569 78.4695 46.7952 79.7128 46.969L79.671 47.2685Z" fill="#03DAC5"/>
<path d="M85.9608 28.3026C82.0205 28.3026 78.8145 25.0943 78.8145 21.1513C78.8145 17.2083 82.0205 14 85.9608 14C89.901 14 93.1071 17.2083 93.1071 21.1513C93.1071 25.0943 89.901 28.3026 85.9608 28.3026ZM85.9608 16.8605C83.5963 16.8605 81.673 18.7852 81.673 21.1513C81.673 23.5174 83.5963 25.4421 85.9608 25.4421C88.3252 25.4421 90.2485 23.5174 90.2485 21.1513C90.2485 18.7852 88.3252 16.8605 85.9608 16.8605Z" fill="#03DAC5"/>
<path d="M96.956 33.1626C96.6057 33.1626 96.2546 33.0348 95.979 32.7757L89.2716 26.4854C88.6952 25.9456 88.6659 25.0405 89.206 24.4644C89.7448 23.8861 90.6492 23.8575 91.2257 24.3987L97.933 30.6889C98.5095 31.2288 98.5388 32.1339 97.9986 32.71C97.7174 33.011 97.337 33.1626 96.956 33.1626Z" fill="#03DAC5"/>
<path d="M10 135.052C10 135.207 10.1247 135.332 10.2799 135.332H139.72C139.875 135.332 140 135.207 140 135.052C140 134.896 139.875 134.772 139.72 134.772H10.2799C10.1247 134.772 10 134.896 10 135.052Z" fill="#CCCCCC"/>
</svg>
