<svg width="400" height="400" viewBox="0 0 400 400" fill="none" xmlns="http://www.w3.org/2000/svg">
<path d="M195.366 318.819L287.843 235.569L279.601 229.022L320.059 219.796L311.157 254.022L303.88 248.368L226.811 318.819H195.366Z" fill="white"/>
<path d="M226.861 319.327H195.396C195.293 319.328 195.192 319.297 195.107 319.239C195.022 319.181 194.956 319.098 194.919 319.002C194.884 318.906 194.877 318.802 194.901 318.703C194.924 318.604 194.976 318.514 195.051 318.444L287.091 235.589L279.316 229.418C279.241 229.36 279.185 229.281 279.154 229.19C279.123 229.1 279.12 229.003 279.144 228.911C279.165 228.818 279.211 228.733 279.277 228.665C279.344 228.597 279.427 228.549 279.519 228.525L319.977 219.299C320.062 219.278 320.151 219.281 320.235 219.306C320.318 219.331 320.394 219.377 320.454 219.441C320.515 219.502 320.559 219.579 320.582 219.662C320.605 219.746 320.607 219.834 320.586 219.918L311.674 254.154C311.654 254.234 311.614 254.308 311.557 254.368C311.5 254.429 311.429 254.474 311.35 254.499C311.271 254.528 311.185 254.537 311.102 254.525C311.018 254.513 310.94 254.479 310.873 254.428L303.93 249.038L227.155 319.195C227.076 319.272 226.972 319.318 226.861 319.327ZM196.736 318.312H226.668L303.585 248.003C303.675 247.925 303.79 247.882 303.91 247.882C304.029 247.882 304.144 247.925 304.235 248.003L310.903 253.179L319.409 220.507L280.839 229.317L288.248 235.204C288.308 235.246 288.357 235.302 288.391 235.368C288.424 235.433 288.442 235.506 288.441 235.579C288.446 235.653 288.434 235.727 288.406 235.796C288.378 235.865 288.334 235.926 288.279 235.975L196.736 318.312Z" fill="#D1D1D1"/>
<path d="M199.589 259.919L205.75 263.725L151.6 308.477L184.668 309.634L222.497 275.489L229.186 279.377L237.57 249.667L199.589 259.919Z" fill="white"/>
<path d="M184.668 310.141L151.61 308.984C151.506 308.98 151.407 308.945 151.323 308.883C151.24 308.822 151.177 308.737 151.143 308.639C151.109 308.542 151.106 308.437 151.135 308.339C151.164 308.24 151.224 308.153 151.305 308.091L204.897 263.786L199.345 260.355C199.26 260.303 199.192 260.228 199.148 260.138C199.105 260.048 199.089 259.947 199.102 259.848C199.115 259.749 199.158 259.656 199.225 259.582C199.292 259.508 199.38 259.455 199.477 259.432L237.459 249.17C237.546 249.15 237.637 249.151 237.724 249.174C237.81 249.197 237.89 249.241 237.956 249.302C238.018 249.367 238.063 249.447 238.087 249.534C238.11 249.621 238.11 249.712 238.088 249.799L229.704 279.519C229.683 279.593 229.644 279.661 229.591 279.718C229.538 279.774 229.472 279.817 229.399 279.843C229.33 279.878 229.254 279.896 229.176 279.896C229.099 279.896 229.022 279.878 228.953 279.843L222.579 276.149L185.024 310.04C184.922 310.116 184.795 310.152 184.668 310.141ZM152.96 308.02L184.476 309.116L222.152 275.114C222.236 275.029 222.346 274.975 222.465 274.963C222.583 274.95 222.702 274.978 222.802 275.042L228.892 278.605L236.85 250.378L200.858 260.092L206.024 263.279C206.092 263.322 206.149 263.38 206.191 263.449C206.233 263.517 206.259 263.594 206.268 263.674C206.272 263.755 206.258 263.835 206.227 263.909C206.195 263.983 206.146 264.049 206.085 264.101L152.96 308.02Z" fill="#D1D1D1"/>
<path d="M265.725 318.819L286.746 299.849L292.146 302.417L298.743 282.32L271.135 289.242L276.576 292.612L244.867 318.819H265.725Z" fill="white"/>
<path d="M265.726 319.327H244.868C244.764 319.326 244.664 319.293 244.579 319.234C244.495 319.174 244.431 319.09 244.396 318.993C244.36 318.896 244.356 318.79 244.382 318.69C244.408 318.59 244.464 318.501 244.543 318.434L275.703 292.673L270.862 289.628C270.777 289.576 270.709 289.501 270.667 289.41C270.625 289.32 270.612 289.219 270.628 289.12C270.646 289.022 270.692 288.93 270.76 288.856C270.829 288.782 270.917 288.73 271.014 288.704L298.622 281.792C298.71 281.769 298.803 281.771 298.89 281.796C298.978 281.822 299.057 281.87 299.119 281.936C299.181 282.003 299.225 282.085 299.244 282.174C299.264 282.263 299.259 282.355 299.231 282.442L292.623 302.539C292.601 302.606 292.566 302.667 292.518 302.72C292.471 302.772 292.414 302.814 292.349 302.843C292.284 302.873 292.213 302.889 292.141 302.889C292.069 302.889 291.998 302.873 291.933 302.843L286.858 300.428L266.061 319.195C266.017 319.238 265.964 319.272 265.907 319.294C265.849 319.317 265.788 319.328 265.726 319.327ZM246.278 318.312H265.563L286.442 299.473C286.517 299.406 286.609 299.363 286.709 299.348C286.808 299.334 286.91 299.349 287 299.392L291.872 301.706L298.013 283.041L272.445 289.445L276.871 292.186C276.938 292.228 276.995 292.286 277.036 292.355C277.076 292.424 277.1 292.502 277.104 292.582C277.111 292.662 277.097 292.743 277.065 292.817C277.034 292.892 276.984 292.957 276.921 293.008L246.278 318.312Z" fill="#D1D1D1"/>
<path d="M281.52 161.616L267.797 182.931L281.865 190.371L300.439 161.951C300.439 161.951 290.431 147.508 288.422 146.726C286.412 145.945 281.52 161.616 281.52 161.616Z" fill="white"/>
<path d="M281.865 190.909C281.78 190.908 281.696 190.887 281.621 190.848L267.563 183.408C267.5 183.376 267.444 183.331 267.4 183.275C267.356 183.218 267.325 183.153 267.31 183.083C267.289 183.017 267.284 182.947 267.294 182.878C267.305 182.81 267.331 182.745 267.371 182.688L281.063 161.373C281.844 158.906 285.549 147.447 287.802 146.34C287.922 146.273 288.055 146.232 288.192 146.222C288.328 146.211 288.466 146.231 288.594 146.28C290.624 147.02 299.17 159.211 300.855 161.647C300.913 161.728 300.943 161.826 300.943 161.926C300.943 162.026 300.913 162.123 300.855 162.205L282.281 190.625C282.241 190.704 282.183 190.771 282.11 190.821C282.037 190.871 281.953 190.901 281.865 190.909ZM268.517 182.789L281.672 189.782L299.81 162.012C295.953 156.46 289.558 147.802 288.229 147.305C287.153 147.487 284.169 154.978 281.987 161.819C281.974 161.861 281.957 161.902 281.936 161.941L268.517 182.789Z" fill="#484646"/>
<path d="M270.314 141.062C270.314 141.062 270.913 146.432 273.694 148.167C276.475 149.903 284.168 148.787 284.798 149.456C285.427 150.126 298.673 168.823 300.185 169.756C301.697 170.69 306.224 167.584 309.127 163.118C309.127 163.118 295.871 146.056 295.161 144.473C294.45 142.889 295.496 135.125 294.714 131.917L270.314 141.062Z" fill="white"/>
<path d="M300.825 170.497C300.509 170.507 300.196 170.43 299.921 170.274C298.855 169.625 293.486 162.306 287.609 154.217C285.995 152.004 284.564 150.086 284.432 149.893C283.525 149.803 282.613 149.779 281.702 149.822C279.002 149.822 275.277 149.883 273.42 148.695C270.476 146.797 269.837 141.397 269.806 141.174C269.796 141.061 269.821 140.948 269.88 140.851C269.938 140.755 270.026 140.679 270.131 140.636L294.491 131.501C294.556 131.471 294.627 131.456 294.699 131.456C294.771 131.456 294.842 131.471 294.907 131.501C294.971 131.533 295.027 131.578 295.071 131.635C295.115 131.691 295.146 131.756 295.161 131.826C295.52 134.245 295.609 136.696 295.425 139.134C295.364 141.347 295.293 143.641 295.587 144.3C296.095 145.417 304.174 156.003 309.483 162.844C309.544 162.928 309.578 163.029 309.578 163.134C309.578 163.238 309.544 163.339 309.483 163.423C306.975 167.452 303.047 170.497 300.825 170.497ZM282.687 148.787C284.179 148.787 284.859 148.847 285.173 149.172C285.488 149.497 286.371 150.756 288.431 153.598C292.014 158.531 299.464 168.823 300.449 169.381C301.434 169.939 305.605 167.493 308.498 163.21C306.387 160.479 295.384 146.269 294.704 144.747C294.329 143.915 294.369 142.067 294.45 139.134C294.584 136.976 294.543 134.81 294.329 132.658L270.872 141.428C271.075 142.656 271.887 146.503 273.978 147.812C275.571 148.827 279.114 148.827 281.692 148.827L282.687 148.787Z" fill="#484646"/>
<path d="M306.478 165.737C306.397 165.738 306.316 165.72 306.243 165.682C306.171 165.645 306.109 165.591 306.062 165.524L291.426 144.859C291.35 144.748 291.32 144.611 291.343 144.479C291.365 144.346 291.439 144.227 291.548 144.148C291.602 144.109 291.664 144.081 291.729 144.066C291.794 144.051 291.862 144.05 291.928 144.061C291.994 144.072 292.057 144.096 292.114 144.132C292.171 144.168 292.22 144.215 292.258 144.27L306.894 164.945C306.97 165.055 306.999 165.189 306.977 165.32C306.954 165.451 306.881 165.568 306.773 165.646C306.688 165.709 306.584 165.742 306.478 165.737Z" fill="#D1D1D1"/>
<path d="M292.421 136.099C291.883 137.298 291.714 138.63 291.933 139.926C292.339 141.956 295.831 145.589 295.831 145.589L300.693 140.606L296.257 134.577L292.421 136.099Z" fill="#484646"/>
<path d="M295.882 146.137C295.745 146.133 295.615 146.079 295.516 145.985C295.374 145.833 291.913 142.199 291.456 140.068C291.211 138.662 291.395 137.216 291.984 135.916C292.043 135.803 292.14 135.713 292.258 135.663L296.095 134.14C296.2 134.102 296.315 134.098 296.422 134.129C296.53 134.16 296.625 134.224 296.694 134.313L301.119 140.403C301.188 140.5 301.221 140.618 301.212 140.737C301.202 140.855 301.152 140.967 301.068 141.052L296.216 146.036C296.121 146.11 296.002 146.146 295.882 146.137ZM292.837 136.536C292.403 137.588 292.272 138.742 292.461 139.865C292.735 141.235 294.765 143.681 295.871 144.94L300.053 140.646L296.115 135.267L292.837 136.536Z" fill="#484646"/>
<path d="M305.575 158.591C305.575 158.591 308.701 154.217 306.052 152.989C306.052 152.989 306.671 149.365 302.915 149.761C302.915 149.761 303.22 145.853 300.124 145.701C297.028 145.549 292.573 151.608 292.4 153.445C292.228 155.283 294.795 154.968 296.46 153.709C296.46 153.709 294.146 155.942 294.887 156.957C295.973 158.449 298.043 157.089 299.688 156.135C299.688 156.135 296.886 158.703 299.414 159.84C301.363 160.713 304.55 157.242 304.55 157.242L305.575 158.591Z" fill="white"/>
<path d="M300.073 160.459C299.765 160.461 299.46 160.395 299.18 160.266C298.843 160.152 298.542 159.952 298.306 159.684C298.071 159.417 297.91 159.093 297.84 158.744C297.789 158.355 297.841 157.959 297.992 157.597C296.693 158.196 295.343 158.46 294.44 157.221C294.265 156.886 294.192 156.507 294.228 156.131C294.264 155.754 294.408 155.396 294.643 155.1C293.975 155.318 293.25 155.275 292.613 154.978C292.339 154.819 292.121 154.58 291.986 154.294C291.852 154.007 291.809 153.686 291.862 153.374C292.055 151.344 296.744 144.95 300.124 145.163C300.548 145.173 300.967 145.267 301.354 145.442C301.741 145.616 302.089 145.866 302.377 146.178C303.04 147.054 303.397 148.124 303.392 149.223C303.819 149.197 304.247 149.261 304.647 149.412C305.048 149.562 305.412 149.795 305.717 150.096C306.315 150.827 306.6 151.765 306.508 152.704C306.979 153 307.317 153.465 307.452 154.004C307.96 155.932 306.123 158.591 305.909 158.886C305.864 158.951 305.803 159.004 305.732 159.04C305.661 159.077 305.583 159.096 305.503 159.096C305.424 159.096 305.346 159.077 305.275 159.04C305.204 159.004 305.143 158.951 305.097 158.886L304.397 157.982C303.626 158.815 301.748 160.459 300.073 160.459ZM299.657 155.597C299.737 155.597 299.816 155.616 299.887 155.653C299.958 155.69 300.018 155.744 300.063 155.81C300.139 155.909 300.174 156.033 300.163 156.157C300.152 156.281 300.094 156.397 300.002 156.48C299.667 156.795 298.723 157.84 298.845 158.581C298.845 158.703 298.926 159.038 299.596 159.343C300.906 159.931 303.382 157.698 304.143 156.866C304.25 156.763 304.391 156.705 304.539 156.704C304.614 156.707 304.688 156.727 304.754 156.763C304.821 156.798 304.879 156.847 304.925 156.907L305.544 157.708C306.102 156.775 306.813 155.252 306.559 154.257C306.514 154.075 306.426 153.907 306.302 153.765C306.179 153.624 306.023 153.514 305.849 153.445C305.748 153.398 305.665 153.319 305.614 153.22C305.562 153.12 305.545 153.007 305.564 152.897C305.683 152.156 305.504 151.397 305.067 150.786C304.783 150.546 304.448 150.374 304.087 150.284C303.726 150.194 303.35 150.189 302.986 150.268C302.912 150.275 302.838 150.265 302.768 150.241C302.698 150.216 302.634 150.177 302.58 150.126C302.525 150.075 302.481 150.012 302.453 149.942C302.425 149.872 302.413 149.796 302.418 149.72C302.492 148.713 302.22 147.71 301.646 146.878C301.45 146.663 301.213 146.49 300.947 146.369C300.682 146.249 300.395 146.184 300.104 146.178C297.292 146.016 293.06 151.872 292.907 153.466C292.907 153.882 293.019 154.014 293.151 154.095C293.677 154.201 294.221 154.183 294.739 154.042C295.257 153.901 295.735 153.641 296.135 153.283C296.238 153.214 296.362 153.185 296.485 153.201C296.608 153.218 296.72 153.278 296.801 153.372C296.883 153.466 296.927 153.586 296.925 153.709C296.924 153.833 296.878 153.952 296.795 154.044C295.851 154.958 294.998 156.247 295.272 156.622C295.962 157.576 297.302 156.907 299.068 155.871L299.413 155.668C299.486 155.622 299.571 155.597 299.657 155.597Z" fill="#484646"/>
<path d="M297.689 139.916C297.689 139.916 296.978 136.586 294.481 138.505C291.984 140.423 288.462 144.382 291.132 145.782C293.801 147.183 297.638 142.595 297.689 139.916Z" fill="white"/>
<path d="M292.207 146.554C291.75 146.554 291.301 146.443 290.898 146.229C290.561 146.076 290.271 145.837 290.057 145.535C289.843 145.234 289.713 144.881 289.68 144.513C289.487 142.311 292.532 139.357 294.176 138.099C294.481 137.804 294.858 137.595 295.27 137.491C295.681 137.388 296.113 137.394 296.521 137.51C296.953 137.742 297.326 138.069 297.613 138.466C297.899 138.863 298.092 139.321 298.175 139.804C298.18 139.844 298.18 139.885 298.175 139.926C298.175 141.895 296.297 144.696 294.247 145.914C293.636 146.306 292.932 146.526 292.207 146.554ZM295.902 138.434C295.49 138.472 295.102 138.643 294.795 138.921C292.714 140.524 290.563 142.981 290.684 144.442C290.706 144.641 290.781 144.831 290.901 144.991C291.02 145.152 291.18 145.278 291.365 145.356C291.755 145.509 292.178 145.562 292.594 145.51C293.011 145.459 293.408 145.305 293.75 145.061C295.496 144.046 297.109 141.621 297.17 139.986C297.079 139.591 296.744 138.697 296.155 138.484C296.068 138.446 295.976 138.422 295.881 138.413L295.902 138.434Z" fill="#484646"/>
<path d="M281.021 163.159C281.021 163.159 282.037 153.648 282.371 151.994C282.94 149.203 284.929 145.183 287.518 145.295C290.106 145.407 295.719 146.513 294.064 148.604C292.552 150.522 287.67 149.396 287.67 149.396C287.67 149.396 289.882 153.75 288.319 156.886" fill="white"/>
<path d="M281.022 163.666H280.961C280.828 163.651 280.706 163.584 280.623 163.479C280.539 163.375 280.5 163.241 280.514 163.108C280.514 162.723 281.529 153.557 281.875 151.943C282.453 149.122 284.503 144.696 287.538 144.838C288.837 144.838 293.892 145.478 294.745 147.335C294.864 147.605 294.901 147.904 294.851 148.195C294.8 148.486 294.664 148.756 294.461 148.969C293.192 150.583 290.116 150.37 288.513 150.116C289.101 151.618 290.005 154.694 288.777 157.16C288.747 157.22 288.707 157.274 288.656 157.318C288.606 157.362 288.547 157.396 288.484 157.416C288.42 157.437 288.353 157.445 288.287 157.439C288.22 157.434 288.156 157.415 288.096 157.384C288.036 157.354 287.983 157.314 287.938 157.264C287.894 157.214 287.86 157.155 287.839 157.092C287.817 157.029 287.808 156.962 287.812 156.895C287.816 156.829 287.834 156.764 287.863 156.704C289.294 153.851 287.234 149.72 287.213 149.67C287.174 149.583 287.157 149.488 287.166 149.394C287.175 149.299 287.209 149.209 287.264 149.132C287.325 149.057 287.406 149 287.497 148.968C287.589 148.936 287.687 148.929 287.782 148.949C289.051 149.243 292.593 149.7 293.669 148.34C293.933 148.005 293.852 147.832 293.821 147.761C293.385 146.817 290.066 145.955 287.498 145.853C285.326 145.782 283.438 149.446 282.859 152.146C282.534 153.76 281.529 163.169 281.519 163.26C281.498 163.376 281.436 163.48 281.345 163.554C281.254 163.629 281.139 163.668 281.022 163.666Z" fill="#484646"/>
<path d="M326.727 140.616C326.727 140.616 307.706 132.333 298.186 134.414C295.772 134.972 293.398 135.691 291.081 136.566C285.63 138.596 280.291 141.113 276.424 142.22C268.771 144.402 262.387 143.326 260.357 135.246C258.661 128.324 261.625 126.264 268.06 122.671C271.237 120.905 277.581 118.326 283.387 115.078C286.742 113.315 289.82 111.068 292.522 108.41C298.612 101.924 301.383 89.8455 301.383 89.8455L326.727 140.616Z" fill="white"/>
<path d="M270.222 143.712C268.261 143.768 266.321 143.302 264.599 142.362C262.285 141.012 260.702 138.657 259.89 135.368C258.093 128.05 261.382 125.827 267.847 122.234C269.197 121.473 271.105 120.59 273.308 119.555C276.353 118.134 279.834 116.51 283.174 114.642C286.506 112.913 289.56 110.696 292.238 108.065C298.155 101.751 300.936 89.7948 300.967 89.7237C300.991 89.6224 301.046 89.531 301.124 89.462C301.202 89.393 301.3 89.3497 301.403 89.338C301.506 89.3237 301.611 89.3426 301.702 89.3919C301.793 89.4412 301.866 89.5183 301.911 89.6121L327.174 140.362C327.222 140.455 327.24 140.561 327.225 140.664C327.21 140.768 327.164 140.864 327.093 140.941C327.021 141.015 326.929 141.067 326.827 141.089C326.726 141.111 326.62 141.101 326.524 141.062C326.332 140.981 307.544 132.861 298.287 134.891C295.908 135.444 293.568 136.156 291.284 137.023C289.051 137.845 286.858 138.748 284.727 139.631C281.682 140.859 278.89 142.027 276.607 142.676C274.537 143.315 272.388 143.663 270.222 143.712ZM301.616 91.3274C300.703 94.6871 297.952 103.507 292.979 108.796C290.239 111.488 287.112 113.756 283.702 115.525C280.322 117.413 276.84 119.037 273.765 120.478C271.582 121.493 269.705 122.376 268.365 123.117C262.021 126.649 259.281 128.497 260.905 135.125C261.646 138.17 263.067 140.281 265.137 141.479C267.766 143.011 271.542 143.092 276.302 141.732C279.03 140.858 281.709 139.841 284.331 138.687C286.462 137.804 288.675 136.901 290.928 136.069C293.245 135.184 295.618 134.458 298.033 133.897C306.285 132.09 321.175 137.774 325.621 139.601L301.616 91.3274Z" fill="#484646"/>
<path d="M292.42 136.099C286.97 138.129 280.24 140.91 276.454 142.189C267.756 145.163 263.148 144.28 260.661 136.343C258.103 128.223 261.676 126.193 268.091 122.64C271.268 120.874 277.612 118.296 283.417 115.048C283.417 115.048 282.138 119.971 285.041 127.39C286.464 131.033 289.061 134.098 292.42 136.099Z" fill="#484646"/>
<path d="M268.933 144.29C267.596 144.326 266.27 144.04 265.066 143.458C262.864 142.341 261.311 140.139 260.174 136.525C257.504 127.989 261.372 125.837 267.766 122.315C269.197 121.514 271.105 120.63 273.308 119.595C276.353 118.174 279.834 116.55 283.174 114.683C283.26 114.634 283.36 114.611 283.459 114.618C283.558 114.625 283.653 114.661 283.732 114.722C283.811 114.782 283.87 114.865 283.903 114.959C283.935 115.053 283.939 115.155 283.915 115.251C283.915 115.251 282.717 120.113 285.518 127.279C286.906 130.781 289.401 133.732 292.623 135.683C292.711 135.729 292.783 135.8 292.832 135.886C292.88 135.973 292.903 136.071 292.897 136.17C292.891 136.269 292.856 136.364 292.797 136.444C292.737 136.523 292.656 136.583 292.562 136.617C290.055 137.54 287.295 138.647 284.635 139.662C281.59 140.88 278.647 142.027 276.586 142.707C274.136 143.64 271.552 144.174 268.933 144.29ZM282.737 116.033C279.692 117.707 276.525 119.169 273.734 120.478C271.552 121.493 269.674 122.376 268.334 123.117C261.909 126.7 258.722 128.476 261.148 136.221C262.163 139.55 263.584 141.57 265.523 142.554C267.868 143.732 271.187 143.488 276.292 141.732C278.322 141.042 281.225 139.895 284.29 138.687C286.625 137.774 289.02 136.83 291.263 135.987C288.246 133.922 285.913 131.003 284.564 127.604C283.023 123.953 282.396 119.981 282.737 116.033Z" fill="#484646"/>
<path d="M332.716 140.707C327.032 143.245 318.394 136.82 311.401 125.726C307.889 120.077 305.157 113.979 303.281 107.598C299.607 94.9307 300.591 84.1412 306.326 81.5936C313.431 78.4369 325.022 89.1249 332.3 105.436C339.577 121.747 339.79 137.551 332.716 140.707Z" fill="#FF931E"/>
<path d="M309.077 81.0455C316.182 81.0455 325.956 91.0432 332.371 105.405C339.649 121.737 339.821 137.52 332.747 140.677C331.903 141.05 330.989 141.237 330.067 141.225C324.566 141.225 317.41 135.135 311.472 125.695C307.96 120.047 305.228 113.949 303.352 107.567C299.678 94.9002 300.663 84.1108 306.397 81.5631C307.241 81.1914 308.155 81.0046 309.077 81.015M309.077 80C308.028 79.9971 306.991 80.215 306.032 80.6395C299.942 83.3495 298.501 94.2811 302.439 107.852C303.373 111.056 304.526 114.193 305.89 117.24C307.263 120.348 308.858 123.353 310.66 126.233C316.842 136.109 324.292 142.24 330.108 142.24C331.173 142.249 332.229 142.031 333.203 141.6C337.01 139.905 339.07 135.064 338.999 127.969C338.928 121.179 336.918 113.018 333.346 104.999C326.707 90.3124 316.75 80.0305 309.077 80.0305V80Z" fill="#484646"/>
<path d="M322.444 118.438L311.441 125.726C307.929 120.077 305.198 113.979 303.321 107.598L316.912 104.289L322.444 118.438Z" fill="white"/>
<path d="M322.445 118.449C324.26 117.733 324.485 113.995 322.949 110.099C321.412 106.204 318.695 103.627 316.88 104.343C315.066 105.058 314.841 108.797 316.377 112.692C317.914 116.587 320.631 119.164 322.445 118.449Z" fill="#484646"/>
<path d="M321.815 119.057C319.785 119.057 317.369 116.56 315.907 112.856C314.243 108.633 314.588 104.675 316.689 103.842C318.79 103.01 321.764 105.669 323.418 109.932C325.083 114.155 324.738 118.113 322.637 118.946C322.372 119.033 322.093 119.071 321.815 119.057ZM317.501 104.705C317.352 104.706 317.204 104.733 317.065 104.786C315.735 105.314 315.319 108.603 316.851 112.48C318.384 116.357 320.911 118.489 322.261 117.961C323.611 117.433 324.007 114.145 322.475 110.267C321.094 106.776 318.902 104.705 317.501 104.705Z" fill="#484646"/>
<path d="M299.657 156.612C299.555 156.611 299.456 156.579 299.373 156.521C299.289 156.462 299.225 156.38 299.189 156.285C299.153 156.189 299.146 156.086 299.17 155.986C299.194 155.887 299.247 155.798 299.322 155.729C300.413 154.772 301.637 153.978 302.956 153.374C303.083 153.324 303.224 153.326 303.349 153.379C303.475 153.432 303.574 153.533 303.626 153.659C303.651 153.721 303.663 153.787 303.662 153.854C303.661 153.92 303.647 153.986 303.621 154.047C303.594 154.109 303.556 154.164 303.508 154.211C303.46 154.257 303.404 154.294 303.342 154.318C302.129 154.881 301.001 155.612 299.992 156.49C299.899 156.57 299.78 156.613 299.657 156.612Z" fill="#484646"/>
<path d="M296.43 154.186C296.345 154.186 296.262 154.165 296.187 154.125C296.07 154.059 295.984 153.95 295.947 153.82C295.911 153.691 295.928 153.552 295.994 153.435C296.939 151.927 298.372 150.788 300.054 150.208C300.118 150.177 300.189 150.16 300.261 150.158C300.332 150.156 300.403 150.17 300.47 150.197C300.536 150.225 300.595 150.267 300.644 150.319C300.693 150.372 300.73 150.434 300.753 150.502C300.776 150.57 300.785 150.642 300.778 150.713C300.771 150.784 300.75 150.854 300.714 150.916C300.679 150.978 300.631 151.032 300.573 151.075C300.515 151.117 300.449 151.147 300.378 151.162C298.923 151.667 297.677 152.641 296.836 153.933C296.795 154.005 296.736 154.066 296.665 154.11C296.594 154.155 296.513 154.181 296.43 154.186Z" fill="#484646"/>
<path d="M304.519 157.719C304.413 157.719 304.309 157.685 304.222 157.623C304.136 157.561 304.071 157.473 304.038 157.372C304.004 157.271 304.003 157.161 304.035 157.06C304.067 156.958 304.129 156.869 304.215 156.805L305.392 155.932C305.5 155.851 305.635 155.817 305.768 155.836C305.902 155.855 306.022 155.926 306.103 156.034C306.181 156.142 306.214 156.277 306.195 156.409C306.176 156.542 306.107 156.662 306.001 156.744L304.824 157.617C304.737 157.685 304.629 157.721 304.519 157.719Z" fill="#484646"/>
<path d="M268.121 143.194C268.039 143.193 267.958 143.173 267.886 143.134C267.813 143.095 267.751 143.039 267.705 142.971C263.777 137.348 262.102 131.532 263.006 126.589C263.009 126.541 263.009 126.494 263.006 126.446C263.007 126.331 263.047 126.22 263.118 126.13C263.19 126.04 263.29 125.976 263.402 125.949C263.466 125.933 263.534 125.929 263.6 125.939C263.666 125.949 263.729 125.973 263.786 126.008C263.843 126.043 263.892 126.089 263.93 126.143C263.969 126.198 263.996 126.259 264.011 126.325C264.044 126.472 264.044 126.624 264.011 126.771C263.168 131.45 264.772 136.992 268.548 142.392C268.624 142.503 268.653 142.639 268.631 142.772C268.608 142.905 268.534 143.023 268.426 143.103C268.336 143.164 268.23 143.195 268.121 143.194Z" fill="white"/>
<path d="M271.278 123.422C271.181 123.421 271.085 123.392 271.003 123.34C270.921 123.288 270.854 123.215 270.811 123.127C270.756 123.005 270.752 122.866 270.8 122.74C270.847 122.614 270.942 122.513 271.065 122.457L279.286 118.651C279.346 118.622 279.411 118.606 279.477 118.602C279.544 118.599 279.61 118.609 279.673 118.632C279.735 118.654 279.792 118.689 279.841 118.735C279.89 118.78 279.929 118.834 279.956 118.895C279.985 118.955 280.002 119.021 280.006 119.088C280.009 119.155 279.999 119.223 279.977 119.286C279.954 119.349 279.919 119.407 279.874 119.457C279.828 119.506 279.774 119.547 279.713 119.575L271.522 123.371C271.447 123.412 271.362 123.43 271.278 123.422Z" fill="white"/>
<path d="M271.694 125.117C271.596 125.118 271.5 125.091 271.417 125.039C271.334 124.986 271.268 124.911 271.227 124.822C271.175 124.7 271.172 124.561 271.219 124.436C271.266 124.312 271.36 124.21 271.481 124.152L279.702 120.346C279.825 120.294 279.963 120.291 280.088 120.338C280.213 120.386 280.315 120.479 280.372 120.6C280.401 120.66 280.418 120.725 280.421 120.791C280.424 120.858 280.414 120.924 280.392 120.986C280.369 121.049 280.334 121.106 280.289 121.155C280.243 121.203 280.189 121.243 280.128 121.27L271.907 125.076C271.839 125.104 271.767 125.118 271.694 125.117Z" fill="white"/>
<path d="M272.171 127.076C272.105 127.09 272.036 127.09 271.969 127.078C271.902 127.065 271.838 127.04 271.781 127.002C271.724 126.965 271.675 126.917 271.636 126.861C271.598 126.805 271.571 126.741 271.557 126.675C271.543 126.608 271.542 126.539 271.555 126.472C271.567 126.406 271.593 126.342 271.63 126.285C271.668 126.228 271.716 126.179 271.772 126.14C271.828 126.102 271.891 126.075 271.958 126.061L280.179 122.254C280.302 122.198 280.442 122.192 280.568 122.239C280.695 122.286 280.798 122.381 280.854 122.503C280.911 122.626 280.917 122.766 280.87 122.892C280.823 123.019 280.728 123.122 280.606 123.178L272.384 126.984C272.321 127.03 272.248 127.061 272.171 127.076Z" fill="white"/>
<path d="M137.693 184.281L113.658 248.652C113.658 248.652 153.903 262.172 180.262 259.949C180.262 259.949 187.428 249.698 193.062 243.912C198.695 238.127 216.61 232.697 220.467 204.845C220.467 204.845 247.872 237.782 260.864 230.9C273.856 224.018 293.851 178.759 293.851 178.759L275.744 165.778L257.271 191.691C257.271 191.691 208.155 144.757 195.721 136.82C191.103 133.876 172.772 137.144 151.132 142.91" fill="#FF931E"/>
<path d="M188.098 156.013C188.098 156.013 188.098 188.087 185.723 200.897C183.348 213.706 177.045 234.138 177.045 234.138C177.045 234.138 206.48 193.538 213.646 164.976L188.098 156.013Z" fill="#484646"/>
<path d="M177.045 234.585C176.978 234.599 176.909 234.599 176.842 234.585C176.748 234.535 176.674 234.454 176.634 234.356C176.593 234.258 176.588 234.148 176.619 234.047C176.68 233.844 182.952 213.513 185.287 200.866C187.621 188.219 187.652 156.389 187.652 156.064C187.653 155.992 187.671 155.922 187.705 155.858C187.738 155.795 187.786 155.74 187.845 155.699C187.903 155.658 187.971 155.632 188.041 155.623C188.112 155.614 188.184 155.623 188.251 155.648L213.798 164.6C213.902 164.641 213.988 164.718 214.04 164.817C214.092 164.915 214.107 165.029 214.082 165.138C206.977 193.477 177.705 234.036 177.41 234.442C177.364 234.492 177.307 234.53 177.244 234.555C177.181 234.579 177.113 234.59 177.045 234.585ZM188.545 156.643C188.545 161.21 188.322 189.265 186.16 200.978C184.323 210.955 180.07 225.663 178.273 231.621C184.455 222.76 206.845 189.579 213.108 165.26L188.545 156.643Z" fill="#484646"/>
<path d="M207.962 318.819L180.263 259.949L113.659 248.652C113.659 248.652 100.464 263.441 97.3069 275.773C95.1044 284.34 86.6393 306.223 90.1106 318.809L207.962 318.819Z" fill="#484646"/>
<path d="M207.962 319.327H90.1101C89.999 319.327 89.8906 319.292 89.8011 319.226C89.7115 319.161 89.6455 319.068 89.6128 318.961C86.7809 308.649 91.7138 292.572 94.972 281.924C95.7332 279.448 96.393 277.306 96.8193 275.662C99.9861 263.35 113.181 248.48 113.283 248.328C113.339 248.262 113.413 248.213 113.494 248.184C113.576 248.156 113.664 248.149 113.749 248.165L180.354 259.462C180.433 259.476 180.508 259.51 180.572 259.559C180.635 259.609 180.686 259.673 180.719 259.746L208.419 318.616C208.459 318.691 208.479 318.775 208.479 318.86C208.479 318.945 208.459 319.029 208.419 319.104C208.37 319.179 208.302 319.24 208.222 319.28C208.141 319.319 208.051 319.335 207.962 319.327ZM90.4958 318.312H207.16L179.917 260.457L113.861 249.292C112.257 251.139 100.666 264.71 97.7937 275.997C97.3674 277.661 96.7076 279.813 95.9464 282.3C92.7593 292.622 87.9583 308.274 90.4958 318.312Z" fill="#484646"/>
<path d="M185.754 92.3424C173.655 103.68 173.188 124.335 159.871 134.211L169.656 141.062C179.938 148.269 190.483 155.607 202.582 159.008C214.681 162.408 228.83 161.149 238.107 152.664C235.245 149.731 235.123 145.133 235.529 141.062C236.869 127.482 242.056 113.566 237.823 100.605C236.93 97.8742 235.052 93.3879 232.748 91.4695C229.703 89.0031 227.47 91.0229 224.09 91.0026C223.395 90.8997 222.75 90.5759 222.253 90.079C212.854 82.8826 194.188 84.4457 185.754 92.3424Z" fill="white"/>
<path d="M215.159 161.22C210.881 161.206 206.624 160.619 202.502 159.475C190.2 156.024 179.644 148.614 169.443 141.458L159.638 134.587C159.577 134.545 159.528 134.489 159.494 134.423C159.461 134.358 159.444 134.285 159.445 134.211C159.445 134.139 159.462 134.067 159.493 134.002C159.525 133.937 159.571 133.88 159.628 133.836C166.571 128.7 170.062 120.377 173.442 112.338C176.487 105.01 179.705 97.4276 185.49 92.0379C194.27 83.8063 213.332 82.6593 222.568 89.7948L222.67 89.8861C223.066 90.2767 223.572 90.5355 224.121 90.6271C225.115 90.6192 226.104 90.4862 227.065 90.2312C229.013 89.8049 230.861 89.4091 233.073 91.2462C235.834 93.4792 237.773 98.9298 238.301 100.554C241.346 109.871 239.569 119.788 237.844 129.37C237.143 133.257 236.423 137.276 236.027 141.194C235.692 144.595 235.58 149.456 238.483 152.43C238.528 152.474 238.564 152.526 238.588 152.584C238.612 152.641 238.625 152.703 238.625 152.765C238.625 152.828 238.612 152.89 238.588 152.947C238.564 153.005 238.528 153.057 238.483 153.1C231.855 159.028 223.289 161.22 215.159 161.22ZM160.643 134.191L169.92 140.697C180.07 147.802 190.555 155.171 202.705 158.581C213.047 161.484 227.542 161.413 237.438 152.654C234.606 149.396 234.718 144.534 235.053 141.032C235.448 137.084 236.179 133.044 236.88 129.136C238.585 119.666 240.341 109.851 237.367 100.767C236.352 97.5595 234.474 93.5401 232.434 91.8958C230.566 90.3733 229.084 90.6981 227.207 91.1041C226.18 91.3577 225.128 91.4972 224.07 91.5203C223.308 91.4466 222.592 91.1175 222.04 90.5865L221.939 90.5053C213.007 83.5931 194.534 84.7198 186.069 92.6774C180.425 97.9655 177.279 105.456 174.234 112.693C170.905 120.661 167.443 128.882 160.643 134.191Z" fill="#484646"/>
<path d="M215.697 147.66L213.667 164.976C213.667 164.976 210.713 174.425 200.553 170.162C197.559 168.876 194.89 166.939 192.739 164.491C190.588 162.044 189.01 159.148 188.119 156.013L193.052 126.213C193.265 124.944 195.63 121.382 196.787 110.369C209.607 111.759 220.873 103.365 220.873 103.365C220.873 103.365 224.446 110.47 226.09 112.845C227.428 114.6 228.54 116.517 229.399 118.55C230.759 122.102 230.16 126.254 229.622 129.918C229.038 134.288 228.056 138.596 226.689 142.788C223.969 150.735 215.697 147.66 215.697 147.66Z" fill="white"/>
<path d="M205.435 171.736C203.685 171.692 201.961 171.306 200.36 170.599C197.307 169.27 194.585 167.282 192.39 164.778C190.195 162.274 188.581 159.316 187.662 156.115C187.647 156.058 187.647 155.999 187.662 155.942L192.595 126.132C192.713 125.652 192.872 125.183 193.072 124.731C193.823 122.792 195.397 118.732 196.31 110.318C196.315 110.257 196.334 110.197 196.363 110.143C196.393 110.088 196.434 110.041 196.483 110.003C196.529 109.965 196.582 109.936 196.64 109.918C196.697 109.901 196.758 109.895 196.818 109.902C209.292 111.252 220.467 103.071 220.579 102.99C220.631 102.949 220.692 102.921 220.757 102.907C220.822 102.893 220.89 102.893 220.954 102.909C221.021 102.925 221.083 102.955 221.138 102.997C221.192 103.039 221.237 103.092 221.269 103.152C221.269 103.233 224.842 110.257 226.445 112.571C227.808 114.359 228.937 116.313 229.805 118.387C231.226 122.092 230.576 126.507 230.059 129.989C229.476 134.387 228.491 138.722 227.115 142.94C226.805 144.01 226.279 145.004 225.568 145.861C224.857 146.719 223.978 147.421 222.984 147.924C220.797 148.836 218.36 148.958 216.092 148.269L214.062 165.027C213.217 167.594 211.394 169.724 208.987 170.954C207.873 171.467 206.662 171.734 205.435 171.736ZM188.576 155.993C189.475 159.036 191.033 161.844 193.137 164.219C195.242 166.594 197.843 168.477 200.756 169.736C203.801 171.015 206.48 171.147 208.693 170.122C210.82 168.994 212.444 167.106 213.24 164.834L215.27 147.579C215.279 147.508 215.304 147.441 215.343 147.381C215.381 147.321 215.433 147.271 215.494 147.234C215.555 147.203 215.623 147.187 215.691 147.187C215.76 147.187 215.828 147.203 215.889 147.234C215.889 147.234 219.554 148.563 222.619 147.092C223.499 146.641 224.278 146.014 224.905 145.249C225.532 144.484 225.994 143.598 226.263 142.646C227.607 138.492 228.571 134.225 229.145 129.897C229.673 126.304 230.272 122.234 228.942 118.732C228.094 116.738 227.003 114.856 225.694 113.13C223.872 110.198 222.198 107.176 220.68 104.076C218.467 105.578 208.399 111.912 197.183 110.897C196.269 119.108 194.686 123.138 193.915 125.107C193.74 125.501 193.598 125.908 193.488 126.325C193.468 126.396 188.88 154.156 188.576 155.993Z" fill="#484646"/>
<path d="M214.54 156.145C214.54 156.145 207.435 155.577 203.547 150.34C199.66 145.102 200.878 140.464 200.878 140.464C200.878 140.464 207.831 146.554 215.697 147.66L214.54 156.145Z" fill="#484646"/>
<path d="M214.539 156.592C214.235 156.592 207.231 155.942 203.222 150.603C199.213 145.265 200.42 140.535 200.471 140.342C200.491 140.268 200.53 140.201 200.583 140.146C200.636 140.091 200.703 140.05 200.776 140.027C200.849 140.007 200.926 140.004 201 140.02C201.074 140.036 201.144 140.07 201.202 140.118C201.263 140.179 208.155 146.087 215.798 147.223C215.914 147.243 216.017 147.307 216.087 147.402C216.157 147.496 216.188 147.614 216.173 147.731L215.016 156.216C214.999 156.328 214.94 156.428 214.851 156.498C214.763 156.567 214.651 156.601 214.539 156.592ZM201.192 141.296C200.947 144.457 201.916 147.593 203.902 150.065C207.13 154.359 212.611 155.425 214.153 155.648L215.168 148.035C208.723 146.929 203.029 142.757 201.192 141.296Z" fill="#484646"/>
<path d="M215.95 117.088C215.95 117.088 220.477 126.091 218.995 127.37C217.513 128.649 213.92 127.238 213.92 127.238" fill="white"/>
<path d="M217.118 128.365C215.953 128.318 214.804 128.078 213.718 127.654C213.62 127.601 213.545 127.513 213.507 127.408C213.47 127.304 213.472 127.189 213.513 127.085C213.554 126.982 213.632 126.897 213.731 126.846C213.83 126.796 213.945 126.784 214.053 126.812C214.976 127.177 217.625 127.939 218.681 127.035C219.422 126.406 217.666 121.483 215.555 117.291C215.501 117.185 215.492 117.061 215.529 116.948C215.566 116.835 215.646 116.741 215.753 116.687C215.859 116.633 215.982 116.624 216.096 116.661C216.209 116.698 216.303 116.779 216.357 116.885C217.453 119.078 220.914 126.315 219.27 127.715C218.653 128.181 217.89 128.411 217.118 128.365Z" fill="#484646"/>
<path d="M225.171 122.094C225.256 121.1 224.894 120.258 224.364 120.212C223.833 120.167 223.334 120.937 223.25 121.931C223.165 122.925 223.527 123.768 224.057 123.813C224.588 123.858 225.087 123.089 225.171 122.094Z" fill="#484646"/>
<path d="M209.648 118.784C209.732 117.79 209.371 116.948 208.84 116.902C208.31 116.857 207.811 117.627 207.726 118.621C207.642 119.615 208.003 120.458 208.534 120.503C209.065 120.548 209.563 119.779 209.648 118.784Z" fill="#484646"/>
<path d="M199.923 118.063C199.142 114.875 195.417 113.272 192.402 113.495C191.415 113.527 190.459 113.854 189.658 114.432C188.857 115.011 188.247 115.816 187.906 116.743C187.51 117.897 187.345 119.118 187.419 120.336C187.487 122.573 187.955 124.78 188.799 126.852C189.162 127.917 189.791 128.871 190.626 129.623C191.171 130.055 191.834 130.309 192.528 130.35C193.221 130.392 193.911 130.22 194.503 129.857" fill="white"/>
<path d="M192.635 130.841C191.795 130.843 190.981 130.552 190.331 130.019C189.436 129.213 188.759 128.193 188.362 127.055C187.498 124.92 187.02 122.649 186.951 120.346C186.874 119.069 187.05 117.789 187.469 116.581C187.84 115.568 188.505 114.689 189.378 114.056C190.251 113.423 191.293 113.065 192.371 113.028C195.65 112.795 199.537 114.571 200.37 117.951C200.397 118.069 200.378 118.194 200.315 118.298C200.253 118.402 200.152 118.478 200.035 118.509C199.915 118.54 199.788 118.522 199.681 118.459C199.575 118.396 199.497 118.294 199.466 118.174C198.756 115.261 195.315 113.749 192.442 113.952C191.535 113.973 190.654 114.266 189.914 114.793C189.174 115.319 188.609 116.055 188.291 116.905C187.922 118.006 187.77 119.168 187.844 120.326C187.902 122.518 188.356 124.681 189.184 126.71C189.528 127.699 190.11 128.588 190.879 129.299C191.36 129.658 191.937 129.867 192.537 129.899C193.136 129.932 193.732 129.786 194.249 129.481C194.302 129.453 194.361 129.436 194.421 129.43C194.481 129.424 194.541 129.431 194.599 129.449C194.656 129.467 194.71 129.496 194.756 129.534C194.802 129.573 194.84 129.621 194.868 129.674C194.926 129.783 194.938 129.911 194.902 130.029C194.865 130.146 194.784 130.245 194.675 130.303C194.046 130.638 193.348 130.823 192.635 130.841Z" fill="#484646"/>
<path d="M218.742 131.136L210.622 129.359C210.622 129.359 208.277 142.077 211.931 142.889C215.585 143.701 218.447 134.901 218.742 131.136Z" fill="white"/>
<path d="M212.408 143.397C212.216 143.399 212.025 143.375 211.84 143.326C207.871 142.453 209.881 130.628 210.124 129.278C210.149 129.159 210.218 129.054 210.317 128.984C210.403 128.914 210.511 128.878 210.622 128.882L218.742 130.659C218.848 130.678 218.944 130.737 219.009 130.824C219.075 130.91 219.106 131.018 219.097 131.126C218.894 134.039 217.067 140.555 214.215 142.666C213.706 143.097 213.073 143.353 212.408 143.397ZM210.926 129.897C210.124 134.678 209.749 141.945 212.032 142.453C212.333 142.509 212.643 142.496 212.939 142.415C213.234 142.334 213.507 142.187 213.738 141.986C216.032 140.281 217.889 134.719 218.234 131.491L210.926 129.897Z" fill="#484646"/>
<path d="M208.145 231.986C208.078 231.985 208.011 231.97 207.95 231.942C207.889 231.914 207.834 231.874 207.79 231.824C207.705 231.735 207.657 231.617 207.657 231.494C207.657 231.371 207.705 231.253 207.79 231.164C207.932 231.052 221.33 219.238 222.822 186.169C222.824 186.108 222.839 186.048 222.865 185.993C222.891 185.938 222.928 185.889 222.973 185.848C223.019 185.807 223.072 185.776 223.13 185.756C223.187 185.737 223.248 185.728 223.309 185.733C223.431 185.738 223.546 185.791 223.63 185.88C223.713 185.969 223.758 186.087 223.756 186.21C222.243 219.705 208.531 231.753 208.389 231.885C208.319 231.941 208.234 231.976 208.145 231.986Z" fill="#484646"/>
<path d="M161.282 265.369C161.2 265.37 161.119 265.348 161.048 265.308C160.977 265.267 160.918 265.208 160.876 265.137C160.835 265.066 160.814 264.985 160.813 264.903C160.813 264.821 160.835 264.74 160.876 264.669C165.149 257.138 176.517 234.158 176.629 233.925C176.69 233.825 176.786 233.751 176.899 233.719C177.011 233.687 177.132 233.698 177.236 233.75C177.341 233.802 177.422 233.892 177.464 234.002C177.506 234.111 177.505 234.232 177.461 234.341C177.349 234.574 165.971 257.574 161.678 265.136C161.637 265.205 161.579 265.263 161.51 265.304C161.441 265.344 161.362 265.367 161.282 265.369Z" fill="#484646"/>
<path d="M147.9 275.971L143.755 213.238L63.6734 218.529L67.8181 281.262L147.9 275.971Z" fill="white"/>
<path d="M67.8212 281.792C67.689 281.792 67.5618 281.742 67.4655 281.651C67.3693 281.561 67.3113 281.437 67.3035 281.305L63.1522 218.568C63.1483 218.5 63.158 218.431 63.1806 218.367C63.2033 218.302 63.2384 218.243 63.2841 218.192C63.3753 218.089 63.5022 218.024 63.6394 218.01L143.723 212.721C143.793 212.717 143.863 212.726 143.929 212.749C143.995 212.771 144.056 212.807 144.109 212.853C144.211 212.944 144.273 213.072 144.281 213.209L148.432 275.946C148.441 276.084 148.394 276.22 148.303 276.325C148.212 276.429 148.084 276.494 147.945 276.504L67.8618 281.792H67.8212ZM64.2382 219.025L68.2982 280.716L147.336 275.489L143.276 213.797L64.2382 219.025Z" fill="#484646"/>
<path d="M146.619 229.086L148.654 259.885L146.72 260.013C144.888 260.134 143.083 259.522 141.702 258.312C140.321 257.102 139.477 255.394 139.356 253.562L138.234 236.577C138.113 234.745 138.724 232.94 139.934 231.559C141.144 230.178 142.853 229.335 144.685 229.214L146.619 229.086Z" fill="white"/>
<path d="M146.26 260.558C144.373 260.555 142.557 259.835 141.18 258.545C139.803 257.254 138.967 255.489 138.841 253.606L137.714 236.615C137.586 234.644 138.245 232.704 139.547 231.219C140.849 229.735 142.687 228.828 144.657 228.698L146.585 228.576C146.654 228.568 146.725 228.575 146.791 228.596C146.857 228.617 146.919 228.651 146.971 228.698C147.074 228.792 147.136 228.923 147.143 229.063L149.173 259.858C149.179 259.996 149.132 260.131 149.041 260.234C148.951 260.338 148.824 260.403 148.686 260.416L146.748 260.538L146.26 260.558ZM139.886 253.535C140.001 255.225 140.781 256.802 142.056 257.918C143.33 259.035 144.996 259.601 146.687 259.493L148.098 259.401L146.139 229.652L144.728 229.743C143.033 229.855 141.453 230.635 140.334 231.913C139.214 233.19 138.648 234.859 138.76 236.554L139.886 253.535Z" fill="#484646"/>
<path d="M107.811 231.788L107.36 224.952L80.2065 226.746L80.6582 233.582L107.811 231.788Z" fill="white"/>
<path d="M80.7013 234.097C80.5789 234.097 80.4605 234.054 80.3663 233.976C80.2665 233.887 80.2047 233.763 80.1938 233.63L79.6863 226.789C79.6807 226.722 79.6888 226.654 79.7099 226.59C79.731 226.525 79.7648 226.466 79.8093 226.415C79.8537 226.364 79.9079 226.322 79.9688 226.292C80.0296 226.262 80.0957 226.245 80.1633 226.241L107.304 224.455C107.371 224.447 107.438 224.453 107.501 224.474C107.564 224.495 107.622 224.53 107.67 224.577C107.723 224.618 107.765 224.67 107.795 224.73C107.825 224.789 107.841 224.855 107.842 224.922L108.299 231.763C108.305 231.83 108.297 231.897 108.275 231.961C108.254 232.025 108.22 232.084 108.176 232.134C108.131 232.184 108.077 232.225 108.016 232.253C107.955 232.282 107.889 232.298 107.822 232.301L80.7013 234.097ZM80.7926 227.226L81.1783 233.052L107.315 231.326L106.929 225.5L80.7926 227.226Z" fill="#D1D1D1"/>
<path d="M117.555 243.651L117.103 236.815L81.0278 239.198L81.4795 246.035L117.555 243.651Z" fill="white"/>
<path d="M81.4831 246.551C81.3634 246.553 81.2474 246.51 81.1583 246.43C81.1055 246.389 81.0627 246.336 81.0328 246.277C81.003 246.217 80.9869 246.151 80.9857 246.084L80.529 239.243C80.5235 239.176 80.5315 239.108 80.5526 239.044C80.5737 238.979 80.6075 238.92 80.652 238.869C80.6964 238.818 80.7507 238.776 80.8115 238.746C80.8723 238.716 80.9384 238.699 81.006 238.695L117.079 236.31C117.146 236.306 117.213 236.315 117.276 236.337C117.339 236.359 117.397 236.393 117.447 236.437C117.497 236.481 117.538 236.535 117.567 236.595C117.596 236.655 117.613 236.72 117.617 236.787L118.074 243.628C118.079 243.694 118.072 243.761 118.051 243.823C118.03 243.886 117.996 243.944 117.952 243.994C117.861 244.096 117.733 244.158 117.597 244.166L81.5237 246.551H81.4831ZM81.5744 239.68L81.9601 245.506L117.028 243.192L116.643 237.366L81.5744 239.68Z" fill="#D1D1D1"/>
<path d="M109.12 256.712L108.668 249.876L81.8596 251.647L82.3113 258.484L109.12 256.712Z" fill="white"/>
<path d="M82.3154 259.005C82.1923 259.009 82.0727 258.965 81.9804 258.884C81.8782 258.793 81.8162 258.665 81.8079 258.528L81.3511 251.697C81.3456 251.63 81.3536 251.562 81.3748 251.498C81.3959 251.433 81.4297 251.374 81.4741 251.323C81.5186 251.272 81.5728 251.23 81.6336 251.2C81.6944 251.17 81.7606 251.153 81.8282 251.149L108.634 249.383C108.7 249.377 108.767 249.385 108.83 249.406C108.893 249.427 108.951 249.46 109 249.505C109.052 249.546 109.095 249.598 109.125 249.658C109.155 249.718 109.171 249.783 109.172 249.85L109.629 256.691C109.635 256.758 109.626 256.826 109.605 256.889C109.584 256.953 109.55 257.012 109.505 257.062C109.461 257.112 109.407 257.153 109.346 257.182C109.285 257.211 109.219 257.227 109.152 257.229L82.3458 259.005H82.3154ZM82.3966 252.134L82.7823 257.96L108.584 256.255L108.198 250.429L82.3966 252.134Z" fill="#D1D1D1"/>
<path d="M128.13 267.965L127.679 261.129L82.6804 264.102L83.132 270.938L128.13 267.965Z" fill="white"/>
<path d="M83.1371 271.46C83.0144 271.461 82.8954 271.417 82.8021 271.338C82.6999 271.247 82.6379 271.119 82.6296 270.982L82.1728 264.141C82.1687 264.075 82.1778 264.008 82.1996 263.945C82.2213 263.882 82.2553 263.823 82.2997 263.773C82.344 263.723 82.3977 263.683 82.4578 263.653C82.5179 263.624 82.5832 263.607 82.6499 263.603L127.645 260.629C127.778 260.622 127.909 260.665 128.01 260.751C128.111 260.844 128.172 260.97 128.183 261.107L128.629 267.948C128.638 268.081 128.594 268.212 128.506 268.312C128.419 268.413 128.295 268.475 128.162 268.486L83.1675 271.46H83.1371ZM83.2183 264.588L83.604 270.414L127.584 267.501L127.198 261.675L83.2183 264.588Z" fill="#D1D1D1"/>
<path d="M126.742 234.564C130.212 234.564 133.025 231.751 133.025 228.281C133.025 224.811 130.212 221.999 126.742 221.999C123.272 221.999 120.459 224.811 120.459 228.281C120.459 231.751 123.272 234.564 126.742 234.564Z" fill="white"/>
<path d="M126.732 235.082C125.411 235.081 124.119 234.696 123.014 233.973C121.909 233.251 121.038 232.222 120.507 231.012C119.977 229.803 119.81 228.465 120.027 227.162C120.245 225.86 120.837 224.649 121.731 223.677C122.625 222.705 123.783 222.014 125.063 221.69C126.343 221.365 127.69 221.42 128.939 221.848C130.189 222.276 131.286 223.059 132.098 224.1C132.91 225.142 133.402 226.397 133.512 227.713C133.661 229.508 133.092 231.289 131.929 232.665C130.766 234.041 129.105 234.899 127.31 235.051C127.118 235.072 126.925 235.082 126.732 235.082ZM126.732 222.506C126.566 222.496 126.4 222.496 126.234 222.506C125.094 222.6 124.006 223.031 123.111 223.744C122.215 224.456 121.55 225.419 121.201 226.509C120.853 227.599 120.835 228.768 121.151 229.869C121.467 230.969 122.102 231.951 122.976 232.69C123.85 233.429 124.924 233.892 126.062 234.021C127.199 234.149 128.349 233.938 129.366 233.412C130.383 232.887 131.222 232.072 131.775 231.07C132.329 230.068 132.573 228.925 132.477 227.784C132.357 226.342 131.7 224.997 130.637 224.016C129.573 223.034 128.179 222.488 126.732 222.486V222.506Z" fill="#D1D1D1"/>
<path d="M121.647 231.976L126.742 228.281L127.848 222.1" fill="white"/>
<path d="M121.647 232.483C121.567 232.483 121.488 232.464 121.418 232.426C121.347 232.389 121.286 232.336 121.241 232.27C121.164 232.161 121.132 232.025 121.153 231.893C121.174 231.76 121.245 231.641 121.352 231.56L126.275 227.997L127.351 222.009C127.362 221.943 127.386 221.88 127.422 221.824C127.458 221.767 127.504 221.719 127.559 221.681C127.614 221.643 127.676 221.617 127.741 221.603C127.807 221.59 127.874 221.59 127.94 221.603C128.071 221.627 128.188 221.703 128.264 221.813C128.34 221.924 128.369 222.06 128.346 222.191L127.239 228.352C127.229 228.417 127.206 228.48 127.171 228.536C127.136 228.591 127.09 228.64 127.036 228.677L121.961 232.362C121.875 232.439 121.763 232.483 121.647 232.483Z" fill="#D1D1D1"/>
<path d="M132.365 231.58C132.287 231.583 132.21 231.565 132.142 231.529L126.519 228.738C126.459 228.709 126.405 228.668 126.361 228.618C126.317 228.568 126.283 228.51 126.261 228.446C126.239 228.383 126.23 228.317 126.234 228.25C126.239 228.183 126.256 228.118 126.285 228.058C126.315 227.998 126.355 227.944 126.405 227.9C126.455 227.856 126.514 227.822 126.577 227.801C126.64 227.779 126.707 227.77 126.773 227.774C126.84 227.778 126.905 227.795 126.965 227.825L132.588 230.616C132.723 230.645 132.84 230.727 132.914 230.843C132.989 230.96 133.014 231.1 132.984 231.235C132.955 231.37 132.873 231.487 132.757 231.561C132.64 231.635 132.5 231.66 132.365 231.631V231.58Z" fill="#D1D1D1"/>
<path d="M83.371 275.042C83.2431 275.043 83.1198 274.995 83.0258 274.908C82.9317 274.822 82.8737 274.703 82.8635 274.576L79.4734 223.237C79.4653 223.102 79.511 222.97 79.6005 222.869C79.69 222.768 79.8158 222.707 79.9504 222.699C80.085 222.691 80.2173 222.737 80.3182 222.826C80.4191 222.915 80.4803 223.041 80.4884 223.176L83.8785 274.504C83.8826 274.571 83.8735 274.638 83.8518 274.701C83.83 274.764 83.796 274.823 83.7517 274.873C83.7073 274.922 83.6536 274.963 83.5935 274.992C83.5334 275.022 83.4681 275.039 83.4014 275.042H83.371Z" fill="#D1D1D1"/>
<path d="M76.4991 275.124C76.3696 275.124 76.2449 275.075 76.1506 274.986C76.0562 274.897 75.9993 274.776 75.9916 274.647L74.9766 258.772L75.9916 258.711L77.0066 274.586C77.015 274.719 76.9707 274.85 76.8833 274.95C76.796 275.051 76.6725 275.113 76.5397 275.124H76.4991Z" fill="#D1D1D1"/>
<path d="M95.6022 239.304C95.6022 239.304 96.4446 254.387 97.3987 255.544C98.3528 256.701 110.837 267.156 108.929 269.572C107.021 271.987 101.631 266.527 101.631 266.527C101.631 266.527 107.468 280.28 104.402 281.396C101.337 282.513 91.867 283.741 89.0351 281.132C86.2033 278.524 76.307 252.712 75.627 242.654" fill="white"/>
<path d="M95.5911 283.223C92.7694 283.223 90.0695 282.787 88.679 281.478C85.634 278.656 75.7986 252.601 75.1592 242.684C75.155 242.618 75.1641 242.551 75.1859 242.488C75.2077 242.424 75.2417 242.366 75.286 242.316C75.3303 242.266 75.3841 242.226 75.4442 242.196C75.5043 242.167 75.5695 242.15 75.6362 242.146C75.7702 242.141 75.9012 242.187 76.0015 242.276C76.1019 242.365 76.1638 242.49 76.1742 242.623C76.8238 252.865 86.9433 278.453 89.3692 280.737C91.795 283.02 101.082 282.117 104.219 280.98C104.305 280.943 104.382 280.887 104.445 280.817C104.508 280.747 104.556 280.664 104.584 280.574C105.599 278.27 102.442 269.825 101.153 266.77C101.098 266.662 101.084 266.536 101.115 266.418C101.146 266.3 101.219 266.198 101.32 266.13C101.422 266.062 101.545 266.034 101.665 266.051C101.786 266.068 101.897 266.129 101.975 266.222C102.99 267.237 105.873 269.785 107.649 269.704C107.819 269.705 107.986 269.666 108.138 269.59C108.29 269.514 108.421 269.404 108.522 269.267C109.334 268.252 106.086 264.334 98.8594 257.656C97.7734 256.641 97.205 256.123 96.9918 255.879C95.9768 254.682 95.2866 242.918 95.0836 239.335C95.0836 239.2 95.1371 239.071 95.2323 238.976C95.3274 238.881 95.4565 238.827 95.5911 238.827C95.7257 238.827 95.8548 238.881 95.95 238.976C96.0451 239.071 96.0986 239.2 96.0986 239.335C96.5046 246.572 97.2354 254.56 97.7835 255.28C97.9561 255.494 98.6869 256.174 99.5496 256.965C106.655 263.563 110.826 268.039 109.314 269.947C109.127 270.2 108.884 270.406 108.604 270.548C108.324 270.691 108.014 270.767 107.7 270.769C106.147 270.861 104.259 269.582 102.909 268.486C104.259 271.957 106.563 278.636 105.518 281.031C105.436 281.248 105.308 281.444 105.144 281.607C104.979 281.77 104.781 281.895 104.564 281.975C101.65 282.828 98.627 283.249 95.5911 283.223Z" fill="#484646"/>
<path d="M151.082 142.889C114.46 152.593 68.349 169.371 63.0608 175.055C54.6566 184.119 74.6724 249.444 74.6724 249.444L98.9411 243.151L93.4093 197.273L137.694 184.281" fill="#FF931E"/>
<path d="M109.274 193.081C109.163 193.08 109.055 193.039 108.971 192.966C108.887 192.893 108.832 192.792 108.816 192.681C108.8 192.571 108.824 192.458 108.884 192.364C108.944 192.27 109.036 192.2 109.142 192.168L159.121 176.76C159.18 176.742 159.241 176.736 159.302 176.742C159.363 176.747 159.423 176.765 159.477 176.794C159.531 176.823 159.579 176.862 159.618 176.909C159.657 176.956 159.687 177.011 159.705 177.07C159.723 177.128 159.729 177.19 159.723 177.251C159.717 177.312 159.699 177.371 159.671 177.426C159.642 177.48 159.603 177.528 159.555 177.567C159.508 177.606 159.454 177.635 159.395 177.653L109.416 193.061L109.274 193.081Z" fill="#484646"/>
</svg>
