<svg width="400" height="400" viewBox="0 0 400 400" fill="none" xmlns="http://www.w3.org/2000/svg">
<path d="M147.066 255.512L134.399 275.812L163.032 295.575L192.954 267.53C192.954 267.53 177.14 226.372 172.654 223.408C168.168 220.444 147.066 255.512 147.066 255.512Z" fill="white"/>
<path d="M163.032 296.123C162.93 296.123 162.83 296.091 162.748 296.031L134.115 276.269C134.006 276.195 133.931 276.082 133.904 275.953C133.878 275.824 133.902 275.69 133.972 275.579L146.63 255.279C147.421 253.98 165.468 224.22 171.578 222.86C171.811 222.796 172.055 222.78 172.295 222.815C172.534 222.85 172.764 222.935 172.969 223.063C177.506 226.108 192.782 265.744 193.431 267.429C193.466 267.523 193.472 267.625 193.448 267.723C193.425 267.82 193.373 267.909 193.299 267.977L163.377 295.991C163.331 296.034 163.277 296.069 163.218 296.091C163.159 296.114 163.095 296.125 163.032 296.123ZM135.089 275.711L162.981 294.996L192.365 267.429C187.889 255.797 175.933 226.209 172.421 223.865C172.329 223.812 172.228 223.78 172.123 223.769C172.018 223.759 171.912 223.771 171.812 223.804C167.082 224.819 152.669 247.24 147.452 255.766L135.089 275.711Z" fill="#484646"/>
<path d="M131.932 198.845C131.932 198.845 130.217 212.284 135.931 218.282C141.646 224.281 161.083 225.996 162.23 227.996C163.377 229.995 184.56 283.435 187.656 286.582C190.752 289.728 203.662 284.866 213.376 275.721C213.376 275.721 191.229 226.28 190.447 221.997C189.666 217.714 196.801 199.424 196.801 191.131L131.932 198.845Z" fill="white"/>
<path d="M190.751 288.074C189.498 288.174 188.257 287.772 187.3 286.957C185.189 284.846 176.135 262.973 167 240.754C164.27 234.086 162.118 228.828 161.793 228.27C161.469 227.712 157.865 226.859 154.688 226.108C148.162 224.585 139.23 222.484 135.576 218.648C129.76 212.558 131.364 199.363 131.435 198.804C131.448 198.692 131.5 198.587 131.581 198.507C131.662 198.428 131.768 198.379 131.881 198.368L196.74 190.634C196.813 190.624 196.887 190.631 196.958 190.654C197.028 190.677 197.092 190.715 197.146 190.766C197.197 190.814 197.238 190.872 197.266 190.937C197.294 191.001 197.308 191.071 197.308 191.141C197.308 195.506 195.359 202.611 193.634 208.883C192.071 214.588 190.589 219.967 190.944 221.916C191.716 226.088 213.619 275.031 213.843 275.528C213.885 275.625 213.897 275.732 213.877 275.835C213.857 275.938 213.806 276.033 213.731 276.107C206.23 283.151 196.344 288.074 190.751 288.074ZM132.389 199.322C132.176 201.555 131.374 212.761 136.297 217.947C139.748 221.571 148.477 223.621 154.912 225.123C159.784 226.27 162.149 226.859 162.666 227.762C163.001 228.351 164.696 232.492 167.934 240.369C174.207 255.644 185.869 284.095 188.021 286.247C190.843 289.068 203.246 284.42 212.767 275.62C210.676 270.93 190.711 226.27 189.949 222.109C189.543 219.927 190.964 214.689 192.66 208.63C194.355 202.57 196.131 195.993 196.283 191.72L132.389 199.322Z" fill="#484646"/>
<path d="M205.713 279.659C205.61 279.659 205.51 279.627 205.425 279.57C205.34 279.512 205.274 279.43 205.236 279.335L181.891 220.282C181.866 220.22 181.854 220.154 181.855 220.087C181.855 220.02 181.87 219.954 181.896 219.893C181.922 219.832 181.961 219.776 182.008 219.73C182.056 219.683 182.113 219.647 182.175 219.622C182.237 219.596 182.303 219.583 182.37 219.583C182.437 219.583 182.504 219.597 182.565 219.623C182.627 219.65 182.683 219.689 182.729 219.737C182.775 219.786 182.811 219.843 182.835 219.906L206.18 278.969C206.206 279.03 206.219 279.096 206.219 279.162C206.218 279.229 206.204 279.294 206.178 279.355C206.151 279.416 206.112 279.471 206.064 279.516C206.015 279.561 205.958 279.596 205.895 279.619C205.839 279.647 205.776 279.661 205.713 279.659Z" fill="#D1D1D1"/>
<path d="M188.772 199.769C186.719 202.396 185.496 205.577 185.26 208.904C185.047 214.04 191.401 225.022 191.401 225.022L206.2 215.755L198.993 198.419L188.772 199.769Z" fill="#484646"/>
<path d="M191.442 225.479H191.35C191.218 225.441 191.106 225.353 191.036 225.235C190.772 224.788 184.611 214.07 184.824 208.843C185.058 205.434 186.309 202.174 188.417 199.485C188.499 199.393 188.61 199.332 188.732 199.312L198.993 197.881C199.104 197.865 199.217 197.887 199.314 197.942C199.411 197.997 199.488 198.082 199.531 198.185L206.738 215.522C206.783 215.634 206.787 215.758 206.75 215.873C206.713 215.988 206.637 216.086 206.535 216.151L191.746 225.418C191.653 225.468 191.547 225.489 191.442 225.479ZM189.046 200.276C187.166 202.772 186.042 205.757 185.809 208.873C185.626 213.228 190.437 222.139 191.624 224.261L205.56 215.501L198.679 198.926L189.046 200.276Z" fill="#484646"/>
<path d="M207.469 262.435C207.469 262.435 217.669 253.625 211.955 249.047C211.955 249.047 215.629 240.592 206.24 239.333C206.24 239.333 209.285 229.995 201.856 227.712C194.426 225.428 179.942 237.618 178.419 242.003C176.897 246.388 183.362 247.078 188.102 245.048C188.102 245.048 181.14 249.108 182.337 252.011C184.083 256.304 189.95 254.203 194.517 252.874C194.517 252.874 186.174 257.461 191.665 261.734C195.877 265.013 205.713 258.456 205.713 258.456L207.469 262.435Z" fill="white"/>
<path d="M194.751 263.145C193.536 263.197 192.338 262.84 191.35 262.13C190.71 261.717 190.187 261.147 189.831 260.473C189.476 259.799 189.3 259.045 189.32 258.283C189.622 256.668 190.512 255.222 191.817 254.223C187.757 255.34 183.444 256.04 181.88 252.193C181.079 250.234 183.19 248.012 185.128 246.469C182.469 246.936 179.932 246.57 178.653 245.383C178.173 244.942 177.847 244.36 177.723 243.72C177.598 243.081 177.682 242.418 177.963 241.83C179.556 237.242 194.395 224.88 202.028 227.224C202.962 227.481 203.834 227.926 204.59 228.531C205.345 229.137 205.969 229.891 206.423 230.746C207.986 233.791 207.266 237.506 206.9 238.866C209.57 239.333 211.417 240.45 212.402 242.196C213.833 244.743 212.95 247.809 212.574 248.844C213.082 249.283 213.492 249.825 213.775 250.434C214.058 251.043 214.21 251.705 214.218 252.376C214.31 257.106 208.128 262.526 207.824 262.76C207.763 262.812 207.692 262.85 207.614 262.869C207.536 262.888 207.455 262.889 207.377 262.871C207.301 262.853 207.229 262.819 207.167 262.769C207.106 262.72 207.056 262.658 207.022 262.587L205.51 259.146C203.875 260.202 198.811 263.145 194.751 263.145ZM194.517 252.356C194.618 252.354 194.717 252.383 194.801 252.439C194.884 252.495 194.948 252.576 194.984 252.67C195.032 252.786 195.036 252.915 194.995 253.033C194.954 253.151 194.87 253.25 194.761 253.31C194.761 253.31 190.518 255.675 190.305 258.385C190.306 258.98 190.46 259.565 190.751 260.084C191.042 260.603 191.462 261.038 191.97 261.349C195.857 264.394 205.337 258.121 205.428 258.06C205.489 258.016 205.559 257.987 205.633 257.975C205.707 257.962 205.783 257.967 205.855 257.989C205.926 258.011 205.992 258.047 206.048 258.096C206.104 258.145 206.148 258.206 206.18 258.273L207.651 261.613C209.123 260.222 213.254 255.99 213.183 252.478C213.176 251.892 213.031 251.316 212.762 250.796C212.492 250.276 212.104 249.827 211.63 249.483C211.545 249.412 211.486 249.315 211.46 249.207C211.435 249.1 211.444 248.986 211.488 248.885C211.488 248.885 212.97 245.383 211.488 242.795C210.605 241.231 208.808 240.257 206.169 239.902C206.095 239.891 206.025 239.865 205.962 239.824C205.899 239.784 205.845 239.731 205.804 239.668C205.764 239.606 205.738 239.535 205.729 239.461C205.72 239.387 205.729 239.312 205.753 239.242C205.753 239.191 207.225 234.593 205.5 231.274C205.113 230.531 204.576 229.876 203.922 229.352C203.269 228.827 202.513 228.445 201.703 228.229C194.69 226.077 180.388 237.933 178.896 242.196C178.699 242.6 178.633 243.057 178.708 243.501C178.783 243.945 178.994 244.354 179.312 244.672C180.794 246.032 184.722 246.002 187.899 244.601C188.018 244.552 188.15 244.549 188.27 244.594C188.391 244.638 188.49 244.726 188.547 244.841C188.605 244.955 188.618 245.087 188.582 245.21C188.547 245.333 188.466 245.439 188.356 245.505C186.651 246.52 181.962 249.798 182.804 251.838C184.266 255.411 189.128 253.96 193.421 252.691L194.375 252.407C194.418 252.38 194.467 252.363 194.517 252.356Z" fill="#484646"/>
<path d="M199.328 212.223C199.328 212.223 199.582 203.707 192.365 206.884C185.149 210.061 174.187 217.643 179.881 222.637C185.575 227.63 197.613 218.719 199.328 212.223Z" fill="white"/>
<path d="M184.012 224.606C182.378 224.654 180.785 224.089 179.546 223.022C178.912 222.532 178.42 221.881 178.122 221.137C177.824 220.393 177.731 219.582 177.851 218.79C178.643 213.644 187.554 208.447 192.162 206.427C194.365 205.412 196.162 205.412 197.501 206.326C199.937 207.96 199.836 212.07 199.836 212.243C199.841 212.28 199.841 212.318 199.836 212.355C198.638 216.922 192.731 222.403 187.25 224.088C186.202 224.418 185.111 224.593 184.012 224.606ZM195.248 206.691C194.319 206.725 193.407 206.949 192.568 207.351C187.422 209.614 179.526 214.578 178.846 218.942C178.753 219.567 178.832 220.206 179.073 220.791C179.314 221.375 179.709 221.883 180.216 222.261C182.246 224.037 184.986 223.702 186.925 223.114C192 221.551 197.674 216.344 198.821 212.152C198.821 211.685 198.77 208.396 196.933 207.168C196.434 206.839 195.845 206.673 195.248 206.691Z" fill="#484646"/>
<path d="M144.914 258.963C144.914 258.963 153.034 236.39 154.831 232.573C157.876 226.118 165.133 217.511 171.355 219.307C177.577 221.104 190.64 227.163 185.352 231.274C180.531 235.04 169.294 229.396 169.294 229.396C169.294 229.396 172.096 241.333 166.432 248.022" fill="white"/>
<path d="M144.914 259.471C144.857 259.481 144.799 259.481 144.742 259.471C144.678 259.449 144.62 259.415 144.57 259.371C144.52 259.326 144.479 259.272 144.451 259.211C144.423 259.15 144.407 259.085 144.404 259.018C144.402 258.951 144.413 258.884 144.437 258.821C144.762 257.898 152.557 236.187 154.374 232.381C157.571 225.631 164.991 216.953 171.497 218.83C176.024 220.14 186.225 224.423 187.037 228.625C187.13 229.211 187.05 229.811 186.806 230.352C186.563 230.893 186.167 231.351 185.666 231.67C181.424 234.969 172.837 231.558 169.985 230.269C170.533 233.314 171.68 242.602 166.818 248.336C166.778 248.396 166.727 248.446 166.666 248.485C166.606 248.523 166.538 248.548 166.467 248.558C166.396 248.568 166.324 248.563 166.256 248.543C166.187 248.524 166.123 248.49 166.068 248.444C166.014 248.398 165.969 248.341 165.938 248.276C165.907 248.212 165.89 248.142 165.888 248.07C165.886 247.999 165.899 247.928 165.926 247.862C165.954 247.796 165.995 247.736 166.046 247.687C171.477 241.262 168.828 229.62 168.797 229.498C168.777 229.403 168.784 229.305 168.816 229.214C168.848 229.122 168.905 229.042 168.98 228.98C169.055 228.921 169.146 228.885 169.241 228.876C169.337 228.867 169.433 228.885 169.518 228.93C169.629 228.98 180.52 234.39 185.037 230.868C185.389 230.669 185.674 230.37 185.855 230.008C186.036 229.647 186.104 229.239 186.052 228.838C185.433 225.611 176.917 221.469 171.233 219.835C165.366 218.13 158.261 226.585 155.308 232.837C153.532 236.593 145.493 258.963 145.412 259.227C145.36 259.311 145.286 259.378 145.198 259.421C145.11 259.464 145.012 259.482 144.914 259.471Z" fill="#484646"/>
<path d="M269.678 231.234C269.678 231.234 228.246 199.769 203.804 199.18C197.621 199.094 191.438 199.433 185.301 200.195C170.837 201.839 156.302 204.864 146.224 205.27C126.218 206.031 111.247 199.616 111.216 178.738C111.216 160.874 119.641 157.595 137.454 152.683C146.264 150.257 163.245 147.76 179.323 143.294C189.128 140.564 198.608 137.113 205.662 132.494C224.338 120.314 238.274 92.5035 238.274 92.5035L269.678 231.234Z" fill="white"/>
<path d="M269.678 231.69C269.568 231.693 269.46 231.657 269.373 231.589C268.957 231.274 227.758 200.205 203.794 199.637C197.634 199.549 191.475 199.889 185.362 200.652C179.414 201.322 173.507 202.225 167.792 203.098C159.774 204.326 152.202 205.483 146.244 205.706C133.232 206.194 123.65 203.595 117.824 197.952C113.145 193.445 110.719 186.959 110.719 178.667C110.719 160.326 119.854 156.956 137.332 152.125C141.057 151.11 146.213 150.095 152.182 148.866C160.494 147.202 169.914 145.314 179.201 142.776C190.66 139.579 199.227 136.067 205.398 132.038C223.739 120.061 237.695 92.5238 237.827 92.2497C237.875 92.1561 237.95 92.0795 238.043 92.0305C238.135 91.9814 238.241 91.9623 238.345 91.9757C238.449 91.9859 238.547 92.0287 238.626 92.0979C238.704 92.1672 238.758 92.2594 238.781 92.3614L270.185 231.081C270.208 231.183 270.199 231.289 270.159 231.386C270.119 231.482 270.05 231.563 269.962 231.619C269.876 231.669 269.777 231.693 269.678 231.69ZM201.612 198.601C202.363 198.601 203.094 198.601 203.815 198.601C214.036 198.845 228.286 204.336 246.16 214.912C256.95 221.307 265.851 227.712 268.876 229.934L238.04 93.9245C235.077 99.4562 222.227 122.213 205.895 132.88C199.643 136.94 190.985 140.523 179.414 143.741C170.096 146.329 160.667 148.227 152.334 149.892C146.386 151.089 141.25 152.114 137.545 153.129C120.057 157.961 111.653 161.057 111.683 178.697C111.683 186.706 113.967 192.907 118.443 197.251C124.107 202.692 133.435 205.209 146.163 204.722C152.06 204.499 159.611 203.341 167.599 202.123C173.324 201.251 179.241 200.347 185.2 199.667C190.645 198.997 196.125 198.641 201.612 198.601Z" fill="#484646"/>
<path d="M188.773 199.769C174.309 201.413 156.293 204.285 146.224 205.199C123.264 207.29 112.566 202.408 111.216 181.57C109.836 160.143 119.641 157.524 137.454 152.612C146.264 150.186 163.245 147.689 179.323 143.223C179.323 143.223 173.233 154.439 175.943 174.241C177.263 183.94 181.777 192.923 188.773 199.769Z" fill="#484646"/>
<path d="M137.555 206.173C128.542 206.173 122.432 204.478 118.27 200.905C113.723 197.018 111.328 190.898 110.729 181.62C109.328 159.859 119.204 157.139 137.119 152.185H137.322C141.047 151.17 146.203 150.155 152.171 148.927C160.484 147.263 169.903 145.375 179.191 142.837C179.286 142.81 179.387 142.812 179.481 142.843C179.575 142.874 179.658 142.932 179.719 143.01C179.783 143.086 179.823 143.181 179.832 143.281C179.841 143.381 179.819 143.481 179.769 143.568C179.708 143.68 173.832 154.885 176.45 174.272C177.783 183.842 182.232 192.706 189.107 199.495C189.182 199.558 189.236 199.642 189.263 199.736C189.29 199.829 189.289 199.929 189.26 200.022C189.23 200.116 189.174 200.199 189.098 200.262C189.023 200.325 188.931 200.365 188.833 200.378C182.165 201.139 174.796 202.144 167.67 203.118C159.459 204.245 151.694 205.311 146.274 205.808C143.087 206.031 140.184 206.173 137.555 206.173ZM178.419 144.035C169.447 146.471 160.413 148.288 152.395 149.892C146.447 151.089 141.311 152.114 137.606 153.129L137.403 153.19C119.986 157.991 110.394 160.64 111.744 181.61C112.323 190.583 114.606 196.48 118.92 200.175C124.097 204.6 132.501 206.011 146.193 204.762C151.593 204.275 159.388 203.21 167.508 202.083C174.258 201.159 181.231 200.205 187.615 199.464C181.033 192.583 176.773 183.812 175.435 174.384C173.233 157.941 177.019 147.253 178.399 144.035H178.419Z" fill="#484646"/>
<path d="M284.223 234.969C268.866 237.77 251.631 217.003 241.288 185.822C236.093 169.976 233.072 153.498 232.306 136.839C230.885 103.8 239.695 78.0802 255.133 75.2687C274.225 71.7872 296.22 104.704 304.259 148.805C312.298 192.907 303.325 231.487 284.223 234.969Z" fill="#FF931E"/>
<path d="M257.934 75.0252C276.336 75.0252 296.606 106.866 304.259 148.816C312.298 192.917 303.325 231.487 284.223 234.969C283.299 235.139 282.361 235.224 281.421 235.223C266.805 235.223 250.972 215.115 241.288 185.823C236.093 169.976 233.072 153.498 232.306 136.839C230.885 103.8 239.695 78.0803 255.133 75.2688C256.057 75.0983 256.995 75.0134 257.934 75.015M257.934 74C256.933 73.9992 255.934 74.0909 254.95 74.2741C239.309 77.1161 229.799 102.278 231.291 136.879C232.068 153.631 235.107 170.2 240.324 186.137C250.423 216.587 266.552 236.227 281.421 236.227C282.423 236.228 283.421 236.137 284.406 235.953C294.068 234.197 301.529 224.037 305.406 207.341C309.222 190.938 309.172 170.09 305.254 148.623C301.549 128.323 294.708 109.464 285.969 95.6398C277.23 81.8155 267.232 74.0102 257.945 74.0102L257.934 74Z" fill="#484646"/>
<path d="M272.429 174.597L241.288 185.823C236.093 169.976 233.072 153.498 232.306 136.839H267.394L272.429 174.597Z" fill="white"/>
<path d="M272.425 174.618C277.273 173.951 280.043 164.969 278.611 154.557C277.179 144.144 272.088 136.243 267.24 136.91C262.392 137.577 259.622 146.558 261.054 156.971C262.486 167.384 267.577 175.284 272.425 174.618Z" fill="#D1D1D1"/>
<path d="M194.517 253.371C194.401 253.374 194.288 253.337 194.196 253.266C194.104 253.196 194.039 253.096 194.011 252.983C193.984 252.87 193.996 252.751 194.046 252.647C194.095 252.542 194.179 252.457 194.284 252.407C197.439 250.772 200.813 249.6 204.302 248.925C204.435 248.907 204.569 248.942 204.677 249.022C204.785 249.101 204.858 249.219 204.88 249.351C204.89 249.417 204.887 249.485 204.871 249.55C204.855 249.614 204.827 249.675 204.787 249.729C204.748 249.783 204.698 249.828 204.641 249.863C204.583 249.897 204.52 249.92 204.454 249.93C201.078 250.598 197.811 251.736 194.751 253.31C194.68 253.35 194.599 253.371 194.517 253.371Z" fill="#484646"/>
<path d="M188.102 245.545C187.974 245.542 187.851 245.492 187.757 245.403C187.71 245.357 187.673 245.301 187.647 245.24C187.621 245.179 187.608 245.114 187.608 245.048C187.608 244.982 187.621 244.916 187.647 244.855C187.673 244.794 187.71 244.739 187.757 244.693C190.851 241.696 194.885 239.86 199.176 239.496C199.309 239.484 199.441 239.526 199.544 239.612C199.647 239.697 199.711 239.82 199.724 239.952C199.731 240.019 199.725 240.086 199.705 240.149C199.686 240.213 199.654 240.272 199.612 240.323C199.569 240.374 199.517 240.416 199.458 240.447C199.398 240.477 199.334 240.496 199.267 240.501C195.234 240.881 191.443 242.599 188.498 245.383C188.447 245.436 188.386 245.478 188.318 245.506C188.249 245.534 188.176 245.547 188.102 245.545Z" fill="#484646"/>
<path d="M205.713 258.953C205.646 258.967 205.577 258.967 205.511 258.954C205.444 258.94 205.381 258.914 205.324 258.876C205.268 258.839 205.219 258.79 205.181 258.734C205.143 258.677 205.117 258.614 205.104 258.547C205.09 258.481 205.09 258.412 205.103 258.345C205.117 258.279 205.143 258.215 205.181 258.159C205.218 258.102 205.267 258.054 205.323 258.016C205.38 257.978 205.443 257.952 205.51 257.938L208.89 256.497C209.013 256.443 209.154 256.441 209.279 256.49C209.405 256.54 209.506 256.637 209.56 256.761C209.613 256.885 209.616 257.025 209.566 257.15C209.517 257.276 209.419 257.377 209.296 257.431L205.916 258.872C205.855 258.914 205.786 258.942 205.713 258.953Z" fill="#484646"/>
<path d="M164.839 297.584C164.839 297.584 171.487 292.367 171.649 291.819C171.812 291.271 140.184 261.369 140.184 261.369L122.33 272.605L164.839 297.584Z" fill="#484646"/>
<path d="M164.839 298.092C164.749 298.092 164.661 298.068 164.585 298.021L122.026 273.042C121.951 272.998 121.888 272.936 121.843 272.861C121.799 272.787 121.774 272.702 121.772 272.615C121.772 272.528 121.794 272.441 121.837 272.365C121.879 272.288 121.941 272.224 122.016 272.179L139.941 260.892C140.037 260.834 140.149 260.808 140.26 260.819C140.372 260.83 140.477 260.877 140.56 260.953C172.4 291.119 172.258 291.575 172.136 291.971C172.136 292.144 171.923 292.661 165.153 297.99C165.063 298.058 164.952 298.094 164.839 298.092ZM123.224 272.595L164.768 296.955C167.437 294.854 170.238 292.55 170.99 291.778C168.96 289.444 151.816 273.031 140.123 261.948L123.224 272.595Z" fill="#484646"/>
<path d="M166.747 298.132L127.091 264.871L51.1789 312.931L142.346 325.588L166.747 298.132Z" fill="#FF931E"/>
<path d="M125.649 201.931C125.547 201.929 125.447 201.897 125.363 201.839C125.278 201.782 125.212 201.7 125.172 201.606C119.011 185.762 118.402 170.801 123.437 159.473C123.538 159.25 123.599 159.098 123.63 159.027C123.629 158.963 123.642 158.9 123.668 158.842C123.693 158.784 123.731 158.731 123.777 158.688C123.824 158.645 123.88 158.613 123.94 158.592C124 158.572 124.064 158.564 124.127 158.57C124.266 158.58 124.396 158.644 124.488 158.748C124.581 158.853 124.63 158.989 124.624 159.128C124.59 159.397 124.5 159.656 124.36 159.889C119.438 170.963 120.057 185.65 126.116 201.23C126.164 201.356 126.16 201.494 126.107 201.617C126.054 201.74 125.956 201.838 125.832 201.89C125.775 201.918 125.713 201.932 125.649 201.931Z" fill="white"/>
<path d="M145.077 155.636C144.959 155.634 144.845 155.592 144.755 155.516C144.664 155.44 144.602 155.336 144.579 155.22C144.566 155.156 144.566 155.089 144.579 155.024C144.591 154.959 144.617 154.898 144.654 154.843C144.691 154.788 144.738 154.741 144.793 154.705C144.848 154.669 144.91 154.644 144.975 154.632L167.305 150.247C167.37 150.232 167.437 150.231 167.502 150.243C167.568 150.255 167.63 150.281 167.685 150.318C167.74 150.355 167.787 150.403 167.823 150.459C167.859 150.514 167.883 150.577 167.894 150.643C167.907 150.708 167.907 150.775 167.895 150.841C167.882 150.906 167.857 150.968 167.82 151.024C167.783 151.08 167.736 151.128 167.681 151.165C167.625 151.202 167.563 151.228 167.498 151.242L145.168 155.626L145.077 155.636Z" fill="white"/>
<path d="M145.077 160.021C144.959 160.019 144.845 159.976 144.755 159.901C144.664 159.825 144.602 159.721 144.579 159.605C144.566 159.54 144.566 159.474 144.579 159.409C144.591 159.344 144.617 159.283 144.654 159.228C144.691 159.173 144.738 159.126 144.793 159.09C144.848 159.053 144.91 159.029 144.975 159.016L167.305 154.632C167.37 154.617 167.437 154.616 167.502 154.628C167.568 154.64 167.63 154.665 167.685 154.702C167.74 154.739 167.787 154.787 167.823 154.843C167.859 154.899 167.883 154.962 167.894 155.027C167.907 155.093 167.907 155.16 167.895 155.226C167.882 155.291 167.857 155.353 167.82 155.409C167.783 155.465 167.736 155.512 167.681 155.55C167.625 155.587 167.563 155.613 167.498 155.626L145.168 160.011L145.077 160.021Z" fill="white"/>
<path d="M145.077 165.066C144.96 165.066 144.846 165.025 144.756 164.951C144.665 164.877 144.603 164.774 144.579 164.66C144.555 164.528 144.583 164.392 144.656 164.281C144.73 164.169 144.844 164.09 144.975 164.061L167.305 159.676C167.437 159.652 167.573 159.682 167.683 159.758C167.793 159.834 167.869 159.95 167.894 160.082C167.908 160.147 167.91 160.214 167.898 160.279C167.885 160.345 167.86 160.407 167.823 160.462C167.786 160.517 167.738 160.564 167.682 160.6C167.626 160.636 167.563 160.66 167.498 160.671L145.168 165.056L145.077 165.066Z" fill="white"/>
<path d="M101.553 256.487C101.426 256.485 101.304 256.436 101.211 256.35C101.117 256.264 101.058 256.147 101.046 256.02C100.031 244.855 90.8959 236.735 82.6439 232.807C72.0676 227.823 51.727 221.835 39.5978 224.118C39.4849 224.144 39.3668 224.128 39.2645 224.074C39.1623 224.02 39.0825 223.931 39.0395 223.824C38.995 223.718 38.9879 223.6 39.0192 223.489C39.0506 223.379 39.1186 223.282 39.2121 223.215C40.2271 222.505 41.1609 221.804 42.1657 221.084C54.4472 212.273 68.3629 202.276 70.1899 186.239C73.0928 160.661 52.062 137.427 51.8488 137.194C51.7772 137.103 51.7383 136.99 51.7383 136.874C51.7383 136.758 51.7772 136.646 51.8488 136.554C51.9158 136.461 52.0125 136.393 52.1231 136.362C52.2338 136.33 52.3518 136.337 52.4578 136.382C52.7217 136.494 79.3959 147.628 105.989 132.9C132.186 118.396 131.283 89.702 131.273 89.4178C131.268 89.3178 131.292 89.2186 131.342 89.1321C131.393 89.0457 131.467 88.9757 131.557 88.9306C131.648 88.8912 131.749 88.8779 131.847 88.8922C131.946 88.9065 132.039 88.9479 132.115 89.0118C132.379 89.2453 158.941 112.357 178.287 110.855C185.402 110.361 192.286 108.12 198.328 104.331C204.37 100.543 209.385 95.3228 212.929 89.1336C212.987 89.0131 213.089 88.92 213.214 88.8744C213.34 88.8288 213.478 88.8344 213.599 88.89C213.659 88.9193 213.713 88.9601 213.757 89.0101C213.802 89.0601 213.835 89.1184 213.857 89.1816C213.879 89.2448 213.888 89.3116 213.884 89.3783C213.879 89.4449 213.862 89.5101 213.833 89.5701C210.208 95.9235 205.067 101.281 198.868 105.165C192.669 109.049 185.606 111.338 178.308 111.829C160.261 113.26 136.997 94.4827 132.227 90.4531C132.105 95.995 130.197 120.588 106.415 133.743C83.4661 146.512 60.4154 140.239 53.8788 137.996C58.4666 143.588 73.7322 164.061 71.1947 186.35C69.317 202.844 55.2085 212.974 42.7747 221.875L41.506 222.789C53.9905 221.419 72.971 227.082 83.121 231.853C91.6064 235.852 101.046 244.276 102.101 255.898C102.113 256.031 102.071 256.163 101.986 256.266C101.9 256.369 101.778 256.433 101.645 256.446L101.553 256.487Z" fill="#D1D1D1"/>
<path d="M254.625 318.371C254.488 318.371 254.357 318.316 254.26 318.219C254.067 318.016 234.691 298.173 206.301 301.979C206.235 301.989 206.168 301.986 206.103 301.969C206.038 301.952 205.977 301.923 205.924 301.882C205.871 301.841 205.827 301.79 205.794 301.732C205.761 301.674 205.74 301.609 205.733 301.543C205.716 301.409 205.752 301.275 205.834 301.168C205.916 301.062 206.036 300.992 206.169 300.974C231.108 297.605 249.226 312.2 253.874 316.402C252.859 309.876 251.469 284.379 283.309 262.201C301.427 249.595 330.649 253.939 343.803 259.359C331.623 244.997 320.458 228.219 326.203 211.269C331.42 195.851 354.908 178.789 359.81 175.327C325.401 164.437 310.958 145.517 314.368 115.859C314.383 115.724 314.451 115.601 314.557 115.516C314.662 115.431 314.797 115.392 314.932 115.407C315.066 115.422 315.19 115.489 315.274 115.595C315.359 115.701 315.398 115.836 315.383 115.97C312.014 145.405 326.548 164 361.109 174.668C361.202 174.695 361.286 174.749 361.35 174.822C361.413 174.896 361.455 174.986 361.468 175.082C361.482 175.178 361.468 175.277 361.428 175.365C361.388 175.453 361.323 175.529 361.241 175.581C360.957 175.774 332.77 195.049 327.178 211.593C321.372 228.747 333.471 245.9 346.067 260.415C346.147 260.503 346.193 260.616 346.198 260.735C346.203 260.854 346.166 260.971 346.093 261.065C346.021 261.159 345.917 261.225 345.801 261.251C345.685 261.277 345.564 261.261 345.458 261.207C333.765 255.492 302.706 249.95 283.898 263.034C247.825 288.155 255.062 317.427 255.143 317.722C255.171 317.83 255.162 317.945 255.118 318.047C255.074 318.15 254.997 318.236 254.9 318.29C254.817 318.341 254.722 318.369 254.625 318.371Z" fill="#D1D1D1"/>
</svg>
