<svg width="400" height="400" viewBox="0 0 400 400" fill="none" xmlns="http://www.w3.org/2000/svg">
<path d="M267.783 355.175H156.094L160.968 339.315L165.665 324.016H258.211L259.942 329.655L267.783 355.175Z" fill="white"/>
<path d="M267.783 355.811H156.043C155.943 355.813 155.845 355.791 155.757 355.747C155.668 355.702 155.591 355.637 155.533 355.556C155.473 355.475 155.432 355.382 155.415 355.282C155.397 355.183 155.403 355.081 155.432 354.984L165.003 323.825C165.044 323.695 165.125 323.582 165.235 323.502C165.345 323.422 165.478 323.379 165.614 323.38H258.16C258.296 323.379 258.429 323.422 258.539 323.502C258.649 323.582 258.73 323.695 258.771 323.825L268.394 354.933C268.422 355.03 268.428 355.132 268.411 355.231C268.393 355.331 268.352 355.425 268.292 355.506C268.24 355.596 268.166 355.671 268.077 355.724C267.988 355.778 267.887 355.808 267.783 355.811ZM156.959 354.538H266.917L257.74 324.653H166.098L156.959 354.538Z" fill="#484646"/>
<path d="M259.942 329.655L160.968 339.315L165.665 324.016H258.211L259.942 329.655Z" fill="#484646"/>
<path d="M160.968 339.876C160.885 339.876 160.804 339.857 160.729 339.822C160.654 339.787 160.588 339.736 160.535 339.672C160.478 339.599 160.439 339.514 160.422 339.423C160.404 339.332 160.408 339.239 160.433 339.15L165.13 323.876C165.167 323.763 165.239 323.664 165.334 323.594C165.43 323.523 165.546 323.484 165.665 323.482H258.211C258.33 323.484 258.445 323.523 258.541 323.594C258.637 323.664 258.708 323.763 258.745 323.876L260.476 329.515C260.501 329.593 260.508 329.676 260.497 329.757C260.486 329.839 260.457 329.917 260.413 329.986C260.365 330.055 260.303 330.114 260.23 330.158C260.158 330.202 260.077 330.23 259.993 330.24L161.019 339.901L160.968 339.876ZM166.059 324.602L161.732 338.705L259.178 329.184L257.765 324.602H166.059Z" fill="#484646"/>
<path d="M140.336 353.66H283.527C284.716 353.66 285.855 354.132 286.695 354.972C287.536 355.813 288.008 356.952 288.008 358.14V360.024H135.856V358.217C135.845 357.622 135.954 357.031 136.174 356.479C136.395 355.926 136.724 355.423 137.141 354.999C137.558 354.575 138.055 354.238 138.604 354.008C139.152 353.778 139.741 353.66 140.336 353.66Z" fill="white"/>
<path d="M288.008 360.622H135.856C135.687 360.622 135.525 360.555 135.406 360.436C135.287 360.316 135.219 360.155 135.219 359.986V358.191C135.219 356.841 135.756 355.546 136.711 354.591C137.665 353.636 138.96 353.1 140.311 353.1H283.528C284.878 353.1 286.173 353.636 287.128 354.591C288.082 355.546 288.619 356.841 288.619 358.191V360.024C288.609 360.182 288.542 360.33 288.429 360.441C288.316 360.552 288.166 360.616 288.008 360.622ZM136.543 359.349H287.371V358.191C287.371 357.178 286.969 356.207 286.253 355.491C285.537 354.775 284.566 354.373 283.553 354.373H140.349C139.336 354.373 138.365 354.775 137.649 355.491C136.933 356.207 136.53 357.178 136.53 358.191L136.543 359.349Z" fill="#484646"/>
<path d="M356.497 119.717H67.3782C63.0339 119.717 59.5122 123.239 59.5122 127.583V317.308C59.5122 321.653 63.0339 325.174 67.3782 325.174H356.497C360.842 325.174 364.363 321.653 364.363 317.308V127.583C364.363 123.239 360.842 119.717 356.497 119.717Z" fill="white"/>
<path d="M356.498 325.798H67.3656C65.114 325.798 62.9546 324.904 61.3625 323.311C59.7704 321.719 58.876 319.56 58.876 317.308V127.57C58.876 126.455 59.0956 125.351 59.5222 124.321C59.9489 123.291 60.5742 122.355 61.3625 121.567C62.1509 120.779 63.0868 120.153 64.1168 119.727C65.1468 119.3 66.2508 119.081 67.3656 119.081H356.498C358.75 119.081 360.911 119.975 362.505 121.566C364.099 123.158 364.997 125.317 365 127.57V317.308C364.997 319.561 364.099 321.72 362.505 323.312C360.911 324.904 358.75 325.798 356.498 325.798ZM67.3656 120.353C65.4516 120.353 63.616 121.114 62.2625 122.467C60.9091 123.821 60.1488 125.656 60.1488 127.57V317.308C60.1488 319.222 60.9091 321.058 62.2625 322.411C63.616 323.765 65.4516 324.525 67.3656 324.525H356.498C358.413 324.525 360.25 323.765 361.605 322.412C362.961 321.059 363.724 319.224 363.727 317.308V127.57C363.724 125.655 362.961 123.819 361.605 122.466C360.25 121.113 358.413 120.353 356.498 120.353H67.3656Z" fill="#484646"/>
<path d="M352.794 132.344H71.0693V312.536H352.794V132.344Z" fill="white"/>
<path d="M352.794 313.172H71.0695C70.9007 313.172 70.7389 313.105 70.6195 312.985C70.5002 312.866 70.4331 312.704 70.4331 312.535V132.343C70.4331 132.175 70.5002 132.013 70.6195 131.893C70.7389 131.774 70.9007 131.707 71.0695 131.707H352.794C352.963 131.707 353.124 131.774 353.244 131.893C353.363 132.013 353.43 132.175 353.43 132.343V312.535C353.43 312.704 353.363 312.866 353.244 312.985C353.124 313.105 352.963 313.172 352.794 313.172ZM71.7059 311.899H352.157V132.98H71.7059V311.899Z" fill="#484646"/>
<path d="M150.455 150.405C150.455 150.405 114.574 169.942 111.227 223.719L156.539 232.628L168.516 190.74L150.455 150.405Z" fill="#FF931E"/>
<path d="M160.459 120.239C152.682 111.648 145.084 102.14 142.869 90.7607C142.173 88.1631 142.348 85.4092 143.365 82.9201C144.549 80.5273 147.502 78.8599 149.971 79.8908C148.851 76.8743 150.671 73.5268 152.784 71.1593C157.952 65.2769 165.108 61.5065 172.882 60.5696C171.69 59.7994 170.714 58.7396 170.044 57.4893C169.727 56.855 169.656 56.1261 169.844 55.4425C170.032 54.759 170.465 54.1689 171.062 53.7855C171.697 53.5371 172.389 53.471 173.06 53.5945C175.591 53.9132 177.975 54.9613 179.921 56.6111C178.253 55.8856 178.164 53.2509 179.526 52.0544C180.255 51.5157 181.128 51.2042 182.033 51.1589C182.939 51.1137 183.838 51.3366 184.617 51.7999C186.171 52.7471 187.514 54.0034 188.563 55.491C188.408 55.1316 188.344 54.7396 188.377 54.3496C188.41 53.9596 188.538 53.5837 188.751 53.2552C188.963 52.9267 189.254 52.6558 189.596 52.4663C189.939 52.2768 190.323 52.1747 190.714 52.169C191.358 52.2521 191.974 52.4878 192.509 52.8563C199.865 57.2475 204.409 65.5844 205.046 74.1759C205.482 82.8161 202.869 91.3349 197.664 98.2448C192.457 105.095 185.786 110.696 178.139 114.639C172.08 117.922 164.469 120.379 158.486 116.93" fill="white"/>
<path d="M160.459 120.876C160.371 120.877 160.283 120.86 160.202 120.824C160.121 120.789 160.048 120.737 159.988 120.672C152.084 111.928 144.473 102.28 142.245 90.8881C141.533 88.1476 141.725 85.2501 142.793 82.6275C143.354 81.4596 144.254 80.4877 145.376 79.8385C146.497 79.1892 147.788 78.8926 149.08 78.9873C148.533 75.6907 150.799 72.4705 152.301 70.7395C157.235 65.131 163.95 61.3917 171.316 60.1497C170.513 59.4992 169.865 58.6772 169.42 57.7441C169.031 56.9657 168.946 56.0703 169.181 55.2326C169.416 54.3949 169.955 53.6748 170.693 53.2129C171.434 52.9099 172.247 52.826 173.035 52.971C174.719 53.1782 176.35 53.6961 177.846 54.4984C177.814 53.9574 177.901 53.416 178.101 52.9124C178.301 52.4088 178.61 51.9552 179.004 51.5837C179.832 50.9545 180.827 50.5848 181.865 50.5214C182.903 50.458 183.936 50.7036 184.834 51.2273C185.981 51.8499 187.007 52.6733 187.863 53.6583C187.953 53.3953 188.072 53.1434 188.219 52.9074C188.484 52.4738 188.86 52.1182 189.307 51.8768C189.754 51.6353 190.257 51.5166 190.765 51.5327C191.508 51.6239 192.219 51.8899 192.84 52.3092C200.082 56.6367 205.008 65.0373 205.682 74.1252C206.144 82.9182 203.485 91.5917 198.173 98.6141C192.919 105.538 186.177 111.193 178.444 115.161C170.922 119.221 164.443 120.252 159.428 118.075C159.925 118.648 160.434 119.221 160.943 119.781C161.003 119.84 161.05 119.91 161.082 119.988C161.115 120.066 161.131 120.149 161.131 120.233C161.131 120.317 161.115 120.4 161.082 120.478C161.05 120.555 161.003 120.625 160.943 120.685C160.813 120.809 160.639 120.878 160.459 120.876ZM158.474 116.293C158.585 116.299 158.694 116.33 158.792 116.383C164.711 119.794 172.411 117.006 177.884 114.079C185.436 110.167 192.017 104.613 197.142 97.8249C202.258 91.0553 204.831 82.702 204.41 74.227C203.748 65.4955 199.064 57.5277 192.165 53.4038C191.715 53.0947 191.202 52.8903 190.663 52.8056C190.386 52.8178 190.116 52.8964 189.876 53.0346C189.636 53.1729 189.433 53.3668 189.283 53.6C189.133 53.8332 189.042 54.099 189.016 54.3749C188.991 54.6509 189.032 54.9289 189.136 55.1857C189.212 55.3252 189.232 55.4885 189.192 55.6423C189.152 55.7961 189.054 55.9287 188.919 56.013C188.789 56.1019 188.63 56.1382 188.474 56.1146C188.318 56.091 188.177 56.0092 188.079 55.8858C187.068 54.478 185.793 53.2805 184.325 52.3601C183.653 51.9637 182.882 51.7697 182.103 51.8013C181.324 51.8329 180.57 52.0888 179.933 52.5383C179.651 52.8158 179.44 53.1575 179.318 53.5343C179.196 53.911 179.167 54.3117 179.233 54.702C179.278 54.9936 179.387 55.2717 179.552 55.5166C179.806 55.7076 180.073 55.9112 180.315 56.1276C180.432 56.2246 180.509 56.3609 180.533 56.5109C180.556 56.6608 180.524 56.8142 180.442 56.9422C180.361 57.07 180.238 57.1654 180.094 57.2119C179.95 57.2584 179.794 57.253 179.653 57.1968C179.265 57.0213 178.921 56.7602 178.648 56.4331C176.967 55.241 175.016 54.4844 172.971 54.2311C172.422 54.125 171.855 54.169 171.329 54.3584C170.883 54.6705 170.563 55.1331 170.43 55.6614C170.297 56.1897 170.358 56.7484 170.604 57.2349C171.252 58.3798 172.169 59.3495 173.277 60.0606C173.376 60.1384 173.451 60.2438 173.492 60.3636C173.533 60.4835 173.537 60.6126 173.506 60.7352C173.474 60.8593 173.404 60.9703 173.306 61.0525C173.208 61.1348 173.086 61.184 172.958 61.1934C165.345 62.1288 158.339 65.8242 153.268 71.5795C151.779 73.2851 149.45 76.6071 150.582 79.6746C150.625 79.7917 150.633 79.9188 150.604 80.0402C150.575 80.1615 150.512 80.2717 150.421 80.3571C150.33 80.4425 150.216 80.4994 150.093 80.5206C149.97 80.5418 149.844 80.5265 149.73 80.4765C147.566 79.5601 144.944 81.1765 143.951 83.2003C142.958 85.2241 142.882 87.426 143.505 90.6463C145.389 100.32 151.359 108.784 158.016 116.51C158.072 116.443 158.142 116.389 158.221 116.352C158.3 116.315 158.386 116.295 158.474 116.293Z" fill="#484646"/>
<path d="M283.82 312.536H165.448C164.316 301.857 163.476 294.627 163.476 294.627L276.654 272.493C277.43 277.902 280.078 292.565 283.82 312.536Z" fill="#484646"/>
<path d="M283.82 313.095H165.448C165.31 313.096 165.176 313.046 165.073 312.954C164.97 312.863 164.904 312.736 164.888 312.599C163.768 302.035 162.928 294.78 162.915 294.69C162.9 294.55 162.939 294.408 163.024 294.295C163.109 294.181 163.234 294.104 163.374 294.08L276.552 271.945C276.624 271.927 276.7 271.925 276.772 271.941C276.845 271.956 276.914 271.988 276.972 272.034C277.036 272.079 277.09 272.136 277.131 272.201C277.173 272.267 277.201 272.34 277.214 272.416C277.965 277.635 280.447 291.508 284.38 312.433C284.397 312.514 284.396 312.596 284.376 312.676C284.356 312.755 284.318 312.829 284.265 312.892C284.211 312.957 284.143 313.01 284.066 313.045C283.989 313.08 283.905 313.097 283.82 313.095ZM165.945 311.975H283.145C279.416 292.094 277.01 278.729 276.17 273.154L164.074 295.111C164.29 296.88 165.015 303.269 165.945 311.975Z" fill="#484646"/>
<path d="M224.914 101.987C224.914 101.987 227.982 109.624 237.795 117.477L245.979 108.656L229.624 87.7186L224.914 101.987Z" fill="white"/>
<path d="M237.795 118.19C237.652 118.188 237.513 118.139 237.401 118.05C227.575 110.184 224.456 102.61 224.329 102.292C224.277 102.148 224.277 101.991 224.329 101.847L229.038 87.5912C229.074 87.4807 229.139 87.3819 229.226 87.3057C229.314 87.2294 229.42 87.1785 229.535 87.1585C229.648 87.135 229.765 87.1441 229.873 87.1847C229.981 87.2252 230.076 87.2956 230.146 87.3876L246.476 108.262C246.574 108.377 246.629 108.524 246.629 108.675C246.629 108.827 246.574 108.974 246.476 109.089L238.304 117.922C238.245 118.002 238.169 118.068 238.08 118.114C237.992 118.16 237.895 118.186 237.795 118.19ZM225.589 102.025C226.149 103.298 229.407 109.878 237.732 116.675L245.139 108.618L229.866 89.055L225.589 102.025Z" fill="#484646"/>
<path d="M244.299 101.452C244.299 101.452 228.134 114.639 229.865 117.617C231.596 120.595 254.533 137.193 254.545 137.193C252.611 135.805 244.872 137.193 242.657 137.193C232.475 137.422 222.347 138.041 212.275 139.051C198.082 140.42 183.98 142.617 170.043 145.632C164.468 146.904 155.304 147.414 150.455 150.405C145.605 153.396 146.942 157.545 148.355 163.031C148.978 165.449 149.627 167.893 150.136 170.337C159.339 210.8 160.115 253.311 163.463 294.627C163.463 294.627 247.71 297.173 281.745 275.051L262.959 178.699C262.959 178.699 329.934 183.969 336.782 158.436C343.629 132.903 244.299 101.452 244.299 101.452Z" fill="#FF931E"/>
<path d="M202.704 130.74L208.419 149.832C208.419 149.832 208.559 159.289 194.914 160.154C181.27 161.02 176.675 152.848 176.675 152.848L167.294 116.917C167.294 116.917 173.594 109.025 164.507 89.4369C164.507 89.4369 185.992 89.4369 204.129 81.1636C204.129 81.1636 211.562 104.214 213.039 114.524C214.515 124.834 202.704 130.74 202.704 130.74Z" fill="white"/>
<path d="M192.954 160.829C180.633 160.829 176.407 153.459 176.166 153.192C176.157 153.142 176.157 153.09 176.166 153.039L166.772 117.095C166.749 116.998 166.749 116.897 166.771 116.8C166.793 116.703 166.837 116.612 166.9 116.535C166.9 116.459 172.805 108.644 164.023 89.7297C163.981 89.6318 163.964 89.5253 163.973 89.4193C163.982 89.3134 164.017 89.2113 164.075 89.122C164.133 89.0328 164.212 88.9591 164.305 88.9075C164.398 88.8559 164.502 88.8279 164.608 88.826C164.812 88.826 186.17 88.6987 203.977 80.6036C204.058 80.5659 204.147 80.5464 204.237 80.5464C204.328 80.5464 204.417 80.5659 204.498 80.6036C204.579 80.6399 204.651 80.6925 204.71 80.7583C204.77 80.824 204.814 80.9014 204.842 80.9854C204.918 81.2273 212.301 104.214 213.752 114.46C215.139 123.892 205.758 129.849 203.569 131.122L209.131 149.692C209.144 149.751 209.144 149.811 209.131 149.87C209.131 149.972 209.131 159.938 195.029 160.829C194.227 160.803 193.552 160.829 192.954 160.829ZM177.273 152.556C177.757 153.37 182.364 160.269 194.863 159.48C207.197 158.703 207.757 150.85 207.782 149.895L202.093 130.918C202.05 130.774 202.06 130.619 202.121 130.482C202.182 130.344 202.289 130.233 202.424 130.167C202.538 130.167 213.879 124.299 212.441 114.575C211.104 105.411 204.982 85.8603 203.747 81.9782C188.015 88.9278 169.852 89.8697 165.487 89.9969C173.289 107.371 169.012 115.453 168.032 116.993L177.273 152.556Z" fill="#484646"/>
<path d="M172.984 114.002C172.014 112.389 170.544 111.137 168.796 110.438C167.16 109.863 165.439 109.57 163.705 109.573C162.749 109.473 161.783 109.59 160.879 109.916C160.268 110.234 159.723 110.666 159.275 111.189C158.111 112.286 157.376 113.762 157.201 115.351C157.218 116.638 157.55 117.901 158.168 119.03C158.727 120.309 159.455 121.507 160.332 122.594C161.234 123.658 162.339 124.533 163.583 125.166C164.826 125.8 166.183 126.18 167.575 126.284C168.967 126.388 170.365 126.215 171.689 125.773C173.013 125.332 174.236 124.632 175.287 123.714" fill="white"/>
<path d="M168.3 126.896C168.02 126.896 167.752 126.896 167.472 126.896C164.509 126.657 161.762 125.251 159.835 122.988C158.919 121.86 158.157 120.614 157.57 119.284C156.92 118.06 156.571 116.699 156.552 115.313C156.727 113.564 157.527 111.938 158.804 110.731C159.311 110.166 159.926 109.707 160.612 109.382C161.601 109.007 162.665 108.868 163.717 108.974C165.542 108.968 167.354 109.274 169.076 109.878C170.946 110.634 172.521 111.973 173.569 113.697C173.613 113.768 173.642 113.848 173.655 113.931C173.668 114.014 173.664 114.099 173.644 114.181C173.624 114.263 173.588 114.339 173.538 114.407C173.488 114.475 173.425 114.532 173.353 114.575C173.207 114.66 173.034 114.685 172.87 114.645C172.706 114.604 172.564 114.502 172.474 114.358C171.59 112.874 170.251 111.714 168.656 111.049C167.067 110.505 165.397 110.229 163.717 110.235C162.858 110.138 161.987 110.238 161.172 110.527C160.641 110.796 160.166 111.163 159.772 111.609C158.72 112.596 158.049 113.92 157.875 115.351C157.906 116.535 158.215 117.695 158.779 118.737C159.312 119.966 160.015 121.114 160.866 122.148C162.588 124.154 165.029 125.402 167.663 125.623C168.97 125.719 170.284 125.555 171.527 125.14C172.77 124.725 173.918 124.067 174.905 123.205C174.964 123.145 175.033 123.098 175.109 123.066C175.186 123.034 175.268 123.017 175.351 123.017C175.434 123.017 175.516 123.034 175.593 123.066C175.669 123.098 175.738 123.145 175.796 123.205C175.856 123.264 175.903 123.334 175.936 123.412C175.968 123.489 175.985 123.572 175.985 123.656C175.985 123.74 175.968 123.824 175.936 123.901C175.903 123.979 175.856 124.049 175.796 124.108C173.723 125.923 171.055 126.915 168.3 126.896Z" fill="#484646"/>
<path d="M199.178 99.174C199.178 99.174 209.182 106.709 208.215 108.949C207.247 111.189 202.474 111.609 202.474 111.609" fill="white"/>
<path d="M202.474 112.246C202.316 112.243 202.165 112.182 202.05 112.073C201.934 111.965 201.863 111.818 201.851 111.66C201.842 111.577 201.85 111.493 201.874 111.414C201.899 111.334 201.939 111.26 201.992 111.195C202.045 111.131 202.111 111.079 202.185 111.04C202.259 111.002 202.34 110.979 202.424 110.973C203.696 110.871 206.968 110.26 207.629 108.707C208.049 107.753 203.913 103.54 198.796 99.683C198.729 99.6329 198.673 99.57 198.63 99.4981C198.588 99.4262 198.56 99.3466 198.548 99.2639C198.536 99.1812 198.541 99.0969 198.561 99.0159C198.582 98.935 198.619 98.8589 198.669 98.792C198.719 98.7252 198.782 98.6688 198.854 98.6263C198.926 98.5837 199.005 98.5557 199.088 98.5439C199.171 98.5321 199.255 98.5366 199.336 98.5574C199.417 98.5781 199.493 98.6146 199.56 98.6648C202.691 101.019 209.857 106.76 208.8 109.204C207.744 111.647 203.06 112.195 202.538 112.233L202.474 112.246Z" fill="#484646"/>
<path d="M183.676 97.1248C183.676 97.1248 185.878 91.2317 191.032 94.9102L183.676 97.1248Z" fill="white"/>
<path d="M183.676 97.8247H183.446C183.368 97.7951 183.295 97.7501 183.234 97.6923C183.173 97.6346 183.123 97.5652 183.089 97.4882C183.055 97.4113 183.036 97.3282 183.034 97.244C183.032 97.1597 183.047 97.0759 183.077 96.9974C183.371 96.1639 183.835 95.4008 184.44 94.7565C185.045 94.1122 185.777 93.601 186.59 93.2553C187.42 93.0533 188.285 93.0518 189.115 93.251C189.945 93.4502 190.716 93.8444 191.363 94.4009C191.498 94.5023 191.587 94.6518 191.613 94.8181C191.639 94.9843 191.6 95.1541 191.503 95.2918C191.404 95.4252 191.257 95.5145 191.093 95.5407C190.929 95.5669 190.761 95.5278 190.625 95.4318C190.133 94.999 189.546 94.6864 188.912 94.5185C188.279 94.3507 187.614 94.3322 186.972 94.4645C186.346 94.7418 185.782 95.1396 185.31 95.6354C184.838 96.1312 184.469 96.7151 184.223 97.3538C184.193 97.4803 184.125 97.5941 184.026 97.6788C183.928 97.7634 183.805 97.8146 183.676 97.8247Z" fill="#484646"/>
<path d="M197.409 93.2045C197.409 93.2045 198.147 89.5134 203.773 92.2117L197.409 93.2045Z" fill="white"/>
<path d="M197.409 93.828H197.269C197.189 93.8114 197.112 93.779 197.045 93.7329C196.977 93.6868 196.919 93.6277 196.874 93.5592C196.829 93.4906 196.798 93.4139 196.783 93.3333C196.768 93.2528 196.768 93.17 196.785 93.0898C196.895 92.6402 197.101 92.2196 197.389 91.8571C197.677 91.4946 198.04 91.1987 198.453 90.9897C199.827 90.3023 201.711 90.5314 204.053 91.6515C204.207 91.7241 204.325 91.8547 204.382 92.0146C204.44 92.1746 204.431 92.3507 204.358 92.5043C204.286 92.6579 204.155 92.7764 203.995 92.8337C203.835 92.8909 203.659 92.8824 203.506 92.8098C201.571 91.8806 200.018 91.6388 199.038 92.1225C198.786 92.2463 198.565 92.4249 198.391 92.6451C198.217 92.8653 198.095 93.1216 198.033 93.3953C197.987 93.5237 197.902 93.6346 197.791 93.7123C197.679 93.79 197.545 93.8305 197.409 93.828Z" fill="#484646"/>
<path d="M202.704 130.74C202.704 130.74 192.738 133.502 187.354 132.013C187.354 132.013 194.341 142.348 205.962 142.195L202.704 130.74Z" fill="#484646"/>
<path d="M205.771 142.908C194.062 142.908 187.125 132.84 186.832 132.407C186.757 132.303 186.717 132.178 186.717 132.051C186.717 131.923 186.757 131.798 186.832 131.694C186.906 131.588 187.009 131.508 187.13 131.462C187.25 131.417 187.382 131.409 187.507 131.44C192.661 132.827 202.424 130.167 202.526 130.167C202.688 130.124 202.86 130.147 203.006 130.23C203.151 130.313 203.258 130.451 203.302 130.612L206.561 142.068C206.585 142.163 206.589 142.262 206.572 142.359C206.554 142.456 206.516 142.547 206.459 142.628C206.398 142.705 206.321 142.768 206.233 142.812C206.145 142.856 206.048 142.88 205.95 142.882L205.771 142.908ZM188.881 132.98C191.109 135.602 196.874 141.329 205.122 141.622L202.258 131.516C200.235 132.038 193.667 133.552 188.881 132.98Z" fill="#484646"/>
<path d="M285.742 45.2703L200.591 121.168L304.325 87.2985L285.742 45.2703Z" fill="white"/>
<path d="M200.591 121.804C200.479 121.801 200.369 121.769 200.273 121.711C200.178 121.653 200.098 121.571 200.043 121.474C199.969 121.348 199.941 121.2 199.964 121.056C199.987 120.912 200.06 120.78 200.171 120.684L285.309 44.7994C285.384 44.7322 285.474 44.6834 285.571 44.6569C285.668 44.6304 285.77 44.6269 285.869 44.6466C285.969 44.6655 286.062 44.7092 286.139 44.7738C286.217 44.8383 286.278 44.9216 286.315 45.0157L304.91 87.0185C304.948 87.0982 304.967 87.1851 304.967 87.2731C304.967 87.3611 304.948 87.448 304.91 87.5277C304.874 87.6083 304.821 87.6806 304.756 87.7397C304.69 87.7989 304.613 87.8437 304.529 87.8713L200.794 121.741C200.731 121.775 200.662 121.796 200.591 121.804ZM285.513 46.3267L203.289 119.615L303.459 86.904L285.513 46.3267Z" fill="#484646"/>
<path d="M224.914 101.987C230.006 101.363 235.593 96.221 235.097 90.7098C234.55 83.5693 227.778 86.7004 224.647 90.2388C222.929 92.1862 218.779 99.0594 221.529 101.325C222.019 101.659 222.572 101.89 223.154 102.003C223.736 102.117 224.335 102.112 224.914 101.987Z" fill="white"/>
<path d="M224.01 102.687C222.998 102.739 222 102.427 221.197 101.809C220.855 101.52 220.577 101.162 220.382 100.758C220.187 100.355 220.079 99.9147 220.065 99.4667C219.81 96.3229 222.699 91.5498 224.239 89.8188C226.467 87.2732 230.298 85.0839 232.984 86.0004C234.129 86.3949 235.529 87.515 235.797 90.6843C236.267 96.6283 230.362 102 224.99 102.649C224.665 102.679 224.337 102.692 224.01 102.687ZM231.647 87.0441C229.598 87.0441 226.874 88.7624 225.194 90.6589C223.73 92.3135 221.121 96.7556 221.376 99.3649C221.38 99.6423 221.443 99.9158 221.559 100.168C221.675 100.42 221.842 100.645 222.05 100.829C222.462 101.105 222.927 101.294 223.415 101.384C223.903 101.474 224.405 101.462 224.889 101.35C229.611 100.79 234.982 95.941 234.587 90.7607C234.422 88.7751 233.773 87.5659 232.627 87.1841C232.31 87.0862 231.979 87.0389 231.647 87.0441Z" fill="#484646"/>
<path d="M195.691 117.235C195.691 117.235 203.544 119.195 201.329 125.33L195.691 117.235Z" fill="white"/>
<path d="M201.329 125.967C201.258 125.979 201.184 125.979 201.113 125.967C200.954 125.909 200.825 125.791 200.753 125.638C200.682 125.486 200.674 125.311 200.731 125.152C200.993 124.546 201.118 123.889 201.096 123.229C201.074 122.568 200.906 121.921 200.604 121.334C199.331 118.788 195.576 117.859 195.512 117.859C195.348 117.817 195.207 117.712 195.119 117.567C195.03 117.422 195.003 117.248 195.041 117.082C195.062 117.001 195.099 116.925 195.149 116.858C195.199 116.791 195.262 116.735 195.335 116.692C195.407 116.65 195.486 116.622 195.569 116.61C195.652 116.598 195.737 116.603 195.818 116.624C195.996 116.624 200.094 117.719 201.698 120.735C202.083 121.473 202.3 122.287 202.336 123.118C202.371 123.95 202.223 124.779 201.902 125.547C201.862 125.668 201.785 125.773 201.683 125.848C201.58 125.924 201.456 125.965 201.329 125.967Z" fill="#484646"/>
<path d="M304.318 87.2641C310.665 84.8909 312.17 73.2311 307.68 61.2212C303.19 49.2113 294.404 41.3992 288.057 43.7723C281.709 46.1455 280.204 57.8053 284.694 69.8152C289.185 81.8251 297.97 89.6372 304.318 87.2641Z" fill="#484646"/>
<path d="M301.983 88.3423C295.695 88.3423 288.148 80.8709 284.164 70.0647C279.556 57.7439 281.236 45.6904 287.893 43.1957C291.202 41.9229 295.148 43.1957 299.043 46.6577C303.232 50.6461 306.417 55.5707 308.334 61.0278C310.468 66.4043 311.297 72.2101 310.753 77.9689C310.078 83.1365 307.902 86.6622 304.605 87.8841C303.768 88.2016 302.878 88.3571 301.983 88.3423ZM290.528 43.9975C289.78 43.9919 289.038 44.1257 288.339 44.3921C282.331 46.6323 280.994 57.9476 285.347 69.6193C289.701 81.2909 298.088 88.9151 304.109 86.7004C306.947 85.644 308.844 82.4874 309.442 77.7907C309.962 72.2376 309.154 66.6406 307.087 61.4605C305.258 56.1957 302.204 51.4407 298.177 47.5869C295.492 45.2322 292.832 43.9975 290.477 43.9975H290.528Z" fill="#484646"/>
<path d="M289.141 163.26C289.039 163.257 288.939 163.231 288.848 163.184C264.525 150.532 236.497 124.096 236.217 123.828C236.158 123.77 236.111 123.701 236.079 123.625C236.047 123.548 236.03 123.466 236.03 123.383C236.03 123.3 236.047 123.218 236.079 123.141C236.111 123.065 236.158 122.996 236.217 122.938C236.276 122.878 236.347 122.831 236.424 122.798C236.502 122.766 236.585 122.749 236.669 122.749C236.753 122.749 236.836 122.766 236.914 122.798C236.991 122.831 237.062 122.878 237.121 122.938C237.401 123.205 265.301 149.514 289.459 162.076C289.535 162.114 289.602 162.167 289.658 162.231C289.713 162.295 289.755 162.37 289.781 162.45C289.807 162.531 289.817 162.616 289.81 162.7C289.802 162.785 289.778 162.867 289.739 162.942C289.678 163.045 289.59 163.129 289.485 163.185C289.379 163.241 289.26 163.267 289.141 163.26Z" fill="#484646"/>
<path d="M275.687 244.631C275.538 244.633 275.393 244.581 275.279 244.485C275.164 244.39 275.088 244.256 275.063 244.109L260.222 164.647C260.193 164.482 260.23 164.311 260.325 164.173C260.42 164.035 260.566 163.94 260.732 163.909C260.814 163.892 260.898 163.893 260.98 163.909C261.062 163.926 261.14 163.959 261.209 164.007C261.278 164.054 261.336 164.115 261.381 164.186C261.426 164.257 261.456 164.336 261.47 164.418L276.298 243.88C276.328 244.045 276.291 244.215 276.196 244.354C276.1 244.492 275.954 244.587 275.789 244.618L275.687 244.631Z" fill="#484646"/>
<path d="M198.529 159.645L192.267 168.122L198.503 171.941L206.573 250.791L223.425 259.637L230.846 242.989L203.62 170.871L206.688 165.297L198.529 159.645Z" fill="#484646"/>
<path d="M223.425 260.261C223.325 260.26 223.225 260.238 223.133 260.197L206.281 251.351C206.188 251.302 206.109 251.231 206.049 251.145C205.989 251.058 205.951 250.959 205.937 250.855L197.906 172.322L191.936 168.657C191.86 168.613 191.796 168.552 191.747 168.479C191.699 168.406 191.668 168.323 191.656 168.237C191.637 168.151 191.637 168.063 191.654 167.978C191.672 167.892 191.707 167.811 191.758 167.74L198.02 159.263C198.121 159.133 198.268 159.045 198.432 159.019C198.595 158.993 198.762 159.031 198.898 159.123L207.044 164.775C207.172 164.865 207.263 164.999 207.298 165.152C207.333 165.304 207.311 165.465 207.235 165.602L204.321 170.922L231.444 242.773C231.502 242.924 231.502 243.092 231.444 243.243L224.011 259.892C223.975 259.971 223.925 260.042 223.861 260.101C223.798 260.16 223.723 260.206 223.642 260.236L223.425 260.261ZM207.172 250.384L223.12 258.759L230.159 242.976L203.035 171.101C202.994 171.02 202.972 170.93 202.972 170.84C202.972 170.749 202.994 170.659 203.035 170.579L205.822 165.487L198.657 160.511L193.171 167.944L198.809 171.406C198.892 171.457 198.962 171.526 199.014 171.607C199.067 171.689 199.101 171.781 199.115 171.877L207.172 250.384Z" fill="#484646"/>
<path d="M175.818 166.774L35.1777 205.46L60.7828 298.545L201.423 259.859L175.818 166.774Z" fill="white"/>
<path d="M60.7724 299.184C60.6326 299.186 60.4957 299.143 60.3829 299.06C60.2702 298.977 60.1879 298.86 60.1487 298.725L34.5525 205.632C34.5096 205.47 34.5323 205.298 34.6157 205.152C34.6991 205.007 34.8364 204.9 34.998 204.856L175.644 166.175C175.8 166.117 175.971 166.117 176.127 166.175C176.275 166.257 176.385 166.394 176.433 166.557L202.029 259.65C202.072 259.812 202.049 259.985 201.966 260.13C201.883 260.275 201.745 260.382 201.584 260.427L60.9379 299.171L60.7724 299.184ZM35.9526 205.912L61.2179 297.771L200.591 259.472L175.364 167.575L35.9526 205.912Z" fill="#484646"/>
<path d="M136.734 278.246C136.734 278.246 137.014 281.021 133.106 283.744C129.199 286.468 116.471 290.019 113.747 288.67C110.186 287.092 107.173 284.492 105.092 281.199C102.877 277.291 100.001 272.365 101.515 270.494C103.03 268.623 106.11 271.513 109.674 277.622C109.674 277.622 105.257 266.587 107.968 265.9C110.679 265.212 112.563 268.063 116.292 273.358C116.292 273.358 111.545 261.712 115.109 261.776C118.673 261.839 126.488 274.911 126.488 274.224C126.488 273.536 121.906 262.336 125.813 264.372C129.721 266.409 132.775 277.966 132.775 277.966L136.734 278.246Z" fill="white"/>
<path d="M115.643 289.6C114.899 289.64 114.156 289.514 113.467 289.23C109.795 287.599 106.692 284.909 104.557 281.504L104.315 281.072C101.961 276.922 99.3004 272.226 101.057 270.087C101.26 269.816 101.529 269.601 101.839 269.462C102.148 269.324 102.488 269.268 102.826 269.298C104.099 269.4 105.652 270.647 107.434 273.002C106.695 270.456 106.161 267.491 106.797 266.154C106.897 265.942 107.042 265.754 107.222 265.605C107.403 265.455 107.614 265.347 107.841 265.289C110.196 264.703 111.901 266.243 114.205 269.311C113.365 266.536 112.69 263.265 113.645 261.89C113.808 261.645 114.032 261.446 114.295 261.314C114.559 261.182 114.853 261.122 115.147 261.139C117.693 261.139 121.358 265.951 124.769 270.8C123.598 266.982 123.204 264.627 124.197 263.787C124.515 263.507 125.126 263.291 126.131 263.787C129.835 265.722 132.674 275.14 133.297 277.342L136.81 277.584C136.96 277.595 137.1 277.659 137.207 277.764C137.314 277.869 137.381 278.008 137.396 278.157C137.396 278.284 137.663 281.339 133.501 284.241C130.255 286.507 120.531 289.6 115.643 289.6ZM102.635 270.507C102.513 270.512 102.394 270.544 102.286 270.602C102.178 270.659 102.084 270.74 102.012 270.838C100.815 272.302 103.577 277.202 105.397 280.397L105.639 280.83C107.665 284.013 110.588 286.524 114.04 288.047C116.331 289.192 128.741 285.959 132.75 283.172C133.567 282.699 134.281 282.069 134.852 281.317C135.422 280.565 135.837 279.707 136.072 278.793L132.724 278.552C132.593 278.538 132.469 278.486 132.368 278.402C132.266 278.318 132.191 278.206 132.152 278.081C131.324 274.937 128.511 266.46 125.508 264.894C125.35 264.786 125.164 264.724 124.973 264.716C124.668 265.022 124.693 266.613 126.615 272.353C126.853 272.93 127.023 273.532 127.124 274.148C127.124 274.288 127.079 274.425 126.997 274.539C126.915 274.653 126.799 274.739 126.666 274.784C126.131 274.949 126.08 274.86 124.515 272.62C122.567 269.807 117.387 262.438 115.096 262.336C115.014 262.328 114.931 262.341 114.855 262.375C114.779 262.408 114.713 262.461 114.663 262.527C113.772 263.8 115.427 269.464 116.891 273.04C116.949 273.185 116.952 273.346 116.898 273.492C116.843 273.638 116.736 273.758 116.598 273.829C116.463 273.907 116.304 273.931 116.153 273.895C116.002 273.86 115.869 273.768 115.783 273.638L115.338 273.015C111.761 267.924 110.247 265.925 108.134 266.447C108.057 266.447 107.981 266.447 107.905 266.651C107.128 268.178 108.936 273.995 110.259 277.317C110.304 277.462 110.295 277.619 110.234 277.758C110.173 277.898 110.065 278.011 109.928 278.077C109.791 278.143 109.635 278.158 109.488 278.119C109.341 278.08 109.213 277.99 109.127 277.864C105.219 271.182 103.221 270.533 102.762 270.495L102.635 270.507Z" fill="#484646"/>
<path d="M336.311 173.913C336.072 173.676 335.75 173.543 335.413 173.543C335.077 173.543 334.755 173.676 334.516 173.913C333.385 175.266 332.635 176.894 332.342 178.632C332.049 180.37 332.224 182.155 332.849 183.803C332.893 183.965 332.968 184.116 333.071 184.248C333.174 184.38 333.301 184.491 333.447 184.573C333.592 184.656 333.752 184.709 333.919 184.73C334.085 184.751 334.253 184.739 334.414 184.694C334.576 184.65 334.727 184.574 334.859 184.472C334.991 184.369 335.102 184.242 335.184 184.096C335.267 183.951 335.32 183.79 335.341 183.624C335.362 183.458 335.35 183.29 335.305 183.129C335.174 182.805 335.063 182.473 334.974 182.136C334.974 181.945 334.885 181.754 334.847 181.563C334.842 181.478 334.842 181.393 334.847 181.308C334.822 180.957 334.822 180.604 334.847 180.252C334.847 180.074 334.847 179.908 334.847 179.73C334.847 179.552 334.847 179.552 334.847 179.463C334.844 179.412 334.844 179.361 334.847 179.31C334.897 178.976 334.965 178.644 335.051 178.317C335.051 178.152 335.152 177.986 335.216 177.821C335.28 177.656 335.382 177.376 335.318 177.516C335.462 177.172 335.632 176.84 335.827 176.523C335.916 176.37 336.018 176.23 336.12 176.077C336.162 176.003 336.214 175.935 336.273 175.874L336.349 175.784C336.476 175.663 336.576 175.516 336.643 175.353C336.71 175.191 336.743 175.016 336.74 174.841C336.736 174.665 336.696 174.492 336.622 174.332C336.549 174.173 336.442 174.03 336.311 173.913Z" fill="#F2F1F1"/>
<path d="M321.686 255.233C320.158 253.673 318.354 252.409 316.366 251.504C316.219 250.794 315.932 250.121 315.521 249.524C315.11 248.928 314.584 248.419 313.973 248.029C311.173 246.26 307.418 247.126 304.478 248.029C302.925 248.513 303.587 250.982 305.165 250.473C307.023 249.752 309.019 249.452 311.007 249.595C311.967 249.706 312.845 250.191 313.451 250.944C313.298 250.944 313.158 250.944 313.006 250.944C312.193 250.979 311.399 251.199 310.685 251.587C309.97 251.976 309.353 252.522 308.882 253.184C308.418 253.813 308.2 254.589 308.268 255.367C308.336 256.145 308.685 256.871 309.251 257.41C311.605 259.421 314.966 257.41 315.997 254.992C316.109 254.727 316.203 254.455 316.277 254.177C317.596 254.957 318.811 255.902 319.891 256.99C321.088 258.199 322.895 256.354 321.686 255.233ZM311.695 255.692C310.956 255.768 310.574 255.399 310.956 254.712C311.226 254.327 311.587 254.017 312.007 253.808C312.427 253.599 312.893 253.498 313.362 253.515C313.523 253.502 313.685 253.502 313.846 253.515C313.743 254.046 313.483 254.534 313.099 254.915C312.715 255.296 312.226 255.554 311.695 255.653V255.692Z" fill="#F2F1F1"/>
<path d="M113.594 302.353L113.505 302.251L113.301 301.958L112.881 301.36C112.614 300.966 112.359 300.546 112.13 300.087C111.901 299.629 111.685 299.222 111.481 298.815C111.481 298.815 111.265 298.382 111.481 298.7C111.481 298.598 111.392 298.471 111.341 298.369C111.29 298.267 111.176 297.911 111.099 297.682C111.055 297.52 110.979 297.369 110.877 297.237C110.774 297.105 110.646 296.994 110.501 296.912C110.356 296.829 110.195 296.776 110.029 296.755C109.863 296.734 109.695 296.746 109.534 296.791C109.372 296.835 109.221 296.911 109.089 297.013C108.957 297.116 108.846 297.243 108.764 297.389C108.681 297.534 108.627 297.695 108.607 297.861C108.586 298.027 108.598 298.195 108.643 298.356C109.367 300.462 110.453 302.426 111.85 304.16C112.089 304.397 112.411 304.531 112.747 304.531C113.084 304.531 113.406 304.397 113.645 304.16C113.765 304.043 113.861 303.902 113.926 303.747C113.992 303.592 114.026 303.425 114.027 303.257C113.989 302.915 113.836 302.596 113.594 302.353Z" fill="#F2F1F1"/>
<path d="M310.333 281.504C310.172 281.46 310.003 281.448 309.837 281.468C309.671 281.489 309.511 281.542 309.366 281.625C309.22 281.708 309.092 281.818 308.99 281.951C308.887 282.083 308.812 282.234 308.767 282.395L308.691 282.573C308.627 282.713 308.564 282.841 308.513 282.968C308.462 283.095 308.246 283.515 308.093 283.783C307.802 284.337 307.484 284.877 307.138 285.399C306.973 285.654 306.795 285.908 306.616 286.15L306.387 286.455C306.328 286.52 306.273 286.588 306.222 286.659C305.815 287.143 305.395 287.614 304.949 288.059C304.816 288.173 304.708 288.314 304.631 288.472C304.555 288.629 304.512 288.802 304.505 288.977C304.498 289.152 304.528 289.327 304.592 289.49C304.656 289.654 304.753 289.802 304.877 289.926C305.001 290.05 305.149 290.147 305.313 290.211C305.476 290.275 305.651 290.305 305.826 290.298C306.001 290.291 306.173 290.248 306.331 290.172C306.489 290.095 306.63 289.987 306.744 289.854C308.688 287.883 310.224 285.547 311.262 282.981C311.324 282.662 311.263 282.333 311.09 282.058C310.918 281.784 310.647 281.586 310.333 281.504Z" fill="#F2F1F1"/>
<path d="M340.906 213.893C340.822 213.748 340.71 213.621 340.576 213.52C340.443 213.418 340.291 213.344 340.129 213.301C339.967 213.259 339.798 213.249 339.632 213.271C339.466 213.294 339.307 213.35 339.162 213.434L329.934 219.302C329.789 219.386 329.663 219.498 329.561 219.631C329.46 219.765 329.386 219.917 329.343 220.079C329.3 220.241 329.29 220.41 329.313 220.575C329.336 220.741 329.391 220.901 329.476 221.046C329.56 221.19 329.672 221.317 329.805 221.419C329.939 221.52 330.091 221.594 330.253 221.637C330.415 221.679 330.583 221.69 330.749 221.667C330.915 221.644 331.075 221.589 331.22 221.504L340.448 215.636C340.592 215.552 340.719 215.44 340.821 215.307C340.922 215.174 340.996 215.021 341.039 214.859C341.081 214.697 341.091 214.529 341.069 214.363C341.046 214.197 340.99 214.037 340.906 213.893Z" fill="#F2F1F1"/>
<path d="M344.686 292.629C343.914 291.876 342.957 291.341 341.912 291.076C341.031 290.892 340.202 290.518 339.48 289.981C338.717 289.243 339.022 288.072 339.213 287.156C339.567 286.021 339.606 284.811 339.328 283.655C338.628 281.53 336.375 279.952 334.376 281.53C334.139 281.768 334.006 282.091 334.006 282.427C334.006 282.763 334.139 283.086 334.376 283.325C334.495 283.444 334.636 283.538 334.791 283.603C334.946 283.668 335.112 283.701 335.28 283.701C335.448 283.701 335.615 283.668 335.77 283.603C335.925 283.538 336.066 283.444 336.184 283.325C336.044 283.439 336.095 283.325 336.184 283.452C336.376 283.591 336.536 283.768 336.655 283.974C336.818 284.277 336.918 284.611 336.949 284.955C336.98 285.298 336.94 285.644 336.833 285.972C336.464 287.932 336.044 290.019 337.546 291.623C338.729 292.896 340.448 293.138 341.962 293.762C342.504 293.963 342.955 294.351 343.235 294.856C343.324 295.04 343.397 295.232 343.452 295.429C343.462 295.488 343.462 295.548 343.452 295.607H343.363C343.085 295.783 342.887 296.06 342.809 296.378C342.731 296.697 342.779 297.034 342.943 297.318C343.108 297.602 343.375 297.812 343.691 297.904C344.006 297.995 344.344 297.961 344.635 297.809C346.646 296.664 346.061 294.118 344.686 292.629Z" fill="#F2F1F1"/>
<path d="M151.537 284.928L153.713 282.663C154.859 281.492 153.064 279.684 151.918 280.868L149.436 283.414C148.558 284.317 147.667 285.208 148.024 286.596C148.189 287.129 148.397 287.649 148.647 288.148C148.876 288.696 149.118 289.23 149.347 289.778C149.818 290.898 150.289 292.005 150.773 293.125C150.846 293.287 150.953 293.432 151.086 293.551C151.219 293.669 151.375 293.759 151.545 293.813C151.714 293.867 151.893 293.885 152.07 293.866C152.248 293.847 152.419 293.791 152.573 293.701C152.726 293.612 152.86 293.491 152.964 293.347C153.069 293.202 153.142 293.038 153.178 292.863C153.215 292.689 153.215 292.509 153.177 292.335C153.14 292.161 153.067 291.996 152.962 291.852C152.186 290.007 151.358 288.174 150.607 286.303C150.562 286.204 150.523 286.102 150.493 285.997C150.868 285.669 151.217 285.311 151.537 284.928Z" fill="#F2F1F1"/>
<path d="M136.289 297.542C136.24 297.38 136.147 297.234 136.021 297.122L135.767 296.931C135.57 296.814 135.346 296.753 135.118 296.752H134.787C134.574 296.804 134.38 296.914 134.227 297.071L133.272 298.038C133.146 298.146 133.054 298.287 133.005 298.445C132.928 298.595 132.889 298.761 132.89 298.929C132.889 299.101 132.928 299.271 133.005 299.425C133.057 299.582 133.149 299.722 133.272 299.833L133.527 300.036C133.721 300.146 133.94 300.203 134.163 300.202H134.507C134.719 300.142 134.912 300.028 135.067 299.871L136.021 298.916C136.139 298.797 136.233 298.656 136.296 298.501C136.359 298.346 136.391 298.18 136.39 298.013C136.4 297.849 136.365 297.686 136.289 297.542Z" fill="#F2F1F1"/>
<path d="M123.777 154.643C123.294 154.017 122.647 153.535 121.908 153.252C121.17 152.969 120.367 152.896 119.589 153.039C120.493 151.024 121.847 149.243 123.548 147.833C124.82 146.79 123 144.995 121.74 146.039C119.316 148.093 117.528 150.795 116.585 153.828C116.568 153.902 116.547 153.974 116.522 154.045C116.178 154.236 115.847 154.439 115.542 154.643C114.187 155.598 113.081 156.864 112.317 158.334C111.553 159.805 111.153 161.437 111.15 163.094C111.15 163.432 111.284 163.756 111.523 163.995C111.762 164.233 112.086 164.367 112.423 164.367C112.761 164.367 113.085 164.233 113.323 163.995C113.562 163.756 113.696 163.432 113.696 163.094C113.68 161.217 114.365 159.402 115.618 158.003L115.987 157.634C116.008 157.884 116.055 158.132 116.127 158.372C116.376 159.071 116.86 159.661 117.496 160.042C118.132 160.423 118.881 160.571 119.615 160.46C121.173 160.399 122.656 159.775 123.789 158.703C124.243 158.123 124.488 157.407 124.486 156.671C124.483 155.935 124.234 155.22 123.777 154.643ZM121.893 156.883C121.677 157.494 120.136 157.787 119.576 157.863C118.647 157.991 118.393 157.621 118.482 156.73C118.482 156.425 118.533 156.119 118.635 155.814C119.297 155.552 120.017 155.469 120.722 155.572C121.257 155.661 122.147 156.183 121.893 156.883Z" fill="#F2F1F1"/>
<path d="M96.0933 149.145C96.0188 148.453 95.7831 147.789 95.405 147.205C95.027 146.622 94.5173 146.135 93.9168 145.784C92.8476 145.097 91.3712 144.741 90.5947 143.748C90.2588 143.325 90.0377 142.823 89.953 142.29C89.8682 141.757 89.9227 141.212 90.1111 140.706C90.2005 140.38 90.1569 140.032 89.9898 139.738C89.8227 139.445 89.5459 139.23 89.2201 139.14C88.8943 139.051 88.5464 139.094 88.2528 139.261C87.9592 139.429 87.744 139.705 87.6545 140.031C87.2492 141.327 87.3142 142.724 87.8381 143.977C88.3619 145.23 89.3111 146.257 90.5184 146.879C91.0911 147.184 91.7021 147.439 92.2621 147.757C92.5178 147.892 92.7607 148.049 92.9876 148.228C93.0619 148.294 93.1301 148.366 93.1913 148.444L93.2676 148.559L93.3822 148.775C93.4113 148.846 93.4368 148.918 93.4586 148.992C93.4872 149.083 93.5084 149.177 93.5222 149.272C93.5222 149.272 93.5222 149.463 93.5222 149.488C93.5263 149.509 93.5263 149.531 93.5222 149.552V149.666C93.2188 149.771 92.9663 149.987 92.8153 150.27C92.6642 150.553 92.6258 150.883 92.7076 151.194C92.7518 151.355 92.8274 151.506 92.93 151.638C93.0326 151.77 93.1603 151.881 93.3057 151.964C93.4511 152.047 93.6114 152.1 93.7774 152.121C93.9434 152.141 94.1119 152.129 94.2732 152.085C94.8518 151.855 95.3412 151.445 95.669 150.915C95.9967 150.386 96.1455 149.765 96.0933 149.145Z" fill="#F2F1F1"/>
<path d="M286.684 186.616C285.933 185.967 284.342 185.343 284.52 184.071C284.699 182.798 286.239 181.716 287.231 181.054C288.593 180.163 287.321 177.948 285.959 178.865C283.897 180.227 281.3 182.543 282.14 185.331C282.59 186.478 283.415 187.438 284.482 188.055C284.724 188.22 285.589 188.767 285.577 189.124C285.577 189.276 285.208 189.442 285.055 189.531C283.12 190.524 280.867 191.109 280.893 193.782C281.081 195.122 281.512 196.416 282.166 197.601C282.446 198.288 282.827 199.548 281.987 199.943C280.498 200.617 281.784 202.806 283.26 202.132C285.526 201.101 285.195 198.161 284.342 196.277C283.935 195.386 282.84 193.731 283.744 192.891C284.529 192.35 285.386 191.921 286.29 191.618C288.517 190.613 288.517 188.195 286.684 186.616Z" fill="#F2F1F1"/>
<path d="M309.111 206.599C307.544 206.474 305.991 206.965 304.781 207.969C303.571 208.972 302.8 210.408 302.632 211.97C302.632 212.352 302.632 212.747 302.569 213.129C302.549 213.393 302.452 213.645 302.289 213.854C302.045 214.117 301.732 214.307 301.385 214.401C300.267 214.674 299.103 214.701 297.974 214.478C297.813 214.433 297.644 214.421 297.478 214.442C297.312 214.463 297.152 214.516 297.006 214.599C296.861 214.681 296.733 214.792 296.631 214.924C296.528 215.056 296.453 215.207 296.408 215.369C296.318 215.693 296.36 216.039 296.525 216.333C296.689 216.626 296.963 216.842 297.287 216.934C299.832 217.367 303.549 217.443 304.771 214.592C305.024 213.767 305.157 212.91 305.165 212.047C305.241 211.479 305.47 210.942 305.827 210.494C306.206 209.997 306.709 209.61 307.286 209.371C307.862 209.131 308.492 209.049 309.111 209.132C309.449 209.132 309.772 208.998 310.011 208.759C310.25 208.52 310.384 208.197 310.384 207.859C310.384 207.522 310.25 207.198 310.011 206.959C309.772 206.72 309.449 206.586 309.111 206.586V206.599Z" fill="#F2F1F1"/>
<path d="M294.881 261.407C294.837 261.245 294.761 261.094 294.658 260.962C294.556 260.83 294.428 260.719 294.283 260.637C294.137 260.554 293.977 260.501 293.811 260.48C293.645 260.459 293.476 260.471 293.315 260.516C291.194 261.038 289.3 262.235 287.918 263.927C287.691 264.174 287.56 264.495 287.549 264.83C287.554 265.167 287.686 265.49 287.918 265.734C288.037 265.853 288.178 265.948 288.333 266.013C288.488 266.077 288.654 266.111 288.822 266.111C288.99 266.111 289.157 266.077 289.312 266.013C289.467 265.948 289.607 265.853 289.726 265.734C290.018 265.359 290.342 265.01 290.693 264.69L290.948 264.461C290.995 264.435 291.038 264.4 291.075 264.36L291.177 264.283L291.304 264.194L291.622 263.978C292.031 263.735 292.456 263.523 292.895 263.341H293.022L293.353 263.214C293.583 263.139 293.817 263.075 294.053 263.023C294.215 262.973 294.364 262.89 294.494 262.781C294.623 262.672 294.729 262.539 294.806 262.388C294.883 262.238 294.929 262.074 294.942 261.905C294.955 261.736 294.934 261.567 294.881 261.407Z" fill="#F2F1F1"/>
<path d="M108.248 176.739C107.444 175.825 106.323 175.249 105.112 175.129C103.9 175.008 102.687 175.352 101.719 176.09C100.947 175.344 100.034 174.762 99.032 174.377C98.0305 173.992 96.9617 173.813 95.8894 173.85C94.5478 173.927 93.2415 174.31 92.071 174.97C90.9146 174.131 89.4998 173.725 88.0744 173.824C84.4723 174.155 82.3085 177.643 82.0285 180.939C81.8885 182.581 84.4341 182.569 84.5741 180.939C84.6046 179.95 84.9315 178.993 85.5125 178.192C86.0935 177.391 86.9018 176.783 87.8325 176.446C88.6186 176.256 89.4472 176.36 90.1618 176.739C89.815 177.308 89.6548 177.971 89.7036 178.636C89.7525 179.266 90.0464 179.852 90.5222 180.268C90.998 180.685 91.6179 180.898 92.2492 180.863C93.8275 180.787 94.3875 179.31 94.0948 177.936C94.0206 177.588 93.9053 177.25 93.7511 176.93C94.4552 176.579 95.2299 176.392 96.0167 176.383C96.8903 176.349 97.7587 176.53 98.5463 176.91C99.3339 177.289 100.017 177.855 100.535 178.559C100.648 178.749 100.808 178.907 101 179.016C101.192 179.125 101.409 179.183 101.63 179.183C101.851 179.183 102.068 179.125 102.26 179.016C102.452 178.907 102.612 178.749 102.724 178.559C102.942 178.274 103.222 178.043 103.543 177.884C103.864 177.725 104.218 177.643 104.576 177.643C104.935 177.643 105.288 177.725 105.61 177.884C105.931 178.043 106.211 178.274 106.428 178.559C107.472 179.832 109.267 178.012 108.248 176.739Z" fill="#F2F1F1"/>
</svg>
