<svg width="400" height="400" viewBox="0 0 400 400" fill="none" xmlns="http://www.w3.org/2000/svg">
<path d="M364.281 85.701C364.281 85.701 361.219 80.0506 356.36 72.2484C356.36 72.2484 340.756 83.9055 340.875 83.2587C340.994 82.6118 364.281 85.701 364.281 85.701Z" fill="#484646"/>
<path d="M364.281 86.3611H364.189C355.977 85.2654 342.578 83.6416 341.112 83.8396C340.729 83.998 340.611 83.9188 340.479 83.8396C340.365 83.7627 340.275 83.6545 340.221 83.528C340.168 83.4015 340.151 83.2622 340.175 83.1267C340.175 82.9419 340.254 82.7571 340.69 82.6515C341.588 82.295 350.512 75.7601 355.911 71.7204C355.984 71.6655 356.067 71.6265 356.156 71.606C356.245 71.5856 356.337 71.5841 356.426 71.6016C356.515 71.6162 356.6 71.6496 356.675 71.6997C356.751 71.7498 356.814 71.8154 356.862 71.892C361.733 79.6283 364.783 85.3314 364.862 85.3842C364.917 85.4849 364.945 85.5981 364.943 85.7129C364.941 85.8276 364.909 85.9398 364.85 86.0384C364.792 86.137 364.708 86.2187 364.609 86.2753C364.509 86.3319 364.396 86.3615 364.281 86.3611ZM343.159 82.6118C346.036 82.7703 351.726 83.3908 363.027 84.8826C361.931 82.9155 359.463 78.5985 356.083 73.2122C349.033 78.4929 345.271 81.2257 343.198 82.6118H343.159Z" fill="#484646"/>
<path d="M157.516 321.154L149.727 308.164L160.513 298.421L157.516 321.154Z" fill="#484646"/>
<path d="M157.516 321.814C157.403 321.812 157.292 321.782 157.193 321.727C157.094 321.672 157.01 321.593 156.949 321.497L149.16 308.507C149.081 308.374 149.052 308.219 149.076 308.067C149.1 307.915 149.176 307.777 149.292 307.675L160.064 297.932C160.165 297.841 160.291 297.784 160.426 297.767C160.561 297.751 160.697 297.776 160.817 297.84C160.935 297.905 161.031 298.004 161.092 298.124C161.153 298.244 161.177 298.379 161.16 298.513L158.177 321.207C158.16 321.345 158.099 321.474 158.005 321.576C157.91 321.678 157.785 321.748 157.648 321.774L157.516 321.814ZM150.572 308.296L157.173 319.187L159.682 300.11L150.572 308.296Z" fill="#484646"/>
<path d="M162.572 323.847L287.989 341.709C290.561 342.05 293.171 341.462 295.348 340.051C297.526 338.64 299.13 336.499 299.871 334.012L364.77 91.2325C366.09 86.2027 362.882 81.7801 357.562 81.3444L229.677 71.0339C227.149 70.9097 224.652 71.6388 222.589 73.104C220.525 74.5693 219.013 76.6857 218.297 79.1133L156.024 313.867C155.701 314.956 155.62 316.103 155.785 317.227C155.951 318.351 156.359 319.426 156.983 320.376C157.606 321.326 158.429 322.129 159.395 322.729C160.36 323.328 161.444 323.71 162.572 323.847Z" fill="#484646"/>
<path d="M289.375 342.514C288.867 342.512 288.36 342.476 287.857 342.409L162.44 324.534C161.227 324.384 160.06 323.976 159.019 323.336C157.978 322.696 157.087 321.839 156.407 320.824C155.73 319.781 155.285 318.605 155.1 317.375C154.916 316.146 154.997 314.891 155.337 313.695L217.61 78.9814C218.372 76.4029 219.975 74.1539 222.165 72.5937C224.355 71.0335 227.004 70.2519 229.69 70.3738L357.575 80.6844C358.871 80.7616 360.135 81.1234 361.276 81.744C362.416 82.3646 363.407 83.2288 364.176 84.2753C364.883 85.3043 365.352 86.4782 365.549 87.7115C365.745 88.9447 365.664 90.2063 365.311 91.4042L300.411 334.184C299.705 336.571 298.252 338.668 296.265 340.167C294.279 341.667 291.864 342.49 289.375 342.514ZM162.638 323.227L288.055 341.102C290.473 341.424 292.927 340.875 294.976 339.551C297.025 338.228 298.536 336.217 299.236 333.88L364.083 91.1138C364.389 90.1022 364.464 89.0347 364.302 87.9904C364.139 86.9461 363.744 85.9516 363.146 85.0806C362.485 84.184 361.633 83.4462 360.651 82.9209C359.669 82.3956 358.582 82.0961 357.469 82.0442L229.584 71.694C227.207 71.5691 224.857 72.2509 222.916 73.6288C220.975 75.0066 219.557 76.9998 218.891 79.285L156.658 314.038C156.363 315.053 156.289 316.119 156.442 317.164C156.594 318.21 156.97 319.21 157.542 320.098C158.124 320.954 158.881 321.677 159.765 322.216C160.648 322.756 161.637 323.1 162.664 323.227H162.638Z" fill="#484646"/>
<path d="M154.413 310.487L279.83 328.349C282.401 328.684 285.008 328.094 287.185 326.684C289.361 325.274 290.965 323.136 291.711 320.652L356.598 77.8724C357.918 72.8426 354.71 68.42 349.39 67.9843L221.478 57.6738C218.949 57.5513 216.451 58.2808 214.386 59.7456C212.32 61.2104 210.806 63.3258 210.085 65.7532L147.852 300.467C147.522 301.56 147.435 302.712 147.598 303.842C147.761 304.972 148.17 306.052 148.795 307.007C149.421 307.963 150.248 308.769 151.218 309.37C152.189 309.971 153.279 310.353 154.413 310.487Z" fill="white"/>
<path d="M281.216 329.128C280.708 329.126 280.201 329.09 279.698 329.022L154.281 311.147C153.069 310.998 151.902 310.589 150.861 309.949C149.82 309.309 148.929 308.452 148.248 307.437C147.571 306.395 147.125 305.219 146.94 303.989C146.756 302.759 146.837 301.504 147.179 300.308L209.465 65.5948C210.227 63.0188 211.832 60.7731 214.022 59.2172C216.212 57.6614 218.861 56.8855 221.544 57.0137L349.403 67.3242C350.711 67.3928 351.987 67.7505 353.14 68.3714C354.292 68.9923 355.293 69.861 356.07 70.9151C356.774 71.9457 357.241 73.1196 357.437 74.3522C357.634 75.5849 357.554 76.8457 357.205 78.044L292.306 320.824C291.592 323.214 290.129 325.312 288.132 326.807C286.135 328.302 283.711 329.116 281.216 329.128ZM220.713 58.3074C218.466 58.3697 216.297 59.1396 214.514 60.5075C212.732 61.8754 211.426 63.7713 210.785 65.9248L148.499 300.639C148.204 301.653 148.131 302.719 148.283 303.764C148.436 304.81 148.811 305.81 149.384 306.698C149.965 307.555 150.723 308.277 151.606 308.817C152.49 309.356 153.478 309.701 154.506 309.827L279.922 327.702C282.334 328.015 284.779 327.46 286.82 326.137C288.86 324.815 290.365 322.81 291.065 320.481L355.925 77.714C356.228 76.7021 356.301 75.6352 356.139 74.5913C355.977 73.5475 355.583 72.5531 354.987 71.6808C354.325 70.7826 353.471 70.0437 352.486 69.5184C351.502 68.993 350.412 68.6944 349.298 68.6444L221.425 58.3338L220.713 58.3074Z" fill="#484646"/>
<path d="M344.175 93.8465L213.254 82.5062L163.021 271.898L292.028 289.047L344.175 93.8465Z" fill="#FF931E"/>
<path d="M286.748 262.948C286.623 262.948 286.5 262.912 286.394 262.844C286.289 262.776 286.205 262.679 286.154 262.565L259.751 206.735C259.713 206.656 259.691 206.57 259.686 206.483C259.682 206.396 259.695 206.308 259.724 206.226C259.754 206.144 259.799 206.068 259.858 206.004C259.917 205.939 259.988 205.887 260.067 205.85C260.225 205.778 260.405 205.77 260.568 205.83C260.731 205.889 260.864 206.01 260.939 206.167L287.342 262.01C287.38 262.088 287.401 262.173 287.406 262.259C287.41 262.345 287.397 262.432 287.368 262.513C287.338 262.594 287.293 262.668 287.234 262.732C287.175 262.795 287.104 262.846 287.025 262.882C286.938 262.922 286.844 262.944 286.748 262.948Z" fill="white"/>
<path d="M206.231 309.074L230.707 312.52C232.261 312.711 233.833 312.344 235.142 311.483C236.45 310.622 237.41 309.324 237.849 307.82L240.278 298.698C240.481 298.005 240.53 297.276 240.419 296.563C240.309 295.849 240.042 295.169 239.639 294.57C239.236 293.971 238.705 293.469 238.085 293.098C237.466 292.728 236.772 292.499 236.053 292.427L211.551 289.1C210.011 288.932 208.461 289.311 207.173 290.17C205.884 291.029 204.938 292.314 204.501 293.8L202.085 302.843C201.882 303.528 201.831 304.249 201.937 304.955C202.043 305.661 202.303 306.335 202.699 306.93C203.094 307.524 203.616 308.024 204.226 308.395C204.836 308.766 205.521 308.998 206.231 309.074Z" fill="white"/>
<path d="M231.525 313.286C231.22 313.29 230.916 313.268 230.614 313.22L206.138 309.787C205.336 309.695 204.564 309.428 203.876 309.006C203.188 308.584 202.6 308.017 202.154 307.345C201.708 306.672 201.413 305.91 201.292 305.112C201.171 304.314 201.225 303.499 201.452 302.724L203.854 293.681C204.335 292.039 205.38 290.62 206.805 289.673C208.23 288.726 209.944 288.313 211.643 288.506L236.146 291.82C236.961 291.916 237.746 292.186 238.447 292.612C239.149 293.038 239.751 293.61 240.212 294.288C240.653 294.966 240.943 295.73 241.064 296.53C241.184 297.329 241.132 298.145 240.912 298.922L238.509 308.005C238.07 309.521 237.153 310.854 235.895 311.806C234.636 312.758 233.103 313.277 231.525 313.286ZM206.323 308.48L230.799 311.913C232.192 312.082 233.6 311.752 234.773 310.981C235.945 310.21 236.806 309.048 237.202 307.701L239.644 298.579C239.813 297.981 239.853 297.355 239.762 296.74C239.671 296.126 239.451 295.538 239.116 295.015C238.756 294.495 238.29 294.059 237.748 293.733C237.206 293.408 236.602 293.201 235.974 293.127L211.459 289.813C210.079 289.655 208.687 289.989 207.53 290.757C206.373 291.525 205.525 292.678 205.135 294.011L202.732 303.068C202.552 303.661 202.505 304.288 202.595 304.902C202.685 305.516 202.909 306.103 203.252 306.62C203.596 307.137 204.049 307.572 204.58 307.894C205.11 308.215 205.706 308.416 206.323 308.48Z" fill="#F2F1F1"/>
<path d="M305.441 77.5687L268.04 74.4399C267.954 74.4321 267.869 74.4073 267.792 74.3669C267.715 74.3265 267.647 74.2714 267.591 74.2046C267.535 74.1378 267.493 74.0606 267.467 73.9775C267.441 73.8945 267.432 73.8071 267.44 73.7204C267.447 73.6337 267.472 73.5494 267.513 73.4723C267.553 73.3952 267.608 73.3268 267.675 73.2711C267.742 73.2153 267.819 73.1732 267.902 73.1472C267.985 73.1213 268.073 73.1119 268.159 73.1197L305.546 76.2353C305.722 76.2353 305.889 76.3049 306.013 76.4287C306.137 76.5525 306.207 76.7204 306.207 76.8954C306.207 77.0705 306.137 77.2384 306.013 77.3622C305.889 77.486 305.722 77.5555 305.546 77.5555L305.441 77.5687Z" fill="#D1D1D1"/>
<path d="M262.853 74.0043L257.889 73.5951C257.802 73.5885 257.718 73.5647 257.641 73.525C257.565 73.4854 257.496 73.4307 257.441 73.3642C257.386 73.2977 257.344 73.2208 257.319 73.138C257.294 73.0552 257.286 72.9682 257.295 72.8822C257.311 72.7083 257.395 72.5476 257.528 72.4343C257.661 72.321 257.833 72.2638 258.007 72.2749L262.958 72.6974C263.133 72.6974 263.301 72.7669 263.425 72.8907C263.549 73.0145 263.618 73.1824 263.618 73.3575C263.618 73.5325 263.549 73.7004 263.425 73.8242C263.301 73.948 263.133 74.0175 262.958 74.0175L262.853 74.0043Z" fill="#D1D1D1"/>
<path d="M299.58 198.352C299.58 198.352 315.659 145.333 301.718 133.584L233.492 125.372C233.492 125.372 221.795 137.558 220.105 146.918C218.415 156.278 204.263 176.212 209.544 188.107L299.58 198.352Z" fill="#484646"/>
<path d="M299.58 199.012H299.514L209.465 188.754C209.351 188.74 209.243 188.698 209.151 188.631C209.059 188.564 208.985 188.474 208.936 188.371C205.28 180.107 210.626 168.186 214.93 158.601C217.056 153.875 218.891 149.782 219.419 146.799C221.122 137.346 232.488 125.412 232.977 124.91C233.048 124.837 233.135 124.78 233.231 124.746C233.327 124.712 233.43 124.7 233.531 124.712L301.758 132.937C301.883 132.954 302.002 133.004 302.101 133.082C316.214 144.964 300.781 196.371 300.174 198.549C300.133 198.678 300.055 198.791 299.949 198.874C299.843 198.956 299.714 199.004 299.58 199.012ZM210.045 187.486L299.104 197.639C300.715 192.12 313.903 145.175 301.441 134.27L233.743 126.112C232.132 127.854 222.257 138.732 220.752 147.089C220.184 150.231 218.323 154.39 216.171 159.195C212.105 168.344 206.917 179.763 210.045 187.486Z" fill="#484646"/>
<path d="M306.023 199.909H305.93L191.907 183.909C191.736 183.883 191.582 183.791 191.479 183.652C191.375 183.514 191.33 183.341 191.352 183.169C191.375 182.996 191.466 182.839 191.605 182.733C191.743 182.626 191.918 182.579 192.092 182.602L306.115 198.602C306.289 198.629 306.446 198.722 306.553 198.863C306.659 199.003 306.705 199.18 306.683 199.355C306.655 199.51 306.574 199.65 306.453 199.752C306.333 199.853 306.18 199.909 306.023 199.909Z" fill="#484646"/>
<path d="M301.718 133.584C301.718 133.584 294.8 134.534 290.563 148.924C284.081 170.945 275.539 217.415 270.14 234.894C262.219 260.32 241.096 263.938 241.096 263.938L151.786 250.987C151.786 250.987 188.13 238.392 194.269 216.979C200.725 194.417 209.662 151.789 212.078 142.27C216.342 125.412 233.531 125.412 233.531 125.412L301.718 133.584Z" fill="white"/>
<path d="M241.057 264.558H240.964L151.655 251.607C151.508 251.585 151.372 251.514 151.27 251.407C151.167 251.299 151.103 251.161 151.087 251.013C151.073 250.867 151.108 250.719 151.187 250.595C151.266 250.47 151.384 250.376 151.523 250.327C151.892 250.208 187.629 237.587 193.597 216.755C198.072 201.111 203.815 175.526 207.604 158.588C209.307 150.997 210.653 144.99 211.393 142.072C215.736 124.91 233.321 124.712 233.492 124.712L301.798 132.937C301.957 132.956 302.103 133.032 302.21 133.151C302.317 133.27 302.377 133.424 302.379 133.584C302.378 133.743 302.32 133.897 302.216 134.018C302.112 134.139 301.969 134.219 301.811 134.244C301.706 134.244 295.21 135.445 291.25 149.109C287.963 160.251 284.174 177.625 280.49 194.431C276.9 210.893 273.494 226.445 270.827 235.092C266.708 248.412 258.945 255.713 253.057 259.489C249.448 261.906 245.418 263.626 241.176 264.558H241.057ZM154.361 250.67L241.044 263.238C242.588 262.921 262.166 258.551 269.507 234.696C272.147 226.101 275.566 210.576 279.157 194.153C282.827 177.321 286.642 159.921 289.93 148.739C292.715 139.3 296.649 135.538 299.171 133.94L233.413 126.019C232.806 126.019 216.766 126.244 212.673 142.402C211.947 145.294 210.6 151.287 208.897 158.878C205.095 175.829 199.353 201.441 194.864 217.124C191.63 228.385 180.118 237.165 171.022 242.538C165.68 245.662 160.111 248.381 154.361 250.67Z" fill="#484646"/>
<path d="M258.787 236.438H258.707L246.628 235.118C246.455 235.098 246.297 235.011 246.188 234.875C246.079 234.739 246.028 234.565 246.047 234.392C246.055 234.306 246.08 234.222 246.122 234.146C246.163 234.069 246.219 234.002 246.287 233.948C246.355 233.894 246.432 233.854 246.516 233.83C246.599 233.807 246.687 233.8 246.773 233.811L258.866 235.131C259.039 235.151 259.197 235.239 259.306 235.375C259.415 235.511 259.465 235.684 259.447 235.858C259.424 236.017 259.346 236.164 259.224 236.271C259.103 236.377 258.948 236.437 258.787 236.438Z" fill="#D1D1D1"/>
<path d="M236.884 233.957H236.805L200.646 229.851C200.473 229.831 200.314 229.743 200.206 229.607C200.097 229.471 200.046 229.298 200.065 229.125C200.073 229.038 200.098 228.954 200.14 228.878C200.181 228.802 200.237 228.735 200.305 228.68C200.372 228.626 200.45 228.586 200.534 228.563C200.617 228.539 200.705 228.533 200.791 228.544L236.964 232.636C237.139 232.647 237.302 232.726 237.419 232.858C237.535 232.989 237.595 233.161 237.584 233.336C237.574 233.511 237.494 233.675 237.363 233.791C237.232 233.908 237.06 233.967 236.884 233.957Z" fill="#D1D1D1"/>
<path d="M247.987 250.234H247.908L236.806 248.914C236.719 248.904 236.635 248.876 236.559 248.834C236.483 248.791 236.416 248.733 236.362 248.665C236.308 248.596 236.268 248.518 236.245 248.433C236.221 248.349 236.214 248.262 236.225 248.175C236.235 248.088 236.262 248.004 236.305 247.928C236.348 247.852 236.405 247.785 236.474 247.731C236.543 247.677 236.621 247.637 236.705 247.614C236.789 247.59 236.877 247.584 236.964 247.594L248.067 248.914C248.153 248.919 248.238 248.942 248.316 248.98C248.394 249.018 248.464 249.07 248.522 249.135C248.579 249.2 248.624 249.276 248.652 249.358C248.68 249.44 248.692 249.527 248.687 249.614C248.682 249.701 248.66 249.785 248.622 249.863C248.584 249.942 248.531 250.011 248.466 250.069C248.401 250.127 248.325 250.171 248.243 250.199C248.161 250.228 248.074 250.24 247.987 250.234Z" fill="#D1D1D1"/>
<path d="M224.502 247.568H224.423L189.848 243.607C189.673 243.588 189.512 243.5 189.402 243.362C189.292 243.225 189.241 243.049 189.26 242.874C189.28 242.699 189.368 242.539 189.505 242.429C189.642 242.319 189.818 242.268 189.993 242.287L224.582 246.247C224.755 246.267 224.913 246.355 225.022 246.491C225.13 246.627 225.181 246.8 225.162 246.973C225.143 247.136 225.066 247.285 224.944 247.395C224.823 247.504 224.666 247.565 224.502 247.568Z" fill="#D1D1D1"/>
<path d="M241.056 263.898C235.832 259.071 231.814 253.085 229.326 246.422C226.838 239.758 225.95 232.603 226.732 225.534L133 208.622C133 208.622 141.04 240.003 151.733 250.947L241.056 263.898Z" fill="white"/>
<path d="M241.056 264.558H240.964L151.654 251.607C151.509 251.582 151.376 251.513 151.271 251.409C140.578 240.465 132.697 210.075 132.367 208.781C132.339 208.675 132.339 208.563 132.367 208.457C132.395 208.35 132.449 208.253 132.525 208.174C132.6 208.09 132.695 208.026 132.801 207.989C132.907 207.952 133.021 207.943 133.132 207.962L226.865 224.874C227.026 224.909 227.17 225.002 227.267 225.136C227.365 225.27 227.409 225.435 227.393 225.6C226.652 232.562 227.541 239.6 229.988 246.16C232.435 252.719 236.373 258.62 241.492 263.396C241.602 263.48 241.683 263.596 241.722 263.729C241.761 263.862 241.757 264.003 241.709 264.133C241.662 264.263 241.575 264.374 241.459 264.451C241.344 264.527 241.208 264.565 241.07 264.558H241.056ZM152.063 250.327L239.089 262.948C234.368 258.116 230.752 252.316 228.494 245.95C226.235 239.583 225.386 232.802 226.006 226.075L133.911 209.454C135.39 214.854 142.756 240.597 152.063 250.327Z" fill="#484646"/>
<path d="M278.18 154.165H278.114L220.026 147.564C219.939 147.556 219.854 147.531 219.776 147.489C219.699 147.446 219.631 147.389 219.577 147.32C219.522 147.251 219.483 147.171 219.46 147.086C219.438 147.001 219.433 146.912 219.446 146.825C219.465 146.652 219.553 146.494 219.689 146.385C219.825 146.276 219.998 146.226 220.172 146.244L278.259 152.845C278.434 152.854 278.599 152.932 278.716 153.062C278.834 153.192 278.895 153.363 278.886 153.538C278.878 153.713 278.8 153.878 278.67 153.995C278.54 154.113 278.368 154.174 278.193 154.165H278.18Z" fill="#D1D1D1"/>
<path d="M275.751 169.11H275.672L264.767 167.869C264.68 167.858 264.597 167.831 264.521 167.788C264.444 167.745 264.378 167.688 264.324 167.619C264.27 167.551 264.23 167.472 264.206 167.388C264.183 167.304 264.176 167.216 264.186 167.129C264.197 167.043 264.224 166.959 264.267 166.883C264.31 166.807 264.367 166.74 264.436 166.686C264.504 166.632 264.583 166.592 264.667 166.568C264.751 166.545 264.839 166.538 264.926 166.548L275.817 167.776C275.904 167.781 275.989 167.802 276.067 167.839C276.145 167.876 276.216 167.929 276.274 167.993C276.332 168.057 276.377 168.132 276.406 168.214C276.436 168.296 276.448 168.383 276.444 168.469C276.44 168.556 276.418 168.641 276.381 168.719C276.344 168.798 276.292 168.868 276.227 168.926C276.163 168.985 276.088 169.03 276.006 169.059C275.924 169.088 275.838 169.101 275.751 169.096V169.11Z" fill="#D1D1D1"/>
<path d="M252.634 166.482L217.676 162.522C217.501 162.503 217.341 162.415 217.231 162.277C217.12 162.14 217.069 161.964 217.089 161.789C217.108 161.614 217.196 161.454 217.333 161.344C217.471 161.234 217.646 161.182 217.821 161.202L252.779 165.162C252.866 165.167 252.951 165.19 253.029 165.228C253.107 165.266 253.177 165.319 253.235 165.384C253.292 165.449 253.337 165.524 253.365 165.606C253.393 165.688 253.405 165.775 253.4 165.862C253.395 165.949 253.373 166.033 253.335 166.112C253.297 166.19 253.244 166.259 253.179 166.317C253.114 166.375 253.038 166.419 252.956 166.447C252.874 166.476 252.787 166.488 252.7 166.482H252.634Z" fill="#D1D1D1"/>
<path d="M272.16 183.037H272.081L254.113 181.004C253.939 180.981 253.781 180.891 253.672 180.753C253.564 180.615 253.513 180.44 253.532 180.265C253.555 180.091 253.646 179.933 253.784 179.824C253.922 179.716 254.097 179.666 254.271 179.684L272.226 181.731C272.312 181.739 272.396 181.764 272.472 181.805C272.549 181.847 272.616 181.903 272.67 181.97C272.724 182.038 272.764 182.116 272.788 182.2C272.811 182.283 272.818 182.371 272.807 182.457C272.788 182.615 272.711 182.762 272.592 182.869C272.473 182.975 272.32 183.035 272.16 183.037Z" fill="#D1D1D1"/>
<path d="M236.885 179.037H236.806L214.019 176.397C213.933 176.387 213.849 176.361 213.772 176.319C213.696 176.277 213.628 176.22 213.574 176.152C213.519 176.084 213.479 176.006 213.454 175.922C213.43 175.839 213.422 175.751 213.432 175.664C213.441 175.578 213.468 175.494 213.51 175.417C213.552 175.341 213.609 175.273 213.677 175.219C213.745 175.164 213.823 175.124 213.907 175.099C213.99 175.075 214.078 175.067 214.165 175.077L236.964 177.651C237.138 177.674 237.296 177.764 237.405 177.903C237.513 178.041 237.564 178.216 237.545 178.39C237.538 178.562 237.466 178.725 237.343 178.845C237.221 178.965 237.057 179.034 236.885 179.037Z" fill="#D1D1D1"/>
<path d="M269.097 196.226H269.018L254.034 194.47C253.86 194.447 253.702 194.357 253.593 194.219C253.485 194.081 253.435 193.906 253.453 193.731C253.48 193.558 253.571 193.402 253.708 193.294C253.845 193.186 254.019 193.135 254.193 193.15L269.163 194.853C269.339 194.862 269.503 194.94 269.621 195.07C269.738 195.2 269.799 195.371 269.791 195.546C269.782 195.721 269.704 195.886 269.574 196.003C269.444 196.121 269.273 196.182 269.097 196.173V196.226Z" fill="#D1D1D1"/>
<path d="M238.126 192.714H238.046L210.943 189.638C210.77 189.618 210.612 189.531 210.503 189.395C210.394 189.259 210.344 189.085 210.362 188.912C210.386 188.738 210.476 188.58 210.614 188.471C210.752 188.363 210.927 188.313 211.102 188.331L238.192 191.407C238.367 191.407 238.535 191.477 238.658 191.601C238.782 191.724 238.852 191.892 238.852 192.067C238.852 192.243 238.782 192.41 238.658 192.534C238.535 192.658 238.367 192.728 238.192 192.728L238.126 192.714Z" fill="#D1D1D1"/>
<path d="M265.915 210.827L252.621 209.322C252.448 209.302 252.29 209.215 252.181 209.079C252.072 208.943 252.021 208.769 252.04 208.596C252.048 208.51 252.074 208.426 252.115 208.349C252.156 208.273 252.212 208.206 252.28 208.152C252.348 208.097 252.426 208.057 252.509 208.034C252.593 208.011 252.68 208.004 252.766 208.015L266.06 209.52C266.235 209.531 266.399 209.61 266.515 209.741C266.632 209.873 266.691 210.045 266.681 210.22C266.67 210.395 266.591 210.559 266.459 210.675C266.328 210.791 266.156 210.851 265.981 210.84L265.915 210.827Z" fill="#D1D1D1"/>
<path d="M244.33 208.385H244.251L207.775 204.239C207.602 204.22 207.444 204.132 207.335 203.996C207.226 203.86 207.175 203.687 207.194 203.513C207.202 203.427 207.228 203.343 207.269 203.267C207.31 203.19 207.366 203.123 207.434 203.069C207.502 203.015 207.58 202.975 207.663 202.951C207.747 202.928 207.834 202.921 207.92 202.932L244.396 207.065C244.572 207.073 244.736 207.151 244.854 207.281C244.971 207.411 245.032 207.583 245.024 207.758C245.015 207.933 244.937 208.097 244.807 208.215C244.677 208.332 244.505 208.394 244.33 208.385Z" fill="#D1D1D1"/>
<path d="M262.562 222.643H262.483L246.641 220.847C246.468 220.827 246.31 220.74 246.201 220.604C246.092 220.468 246.042 220.294 246.06 220.121C246.068 220.035 246.094 219.951 246.135 219.875C246.176 219.798 246.232 219.731 246.3 219.677C246.368 219.623 246.446 219.583 246.529 219.559C246.613 219.536 246.7 219.529 246.786 219.54L262.628 221.336C262.803 221.346 262.967 221.426 263.083 221.557C263.2 221.688 263.259 221.86 263.249 222.035C263.238 222.21 263.159 222.374 263.027 222.491C262.896 222.607 262.724 222.666 262.549 222.656L262.562 222.643Z" fill="#D1D1D1"/>
<path d="M239.552 220.042L204.488 216.081C204.313 216.062 204.153 215.974 204.042 215.837C203.932 215.699 203.881 215.524 203.9 215.349C203.92 215.174 204.008 215.013 204.145 214.903C204.283 214.793 204.458 214.742 204.633 214.761L239.697 218.722C239.872 218.732 240.036 218.812 240.152 218.943C240.268 219.074 240.328 219.246 240.317 219.421C240.307 219.596 240.227 219.76 240.096 219.877C239.965 219.993 239.793 220.052 239.618 220.042H239.552Z" fill="#D1D1D1"/>
<path d="M57.2181 134.249L87.5238 199.388C90.0335 204.782 96.441 207.121 101.835 204.611L201.794 158.106C207.189 155.596 209.527 149.188 207.017 143.794L176.712 78.655C174.202 73.2607 167.794 70.9223 162.4 73.432L62.4412 119.937C57.0469 122.447 54.7084 128.855 57.2181 134.249Z" fill="white"/>
<path d="M97.3158 206.352C95.137 206.355 93.0027 205.735 91.1643 204.565C89.326 203.396 87.86 201.725 86.9392 199.751L56.5752 134.613C55.2983 131.865 55.165 128.722 56.2048 125.875C57.2445 123.028 59.3721 120.71 62.1199 119.431L162.083 72.9218C164.832 71.6448 167.975 71.5116 170.822 72.5513C173.669 73.5911 175.987 75.7187 177.265 78.4665L207.563 143.604C208.198 144.964 208.558 146.435 208.624 147.935C208.689 149.434 208.458 150.931 207.944 152.341C207.431 153.751 206.644 155.046 205.63 156.152C204.615 157.258 203.393 158.153 202.032 158.786L102.068 205.296C100.579 205.987 98.9577 206.347 97.3158 206.352ZM166.942 73.0934C165.474 73.0944 164.023 73.4142 162.691 74.0307L62.7272 120.54C60.2986 121.673 58.4186 123.723 57.5003 126.24C56.582 128.757 56.7003 131.536 57.8294 133.967L88.1934 199.117C89.3284 201.547 91.3807 203.427 93.9003 204.345C96.4198 205.263 99.2006 205.145 101.633 204.015L201.543 157.505C203.972 156.373 205.852 154.323 206.77 151.806C207.689 149.288 207.57 146.509 206.441 144.079L176.077 78.9286C175.264 77.1901 173.974 75.7186 172.356 74.6855C170.739 73.6524 168.861 73.1003 166.942 73.0934Z" fill="#484646"/>
<path d="M144.647 104.614L152.293 121.049C154.108 124.949 158.741 126.64 162.641 124.825L174.276 119.412C178.176 117.598 179.867 112.965 178.052 109.064L170.406 92.63C168.591 88.7297 163.959 87.0389 160.058 88.8535L148.424 94.2664C144.523 96.081 142.833 100.714 144.647 104.614Z" fill="#FF931E"/>
<path d="M73.0352 129.336C70.6355 130.452 69.5952 133.303 70.7117 135.702C71.8281 138.102 74.6785 139.142 77.0782 138.026L99.4735 127.606C101.873 126.49 102.913 123.64 101.797 121.24C100.681 118.84 97.8302 117.8 95.4305 118.916L73.0352 129.336Z" fill="#D1D1D1"/>
<path d="M169.746 146.767L171.89 151.375C172.453 152.585 173.89 153.11 175.1 152.547L191.953 144.706C193.163 144.143 193.687 142.706 193.124 141.496L190.98 136.888C190.417 135.678 188.98 135.154 187.771 135.717L170.917 143.557C169.708 144.12 169.183 145.557 169.746 146.767Z" fill="#D1D1D1"/>
<path d="M144.022 158.748L146.166 163.356C146.729 164.566 148.166 165.09 149.376 164.527L166.229 156.686C167.439 156.124 167.963 154.687 167.401 153.477L165.257 148.869C164.694 147.659 163.257 147.134 162.047 147.697L145.194 155.538C143.984 156.101 143.459 157.538 144.022 158.748Z" fill="#D1D1D1"/>
<path d="M118.281 170.709L120.425 175.317C120.988 176.527 122.425 177.051 123.635 176.489L140.488 168.648C141.698 168.085 142.222 166.648 141.66 165.438L139.516 160.83C138.953 159.62 137.516 159.096 136.306 159.658L119.453 167.499C118.243 168.062 117.719 169.499 118.281 170.709Z" fill="#D1D1D1"/>
<path d="M92.5577 182.676L94.7017 187.285C95.2646 188.495 96.7015 189.019 97.9113 188.456L114.765 180.615C115.974 180.052 116.499 178.615 115.936 177.406L113.792 172.797C113.229 171.588 111.792 171.063 110.582 171.626L93.7291 179.467C92.5193 180.03 91.9949 181.467 92.5577 182.676Z" fill="#D1D1D1"/>
<path d="M280.266 123.181C280.155 123.182 280.046 123.154 279.949 123.101C279.852 123.048 279.77 122.971 279.711 122.877L262.008 95.1534C261.924 95.0066 261.9 94.8333 261.94 94.6691C261.98 94.5049 262.082 94.3625 262.224 94.2711C262.366 94.1797 262.538 94.1463 262.704 94.1778C262.87 94.2094 263.018 94.3034 263.116 94.4405L280.82 122.164C280.914 122.311 280.946 122.49 280.909 122.661C280.872 122.831 280.769 122.98 280.622 123.075C280.517 123.148 280.393 123.185 280.266 123.181Z" fill="white"/>
<path d="M226.732 115.128C226.61 115.128 226.49 115.095 226.386 115.032C226.281 114.969 226.196 114.879 226.138 114.771L217.095 97.3053C217.054 97.2293 217.029 97.1458 217.02 97.0598C217.012 96.9738 217.021 96.887 217.047 96.8046C217.073 96.7221 217.115 96.6457 217.171 96.5798C217.227 96.5139 217.295 96.4598 217.372 96.4208C217.449 96.3795 217.534 96.3539 217.621 96.3455C217.708 96.3371 217.796 96.346 217.879 96.3718C217.963 96.3976 218.04 96.4397 218.107 96.4957C218.174 96.5517 218.23 96.6205 218.27 96.6981L227.313 114.164C227.393 114.32 227.409 114.501 227.357 114.669C227.305 114.837 227.19 114.978 227.036 115.062C226.939 115.101 226.837 115.123 226.732 115.128Z" fill="white"/>
<path d="M79.2556 217.481L73.7241 223.831C70.1993 228.24 58.991 225.151 48.72 216.9C38.4491 208.649 32.9572 198.431 36.5216 194.008L42.0664 187.658L79.2556 217.481Z" fill="white"/>
<path d="M68.4967 226.511C63.216 226.511 55.5985 223.25 48.298 217.415C43.6644 213.84 39.7722 209.396 36.8389 204.332C34.3966 199.751 34.0929 195.949 35.9676 193.599L41.5255 187.222C41.6377 187.094 41.7952 187.014 41.965 187C42.1348 186.985 42.3037 187.036 42.4364 187.143L79.6653 216.913C79.7368 216.966 79.7961 217.033 79.8394 217.11C79.8827 217.188 79.9089 217.274 79.9162 217.362C79.9306 217.543 79.8738 217.723 79.7577 217.864L74.213 224.214C73.4993 225.008 72.6128 225.628 71.6218 226.027C70.6308 226.425 69.5617 226.59 68.4967 226.511ZM42.0932 188.569L36.9841 194.47C35.4923 196.332 35.862 199.751 38.0006 203.711C40.8479 208.625 44.6285 212.935 49.1297 216.398C58.9386 224.319 69.962 227.475 73.2097 223.435L78.3055 217.573L42.0932 188.569Z" fill="#484646"/>
<path d="M79.2517 217.47C82.7794 213.065 77.3026 202.818 67.019 194.582C56.7353 186.346 45.539 183.24 42.0113 187.645C38.4836 192.05 43.9605 202.297 54.2441 210.533C64.5277 218.769 75.724 221.875 79.2517 217.47Z" fill="white"/>
<path d="M74.0283 220.147C68.7476 220.147 61.117 216.887 53.8428 211.065C49.202 207.494 45.3046 203.049 42.3705 197.982C39.9282 193.401 39.6246 189.599 41.5124 187.249C43.3871 184.899 47.176 184.358 52.1662 185.744C57.7523 187.498 62.9412 190.328 67.4406 194.074C78.1736 202.668 83.5863 213.124 79.771 217.837C79.0539 218.635 78.1634 219.259 77.1679 219.659C76.1724 220.06 75.0984 220.227 74.0283 220.147ZM47.242 186.325C46.378 186.243 45.5066 186.357 44.6929 186.659C43.8792 186.961 43.144 187.442 42.5421 188.067C41.0239 189.955 41.3936 193.348 43.5455 197.308C46.3889 202.221 50.1649 206.531 54.6613 209.995C64.4702 217.916 75.5069 221.072 78.7413 217.032C81.9757 212.992 76.431 202.919 66.6089 195.064C62.2521 191.429 57.224 188.683 51.8098 186.985C50.3243 186.558 48.7875 186.336 47.242 186.325Z" fill="#484646"/>
<path d="M51.9806 191.275L54.3966 193.572H54.6738C55.4527 193.718 56.192 193.823 56.9841 194.021C59.0656 194.578 61.0321 195.499 62.7929 196.741C63.8938 197.488 64.8923 198.375 65.7633 199.381C66.3106 199.926 66.675 200.627 66.8062 201.388C66.8331 201.657 66.7767 201.928 66.6444 202.164C66.5122 202.4 66.3106 202.59 66.0669 202.708C65.684 202.972 65.2616 203.21 64.8391 203.474L69.3805 207.791C70.1594 207.236 69.8162 206.299 68.7468 205.15L71.5324 204.675C72.3797 205.41 73.071 206.308 73.5655 207.315C73.7754 207.694 73.8663 208.127 73.8262 208.558C73.7862 208.989 73.6171 209.398 73.341 209.731C73.0638 210.035 72.681 210.299 72.3377 210.603L73.9879 212.174L71.3476 213.005L69.6578 211.408C68.8393 211.408 68.0736 211.408 67.2286 211.408C65.5999 211.252 64.0125 210.805 62.542 210.088C60.5472 209.207 58.751 207.931 57.2613 206.338C55.7431 204.675 55.4131 203.368 56.3504 202.484C56.9765 201.945 57.7035 201.537 58.4891 201.282L58.8059 201.163L54.1985 196.807H54.0665C53.9621 197.088 53.8912 197.38 53.8553 197.678C54.0052 198.274 54.3431 198.807 54.819 199.196L50.502 199.46C50.1588 199.091 49.8155 198.734 49.5119 198.378C48.403 197.058 47.9805 195.962 48.3238 195.104C48.5497 194.689 48.8759 194.338 49.2725 194.082C49.6692 193.826 50.1237 193.673 50.5945 193.638C50.7397 193.638 50.7397 193.559 50.5945 193.414C49.7628 192.648 48.9442 191.869 48.1257 191.09L51.9806 191.275ZM62.41 204.609C62.0008 204.939 61.4727 205.19 61.5783 205.81C61.6839 206.431 63.1229 207.725 64.4563 208.174C65.1121 208.408 65.8065 208.515 66.5025 208.49L62.41 204.609ZM61.3539 200.186C61.7103 199.988 62.0668 199.83 62.1196 199.474C62.212 198.813 60.7994 197.559 59.3472 197.031C58.7267 196.794 58.1326 196.662 57.4462 196.464L61.3539 200.186Z" fill="#D1D1D1"/>
<path d="M122.175 284.466L125.409 292.242C127.786 297.364 120.036 306.012 108.102 311.583C96.1674 317.154 84.5498 317.497 82.1603 312.388L78.9259 304.599L122.175 284.466Z" fill="white"/>
<path d="M90.8206 316.679C86.2131 316.679 82.8071 315.358 81.5793 312.718L78.3317 304.916C78.2677 304.758 78.2662 304.581 78.3275 304.422C78.3887 304.262 78.5082 304.132 78.6618 304.058L121.911 283.925C121.992 283.889 122.079 283.87 122.168 283.87C122.257 283.87 122.344 283.889 122.426 283.925C122.509 283.959 122.584 284.009 122.648 284.073C122.711 284.136 122.761 284.212 122.795 284.295L126.03 292.071C128.591 297.576 120.855 306.447 108.392 312.256C102.908 314.94 96.9222 316.447 90.8206 316.679ZM79.7839 304.929L82.7675 312.124C84.9458 316.797 96.4181 316.283 107.851 310.975C119.283 305.668 127.02 297.219 124.828 292.493L121.858 285.325L79.7839 304.929Z" fill="#484646"/>
<path d="M104.856 303.804C116.8 298.242 124.551 289.586 122.169 284.471C119.786 279.355 108.173 279.716 96.2294 285.278C84.2858 290.84 76.5349 299.496 78.9172 304.611C81.2995 309.727 92.9129 309.366 104.856 303.804Z" fill="white"/>
<path d="M87.5471 308.876C82.7945 308.876 79.5336 307.477 78.3059 304.916C75.6655 299.398 83.4678 290.513 95.9302 284.717C108.393 278.922 120.169 278.697 122.743 284.229C125.317 289.76 117.581 298.632 105.119 304.441C99.8555 307.007 94.1426 308.522 88.2996 308.903L87.5471 308.876ZM113.594 281.602C107.661 281.846 101.844 283.32 96.5111 285.932C85.118 291.213 77.3422 299.688 79.5204 304.414C80.5502 306.606 83.7714 307.768 88.2864 307.635C93.9528 307.267 99.492 305.792 104.591 303.292C115.984 298.011 123.759 289.536 121.568 284.81C120.565 282.592 117.607 281.602 113.594 281.602Z" fill="#484646"/>
<path d="M86.5833 297.285L89.7121 296.137L89.8837 295.912C90.359 295.279 90.7682 294.592 91.3095 294.038C92.7368 292.434 94.4348 291.093 96.3261 290.077C97.4887 289.425 98.7313 288.928 100.023 288.599C100.756 288.36 101.546 288.36 102.28 288.599C102.521 288.698 102.728 288.866 102.873 289.082C103.019 289.298 103.097 289.553 103.099 289.813C103.099 290.275 103.191 290.764 103.231 291.252L109.119 289.1C108.96 288.15 107.983 288.044 106.478 288.493L107.284 285.853C108.335 285.423 109.461 285.207 110.597 285.219C111.035 285.198 111.469 285.314 111.838 285.551C112.207 285.787 112.493 286.133 112.657 286.539C112.799 286.971 112.914 287.412 113 287.859L115.139 287.08L114.716 289.813L112.538 290.632C112.168 291.358 111.851 292.057 111.429 292.797C110.581 294.19 109.49 295.42 108.208 296.427C106.543 297.827 104.605 298.865 102.518 299.477C100.353 300.11 99.0457 299.82 98.6629 298.592C98.4572 297.795 98.4124 296.965 98.5308 296.15C98.5308 296.031 98.5308 295.912 98.5308 295.807L92.5901 298.011L92.4844 298.104C92.6858 298.324 92.9168 298.515 93.1709 298.671C93.7692 298.808 94.3957 298.743 94.9532 298.487L93.2765 302.447C92.7881 302.592 92.326 302.738 91.8772 302.843C90.2005 303.266 89.0256 303.16 88.4051 302.46C88.1407 302.079 87.9746 301.639 87.9217 301.178C87.8687 300.718 87.9304 300.251 88.1015 299.82C88.1015 299.688 88.1015 299.662 87.8902 299.741L84.7086 300.916L86.5833 297.285ZM103.165 293.853C103.283 294.368 103.27 294.949 103.864 295.173C104.507 295.166 105.141 295.026 105.727 294.762C106.313 294.499 106.838 294.117 107.27 293.642C107.771 293.155 108.174 292.577 108.459 291.939L103.165 293.853ZM98.7289 292.836C98.7289 292.44 98.7289 292.031 98.4252 291.833C97.884 291.463 96.1413 292.163 95.006 293.232C94.5307 293.681 94.1479 294.157 93.6858 294.685L98.7289 292.836Z" fill="#D1D1D1"/>
<path d="M90.5566 235.884C85.8568 243.713 91.1243 261.06 91.1243 261.06L98.0816 266.129C100.562 267.621 103.311 268.61 106.173 269.039C109.035 269.468 111.954 269.329 114.763 268.631C117.571 267.932 120.215 266.687 122.542 264.966C124.869 263.246 126.835 261.084 128.327 258.604C129.819 256.124 130.807 253.375 131.237 250.512C131.666 247.65 131.527 244.732 130.828 241.923C130.13 239.115 128.884 236.471 127.164 234.144C125.444 231.816 123.282 229.851 120.802 228.359L113.092 224.57C113.092 224.57 95.2564 228.069 90.5566 235.884Z" fill="white"/>
<path d="M109.396 269.944C105.292 269.937 101.267 268.815 97.7516 266.697L90.7283 261.601C90.6147 261.515 90.5315 261.394 90.4907 261.258C90.2662 260.532 85.21 243.528 89.989 235.541C94.7944 227.62 112.194 224.068 112.934 223.923C113.067 223.885 113.209 223.885 113.343 223.923L121.079 227.712C125.338 230.267 128.642 234.147 130.485 238.759C132.328 243.371 132.608 248.46 131.282 253.246C129.956 258.032 127.098 262.252 123.145 265.258C119.192 268.265 114.362 269.892 109.396 269.892V269.944ZM91.692 260.703L98.4777 265.627C103.336 268.53 109.147 269.387 114.636 268.011C120.125 266.635 124.844 263.138 127.759 258.287C130.674 253.43 131.542 247.614 130.173 242.117C128.804 236.62 125.311 231.89 120.459 228.966L112.973 225.309C110.953 225.732 95.3489 229.27 91.1244 236.267C86.8998 243.317 91.1244 258.683 91.692 260.664V260.703Z" fill="#484646"/>
<path d="M104.643 266.393C116.811 266.393 126.676 256.528 126.676 244.359C126.676 232.191 116.811 222.326 104.643 222.326C92.4737 222.326 82.6089 232.191 82.6089 244.359C82.6089 256.528 92.4737 266.393 104.643 266.393Z" fill="white"/>
<path d="M104.603 267.08C101.109 267.071 97.6636 266.254 94.5362 264.695C91.4089 263.135 88.684 260.875 86.5739 258.089C84.4637 255.304 83.0254 252.069 82.371 248.636C81.7165 245.203 81.8637 241.666 82.801 238.299C83.7383 234.933 85.4405 231.828 87.7747 229.227C90.1089 226.627 93.0122 224.6 96.2583 223.306C99.5043 222.012 103.005 221.485 106.489 221.766C109.972 222.047 113.343 223.129 116.34 224.927C120.6 227.483 123.903 231.366 125.743 235.981C127.583 240.596 127.858 245.687 126.526 250.473C125.193 255.259 122.327 259.476 118.367 262.475C114.407 265.475 109.571 267.093 104.603 267.08ZM104.683 223.012C99.5115 223.005 94.513 224.872 90.6135 228.268C86.7139 231.664 84.1777 236.358 83.475 241.481C82.7723 246.604 83.9506 251.808 86.7917 256.129C89.6328 260.45 93.9439 263.594 98.926 264.979C103.908 266.364 109.223 265.895 113.887 263.661C118.55 261.426 122.245 257.577 124.287 252.826C126.329 248.075 126.579 242.745 124.992 237.824C123.404 232.903 120.086 228.724 115.653 226.062C112.342 224.063 108.55 223 104.683 222.986V223.012Z" fill="#484646"/>
<path d="M92.2858 234.26L95.0318 235.924C95.2166 236.029 95.309 236.016 95.4411 235.858C96.519 234.659 97.8809 233.751 99.4016 233.217C100.988 232.657 102.725 232.695 104.286 233.323C104.709 233.494 105.118 233.692 105.606 233.89L103.045 238.141C102.401 237.762 101.647 237.613 100.907 237.719C100.338 237.867 99.7781 238.048 99.23 238.26V238.366L104.511 241.561L104.894 241.165C105.814 240.169 106.846 239.283 107.97 238.524C108.797 237.928 109.772 237.569 110.788 237.485C111.805 237.401 112.825 237.596 113.739 238.049C115.516 238.774 116.939 240.168 117.699 241.93C118.326 243.363 118.483 244.957 118.148 246.485C117.95 247.435 117.633 248.373 117.356 249.35L119.415 250.591L117.066 254.551L114.953 253.231C114.254 253.891 113.633 254.551 112.96 255.132C111.648 256.281 109.988 256.956 108.247 257.046C106.749 257.083 105.274 256.674 104.009 255.871L106.517 251.686C107.261 252.096 108.119 252.25 108.959 252.123C109.799 251.997 110.574 251.597 111.164 250.987L105.474 247.581C104.775 248.228 104.075 248.901 103.362 249.535C102.527 250.337 101.507 250.922 100.392 251.238C99.2468 251.523 98.0408 251.44 96.9461 251C95.5807 250.524 94.3743 249.678 93.4608 248.558C92.806 247.746 92.3377 246.8 92.089 245.787C91.8404 244.774 91.8174 243.719 92.0218 242.696C92.1802 241.864 92.5103 241.059 92.7479 240.254C92.7479 240.161 92.7479 240.069 92.8535 239.963L90.002 238.247L92.2858 234.26ZM113.514 247.013C113.82 246.321 113.92 245.556 113.805 244.808C113.686 244.172 113.339 243.602 112.828 243.205C112.317 242.808 111.678 242.613 111.032 242.656C110.119 242.908 109.292 243.406 108.643 244.095L113.514 247.013ZM96.418 242.089C96.3241 242.736 96.2799 243.389 96.286 244.043C96.3153 244.396 96.4214 244.739 96.5969 245.048C96.7723 245.357 97.013 245.623 97.302 245.829C97.5911 246.035 97.9215 246.176 98.2705 246.241C98.6194 246.307 98.9784 246.295 99.3224 246.208C100.017 245.904 100.639 245.453 101.144 244.887L96.418 242.089Z" fill="#D1D1D1"/>
</svg>
