<svg width="150" height="150" viewBox="0 0 150 150" fill="none" xmlns="http://www.w3.org/2000/svg">
<path d="M140.601 129.288H9.39926C8.27238 129.288 7.1916 128.839 6.39468 128.041C5.62917 127.274 5.18584 126.244 5.15208 125.163C52.6083 119.647 99.1735 119.647 144.848 125.163C144.814 126.244 144.371 127.274 143.605 128.041C142.808 128.839 141.728 129.288 140.601 129.288Z" fill="#CDF8F3" stroke="#03DAC5" stroke-width="0.3"/>
<path d="M21.4318 97.6211L21.4531 97.5855V97.544V37.2538C21.4531 36.5416 21.593 35.8365 21.865 35.1786C22.1369 34.5206 22.5355 33.9228 23.038 33.4193C23.5405 32.9158 24.1371 32.5164 24.7936 32.244C25.4501 31.9715 26.1537 31.8313 26.8643 31.8314H122.359C123.07 31.8313 123.774 31.9715 124.43 32.244C125.087 32.5164 125.683 32.9158 126.186 33.4193C126.688 33.9228 127.087 34.5206 127.359 35.1786C127.631 35.8365 127.771 36.5416 127.771 37.2538V97.9589V98.0019L127.793 98.0384L144.729 125.139L5.26308 124.88L21.3542 97.7507L21.3545 97.7502L21.4318 97.6211Z" fill="#E6FBF9" stroke="#03DAC5" stroke-width="0.3"/>
<path d="M25.5636 36.2092C25.8751 35.8971 26.2975 35.7215 26.7379 35.721L123.263 35.721C123.703 35.7216 124.125 35.8971 124.437 36.2093C124.748 36.5214 124.924 36.9447 124.924 37.3863V92.3579C124.924 92.7995 124.748 93.2228 124.437 93.535C124.125 93.8471 123.703 94.0227 123.262 94.0232H26.7379C26.2975 94.0227 25.8752 93.8471 25.5636 93.535C25.2521 93.2228 25.0768 92.7995 25.0763 92.3579L25.0763 37.3862C25.0768 36.9447 25.2521 36.5214 25.5636 36.2092Z" fill="white" stroke="#03DAC5" stroke-width="0.3"/>
<path d="M21.5736 112.84L21.5736 112.84C21.5297 112.935 21.5104 113.041 21.5177 113.146C21.525 113.251 21.5585 113.352 21.6152 113.441C21.6719 113.53 21.7499 113.603 21.8421 113.653C21.9342 113.704 22.0375 113.73 22.1425 113.73H127.281C127.388 113.73 127.493 113.703 127.586 113.651C127.679 113.599 127.758 113.523 127.814 113.432C127.87 113.341 127.902 113.237 127.907 113.13C127.912 113.023 127.889 112.917 127.841 112.821L127.975 112.754L127.841 112.821L122.407 101.931L122.406 101.93C122.355 101.826 122.275 101.738 122.176 101.677L21.5736 112.84ZM21.5736 112.84L26.5731 101.949C26.5731 101.949 26.5731 101.949 26.5732 101.949C26.6235 101.84 26.7038 101.748 26.8046 101.683C26.9055 101.618 27.0226 101.584 27.1423 101.584L21.5736 112.84Z" fill="#CDF8F3" stroke="#03DAC5" stroke-width="0.3"/>
<path d="M75.6268 33.4964C75.6268 34.0583 75.1723 34.5133 74.6123 34.5133C74.0523 34.5133 73.5978 34.0583 73.5978 33.4964C73.5978 32.9346 74.0522 32.4796 74.6123 32.4796C75.1723 32.4796 75.6268 32.9346 75.6268 33.4964Z" fill="white" stroke="#03DAC5" stroke-width="0.3"/>
<path d="M62.4187 121.236L62.4187 121.236L63.6727 116.569C63.6727 116.569 63.6727 116.569 63.6728 116.569C63.7088 116.436 63.7876 116.318 63.8969 116.234C64.0062 116.15 64.1399 116.105 64.2776 116.104L85.2608 116.104C85.2609 116.104 85.2609 116.104 85.2609 116.104C85.391 116.104 85.5179 116.145 85.624 116.221C85.7301 116.296 85.8101 116.403 85.8528 116.527L87.4651 121.194L87.4651 121.194C87.4978 121.289 87.5075 121.39 87.4933 121.489C87.4791 121.588 87.4414 121.682 87.3835 121.764C87.3256 121.846 87.2491 121.912 87.1603 121.958C87.0716 122.004 86.9733 122.028 86.8735 122.028H63.0234C62.9273 122.028 62.8324 122.005 62.7463 121.963C62.6601 121.92 62.5848 121.858 62.5263 121.782C62.4678 121.705 62.4277 121.616 62.409 121.522C62.3903 121.427 62.3936 121.329 62.4187 121.236Z" fill="#CDF8F3" stroke="#03DAC5" stroke-width="0.3"/>
<path d="M21.8064 97.1736V97.1365H127.421V97.1736H21.8064Z" fill="#9AF0E8" stroke="#9AF0E8"/>
<path d="M124.944 50.4009C133.047 50.4009 139.615 43.8193 139.615 35.7005C139.615 27.5816 133.047 21 124.944 21C116.842 21 110.273 27.5816 110.273 35.7005C110.273 43.8193 116.842 50.4009 124.944 50.4009Z" fill="#03DAC5"/>
<path d="M131.022 42.1057H118.866C118.644 42.1055 118.431 42.0169 118.274 41.8594C118.116 41.702 118.028 41.4884 118.028 41.2657V33.9155C118.028 33.6927 118.116 33.4792 118.274 33.3217C118.431 33.1643 118.644 33.0757 118.866 33.0754H131.022C131.244 33.0757 131.457 33.1643 131.615 33.3217C131.772 33.4792 131.86 33.6927 131.86 33.9155V41.2657C131.86 41.4884 131.772 41.702 131.615 41.8594C131.457 42.0169 131.244 42.1055 131.022 42.1057ZM118.866 33.9155V41.2657H131.023L131.022 33.9155L118.866 33.9155Z" fill="white"/>
<path d="M128.717 33.9155H121.172V30.5554C121.172 28.1216 122.758 26.3552 124.944 26.3552C127.13 26.3552 128.717 28.1216 128.717 30.5554L128.717 33.9155ZM122.01 33.0754H127.879V30.5554C127.879 28.577 126.672 27.1953 124.944 27.1953C123.217 27.1953 122.01 28.577 122.01 30.5554L122.01 33.0754Z" fill="white"/>
<path d="M124.945 38.2206C125.408 38.2206 125.783 37.8445 125.783 37.3806C125.783 36.9166 125.408 36.5405 124.945 36.5405C124.482 36.5405 124.106 36.9166 124.106 37.3806C124.106 37.8445 124.482 38.2206 124.945 38.2206Z" fill="white"/>
<path d="M112.3 75.5271H37.7017C37.3355 75.5267 36.9844 75.3807 36.7254 75.1212C36.4664 74.8617 36.3207 74.5099 36.3203 74.1429V55.601C36.3207 55.234 36.4664 54.8822 36.7254 54.6227C36.9844 54.3632 37.3355 54.2172 37.7017 54.2168H112.3C112.666 54.2172 113.017 54.3632 113.276 54.6227C113.535 54.8822 113.681 55.234 113.681 55.601V74.1429C113.681 74.5099 113.535 74.8617 113.276 75.1212C113.017 75.3807 112.666 75.5267 112.3 75.5271ZM37.7017 54.7705C37.482 54.7707 37.2713 54.8583 37.1159 55.014C36.9605 55.1697 36.8731 55.3808 36.8729 55.601V74.1429C36.8731 74.3631 36.9605 74.5742 37.1159 74.7299C37.2713 74.8856 37.482 74.9732 37.7017 74.9734H112.3C112.519 74.9732 112.73 74.8856 112.886 74.7299C113.041 74.5742 113.128 74.3631 113.129 74.1429V55.601C113.128 55.3808 113.041 55.1697 112.886 55.014C112.73 54.8583 112.519 54.7707 112.3 54.7705L37.7017 54.7705Z" fill="#35E1D1"/>
<path d="M49.2918 69.7989C52.3997 69.7989 54.9191 67.2744 54.9191 64.1603C54.9191 61.0462 52.3997 58.5217 49.2918 58.5217C46.184 58.5217 43.6646 61.0462 43.6646 64.1603C43.6646 67.2744 46.184 69.7989 49.2918 69.7989Z" fill="#35E1D1"/>
<path d="M62.2885 60.4014C62.1652 60.4012 62.0431 60.4253 61.9291 60.4725C61.8151 60.5196 61.7116 60.5888 61.6243 60.6761C61.5371 60.7634 61.4679 60.867 61.4207 60.9812C61.3734 61.0953 61.3491 61.2176 61.3491 61.3411C61.3491 61.4647 61.3734 61.587 61.4207 61.7011C61.4679 61.8152 61.5371 61.9189 61.6243 62.0062C61.7116 62.0935 61.8151 62.1627 61.9291 62.2098C62.0431 62.2569 62.1652 62.2811 62.2885 62.2809H106.503C106.751 62.2809 106.99 62.1819 107.166 62.0056C107.342 61.8294 107.441 61.5904 107.441 61.3411C107.441 61.0919 107.342 60.8529 107.166 60.6766C106.99 60.5004 106.751 60.4014 106.503 60.4014H62.2885Z" fill="#35E1D1"/>
<path d="M62.288 66.04C62.0392 66.04 61.8007 66.139 61.6248 66.3153C61.4489 66.4915 61.3501 66.7306 61.3501 66.9798C61.3501 67.229 61.4489 67.4681 61.6248 67.6443C61.8007 67.8206 62.0392 67.9196 62.288 67.9196H81.3134C81.5622 67.9196 81.8007 67.8206 81.9766 67.6443C82.1525 67.4681 82.2513 67.229 82.2513 66.9798C82.2513 66.7306 82.1525 66.4915 81.9766 66.3153C81.8007 66.139 81.5622 66.04 81.3134 66.04H62.288Z" fill="#35E1D1"/>
</svg>
