<svg width="150" height="150" viewBox="0 0 150 150" fill="none" xmlns="http://www.w3.org/2000/svg">
<g clip-path="url(#clip0_1241_26768)">
<path d="M119.409 110.164H18.9482V10H119.409V110.164Z" fill="white"/>
<path d="M119.409 110.164H18.9482V10H119.409V110.164ZM20.4325 108.684H117.924V11.4799H20.4325V108.684Z" fill="#E5E5E5"/>
<path d="M101.611 25.6708H58.1074V27.0219H101.611V25.6708Z" fill="#E5E5E5"/>
<path d="M101.611 29.1837H58.1074V30.5349H101.611V29.1837Z" fill="#E5E5E5"/>
<path d="M101.611 32.6968H58.1074V34.0479H101.611V32.6968Z" fill="#E5E5E5"/>
<path d="M101.611 55.8363H58.1074V57.1875H101.611V55.8363Z" fill="#E5E5E5"/>
<path d="M101.611 59.3494H58.1074V60.7005H101.611V59.3494Z" fill="#E5E5E5"/>
<path d="M101.611 62.8623H58.1074V64.2135H101.611V62.8623Z" fill="#E5E5E5"/>
<path d="M101.611 86.002H58.1074V87.3531H101.611V86.002Z" fill="#E5E5E5"/>
<path d="M101.611 89.5149H58.1074V90.8661H101.611V89.5149Z" fill="#E5E5E5"/>
<path d="M101.611 93.028H58.1074V94.3791H101.611V93.028Z" fill="#E5E5E5"/>
<path d="M40.6928 36.4361C39.9496 36.0456 39.1739 35.7201 38.3743 35.4633L38.2723 34.3387L34.1374 33.8945L33.6118 35.3319L32.1279 35.8871C32.0748 35.9072 32.0242 35.9334 31.9773 35.9653H31.9757C31.8929 36.0211 31.8224 36.0932 31.7684 36.1771C31.7145 36.261 31.6783 36.355 31.662 36.4533C31.6461 36.5511 31.6499 36.651 31.673 36.7473L31.7514 37.0679C31.8643 37.1352 31.9804 37.1993 32.0965 37.2603L32.1703 37.2979C32.3397 37.3854 32.5122 37.4683 32.6895 37.545C32.7256 37.5606 32.7648 37.5763 32.8009 37.5919C32.804 37.5935 32.8055 37.5935 32.8087 37.595C32.8919 37.6294 32.975 37.6623 33.0597 37.6936C33.3379 37.7995 33.6217 37.8904 33.9099 37.9657C34.6452 38.1611 35.403 38.26 36.1641 38.2597C36.4417 38.2597 36.7162 38.2472 36.9876 38.2206C37.6077 38.1636 38.2198 38.0404 38.8135 37.8531C38.8151 37.8531 38.8167 37.8515 38.8182 37.8515C39.1933 37.7324 39.5596 37.5876 39.9147 37.4183C39.9163 37.4167 39.9194 37.4167 39.921 37.4152C40.001 37.3776 40.0779 37.337 40.1563 37.2979L40.1939 37.2791C40.2567 37.2462 40.3195 37.2134 40.3822 37.179C40.5391 37.093 40.6928 37.0023 40.8449 36.9053C40.8873 36.8803 40.9281 36.8537 40.9704 36.8255C41.03 36.7864 41.0896 36.7458 41.1477 36.7035C41.0018 36.6097 40.8497 36.5205 40.6928 36.4361Z" fill="#3F3D56"/>
<path d="M32.9322 37.129L32.6734 35.9637H31.9973C31.9905 35.9638 31.9837 35.9644 31.9769 35.9653H31.9753C31.7324 35.9858 31.4984 36.0664 31.2946 36.1999C31.1563 36.2879 31.0334 36.3978 30.9307 36.5252C31.1314 36.6769 31.3401 36.8177 31.555 36.9522L31.5644 36.9569C31.6255 36.9944 31.6883 37.032 31.7511 37.0679C31.864 37.1352 31.9801 37.1993 32.0961 37.2603L32.1699 37.2979C32.3393 37.3854 32.5119 37.4683 32.6891 37.545C32.7252 37.5606 32.7644 37.5763 32.8005 37.5919C32.8036 37.5935 32.8052 37.5935 32.8083 37.595C32.8915 37.6294 32.9746 37.6623 33.0593 37.6936L32.9322 37.129Z" fill="#3F3D56"/>
<path d="M36.0425 33.1835C37.6872 33.1835 39.0205 31.8541 39.0205 30.2143C39.0205 28.5744 37.6872 27.245 36.0425 27.245C34.3978 27.245 33.0645 28.5744 33.0645 30.2143C33.0645 31.8541 34.3978 33.1835 36.0425 33.1835Z" fill="#FFB8B8"/>
<path d="M34.0424 28.7681C34.3506 29.1318 34.8724 29.2345 35.3536 29.2766C36.4788 29.3385 37.6072 29.2467 38.7074 29.0035C38.7756 29.6623 38.5897 30.3727 38.9789 30.9146C39.1613 30.2585 39.2674 29.5837 39.295 28.9034C39.3241 28.6115 39.2859 28.3169 39.1833 28.042C39.1284 27.9042 39.0359 27.7846 38.9163 27.6966C38.7966 27.6087 38.6546 27.5559 38.5064 27.5444C38.7283 27.3766 38.9882 27.2658 39.2631 27.2219L38.3175 26.7481L38.5604 26.4995L36.8484 26.3951L37.3443 26.081C36.598 25.9787 35.843 25.955 35.0917 26.0101C34.7407 26.0103 34.3963 26.1057 34.0955 26.2862C33.8128 26.4877 33.6495 26.8883 33.825 27.1842C33.6053 27.2202 33.3984 27.3114 33.224 27.4494C33.0496 27.5874 32.9134 27.7675 32.8284 27.9726C32.7208 28.2986 32.6948 28.646 32.7527 28.9843C32.8172 29.5272 32.9438 30.0609 33.1299 30.5751L34.0424 28.7681Z" fill="#2F2E41"/>
<path d="M44.4159 26.9956C43.998 25.7988 43.3234 24.7072 42.439 23.7971C41.5546 22.8869 40.4817 22.1801 39.2951 21.7258C38.1086 21.2716 36.8369 21.0809 35.5689 21.167C34.3008 21.2531 33.0668 21.614 31.953 22.2244C30.8392 22.8349 29.8723 23.6803 29.1199 24.7016C28.3674 25.7229 27.8474 26.8956 27.5962 28.1378C27.345 29.3801 27.3686 30.662 27.6653 31.8943C27.9621 33.1265 28.5248 34.2794 29.3144 35.2725C29.3928 35.371 29.4744 35.4695 29.5576 35.5649C29.5639 35.5712 29.5685 35.5774 29.5748 35.5837C29.7793 35.8186 29.9966 36.0421 30.2258 36.2531C30.2854 36.3078 30.3482 36.3642 30.4109 36.4173C30.5301 36.5237 30.6525 36.6253 30.7796 36.7223C30.8297 36.7614 30.8784 36.8005 30.9301 36.8381C31.1309 36.9898 31.3395 37.1305 31.5545 37.265L31.5639 37.2697C31.625 37.3073 31.6878 37.3448 31.7506 37.3808C31.8635 37.448 31.9796 37.5122 32.0956 37.5731L32.1694 37.6107C32.3388 37.6983 32.5114 37.7812 32.6886 37.8578C32.7247 37.8735 32.7639 37.8891 32.8 37.9047C32.8031 37.9063 32.8046 37.9063 32.8078 37.9079C32.891 37.9423 32.9741 37.9751 33.0588 38.0064C33.3371 38.1124 33.6209 38.2032 33.909 38.2785C34.6443 38.4739 35.4021 38.5728 36.1632 38.5726C36.4408 38.5726 36.7153 38.5601 36.9867 38.5335C37.6068 38.4764 38.2189 38.3532 38.8127 38.1659C38.8142 38.1659 38.8158 38.1644 38.8173 38.1644C39.1924 38.0452 39.5588 37.9005 39.9139 37.7311C39.9154 37.7296 39.9185 37.7296 39.9201 37.728C40.0001 37.6905 40.077 37.6498 40.1554 37.6107L40.193 37.5919C40.2558 37.5591 40.3186 37.5262 40.3813 37.4918C40.5382 37.4058 40.6919 37.3151 40.844 37.2181C40.8864 37.1931 40.9272 37.1665 40.9696 37.1384C41.0292 37.0993 41.0887 37.0586 41.1468 37.0163C41.2236 36.9632 41.3005 36.9084 41.3758 36.8521C41.3993 36.8349 41.4245 36.8177 41.448 36.799C42.9176 35.6868 43.9963 34.1392 44.5295 32.3781C45.0626 30.617 45.0229 28.7328 44.4159 26.9956V26.9956ZM41.1594 36.4189C41.1076 36.4596 41.0543 36.4987 41.0009 36.5346C40.9491 36.5737 40.8974 36.6113 40.844 36.6457C40.7985 36.6785 40.753 36.7098 40.706 36.7395L40.6919 36.7489C40.6574 36.7724 40.6229 36.7943 40.5884 36.8162C40.4581 36.8975 40.3264 36.9757 40.193 37.0508L40.1507 37.0742C40.0911 37.1071 40.0315 37.1384 39.9719 37.1696C39.964 37.1743 39.9546 37.1775 39.9468 37.1821L39.9374 37.1868C39.8621 37.2259 39.7852 37.2635 39.7084 37.2994C39.4117 37.4419 39.1063 37.5652 38.7938 37.6686C38.753 37.6826 38.7122 37.6967 38.6715 37.7092C38.1095 37.8874 37.53 38.0049 36.9428 38.0596C36.6856 38.083 36.4251 38.0955 36.1632 38.0955C35.4434 38.097 34.7265 38.0034 34.0314 37.8171C33.6746 37.7243 33.325 37.6062 32.9851 37.4637C32.9678 37.4559 32.949 37.4496 32.9317 37.4418C32.913 37.434 32.8956 37.4277 32.8784 37.4199C32.8596 37.4121 32.8423 37.4042 32.8235 37.3949C32.676 37.3307 32.5301 37.2603 32.3874 37.1868L32.3184 37.1509C32.1443 37.0602 31.9733 36.9632 31.807 36.86C31.7584 36.8302 31.7082 36.799 31.6611 36.7661C31.6486 36.7583 31.6376 36.7505 31.625 36.7426C31.5136 36.6691 31.4023 36.5925 31.2941 36.5127C31.2204 36.458 31.1466 36.4033 31.0745 36.347C30.9537 36.2562 30.8375 36.1593 30.7246 36.0592C30.6651 36.0091 30.607 35.9544 30.5505 35.9028C30.3281 35.698 30.1176 35.4808 29.9199 35.2521C29.8541 35.1771 29.7897 35.102 29.7285 35.0238C29.7146 35.0083 29.7015 34.9921 29.6893 34.9753C28.6701 33.693 28.0571 32.137 27.9284 30.5059C27.7997 28.8748 28.1612 27.2424 28.9667 25.8169C29.7723 24.3915 30.9854 23.2376 32.4514 22.5023C33.9174 21.7671 35.5698 21.4839 37.1978 21.6888C38.8259 21.8937 40.3559 22.5774 41.5926 23.6528C42.8294 24.7282 43.7169 26.1465 44.1419 27.7269C44.5669 29.3072 44.5102 30.9779 43.979 32.526C43.4478 34.0741 42.4662 35.4293 41.1594 36.4189L41.1594 36.4189Z" fill="#3F3D56"/>
<path d="M44.4168 57.1611C43.999 55.9643 43.3243 54.8727 42.4399 53.9626C41.5555 53.0524 40.4826 52.3456 39.2961 51.8914C38.1095 51.4371 36.8379 51.2464 35.5698 51.3325C34.3018 51.4186 33.0678 51.7795 31.954 52.39C30.8402 53.0004 29.8733 53.8458 29.1209 54.8671C28.3684 55.8884 27.8484 57.0611 27.5972 58.3033C27.346 59.5456 27.3696 60.8275 27.6663 62.0598C27.9631 63.292 28.5258 64.4449 29.3153 65.438C29.3938 65.5365 29.4754 65.635 29.5585 65.7304C29.5647 65.7367 29.5694 65.743 29.5757 65.7492C29.7802 65.9841 29.9976 66.2076 30.2267 66.4186C30.2863 66.4734 30.3491 66.5297 30.4118 66.5828C30.5311 66.6892 30.6534 66.7909 30.7805 66.8878C31.0286 67.0828 31.2872 67.264 31.5554 67.4305L31.5648 67.4352C31.7389 67.5432 31.9161 67.6432 32.0966 67.7387L32.1703 67.7762C32.3397 67.8638 32.5123 67.9467 32.6895 68.0233C32.7256 68.039 32.7648 68.0546 32.8009 68.0702C32.804 68.0718 32.8056 68.0718 32.8088 68.0734C33.1669 68.2219 33.5348 68.3457 33.91 68.444C34.6453 68.6395 35.4031 68.7383 36.1641 68.7381C36.4417 68.7381 36.7162 68.7256 36.9876 68.699C37.6077 68.6419 38.2198 68.5187 38.8135 68.3314C38.8152 68.3314 38.8167 68.3299 38.8182 68.3299C39.1933 68.2107 39.5597 68.066 39.9148 67.8966C39.9163 67.8951 39.9195 67.8951 39.921 67.8935C40.001 67.856 40.0779 67.8153 40.1563 67.7762L40.194 67.7574C40.2567 67.7246 40.3195 67.6917 40.3822 67.6573C40.5391 67.5713 40.6928 67.4806 40.845 67.3836C40.8873 67.3586 40.9281 67.332 40.9704 67.3039C41.1085 67.2131 41.245 67.1162 41.3767 67.0176C41.4003 67.0004 41.4254 66.9832 41.4489 66.9645C42.9185 65.8522 43.9972 64.3046 44.5303 62.5435C45.0635 60.7825 45.0238 58.8983 44.4168 57.1611V57.1611Z" fill="white"/>
<path d="M39.047 63.6166C39.7703 63.6166 40.3566 63.032 40.3566 62.3108C40.3566 61.5896 39.7703 61.005 39.047 61.005C38.3237 61.005 37.7373 61.5896 37.7373 62.3108C37.7373 63.032 38.3237 63.6166 39.047 63.6166Z" fill="#2F2E41"/>
<path d="M39.4121 61.041C39.6388 61.041 39.8616 61.0996 40.0587 61.2112C40.2558 61.3228 40.4205 61.4835 40.5367 61.6775C40.6529 61.8716 40.7166 62.0924 40.7216 62.3183C40.7265 62.5443 40.6726 62.7677 40.5651 62.9666C40.6786 62.825 40.7612 62.6613 40.8078 62.486C40.8544 62.3108 40.8638 62.1278 40.8356 61.9486C40.8073 61.7695 40.7419 61.5983 40.6436 61.4458C40.5452 61.2932 40.4161 61.1628 40.2644 61.0628C40.1128 60.9628 39.9419 60.8954 39.7626 60.8648C39.5834 60.8343 39.3997 60.8413 39.2233 60.8855C39.0469 60.9296 38.8817 61.0099 38.7382 61.1212C38.5947 61.2326 38.476 61.3725 38.3896 61.5321C38.5121 61.3788 38.6676 61.255 38.8447 61.17C39.0217 61.085 39.2157 61.0409 39.4123 61.041L39.4121 61.041Z" fill="#2F2E41"/>
<path d="M36.6002 62.308C38.725 62.308 40.4475 60.5906 40.4475 58.4721C40.4475 56.3535 38.725 54.6361 36.6002 54.6361C34.4754 54.6361 32.7529 56.3535 32.7529 58.4721C32.7529 60.5906 34.4754 62.308 36.6002 62.308Z" fill="#2F2E41"/>
<path d="M33.5801 56.092C34.243 55.3487 35.1697 54.8912 36.1645 54.8161C37.1593 54.7411 38.1444 55.0543 38.912 55.6897C38.8806 55.6599 38.8492 55.6298 38.8168 55.6009C38.0568 54.9221 37.0574 54.572 36.0386 54.6279C35.0198 54.6837 34.0649 55.1407 33.3841 55.8985C32.7032 56.6562 32.3522 57.6526 32.4081 58.6684C32.4641 59.6843 32.9225 60.6363 33.6825 61.3152C33.6898 61.3217 33.6972 61.3282 33.7045 61.3346C33.7371 61.3636 33.7707 61.3909 33.8041 61.4186C33.0813 60.733 32.6539 59.7943 32.6122 58.8004C32.5704 57.8066 32.9175 56.8355 33.5803 56.092L33.5801 56.092Z" fill="#2F2E41"/>
<path d="M36.5677 62.2754C37.9362 62.2754 39.0455 61.1693 39.0455 59.8049C39.0455 58.4405 37.9362 57.3344 36.5677 57.3344C35.1992 57.3344 34.0898 58.4405 34.0898 59.8049C34.0898 61.1693 35.1992 62.2754 36.5677 62.2754Z" fill="#A0616A"/>
<path d="M41.0017 66.242V67.0709C40.8495 67.1679 40.6958 67.2586 40.5389 67.3446C40.4762 67.379 40.4135 67.4119 40.3507 67.4447L40.3131 67.4635C40.2346 67.5026 40.1577 67.5432 40.0778 67.5808C40.0762 67.5824 40.073 67.5824 40.0715 67.5839C39.7164 67.7533 39.35 67.898 38.9749 68.0172C38.9734 68.0172 38.9719 68.0187 38.9703 68.0187C38.3766 68.206 37.7644 68.3292 37.1443 68.3863C36.873 68.4129 36.5984 68.4254 36.3208 68.4254C35.5598 68.4256 34.802 68.3267 34.0667 68.1313C33.6916 68.033 33.3236 67.9091 32.9655 67.7606C32.9623 67.7591 32.9607 67.7591 32.9576 67.7575C32.9215 67.7419 32.8823 67.7262 32.8462 67.7106C32.669 67.634 32.4964 67.5511 32.327 67.4635L32.2533 67.426C32.0729 67.3305 31.8956 67.2304 31.7215 67.1225L31.7121 67.1178C31.444 66.9513 31.1853 66.7701 30.9372 66.5751C30.8101 66.4781 30.6878 66.3765 30.5685 66.2701C30.5058 66.2169 30.4431 66.1606 30.3835 66.1059C30.1543 65.8949 29.9369 65.6714 29.7324 65.4365C29.7595 65.2736 29.7994 65.113 29.8517 64.9563L29.8532 64.9548C29.8626 64.9281 29.8736 64.9019 29.8861 64.8766C29.8948 64.8541 29.9048 64.8322 29.9159 64.8109C30.1967 64.2869 30.705 64.1571 31.3356 64.129C31.6917 64.1133 32.0854 64.1305 32.5012 64.1258C32.7208 64.1243 32.9482 64.1164 33.1757 64.0961C34.611 63.9663 34.3506 63.1217 34.4149 62.6666C34.4792 62.2255 34.8777 62.6072 34.9043 62.6322L34.9059 62.6337C35.7181 63.0127 36.6167 63.1698 37.5099 63.0889C37.6636 63.0701 37.8173 63.0592 37.971 63.0545C38.3758 63.0498 38.2879 63.1655 38.1483 63.2609C38.0806 63.3054 38.0098 63.3451 37.9366 63.3798C37.9366 63.3798 37.8722 63.7708 37.8064 64.3557C37.7436 64.9157 38.8197 65.1784 38.9091 65.1988C38.9109 65.2 38.9132 65.2005 38.9154 65.2003C39.3083 65.0987 39.7221 65.1096 40.1092 65.2316H40.1107C40.3319 65.3127 40.5292 65.4476 40.6848 65.624C40.8404 65.8005 40.9494 66.0129 41.0017 66.242Z" fill="#03DAC5"/>
<path d="M32.9808 67.2476C32.9808 67.3633 32.9778 67.4744 32.973 67.5792C32.9715 67.6417 32.9683 67.7027 32.9652 67.7606C32.9621 67.759 32.9604 67.759 32.9573 67.7575C32.9212 67.7418 32.882 67.7262 32.8459 67.7106C32.6687 67.6339 32.4961 67.551 32.3267 67.4634L32.253 67.4259C32.0726 67.3305 31.8953 67.2304 31.7212 67.1225C31.7259 67.0677 31.7338 67.013 31.7416 66.9582C31.7588 66.8378 31.773 66.7158 31.7824 66.5954C31.8441 65.7493 31.6903 64.9014 31.3353 64.1305V64.1289C31.3039 64.0663 31.2852 64.0319 31.2852 64.0319C31.2852 64.0319 31.7416 63.6409 32.3926 64.0319C32.4341 64.0563 32.4709 64.0881 32.5009 64.1258C32.893 64.5872 32.9997 66.1387 32.9808 67.2476Z" fill="#2F2E41"/>
<path d="M40.1037 67.0349C40.0974 67.2101 40.0879 67.3931 40.077 67.5792V67.5807C40.0755 67.5823 40.0722 67.5823 40.0707 67.5839C39.7156 67.7532 39.3492 67.898 38.9742 68.0171C38.9727 68.0171 38.9711 68.0187 38.9695 68.0187L38.9523 67.5792L38.9507 67.5213L38.8676 65.3817C38.8653 65.3333 38.873 65.2849 38.89 65.2395C38.9071 65.1941 38.9332 65.1526 38.9667 65.1175C39.0003 65.0824 39.0407 65.0545 39.0854 65.0354C39.1301 65.0163 39.1782 65.0064 39.2268 65.0063H40.0221C40.0613 65.0063 40.0896 65.0861 40.1084 65.23V65.2316C40.147 65.8321 40.1454 66.4346 40.1037 67.0349Z" fill="#2F2E41"/>
<path d="M34.4482 56.7167V59.1878H35.0221L35.7523 58.4077L35.6545 59.1878H38.1911L38.0342 58.4077L38.3479 59.1878H38.7523V56.7167H34.4482Z" fill="#2F2E41"/>
<path d="M34.0569 59.6424C34.165 59.6424 34.2526 59.4824 34.2526 59.2849C34.2526 59.0874 34.165 58.9274 34.0569 58.9274C33.9489 58.9274 33.8613 59.0874 33.8613 59.2849C33.8613 59.4824 33.9489 59.6424 34.0569 59.6424Z" fill="#A0616A"/>
<path d="M39.0784 59.6424C39.1865 59.6424 39.274 59.4824 39.274 59.2849C39.274 59.0874 39.1865 58.9274 39.0784 58.9274C38.9704 58.9274 38.8828 59.0874 38.8828 59.2849C38.8828 59.4824 38.9704 59.6424 39.0784 59.6424Z" fill="#A0616A"/>
<path d="M41.5333 66.7048C41.4015 66.8034 41.2651 66.9004 41.127 66.9911C41.0847 67.0192 41.0439 67.0458 41.0016 67.0708C40.8494 67.1678 40.6956 67.2585 40.5388 67.3445C40.476 67.3789 40.4133 67.4118 40.3506 67.4446V65.7211C40.3506 65.7211 40.6015 65.9213 41.0016 66.2544C41.0517 66.2966 41.1035 66.3404 41.1584 66.3873C41.2745 66.4843 41.4 66.5907 41.5333 66.7048Z" fill="#03DAC5"/>
<path d="M44.4168 57.1611C43.999 55.9643 43.3243 54.8727 42.4399 53.9626C41.5555 53.0524 40.4826 52.3456 39.2961 51.8914C38.1095 51.4371 36.8379 51.2464 35.5698 51.3325C34.3018 51.4186 33.0678 51.7795 31.954 52.39C30.8402 53.0004 29.8733 53.8458 29.1209 54.8671C28.3684 55.8884 27.8484 57.0611 27.5972 58.3033C27.346 59.5456 27.3696 60.8275 27.6663 62.0598C27.9631 63.292 28.5258 64.4449 29.3153 65.438C29.3938 65.5365 29.4754 65.635 29.5585 65.7304C29.5647 65.7367 29.5694 65.743 29.5757 65.7492C29.7802 65.9841 29.9976 66.2076 30.2267 66.4186C30.2863 66.4734 30.3491 66.5297 30.4118 66.5828C30.5311 66.6892 30.6534 66.7909 30.7805 66.8878C31.0286 67.0828 31.2872 67.264 31.5554 67.4305L31.5648 67.4352C31.7389 67.5432 31.9161 67.6432 32.0966 67.7387L32.1703 67.7762C32.3397 67.8638 32.5123 67.9467 32.6895 68.0233C32.7256 68.039 32.7648 68.0546 32.8009 68.0702C32.804 68.0718 32.8056 68.0718 32.8088 68.0734C33.1669 68.2219 33.5348 68.3457 33.91 68.444C34.6453 68.6395 35.4031 68.7383 36.1641 68.7381C36.4417 68.7381 36.7162 68.7256 36.9876 68.699C37.6077 68.6419 38.2198 68.5187 38.8135 68.3314C38.8152 68.3314 38.8167 68.3299 38.8182 68.3299C39.1933 68.2107 39.5597 68.066 39.9148 67.8966C39.9163 67.8951 39.9195 67.8951 39.921 67.8935C40.001 67.856 40.0779 67.8153 40.1563 67.7762L40.194 67.7574C40.2567 67.7246 40.3195 67.6917 40.3822 67.6573C40.5391 67.5713 40.6928 67.4806 40.845 67.3836C40.8873 67.3586 40.9281 67.332 40.9704 67.3039C41.1085 67.2131 41.245 67.1162 41.3767 67.0176C41.4003 67.0004 41.4254 66.9832 41.4489 66.9645C42.9185 65.8522 43.9972 64.3046 44.5303 62.5435C45.0635 60.7825 45.0238 58.8983 44.4168 57.1611V57.1611ZM41.1603 66.5844C41.1085 66.6251 41.0552 66.6642 41.0019 66.7001C40.9501 66.7392 40.8983 66.7768 40.845 66.8112C40.7995 66.844 40.754 66.8753 40.7069 66.905C40.6677 66.9316 40.6285 66.9566 40.5892 66.9817C40.4591 67.063 40.3274 67.1412 40.194 67.2163L40.1516 67.2397C40.092 67.2726 40.0324 67.3039 39.9728 67.3351C39.9649 67.3398 39.9555 67.343 39.9477 67.3477L39.9383 67.3523C39.863 67.3914 39.7862 67.429 39.7093 67.465C39.4126 67.6074 39.1072 67.7307 38.7947 67.8341C38.754 67.8481 38.7131 67.8622 38.6724 67.8747C38.1104 68.0529 37.5309 68.1704 36.9437 68.2251C36.6864 68.2485 36.426 68.261 36.1641 68.261C35.4443 68.2625 34.7274 68.1689 34.0323 67.9827C33.6755 67.8898 33.3259 67.7717 32.986 67.6292C32.9499 67.6151 32.9138 67.5995 32.8793 67.5854C32.8605 67.5776 32.8432 67.5697 32.8244 67.5604C32.6769 67.4962 32.5311 67.4259 32.3883 67.3523L32.3193 67.3164C32.1452 67.2257 31.9742 67.1287 31.8079 67.0255C31.7468 66.9879 31.6856 66.9488 31.626 66.9082C31.4377 66.7846 31.2542 66.6516 31.0753 66.5125C30.9546 66.4217 30.8385 66.3248 30.7255 66.2247C30.6659 66.1746 30.6079 66.1199 30.5514 66.0683C30.329 65.8635 30.1185 65.6463 29.9208 65.4176C29.855 65.3426 29.7906 65.2675 29.7294 65.1893C29.7155 65.1738 29.7024 65.1576 29.6902 65.1408C28.671 63.8585 28.058 62.3025 27.9293 60.6714C27.8006 59.0403 28.1621 57.4079 28.9676 55.9824C29.7732 54.557 30.9863 53.4031 32.4523 52.6678C33.9183 51.9326 35.5707 51.6494 37.1987 51.8543C38.8268 52.0592 40.3568 52.7429 41.5935 53.8183C42.8303 54.8937 43.7178 56.312 44.1428 57.8924C44.5678 59.4727 44.5111 61.1434 43.9799 62.6915C43.4487 64.2396 42.4671 65.5948 41.1603 66.5844V66.5844Z" fill="#3F3D56"/>
<path d="M36.2129 94.1068C38.1038 94.1068 39.6367 92.5784 39.6367 90.693C39.6367 88.8077 38.1038 87.2793 36.2129 87.2793C34.322 87.2793 32.7891 88.8077 32.7891 90.693C32.7891 92.5784 34.322 94.1068 36.2129 94.1068Z" fill="#2F2E41"/>
<path d="M33.5406 88.8524C34.0939 88.3008 34.206 87.5182 33.7911 87.1045C33.3761 86.6907 32.5912 86.8025 32.0379 87.3542C31.4847 87.9058 31.3725 88.6884 31.7875 89.1022C32.2024 89.5159 32.9874 89.4041 33.5406 88.8524Z" fill="#2F2E41"/>
<path d="M39.7819 87.7683C40.0125 87.2303 39.616 86.5456 38.8965 86.2392C38.1769 85.9327 37.4067 86.1205 37.1762 86.6585C36.9457 87.1966 37.3421 87.8812 38.0617 88.1877C38.7812 88.4942 39.5514 88.3064 39.7819 87.7683Z" fill="#2F2E41"/>
<path d="M40.3089 97.3149L39.9055 96.682C39.7343 96.3007 39.4186 96.0026 39.0274 95.853C38.6363 95.7034 38.2016 95.7145 37.8186 95.8838C37.4356 96.053 37.1355 96.3667 36.9841 96.7562C36.8326 97.1456 36.8421 97.5791 37.0105 97.9615L37.1252 98.3716L37.2557 98.8369C37.7842 98.7704 38.3057 98.6569 38.8139 98.4978C38.8154 98.4976 38.8168 98.4969 38.8179 98.4958C39.1936 98.3773 39.5603 98.2324 39.9154 98.0621C39.9174 98.0601 39.9193 98.0601 39.9213 98.0581C40.0004 98.0207 40.0775 97.9813 40.1566 97.9418C40.1695 97.936 40.1821 97.9294 40.1942 97.9221C40.2574 97.8906 40.3208 97.857 40.3821 97.8235C40.4453 97.79 40.5066 97.7545 40.5659 97.7171L40.3089 97.3149Z" fill="#CACACA"/>
<path d="M36.3218 94.4051C37.9266 94.4051 39.2276 93.108 39.2276 91.5079C39.2276 89.9078 37.9266 88.6107 36.3218 88.6107C34.717 88.6107 33.416 89.9078 33.416 91.5079C33.416 93.108 34.717 94.4051 36.3218 94.4051Z" fill="#FFB6B6"/>
<path d="M40.5178 97.1906C40.1972 96.6591 39.7994 96.1781 39.3372 95.7631C39.0206 95.4811 38.6109 95.3253 38.1864 95.3254H34.093C33.8572 95.3254 33.6238 95.3735 33.4073 95.4669C33.1908 95.5603 32.9959 95.6969 32.8345 95.8684C32.673 96.0398 32.5486 96.2425 32.4688 96.4638C32.3891 96.6851 32.3557 96.9204 32.3707 97.1551C32.3796 97.2875 32.4035 97.4184 32.4419 97.5455C32.4711 97.6375 32.5075 97.7272 32.5507 97.8136L32.7524 98.2158C32.7682 98.2217 32.784 98.2296 32.7998 98.2355C32.8037 98.2375 32.8058 98.2375 32.8077 98.2395C32.8907 98.273 32.9738 98.3065 33.0588 98.338C33.3371 98.4441 33.621 98.5349 33.9092 98.6101C34.3731 98.7343 34.8467 98.8194 35.3249 98.8645C35.6038 98.8901 35.8826 98.9039 36.1634 98.9039C36.4423 98.9039 36.7151 98.8901 36.988 98.8645C37.077 98.8566 37.1659 98.8467 37.255 98.8369C37.7835 98.7703 38.3049 98.6569 38.8132 98.4978C38.8147 98.4976 38.8161 98.4969 38.8171 98.4958C39.1928 98.3772 39.5595 98.2323 39.9146 98.062C39.9166 98.0601 39.9185 98.06 39.9205 98.0581C39.9996 98.0206 40.0768 97.9812 40.1558 97.9418C40.1688 97.936 40.1813 97.9294 40.1934 97.922C40.2566 97.8905 40.32 97.857 40.3813 97.8235C40.4445 97.7899 40.5058 97.7544 40.5651 97.717C40.6285 97.6835 40.6878 97.646 40.7491 97.6086C40.674 97.4607 40.5968 97.3227 40.5178 97.1906Z" fill="#CACACA"/>
<path d="M34.8344 95.8538C34.4556 95.6771 34.0221 95.6572 33.6286 95.7983C33.2351 95.9394 32.9136 96.2302 32.7345 96.6069L32.3706 97.155L32.1966 97.4173L31.9316 97.8155C31.987 97.8451 32.0404 97.8747 32.0958 97.9043L32.1689 97.9417C32.339 98.0285 32.511 98.1113 32.689 98.1882C32.7087 98.198 32.7305 98.2059 32.7523 98.2158C32.7681 98.2217 32.7839 98.2296 32.7997 98.2355C32.8036 98.2375 32.8057 98.2375 32.8076 98.2394C32.8906 98.2729 32.9737 98.3065 33.0587 98.338C33.337 98.4441 33.6208 98.5349 33.9091 98.6101C34.373 98.7343 34.8466 98.8194 35.3248 98.8644L35.4633 98.3972L35.5978 97.9516C35.7751 97.5724 35.7942 97.1386 35.6511 96.7453C35.508 96.352 35.2143 96.0314 34.8344 95.8538Z" fill="#CACACA"/>
<path d="M33.2686 89.6856C33.9326 90.1419 34.7207 90.3848 35.5271 90.3815C35.2395 90.5804 34.912 90.7148 34.5672 90.7753C35.6395 91.0046 36.7476 91.0108 37.8224 90.7935C38.0613 90.7553 38.2918 90.6764 38.5038 90.5602C38.6094 90.5013 38.7015 90.421 38.7739 90.3244C38.8464 90.2277 38.8977 90.117 38.9244 89.9993C38.9958 89.5925 38.6779 89.223 38.3475 88.9739C37.8417 88.5984 37.2585 88.3396 36.64 88.2164C36.0216 88.0932 35.3834 88.1086 34.7717 88.2614C34.3641 88.3432 33.9932 88.5522 33.7127 88.8582C33.5769 89.0138 33.495 89.2089 33.4789 89.4146C33.4629 89.6203 33.5136 89.8257 33.6236 90.0004L33.2686 89.6856Z" fill="#2F2E41"/>
<path d="M44.4174 87.3267C43.9997 86.1297 43.3251 85.0381 42.4407 84.1278C41.5563 83.2175 40.4833 82.5106 39.2967 82.0562C38.1101 81.6019 36.8384 81.4111 35.5702 81.4972C34.3021 81.5833 33.068 81.9441 31.9541 82.5546C30.8402 83.1651 29.8733 84.0106 29.1208 85.032C28.3683 86.0533 27.8483 87.2261 27.5971 88.4685C27.346 89.7108 27.3696 90.9929 27.6664 92.2252C27.9633 93.4575 28.5262 94.6104 29.3159 95.6035C29.3929 95.7021 29.476 95.8006 29.5591 95.8953C29.5638 95.9023 29.5691 95.9088 29.5749 95.915C29.7797 96.1498 29.9975 96.3729 30.2274 96.5834C30.2867 96.6386 30.348 96.6957 30.4114 96.749C30.5299 96.8554 30.6526 96.956 30.7811 97.0526C30.8305 97.092 30.8799 97.1315 30.9314 97.1689C31.1311 97.3207 31.3407 97.4607 31.5543 97.5968C31.5579 97.5968 31.5614 97.5982 31.5641 97.6007C31.6254 97.6382 31.6888 97.6756 31.752 97.7111C31.8113 97.7466 31.8726 97.7821 31.932 97.8156C31.9873 97.8452 32.0407 97.8748 32.0961 97.9043L32.1692 97.9418C32.3394 98.0285 32.5113 98.1114 32.6894 98.1882C32.7091 98.1981 32.7309 98.206 32.7526 98.2159C32.7684 98.2218 32.7843 98.2297 32.8 98.2356C32.804 98.2375 32.806 98.2375 32.8079 98.2395C32.891 98.273 32.9741 98.3065 33.0591 98.3381C33.3373 98.4442 33.6212 98.535 33.9094 98.6102C34.3734 98.7344 34.8469 98.8195 35.3252 98.8645C35.604 98.8901 35.8829 98.9039 36.1637 98.9039C36.4425 98.9039 36.7154 98.8901 36.9882 98.8645C37.0773 98.8566 37.1662 98.8468 37.2552 98.8369C37.7837 98.7704 38.3052 98.6569 38.8134 98.4978C38.8149 98.4976 38.8163 98.4969 38.8174 98.4958C39.193 98.3773 39.5598 98.2323 39.9149 98.0621C39.9168 98.0601 39.9188 98.0601 39.9208 98.0581C39.9999 98.0207 40.077 97.9812 40.1561 97.9418C40.169 97.936 40.1815 97.9294 40.1936 97.9221C40.2569 97.8905 40.3202 97.857 40.3815 97.8235C40.4448 97.79 40.5061 97.7545 40.5654 97.717C40.6287 97.6835 40.688 97.6461 40.7493 97.6086C40.781 97.5889 40.8126 97.5692 40.8442 97.5495C40.8878 97.5238 40.9273 97.4982 40.9708 97.4686C41.0301 97.4311 41.0895 97.3897 41.1467 97.3483C41.2239 97.2951 41.301 97.2399 41.3761 97.1827C41.4015 97.1663 41.4259 97.1485 41.4493 97.1295C42.9178 96.0165 43.9957 94.469 44.5288 92.7083C45.0619 90.9476 45.0229 89.0639 44.4174 87.3267L44.4174 87.3267ZM41.1606 96.749C41.1092 96.7904 41.0558 96.8298 41.0025 96.8653C40.949 96.9047 40.8976 96.9422 40.8442 96.9777C40.7988 97.0092 40.7533 97.0408 40.7059 97.0704C40.7016 97.0741 40.6969 97.0774 40.692 97.0802C40.6584 97.1039 40.6227 97.1256 40.5891 97.1472C40.5654 97.161 40.5417 97.1768 40.518 97.1906C40.4488 97.234 40.3795 97.2754 40.3084 97.3148C40.2708 97.3385 40.2312 97.3602 40.1937 97.3819C40.1799 97.3898 40.1659 97.3976 40.1521 97.4055C40.0908 97.439 40.0315 97.4686 39.9722 97.5002C39.9643 97.5061 39.9544 97.508 39.9485 97.514C39.9448 97.514 39.9413 97.5154 39.9386 97.5179C39.8634 97.5573 39.7863 97.5948 39.7092 97.6303C39.4123 97.7728 39.1065 97.8959 38.7936 97.999C38.7541 98.0128 38.7126 98.0286 38.673 98.0404C38.1687 98.1999 37.6502 98.3108 37.1247 98.3716C37.0654 98.3795 37.0041 98.3854 36.9428 98.3913C36.6857 98.415 36.4267 98.4268 36.1637 98.4268C35.9303 98.4268 35.695 98.417 35.4637 98.3973C34.98 98.3571 34.5009 98.274 34.0321 98.1488C33.6752 98.0561 33.3255 97.9375 32.986 97.7939C32.9681 97.7861 32.9504 97.7801 32.9326 97.7722C32.9128 97.7644 32.897 97.7584 32.8792 97.7506C32.8594 97.7427 32.8436 97.7348 32.8238 97.7249C32.6953 97.6697 32.5668 97.6086 32.4422 97.5455C32.4243 97.5357 32.4066 97.5278 32.3888 97.5179L32.3196 97.4824C32.2781 97.4607 32.2365 97.439 32.197 97.4174C32.0645 97.3464 31.9339 97.2695 31.8075 97.1906C31.76 97.1611 31.7086 97.1295 31.6611 97.098L31.6255 97.0743C31.5147 96.9994 31.4041 96.9245 31.2952 96.8436C31.2221 96.7884 31.1469 96.7352 31.0758 96.678C30.9552 96.5873 30.8384 96.4907 30.7258 96.3902C30.6664 96.3409 30.6071 96.2857 30.5518 96.2344C30.3291 96.0298 30.1185 95.8126 29.921 95.5838C29.8557 95.5089 29.7904 95.4339 29.7291 95.3551C29.7153 95.3393 29.7035 95.3235 29.6895 95.3058C28.6701 94.0234 28.0569 92.4672 27.928 90.8359C27.7992 89.2046 28.1606 87.572 28.9662 86.1463C29.7718 84.7206 30.985 83.5664 32.4512 82.831C33.9173 82.0956 35.5699 81.8122 37.1982 82.0171C38.8265 82.222 40.3567 82.9057 41.5937 83.9812C42.8306 85.0567 43.7183 86.4752 44.1434 88.0557C44.5685 89.6363 44.5119 91.3072 43.9806 92.8555C43.4494 94.4038 42.4677 95.7593 41.1607 96.749H41.1606Z" fill="#3F3D56"/>
<path d="M50.7832 44.7572C47.7403 42.1972 44.0168 40.5741 40.0657 40.0856C36.1145 39.5971 32.1062 40.2641 28.5283 42.0056C24.9505 43.747 21.9574 46.4878 19.9134 49.8943C17.8693 53.3009 16.8624 57.2264 17.0151 61.1931C17.1679 65.1598 18.4737 68.9968 20.7736 72.2371C23.0736 75.4774 26.2686 77.9813 29.9698 79.4441C33.671 80.9069 37.7189 81.2656 41.6208 80.4765C45.5228 79.6874 49.1106 77.7845 51.9476 74.9994L77.1401 96.194C77.5237 96.5155 78.0193 96.6721 78.5185 96.6297C79.0177 96.5873 79.4797 96.3493 79.8032 95.9678C80.1267 95.5864 80.2852 95.0926 80.2441 94.5947C80.203 94.0969 79.9656 93.6356 79.5839 93.312L79.5812 93.3097L54.3886 72.115C57.3152 67.9271 58.5678 62.8005 57.9008 57.7398C57.2339 52.6791 54.6955 48.0491 50.7832 44.7572ZM49.1591 70.0741C47.1965 72.3931 44.5882 74.0799 41.6642 74.921C38.7401 75.7621 35.6316 75.7197 32.7316 74.7993C29.8317 73.8789 27.2706 72.1218 25.3722 69.7502C23.4739 67.3785 22.3235 64.4988 22.0666 61.4753C21.8097 58.4518 22.4578 55.4202 23.9289 52.7639C25.4001 50.1077 27.6282 47.946 30.3315 46.5523C33.0348 45.1586 36.0919 44.5954 39.1162 44.9341C42.1405 45.2727 44.9962 46.4979 47.3221 48.4547C50.4411 51.0787 52.3869 54.8306 52.7314 58.8851C53.0759 62.9395 51.7909 66.9643 49.1591 70.0741Z" fill="#3F3D56"/>
<path opacity="0.3" d="M27.4763 71.9057C24.5244 69.422 22.6173 65.9223 22.1335 62.1015C21.6498 58.2807 22.6249 54.4183 24.8652 51.2811C24.571 51.5765 24.2866 51.8859 24.0119 52.2093C22.7088 53.7491 21.7226 55.5298 21.1097 57.4496C20.4968 59.3694 20.2691 61.3908 20.4397 63.3983C20.6103 65.4059 21.1758 67.3602 22.1039 69.1499C23.032 70.9395 24.3046 72.5294 25.8489 73.8287C27.3933 75.1279 29.1792 76.1112 31.1047 76.7223C33.0302 77.3335 35.0576 77.5605 37.071 77.3904C39.0845 77.2203 41.0447 76.6565 42.8396 75.7311C44.6345 74.8057 46.2291 73.5369 47.5322 71.9971C47.8062 71.6733 48.0642 71.3417 48.3063 71.0023C45.5816 73.7319 41.927 75.3401 38.0681 75.5075C34.2093 75.6748 30.4284 74.3891 27.4763 71.9057Z" fill="black"/>
<path d="M101.572 96.9865C101.768 96.7469 101.91 96.4673 101.987 96.1672C102.063 95.8672 102.073 95.554 102.015 95.2498C101.958 94.9456 101.833 94.6577 101.652 94.4064C101.47 94.1552 101.236 93.9467 100.965 93.7956L96.3728 75.0557L93.0229 76.1219L97.9815 94.7339C97.7571 95.2048 97.7137 95.7413 97.8596 96.242C98.0055 96.7426 98.3305 97.1724 98.7731 97.4501C99.2156 97.7278 99.7449 97.8339 100.261 97.7485C100.776 97.663 101.243 97.3919 101.572 96.9865H101.572Z" fill="#FFB6B6"/>
<path d="M99.1983 84.9996L96.7502 87.1052L93.3253 90.049L91.8126 82.3322L91.6544 81.5297L91.5298 80.8929L95.0002 74.8657L97.8932 75.0311L98.0909 75.043L98.0949 75.0865L98.1403 75.4907L98.7336 80.8099L98.7474 80.9383L99.1983 84.9996Z" fill="#3F3D56"/>
<path d="M83.1967 137.38L80.7726 137.38L79.6191 128.057L83.1973 128.057L83.1967 137.38Z" fill="#FFB6B6"/>
<path d="M83.815 139.723L75.998 139.723V139.624C75.9981 138.82 76.3187 138.048 76.8893 137.479C77.4598 136.91 78.2337 136.591 79.0406 136.591H79.0408L83.8151 136.591L83.815 139.723Z" fill="#2F2E41"/>
<path d="M108.508 137.577L106.084 137.577L104.931 128.254L108.509 128.254L108.508 137.577Z" fill="#FFB6B6"/>
<path d="M109.127 139.92L101.31 139.92V139.821C101.31 139.017 101.63 138.245 102.201 137.676C102.771 137.107 103.545 136.788 104.352 136.788H104.352L109.127 136.788L109.127 139.92Z" fill="#2F2E41"/>
<path d="M110.446 133.866L103.92 134.852L94.4268 102.817L84.3438 135.049L77.0273 134.063L86.519 96.6025V93.6451L87.8043 89.209L87.6698 88.0083L86.7345 79.6113L86.3292 75.9697L86.3029 75.7345C86.2809 75.5371 86.3333 75.3385 86.45 75.1776C86.5667 75.0166 86.7394 74.9047 86.9343 74.8637L89.9795 74.2249H94.9567L97.8932 75.0312L98.0949 75.0864L98.1859 75.1121L98.1404 75.4906L97.4522 81.2438L97.4147 81.5592L96.7502 87.1053L96.6039 88.3218C102.338 92.4622 102.536 96.6025 102.536 96.6025L110.446 133.866Z" fill="#2F2E41"/>
<path d="M91.8665 71.7305C94.5489 71.7305 96.7233 69.5624 96.7233 66.888C96.7233 64.2136 94.5489 62.0455 91.8665 62.0455C89.1842 62.0455 87.0098 64.2136 87.0098 66.888C87.0098 69.5624 89.1842 71.7305 91.8665 71.7305Z" fill="#FFB6B6"/>
<path d="M96.968 87.2091L87.3604 88.4618L87.5398 89.8303L97.1475 88.5775L96.968 87.2091Z" fill="#3F3D56"/>
<path d="M74.4728 88.8744C74.5647 88.9336 74.6517 89 74.7331 89.0729L84.236 86.6576L84.8842 84.3718L88.4719 84.8964L87.7187 89.0541C87.6578 89.39 87.4893 89.6972 87.2385 89.9294C86.9877 90.1617 86.668 90.3066 86.3276 90.3424L75.232 91.5074C75.0511 91.887 74.7587 92.2028 74.3935 92.4126C74.0282 92.6225 73.6076 92.7165 73.1875 92.6822C72.7674 92.6479 72.3677 92.4868 72.0416 92.2205C71.7155 91.9542 71.4785 91.5952 71.362 91.1913C71.2456 90.7874 71.2552 90.3577 71.3897 89.9593C71.5241 89.561 71.777 89.213 72.1147 88.9614C72.4524 88.7099 72.8589 88.5668 73.2802 88.5513C73.7014 88.5357 74.1174 88.6484 74.4728 88.8744Z" fill="#FFB6B6"/>
<path d="M89.0898 76.0979L87.409 74.8164C86.9545 74.6445 86.3318 75.1328 86.2225 75.605L83.8496 85.2658L88.7932 88.8147L89.4853 87.7303L89.0898 76.0979Z" fill="#3F3D56"/>
<g opacity="0.2">
<path d="M98.7334 80.81C98.3139 80.976 97.8862 81.1208 97.452 81.2437C97.3136 81.2852 97.1713 81.3246 97.0309 81.362C96.1054 81.6181 95.1544 81.7715 94.1952 81.8195C93.7823 81.8369 93.3687 81.8257 92.9573 81.7859C92.5158 81.7421 92.0794 81.6562 91.6542 81.5296C91.6403 81.5257 91.6245 81.5217 91.6107 81.5178C90.7265 81.2675 89.9159 80.8083 89.2476 80.1791C89.0983 80.0341 88.9589 79.8793 88.8304 79.7158C88.4612 79.2649 88.1903 78.7421 88.035 78.181C87.8798 77.6198 87.8435 77.0326 87.9287 76.4567C87.9452 76.3523 87.9677 76.249 87.996 76.1472C88.0705 75.8697 88.1691 75.5992 88.2906 75.3388C88.344 75.2166 88.4034 75.0963 88.4666 74.978L90.7011 74.2249H94.9565L97.893 75.0312L98.0907 75.0431L98.0947 75.0864L98.1857 75.1121L98.1402 75.4906L98.7334 80.81Z" fill="black"/>
</g>
<path d="M88.1455 62.879C87.2372 62.768 86.2404 62.8465 85.5325 63.4246C84.8245 64.0027 84.596 65.2045 85.2663 65.8257C85.8597 66.3756 86.7876 66.2463 87.5824 66.4026C88.2671 66.5556 88.8805 66.9332 89.3245 67.475C89.7685 68.0168 90.0173 68.6914 90.0312 69.3909C90.0194 71.3968 88.0885 72.9159 87.7417 74.8918C87.505 76.2404 88.0755 77.6596 89.0617 78.6122C90.0479 79.5648 91.4036 80.0796 92.7695 80.219C94.1355 80.3585 95.5167 80.1455 96.8442 79.7956C98.1772 79.4442 99.4895 78.9457 100.608 78.1418C101.727 77.3379 102.643 76.2046 103.003 74.8773C103.362 73.55 103.104 72.0281 102.178 71.009C101.119 69.842 99.3558 69.4407 98.4391 68.1589C97.4116 66.7221 97.7918 64.6758 96.9602 63.1181C96.4049 62.078 95.3536 61.3686 94.2329 60.9949C93.1122 60.6212 91.9156 60.5475 90.7344 60.5113C90.1136 60.4923 89.4738 60.4859 88.8953 60.7116C88.3169 60.9373 87.8085 61.4516 87.7785 62.0701C87.7485 62.6887 88.1455 62.879 88.1455 62.879Z" fill="#2F2E41"/>
<path d="M133.614 140H58.2739C58.2215 140 58.1712 139.979 58.1341 139.942C58.097 139.905 58.0762 139.855 58.0762 139.803C58.0762 139.751 58.097 139.7 58.1341 139.663C58.1712 139.626 58.2215 139.606 58.2739 139.606H133.614C133.666 139.606 133.717 139.626 133.754 139.663C133.791 139.7 133.812 139.751 133.812 139.803C133.812 139.855 133.791 139.905 133.754 139.942C133.717 139.979 133.666 140 133.614 140Z" fill="#CACACA"/>
</g>
<defs>
<clipPath id="clip0_1241_26768">
<rect width="116.812" height="130" fill="white" transform="translate(17 10)"/>
</clipPath>
</defs>
</svg>
