<svg width="592" height="592" viewBox="0 0 592 592" fill="none" xmlns="http://www.w3.org/2000/svg">
<g clip-path="url(#clip0_303_44730)">
<path d="M471.265 434.781H74.7814V39.4668H471.265V434.781Z" fill="white"/>
<path d="M471.265 434.781H74.7814V39.4668H471.265V434.781ZM80.6393 428.941H465.407V45.3075H80.6393V428.941Z" fill="#E5E5E5"/>
<path d="M401.026 101.313H229.333V106.646H401.026V101.313Z" fill="#E5E5E5"/>
<path d="M401.026 115.179H229.333V120.511H401.026V115.179Z" fill="#E5E5E5"/>
<path d="M401.026 129.043H229.333V134.376H401.026V129.043Z" fill="#E5E5E5"/>
<path d="M401.026 220.367H229.333V225.7H401.026V220.367Z" fill="#E5E5E5"/>
<path d="M401.026 234.232H229.333V239.565H401.026V234.232Z" fill="#E5E5E5"/>
<path d="M401.026 248.097H229.333V253.429H401.026V248.097Z" fill="#E5E5E5"/>
<path d="M401.026 339.421H229.333V344.753H401.026V339.421Z" fill="#E5E5E5"/>
<path d="M401.026 353.286H229.333V358.619H401.026V353.286Z" fill="#E5E5E5"/>
<path d="M401.026 367.15H229.333V372.483H401.026V367.15Z" fill="#E5E5E5"/>
<path d="M160.599 143.801C157.666 142.26 154.605 140.975 151.449 139.962L151.047 135.524L134.727 133.771L132.653 139.443L126.797 141.635C126.587 141.714 126.387 141.817 126.202 141.943H126.196C125.869 142.163 125.591 142.448 125.378 142.779C125.165 143.11 125.022 143.481 124.958 143.869C124.895 144.255 124.91 144.649 125.001 145.03L125.311 146.295C125.756 146.56 126.215 146.813 126.673 147.054L126.964 147.202C127.632 147.548 128.313 147.875 129.013 148.178C129.155 148.239 129.31 148.301 129.452 148.363C129.465 148.369 129.471 148.369 129.483 148.375C129.812 148.511 130.14 148.641 130.474 148.764C131.572 149.182 132.692 149.541 133.829 149.838C136.732 150.609 139.722 150.999 142.726 150.999C143.822 150.999 144.905 150.949 145.976 150.844C148.423 150.619 150.839 150.133 153.183 149.394C153.189 149.394 153.195 149.387 153.201 149.387C154.681 148.917 156.127 148.346 157.529 147.678C157.535 147.671 157.547 147.671 157.553 147.665C157.869 147.517 158.172 147.357 158.482 147.202L158.63 147.128C158.878 146.999 159.126 146.869 159.373 146.733C159.993 146.394 160.599 146.036 161.2 145.653C161.367 145.554 161.528 145.449 161.695 145.338C161.93 145.184 162.165 145.023 162.395 144.857C161.819 144.486 161.218 144.134 160.599 143.801Z" fill="#3F3D56"/>
<path d="M129.973 146.535L128.951 141.937H126.283C126.256 141.937 126.229 141.939 126.202 141.943H126.196C125.237 142.024 124.314 142.342 123.509 142.869C122.964 143.216 122.479 143.65 122.073 144.153C122.865 144.751 123.689 145.307 124.537 145.838L124.574 145.856C124.815 146.004 125.063 146.152 125.311 146.294C125.757 146.56 126.215 146.813 126.673 147.054L126.964 147.202C127.632 147.548 128.314 147.875 129.013 148.177C129.155 148.239 129.31 148.301 129.453 148.362C129.465 148.368 129.471 148.368 129.483 148.375C129.812 148.51 130.14 148.64 130.474 148.764L129.973 146.535Z" fill="#3F3D56"/>
<path d="M142.246 130.965C148.738 130.965 154 125.718 154 119.246C154 112.774 148.738 107.527 142.246 107.527C135.755 107.527 130.493 112.774 130.493 119.246C130.493 125.718 135.755 130.965 142.246 130.965Z" fill="#FFB8B8"/>
<path d="M134.355 113.538C135.572 114.974 137.631 115.379 139.531 115.545C143.971 115.789 148.425 115.427 152.767 114.467C153.036 117.067 152.302 119.871 153.838 122.009C154.558 119.42 154.977 116.757 155.086 114.072C155.201 112.92 155.05 111.757 154.645 110.672C154.428 110.129 154.063 109.656 153.591 109.309C153.119 108.962 152.558 108.754 151.974 108.709C152.849 108.046 153.875 107.609 154.96 107.436L151.228 105.566L152.186 104.585L145.43 104.172L147.387 102.933C144.442 102.529 141.462 102.436 138.497 102.653C137.111 102.654 135.752 103.03 134.565 103.743C133.449 104.538 132.805 106.119 133.497 107.287C132.63 107.429 131.814 107.789 131.126 108.334C130.437 108.878 129.9 109.589 129.564 110.398C129.14 111.685 129.037 113.056 129.266 114.391C129.52 116.534 130.02 118.64 130.754 120.67L134.355 113.538Z" fill="#2F2E41"/>
<path d="M175.297 106.543C173.647 101.819 170.985 97.5115 167.494 93.9195C164.004 90.3274 159.77 87.5378 155.087 85.745C150.404 83.9523 145.385 83.1996 140.38 83.5395C135.376 83.8793 130.506 85.3036 126.11 87.7129C121.714 90.1222 117.898 93.4585 114.928 97.4893C111.959 101.52 109.906 106.148 108.915 111.051C107.924 115.954 108.017 121.013 109.188 125.876C110.359 130.74 112.58 135.29 115.696 139.209C116.006 139.598 116.328 139.987 116.656 140.363C116.681 140.388 116.699 140.413 116.724 140.437C117.531 141.364 118.388 142.246 119.293 143.079C119.528 143.295 119.776 143.518 120.024 143.727C120.494 144.147 120.977 144.548 121.479 144.931C121.677 145.085 121.869 145.24 122.073 145.388C122.865 145.987 123.689 146.542 124.537 147.073L124.574 147.092C124.815 147.24 125.063 147.388 125.311 147.53C125.756 147.795 126.215 148.048 126.673 148.289L126.964 148.437C127.632 148.783 128.313 149.11 129.013 149.413C129.155 149.474 129.31 149.536 129.452 149.598C129.465 149.604 129.471 149.604 129.483 149.61C129.812 149.746 130.14 149.876 130.474 149.999C131.572 150.417 132.692 150.776 133.829 151.073C136.732 151.844 139.722 152.234 142.726 152.234C143.822 152.234 144.905 152.184 145.976 152.079C148.423 151.854 150.839 151.368 153.183 150.629C153.189 150.629 153.195 150.622 153.201 150.622C154.681 150.152 156.127 149.581 157.529 148.913C157.535 148.906 157.547 148.906 157.553 148.9C157.869 148.752 158.173 148.592 158.482 148.437L158.63 148.363C158.878 148.234 159.126 148.104 159.374 147.968C159.993 147.629 160.599 147.271 161.2 146.888C161.367 146.789 161.528 146.684 161.695 146.573C161.93 146.419 162.165 146.258 162.395 146.092C162.698 145.882 163.001 145.666 163.298 145.443C163.391 145.376 163.49 145.308 163.583 145.234C169.383 140.844 173.641 134.736 175.745 127.786C177.849 120.835 177.692 113.399 175.297 106.543V106.543ZM162.444 143.734C162.24 143.894 162.029 144.048 161.819 144.19C161.614 144.345 161.41 144.493 161.2 144.629C161.02 144.758 160.841 144.882 160.655 144.999L160.599 145.036C160.463 145.129 160.327 145.215 160.191 145.301C159.677 145.622 159.157 145.931 158.63 146.227L158.463 146.32C158.228 146.45 157.993 146.573 157.758 146.697C157.727 146.715 157.689 146.727 157.659 146.746L157.621 146.764C157.324 146.919 157.021 147.067 156.718 147.209C155.547 147.771 154.341 148.258 153.108 148.666C152.947 148.721 152.786 148.777 152.625 148.826C150.408 149.529 148.12 149.993 145.803 150.209C144.788 150.301 143.76 150.351 142.726 150.351C139.885 150.357 137.056 149.987 134.312 149.252C132.904 148.886 131.525 148.419 130.183 147.857C130.115 147.826 130.04 147.801 129.972 147.771C129.898 147.74 129.83 147.715 129.762 147.684C129.688 147.653 129.62 147.622 129.545 147.585C128.963 147.332 128.388 147.055 127.824 146.764L127.552 146.623C126.865 146.264 126.19 145.882 125.534 145.474C125.342 145.357 125.144 145.234 124.958 145.104C124.908 145.073 124.865 145.042 124.815 145.011C124.376 144.721 123.936 144.419 123.509 144.104C123.218 143.888 122.927 143.672 122.642 143.45C122.166 143.092 121.707 142.709 121.262 142.314C121.027 142.116 120.797 141.9 120.575 141.697C119.697 140.888 118.866 140.031 118.086 139.129C117.826 138.832 117.572 138.536 117.331 138.228C117.276 138.167 117.224 138.103 117.176 138.036C113.153 132.975 110.734 126.835 110.226 120.397C109.718 113.96 111.145 107.517 114.324 101.891C117.503 96.2654 122.291 91.7113 128.077 88.8095C133.862 85.9078 140.384 84.79 146.809 85.5987C153.235 86.4074 159.273 89.106 164.154 93.3502C169.035 97.5945 172.538 103.192 174.215 109.429C175.893 115.666 175.669 122.26 173.572 128.37C171.476 134.479 167.602 139.828 162.444 143.734L162.444 143.734Z" fill="#3F3D56"/>
<path d="M175.297 225.596C173.648 220.872 170.985 216.564 167.495 212.972C164.004 209.38 159.77 206.59 155.087 204.798C150.404 203.005 145.385 202.252 140.381 202.592C135.376 202.932 130.506 204.356 126.11 206.766C121.714 209.175 117.898 212.511 114.929 216.542C111.959 220.573 109.907 225.201 108.915 230.104C107.924 235.006 108.017 240.066 109.188 244.929C110.359 249.792 112.58 254.342 115.696 258.262C116.006 258.651 116.328 259.039 116.656 259.416C116.681 259.441 116.699 259.465 116.724 259.49C117.531 260.417 118.389 261.299 119.293 262.132C119.529 262.348 119.776 262.57 120.024 262.78C120.494 263.2 120.977 263.601 121.479 263.984C122.458 264.753 123.479 265.468 124.537 266.126L124.574 266.144C125.261 266.57 125.961 266.965 126.673 267.342L126.964 267.49C127.632 267.836 128.313 268.163 129.013 268.465C129.155 268.527 129.31 268.589 129.453 268.65C129.465 268.657 129.471 268.657 129.484 268.663C130.897 269.249 132.349 269.738 133.83 270.126C136.732 270.897 139.723 271.287 142.726 271.286C143.822 271.286 144.905 271.237 145.976 271.132C148.423 270.907 150.839 270.42 153.183 269.681C153.189 269.681 153.195 269.675 153.201 269.675C154.681 269.205 156.127 268.634 157.529 267.965C157.535 267.959 157.547 267.959 157.553 267.953C157.869 267.805 158.173 267.644 158.482 267.49L158.631 267.416C158.878 267.286 159.126 267.157 159.374 267.021C159.993 266.681 160.599 266.323 161.2 265.941C161.367 265.842 161.528 265.737 161.695 265.626C162.24 265.268 162.779 264.885 163.298 264.496C163.392 264.428 163.49 264.36 163.584 264.286C169.383 259.897 173.641 253.789 175.745 246.838C177.849 239.888 177.692 232.452 175.297 225.596V225.596Z" fill="white"/>
<path d="M154.107 251.074C156.962 251.074 159.276 248.766 159.276 245.92C159.276 243.074 156.962 240.767 154.107 240.767C151.253 240.767 148.938 243.074 148.938 245.92C148.938 248.766 151.253 251.074 154.107 251.074Z" fill="#2F2E41"/>
<path d="M155.547 240.908C156.442 240.908 157.321 241.14 158.099 241.58C158.877 242.021 159.527 242.655 159.986 243.421C160.444 244.187 160.696 245.058 160.715 245.95C160.735 246.841 160.522 247.723 160.098 248.508C160.546 247.949 160.872 247.303 161.056 246.612C161.24 245.92 161.277 245.198 161.165 244.491C161.054 243.784 160.796 243.108 160.407 242.506C160.019 241.904 159.51 241.389 158.911 240.995C158.313 240.6 157.638 240.334 156.931 240.213C156.223 240.093 155.498 240.12 154.802 240.295C154.106 240.469 153.454 240.786 152.888 241.225C152.321 241.665 151.853 242.217 151.512 242.847C151.995 242.242 152.609 241.753 153.308 241.418C154.007 241.082 154.772 240.908 155.548 240.908L155.547 240.908Z" fill="#2F2E41"/>
<path d="M144.448 245.909C152.834 245.909 159.632 239.131 159.632 230.77C159.632 222.409 152.834 215.631 144.448 215.631C136.062 215.631 129.264 222.409 129.264 230.77C129.264 239.131 136.062 245.909 144.448 245.909Z" fill="#2F2E41"/>
<path d="M132.531 221.377C135.148 218.443 138.805 216.637 142.731 216.341C146.657 216.045 150.545 217.281 153.574 219.789C153.45 219.671 153.327 219.552 153.199 219.438C150.199 216.759 146.255 215.378 142.234 215.598C138.213 215.818 134.445 217.622 131.757 220.613C129.07 223.603 127.685 227.536 127.906 231.545C128.127 235.554 129.936 239.311 132.935 241.991C132.964 242.016 132.993 242.042 133.022 242.067C133.151 242.182 133.283 242.29 133.415 242.399C130.563 239.693 128.876 235.988 128.711 232.066C128.546 228.144 129.916 224.311 132.532 221.377L132.531 221.377Z" fill="#2F2E41"/>
<path d="M144.319 245.78C149.72 245.78 154.099 241.415 154.099 236.03C154.099 230.645 149.72 226.279 144.319 226.279C138.918 226.279 134.54 230.645 134.54 236.03C134.54 241.415 138.918 245.78 144.319 245.78Z" fill="#A0616A"/>
<path d="M161.819 261.435V264.706C161.218 265.089 160.612 265.447 159.993 265.787C159.745 265.922 159.497 266.052 159.25 266.182L159.101 266.256C158.792 266.41 158.488 266.571 158.172 266.719C158.166 266.725 158.154 266.725 158.148 266.731C156.746 267.399 155.3 267.971 153.82 268.441C153.814 268.441 153.808 268.447 153.802 268.447C151.458 269.186 149.042 269.672 146.595 269.898C145.524 270.003 144.441 270.052 143.345 270.052C140.342 270.053 137.351 269.663 134.449 268.892C132.968 268.503 131.516 268.015 130.103 267.429C130.09 267.422 130.084 267.422 130.072 267.416C129.929 267.354 129.774 267.293 129.632 267.231C128.933 266.929 128.251 266.601 127.583 266.256L127.292 266.108C126.58 265.731 125.88 265.336 125.193 264.91L125.156 264.892C124.098 264.234 123.077 263.519 122.098 262.75C121.596 262.367 121.113 261.966 120.643 261.546C120.395 261.336 120.148 261.114 119.912 260.898C119.008 260.065 118.15 259.183 117.343 258.256C117.45 257.613 117.607 256.979 117.814 256.361L117.82 256.355C117.857 256.249 117.9 256.146 117.95 256.046C117.984 255.957 118.023 255.871 118.067 255.787C119.175 253.719 121.181 253.207 123.67 253.096C125.076 253.034 126.629 253.102 128.27 253.083C129.137 253.077 130.034 253.046 130.932 252.966C136.597 252.454 135.569 249.12 135.823 247.324C136.077 245.583 137.65 247.089 137.755 247.188L137.761 247.194C140.966 248.69 144.513 249.31 148.038 248.991C148.645 248.917 149.251 248.873 149.858 248.855C151.455 248.836 151.109 249.293 150.558 249.67C150.29 249.845 150.011 250.002 149.722 250.139C149.722 250.139 149.468 251.682 149.208 253.991C148.96 256.2 153.207 257.237 153.56 257.318C153.567 257.323 153.576 257.325 153.585 257.324C155.136 256.923 156.769 256.966 158.296 257.447H158.303C159.175 257.767 159.954 258.3 160.568 258.996C161.182 259.692 161.612 260.531 161.819 261.435Z" fill="#03DAC5"/>
<path d="M130.164 265.404C130.164 265.861 130.152 266.299 130.134 266.713C130.127 266.96 130.115 267.201 130.103 267.429C130.09 267.423 130.084 267.423 130.072 267.417C129.929 267.355 129.774 267.293 129.632 267.231C128.933 266.929 128.251 266.602 127.583 266.256L127.292 266.108C126.58 265.732 125.88 265.336 125.193 264.911C125.212 264.694 125.243 264.478 125.274 264.262C125.342 263.787 125.397 263.306 125.435 262.83C125.678 259.491 125.071 256.145 123.67 253.102V253.096C123.546 252.849 123.472 252.713 123.472 252.713C123.472 252.713 125.274 251.17 127.843 252.713C128.007 252.809 128.152 252.935 128.27 253.084C129.818 254.905 130.239 261.028 130.164 265.404Z" fill="#2F2E41"/>
<path d="M158.278 264.565C158.253 265.256 158.216 265.978 158.173 266.713V266.719C158.166 266.725 158.154 266.725 158.148 266.731C156.746 267.4 155.3 267.971 153.82 268.441C153.814 268.441 153.808 268.447 153.802 268.447L153.734 266.713L153.727 266.484L153.399 258.04C153.391 257.849 153.421 257.658 153.488 257.479C153.555 257.3 153.658 257.136 153.791 256.997C153.923 256.859 154.082 256.749 154.259 256.673C154.435 256.598 154.625 256.559 154.817 256.559H157.956C158.111 256.559 158.222 256.873 158.296 257.441V257.447C158.449 259.818 158.442 262.195 158.278 264.565Z" fill="#2F2E41"/>
<path d="M135.955 223.842V233.595H138.22L141.102 230.516L140.716 233.595H150.727L150.108 230.516L151.346 233.595H152.942V223.842H135.955Z" fill="#2F2E41"/>
<path d="M134.411 235.389C134.838 235.389 135.183 234.757 135.183 233.978C135.183 233.198 134.838 232.566 134.411 232.566C133.985 232.566 133.639 233.198 133.639 233.978C133.639 234.757 133.985 235.389 134.411 235.389Z" fill="#A0616A"/>
<path d="M154.228 235.389C154.654 235.389 155 234.757 155 233.978C155 233.198 154.654 232.566 154.228 232.566C153.802 232.566 153.456 233.198 153.456 233.978C153.456 234.757 153.802 235.389 154.228 235.389Z" fill="#A0616A"/>
<path d="M163.918 263.262C163.398 263.65 162.859 264.033 162.314 264.391C162.147 264.502 161.986 264.607 161.819 264.706C161.218 265.089 160.612 265.447 159.993 265.786C159.745 265.922 159.497 266.052 159.25 266.181V259.379C159.25 259.379 160.24 260.169 161.819 261.484C162.017 261.65 162.221 261.823 162.438 262.008C162.896 262.391 163.392 262.811 163.918 263.262Z" fill="#03DAC5"/>
<path d="M175.297 225.596C173.648 220.872 170.985 216.564 167.495 212.972C164.004 209.38 159.77 206.59 155.087 204.798C150.404 203.005 145.385 202.252 140.381 202.592C135.376 202.932 130.506 204.356 126.11 206.766C121.714 209.175 117.898 212.511 114.929 216.542C111.959 220.573 109.907 225.201 108.915 230.104C107.924 235.006 108.017 240.066 109.188 244.929C110.359 249.792 112.58 254.342 115.696 258.262C116.006 258.651 116.328 259.039 116.656 259.416C116.681 259.441 116.699 259.465 116.724 259.49C117.531 260.417 118.389 261.299 119.293 262.132C119.529 262.348 119.776 262.57 120.024 262.78C120.494 263.2 120.977 263.601 121.479 263.984C122.458 264.753 123.479 265.468 124.537 266.126L124.574 266.144C125.261 266.57 125.961 266.965 126.673 267.342L126.964 267.49C127.632 267.836 128.313 268.163 129.013 268.465C129.155 268.527 129.31 268.589 129.453 268.65C129.465 268.657 129.471 268.657 129.484 268.663C130.897 269.249 132.349 269.738 133.83 270.126C136.732 270.897 139.723 271.287 142.726 271.286C143.822 271.286 144.905 271.237 145.976 271.132C148.423 270.907 150.839 270.42 153.183 269.681C153.189 269.681 153.195 269.675 153.201 269.675C154.681 269.205 156.127 268.634 157.529 267.965C157.535 267.959 157.547 267.959 157.553 267.953C157.869 267.805 158.173 267.644 158.482 267.49L158.631 267.416C158.878 267.286 159.126 267.157 159.374 267.021C159.993 266.681 160.599 266.323 161.2 265.941C161.367 265.842 161.528 265.737 161.695 265.626C162.24 265.268 162.779 264.885 163.298 264.496C163.392 264.428 163.49 264.36 163.584 264.286C169.383 259.897 173.641 253.789 175.745 246.838C177.849 239.888 177.692 232.452 175.297 225.596V225.596ZM162.444 262.786C162.24 262.947 162.029 263.101 161.819 263.243C161.615 263.397 161.41 263.546 161.2 263.681C161.02 263.811 160.841 263.934 160.655 264.052C160.5 264.157 160.345 264.255 160.191 264.354C159.677 264.675 159.157 264.984 158.631 265.28L158.463 265.373C158.228 265.502 157.993 265.626 157.758 265.749C157.727 265.768 157.689 265.78 157.659 265.799L157.621 265.817C157.324 265.971 157.021 266.12 156.718 266.262C155.547 266.824 154.341 267.31 153.108 267.718C152.947 267.774 152.786 267.829 152.625 267.879C150.408 268.582 148.12 269.046 145.803 269.261C144.788 269.354 143.76 269.403 142.726 269.403C139.885 269.409 137.056 269.04 134.312 268.305C132.905 267.938 131.525 267.472 130.183 266.91C130.041 266.854 129.898 266.792 129.762 266.737C129.688 266.706 129.62 266.675 129.545 266.638C128.963 266.385 128.388 266.107 127.824 265.817L127.552 265.675C126.865 265.317 126.19 264.934 125.534 264.527C125.292 264.379 125.051 264.225 124.816 264.064C124.073 263.576 123.348 263.052 122.642 262.502C122.166 262.144 121.708 261.762 121.262 261.367C121.027 261.169 120.798 260.953 120.575 260.749C119.697 259.941 118.866 259.084 118.086 258.181C117.826 257.885 117.572 257.589 117.331 257.28C117.276 257.219 117.224 257.155 117.176 257.089C113.153 252.028 110.734 245.887 110.226 239.45C109.718 233.012 111.145 226.57 114.324 220.944C117.503 215.318 122.291 210.764 128.077 207.862C133.863 204.96 140.384 203.843 146.809 204.651C153.235 205.46 159.273 208.159 164.154 212.403C169.035 216.647 172.538 222.245 174.215 228.482C175.893 234.719 175.669 241.313 173.572 247.422C171.476 253.532 167.602 258.881 162.444 262.786V262.786Z" fill="#3F3D56"/>
<path d="M142.921 371.409C150.384 371.409 156.433 365.377 156.433 357.936C156.433 350.495 150.384 344.463 142.921 344.463C135.458 344.463 129.408 350.495 129.408 357.936C129.408 365.377 135.458 371.409 142.921 371.409Z" fill="#2F2E41"/>
<path d="M132.373 350.671C134.557 348.494 134.999 345.405 133.362 343.773C131.724 342.14 128.626 342.581 126.443 344.758C124.259 346.935 123.817 350.024 125.454 351.657C127.092 353.29 130.19 352.848 132.373 350.671Z" fill="#2F2E41"/>
<path d="M157.005 346.392C157.914 344.269 156.35 341.567 153.51 340.357C150.67 339.148 147.63 339.889 146.721 342.012C145.811 344.136 147.375 346.838 150.215 348.047C153.055 349.257 156.095 348.516 157.005 346.392Z" fill="#2F2E41"/>
<path d="M159.084 384.069L157.492 381.572C156.816 380.067 155.57 378.891 154.027 378.3C152.483 377.71 150.767 377.753 149.256 378.421C147.744 379.089 146.56 380.328 145.962 381.865C145.364 383.402 145.402 385.112 146.066 386.622L146.519 388.24L147.034 390.077C149.12 389.814 151.178 389.366 153.184 388.738C153.19 388.737 153.195 388.735 153.2 388.73C154.682 388.263 156.13 387.691 157.531 387.019C157.539 387.011 157.546 387.011 157.554 387.003C157.866 386.855 158.171 386.699 158.483 386.544C158.534 386.521 158.584 386.495 158.631 386.466C158.881 386.342 159.131 386.209 159.373 386.077C159.622 385.945 159.864 385.805 160.098 385.657L159.084 384.069Z" fill="#CACACA"/>
<path d="M143.349 372.585C149.683 372.585 154.817 367.466 154.817 361.151C154.817 354.836 149.683 349.717 143.349 349.717C137.016 349.717 131.881 354.836 131.881 361.151C131.881 367.466 137.016 372.585 143.349 372.585Z" fill="#FFB6B6"/>
<path d="M159.911 383.579C158.646 381.481 157.076 379.583 155.252 377.945C154.003 376.832 152.386 376.217 150.71 376.218H134.555C133.624 376.217 132.703 376.407 131.849 376.776C130.994 377.145 130.225 377.684 129.588 378.361C128.951 379.037 128.46 379.837 128.145 380.711C127.83 381.584 127.698 382.512 127.758 383.439C127.793 383.961 127.887 384.478 128.039 384.979C128.154 385.343 128.297 385.697 128.468 386.038L129.264 387.625C129.326 387.648 129.389 387.68 129.451 387.703C129.467 387.711 129.475 387.711 129.482 387.718C129.81 387.851 130.138 387.983 130.473 388.107C131.572 388.526 132.692 388.885 133.829 389.181C135.66 389.671 137.53 390.007 139.417 390.185C140.518 390.286 141.618 390.341 142.726 390.341C143.827 390.341 144.904 390.286 145.981 390.185C146.332 390.154 146.683 390.115 147.034 390.076C149.12 389.814 151.178 389.366 153.184 388.738C153.19 388.737 153.195 388.734 153.199 388.73C154.682 388.262 156.13 387.69 157.531 387.018C157.539 387.01 157.546 387.01 157.554 387.003C157.866 386.855 158.171 386.699 158.483 386.544C158.534 386.521 158.583 386.495 158.631 386.466C158.881 386.341 159.131 386.209 159.373 386.077C159.622 385.944 159.864 385.804 160.098 385.656C160.348 385.524 160.582 385.376 160.824 385.228C160.528 384.645 160.223 384.1 159.911 383.579Z" fill="#CACACA"/>
<path d="M137.482 378.303C135.987 377.606 134.276 377.527 132.723 378.084C131.17 378.641 129.901 379.789 129.194 381.276L127.758 383.439L127.071 384.474L126.025 386.046C126.244 386.162 126.454 386.279 126.673 386.396L126.962 386.544C127.633 386.886 128.312 387.213 129.014 387.516C129.092 387.555 129.178 387.586 129.264 387.625C129.326 387.649 129.389 387.68 129.451 387.703C129.467 387.711 129.475 387.711 129.482 387.719C129.81 387.851 130.138 387.983 130.473 388.108C131.572 388.526 132.692 388.885 133.829 389.181C135.66 389.672 137.53 390.007 139.417 390.185L139.964 388.341L140.494 386.582C141.194 385.086 141.27 383.374 140.705 381.822C140.14 380.27 138.981 379.004 137.482 378.303Z" fill="#CACACA"/>
<path d="M131.299 353.959C133.92 355.76 137.03 356.718 140.213 356.706C139.078 357.491 137.785 358.021 136.424 358.26C140.656 359.165 145.03 359.189 149.271 358.332C150.214 358.181 151.124 357.869 151.961 357.411C152.378 357.178 152.741 356.861 153.027 356.48C153.313 356.099 153.515 355.662 153.621 355.197C153.902 353.592 152.648 352.133 151.344 351.15C149.348 349.668 147.046 348.647 144.605 348.161C142.164 347.674 139.646 347.735 137.231 348.338C135.623 348.661 134.159 349.486 133.052 350.693C132.516 351.308 132.193 352.078 132.129 352.889C132.066 353.701 132.266 354.512 132.7 355.201L131.299 353.959Z" fill="#2F2E41"/>
<path d="M175.301 344.649C173.652 339.925 170.99 335.617 167.499 332.024C164.009 328.432 159.775 325.641 155.091 323.848C150.408 322.055 145.389 321.302 140.384 321.642C135.379 321.982 130.509 323.406 126.113 325.815C121.716 328.225 117.9 331.561 114.93 335.593C111.96 339.624 109.908 344.252 108.917 349.155C107.926 354.058 108.019 359.118 109.19 363.982C110.362 368.845 112.584 373.395 115.7 377.315C116.004 377.704 116.332 378.093 116.66 378.466C116.679 378.494 116.7 378.52 116.723 378.544C117.531 379.471 118.391 380.352 119.298 381.182C119.532 381.4 119.774 381.626 120.024 381.836C120.492 382.256 120.976 382.653 121.483 383.034C121.678 383.19 121.873 383.345 122.076 383.493C122.864 384.092 123.692 384.645 124.534 385.182C124.549 385.182 124.563 385.187 124.573 385.197C124.815 385.345 125.065 385.493 125.315 385.633C125.549 385.773 125.791 385.913 126.025 386.045C126.244 386.162 126.454 386.279 126.673 386.396L126.961 386.543C127.633 386.886 128.312 387.213 129.014 387.516C129.092 387.555 129.178 387.586 129.264 387.625C129.326 387.648 129.389 387.679 129.451 387.703C129.467 387.711 129.475 387.711 129.482 387.718C129.81 387.851 130.138 387.983 130.473 388.107C131.572 388.526 132.692 388.884 133.829 389.181C135.66 389.671 137.53 390.007 139.417 390.185C140.518 390.286 141.618 390.341 142.726 390.341C143.827 390.341 144.904 390.286 145.981 390.185C146.332 390.154 146.683 390.115 147.034 390.076C149.12 389.813 151.178 389.366 153.184 388.738C153.19 388.737 153.195 388.734 153.199 388.73C154.682 388.262 156.13 387.69 157.531 387.018C157.539 387.01 157.546 387.01 157.554 387.002C157.866 386.855 158.171 386.699 158.483 386.543C158.534 386.52 158.583 386.494 158.631 386.466C158.881 386.341 159.131 386.209 159.373 386.076C159.622 385.944 159.864 385.804 160.098 385.656C160.348 385.524 160.582 385.376 160.824 385.228C160.949 385.151 161.074 385.073 161.199 384.995C161.371 384.894 161.527 384.793 161.698 384.676C161.932 384.528 162.167 384.365 162.393 384.201C162.697 383.991 163.002 383.773 163.298 383.548C163.398 383.483 163.494 383.413 163.587 383.337C169.383 378.945 173.637 372.837 175.741 365.888C177.844 358.94 177.691 351.505 175.301 344.649L175.301 344.649ZM162.448 381.836C162.244 381.999 162.034 382.155 161.823 382.295C161.612 382.45 161.41 382.598 161.199 382.738C161.019 382.863 160.84 382.987 160.653 383.104C160.636 383.119 160.617 383.132 160.598 383.143C160.465 383.236 160.325 383.322 160.192 383.408C160.098 383.462 160.005 383.524 159.911 383.579C159.638 383.75 159.365 383.913 159.084 384.069C158.936 384.162 158.779 384.248 158.631 384.333C158.577 384.365 158.522 384.396 158.467 384.427C158.225 384.559 157.991 384.676 157.757 384.8C157.726 384.824 157.687 384.831 157.664 384.855C157.649 384.855 157.635 384.861 157.624 384.87C157.328 385.026 157.023 385.174 156.719 385.314C155.548 385.876 154.341 386.362 153.106 386.769C152.95 386.824 152.786 386.886 152.63 386.932C150.639 387.562 148.593 388 146.519 388.24C146.285 388.271 146.043 388.294 145.801 388.318C144.787 388.411 143.764 388.458 142.726 388.458C141.805 388.458 140.877 388.419 139.964 388.341C138.055 388.182 136.164 387.854 134.313 387.36C132.905 386.994 131.525 386.526 130.185 385.96C130.114 385.929 130.044 385.905 129.974 385.874C129.896 385.843 129.834 385.82 129.764 385.789C129.685 385.757 129.623 385.726 129.545 385.687C129.038 385.47 128.53 385.228 128.039 384.979C127.968 384.94 127.898 384.909 127.828 384.87L127.555 384.73C127.391 384.645 127.227 384.559 127.071 384.474C126.548 384.193 126.033 383.89 125.534 383.579C125.346 383.462 125.143 383.337 124.956 383.213L124.815 383.12C124.378 382.824 123.942 382.528 123.512 382.209C123.223 381.991 122.927 381.781 122.646 381.556C122.17 381.198 121.709 380.816 121.265 380.42C121.03 380.225 120.796 380.007 120.578 379.805C119.699 378.997 118.868 378.14 118.088 377.237C117.831 376.941 117.573 376.646 117.331 376.334C117.277 376.272 117.23 376.21 117.175 376.14C113.152 371.079 110.731 364.937 110.223 358.499C109.714 352.06 111.141 345.617 114.32 339.99C117.5 334.364 122.288 329.808 128.074 326.906C133.861 324.004 140.383 322.885 146.809 323.694C153.236 324.502 159.275 327.201 164.157 331.446C169.039 335.69 172.542 341.289 174.22 347.526C175.897 353.764 175.674 360.359 173.577 366.47C171.481 372.58 167.606 377.93 162.448 381.836H162.448Z" fill="#3F3D56"/>
<path d="M200.426 176.642C188.417 166.539 173.721 160.133 158.128 158.205C142.534 156.277 126.714 158.91 112.593 165.783C98.473 172.656 86.6604 183.472 78.5932 196.917C70.526 210.361 66.552 225.854 67.1548 241.509C67.7576 257.165 72.9111 272.308 81.9884 285.096C91.0657 297.885 103.675 307.767 118.283 313.54C132.89 319.313 148.866 320.729 164.265 317.614C179.665 314.5 193.825 306.99 205.022 295.998L304.448 379.646C305.962 380.915 307.918 381.533 309.888 381.366C311.858 381.199 313.682 380.259 314.958 378.754C316.235 377.248 316.861 375.299 316.699 373.335C316.536 371.37 315.599 369.549 314.093 368.272L314.082 368.263L214.656 284.614C226.206 268.086 231.149 247.853 228.517 227.88C225.885 207.907 215.867 189.634 200.426 176.642ZM194.016 276.56C186.271 285.712 175.977 292.369 164.436 295.689C152.896 299.008 140.628 298.841 129.183 295.209C117.737 291.576 107.63 284.641 100.138 275.281C92.6453 265.921 88.1052 254.556 87.0913 242.623C86.0774 230.69 88.6352 218.726 94.4412 208.242C100.247 197.759 109.041 189.228 119.71 183.727C130.379 178.227 142.444 176.004 154.38 177.34C166.316 178.677 177.587 183.512 186.766 191.235C199.076 201.591 206.755 216.399 208.115 232.4C209.475 248.402 204.403 264.286 194.016 276.56Z" fill="#3F3D56"/>
<path opacity="0.3" d="M108.44 283.788C96.7897 273.986 89.2628 260.174 87.3537 245.094C85.4447 230.015 89.293 214.771 98.1347 202.39C96.9736 203.556 95.8511 204.777 94.7672 206.053C89.6242 212.13 85.732 219.158 83.313 226.734C80.894 234.311 79.9955 242.289 80.6687 250.212C81.3419 258.135 83.5737 265.849 87.2367 272.912C90.8997 279.975 95.9221 286.249 102.017 291.377C108.112 296.505 115.161 300.386 122.76 302.798C130.359 305.21 138.361 306.105 146.307 305.434C154.254 304.763 161.99 302.538 169.074 298.885C176.158 295.233 182.451 290.226 187.594 284.149C188.675 282.871 189.694 281.562 190.649 280.223C179.895 290.996 165.472 297.342 150.242 298.003C135.013 298.663 120.091 293.589 108.44 283.788Z" fill="black"/>
<path d="M400.87 382.773C401.646 381.828 402.206 380.724 402.508 379.54C402.811 378.356 402.849 377.12 402.621 375.919C402.393 374.719 401.903 373.582 401.187 372.591C400.47 371.599 399.545 370.776 398.475 370.18L380.352 296.22L367.131 300.428L386.701 373.883C385.815 375.742 385.644 377.859 386.22 379.835C386.795 381.811 388.078 383.507 389.825 384.603C391.571 385.699 393.66 386.118 395.696 385.781C397.732 385.443 399.572 384.373 400.87 382.773H400.87Z" fill="#FFB6B6"/>
<path d="M391.502 335.466L381.841 343.776L368.324 355.394L362.354 324.938L361.729 321.771L361.238 319.258L374.934 295.471L386.352 296.124L387.132 296.17L387.148 296.342L387.327 297.937L389.668 318.93L389.723 319.437L391.502 335.466Z" fill="#3F3D56"/>
<path d="M328.351 542.193L318.784 542.193L314.232 505.396L328.354 505.397L328.351 542.193Z" fill="#FFB6B6"/>
<path d="M330.792 551.441L299.941 551.44V551.051C299.941 547.875 301.206 544.83 303.458 542.585C305.71 540.34 308.764 539.078 311.949 539.078H311.95L330.792 539.079L330.792 551.441Z" fill="#2F2E41"/>
<path d="M428.246 542.972L418.678 542.971L414.126 506.175L428.248 506.176L428.246 542.972Z" fill="#FFB6B6"/>
<path d="M430.686 552.219L399.835 552.218V551.829C399.836 548.654 401.101 545.608 403.353 543.363C405.605 541.118 408.659 539.857 411.843 539.856H411.844L430.687 539.857L430.686 552.219Z" fill="#2F2E41"/>
<path d="M435.893 528.324L410.139 532.215L372.671 405.785L332.877 532.993L304.001 529.103L341.462 381.259V369.587L346.534 352.079L346.004 347.34L342.312 314.2L340.712 299.828L340.609 298.899C340.522 298.12 340.729 297.337 341.189 296.701C341.65 296.066 342.331 295.624 343.101 295.463L355.119 292.941H374.762L386.352 296.124L387.148 296.342L387.507 296.443L387.327 297.937L384.611 320.643L384.463 321.888L381.841 343.776L381.263 348.577C403.896 364.918 404.676 381.259 404.676 381.259L435.893 528.324Z" fill="#2F2E41"/>
<path d="M362.567 283.096C373.153 283.096 381.735 274.54 381.735 263.985C381.735 253.43 373.153 244.873 362.567 244.873C351.981 244.873 343.399 253.43 343.399 263.985C343.399 274.54 351.981 283.096 362.567 283.096Z" fill="#FFB6B6"/>
<path d="M382.699 344.185L344.781 349.129L345.49 354.53L383.408 349.586L382.699 344.185Z" fill="#3F3D56"/>
<path d="M293.92 350.757C294.282 350.991 294.626 351.253 294.947 351.541L332.452 342.008L335.01 332.987L349.17 335.058L346.197 351.467C345.957 352.792 345.292 354.005 344.302 354.921C343.312 355.838 342.05 356.41 340.707 356.551L296.916 361.149C296.202 362.647 295.048 363.893 293.607 364.722C292.165 365.55 290.505 365.921 288.847 365.786C287.189 365.65 285.612 365.015 284.325 363.963C283.038 362.912 282.102 361.496 281.643 359.901C281.183 358.307 281.221 356.611 281.752 355.039C282.282 353.467 283.281 352.094 284.613 351.101C285.946 350.108 287.55 349.544 289.213 349.482C290.875 349.421 292.517 349.866 293.92 350.757Z" fill="#FFB6B6"/>
<path d="M351.607 300.334L344.973 295.276C343.18 294.597 340.722 296.525 340.291 298.388L330.926 336.516L350.436 350.523L353.168 346.243L351.607 300.334Z" fill="#3F3D56"/>
<g opacity="0.2">
<path d="M389.668 318.931C388.013 319.586 386.325 320.157 384.611 320.643C384.065 320.806 383.503 320.962 382.949 321.11C379.297 322.12 375.543 322.725 371.758 322.915C370.128 322.983 368.496 322.939 366.872 322.782C365.13 322.609 363.407 322.271 361.729 321.771C361.674 321.755 361.612 321.74 361.557 321.724C358.068 320.736 354.869 318.924 352.231 316.441C351.642 315.869 351.092 315.258 350.585 314.612C349.127 312.833 348.058 310.77 347.445 308.555C346.833 306.34 346.69 304.023 347.026 301.75C347.091 301.338 347.18 300.93 347.291 300.528C347.585 299.433 347.974 298.366 348.454 297.338C348.665 296.855 348.899 296.381 349.149 295.914L357.967 292.941H374.762L386.352 296.124L387.132 296.171L387.148 296.342L387.507 296.443L387.327 297.937L389.668 318.931Z" fill="black"/>
</g>
<path d="M347.879 248.162C344.294 247.724 340.36 248.034 337.566 250.315C334.772 252.597 333.871 257.34 336.516 259.792C338.858 261.962 342.52 261.452 345.657 262.069C348.359 262.673 350.78 264.163 352.532 266.301C354.284 268.439 355.267 271.102 355.321 273.862C355.275 281.779 347.654 287.775 346.286 295.573C345.351 300.895 347.603 306.496 351.495 310.256C355.387 314.015 360.738 316.047 366.129 316.597C371.52 317.148 376.971 316.307 382.21 314.926C387.471 313.54 392.65 311.572 397.065 308.399C401.479 305.227 405.098 300.754 406.515 295.515C407.932 290.277 406.915 284.271 403.262 280.249C399.08 275.643 392.122 274.059 388.505 269C384.449 263.33 385.95 255.254 382.668 249.106C380.476 245.001 376.327 242.201 371.904 240.726C367.481 239.252 362.758 238.96 358.097 238.818C355.647 238.743 353.121 238.718 350.839 239.608C348.556 240.499 346.549 242.529 346.431 244.97C346.312 247.411 347.879 248.162 347.879 248.162Z" fill="#2F2E41"/>
<path d="M527.329 552.534H229.987C229.78 552.534 229.581 552.452 229.435 552.306C229.289 552.16 229.207 551.962 229.207 551.756C229.207 551.549 229.289 551.351 229.435 551.205C229.581 551.059 229.78 550.978 229.987 550.978H527.329C527.536 550.978 527.735 551.059 527.881 551.205C528.027 551.351 528.11 551.549 528.11 551.756C528.11 551.962 528.027 552.16 527.881 552.306C527.735 552.452 527.536 552.534 527.329 552.534Z" fill="#CACACA"/>
</g>
<defs>
<clipPath id="clip0_303_44730">
<rect width="461.016" height="513.067" fill="white" transform="translate(67.0934 39.4668)"/>
</clipPath>
</defs>
</svg>
