<svg width="150" height="150" viewBox="0 0 150 150" fill="none" xmlns="http://www.w3.org/2000/svg">
<path d="M89.0588 27.5749C87.1389 30.8942 90.7541 36.4869 87.1106 37.6483L87.4107 37.3471C89.61 34.6322 85.0132 28.8859 87.2125 26.171C87.5542 25.7727 87.8476 25.3352 88.0863 24.8674" fill="#2F2E41"/>
<path d="M107.039 76.2713C107.102 75.9391 107.091 75.5971 107.008 75.2694C106.926 74.9417 106.772 74.6363 106.559 74.3746C106.345 74.1129 106.077 73.9013 105.774 73.7548C105.47 73.6083 105.138 73.5303 104.801 73.5265L100.056 59.6893L97.4287 63.0496L102.446 75.9788C102.477 76.5472 102.715 77.0844 103.114 77.4887C103.514 77.8929 104.047 78.1361 104.613 78.1722C105.179 78.2082 105.739 78.0346 106.186 77.6843C106.633 77.3339 106.936 76.8312 107.039 76.2713L107.039 76.2713Z" fill="#FFB8B8"/>
<path d="M86.1778 42.8631C86.1778 42.8631 86.0302 37.8542 90.4933 40.7236C94.9565 43.593 104.674 70.4721 104.674 70.4721L99.8381 73.0977L88.8601 48.5004L86.1778 42.8631Z" fill="#03DAC5"/>
<path d="M99.3455 128.712L97.1168 129.667L92.3828 121.495L95.6723 120.085L99.3455 128.712Z" fill="#FFB6B6"/>
<path d="M102.172 132.082L100.574 132.768L99.6437 131.376L99.5579 133.203L95.3189 135.021C95.1158 135.108 94.8902 135.128 94.675 135.077C94.4599 135.027 94.2666 134.908 94.1232 134.74C93.9798 134.571 93.894 134.361 93.8781 134.139C93.8623 133.918 93.9174 133.698 94.0352 133.51L96.4213 129.712L95.7695 128.181L99.4208 126.868L102.172 132.082Z" fill="#2F2E41"/>
<path d="M64.4089 131.484L61.9883 131.365L61.2925 121.938L64.8654 122.113L64.4089 131.484Z" fill="#FFB6B6"/>
<path d="M65.4816 135.755L63.7457 135.67L63.5159 134.01L62.6422 135.616L58.0379 135.39C57.8172 135.379 57.6058 135.298 57.4344 135.158C57.263 135.018 57.1407 134.827 57.0853 134.612C57.0299 134.398 57.0444 134.171 57.1266 133.965C57.2087 133.759 57.3543 133.585 57.542 133.468L61.343 131.1L61.4239 129.437L65.28 129.858L65.4816 135.755Z" fill="#2F2E41"/>
<path d="M70.5241 70.2054C70.5241 70.2054 65.6014 83.6688 65.5219 85.1755C65.4424 86.6821 64.0385 105.734 62.8611 106.841C61.6837 107.948 58.084 125.111 60.8849 126.454C63.6858 127.796 72.5224 125.572 72.5224 125.572L75.5964 105.299L76.6407 89.7671C76.6407 89.7671 79.8199 126.342 85.586 126.234C91.3522 126.127 98.3786 123.923 98.3786 123.923L90.3079 101.773C90.3079 101.773 90.4221 75.5506 88.5513 70.2617C86.6806 64.9727 70.5241 70.2054 70.5241 70.2054Z" fill="#2F2E41"/>
<path d="M85.1312 35.5184L78.5386 36.1244L77.4765 39.3963C77.4765 39.3963 71.9594 42.4371 73.1811 43.8185C74.4027 45.1999 72.9079 54.5096 72.9079 54.5096L73.2455 62.0664C73.2455 62.0664 72.8828 67.3019 71.7975 68.5081C70.7121 69.7144 67.8726 72.6724 69.879 71.2572C76.9138 66.2952 89.21 70.4821 89.21 70.4821L87.4534 59.6844C87.4534 59.6844 91.4433 42.0061 89.8688 40.5131C88.2942 39.0201 86.8086 38.8314 86.8086 38.8314L85.1312 35.5184Z" fill="#03DAC5"/>
<path d="M50.4898 69.7684C50.821 69.7065 51.1347 69.5725 51.4087 69.3758C51.6827 69.1791 51.9104 68.9245 52.0758 68.6299C52.2411 68.3353 52.3401 68.0079 52.3658 67.6708C52.3914 67.3337 52.3431 66.995 52.2242 66.6786L63.3434 57.2114L59.2692 55.9772L49.0917 65.3685C48.5754 65.6042 48.1631 66.0217 47.933 66.5421C47.703 67.0624 47.6711 67.6493 47.8434 68.1917C48.0157 68.734 48.3803 69.1941 48.8681 69.4847C49.3558 69.7753 49.9328 69.8763 50.4898 69.7684Z" fill="#FFB8B8"/>
<path d="M78.7285 45.0049C78.7285 45.0049 80.9193 40.502 75.6746 41.2711C70.4299 42.0403 50.541 62.5144 50.541 62.5144L53.8694 66.9064L73.9702 49.0325L78.7285 45.0049Z" fill="#03DAC5"/>
<path d="M70.1875 37.3669L49.3932 64.1023C49.0335 64.5663 48.8717 65.1545 48.9434 65.7381C49.015 66.3216 49.3143 66.8528 49.7755 67.2153C54.6045 78.9822 69.0514 87.708 86.0462 95.6281C86.5085 95.9894 87.0947 96.152 87.6762 96.0801C88.2578 96.0081 88.7871 95.7076 89.1481 95.2444L109.942 68.509C110.302 68.0451 110.464 67.4568 110.393 66.8732C110.321 66.2896 110.022 65.7583 109.56 65.3961C95.2982 57.3142 83.0402 47.9505 73.2893 36.9833C72.827 36.6222 72.2408 36.4599 71.6594 36.5318C71.078 36.6037 70.5487 36.904 70.1875 37.3669Z" fill="#E6E6E6"/>
<path d="M108.483 67.9008L102.154 76.0388C98.2874 80.98 92.6296 84.1849 86.4163 84.9534C80.203 85.7218 73.9391 83.9914 68.993 80.1401L51.2546 66.2447C50.9919 66.0388 50.8212 65.7367 50.7801 65.4047C50.739 65.0726 50.8308 64.7378 51.0354 64.4736L71.129 38.6391C71.3347 38.3758 71.636 38.2051 71.967 38.1645C72.2979 38.1239 72.6314 38.2167 72.8942 38.4225C81.8672 50.0507 93.8783 59.0997 108.266 66.1311C108.528 66.3371 108.699 66.6391 108.739 66.9709C108.78 67.3026 108.688 67.637 108.483 67.9008Z" fill="white"/>
<path d="M69.773 51.962L65.6508 57.2619C65.5414 57.4023 65.381 57.4933 65.2047 57.515C65.0285 57.5368 64.8508 57.4874 64.7108 57.3777C64.5709 57.2681 64.48 57.1071 64.4582 56.9303C64.4364 56.7534 64.4854 56.5751 64.5946 56.4345L68.7168 51.1346C68.7709 51.0649 68.8381 51.0066 68.9147 50.963C68.9912 50.9194 69.0756 50.8914 69.163 50.8806C69.2503 50.8697 69.339 50.8763 69.4238 50.8998C69.5087 50.9234 69.5881 50.9635 69.6574 51.0178C69.7268 51.0722 69.7849 51.1397 69.8282 51.2166C69.8716 51.2935 69.8994 51.3782 69.9102 51.4659C69.9209 51.5536 69.9143 51.6425 69.8908 51.7276C69.8672 51.8128 69.8272 51.8924 69.773 51.962H69.773Z" fill="#CCCCCC"/>
<path d="M77.505 48.0306L68.4524 59.6697C68.3983 59.7393 68.331 59.7975 68.2545 59.841C68.1779 59.8845 68.0936 59.9125 68.0063 59.9233C67.919 59.9341 67.8304 59.9275 67.7456 59.9039C67.6608 59.8804 67.5815 59.8403 67.5121 59.786C67.4428 59.7316 67.3848 59.6641 67.3414 59.5873C67.298 59.5105 67.2702 59.4258 67.2594 59.3382C67.2487 59.2506 67.2552 59.1617 67.2787 59.0766C67.3022 58.9915 67.3421 58.9119 67.3962 58.8423L76.4488 47.2033C76.5029 47.1335 76.5702 47.0751 76.6467 47.0315C76.7233 46.9878 76.8077 46.9597 76.8951 46.9488C76.9825 46.938 77.0712 46.9445 77.1561 46.968C77.241 46.9916 77.3204 47.0317 77.3898 47.0861C77.4593 47.1405 77.5173 47.208 77.5607 47.285C77.6041 47.3619 77.6319 47.4467 77.6426 47.5344C77.6533 47.6221 77.6467 47.7111 77.6231 47.7963C77.5995 47.8814 77.5594 47.9611 77.505 48.0306H77.505Z" fill="#CCCCCC"/>
<path d="M62.0654 67.4443C64.5024 67.4443 66.478 65.4617 66.478 63.016C66.478 60.5703 64.5024 58.5876 62.0654 58.5876C59.6284 58.5876 57.6528 60.5703 57.6528 63.016C57.6528 65.4617 59.6284 67.4443 62.0654 67.4443Z" fill="#03DAC5"/>
<path d="M77.9857 57.2293L66.8673 71.5243C66.7513 71.6429 66.5958 71.7145 66.4306 71.7254C66.2653 71.7364 66.1018 71.6859 65.9713 71.5836C65.8408 71.4814 65.7523 71.3345 65.7227 71.171C65.6932 71.0074 65.7246 70.8387 65.8111 70.697L76.9295 56.4019C77.0455 56.2833 77.201 56.2117 77.3662 56.2008C77.5315 56.1899 77.6949 56.2403 77.8255 56.3426C77.956 56.4449 78.0445 56.5918 78.0741 56.7553C78.1036 56.9188 78.0722 57.0875 77.9857 57.2293Z" fill="#CCCCCC"/>
<path d="M85.1984 53.9655L69.6798 73.9179C69.5638 74.0365 69.4083 74.1081 69.2431 74.119C69.0778 74.1299 68.9143 74.0795 68.7838 73.9772C68.6533 73.8749 68.5648 73.7281 68.5352 73.5645C68.5057 73.401 68.5371 73.2323 68.6236 73.0905L84.1422 53.1381C84.2582 53.0195 84.4137 52.948 84.5789 52.937C84.7442 52.9261 84.9076 52.9766 85.0382 53.0788C85.1687 53.1811 85.2572 53.328 85.2867 53.4915C85.3163 53.655 85.2848 53.8237 85.1984 53.9655Z" fill="#CCCCCC"/>
<path d="M85.1444 62.8372L74.026 77.1323C73.91 77.2508 73.7545 77.3224 73.5893 77.3334C73.424 77.3443 73.2605 77.2938 73.13 77.1916C72.9995 77.0893 72.911 76.9424 72.8814 76.7789C72.8519 76.6153 72.8833 76.4466 72.9698 76.3049L84.0882 62.0098C84.2042 61.8912 84.3597 61.8197 84.5249 61.8087C84.6902 61.7978 84.8536 61.8483 84.9842 61.9505C85.1147 62.0528 85.2032 62.1997 85.2327 62.3632C85.2623 62.5267 85.2308 62.6954 85.1444 62.8372Z" fill="#CCCCCC"/>
<path d="M99.8558 64.6001L88.7374 78.8952C88.6214 79.0138 88.4659 79.0854 88.3007 79.0963C88.1354 79.1072 87.972 79.0568 87.8414 78.9545C87.7109 78.8522 87.6224 78.7053 87.5929 78.5418C87.5633 78.3783 87.5947 78.2096 87.6812 78.0678L98.7996 63.7728C98.9156 63.6542 99.0711 63.5826 99.2363 63.5717C99.4016 63.5607 99.5651 63.6112 99.6956 63.7135C99.8261 63.8157 99.9146 63.9626 99.9442 64.1261C99.9737 64.2897 99.9423 64.4584 99.8558 64.6001Z" fill="#03DAC5"/>
<path d="M92.3571 59.5734L76.8385 79.5258C76.7225 79.6444 76.567 79.716 76.4018 79.7269C76.2365 79.7378 76.073 79.6874 75.9425 79.5851C75.8119 79.4829 75.7235 79.336 75.6939 79.1724C75.6644 79.0089 75.6958 78.8402 75.7823 78.6984L91.3009 58.746C91.4169 58.6274 91.5724 58.5559 91.7376 58.5449C91.9028 58.534 92.0663 58.5845 92.1969 58.6867C92.3274 58.789 92.4159 58.9359 92.4454 59.0994C92.475 59.2629 92.4435 59.4316 92.3571 59.5734Z" fill="#CCCCCC"/>
<path d="M74.0786 27.0718C74.0782 28.1475 74.3409 29.2069 74.8437 30.1569C75.3466 31.1069 76.074 31.9186 76.9624 32.5206C77.8507 33.1226 78.8727 33.4965 79.9386 33.6096C81.0046 33.7227 82.0819 33.5714 83.076 33.1691C84.0701 32.7668 84.9506 32.1257 85.6402 31.3022C86.3298 30.4786 86.8074 29.4978 87.0311 28.4457C87.2548 27.3937 87.2178 26.3027 86.9232 25.2683C86.6287 24.234 86.0856 23.2881 85.3418 22.5136L85.3104 22.4821C85.258 22.4268 85.2056 22.3717 85.1506 22.3191C85.1502 22.3191 85.1499 22.319 85.1496 22.3189C85.1492 22.3187 85.1489 22.3185 85.1487 22.3183C85.1485 22.3181 85.1483 22.3178 85.1481 22.3174C85.148 22.3171 85.1479 22.3168 85.148 22.3164C85.0798 22.2533 85.0117 22.1903 84.941 22.1298C83.9948 21.2972 82.8295 20.756 81.5847 20.5709C80.3399 20.3859 79.0683 20.5647 77.9222 21.0862C76.7761 21.6076 75.804 22.4495 75.1223 23.5111C74.4406 24.5727 74.0783 25.8089 74.0786 27.0718V27.0718Z" fill="#2F2E41"/>
<path d="M82.2401 34.1028C85.2727 34.1028 87.7312 31.6356 87.7312 28.5921C87.7312 25.5487 85.2727 23.0814 82.2401 23.0814C79.2075 23.0814 76.749 25.5487 76.749 28.5921C76.749 31.6356 79.2075 34.1028 82.2401 34.1028Z" fill="#FFB8B8"/>
<path d="M76.3864 30.0608C75.8497 27.6334 76.6255 24.9138 78.3169 23.2933C79.1676 22.4944 80.2257 21.9525 81.3695 21.73C82.5133 21.5075 83.6965 21.6134 84.783 22.0355C84.9211 22.0915 85.0592 22.1527 85.1947 22.2166L85.2578 22.2464V22.2557C85.27 22.2641 85.2822 22.2731 85.2944 22.2821C85.32 22.3062 85.3512 22.3235 85.3852 22.3324C85.8619 22.3198 86.336 22.4086 86.7762 22.5927C87.2164 22.7769 87.6129 23.0524 87.9396 23.401C88.7907 24.3278 89.1915 25.8254 89.0686 27.6181L89.0647 27.6742L89.0171 27.704C88.3728 28.1137 87.7042 28.4837 87.015 28.8118C84.6044 29.9493 82.4037 30.1601 80.2886 29.4553L80.2498 29.4424L79.3621 27.9493C79.1798 28.9791 79.2771 32.395 78.2314 32.58L76.4092 30.1638L76.3864 30.0608Z" fill="#2F2E41"/>
<path d="M64.8273 34.8589C66.6959 33.891 64.2927 30.378 64.7756 28.3241C65.2585 26.2702 68.7361 25.6095 68.9576 23.5109C69.1791 21.4123 69.7003 19.2479 71.0802 17.6554C71.9619 16.6379 73.2612 15.8867 74.5988 16.0141C75.0514 16.0572 75.4895 16.1977 75.8831 16.4261C76.2767 16.6544 76.6167 16.9652 76.8798 17.3373C77.1429 17.7093 77.3231 18.1339 77.408 18.5822C77.4929 19.0304 77.4805 19.4918 77.3717 19.9348C77.7526 19.3932 78.7382 19.5106 78.9822 20.1266C79.1991 20.6743 78.7199 21.3376 78.156 21.3861C77.4181 22.3006 76.5732 23.2711 75.4172 23.4556C75.233 23.498 75.0416 23.4979 74.8575 23.4553C74.6734 23.4126 74.5013 23.3285 74.3543 23.2094C74.0823 22.9473 74.0612 22.4233 74.3838 22.2274C72.931 22.8065 72.0793 24.3829 71.8638 25.9366C71.6482 27.4904 71.9464 29.0625 72.143 30.6188C72.3395 32.1751 72.4241 33.8123 71.8161 35.2575C71.0977 36.965 69.4437 38.1888 67.6386 38.5813C65.8336 38.9738 63.9112 38.5902 62.2774 37.726C60.6435 36.8617 59.281 35.5424 58.168 34.0632C60.0852 35.4295 62.7378 35.9413 64.8273 34.8589Z" fill="#2F2E41"/>
<path d="M79.6169 28.236C77.697 31.5553 81.3122 37.1481 77.6687 38.3095L77.9688 38.0082C80.1681 35.2933 75.5713 29.547 77.7706 26.8321C78.1123 26.4339 78.4057 25.9963 78.6445 25.5286" fill="#2F2E41"/>
<path d="M76.6426 30.0106C76.6426 30.0106 78.2692 23.9173 85.2419 22.5109C85.2497 22.5083 85.2759 22.4978 85.31 22.482C85.3309 22.4689 85.3571 22.4557 85.3833 22.4426C85.3048 22.3979 85.2288 22.3585 85.1502 22.319C85.1499 22.319 85.1495 22.3189 85.1492 22.3188C85.1489 22.3187 85.1486 22.3185 85.1483 22.3182C85.1481 22.318 85.1479 22.3177 85.1478 22.3174C85.1477 22.3171 85.1476 22.3167 85.1476 22.3164C85.0795 22.2533 85.0114 22.1902 84.9407 22.1297L84.7416 22.1376C84.7416 22.1376 77.7453 21.0257 76.6426 30.0106Z" fill="#FD6584"/>
<path d="M26 135.67C25.9999 135.714 26.0047 135.757 26.014 135.797C26.0233 135.837 26.037 135.873 26.0543 135.904C26.0716 135.934 26.0921 135.959 26.1147 135.975C26.1372 135.992 26.1614 136 26.1859 136H137.902C137.951 136 137.999 135.965 138.033 135.903C138.068 135.842 138.088 135.758 138.088 135.67C138.088 135.583 138.068 135.499 138.033 135.437C137.999 135.375 137.951 135.341 137.902 135.341H26.1859C26.1614 135.341 26.1372 135.349 26.1147 135.366C26.0921 135.382 26.0716 135.406 26.0543 135.437C26.037 135.468 26.0233 135.504 26.014 135.544C26.0047 135.584 25.9999 135.627 26 135.67Z" fill="#CCCCCC"/>
</svg>
