<svg width="400" height="400" viewBox="0 0 400 400" fill="none" xmlns="http://www.w3.org/2000/svg">
<path d="M369.42 296.595H46.1078C45.9541 296.595 45.8068 296.534 45.6982 296.425C45.5895 296.317 45.5285 296.169 45.5285 296.016C45.5285 295.862 45.5895 295.715 45.6982 295.606C45.8068 295.498 45.9541 295.437 46.1078 295.437H369.42C369.574 295.437 369.721 295.498 369.83 295.606C369.938 295.715 370 295.862 370 296.016C370 296.169 369.938 296.317 369.83 296.425C369.721 296.534 369.574 296.595 369.42 296.595Z" fill="#D1D1D1"/>
<path d="M114.716 189.685C160.656 189.685 197.899 161.194 197.899 126.047C197.899 90.9005 160.656 62.4087 114.716 62.4087C68.775 62.4087 31.5328 90.9005 31.5328 126.047C31.5328 161.194 68.775 189.685 114.716 189.685Z" fill="white"/>
<path d="M114.751 190.265C68.5713 190.265 31 161.464 31 126.047C31 90.6307 68.5366 61.8411 114.751 61.8411C160.965 61.8411 198.513 90.6423 198.513 126.047C198.513 161.452 160.907 190.265 114.751 190.265ZM114.751 62.9996C69.2085 62.9996 32.1585 91.2794 32.1585 126.047C32.1585 160.815 69.2317 189.106 114.751 189.106C160.269 189.106 197.354 160.826 197.354 126.047C197.354 91.2679 160.269 62.9996 114.751 62.9996Z" fill="#D1D1D1"/>
<path d="M207.156 98.6709C206.765 98.6826 206.376 98.737 205.997 98.8331C201.653 99.9917 200.436 105.947 205.314 107.545C205.987 107.728 206.692 107.766 207.381 107.658C208.071 107.549 208.73 107.297 209.315 106.916C209.9 106.535 210.398 106.036 210.776 105.449C211.155 104.863 211.406 104.203 211.512 103.514C211.59 102.9 211.535 102.277 211.351 101.687C211.167 101.097 210.857 100.553 210.444 100.094C210.03 99.6339 209.523 99.2688 208.955 99.0233C208.388 98.7778 207.774 98.6576 207.156 98.6709Z" fill="white"/>
<path d="M206.599 108.333C206.096 108.333 205.596 108.254 205.116 108.101C204.077 107.838 203.159 107.229 202.512 106.374C201.865 105.519 201.53 104.469 201.56 103.398C201.628 102.197 202.08 101.05 202.85 100.126C203.619 99.2015 204.666 98.5493 205.835 98.2655C206.266 98.1546 206.71 98.1001 207.155 98.1033C207.853 98.0893 208.545 98.2259 209.185 98.5036C209.825 98.7813 210.397 99.1937 210.864 99.7126C211.33 100.232 211.679 100.845 211.886 101.511C212.094 102.177 212.156 102.88 212.068 103.572C211.972 104.354 211.701 105.105 211.276 105.769C210.851 106.432 210.282 106.992 209.612 107.406C208.718 107.999 207.672 108.321 206.599 108.333ZM207.155 99.2618C206.808 99.2584 206.461 99.3013 206.124 99.3892C205.198 99.6086 204.367 100.12 203.753 100.848C203.14 101.576 202.777 102.482 202.718 103.433C202.699 104.253 202.962 105.056 203.464 105.705C203.966 106.355 204.676 106.812 205.476 107.001C206.067 107.156 206.684 107.185 207.287 107.087C207.89 106.989 208.466 106.766 208.978 106.432C209.489 106.098 209.926 105.661 210.258 105.148C210.591 104.636 210.813 104.059 210.909 103.456C210.979 102.927 210.934 102.389 210.777 101.879C210.621 101.369 210.355 100.898 210 100.5C209.645 100.102 209.208 99.7853 208.719 99.5716C208.23 99.3578 207.701 99.2522 207.167 99.2618H207.155Z" fill="#D1D1D1"/>
<path d="M308.365 217.34L332.312 211.269C331.408 209.554 316.857 165.889 303.511 157.397C292.053 147.874 269.044 146.97 242.989 145.927C234.649 145.439 226.284 146.256 218.196 148.349C187.808 156.748 166.456 199.846 166.456 199.846L196.393 205.766C196.393 205.766 191.631 250.277 187.46 304.543C187.46 304.543 235.169 315.282 309.709 311.1C309.709 311.1 307.658 225.055 308.365 217.34Z" fill="#FF931E"/>
<path d="M235.493 161.07L210.724 309.814L261.062 313.452L271.975 152.554L235.493 161.07Z" fill="#484646"/>
<path d="M261.062 314.031L210.735 310.393C210.654 310.386 210.575 310.363 210.504 310.326C210.432 310.288 210.369 310.236 210.318 310.173C210.222 310.043 210.181 309.881 210.202 309.721L234.971 160.977C234.987 160.865 235.037 160.761 235.113 160.678C235.19 160.596 235.29 160.538 235.4 160.514L271.894 151.987C271.981 151.964 272.072 151.964 272.159 151.986C272.246 152.009 272.326 152.053 272.392 152.114C272.462 152.171 272.517 152.244 272.554 152.326C272.59 152.409 272.606 152.499 272.601 152.589L261.687 313.487C261.682 313.562 261.662 313.636 261.628 313.703C261.595 313.771 261.548 313.831 261.49 313.88C261.432 313.933 261.364 313.973 261.291 313.999C261.217 314.024 261.139 314.035 261.062 314.031ZM211.407 309.339L260.529 312.896L271.349 153.342L235.991 161.603L211.407 309.339Z" fill="#484646"/>
<path d="M238.807 139.335L234.173 158.764C234.173 158.764 238.146 171.867 251.319 170.859C255.215 170.528 258.989 169.334 262.366 167.362C265.742 165.39 268.637 162.69 270.84 159.459L276.505 123.66C276.505 123.66 267.921 117.115 274.003 97.1532C262.907 99.9225 251.27 99.6544 240.313 96.377C240.313 96.377 230.963 117.578 230.894 127.657C230.824 137.737 238.807 139.335 238.807 139.335Z" fill="white"/>
<path d="M249.94 171.473C237.601 171.473 233.72 159.042 233.639 158.903C233.616 158.804 233.616 158.701 233.639 158.602L238.134 139.706C236.223 139.092 230.291 136.428 230.349 127.623C230.418 117.543 239.432 96.991 239.826 96.1221C239.88 95.9935 239.979 95.8893 240.106 95.8295C240.232 95.7696 240.375 95.7584 240.509 95.7978C251.365 99.0164 262.882 99.2843 273.875 96.574C273.976 96.5464 274.083 96.5458 274.185 96.5723C274.286 96.5987 274.379 96.6512 274.454 96.7246C274.529 96.7988 274.581 96.8922 274.606 96.9945C274.63 97.0968 274.626 97.2039 274.593 97.3039C271.523 107.395 272.276 113.906 273.527 117.59C274.138 119.737 275.319 121.679 276.945 123.209C277.027 123.272 277.091 123.355 277.129 123.451C277.168 123.547 277.18 123.651 277.165 123.753L271.488 159.552C271.481 159.628 271.453 159.7 271.407 159.76C269.146 163.074 266.178 165.844 262.715 167.869C259.253 169.895 255.384 171.126 251.388 171.473C250.89 171.473 250.403 171.473 249.94 171.473ZM234.798 158.729C235.284 160.201 239.327 171.172 251.307 170.315C255.088 169.978 258.749 168.816 262.031 166.91C265.314 165.004 268.139 162.402 270.307 159.285L275.914 123.927C274.454 122.606 268.129 115.62 273.18 98.0106C262.438 100.427 251.262 100.117 240.671 97.1069C239.304 100.27 231.554 118.667 231.496 127.692C231.426 137.134 238.621 138.733 238.922 138.803C238.999 138.813 239.073 138.842 239.138 138.886C239.202 138.93 239.255 138.989 239.293 139.057C239.337 139.121 239.367 139.193 239.381 139.269C239.395 139.345 239.392 139.423 239.374 139.498L234.798 158.729Z" fill="#484646"/>
<path d="M269.207 121.83C269.908 120.166 271.127 118.773 272.682 117.856C274.187 117.083 275.813 116.574 277.49 116.35C278.398 116.142 279.34 116.142 280.248 116.35C280.869 116.551 281.444 116.874 281.939 117.3C283.202 118.191 284.103 119.507 284.476 121.007C284.634 122.237 284.487 123.486 284.048 124.645C283.681 125.946 283.144 127.193 282.449 128.353C281.727 129.491 280.787 130.475 279.682 131.247C278.577 132.019 277.33 132.563 276.012 132.849C274.695 133.135 273.334 133.156 272.009 132.911C270.683 132.666 269.42 132.16 268.292 131.423" fill="white"/>
<path d="M273.922 133.601C271.83 133.604 269.781 133 268.025 131.863C267.898 131.778 267.81 131.646 267.779 131.497C267.749 131.347 267.779 131.191 267.863 131.063C267.903 130.998 267.956 130.942 268.018 130.898C268.08 130.854 268.151 130.823 268.225 130.807C268.3 130.79 268.377 130.789 268.452 130.804C268.527 130.818 268.599 130.847 268.662 130.89C269.726 131.584 270.917 132.061 272.167 132.291C273.416 132.522 274.699 132.501 275.941 132.232C277.182 131.963 278.358 131.449 279.4 130.721C280.441 129.994 281.328 129.067 282.008 127.993C282.676 126.881 283.194 125.685 283.549 124.437C283.951 123.361 284.09 122.205 283.955 121.065C283.6 119.708 282.78 118.519 281.638 117.706C281.199 117.33 280.691 117.042 280.143 116.86C279.323 116.676 278.472 116.676 277.652 116.86C276.037 117.076 274.469 117.566 273.018 118.308C271.55 119.147 270.398 120.446 269.74 122.004C269.678 122.145 269.563 122.256 269.42 122.313C269.276 122.369 269.116 122.366 268.975 122.305C268.834 122.244 268.722 122.128 268.666 121.985C268.609 121.842 268.612 121.682 268.674 121.54C269.439 119.755 270.765 118.266 272.45 117.3C274.01 116.487 275.7 115.954 277.444 115.724C278.434 115.487 279.466 115.487 280.456 115.724C281.15 115.946 281.792 116.304 282.344 116.779C283.71 117.761 284.674 119.206 285.055 120.845C285.232 122.171 285.081 123.519 284.615 124.773C284.248 126.119 283.698 127.41 282.982 128.607C282.217 129.809 281.222 130.848 280.056 131.666C278.889 132.483 277.572 133.061 276.181 133.369C275.438 133.527 274.681 133.604 273.922 133.601Z" fill="#484646"/>
<path d="M236.976 149.056C239.273 149.702 241.682 149.848 244.04 149.484C246.398 149.12 248.651 148.255 250.647 146.947C257.112 142.475 257.135 139.266 257.135 139.266C257.135 139.266 247.322 142.742 239.282 139.718L236.976 149.056Z" fill="#484646"/>
<path d="M241.611 150.272C239.981 150.285 238.357 150.063 236.791 149.612C236.653 149.566 236.538 149.471 236.467 149.344C236.396 149.218 236.375 149.069 236.409 148.928L238.726 139.579C238.774 139.421 238.882 139.288 239.027 139.208C239.1 139.177 239.179 139.161 239.259 139.161C239.338 139.161 239.417 139.177 239.491 139.208C247.241 142.116 256.869 138.779 256.95 138.745C257.039 138.715 257.133 138.707 257.226 138.721C257.319 138.735 257.407 138.771 257.483 138.826C257.559 138.878 257.621 138.949 257.661 139.032C257.702 139.116 257.72 139.208 257.714 139.301C257.714 139.44 257.61 142.846 250.983 147.41C248.229 149.308 244.955 150.307 241.611 150.272ZM237.672 148.65C239.814 149.169 242.039 149.244 244.211 148.869C246.383 148.495 248.455 147.679 250.3 146.472C254.424 143.622 255.826 141.317 256.301 140.135C253.636 140.911 246.245 142.672 239.676 140.482L237.672 148.65Z" fill="#484646"/>
<path d="M252.767 111.229C252.767 111.229 244.205 119.768 245.433 121.795C246.661 123.823 251.226 123.556 251.226 123.556" fill="white"/>
<path d="M250.682 124.089C249.28 124.089 246.048 123.881 244.889 122.039C243.534 119.791 250.23 112.84 252.316 110.754C252.425 110.645 252.573 110.584 252.727 110.584C252.881 110.584 253.029 110.645 253.138 110.754C253.247 110.864 253.308 111.011 253.308 111.166C253.308 111.32 253.247 111.468 253.138 111.577C248.666 116.037 245.341 120.544 245.886 121.436C246.743 122.85 250.01 122.989 251.192 122.919C251.268 122.914 251.344 122.925 251.416 122.95C251.488 122.974 251.555 123.013 251.612 123.064C251.669 123.114 251.715 123.176 251.749 123.244C251.782 123.313 251.801 123.387 251.806 123.464C251.812 123.54 251.803 123.617 251.779 123.69C251.754 123.762 251.716 123.83 251.665 123.887C251.614 123.944 251.552 123.991 251.482 124.024C251.413 124.056 251.338 124.075 251.261 124.078L250.682 124.089Z" fill="#484646"/>
<path d="M262.492 112.235C262.636 110.95 262.011 109.826 261.095 109.723C260.179 109.621 259.32 110.579 259.177 111.864C259.033 113.148 259.658 114.272 260.574 114.375C261.49 114.477 262.349 113.519 262.492 112.235Z" fill="#484646"/>
<path d="M246.941 109.748C247.457 108.563 247.19 107.304 246.346 106.936C245.501 106.568 244.398 107.23 243.882 108.415C243.366 109.601 243.632 110.859 244.477 111.227C245.322 111.595 246.425 110.933 246.941 109.748Z" fill="#484646"/>
<path d="M259.231 134.053C259.08 134.051 258.936 133.993 258.826 133.89C253.682 128.955 239.779 125.92 239.64 125.885C239.566 125.87 239.495 125.84 239.433 125.797C239.37 125.754 239.317 125.7 239.276 125.636C239.235 125.572 239.207 125.501 239.194 125.426C239.181 125.352 239.183 125.275 239.2 125.201C239.215 125.127 239.245 125.056 239.287 124.993C239.33 124.93 239.385 124.876 239.448 124.834C239.512 124.792 239.583 124.763 239.657 124.748C239.732 124.734 239.809 124.734 239.883 124.75C240.463 124.877 254.238 127.889 259.579 133.056C259.661 133.136 259.718 133.238 259.743 133.35C259.767 133.463 259.758 133.58 259.715 133.686C259.673 133.793 259.6 133.885 259.506 133.95C259.411 134.015 259.299 134.051 259.185 134.053H259.231Z" fill="#484646"/>
<path d="M331.165 258.607C331.04 258.608 330.918 258.567 330.818 258.491L313.729 245.376C313.608 245.28 313.529 245.141 313.507 244.988C313.485 244.835 313.524 244.679 313.614 244.554C313.709 244.435 313.847 244.358 313.998 244.339C314.149 244.319 314.302 244.359 314.425 244.449L331.524 257.576C331.618 257.65 331.686 257.752 331.719 257.867C331.752 257.982 331.748 258.105 331.709 258.218C331.67 258.331 331.596 258.429 331.499 258.499C331.402 258.568 331.285 258.606 331.165 258.607Z" fill="#484646"/>
<path d="M284.094 114.554H283.943C283.796 114.514 283.671 114.417 283.595 114.284C283.519 114.152 283.498 113.995 283.537 113.848C285.264 107.429 286.944 100.895 288.531 94.4075L288.704 93.724C289.504 90.9965 289.947 88.1773 290.025 85.3362C289.956 83.2972 289.029 83.0191 286.109 83.0191C286.033 83.0218 285.956 83.0087 285.884 82.9808C285.813 82.953 285.747 82.9108 285.692 82.8569C285.584 82.7493 285.522 82.604 285.519 82.4514C285.494 81.0236 285.144 79.6202 284.493 78.3489C283.842 77.0777 282.909 75.9724 281.765 75.1179C277.895 72.2795 272.23 71.6423 266.206 73.5307L265.905 73.6234C259.903 75.4539 254.725 77.0295 248.167 77.2728C246.905 77.2728 245.595 77.2728 244.333 77.2728C241.482 77.1469 238.626 77.3373 235.817 77.8405C234.065 78.2749 232.342 78.8245 230.662 79.4856C229.219 79.9179 227.866 80.6045 226.665 81.513C225.468 82.6775 224.539 84.0889 223.942 85.649C223.265 87.0125 222.777 88.4626 222.494 89.9587C221.822 94.5929 224.811 98.6593 226.7 100.71C227.858 101.984 229.619 103.409 231.334 102.946C231.41 102.925 231.489 102.92 231.567 102.93C231.646 102.94 231.721 102.966 231.789 103.005C231.858 103.044 231.917 103.097 231.966 103.159C232.014 103.221 232.049 103.293 232.069 103.369C232.09 103.445 232.095 103.524 232.085 103.602C232.075 103.681 232.05 103.756 232.01 103.824C231.971 103.893 231.919 103.952 231.856 104.001C231.794 104.049 231.723 104.084 231.647 104.104C229.839 104.603 227.835 103.711 225.854 101.533C223.873 99.3545 220.617 94.8941 221.37 89.8313C221.663 88.2218 222.182 86.6616 222.911 85.1972C223.593 83.4779 224.636 81.9251 225.97 80.6441C227.275 79.6494 228.746 78.8925 230.314 78.4081C232.042 77.7252 233.815 77.1639 235.62 76.7283C238.516 76.1982 241.462 75.9962 244.402 76.1258C245.653 76.1258 246.939 76.1258 248.191 76.1258C254.586 75.8825 259.706 74.3301 265.626 72.5228L265.928 72.4301C272.3 70.4953 278.336 71.1441 282.506 74.1911C283.714 75.0979 284.714 76.2524 285.439 77.5771C286.165 78.9018 286.598 80.3662 286.712 81.8722C288.797 81.8722 291.137 82.1039 291.242 85.3478C291.17 88.2946 290.714 91.2194 289.886 94.0484L289.712 94.7319C288.125 101.22 286.434 107.765 284.708 114.195C284.66 114.315 284.573 114.415 284.462 114.48C284.351 114.545 284.221 114.571 284.094 114.554Z" fill="#484646"/>
<path d="M265.025 162.796C265.025 162.796 258.479 156.517 256.741 148.835C255.003 141.154 255.675 139.498 254.482 139.231C253.289 138.965 251.273 139.776 249.778 142.394C248.284 145.012 248.689 154.223 251.122 157.93C253.555 161.637 265.025 162.796 265.025 162.796Z" fill="white"/>
<path d="M265.024 163.363H264.966C264.491 163.306 253.195 162.124 250.635 158.231C248.074 154.339 247.634 144.943 249.279 142.093C250.924 139.243 253.102 138.328 254.597 138.617C255.674 138.849 255.755 139.776 256.068 141.734C256.265 143.17 256.555 145.348 257.308 148.685C258.988 156.099 265.36 162.298 265.417 162.356C265.501 162.441 265.557 162.549 265.58 162.667C265.602 162.784 265.59 162.905 265.545 163.016C265.499 163.117 265.426 163.203 265.334 163.265C265.242 163.326 265.134 163.36 265.024 163.363ZM254.041 139.764C253.102 139.764 251.527 140.482 250.275 142.66C249.024 144.839 249.233 153.991 251.608 157.594C253.207 160.038 259.718 161.452 263.483 162.008C261.49 159.807 257.505 154.813 256.184 148.951C255.419 145.592 255.118 143.379 254.921 141.919C254.689 140.239 254.608 139.845 254.353 139.787C254.25 139.771 254.145 139.767 254.041 139.776V139.764Z" fill="#484646"/>
<path d="M168.275 200.657C168.275 200.657 139.172 272.266 150.086 294.046C160.999 315.827 268.338 325.558 268.338 325.558C268.338 325.558 281.985 331.351 286.225 332.232C290.466 333.112 306.546 334.05 306.546 334.05C306.546 334.05 300.475 335.209 302.595 337.074C304.716 338.94 316.498 338.893 317.761 334.653C319.023 330.413 315.641 313.429 311.968 310.694C308.295 307.96 267.086 297.951 264.063 297.661C261.039 297.371 193.114 273.807 193.114 273.807L201.907 207.307" fill="white"/>
<path d="M308.399 338.835C305.7 338.835 303.209 338.383 302.224 337.538C301.981 337.373 301.792 337.14 301.683 336.867C301.574 336.595 301.548 336.296 301.61 336.008C301.778 335.645 302.019 335.319 302.318 335.052C302.617 334.785 302.968 334.582 303.348 334.456C298.424 334.143 289.225 333.483 286.109 332.811C281.985 331.93 269.449 326.671 268.198 326.149C262.66 325.64 160.454 316.047 149.564 294.301C144.93 285.114 146.644 266.496 154.534 239.004C160.327 218.591 167.672 200.622 167.741 200.437C167.8 200.294 167.913 200.18 168.055 200.12C168.197 200.06 168.357 200.06 168.5 200.118C168.643 200.176 168.757 200.289 168.817 200.431C168.876 200.574 168.877 200.734 168.819 200.877C168.529 201.595 139.937 272.44 150.607 293.791C161.277 315.143 267.317 324.91 268.395 325.002C268.448 324.991 268.504 324.991 268.557 325.002C268.696 325.06 282.205 330.795 286.352 331.641C290.5 332.487 306.418 333.437 306.58 333.448C306.72 333.456 306.852 333.514 306.952 333.612C307.053 333.71 307.114 333.841 307.125 333.981C307.131 334.121 307.088 334.259 307.004 334.372C306.919 334.484 306.798 334.563 306.661 334.595C304.912 334.943 302.873 335.754 302.734 336.263C302.734 336.344 302.838 336.495 302.977 336.611C304.136 337.607 309.697 338.163 313.844 336.924C315.165 336.518 316.833 335.765 317.204 334.468C318.432 330.181 314.887 313.614 311.655 311.135C308.422 308.655 267.711 298.576 264.039 298.217C260.969 297.904 195.685 275.29 192.951 274.328C192.826 274.286 192.719 274.202 192.649 274.09C192.58 273.978 192.551 273.845 192.569 273.714L201.362 207.202C201.372 207.126 201.397 207.053 201.435 206.987C201.473 206.92 201.524 206.862 201.585 206.815C201.646 206.768 201.715 206.734 201.789 206.714C201.863 206.694 201.941 206.689 202.017 206.699C202.093 206.708 202.166 206.733 202.233 206.771C202.299 206.81 202.357 206.861 202.404 206.921C202.451 206.982 202.485 207.052 202.505 207.126C202.525 207.2 202.53 207.277 202.521 207.353L193.785 273.39C217.385 281.569 261.838 296.827 264.166 297.058C266.495 297.29 308.388 307.23 312.361 310.208C316.335 313.185 319.567 330.447 318.328 334.792C317.922 336.217 316.486 337.341 314.192 338.036C312.308 338.571 310.358 338.84 308.399 338.835Z" fill="#484646"/>
<path d="M291.381 221.58C291.381 221.58 271.836 171.531 266.345 163.294C260.853 155.057 236.756 134.945 233.755 136.949C230.755 138.953 231.635 141.189 232.886 142.742C234.138 144.294 241.124 149.102 241.124 149.102C241.124 149.102 233.257 145.487 233.014 150.26C232.771 155.034 238.806 157.884 238.806 157.884C238.806 157.884 232.191 153.006 231.936 158.254C231.903 159.785 232.326 161.291 233.152 162.58C233.977 163.869 235.167 164.884 236.571 165.495C236.571 165.495 229.527 159.517 230.199 165.75C231.357 175.992 251.933 188.226 251.933 188.226L260.668 273.343C260.668 273.343 263.796 322.708 295.297 321.214C335.718 319.291 347.431 260.97 327.226 211.651" fill="white"/>
<path d="M293.836 321.747C263.436 321.747 260.053 273.784 260.019 273.297L251.318 188.492C248.839 186.986 230.65 175.632 229.561 165.727C229.375 164.036 229.723 162.946 230.592 162.483C231.12 162.231 231.722 162.182 232.283 162.344C231.554 161.072 231.212 159.614 231.299 158.15C231.257 157.603 231.371 157.055 231.628 156.569C231.884 156.083 232.272 155.68 232.747 155.404C233.261 155.182 233.827 155.11 234.38 155.196C233.088 153.841 232.384 152.029 232.422 150.156C232.419 149.662 232.54 149.174 232.775 148.739C233.01 148.303 233.351 147.934 233.766 147.665C235.009 147.097 236.412 146.986 237.729 147.353C235.856 146.062 234.086 144.629 232.434 143.066C231.952 142.618 231.587 142.059 231.37 141.438C231.152 140.817 231.09 140.152 231.189 139.501C231.287 138.85 231.542 138.234 231.933 137.704C232.324 137.174 232.838 136.748 233.43 136.462C235.632 134.991 244.436 141.699 249.476 145.835C255.975 151.153 263.854 158.521 266.854 162.97C272.311 171.172 291.183 219.321 291.948 221.371C292.001 221.514 291.995 221.672 291.932 221.811C291.869 221.95 291.754 222.058 291.612 222.113C291.542 222.143 291.467 222.158 291.391 222.157C291.316 222.157 291.241 222.141 291.171 222.111C291.102 222.08 291.039 222.036 290.988 221.981C290.936 221.925 290.896 221.86 290.871 221.788C290.674 221.29 271.28 171.717 265.881 163.618C263.367 159.842 256.497 153.053 248.769 146.727C239.42 139.069 234.867 136.949 234.102 137.459C233.667 137.69 233.286 138.011 232.985 138.4C232.683 138.79 232.468 139.239 232.353 139.718C232.333 140.201 232.411 140.683 232.582 141.135C232.753 141.587 233.014 141.999 233.349 142.348C234.334 143.506 239.547 147.26 241.459 148.604C241.577 148.688 241.658 148.813 241.689 148.955C241.719 149.096 241.695 149.244 241.621 149.368C241.552 149.496 241.437 149.592 241.299 149.638C241.161 149.683 241.011 149.674 240.88 149.612C239.605 149.021 235.956 147.723 234.369 148.685C234.115 148.854 233.909 149.086 233.771 149.358C233.633 149.63 233.568 149.933 233.581 150.237C233.442 152.925 235.55 154.987 237.184 156.181C237.85 156.518 238.489 156.905 239.096 157.339C239.205 157.427 239.28 157.551 239.305 157.689C239.33 157.827 239.304 157.97 239.231 158.09C239.159 158.211 239.046 158.301 238.912 158.344C238.778 158.387 238.634 158.38 238.505 158.324C237.822 157.99 237.168 157.603 236.547 157.165C235.388 156.551 234.01 156.134 233.245 156.493C232.77 156.714 232.504 157.304 232.457 158.243C232.402 159.156 232.54 160.07 232.861 160.926C233.183 161.782 233.68 162.562 234.322 163.213C235.224 163.739 236.081 164.34 236.883 165.009C236.987 165.098 237.056 165.222 237.077 165.358C237.098 165.494 237.07 165.633 236.999 165.75C236.926 165.868 236.814 165.957 236.682 165.999C236.551 166.042 236.408 166.035 236.28 165.982C235.325 165.548 234.454 164.948 233.708 164.209C232.654 163.618 231.658 163.259 231.136 163.537C230.615 163.815 230.58 164.499 230.708 165.634C231.785 175.47 251.955 187.554 252.152 187.646C252.231 187.692 252.299 187.756 252.349 187.833C252.399 187.909 252.431 187.996 252.442 188.087L261.177 273.204C261.177 273.714 264.583 322.037 295.192 320.554C307.878 319.951 318.421 313.602 325.708 302.156C339.517 280.48 339.888 244.16 326.623 211.79C326.568 211.649 326.57 211.491 326.629 211.351C326.687 211.211 326.797 211.099 326.936 211.037C327.079 210.982 327.238 210.984 327.38 211.042C327.522 211.1 327.637 211.21 327.7 211.35C341.093 244.056 340.688 280.793 326.681 302.782C319.197 314.541 308.318 321.087 295.25 321.712L293.836 321.747Z" fill="#484646"/>
<path d="M290.373 219.657C290.373 219.657 306.141 262.523 310.184 276.657L290.373 219.657Z" fill="white"/>
<path d="M310.184 277.236C310.058 277.238 309.935 277.198 309.834 277.122C309.734 277.047 309.661 276.94 309.627 276.819C305.631 262.858 289.99 220.282 289.828 219.854C289.8 219.782 289.786 219.705 289.788 219.627C289.79 219.55 289.807 219.473 289.839 219.403C289.871 219.332 289.917 219.269 289.974 219.216C290.03 219.164 290.097 219.123 290.17 219.097C290.243 219.07 290.32 219.059 290.398 219.063C290.475 219.067 290.551 219.086 290.62 219.12C290.69 219.154 290.752 219.202 290.803 219.26C290.854 219.318 290.893 219.386 290.917 219.46C291.068 219.888 306.731 262.499 310.74 276.506C310.78 276.653 310.761 276.811 310.687 276.945C310.614 277.078 310.492 277.179 310.346 277.224L310.184 277.236Z" fill="#484646"/>
<path d="M204.468 178.424C204.468 179.641 202.035 202.279 202.035 202.279L204.468 178.424Z" fill="#484646"/>
<path d="M202.034 202.846H201.976C201.824 202.829 201.685 202.752 201.59 202.633C201.495 202.513 201.45 202.361 201.466 202.209C202.138 195.93 203.888 179.398 203.888 178.424C203.888 178.271 203.949 178.124 204.057 178.015C204.166 177.906 204.313 177.845 204.467 177.845C204.621 177.845 204.768 177.906 204.877 178.015C204.985 178.124 205.046 178.271 205.046 178.424C205.046 179.653 202.729 201.41 202.625 202.337C202.608 202.48 202.537 202.612 202.428 202.706C202.319 202.8 202.178 202.85 202.034 202.846Z" fill="#484646"/>
<path d="M100.246 135.489C99.5737 126.835 102.98 121.147 112.584 114.265C121.238 108.171 123.706 104.997 123.335 100.165C122.883 94.3728 117.647 91.1868 109.838 91.7892C100.188 92.5423 94.7194 99.2386 94.87 110.326L73.7499 110.395C72.8231 89.2057 86.6444 74.2838 108.506 72.5923C127.946 71.0862 143.042 81.7563 144.282 97.7904C145.046 107.58 140.806 114.902 129.95 122.734C121.18 129.268 119.246 131.84 119.628 136.81L120.01 141.78L100.848 143.298L100.246 135.489ZM100.246 153.192L122.86 151.431L124.563 173.443L101.891 175.181L100.246 153.192Z" fill="#484646"/>
<path d="M218.845 112.932C222.17 113.604 222.53 107.916 219.019 108.553C218.5 108.623 218.022 108.873 217.669 109.26C217.317 109.647 217.112 110.146 217.091 110.67C217.071 111.193 217.235 111.707 217.556 112.121C217.877 112.535 218.333 112.822 218.845 112.932Z" fill="white"/>
<path d="M219.377 113.547C219.159 113.546 218.942 113.522 218.729 113.477C218.095 113.376 217.52 113.05 217.109 112.558C216.698 112.066 216.479 111.442 216.493 110.801C216.497 110.118 216.742 109.459 217.185 108.94C217.628 108.42 218.241 108.074 218.914 107.962C219.416 107.834 219.945 107.863 220.43 108.045C220.915 108.227 221.332 108.554 221.625 108.982C221.949 109.507 222.113 110.116 222.097 110.734C222.08 111.351 221.884 111.95 221.532 112.458C221.293 112.805 220.97 113.086 220.593 113.276C220.217 113.466 219.799 113.559 219.377 113.547ZM219.018 112.388C219.316 112.475 219.634 112.464 219.926 112.358C220.218 112.252 220.468 112.055 220.64 111.797C220.846 111.48 220.961 111.113 220.973 110.735C220.986 110.357 220.895 109.984 220.71 109.654C220.539 109.421 220.301 109.246 220.027 109.155C219.752 109.063 219.457 109.06 219.18 109.144C218.774 109.214 218.405 109.424 218.136 109.737C217.868 110.05 217.717 110.446 217.709 110.859C217.698 111.231 217.825 111.594 218.068 111.877C218.31 112.16 218.649 112.342 219.018 112.388Z" fill="#D1D1D1"/>
<path d="M105.39 260.68C105.537 258.724 105.067 256.771 104.046 255.096C103.044 253.963 102.101 252.78 101.219 251.551C100.061 249.234 100.86 246.604 100.582 244.113C100.303 241.966 99.2534 239.994 97.6278 238.564C96.1565 237.243 94.2681 236.34 92.8547 234.961C90.5376 232.713 89.8888 229.539 88.5797 226.724C86.5899 222.616 83.3436 219.248 79.3114 217.108C81.8254 221.591 76.1022 227.291 78.6974 231.74C79.5199 233.142 81.0839 234.173 81.6864 235.668C83.1461 239.271 78.3035 243.175 79.8443 246.755C80.6205 248.539 82.787 249.57 83.7833 251.262C85.1388 253.579 84.073 256.313 84.1888 258.896C84.3394 262.453 86.7839 265.627 89.6803 268.095C91.4876 269.624 93.4919 270.957 95.473 272.335C97.79 273.992 98.7979 275.741 100.849 273.077C103.646 269.535 105.237 265.191 105.39 260.68Z" fill="#D1D1D1"/>
<path d="M110.603 262.36C109.85 259.603 109.317 256.626 110.603 254.03C112.039 251.088 115.596 249.014 116.013 245.84C116.291 243.754 115.098 241.646 115.561 239.595C116.025 237.545 117.878 236.12 119.489 234.625C123.013 231.271 125.172 226.732 125.548 221.881C127.929 224.364 129.886 227.221 131.341 230.338C132.031 231.868 132.316 233.55 132.168 235.222C132.019 236.894 131.443 238.5 130.495 239.885C129.907 240.516 129.415 241.23 129.035 242.005C128.328 244.032 130.286 245.921 131.352 247.798C131.95 248.882 132.203 250.123 132.076 251.355C131.95 252.586 131.451 253.75 130.646 254.691C128.595 257.008 124.644 257.842 123.694 260.599C123.441 261.626 123.32 262.681 123.335 263.739C123.035 265.655 122.161 267.436 120.83 268.846C119.498 270.257 117.77 271.231 115.874 271.64C113.441 272.15 113.557 271.304 113.059 269.497C112.317 267.133 111.275 264.782 110.603 262.36Z" fill="#D1D1D1"/>
<path d="M102.887 242.573C101.161 237.29 100.466 231.763 98.6585 226.504C97.0979 222.368 95.2113 218.362 93.0165 214.524L100.408 217.282C102.725 218.174 105.343 219.216 106.467 221.267C108.413 224.847 104.915 229.435 106.954 232.968C107.846 234.127 108.826 235.215 109.885 236.224C112.063 238.935 111.727 242.665 110.534 245.816C110.024 247.172 107.776 254.193 105.772 252.246C104.973 251.459 104.903 248.551 104.613 247.485C104.057 245.84 103.42 244.218 102.887 242.573Z" fill="#D1D1D1"/>
<path d="M101.821 291.463C100.524 281.905 99.3999 273.61 99.3883 273.471L98.2297 273.621C98.2297 273.76 99.3883 281.963 100.639 291.463H101.821Z" fill="#D1D1D1"/>
<path d="M111.808 291.463C113.395 279.113 115.04 269.949 115.967 268.929L115.11 268.153C113.824 269.566 112.086 280.283 110.649 291.463H111.808Z" fill="#D1D1D1"/>
<path d="M110.395 291.463C109.132 269.138 106.919 246.987 106.919 246.697L105.76 246.813C105.76 247.103 108.077 269.196 109.236 291.463H110.395Z" fill="#D1D1D1"/>
<path d="M90.329 278.198H123.092L120.775 302.828C120.381 307.091 115.608 310.405 109.862 310.405H103.525C97.7321 310.405 93.0052 307.091 92.5997 302.828L90.329 278.198Z" fill="#D1D1D1"/>
</svg>
