<svg width="400" height="400" viewBox="0 0 400 400" fill="none" xmlns="http://www.w3.org/2000/svg">
<path d="M293.52 201.278C293.52 201.278 323.3 226.501 322.955 244.791C322.61 263.081 314.835 270.633 294.971 261.935C275.108 253.236 234.325 208.312 234.325 208.312L293.52 201.278Z" fill="white"/>
<path d="M308.927 266.076C305.03 266.076 300.33 264.858 294.717 262.412C275.026 253.774 234.305 209.124 233.888 208.617C233.825 208.545 233.782 208.457 233.765 208.363C233.747 208.269 233.756 208.172 233.789 208.083C233.822 207.993 233.879 207.914 233.954 207.854C234.029 207.795 234.118 207.756 234.213 207.744L293.438 200.7C293.581 200.69 293.722 200.733 293.834 200.821C299.141 205.458 304.12 210.457 308.735 215.783C318.641 227.293 323.584 237.037 323.422 244.761C323.219 254.779 320.843 261.102 316.164 264.046C313.998 265.405 311.485 266.11 308.927 266.076ZM235.411 208.718C240.851 214.625 277.097 253.52 295.184 261.498C304.319 265.558 311.231 266.116 315.647 263.295C320.062 260.473 322.224 254.474 322.427 244.822C322.782 227.709 295.803 203.958 293.378 201.857L235.411 208.718Z" fill="#484646"/>
<path d="M122.046 192.031C122.046 192.031 67.1749 243.857 67.5606 262.148C67.9463 280.438 88.8756 276.875 108.709 268.177C128.542 259.478 149.309 216.554 149.309 216.554L122.046 192.031Z" fill="white"/>
<path d="M81.9125 275.82C78.5989 275.969 75.3113 275.173 72.4324 273.526C68.9408 271.293 67.1138 267.436 67.0021 262.158C66.8397 254.434 76.0052 240.214 94.2346 219.883C107.765 204.8 121.518 191.788 121.64 191.656C121.736 191.565 121.863 191.515 121.995 191.515C122.127 191.515 122.254 191.565 122.35 191.656L149.643 216.209C149.728 216.285 149.785 216.387 149.807 216.498C149.829 216.61 149.814 216.725 149.765 216.828C145.884 224.592 141.581 232.138 136.875 239.432C126.633 255.205 117.234 265.051 108.922 268.694C101.949 271.709 90.9155 275.82 81.9125 275.82ZM122.056 192.752C117.366 197.218 67.7228 245.045 68.078 262.138C68.1795 267.07 69.8441 270.613 73.0312 272.643C81.608 278.114 98.934 271.892 108.495 267.7C126.968 259.58 146.598 220.807 148.649 216.686L122.056 192.752Z" fill="#484646"/>
<path d="M273.483 181.313C251.001 165.763 214.857 160.79 214.857 160.79H192.202C192.202 160.79 151.044 163.226 128.561 178.776C106.079 194.325 101.512 203.46 101.512 203.46L143.421 249.572L151.429 244.994L161.904 297.206H245.134L258.542 243.695L269.24 248.141L307.252 205.927C307.252 205.927 295.965 196.853 273.483 181.313Z" fill="#FF931E"/>
<path d="M194.761 210.423C208.433 218.259 223.181 187.586 229.535 189.585C235.888 191.585 234.295 216.554 234.295 216.554L240.821 216.422C240.821 216.422 246.018 193.574 240.649 185.911C228.377 168.412 212.625 193.909 204.16 200.04C195.694 206.17 185.067 161.47 185.067 161.47L178.439 162.901C178.439 162.901 184.509 204.536 194.761 210.423Z" fill="#484646"/>
<path d="M234.294 217.061C234.228 217.062 234.162 217.049 234.101 217.023C234.04 216.997 233.984 216.958 233.939 216.909C233.889 216.859 233.851 216.798 233.826 216.732C233.802 216.665 233.792 216.594 233.797 216.523C234.244 209.693 234.325 191.615 229.382 190.073C227.23 189.393 223.383 193.635 219.323 198.122C212.167 206.028 203.256 215.874 194.506 210.86C184.164 204.922 178.185 164.667 177.942 162.952C177.924 162.826 177.955 162.698 178.028 162.594C178.102 162.49 178.213 162.418 178.337 162.394L184.965 160.952C185.094 160.925 185.229 160.948 185.341 161.019C185.453 161.089 185.533 161.2 185.564 161.328C185.564 161.419 187.736 170.463 190.822 179.689C195.897 194.995 199.551 199.157 201.693 199.989C202.051 200.133 202.441 200.179 202.823 200.121C203.205 200.064 203.564 199.907 203.865 199.664C206.297 197.682 208.57 195.514 210.665 193.178C216.755 186.804 224.358 178.867 231.798 179.435C235.228 179.699 238.344 181.79 241.054 185.657C246.505 193.422 241.521 215.63 241.308 216.574C241.283 216.684 241.223 216.782 241.137 216.853C241.051 216.925 240.943 216.966 240.831 216.97L234.315 217.102L234.294 217.061ZM228.905 188.987C229.17 188.987 229.434 189.028 229.686 189.108C232.559 190.002 234.284 194.945 234.822 203.795C235.04 207.873 235.04 211.959 234.822 216.036L240.405 215.925C241.044 212.88 245.033 193.057 240.222 186.195C237.654 182.541 234.873 180.643 231.706 180.4C224.784 179.872 217.354 187.616 211.406 193.838C209.271 196.218 206.953 198.427 204.474 200.446C204.036 200.785 203.519 201.006 202.971 201.086C202.423 201.166 201.864 201.103 201.348 200.903C193.725 198.071 185.798 166.535 184.702 162.048L179.018 163.277C179.728 167.864 185.676 204.618 195.024 209.967C203.063 214.585 211.67 205.074 218.582 197.431C222.805 192.772 226.225 188.987 228.905 188.987Z" fill="#484646"/>
<path d="M230.64 130.949C230.275 130.198 231.96 112.679 230.64 99.5346C228.377 77.2046 183.585 75.814 176.53 94.1043C173.343 102.387 175.942 132.4 175.942 132.4L230.64 130.949Z" fill="white"/>
<path d="M175.963 132.979C175.83 132.979 175.701 132.929 175.603 132.839C175.505 132.748 175.445 132.624 175.435 132.492C175.334 131.263 172.867 102.265 176.064 93.9724C180.124 83.5179 195.705 79.6913 208.362 81.3864C218.593 82.7262 230.022 88.2173 231.159 99.4838C232.072 108.548 231.575 119.469 231.27 125.996C231.159 128.391 231.067 130.451 231.138 130.776C231.178 130.848 231.199 130.928 231.199 131.01C231.199 131.091 231.178 131.172 231.138 131.243C231.089 131.316 231.023 131.374 230.944 131.414C230.866 131.453 230.779 131.471 230.692 131.466L175.963 132.979ZM202.353 81.9954C191.533 81.9954 180.236 85.8828 176.978 94.2972C174.085 101.788 176.054 127.944 176.369 131.852L230.012 130.421C230.012 129.741 230.012 128.462 230.174 125.945C230.468 119.439 230.976 108.568 230.072 99.5549C228.997 88.8974 218.045 83.6803 208.148 82.2999C206.225 82.0705 204.289 81.9688 202.353 81.9954Z" fill="#484646"/>
<path d="M221.099 128.787C222.439 120.423 236.324 118.363 235.644 128.218C235.534 131.643 234.223 134.92 231.94 137.475C229.565 139.901 225.697 141.099 222.652 139.658" fill="white"/>
<path d="M225.525 140.774C224.452 140.784 223.39 140.566 222.408 140.135C222.346 140.107 222.289 140.067 222.242 140.017C222.195 139.967 222.158 139.908 222.134 139.844C222.109 139.78 222.097 139.712 222.099 139.643C222.101 139.575 222.117 139.507 222.145 139.444C222.173 139.382 222.213 139.325 222.262 139.278C222.312 139.231 222.371 139.194 222.435 139.169C222.499 139.145 222.567 139.133 222.636 139.135C222.705 139.137 222.772 139.152 222.835 139.18C224.327 139.75 225.954 139.86 227.509 139.499C229.064 139.137 230.476 138.319 231.564 137.15C234.172 134.501 234.934 130.827 235.116 128.218C235.461 123.326 232.132 122.402 230.681 122.24C226.976 121.814 222.327 124.412 221.637 128.919C221.592 129.029 221.511 129.121 221.407 129.179C221.303 129.237 221.183 129.259 221.065 129.24C220.948 129.221 220.84 129.163 220.759 129.075C220.679 128.988 220.631 128.875 220.622 128.756C221.434 123.681 226.631 120.728 230.843 121.205C233.645 121.53 236.537 123.57 236.202 128.31C236.009 131.091 235.187 135.009 232.355 137.891C231.462 138.797 230.399 139.518 229.227 140.012C228.055 140.507 226.797 140.766 225.525 140.774Z" fill="#484646"/>
<path d="M186.498 128.787C185.158 120.423 171.273 118.363 171.953 128.218C172.063 131.643 173.375 134.92 175.658 137.475C178.033 139.901 181.87 141.048 184.976 139.658" fill="white"/>
<path d="M182.052 140.774C180.783 140.756 179.53 140.488 178.365 139.984C177.199 139.481 176.145 138.752 175.262 137.841C172.43 134.958 171.608 131.04 171.415 128.259C171.08 123.519 173.963 121.479 176.774 121.154C180.987 120.677 186.183 123.661 186.995 128.706C187.026 128.779 187.039 128.859 187.034 128.938C187.029 129.017 187.006 129.095 186.967 129.164C186.928 129.233 186.874 129.293 186.809 129.338C186.743 129.384 186.669 129.414 186.59 129.427C186.512 129.439 186.431 129.434 186.355 129.411C186.279 129.388 186.209 129.348 186.15 129.295C186.092 129.241 186.046 129.175 186.017 129.101C185.987 129.027 185.975 128.947 185.98 128.868C185.27 124.402 180.621 121.763 176.916 122.199C175.465 122.362 172.136 123.286 172.481 128.178C172.664 130.786 173.425 134.461 176.033 137.11C177.121 138.279 178.533 139.096 180.088 139.458C181.643 139.82 183.271 139.709 184.762 139.14C184.889 139.085 185.032 139.082 185.161 139.131C185.29 139.18 185.395 139.278 185.453 139.404C185.508 139.53 185.511 139.674 185.462 139.803C185.412 139.932 185.314 140.036 185.189 140.094C184.204 140.542 183.134 140.774 182.052 140.774Z" fill="#484646"/>
<path d="M186.498 166.859C186.498 166.859 191.472 178.776 202.434 178.776C213.396 178.776 219.973 169.742 219.973 169.742V132.4L186.478 130.949L186.498 166.859Z" fill="white"/>
<path d="M202.434 179.293C191.269 179.293 186.062 167.184 186.011 167.113C186 167.046 186 166.978 186.011 166.91V130.949C186.011 130.877 186.025 130.806 186.053 130.74C186.081 130.673 186.122 130.613 186.173 130.563C186.279 130.468 186.417 130.417 186.559 130.421L220.054 131.872C220.19 131.88 220.317 131.939 220.411 132.037C220.505 132.135 220.559 132.265 220.561 132.4V169.742C220.561 169.852 220.525 169.958 220.46 170.047C220.328 170.148 213.517 179.293 202.434 179.293ZM187.016 166.748C187.513 167.844 192.456 178.248 202.434 178.248C212.259 178.248 218.582 170.666 219.455 169.559V132.898L186.975 131.487L187.016 166.748Z" fill="#484646"/>
<path d="M187.483 147.869C187.767 149.442 192.202 161.835 219.963 163.551V146.174C215.283 146.844 206.92 151.695 201.865 151.249C197.643 150.873 193.288 150.467 189.421 148.843C188.762 148.529 188.142 148.204 187.483 147.869Z" fill="#484646"/>
<path d="M219.973 164.058C189.878 162.201 187.046 148.092 187.016 147.95C187.001 147.855 187.013 147.759 187.051 147.671C187.089 147.583 187.15 147.507 187.229 147.453C187.31 147.403 187.403 147.377 187.498 147.377C187.593 147.377 187.686 147.403 187.767 147.453C188.325 147.767 188.955 148.082 189.665 148.397C193.532 150.031 198.008 150.427 201.947 150.762C204.829 151.036 209.052 149.412 212.746 147.991C215.062 146.998 217.469 146.233 219.932 145.707C220.005 145.696 220.079 145.701 220.149 145.722C220.219 145.743 220.284 145.78 220.338 145.829C220.393 145.875 220.437 145.932 220.467 145.997C220.496 146.062 220.512 146.133 220.511 146.204V163.581C220.511 163.65 220.497 163.718 220.469 163.781C220.441 163.844 220.4 163.901 220.349 163.946C220.297 163.99 220.237 164.022 220.173 164.042C220.108 164.061 220.04 164.067 219.973 164.058ZM188.396 148.904C189.858 152.162 196.05 161.429 219.466 163.013V146.773C217.288 147.321 215.154 148.03 213.081 148.894C209.082 150.427 204.961 152.02 201.835 151.726C197.775 151.381 193.258 150.975 189.239 149.29L188.396 148.904Z" fill="#484646"/>
<path d="M202.048 154.345H204.281C209.366 154.345 214.243 152.325 217.839 148.729C221.435 145.133 223.455 140.256 223.455 135.171V104.813C217.032 107.495 210.189 109.03 203.236 109.35C196.188 109.446 189.215 107.892 182.875 104.813V135.171C182.875 137.689 183.371 140.182 184.334 142.509C185.298 144.835 186.71 146.948 188.491 148.729C190.271 150.509 192.385 151.922 194.711 152.885C197.037 153.849 199.53 154.345 202.048 154.345Z" fill="white"/>
<path d="M223.455 104.813V135.171C223.455 140.256 221.434 145.133 217.839 148.729C214.243 152.324 209.366 154.345 204.281 154.345H202.048C196.963 154.345 192.086 152.324 188.491 148.729C184.895 145.133 182.875 140.256 182.875 135.171V104.813C188.843 107.71 195.374 109.266 202.008 109.37H203.236C210.189 109.051 217.032 107.515 223.455 104.833M182.855 103.818C182.661 103.815 182.471 103.868 182.306 103.97C182.15 104.06 182.021 104.191 181.931 104.348C181.842 104.505 181.796 104.683 181.799 104.863V135.171C181.804 140.534 183.938 145.675 187.73 149.466C191.523 153.257 196.665 155.387 202.028 155.39H204.261C209.622 155.385 214.761 153.253 218.552 149.462C222.342 145.671 224.474 140.532 224.48 135.171V104.813C224.48 104.543 224.373 104.285 224.182 104.095C223.992 103.904 223.734 103.798 223.465 103.798C223.314 103.797 223.166 103.829 223.028 103.889C216.727 106.505 210.02 108.01 203.205 108.335H202.018C195.555 108.223 189.193 106.709 183.372 103.899C183.223 103.818 183.055 103.776 182.885 103.777L182.855 103.818Z" fill="#484646"/>
<path d="M203.469 135.384C202.549 135.388 201.631 135.333 200.718 135.222C200.525 135.199 200.34 135.13 200.178 135.023C200.016 134.916 199.881 134.772 199.784 134.603C198.373 132.238 202.108 122.179 202.88 120.19C202.904 120.126 202.94 120.067 202.986 120.017C203.033 119.966 203.089 119.926 203.151 119.898C203.214 119.869 203.281 119.854 203.349 119.852C203.418 119.849 203.486 119.861 203.55 119.885C203.68 119.935 203.785 120.035 203.843 120.162C203.9 120.29 203.904 120.435 203.854 120.565C202.159 124.991 199.794 132.573 200.687 134.065C200.701 134.096 200.722 134.123 200.749 134.144C200.775 134.165 200.806 134.18 200.84 134.187C202.648 134.38 204.472 134.38 206.28 134.187C206.403 134.191 206.52 134.24 206.611 134.323C206.701 134.407 206.759 134.52 206.774 134.642C206.788 134.764 206.759 134.888 206.691 134.99C206.623 135.093 206.52 135.168 206.402 135.202C205.429 135.32 204.449 135.381 203.469 135.384Z" fill="#484646"/>
<path d="M204.514 147.798C201.743 147.681 199.042 146.897 196.638 145.514C196.514 145.449 196.421 145.338 196.38 145.205C196.338 145.072 196.35 144.927 196.415 144.804C196.481 144.682 196.593 144.591 196.726 144.551C196.859 144.511 197.002 144.525 197.125 144.59C201.033 146.62 204.403 147.24 207.123 146.356C208.74 145.857 210.113 144.771 210.97 143.311C211 143.25 211.042 143.195 211.094 143.149C211.146 143.104 211.206 143.07 211.271 143.048C211.336 143.026 211.405 143.018 211.474 143.023C211.542 143.028 211.609 143.047 211.67 143.078C211.795 143.139 211.89 143.247 211.936 143.378C211.981 143.509 211.973 143.653 211.914 143.778C210.927 145.486 209.332 146.759 207.448 147.341C206.501 147.65 205.51 147.804 204.514 147.798Z" fill="#484646"/>
<path d="M212.032 121.196C212.67 121.153 213.109 119.936 213.012 118.476C212.916 117.016 212.321 115.867 211.683 115.909C211.045 115.951 210.607 117.169 210.703 118.628C210.8 120.088 211.395 121.238 212.032 121.196Z" fill="#484646"/>
<path d="M194.936 122.432C195.574 122.39 196.013 121.172 195.916 119.712C195.82 118.252 195.225 117.103 194.587 117.145C193.95 117.187 193.511 118.405 193.607 119.865C193.704 121.325 194.299 122.474 194.936 122.432Z" fill="#484646"/>
<path d="M127.709 226.135C94.894 226.135 87.1089 194.853 86.9871 194.539L86.3477 191.849L104.293 185.759L106.262 191.524L93.747 195.757C96.1932 202.567 104.729 220.117 127.719 220.045L127.709 226.135Z" fill="white"/>
<path d="M127.659 226.643C94.5902 226.643 86.5717 194.975 86.5007 194.66L85.8511 191.96C85.8264 191.837 85.8466 191.709 85.908 191.599C85.9694 191.489 86.068 191.405 86.186 191.362L104.131 185.272C104.259 185.229 104.399 185.238 104.52 185.297C104.641 185.356 104.735 185.46 104.781 185.586L106.74 191.351C106.767 191.412 106.781 191.478 106.781 191.544C106.781 191.611 106.767 191.677 106.74 191.737C106.679 191.859 106.573 191.954 106.445 192.001L94.4075 196.061C97.1988 203.501 105.765 219.528 127.679 219.528H127.73C127.864 219.53 127.991 219.585 128.086 219.679C128.181 219.774 128.235 219.902 128.237 220.035V226.125C128.235 226.198 128.218 226.269 128.187 226.335C128.156 226.4 128.113 226.459 128.059 226.507C128.005 226.556 127.941 226.593 127.873 226.616C127.804 226.639 127.731 226.648 127.659 226.643ZM86.9473 192.133L87.4852 194.376C87.5563 194.691 95.3109 225.293 127.202 225.587V220.512C104.497 220.279 95.8996 203.257 93.2606 195.888C93.2331 195.828 93.2189 195.762 93.2189 195.696C93.2189 195.629 93.2331 195.563 93.2606 195.503C93.2879 195.44 93.3284 195.384 93.3791 195.339C93.4299 195.293 93.4899 195.259 93.5549 195.239L105.603 191.179L103.959 186.378L86.9473 192.133Z" fill="#484646"/>
<path d="M168.857 212.149L165.142 207.328C183.352 193.3 179.413 174.239 177.191 167.337L164.615 171.549L162.646 165.784L180.591 159.694L181.738 162.221C181.87 162.515 194.801 192.092 168.857 212.149Z" fill="white"/>
<path d="M168.857 212.626C168.78 212.625 168.703 212.607 168.633 212.574C168.563 212.541 168.501 212.493 168.451 212.433L164.736 207.602C164.654 207.495 164.618 207.361 164.635 207.227C164.652 207.094 164.721 206.973 164.828 206.891C182.225 193.493 179.2 175.558 176.865 167.956L164.797 172.066C164.671 172.109 164.533 172.099 164.413 172.04C164.293 171.981 164.202 171.878 164.158 171.752L162.189 165.987C162.143 165.859 162.143 165.719 162.189 165.591C162.25 165.471 162.356 165.38 162.483 165.337L180.428 159.247C180.548 159.208 180.679 159.214 180.795 159.265C180.911 159.315 181.004 159.406 181.057 159.521L182.194 162.038C182.326 162.343 195.389 192.295 169.111 212.555C169.035 212.602 168.947 212.626 168.857 212.626ZM165.812 207.388L168.857 211.448C193.978 191.686 181.362 162.728 181.23 162.475L180.286 160.364L163.254 166.179L164.888 170.98L176.977 166.829C177.104 166.779 177.246 166.779 177.373 166.829C177.493 166.89 177.584 166.996 177.627 167.123C180.022 174.594 183.636 193.331 165.812 207.388Z" fill="#484646"/>
<path d="M162.108 159.958L100.975 180.258C100.975 180.258 109.348 206.587 121.681 220.908C131.932 232.804 140.499 235.951 146.944 236.214C148.556 238.065 149.748 240.243 150.436 242.599C152.06 248.232 151.116 255.205 151.116 255.205L168.015 249.44C168.015 249.44 162.514 244.822 160.758 239.229C160.054 236.866 159.615 234.432 159.449 231.972C164.838 226.673 170.198 216.036 170.614 203.217C171.142 185.87 162.108 159.958 162.108 159.958Z" fill="white"/>
<path d="M151.116 255.662C150.996 255.663 150.88 255.62 150.791 255.54C150.725 255.485 150.674 255.414 150.642 255.335C150.61 255.255 150.598 255.169 150.608 255.083C150.608 255.012 151.522 248.151 149.948 242.69C149.304 240.473 148.197 238.419 146.7 236.661C138.316 236.235 129.77 231.028 121.325 221.182C109.074 206.972 100.599 180.582 100.518 180.359C100.497 180.296 100.489 180.23 100.495 180.165C100.5 180.099 100.518 180.035 100.549 179.976C100.579 179.918 100.62 179.866 100.671 179.824C100.721 179.781 100.78 179.749 100.843 179.73L161.976 159.43C162.103 159.388 162.241 159.397 162.36 159.456C162.48 159.515 162.572 159.618 162.615 159.744C162.707 160.008 171.679 185.931 171.141 203.125C170.715 216.676 164.92 227.14 159.976 232.073C160.142 234.414 160.568 236.729 161.245 238.975C162.94 244.355 168.289 248.902 168.35 248.943C168.42 249 168.473 249.076 168.504 249.161C168.535 249.246 168.543 249.338 168.526 249.427C168.51 249.516 168.469 249.599 168.41 249.667C168.35 249.736 168.274 249.787 168.188 249.815L151.288 255.581L151.116 255.662ZM101.614 180.552C102.822 184.175 110.85 207.531 122.066 220.543C130.43 230.246 138.804 235.342 146.964 235.676C147.034 235.68 147.103 235.698 147.166 235.729C147.229 235.761 147.285 235.805 147.33 235.859C148.991 237.761 150.217 240.002 150.923 242.426C151.88 246.353 152.144 250.416 151.704 254.434L167.031 249.206C165.488 247.775 161.712 243.908 160.281 239.351C159.552 236.954 159.103 234.482 158.941 231.982C158.937 231.909 158.949 231.836 158.975 231.768C159.001 231.699 159.042 231.638 159.093 231.586C163.905 226.856 169.67 216.574 170.096 203.166C170.583 187.434 162.991 164.22 161.783 160.617L101.614 180.552Z" fill="#484646"/>
<path d="M139.56 258.503L179.188 244.989C179.633 244.836 180.105 244.772 180.575 244.802C181.045 244.831 181.504 244.953 181.927 245.161C182.349 245.369 182.727 245.658 183.037 246.012C183.348 246.366 183.585 246.778 183.736 247.224L189.04 262.777L142.639 278.6L137.335 263.047C137.182 262.603 137.118 262.132 137.147 261.663C137.177 261.194 137.298 260.735 137.505 260.313C137.711 259.891 137.999 259.514 138.352 259.203C138.705 258.892 139.115 258.654 139.56 258.503Z" fill="white"/>
<path d="M142.64 279.078C142.534 279.077 142.432 279.043 142.346 278.982C142.261 278.92 142.197 278.833 142.163 278.733L136.854 263.183C136.681 262.676 136.61 262.139 136.644 261.605C136.679 261.07 136.82 260.547 137.057 260.067C137.54 259.107 138.383 258.377 139.402 258.037L178.987 244.517C179.494 244.342 180.031 244.269 180.566 244.302C181.102 244.335 181.625 244.475 182.107 244.712C182.588 244.948 183.018 245.278 183.371 245.682C183.724 246.086 183.993 246.556 184.164 247.065L189.472 262.615C189.514 262.743 189.505 262.882 189.447 263.003C189.388 263.125 189.284 263.218 189.157 263.264L142.772 279.088L142.64 279.078ZM180.347 245.289C180.002 245.285 179.659 245.34 179.332 245.451L139.747 258.961C139.366 259.091 139.015 259.295 138.714 259.561C138.412 259.828 138.167 260.152 137.991 260.514C137.812 260.875 137.706 261.268 137.68 261.671C137.654 262.073 137.708 262.477 137.839 262.858L142.985 277.931L188.406 262.432L183.27 247.359C183.064 246.749 182.671 246.221 182.145 245.849C181.62 245.476 180.991 245.28 180.347 245.289Z" fill="#484646"/>
<path d="M192.574 261.1L138.805 279.436C137.033 280.04 136.087 281.967 136.691 283.739L138.791 289.897C139.395 291.669 141.322 292.615 143.094 292.011L196.863 273.675C198.635 273.071 199.582 271.144 198.977 269.372L196.877 263.214C196.273 261.442 194.347 260.496 192.574 261.1Z" fill="white"/>
<path d="M142.021 292.689C141.207 292.69 140.413 292.436 139.75 291.963C139.087 291.49 138.59 290.821 138.327 290.05L136.226 283.899C136.06 283.414 135.991 282.901 136.024 282.389C136.056 281.877 136.189 281.377 136.416 280.917C136.642 280.457 136.957 280.046 137.342 279.708C137.728 279.369 138.176 279.111 138.662 278.946L192.457 260.605C193.438 260.271 194.511 260.34 195.441 260.798C195.901 261.023 196.312 261.337 196.65 261.722C196.988 262.107 197.247 262.555 197.41 263.041L199.511 269.192C199.677 269.677 199.746 270.19 199.713 270.702C199.68 271.214 199.547 271.714 199.321 272.174C199.094 272.634 198.78 273.045 198.394 273.383C198.009 273.722 197.56 273.98 197.075 274.145L143.28 292.486C142.875 292.624 142.449 292.692 142.021 292.689ZM138.976 279.9C138.251 280.149 137.652 280.674 137.312 281.362C137.145 281.702 137.048 282.072 137.025 282.45C137.002 282.828 137.055 283.207 137.18 283.564L139.271 289.725C139.52 290.448 140.045 291.043 140.732 291.38C141.419 291.716 142.211 291.768 142.935 291.522L196.73 273.181C197.089 273.058 197.42 272.867 197.704 272.616C197.989 272.366 198.221 272.062 198.388 271.721C198.555 271.381 198.653 271.011 198.677 270.633C198.7 270.254 198.649 269.875 198.526 269.517L196.425 263.366C196.176 262.643 195.651 262.048 194.964 261.711C194.277 261.375 193.485 261.323 192.761 261.569L138.976 279.9Z" fill="#484646"/>
<path d="M92.6715 239.209C106.648 240.021 132.805 247.836 140.59 248.79C140.59 248.79 147.319 236.976 148.791 236.093C150.263 235.21 159.205 231.596 160.798 232.246C162.392 232.895 167.365 237.321 166.645 238.884C165.924 240.447 164.28 239.716 163.661 238.62C163.041 237.524 161.428 235.961 160.951 236.042C160.473 236.123 157.774 239.229 157.774 239.229C159.534 239.409 161.217 240.045 162.656 241.076C164.757 242.71 165.092 245.218 163.265 246.507C163.566 246.843 163.772 247.254 163.862 247.697C163.952 248.14 163.923 248.598 163.777 249.026C163.631 249.453 163.375 249.835 163.033 250.13C162.692 250.426 162.278 250.626 161.834 250.709C159.996 251.074 156.83 250.445 155.327 251.277C154.475 251.744 153.724 253.307 153.155 254.058C151.369 256.433 149.38 259.468 146.609 260.808C143.097 262.503 107.024 277.2 81.6486 275.292" fill="white"/>
<path d="M86.5005 275.992C84.8359 275.992 83.2119 275.931 81.6082 275.81C81.4994 275.77 81.4065 275.696 81.3438 275.599C81.2812 275.502 81.2522 275.386 81.2614 275.271C81.2707 275.156 81.3176 275.047 81.3949 274.96C81.4722 274.874 81.5757 274.816 81.6894 274.795C106.242 276.652 141.859 262.554 146.386 260.361C148.7 259.245 150.446 256.819 152.07 254.667C152.303 254.363 152.516 254.058 152.739 253.774C152.963 253.49 153.064 253.287 153.247 252.992C153.683 252.148 154.309 251.415 155.074 250.851C156.367 250.359 157.759 250.181 159.134 250.333C159.992 250.378 160.851 250.341 161.702 250.221C162.079 250.134 162.426 249.949 162.709 249.686C162.992 249.422 163.202 249.089 163.316 248.719C163.417 248.406 163.428 248.07 163.347 247.75C163.266 247.431 163.097 247.14 162.859 246.913C162.807 246.857 162.767 246.791 162.741 246.72C162.714 246.648 162.703 246.572 162.707 246.496C162.717 246.421 162.741 246.347 162.78 246.281C162.818 246.215 162.869 246.157 162.93 246.111C163.229 245.923 163.478 245.664 163.655 245.358C163.832 245.052 163.931 244.708 163.945 244.355C163.912 243.79 163.75 243.241 163.472 242.748C163.194 242.256 162.807 241.833 162.341 241.513C160.982 240.552 159.399 239.958 157.743 239.787C157.646 239.78 157.553 239.745 157.474 239.688C157.395 239.631 157.334 239.553 157.297 239.462C157.258 239.372 157.247 239.272 157.263 239.175C157.279 239.078 157.322 238.988 157.388 238.914C160.22 235.656 160.697 235.585 160.88 235.555C161.803 235.402 163.59 237.453 164.118 238.387C164.251 238.636 164.444 238.849 164.68 239.007C164.915 239.165 165.186 239.262 165.468 239.29C165.579 239.29 165.914 239.29 166.178 238.701C166.223 238.505 166.194 238.299 166.097 238.123C165.386 236.316 161.844 233.261 160.616 232.763C159.388 232.266 150.791 235.494 149.065 236.509C148.05 237.097 143.615 244.487 141.047 249.014C140.996 249.103 140.92 249.176 140.827 249.221C140.735 249.266 140.631 249.283 140.529 249.267C137.585 248.912 132.023 247.572 125.598 246.029C114.789 243.431 101.34 240.193 92.6413 239.686C92.5724 239.683 92.5047 239.667 92.4422 239.638C92.3797 239.609 92.3236 239.567 92.2773 239.516C92.231 239.465 92.1953 239.405 92.1724 239.34C92.1495 239.275 92.1398 239.206 92.1439 239.138C92.1465 239.068 92.1631 238.999 92.1928 238.936C92.2225 238.873 92.2648 238.816 92.3169 238.77C92.3691 238.723 92.4301 238.688 92.4963 238.666C92.5625 238.643 92.6326 238.635 92.7022 238.64C101.492 239.158 115.032 242.406 125.842 245.014C131.993 246.486 137.342 247.775 140.306 248.181C141.767 245.644 147.076 236.478 148.527 235.605C149.979 234.733 159.073 230.936 161.002 231.718C162.382 232.286 166.219 235.534 167.092 237.666C167.196 237.883 167.255 238.119 167.265 238.36C167.276 238.601 167.237 238.841 167.152 239.067C167.026 239.399 166.806 239.689 166.52 239.901C166.234 240.113 165.894 240.239 165.539 240.264C165.062 240.251 164.598 240.112 164.193 239.86C163.788 239.609 163.457 239.254 163.235 238.833C162.677 237.926 161.933 237.147 161.052 236.549C160.261 237.253 159.519 238.009 158.829 238.813C160.344 239.086 161.774 239.704 163.011 240.62C163.615 241.034 164.113 241.584 164.466 242.225C164.818 242.867 165.016 243.582 165.041 244.314C165.029 244.734 164.933 245.146 164.758 245.528C164.584 245.91 164.335 246.253 164.026 246.537C164.264 246.885 164.419 247.283 164.479 247.7C164.539 248.117 164.502 248.542 164.371 248.943C164.208 249.496 163.898 249.996 163.475 250.389C163.051 250.782 162.53 251.053 161.966 251.176C161.042 251.311 160.107 251.355 159.175 251.307C157.973 251.178 156.758 251.31 155.612 251.693C155.015 252.185 154.525 252.792 154.171 253.48C153.968 253.804 153.775 254.099 153.602 254.332L152.942 255.215C151.288 257.458 149.42 260.006 146.852 261.234C146.528 261.437 113.124 275.992 86.5005 275.992Z" fill="#484646"/>
<path d="M241.866 213.275H230.102C228.051 213.275 226.388 214.939 226.388 216.99C226.388 219.042 228.051 220.705 230.102 220.705H241.866C243.918 220.705 245.581 219.042 245.581 216.99C245.581 214.939 243.918 213.275 241.866 213.275Z" fill="white"/>
<path d="M241.866 221.284H230.102C229.014 221.231 227.989 220.761 227.237 219.972C226.486 219.183 226.067 218.135 226.067 217.046C226.067 215.957 226.486 214.909 227.237 214.12C227.989 213.332 229.014 212.862 230.102 212.809H241.866C242.44 212.78 243.014 212.869 243.553 213.07C244.091 213.27 244.583 213.577 245 213.974C245.416 214.37 245.747 214.847 245.973 215.375C246.2 215.903 246.316 216.472 246.316 217.046C246.316 217.621 246.2 218.189 245.973 218.718C245.747 219.246 245.416 219.722 245 220.119C244.583 220.515 244.091 220.823 243.553 221.023C243.014 221.223 242.44 221.312 241.866 221.284ZM230.102 213.854C229.287 213.9 228.52 214.256 227.959 214.85C227.398 215.444 227.085 216.229 227.085 217.046C227.085 217.863 227.398 218.649 227.959 219.242C228.52 219.836 229.287 220.192 230.102 220.238H241.866C242.301 220.263 242.735 220.198 243.144 220.049C243.553 219.9 243.926 219.669 244.243 219.37C244.559 219.071 244.811 218.711 244.983 218.311C245.155 217.912 245.244 217.481 245.244 217.046C245.244 216.611 245.155 216.181 244.983 215.781C244.811 215.382 244.559 215.021 244.243 214.723C243.926 214.424 243.553 214.193 243.144 214.043C242.735 213.894 242.301 213.829 241.866 213.854H230.102Z" fill="#484646"/>
<path d="M239.157 220.705H232.803V227.059H239.157V220.705Z" fill="white"/>
<path d="M239.167 227.587H232.803C232.666 227.587 232.534 227.532 232.437 227.435C232.34 227.338 232.285 227.207 232.285 227.069V220.705C232.285 220.568 232.34 220.436 232.437 220.339C232.534 220.242 232.666 220.188 232.803 220.188H239.167C239.305 220.188 239.438 220.242 239.537 220.339C239.635 220.435 239.692 220.567 239.695 220.705V227.069C239.692 227.208 239.635 227.339 239.537 227.436C239.438 227.533 239.305 227.587 239.167 227.587ZM233.331 226.572H238.639V221.284H233.331V226.572Z" fill="#484646"/>
<path d="M235.989 270.115C248.613 270.115 258.847 259.882 258.847 247.258C258.847 234.634 248.613 224.4 235.989 224.4C223.365 224.4 213.132 234.634 213.132 247.258C213.132 259.882 223.365 270.115 235.989 270.115Z" fill="white"/>
<path d="M235.989 270.633C231.372 270.633 226.859 269.264 223.02 266.699C219.181 264.134 216.188 260.488 214.422 256.222C212.655 251.956 212.192 247.262 213.093 242.734C213.994 238.205 216.217 234.046 219.482 230.781C222.747 227.516 226.907 225.292 231.435 224.392C235.964 223.491 240.657 223.953 244.923 225.72C249.189 227.487 252.835 230.479 255.4 234.318C257.965 238.157 259.334 242.671 259.334 247.288C259.318 253.475 256.854 259.403 252.479 263.778C248.105 268.152 242.176 270.617 235.989 270.633ZM235.989 224.958C231.573 224.958 227.256 226.268 223.584 228.721C219.911 231.175 217.049 234.663 215.359 238.743C213.669 242.823 213.227 247.313 214.089 251.644C214.95 255.976 217.077 259.955 220.2 263.078C223.323 266.201 227.302 268.327 231.633 269.189C235.965 270.051 240.455 269.608 244.535 267.918C248.615 266.228 252.103 263.366 254.556 259.694C257.01 256.022 258.319 251.705 258.319 247.288C258.325 244.352 257.751 241.444 256.631 238.73C255.512 236.016 253.868 233.55 251.794 231.472C249.719 229.394 247.256 227.746 244.544 226.621C241.832 225.496 238.925 224.918 235.989 224.918V224.958Z" fill="#484646"/>
<path d="M235.989 263.427C232.791 263.429 229.664 262.482 227.004 260.707C224.343 258.931 222.269 256.407 221.044 253.452C219.819 250.498 219.497 247.247 220.12 244.11C220.743 240.972 222.282 238.09 224.543 235.828C226.803 233.566 229.684 232.025 232.821 231.4C235.958 230.775 239.209 231.095 242.165 232.319C245.12 233.542 247.645 235.614 249.423 238.274C251.2 240.933 252.148 244.059 252.148 247.258C252.143 251.543 250.439 255.651 247.41 258.681C244.381 261.712 240.274 263.419 235.989 263.427ZM235.989 232.104C232.992 232.102 230.061 232.989 227.568 234.653C225.074 236.317 223.13 238.683 221.982 241.451C220.833 244.22 220.532 247.268 221.115 250.208C221.699 253.148 223.141 255.849 225.26 257.97C227.379 260.09 230.079 261.534 233.019 262.12C235.959 262.705 239.007 262.406 241.776 261.259C244.546 260.112 246.913 258.17 248.579 255.678C250.244 253.186 251.133 250.255 251.133 247.258C251.115 243.246 249.513 239.404 246.678 236.566C243.842 233.729 240.001 232.125 235.989 232.104Z" fill="#D1D1D1"/>
<path d="M240.821 216.422C240.821 216.422 250.058 189.971 248.464 185.911C246.871 181.851 244.567 176.37 242.547 173.548C239.35 169.123 235.536 165.178 231.219 161.835L221.069 160.82C221.069 160.82 233.138 172.3 237.665 176.441C242.191 180.582 240.821 182.531 240.71 188.499C240.598 194.467 234.437 209.591 233.006 216.452L240.821 216.422Z" fill="#484646"/>
<path d="M240.821 216.929H233.046C232.971 216.928 232.898 216.91 232.831 216.877C232.765 216.844 232.706 216.797 232.659 216.739C232.613 216.681 232.58 216.613 232.562 216.541C232.545 216.469 232.544 216.393 232.559 216.32C233.127 213.549 234.457 209.5 235.857 205.216C237.887 199.005 240.181 191.96 240.242 188.459C240.242 187.231 240.333 186.175 240.404 185.241C240.658 181.587 240.78 179.923 237.359 176.786C232.883 172.726 220.886 161.267 220.764 161.155C220.686 161.083 220.634 160.988 220.614 160.884C220.593 160.78 220.607 160.672 220.653 160.577C220.696 160.481 220.769 160.401 220.859 160.349C220.95 160.296 221.055 160.273 221.16 160.282L231.31 161.297C231.399 161.302 231.484 161.334 231.554 161.389C235.894 164.786 239.731 168.781 242.952 173.254C244.556 175.487 246.505 179.567 248.93 185.728C250.544 189.839 242.242 213.864 241.288 216.584C241.253 216.682 241.19 216.767 241.107 216.829C241.024 216.89 240.924 216.925 240.821 216.929ZM233.716 215.914H240.496C243.125 208.353 249.265 189.23 248.037 186.094C245.652 180.004 243.734 176.015 242.181 173.843C239.03 169.504 235.289 165.626 231.066 162.322L222.561 161.439C225.606 164.352 234.396 172.665 238.07 176.035C241.744 179.405 241.704 181.689 241.45 185.312C241.389 186.236 241.308 187.281 241.288 188.479C241.227 192.133 239.004 198.944 236.852 205.521C235.522 209.479 234.294 213.235 233.675 215.914H233.716Z" fill="#484646"/>
<path d="M305.629 229.14C293.662 221.862 260.898 207.338 253.945 203.704C253.945 203.704 255.132 190.164 254.412 188.601C253.133 185.779 250.433 180.836 247.307 179.801C243.998 178.694 238.111 180.45 235.025 181.547C232.417 182.47 229.757 184.003 228.793 186.622C228.317 188.231 228.2 189.925 228.448 191.585C228.442 192.008 228.551 192.426 228.763 192.793C229.209 193.402 230.092 193.422 230.843 193.422C236.639 193.422 240.344 195.056 240.577 200.933C240.699 203.907 240.577 207.531 242.12 210.21C244.049 213.6 269.911 249.054 289.023 260.118C298.402 265.538 307.293 267.426 312.46 265.193" fill="white"/>
<path d="M307.445 266.573C302.258 266.573 295.61 264.472 288.799 260.483C269.9 249.541 243.936 214.311 241.703 210.373C240.313 207.906 240.211 204.749 240.13 201.968V200.862C239.937 195.929 237.268 193.899 230.924 193.858C230.471 193.92 230.01 193.876 229.577 193.73C229.144 193.584 228.75 193.339 228.427 193.016C228.149 192.572 228.001 192.058 228.001 191.534C227.748 189.798 227.877 188.029 228.377 186.347C229.249 184.033 231.422 182.287 234.923 181.009C238.161 179.851 244.058 178.106 247.55 179.263C251.041 180.42 253.863 185.982 254.929 188.327C255.639 189.87 254.787 200.436 254.543 203.349C256.898 204.567 261.648 206.769 267.515 209.52C280.304 215.508 297.823 223.73 305.943 228.632C306.063 228.705 306.149 228.822 306.182 228.958C306.215 229.095 306.193 229.238 306.12 229.358C306.048 229.478 305.931 229.564 305.794 229.597C305.658 229.631 305.515 229.608 305.395 229.536C297.336 224.633 279.837 216.452 267.068 210.474C260.887 207.581 256.005 205.298 253.741 204.12C253.651 204.07 253.576 203.994 253.528 203.902C253.479 203.81 253.458 203.706 253.467 203.602C253.914 198.426 254.482 189.809 253.975 188.763C253.193 187.038 250.372 181.303 247.215 180.247C244.058 179.192 237.775 181.1 235.279 181.993C232.112 183.12 230.122 184.703 229.361 186.713C228.923 188.253 228.816 189.868 229.046 191.453C229.043 191.781 229.12 192.105 229.27 192.397C229.544 192.772 230.183 192.803 230.924 192.813C235.837 192.813 240.902 193.828 241.176 200.821V201.928C241.257 204.597 241.348 207.622 242.617 209.855C244.84 213.773 270.59 248.729 289.307 259.59C298.442 264.888 307.262 266.817 312.276 264.665C312.339 264.636 312.407 264.62 312.475 264.618C312.544 264.616 312.613 264.627 312.677 264.652C312.741 264.677 312.8 264.714 312.85 264.761C312.899 264.809 312.939 264.866 312.967 264.929C313.021 265.057 313.023 265.201 312.972 265.33C312.92 265.459 312.82 265.563 312.693 265.619C311.027 266.291 309.241 266.616 307.445 266.573Z" fill="#484646"/>
<path d="M137.991 209.713H137.839C137.75 209.683 137.671 209.629 137.61 209.558C137.549 209.486 137.509 209.399 137.493 209.307L136.032 199.969L127.486 195.909C127.401 195.866 127.33 195.801 127.279 195.72C127.229 195.64 127.202 195.547 127.201 195.452C127.199 195.358 127.224 195.265 127.272 195.184C127.321 195.103 127.391 195.038 127.475 194.995L135.93 190.712L137.189 181.323C137.203 181.229 137.242 181.14 137.303 181.067C137.364 180.993 137.444 180.938 137.534 180.907C137.623 180.879 137.719 180.875 137.81 180.896C137.901 180.918 137.984 180.964 138.052 181.029L144.741 187.748L154.058 186.043C154.151 186.025 154.247 186.033 154.335 186.067C154.423 186.101 154.5 186.16 154.556 186.236C154.605 186.317 154.631 186.41 154.631 186.505C154.631 186.6 154.605 186.693 154.556 186.774L150.242 195.208L154.738 203.542C154.788 203.623 154.814 203.716 154.814 203.811C154.814 203.905 154.788 203.999 154.738 204.08C154.681 204.155 154.605 204.213 154.517 204.249C154.43 204.285 154.334 204.296 154.241 204.283L144.893 202.78L138.407 209.55C138.356 209.609 138.291 209.654 138.219 209.682C138.146 209.71 138.068 209.721 137.991 209.713ZM128.856 195.351L136.712 199.126C136.785 199.162 136.848 199.215 136.895 199.28C136.943 199.346 136.974 199.422 136.986 199.502L138.336 208.109L144.345 201.806C144.401 201.746 144.471 201.7 144.549 201.674C144.627 201.647 144.71 201.64 144.791 201.654L153.398 203.034L149.257 195.371C149.217 195.298 149.196 195.216 149.196 195.132C149.196 195.049 149.217 194.967 149.257 194.894L153.226 187.139L144.659 188.712C144.577 188.725 144.494 188.718 144.415 188.694C144.336 188.669 144.263 188.627 144.203 188.57L138.062 182.399L136.895 191.027C136.886 191.109 136.857 191.188 136.809 191.256C136.761 191.324 136.696 191.377 136.621 191.412L128.856 195.351Z" fill="#D1D1D1"/>
<path d="M234.172 244.385L230.833 246.659L227.687 241.777L234.731 237.28H240.922V257.174H234.183L234.172 244.385Z" fill="#D1D1D1"/>
<path d="M252.433 318.155H154.901L161.864 297.206H245.47L252.433 318.155Z" fill="#484646"/>
<path d="M252.432 318.663H154.901C154.822 318.662 154.745 318.643 154.675 318.608C154.604 318.573 154.543 318.522 154.495 318.46C154.447 318.395 154.416 318.32 154.403 318.24C154.391 318.161 154.398 318.079 154.424 318.003L161.377 297.043C161.412 296.943 161.478 296.855 161.566 296.794C161.653 296.732 161.757 296.698 161.864 296.698H245.47C245.576 296.698 245.681 296.732 245.768 296.794C245.855 296.855 245.921 296.943 245.957 297.043L252.91 318.003C252.936 318.079 252.943 318.161 252.93 318.24C252.918 318.32 252.886 318.395 252.838 318.46C252.791 318.522 252.729 318.573 252.659 318.608C252.589 318.643 252.511 318.662 252.432 318.663ZM155.601 317.648H251.732L245.104 297.693H162.229L155.601 317.648Z" fill="#484646"/>
<path d="M163.965 315.425C163.919 315.435 163.87 315.435 163.823 315.425C163.695 315.389 163.585 315.304 163.518 315.189C163.452 315.073 163.434 314.935 163.468 314.806L167.356 300.708C167.392 300.573 167.48 300.458 167.601 300.389C167.722 300.319 167.865 300.301 168 300.337C168.135 300.373 168.249 300.462 168.319 300.583C168.388 300.703 168.407 300.847 168.371 300.982L164.493 315.08C164.459 315.19 164.387 315.284 164.291 315.347C164.195 315.41 164.08 315.437 163.965 315.425Z" fill="white"/>
<path d="M270.012 135.313C269.907 135.328 269.802 135.328 269.697 135.313C269.413 135.253 269.155 135.105 268.96 134.89C268.765 134.675 268.643 134.404 268.611 134.116L268.327 131.527C268.32 131.469 268.3 131.413 268.268 131.364C268.237 131.315 268.194 131.274 268.144 131.243L265.962 129.934C265.716 129.78 265.524 129.554 265.413 129.286C265.301 129.018 265.275 128.723 265.339 128.44C265.402 128.157 265.552 127.901 265.767 127.707C265.982 127.512 266.253 127.39 266.541 127.356L269.088 127.051C269.139 127.043 269.188 127.025 269.232 126.997C269.276 126.969 269.313 126.932 269.342 126.889L270.692 124.717C270.846 124.471 271.072 124.279 271.34 124.167C271.607 124.056 271.903 124.03 272.186 124.093C272.469 124.157 272.725 124.307 272.919 124.522C273.113 124.737 273.236 125.007 273.27 125.295L273.574 127.833C273.578 127.891 273.595 127.947 273.625 127.996C273.656 128.046 273.697 128.087 273.747 128.117L275.919 129.477C276.169 129.627 276.365 129.852 276.478 130.12C276.591 130.388 276.616 130.686 276.548 130.969C276.472 131.233 276.32 131.468 276.11 131.645C275.901 131.822 275.644 131.933 275.371 131.964L272.834 132.258C272.775 132.264 272.719 132.283 272.669 132.315C272.62 132.347 272.579 132.39 272.549 132.441L271.189 134.613C271.072 134.823 270.901 134.998 270.694 135.121C270.488 135.244 270.252 135.31 270.012 135.313ZM271.91 125.021C271.844 125.02 271.78 125.036 271.722 125.068C271.665 125.1 271.618 125.147 271.585 125.204L270.235 127.376C270.124 127.552 269.975 127.702 269.8 127.814C269.625 127.926 269.427 127.998 269.22 128.026L266.672 128.32C266.593 128.329 266.518 128.362 266.458 128.415C266.398 128.469 266.356 128.539 266.338 128.617C266.321 128.696 266.328 128.777 266.358 128.851C266.389 128.925 266.442 128.988 266.51 129.03L268.682 130.38C268.86 130.49 269.01 130.638 269.123 130.814C269.235 130.99 269.307 131.188 269.332 131.395L269.636 133.933C269.643 134.013 269.675 134.089 269.728 134.149C269.781 134.209 269.852 134.251 269.931 134.268C270.009 134.285 270.091 134.277 270.166 134.247C270.24 134.216 270.303 134.163 270.347 134.095L271.687 131.964C271.796 131.786 271.944 131.635 272.119 131.522C272.295 131.41 272.494 131.339 272.702 131.314L275.249 131.02C275.328 131.007 275.4 130.97 275.457 130.915C275.515 130.86 275.554 130.789 275.571 130.711C275.587 130.634 275.58 130.553 275.55 130.479C275.519 130.406 275.468 130.343 275.401 130.299L273.24 128.919C273.063 128.808 272.913 128.66 272.801 128.484C272.689 128.309 272.617 128.11 272.59 127.904L272.296 125.356C272.287 125.278 272.254 125.205 272.201 125.146C272.148 125.088 272.078 125.048 272.001 125.031L271.91 125.021Z" fill="#D1D1D1"/>
<path d="M327.197 163.216C326.892 163.216 326.594 163.129 326.338 162.963C326.082 162.797 325.88 162.56 325.756 162.282L324.457 159.43C324.422 159.351 324.369 159.281 324.302 159.226C324.235 159.171 324.156 159.133 324.071 159.115L321.026 158.354C320.703 158.273 320.414 158.094 320.197 157.841C319.981 157.588 319.848 157.274 319.818 156.943C319.788 156.613 319.861 156.282 320.029 155.996C320.196 155.71 320.449 155.484 320.752 155.349L323.594 154.05C323.673 154.014 323.744 153.961 323.8 153.894C323.856 153.827 323.897 153.749 323.919 153.665L324.67 150.62C324.751 150.297 324.93 150.007 325.183 149.791C325.436 149.574 325.749 149.442 326.081 149.412C326.411 149.381 326.742 149.455 327.028 149.622C327.314 149.79 327.54 150.043 327.674 150.345L328.974 153.188C329.013 153.266 329.069 153.336 329.137 153.392C329.205 153.448 329.284 153.489 329.369 153.512L332.414 154.274C332.739 154.348 333.031 154.524 333.248 154.776C333.465 155.028 333.596 155.343 333.622 155.674C333.652 156.005 333.578 156.338 333.411 156.625C333.244 156.912 332.991 157.14 332.689 157.278L329.846 158.567C329.768 158.605 329.699 158.661 329.645 158.729C329.59 158.798 329.552 158.878 329.532 158.963L328.771 162.008C328.693 162.332 328.514 162.623 328.261 162.84C328.008 163.057 327.692 163.189 327.36 163.216H327.197ZM326.182 150.437C326.062 150.447 325.949 150.494 325.858 150.572C325.766 150.651 325.702 150.756 325.675 150.873L324.914 153.918C324.848 154.141 324.735 154.347 324.583 154.522C324.43 154.697 324.242 154.838 324.031 154.933L321.158 156.324C321.047 156.371 320.955 156.453 320.894 156.557C320.834 156.662 320.809 156.783 320.823 156.902C320.832 157.024 320.879 157.139 320.958 157.232C321.036 157.325 321.142 157.391 321.26 157.42L324.305 158.181C324.538 158.236 324.756 158.344 324.941 158.498C325.126 158.651 325.273 158.845 325.37 159.064L326.67 161.906C326.716 162.018 326.797 162.112 326.902 162.172C327.006 162.233 327.128 162.257 327.248 162.241C327.37 162.235 327.487 162.189 327.581 162.111C327.674 162.032 327.739 161.924 327.766 161.805L328.527 158.76C328.59 158.536 328.702 158.329 328.855 158.153C329.007 157.978 329.197 157.838 329.41 157.745L332.272 156.324C332.384 156.275 332.477 156.191 332.537 156.085C332.597 155.979 332.622 155.856 332.607 155.735C332.599 155.615 332.552 155.5 332.474 155.409C332.395 155.317 332.289 155.254 332.171 155.228L329.126 154.466C328.893 154.406 328.676 154.295 328.492 154.14C328.307 153.986 328.16 153.792 328.06 153.573L326.761 150.731C326.707 150.628 326.623 150.544 326.519 150.491C326.415 150.439 326.297 150.419 326.182 150.437Z" fill="#D1D1D1"/>
<path d="M119.244 130.269C118.921 130.268 118.605 130.171 118.338 129.99C118.07 129.81 117.863 129.553 117.742 129.254L116.371 126.27C116.334 126.18 116.276 126.102 116.202 126.04C116.128 125.978 116.04 125.935 115.945 125.914L112.758 125.113C112.427 125.028 112.13 124.843 111.908 124.583C111.686 124.323 111.55 124.001 111.519 123.66C111.487 123.319 111.563 122.978 111.734 122.682C111.905 122.386 112.163 122.15 112.474 122.007L115.519 120.636C115.606 120.596 115.683 120.537 115.744 120.463C115.806 120.389 115.85 120.303 115.874 120.21L116.666 117.023C116.755 116.699 116.941 116.41 117.198 116.194C117.456 115.979 117.773 115.846 118.107 115.815C118.449 115.781 118.793 115.856 119.09 116.03C119.387 116.203 119.622 116.465 119.761 116.779L121.091 119.784C121.13 119.872 121.188 119.95 121.262 120.012C121.336 120.074 121.424 120.117 121.517 120.139L124.705 120.941C125.04 121.018 125.343 121.2 125.567 121.462C125.792 121.723 125.927 122.049 125.953 122.392C125.99 122.735 125.917 123.08 125.746 123.379C125.575 123.678 125.313 123.916 124.999 124.057L121.954 125.417C121.867 125.457 121.79 125.517 121.728 125.59C121.667 125.664 121.623 125.75 121.599 125.843L120.807 129.03C120.724 129.365 120.538 129.665 120.276 129.889C120.014 130.113 119.689 130.249 119.345 130.279L119.244 130.269ZM118.229 116.82H118.168C118.034 116.827 117.907 116.878 117.804 116.964C117.702 117.05 117.63 117.167 117.6 117.297L116.808 120.484C116.749 120.727 116.635 120.953 116.475 121.145C116.314 121.336 116.112 121.489 115.884 121.59L112.9 122.961C112.781 123.016 112.682 123.106 112.616 123.22C112.55 123.333 112.52 123.464 112.531 123.595C112.542 123.726 112.593 123.85 112.678 123.951C112.762 124.052 112.875 124.124 113.002 124.158L116.199 124.96C116.439 125.019 116.663 125.132 116.853 125.29C117.043 125.449 117.194 125.648 117.295 125.874L118.665 128.919C118.717 129.041 118.808 129.143 118.924 129.209C119.039 129.275 119.173 129.301 119.305 129.284C119.438 129.278 119.564 129.228 119.666 129.141C119.767 129.055 119.836 128.937 119.863 128.807L120.665 125.62C120.724 125.379 120.836 125.154 120.995 124.962C121.153 124.77 121.352 124.617 121.578 124.514L124.623 123.154C124.746 123.099 124.849 123.006 124.916 122.89C124.984 122.773 125.013 122.638 124.999 122.504C124.989 122.371 124.936 122.245 124.848 122.144C124.76 122.043 124.642 121.974 124.512 121.946L121.325 121.144C121.084 121.084 120.859 120.971 120.668 120.812C120.476 120.654 120.323 120.456 120.218 120.23L118.858 117.185C118.805 117.066 118.716 116.966 118.603 116.9C118.49 116.835 118.359 116.807 118.229 116.82Z" fill="#D1D1D1"/>
<path d="M146.02 138.998C145.886 138.998 145.757 138.944 145.661 138.849C145.566 138.754 145.513 138.625 145.513 138.49V135.252C145.513 135.118 145.566 134.989 145.661 134.894C145.757 134.798 145.886 134.745 146.02 134.745C146.155 134.745 146.284 134.798 146.379 134.894C146.474 134.989 146.528 135.118 146.528 135.252V138.49C146.528 138.557 146.515 138.623 146.489 138.684C146.464 138.746 146.426 138.802 146.379 138.849C146.332 138.896 146.276 138.934 146.214 138.959C146.153 138.985 146.087 138.998 146.02 138.998Z" fill="#D1D1D1"/>
<path d="M146.02 145.768C145.886 145.768 145.757 145.714 145.661 145.619C145.566 145.524 145.513 145.395 145.513 145.26V142.022C145.513 141.888 145.566 141.759 145.661 141.664C145.757 141.568 145.886 141.515 146.02 141.515C146.155 141.515 146.284 141.568 146.379 141.664C146.474 141.759 146.528 141.888 146.528 142.022V145.26C146.528 145.395 146.474 145.524 146.379 145.619C146.284 145.714 146.155 145.768 146.02 145.768Z" fill="#D1D1D1"/>
<path d="M151.024 140.764H147.786C147.651 140.764 147.522 140.71 147.427 140.615C147.332 140.52 147.278 140.391 147.278 140.256C147.278 140.122 147.332 139.993 147.427 139.897C147.522 139.802 147.651 139.749 147.786 139.749H151.024C151.158 139.749 151.287 139.802 151.383 139.897C151.478 139.993 151.531 140.122 151.531 140.256C151.531 140.391 151.478 140.52 151.383 140.615C151.287 140.71 151.158 140.764 151.024 140.764Z" fill="#D1D1D1"/>
<path d="M144.264 140.764H141.016C140.882 140.764 140.753 140.71 140.657 140.615C140.562 140.52 140.509 140.391 140.509 140.256C140.509 140.122 140.562 139.993 140.657 139.897C140.753 139.802 140.882 139.749 141.016 139.749H144.264C144.399 139.749 144.528 139.802 144.623 139.897C144.718 139.993 144.772 140.122 144.772 140.256C144.772 140.391 144.718 140.52 144.623 140.615C144.528 140.71 144.399 140.764 144.264 140.764Z" fill="#D1D1D1"/>
<path d="M100.974 158.445C100.84 158.445 100.71 158.392 100.615 158.297C100.52 158.201 100.467 158.072 100.467 157.938V154.7C100.467 154.565 100.52 154.436 100.615 154.341C100.71 154.246 100.84 154.192 100.974 154.192C101.109 154.192 101.238 154.246 101.333 154.341C101.428 154.436 101.482 154.565 101.482 154.7V157.938C101.479 158.071 101.425 158.199 101.33 158.294C101.236 158.388 101.108 158.443 100.974 158.445Z" fill="#D1D1D1"/>
<path d="M100.974 165.205C100.84 165.205 100.71 165.152 100.615 165.056C100.52 164.961 100.467 164.832 100.467 164.698V161.46C100.467 161.325 100.52 161.196 100.615 161.101C100.71 161.006 100.84 160.952 100.974 160.952C101.109 160.952 101.238 161.006 101.333 161.101C101.428 161.196 101.482 161.325 101.482 161.46V164.698C101.482 164.832 101.428 164.961 101.333 165.056C101.238 165.152 101.109 165.205 100.974 165.205Z" fill="#D1D1D1"/>
<path d="M105.927 160.201H102.689C102.555 160.201 102.425 160.148 102.33 160.052C102.235 159.957 102.182 159.828 102.182 159.694C102.184 159.56 102.239 159.432 102.333 159.338C102.428 159.243 102.555 159.189 102.689 159.186H105.927C106.062 159.186 106.191 159.24 106.286 159.335C106.381 159.43 106.434 159.559 106.434 159.694C106.434 159.828 106.381 159.957 106.286 160.052C106.191 160.148 106.062 160.201 105.927 160.201Z" fill="#D1D1D1"/>
<path d="M99.2081 160.201H95.9702C95.8356 160.201 95.7065 160.148 95.6114 160.052C95.5162 159.957 95.4627 159.828 95.4627 159.694C95.4627 159.559 95.5162 159.43 95.6114 159.335C95.7065 159.24 95.8356 159.186 95.9702 159.186H99.2081C99.3427 159.186 99.4717 159.24 99.5669 159.335C99.6621 159.43 99.7156 159.559 99.7156 159.694C99.7156 159.828 99.6621 159.957 99.5669 160.052C99.4717 160.148 99.3427 160.201 99.2081 160.201Z" fill="#D1D1D1"/>
<path d="M291.997 155.065C291.862 155.065 291.733 155.012 291.638 154.917C291.543 154.821 291.489 154.692 291.489 154.558V151.31C291.489 151.175 291.543 151.046 291.638 150.951C291.733 150.856 291.862 150.802 291.997 150.802C292.131 150.805 292.258 150.859 292.353 150.954C292.447 151.048 292.502 151.176 292.504 151.31V154.558C292.502 154.691 292.447 154.819 292.353 154.914C292.258 155.008 292.131 155.063 291.997 155.065Z" fill="#D1D1D1"/>
<path d="M291.997 161.825C291.862 161.825 291.733 161.772 291.638 161.676C291.543 161.581 291.489 161.452 291.489 161.318V158.08C291.489 157.945 291.543 157.816 291.638 157.721C291.733 157.626 291.862 157.572 291.997 157.572C292.131 157.572 292.26 157.626 292.356 157.721C292.451 157.816 292.504 157.945 292.504 158.08V161.318C292.504 161.452 292.451 161.581 292.356 161.676C292.26 161.772 292.131 161.825 291.997 161.825Z" fill="#D1D1D1"/>
<path d="M297.002 156.821H293.754C293.619 156.821 293.49 156.768 293.395 156.673C293.3 156.577 293.246 156.448 293.246 156.314C293.249 156.18 293.303 156.052 293.398 155.958C293.492 155.863 293.62 155.809 293.754 155.806H297.002C297.135 155.809 297.263 155.863 297.358 155.958C297.452 156.052 297.507 156.18 297.509 156.314C297.509 156.448 297.456 156.577 297.36 156.673C297.265 156.768 297.136 156.821 297.002 156.821Z" fill="#D1D1D1"/>
<path d="M290.231 156.821H286.993C286.858 156.821 286.729 156.768 286.634 156.673C286.539 156.577 286.485 156.448 286.485 156.314C286.485 156.179 286.539 156.05 286.634 155.955C286.729 155.86 286.858 155.806 286.993 155.806H290.231C290.365 155.806 290.494 155.86 290.59 155.955C290.685 156.05 290.738 156.179 290.738 156.314C290.738 156.448 290.685 156.577 290.59 156.673C290.494 156.768 290.365 156.821 290.231 156.821Z" fill="#D1D1D1"/>
</svg>
