<svg width="400" height="400" viewBox="0 0 400 400" fill="none" xmlns="http://www.w3.org/2000/svg">
<path d="M89.7553 289.659C89.7553 289.659 100.978 273.137 103.851 256.406C103.851 256.406 80.7203 261.021 79.6188 280.847C78.2643 305.303 89.7553 289.659 89.7553 289.659Z" fill="white"/>
<path d="M83.1908 295.345C82.8359 295.345 82.4836 295.285 82.1489 295.166C79.4697 294.199 78.398 289.51 78.8743 280.817C80.0055 260.664 103.464 255.737 103.702 255.692C103.818 255.663 103.941 255.665 104.056 255.699C104.171 255.733 104.275 255.798 104.357 255.886C104.445 255.968 104.512 256.071 104.551 256.185C104.59 256.299 104.6 256.421 104.58 256.541C101.722 273.241 90.4843 289.927 90.3653 290.091C89.9187 290.701 86.4059 295.345 83.1908 295.345ZM102.913 257.419C98.4476 258.639 81.2856 264.34 80.3628 280.907C79.7971 291.177 81.5535 293.365 82.655 293.767C84.7091 294.496 88.1028 290.656 89.1447 289.302C89.4722 288.751 99.8468 273.286 102.913 257.419Z" fill="#484646"/>
<path d="M80.2884 290.552C85.1555 282.517 87.7293 273.303 87.7308 263.908C87.7829 254.643 85.202 245.552 80.2884 237.696C72.7619 246.283 67.6012 256.681 65.3144 267.868C62.01 285.729 68.8719 298.917 74.5727 294.66L80.2884 290.552Z" fill="white"/>
<path d="M72.3848 296.253C71.5262 296.242 70.689 295.983 69.9735 295.509C65.3295 292.532 62.04 281.413 64.5704 267.734C66.9141 256.417 72.1383 245.897 79.7379 237.19C79.8137 237.11 79.9063 237.046 80.0092 237.005C80.112 236.964 80.2227 236.946 80.3333 236.952C80.4426 236.96 80.549 236.992 80.6443 237.046C80.7397 237.1 80.8216 237.175 80.884 237.265C85.9341 245.229 88.5849 254.478 88.5198 263.908C88.5289 273.459 85.8909 282.826 80.8989 290.969C80.8554 291.042 80.7939 291.104 80.7203 291.147L75.0194 295.33C74.2624 295.911 73.3391 296.235 72.3848 296.253ZM80.1844 238.932C73.1218 247.292 68.261 257.285 66.044 268.002C63.6475 280.892 66.6393 291.653 70.7624 294.258C71.2624 294.607 71.8623 294.784 72.4717 294.763C73.0811 294.741 73.667 294.523 74.1412 294.139L79.7379 290.031C84.4668 282.135 86.9859 273.112 87.0314 263.908C87.0244 255.12 84.6599 246.495 80.1844 238.932Z" fill="#484646"/>
<path d="M70.9856 294.735C70.9856 294.735 74.29 272.929 67.6812 261.988C61.0724 251.048 49.1795 246.121 49.1795 246.121C49.1795 246.121 42.1391 262.42 49.1795 274.759C56.22 287.099 70.9856 294.735 70.9856 294.735Z" fill="white"/>
<path d="M70.9853 295.479C70.8654 295.48 70.7473 295.449 70.643 295.389C70.0327 295.077 55.6095 287.441 48.5392 275.057C41.469 262.673 48.2118 246.449 48.5392 245.764C48.6178 245.586 48.7631 245.445 48.944 245.373C49.1249 245.301 49.3269 245.302 49.5067 245.377C49.9979 245.585 61.7122 250.438 68.3656 261.542C75.0191 272.646 71.8933 293.946 71.7593 294.839C71.7426 294.956 71.699 295.069 71.6319 295.167C71.5647 295.265 71.476 295.346 71.3723 295.404C71.2499 295.456 71.1181 295.481 70.9853 295.479ZM49.5812 247.059C48.3755 250.274 43.8655 263.893 49.8342 274.328C55.803 284.762 67.0558 291.624 70.39 293.544C70.9407 289.078 72.6078 271.589 67.0409 262.286C61.474 252.983 52.186 248.279 49.5812 247.059Z" fill="#484646"/>
<path d="M192.683 315.975V61.8042H123.454L40.7101 108.215V171.638L118.423 131.048V315.975H40.7101V372.656H266.927V315.975H192.683Z" fill="white"/>
<path d="M266.927 373.4H40.6803C40.4829 373.4 40.2936 373.322 40.154 373.182C40.0144 373.043 39.936 372.853 39.936 372.656V315.96C39.9398 315.764 40.0195 315.577 40.1582 315.438C40.297 315.299 40.4841 315.22 40.6803 315.216H117.649V132.268L41.0524 172.293C40.941 172.356 40.8154 172.389 40.6877 172.389C40.56 172.389 40.4344 172.356 40.323 172.293C40.2145 172.229 40.1245 172.137 40.0619 172.028C39.9993 171.918 39.9662 171.794 39.9658 171.668V108.215C39.967 108.081 40.0034 107.95 40.0713 107.835C40.1393 107.72 40.2364 107.625 40.3528 107.56L123.082 61.1493C123.192 61.09 123.314 61.0593 123.439 61.0599H192.668C192.865 61.0599 193.054 61.1384 193.194 61.2779C193.334 61.4175 193.412 61.6068 193.412 61.8042V315.216H266.913C267.11 315.216 267.299 315.294 267.439 315.434C267.578 315.573 267.657 315.763 267.657 315.96V372.656C267.657 372.851 267.58 373.038 267.444 373.177C267.308 373.316 267.122 373.396 266.927 373.4ZM41.4543 371.912H266.213V316.704H192.683C192.485 316.704 192.296 316.626 192.156 316.486C192.017 316.347 191.938 316.158 191.938 315.96V62.5484H123.647L41.4543 108.691V170.447L118.081 130.393C118.192 130.33 118.318 130.297 118.445 130.297C118.573 130.297 118.699 130.33 118.81 130.393C118.92 130.46 119.01 130.554 119.073 130.666C119.135 130.778 119.168 130.904 119.167 131.033V315.96C119.167 316.158 119.089 316.347 118.949 316.486C118.81 316.626 118.62 316.704 118.423 316.704H41.4543V371.912Z" fill="#484646"/>
<path d="M266.526 287.798L272.986 356.863H292.872L287.126 279.627L266.526 287.798Z" fill="white"/>
<path d="M292.872 357.607H272.986C272.802 357.605 272.624 357.536 272.488 357.413C272.351 357.289 272.263 357.121 272.242 356.938L265.782 287.873C265.767 287.713 265.803 287.554 265.887 287.417C265.97 287.28 266.095 287.174 266.243 287.114L286.843 278.927C286.948 278.876 287.062 278.849 287.178 278.849C287.294 278.849 287.409 278.876 287.513 278.927C287.612 278.991 287.696 279.076 287.758 279.177C287.82 279.277 287.858 279.39 287.87 279.508L293.616 356.744C293.624 356.847 293.611 356.95 293.577 357.047C293.544 357.145 293.49 357.234 293.42 357.309C293.35 357.385 293.265 357.445 293.171 357.486C293.077 357.527 292.975 357.548 292.872 357.548V357.607ZM273.67 356.119H292.068L286.456 280.728L267.315 288.334L273.67 356.119Z" fill="#484646"/>
<path d="M337.421 108.483L342.303 98.2419C342.303 98.2419 338.344 93.2258 339.862 90.487C341.381 87.7482 343.003 83.0447 345.102 82.8512C346.358 82.7257 347.62 82.6661 348.882 82.6725C348.882 82.6725 354.181 68.0558 355.119 67.6688C355.489 67.5526 355.883 67.5424 356.258 67.6394C356.633 67.7364 356.973 67.9366 357.24 68.2172C357.506 68.4979 357.689 68.8478 357.767 69.2271C357.844 69.6064 357.814 69.9999 357.679 70.3629C356.98 72.6254 354.42 82.8512 354.42 82.8512C354.42 82.8512 361.162 85.8281 360.239 90.487C359.317 95.1459 355.342 99.6411 353.482 103.124C351.621 106.607 346.65 119.378 346.65 119.378L337.421 108.483Z" fill="white"/>
<path d="M346.665 120.122C346.558 120.124 346.452 120.103 346.354 120.059C346.256 120.015 346.169 119.951 346.099 119.869L336.782 108.974C336.687 108.865 336.626 108.731 336.607 108.588C336.589 108.445 336.613 108.299 336.677 108.17L341.366 98.3313C340.398 97.0065 337.63 92.8388 339.133 90.1298C339.491 89.4898 339.863 88.6413 340.235 87.9418C341.574 85.1732 342.944 82.3005 344.953 82.107C346.442 81.9581 347.618 81.9284 348.287 81.9284C353.542 67.4753 354.42 67.1181 354.747 67.0437C355.241 66.8923 355.765 66.8716 356.268 66.9838C356.772 67.096 357.238 67.3372 357.62 67.6837C358.02 68.0535 358.3 68.5354 358.422 69.0665C358.544 69.5976 358.503 70.1531 358.305 70.6606C357.724 72.5808 355.774 80.3208 355.209 82.5684C356.92 83.4466 361.773 86.3342 360.895 90.7698C359.955 94.16 358.373 97.3383 356.236 100.132C355.417 101.383 354.628 102.559 354.063 103.615C352.247 107.024 347.409 119.661 347.35 119.78C347.305 119.902 347.229 120.01 347.13 120.093C347.031 120.177 346.912 120.233 346.784 120.256L346.665 120.122ZM338.225 108.364L346.412 117.949C347.677 114.704 351.205 105.684 352.753 102.782C353.439 101.528 354.189 100.311 355 99.135C356.787 96.4409 358.826 93.4044 359.466 90.3084C360.27 86.23 354.137 83.5061 354.078 83.4764C353.913 83.4098 353.778 83.2853 353.698 83.1263C353.619 82.9674 353.6 82.7848 353.646 82.613C353.75 82.1963 356.221 72.3575 356.92 70.095C357.037 69.8501 357.074 69.5747 357.026 69.3076C356.978 69.0405 356.848 68.7953 356.653 68.6066C356.487 68.4652 356.296 68.3582 356.089 68.2918C355.882 68.2253 355.663 68.2008 355.447 68.2196C353.177 72.9657 351.189 77.8415 349.493 82.8214C349.442 82.969 349.345 83.0963 349.217 83.1847C349.088 83.2731 348.935 83.318 348.779 83.3126C347.546 83.3046 346.314 83.3593 345.087 83.4764C343.911 83.5954 342.557 86.4533 341.559 88.4776C341.172 89.2963 340.8 90.0852 340.428 90.755C339.386 92.6304 341.783 96.3814 342.795 97.6763C342.885 97.782 342.941 97.9119 342.957 98.0498C342.973 98.1876 342.948 98.327 342.884 98.4503L338.225 108.364Z" fill="#484646"/>
<path d="M218.656 284.464L206.749 356.863H226.634C226.069 358.352 245.33 284.464 245.33 284.464H218.656Z" fill="white"/>
<path d="M226.605 357.622H206.734C206.626 357.622 206.519 357.598 206.421 357.552C206.323 357.506 206.237 357.438 206.168 357.354C206.102 357.272 206.053 357.176 206.024 357.074C205.996 356.971 205.989 356.864 206.004 356.759L217.912 284.36C217.94 284.186 218.029 284.028 218.163 283.914C218.296 283.8 218.466 283.736 218.642 283.735H245.3C245.416 283.734 245.53 283.76 245.634 283.812C245.737 283.863 245.827 283.939 245.895 284.032C245.964 284.122 246.012 284.227 246.035 284.337C246.058 284.448 246.056 284.563 246.029 284.672C239.763 308.696 227.945 354.169 227.349 356.893C227.349 356.992 227.329 357.09 227.291 357.181C227.253 357.273 227.197 357.355 227.126 357.425C227.055 357.494 226.971 357.548 226.879 357.585C226.787 357.621 226.689 357.639 226.59 357.637L226.605 357.622ZM207.612 356.134H226.099C226.352 354.645 227.126 351.668 228.748 345.372C230.49 338.585 232.842 329.535 235.178 320.485L244.362 285.193H219.296L207.612 356.134Z" fill="#484646"/>
<path d="M227.483 173.171C227.483 173.171 216.335 206.692 208.327 295.226L295.298 296.908C295.298 296.908 300.15 212.69 287.603 174.243L227.483 173.171Z" fill="#484646"/>
<path d="M295.298 297.637L208.327 295.955C208.119 295.94 207.923 295.85 207.776 295.702C207.707 295.627 207.655 295.537 207.624 295.439C207.593 295.341 207.584 295.238 207.597 295.136C215.516 207.555 226.68 173.276 226.799 172.948C226.854 172.801 226.951 172.673 227.078 172.581C227.205 172.488 227.356 172.435 227.513 172.427L287.617 173.484C287.773 173.49 287.923 173.544 288.048 173.637C288.172 173.729 288.266 173.858 288.317 174.005C300.776 212.14 296.102 296.059 296.057 296.923C296.049 297.117 295.965 297.301 295.823 297.435C295.682 297.569 295.493 297.641 295.298 297.637ZM209.131 294.482L294.598 296.134C295.015 287.888 298.602 211.172 287.052 174.972L228.034 173.931C226.62 178.5 216.513 213.464 209.131 294.482Z" fill="#484646"/>
<path d="M284.372 176.133C281.306 155.935 267.999 93.4788 267.999 93.4788C256.657 96.7683 249.23 94.1486 249.23 94.1486C249.23 94.1486 228.763 159.76 225.295 176.133H284.372Z" fill="#484646"/>
<path d="M284.372 176.878H225.295C225.186 176.878 225.08 176.854 224.982 176.807C224.884 176.761 224.798 176.694 224.729 176.61C224.655 176.526 224.603 176.425 224.577 176.316C224.551 176.207 224.552 176.093 224.58 175.985C227.974 159.76 248.396 94.5802 248.589 93.9253C248.618 93.8297 248.666 93.7409 248.73 93.6642C248.794 93.5875 248.873 93.5244 248.961 93.4788C249.053 93.4381 249.152 93.4172 249.252 93.4172C249.352 93.4172 249.451 93.4381 249.542 93.4788C249.542 93.4788 256.91 95.9645 267.865 92.7941C267.959 92.754 268.06 92.7333 268.163 92.7333C268.265 92.7333 268.366 92.754 268.46 92.7941C268.547 92.8461 268.622 92.9152 268.68 92.9971C268.739 93.079 268.781 93.1719 268.803 93.2704C268.937 93.8955 282.065 155.98 285.176 175.985C285.191 176.09 285.184 176.197 285.156 176.299C285.128 176.402 285.079 176.497 285.012 176.58C284.937 176.677 284.839 176.754 284.728 176.806C284.617 176.858 284.495 176.882 284.372 176.878ZM226.218 175.389H283.494C280.442 155.86 269.026 101.561 267.508 94.4016C261.76 96.1487 255.658 96.3794 249.795 95.0714C247.607 102.112 229.909 158.867 226.218 175.389Z" fill="#484646"/>
<path d="M336.96 104.047L320.304 131.881L293.988 99.5517C290.446 93.449 273.596 93.449 273.596 93.449C273.596 93.449 247.533 91.6926 242.338 93.449C242.338 93.449 221.768 99.7452 217.689 104.24C213.611 108.736 225.132 129.396 225.623 151.068C226.114 172.74 216.856 194.546 216.856 194.546L244.214 202.33C244.214 202.33 249.423 167.307 249.423 150.532C249.423 116.193 249.423 94.1486 249.423 94.1486L268.014 94.744C268.014 94.744 267.404 127.386 266.526 152.422C265.29 185.064 272.39 202.33 272.39 202.33L297.263 195.766C297.263 195.766 289.136 166.235 289.24 150.532C289.377 145.888 289.825 141.258 290.579 136.674C298.9 146.9 314.127 169.822 326.169 164.955C335.189 161.368 352.306 115.076 352.306 115.076L336.96 104.047Z" fill="#FF931E"/>
<path d="M248.56 30.4719H248.47C247.89 30.8738 245.866 33.2554 245.345 33.2703C234.538 33.5977 230.073 43.0495 230.252 52.7394C230.455 62.9129 233.115 72.8864 238.007 81.8092L238.245 78.1922C239.505 82.3623 242.021 86.0423 245.449 88.7306C245.966 86.3046 247.093 84.0505 248.723 82.1813L258.652 89.2813C259.138 89.7207 259.755 89.9876 260.408 90.0404C261.02 89.9418 261.593 89.6737 262.06 89.2664C266.198 86.2895 271.899 84.5033 273.373 79.6509C273.819 81.9789 274.549 84.2433 275.546 86.3937C281.247 83.0149 283.137 75.7809 284.238 69.2465C285.307 64.1706 285.673 58.9718 285.325 53.7962C284.834 49.2415 284.596 44.5529 282.348 40.4C277.243 30.9185 263.683 25.0837 253.353 28.1053C251.639 28.6327 250.02 29.4317 248.56 30.4719Z" fill="white"/>
<path d="M260.348 90.8442C259.562 90.7787 258.817 90.466 258.22 89.9511L248.858 83.253C247.531 84.912 246.613 86.8598 246.178 88.939C246.15 89.0628 246.092 89.1778 246.009 89.2738C245.926 89.3699 245.82 89.444 245.702 89.4897C245.583 89.5338 245.454 89.546 245.329 89.5251C245.204 89.5042 245.086 89.451 244.987 89.3706C242.347 87.3027 240.218 84.6542 238.766 81.6306V81.9134C238.751 82.0757 238.686 82.2292 238.579 82.3521C238.472 82.4751 238.329 82.5612 238.17 82.5981C238.014 82.6304 237.852 82.6116 237.707 82.5446C237.562 82.4776 237.443 82.3659 237.367 82.226C232.416 73.1987 229.725 63.1073 229.522 52.8139C229.359 43.7342 233.377 33.0172 245.226 32.6005C245.797 32.1388 246.339 31.6417 246.848 31.112C247.223 30.6976 247.626 30.3097 248.054 29.951H248.158C249.667 28.8774 251.341 28.0579 253.115 27.5248C263.712 24.4288 277.659 30.338 282.973 40.1768C285.012 43.9426 285.444 48.155 285.846 52.2334L286.01 53.8111C286.377 59.0185 286.031 64.2517 284.983 69.3656C283.836 76.1233 281.857 83.5061 275.933 87.0337C275.737 87.114 275.518 87.114 275.322 87.0337C275.224 87.0015 275.134 86.9491 275.057 86.8799C274.98 86.8107 274.918 86.7262 274.876 86.6318C274.162 85.0964 273.579 83.5029 273.134 81.8688C271.527 84.4438 268.669 86.0811 265.945 87.6589C264.769 88.3436 263.564 89.0432 262.492 89.8023C261.911 90.2991 261.196 90.6147 260.438 90.7102L260.348 90.8442ZM248.724 81.4966C248.879 81.5008 249.03 81.5527 249.155 81.6455L259.083 88.7157C259.444 89.0447 259.895 89.2574 260.378 89.326C260.802 89.224 261.192 89.0137 261.509 88.7157C262.715 87.8822 263.951 87.2272 265.156 86.4681C268.476 84.548 271.616 82.7321 272.599 79.4574C272.645 79.2978 272.743 79.1584 272.878 79.0613C273.013 78.9641 273.177 78.915 273.343 78.9216C273.51 78.934 273.668 79.0002 273.794 79.1102C273.92 79.2202 274.007 79.3682 274.042 79.5319C274.429 81.5137 275.022 83.4494 275.814 85.3071C280.681 81.9283 282.408 75.26 283.45 69.1275C284.482 64.1018 284.822 58.9587 284.462 53.8409L284.298 52.2482C283.896 48.3187 283.479 44.2552 281.589 40.7424C276.588 31.4692 263.43 25.8577 253.457 28.8346C251.86 29.3319 250.353 30.0805 248.991 31.0524L248.575 30.4422L248.962 31.0822C248.589 31.3976 248.236 31.7356 247.905 32.0944C246.521 33.4935 245.955 34.0294 245.389 34.0443C234.524 34.3717 230.862 44.3296 231.011 52.7543C231.19 61.9231 233.391 70.9393 237.456 79.1597V78.1773C237.465 78.0023 237.536 77.8361 237.656 77.7081C237.776 77.5801 237.937 77.4986 238.111 77.4778C238.284 77.4606 238.458 77.5048 238.602 77.6027C238.746 77.7007 238.852 77.8461 238.9 78.0136C240.004 81.6562 242.102 84.9189 244.958 87.4356C245.587 85.3348 246.663 83.3951 248.113 81.7497C248.187 81.6615 248.281 81.5924 248.387 81.5484C248.494 81.5043 248.609 81.4866 248.724 81.4966Z" fill="#484646"/>
<path d="M272.211 62.8758C273.313 56.4903 283.926 55.0316 283.33 62.5633C283.202 65.1884 282.147 67.6832 280.353 69.6037C279.454 70.5415 278.296 71.1918 277.027 71.4726C275.758 71.7534 274.435 71.6521 273.223 71.1815" fill="white"/>
<path d="M275.56 72.3425C274.669 72.3475 273.787 72.1649 272.97 71.8067C272.881 71.7652 272.801 71.7063 272.734 71.6335C272.668 71.5607 272.617 71.4755 272.583 71.3827C272.55 71.2899 272.536 71.1915 272.541 71.0931C272.546 70.9947 272.571 70.8982 272.613 70.8094C272.653 70.7206 272.711 70.6406 272.782 70.5743C272.853 70.508 272.937 70.4567 273.029 70.4234C273.121 70.3901 273.218 70.3755 273.315 70.3805C273.413 70.3854 273.508 70.4098 273.596 70.4522C274.675 70.8489 275.848 70.9194 276.968 70.6547C278.087 70.3901 279.104 69.802 279.892 68.9637C281.525 67.1549 282.477 64.8341 282.586 62.3996C282.779 59.9734 281.663 58.4254 279.609 58.1574C278.121 58.004 276.629 58.4009 275.414 59.273C274.199 60.1452 273.346 61.4322 273.015 62.8908C272.999 62.9885 272.963 63.082 272.91 63.1659C272.857 63.2499 272.789 63.3226 272.708 63.38C272.627 63.4373 272.535 63.4782 272.439 63.5002C272.342 63.5223 272.242 63.5251 272.144 63.5085C272.047 63.4919 271.953 63.4562 271.869 63.4034C271.785 63.3507 271.713 63.2819 271.655 63.201C271.598 63.1202 271.557 63.0288 271.535 62.9322C271.513 62.8355 271.51 62.7355 271.527 62.6377C271.912 60.7959 272.971 59.1644 274.496 58.0629C276.022 56.9615 277.903 56.4696 279.773 56.6838C280.454 56.7519 281.113 56.9613 281.708 57.2988C282.303 57.6363 282.821 58.0943 283.228 58.6436C283.636 59.1929 283.925 59.8214 284.076 60.4887C284.226 61.1559 284.236 61.8474 284.104 62.5186C283.973 65.2878 282.872 67.9225 280.993 69.961C279.568 71.4408 277.615 72.2968 275.56 72.3425Z" fill="#484646"/>
<path d="M245.791 62.5782C244.838 56.1778 234.255 54.4958 234.702 62.0275C234.753 64.645 235.728 67.16 237.455 69.1275C238.335 70.0819 239.476 70.755 240.737 71.0623C241.998 71.3695 243.321 71.297 244.541 70.8541" fill="white"/>
<path d="M242.397 72.0448C241.367 72.0294 240.351 71.8081 239.407 71.394C238.464 70.9799 237.613 70.3813 236.905 69.6335C235.057 67.5401 234.003 64.8637 233.928 62.0721C233.705 58.2021 236.086 56.5648 238.393 56.3266C240.269 56.1543 242.141 56.6894 243.642 57.8268C245.143 58.9643 246.164 60.6219 246.505 62.474C246.533 62.6714 246.481 62.8716 246.361 63.0307C246.241 63.1899 246.063 63.2948 245.865 63.3224C245.668 63.35 245.468 63.2981 245.309 63.1781C245.15 63.0581 245.045 62.8797 245.017 62.6824C244.719 61.2168 243.894 59.9116 242.698 59.0143C241.502 58.1171 240.017 57.6903 238.527 57.8151C236.399 58.0383 235.253 59.5566 235.401 61.9828C235.44 64.4222 236.342 66.769 237.947 68.6065C238.718 69.4547 239.723 70.0567 240.835 70.3373C241.947 70.6179 243.117 70.5647 244.198 70.1842C244.288 70.1451 244.385 70.1241 244.483 70.1224C244.581 70.1207 244.678 70.1383 244.77 70.1743C244.861 70.2102 244.944 70.2638 245.015 70.3319C245.085 70.4 245.142 70.4813 245.181 70.5712C245.22 70.6612 245.241 70.7579 245.243 70.8559C245.244 70.954 245.227 71.0514 245.191 71.1426C245.155 71.2338 245.101 71.3171 245.033 71.3876C244.965 71.4581 244.884 71.5145 244.794 71.5536C244.036 71.8759 243.221 72.0429 242.397 72.0448Z" fill="#484646"/>
<path d="M249.304 94.1485C249.304 94.1485 255.183 99.641 259.262 99.5517C263.34 99.4624 267.895 94.7439 267.895 94.7439L267.642 90.2785L267.046 79.8593L266.466 70.1396L249.81 69.9609L249.17 77.8945L248.976 80.4546L249.304 94.1485Z" fill="white"/>
<path d="M259.173 100.296C254.841 100.296 249.036 94.9227 248.753 94.6845C248.68 94.6188 248.621 94.5386 248.58 94.4489C248.539 94.3593 248.517 94.2621 248.515 94.1635L248.188 80.5143L249.036 69.9313C249.048 69.7457 249.129 69.5715 249.265 69.4442C249.401 69.3169 249.58 69.2462 249.766 69.2466L266.422 69.4252C266.611 69.4288 266.792 69.5048 266.928 69.6376C267.064 69.7705 267.143 69.95 267.151 70.1397L268.639 94.6994C268.647 94.8031 268.632 94.9072 268.596 95.0047C268.56 95.1023 268.504 95.191 268.431 95.265C268.237 95.4585 263.623 100.207 259.277 100.296H259.173ZM250.033 93.8063C251.12 94.7738 255.853 98.8076 259.158 98.8076H259.247C262.492 98.8076 266.198 95.3692 267.136 94.4463L265.767 70.8541L250.495 70.6904L249.721 80.4845L250.033 93.8063Z" fill="#484646"/>
<path d="M248.976 80.4994C250.291 82.7729 252.154 84.6814 254.394 86.0514C257.952 88.3734 263.325 90.9931 267.642 90.2786L267.046 79.8593C263.856 80.2908 260.621 80.2908 257.431 79.8593C254.586 79.6955 251.791 79.0408 249.17 77.9243L248.976 80.4994Z" fill="#484646"/>
<path d="M266.109 91.1419C261.569 91.1419 256.672 88.4329 253.978 86.6765C251.632 85.2378 249.687 83.2311 248.322 80.8417C248.257 80.718 248.226 80.5794 248.232 80.4399L248.426 77.8648C248.439 77.7422 248.481 77.6245 248.549 77.5211C248.616 77.4177 248.706 77.3315 248.813 77.2694C248.917 77.2107 249.035 77.1799 249.155 77.1799C249.275 77.1799 249.393 77.2107 249.498 77.2694C252.044 78.3491 254.759 78.9786 257.52 79.13C260.641 79.5629 263.807 79.5629 266.927 79.13C267.03 79.1153 267.135 79.1222 267.235 79.1504C267.335 79.1786 267.428 79.2274 267.508 79.2937C267.59 79.3576 267.656 79.4389 267.702 79.5315C267.749 79.6242 267.774 79.726 267.776 79.8296L268.386 90.2489C268.393 90.4315 268.333 90.6104 268.218 90.7526C268.103 90.8947 267.941 90.9907 267.761 91.0229C267.214 91.1074 266.662 91.1473 266.109 91.1419ZM249.736 80.3357C250.989 82.4148 252.725 84.161 254.796 85.4262C256.97 86.9147 262.358 89.9958 266.853 89.6237L266.347 80.6929C263.375 80.9979 260.377 80.9479 257.416 80.5441C254.85 80.3794 252.319 79.8532 249.899 78.9812L249.736 80.3357Z" fill="#484646"/>
<path d="M257.446 82.2259H259.158C261.079 82.2476 262.986 81.8905 264.77 81.1751C266.553 80.4597 268.178 79.4 269.552 78.0565C270.926 76.713 272.022 75.112 272.777 73.345C273.532 71.578 273.932 69.6795 273.953 67.758C273.953 63.1289 274.117 53.8855 274.117 53.8855C274.117 53.8855 265.93 51.891 260.631 49.8964C251.701 46.5325 249.334 41.7098 249.334 41.7098C249.057 44.9105 248.351 48.0595 247.235 51.0723C246.089 53.2175 244.759 55.2593 243.261 57.175C243.261 57.175 243.008 64.3941 242.978 67.4157C242.955 69.3384 243.31 71.2469 244.025 73.0321C244.739 74.8173 245.799 76.4442 247.142 77.8197C248.486 79.1951 250.088 80.2923 251.856 81.0483C253.624 81.8044 255.523 82.2046 257.446 82.2259Z" fill="white"/>
<path d="M259.321 82.9851H257.446C253.368 82.9341 249.476 81.268 246.625 78.3522C243.773 75.4364 242.194 71.5088 242.234 67.4306C242.234 64.4537 242.517 57.2495 242.532 57.1751C242.538 57.0196 242.589 56.8695 242.68 56.7434C244.146 54.8754 245.446 52.8833 246.565 50.7895C247.633 47.8539 248.313 44.7916 248.59 41.6801C248.602 41.5171 248.667 41.3624 248.774 41.239C248.881 41.1156 249.025 41.0302 249.185 40.9954C249.347 40.9621 249.515 40.9835 249.663 41.0563C249.811 41.129 249.931 41.249 250.004 41.3973C250.004 41.3973 252.43 46.0115 260.899 49.2117C266.094 51.1765 274.206 53.1562 274.295 53.1711C274.458 53.2165 274.601 53.3138 274.703 53.4482C274.805 53.5825 274.861 53.7466 274.861 53.9153L274.712 67.7729C274.661 71.8226 273.018 75.6893 270.138 78.5363C267.257 81.3833 263.371 82.9815 259.321 82.9851ZM257.461 81.4966H259.321C262.979 81.493 266.489 80.0496 269.09 77.4785C271.692 74.9075 273.177 71.4155 273.224 67.7581L273.417 54.4809C271.453 53.9897 264.903 52.2929 260.423 50.596C256.393 49.2483 252.775 46.8911 249.914 43.7491C249.564 46.3601 248.915 48.9221 247.979 51.3849C246.841 53.5249 245.51 55.5576 244.005 57.4579C244.005 58.7231 243.752 64.7662 243.722 67.4306C243.683 71.1152 245.107 74.6649 247.683 77.2996C250.26 79.9343 253.776 81.4386 257.461 81.4817V81.4966Z" fill="#484646"/>
<path d="M258.681 72.1341C257.841 72.1308 257.001 72.0811 256.166 71.9853C255.969 71.9558 255.792 71.8504 255.673 71.6918C255.553 71.5331 255.5 71.3339 255.526 71.1369C255.539 71.0407 255.57 70.948 255.619 70.8643C255.668 70.7805 255.734 70.7074 255.811 70.6492C255.889 70.5909 255.977 70.5488 256.071 70.5252C256.166 70.5016 256.263 70.497 256.359 70.5117C257.681 70.6447 259.012 70.6447 260.334 70.5117C260.735 69.6335 259.679 65.1532 257.967 60.539C257.917 60.445 257.887 60.3414 257.881 60.2351C257.874 60.1288 257.89 60.0223 257.928 59.9228C257.966 59.8233 258.025 59.7331 258.101 59.6583C258.177 59.5835 258.268 59.5259 258.368 59.4893C258.468 59.4528 258.575 59.4381 258.681 59.4463C258.787 59.4545 258.89 59.4854 258.983 59.537C259.077 59.5885 259.158 59.6594 259.221 59.745C259.285 59.8305 259.329 59.9287 259.351 60.0329C260.17 62.2061 262.715 69.4698 261.569 71.3601C261.467 71.5319 261.326 71.6778 261.159 71.7862C260.991 71.8947 260.8 71.9628 260.601 71.9853C259.965 72.07 259.324 72.1197 258.681 72.1341Z" fill="#484646"/>
<path d="M252.779 58.4743C252.794 57.1015 252.353 55.9837 251.794 55.9776C251.235 55.9714 250.77 57.0793 250.755 58.452C250.74 59.8248 251.181 60.9426 251.74 60.9488C252.299 60.9549 252.764 59.847 252.779 58.4743Z" fill="#484646"/>
<path d="M266.113 58.159C266.129 56.7862 265.688 55.6684 265.129 55.6623C264.57 55.6561 264.104 56.764 264.089 58.1367C264.074 59.5095 264.515 60.6273 265.074 60.6334C265.633 60.6396 266.098 59.5317 266.113 58.159Z" fill="#484646"/>
<path d="M258.681 75.5725C258.369 75.5725 258.041 75.5725 257.729 75.5725C254.196 75.0998 250.99 73.2616 248.798 70.4521C248.679 70.2942 248.628 70.0957 248.656 69.9003C248.684 69.7049 248.789 69.5286 248.947 69.4102C249.105 69.2918 249.303 69.2409 249.498 69.2688C249.694 69.2967 249.87 69.4011 249.989 69.5591C251.942 72.0246 254.764 73.6491 257.877 74.0989C261.167 74.3817 264.59 72.8932 267.984 69.6335C268.053 69.5637 268.136 69.5083 268.226 69.4706C268.317 69.4328 268.414 69.4133 268.513 69.4133C268.611 69.4133 268.708 69.4328 268.799 69.4706C268.889 69.5083 268.972 69.5637 269.041 69.6335C269.11 69.7014 269.165 69.7824 269.203 69.8719C269.24 69.9614 269.26 70.0574 269.26 70.1544C269.26 70.2515 269.24 70.3475 269.203 70.437C269.165 70.5264 269.11 70.6075 269.041 70.6754C265.588 73.9351 262.134 75.5725 258.681 75.5725Z" fill="#484646"/>
<path d="M246.967 37.3933C249.155 43.0793 252.043 48.795 256.94 52.4269C259.442 54.1657 262.172 55.5529 265.052 56.5499C269.339 58.217 273.506 58.4105 277.138 61.4172C280.566 64.234 283.023 68.0553 284.164 72.3426C285.438 68.9576 285.943 65.3314 285.642 61.727C285.341 58.1226 284.241 54.6305 282.422 51.504C278.999 45.699 273.328 41.6206 267.731 37.8697C264.68 35.8156 261.346 33.7317 257.669 33.8061" fill="white"/>
<path d="M284.164 73.1017C284.005 73.0952 283.853 73.0361 283.732 72.9337C283.611 72.8312 283.527 72.6913 283.494 72.536C282.393 68.3666 280.001 64.6521 276.662 61.9233C274.366 60.2592 271.735 59.1162 268.952 58.5742C267.582 58.1872 266.183 57.8002 264.754 57.2495C261.822 56.2083 259.043 54.7764 256.493 52.9925C251.135 49.0183 248.217 42.6923 246.268 37.6315C246.232 37.5397 246.214 37.4417 246.217 37.3431C246.219 37.2446 246.241 37.1475 246.281 37.0575C246.321 36.9675 246.379 36.8863 246.451 36.8188C246.522 36.7512 246.607 36.6986 246.699 36.664C246.79 36.6283 246.887 36.6113 246.984 36.6138C247.082 36.6163 247.178 36.6383 247.267 36.6786C247.356 36.7188 247.435 36.7765 247.502 36.8481C247.568 36.9197 247.619 37.0039 247.652 37.0956C249.527 41.9629 252.326 48.0507 257.386 51.8017C259.836 53.4988 262.505 54.8558 265.32 55.8354C266.674 56.3564 268.044 56.7434 269.383 57.1155C272.366 57.7242 275.177 58.9847 277.615 60.8069C280.543 63.2255 282.798 66.3577 284.164 69.9015C285.789 63.8099 284.933 57.3223 281.782 51.8612C278.448 46.2199 273.045 42.3201 267.314 38.465C264.174 36.3514 261.063 34.4759 257.669 34.5206C257.571 34.5269 257.473 34.5126 257.381 34.4784C257.288 34.4442 257.204 34.3909 257.134 34.3221C257.064 34.2533 257.009 34.1704 256.973 34.079C256.937 33.9875 256.921 33.8894 256.925 33.7912C256.921 33.693 256.937 33.5949 256.972 33.503C257.007 33.411 257.06 33.3271 257.128 33.2561C257.196 33.1852 257.278 33.1288 257.368 33.0903C257.459 33.0518 257.556 33.032 257.654 33.0321C261.495 33.0321 264.799 34.9671 268.148 37.2296C273.789 41.0103 279.579 45.1929 283.033 51.0872C284.898 54.3158 286.027 57.9168 286.338 61.6325C286.649 65.3481 286.136 69.0867 284.834 72.5807C284.787 72.7244 284.698 72.8507 284.578 72.9435C284.459 73.0363 284.315 73.0914 284.164 73.1017Z" fill="#484646"/>
<path d="M215.724 167.768C215.724 167.768 224.015 176.133 224.863 178.664C225.711 181.194 225.28 197.032 224.015 197.88C222.749 198.728 213.878 204.251 211.988 202.345C210.097 200.44 206.704 195.364 208.386 195.573C209.942 196.042 211.382 196.833 212.613 197.895C214.241 197.081 215.685 195.941 216.855 194.546C216.855 194.546 211.601 189.649 214.563 183.948L209.77 178.307" fill="white"/>
<path d="M213.224 203.447C212.904 203.47 212.582 203.43 212.278 203.328C211.974 203.225 211.693 203.063 211.453 202.851C210.53 201.929 206.511 197.017 207.315 195.409C207.421 195.197 207.593 195.026 207.805 194.921C208.017 194.817 208.258 194.784 208.49 194.829C210.033 195.233 211.467 195.975 212.688 197.002C213.857 196.37 214.921 195.562 215.844 194.605C214.593 193.206 211.378 188.934 213.641 184.067L209.175 178.813C209.049 178.66 208.988 178.464 209.005 178.266C209.021 178.069 209.115 177.885 209.264 177.756C209.338 177.692 209.424 177.644 209.517 177.613C209.609 177.583 209.707 177.572 209.804 177.58C209.901 177.589 209.996 177.616 210.082 177.662C210.168 177.707 210.245 177.77 210.306 177.845L215.099 183.472C215.193 183.587 215.251 183.727 215.267 183.875C215.282 184.023 215.255 184.172 215.189 184.305C212.539 189.425 217.138 193.831 217.332 194.01C217.457 194.128 217.538 194.286 217.559 194.457C217.581 194.628 217.543 194.802 217.451 194.948C216.24 196.457 214.717 197.686 212.986 198.55C212.856 198.619 212.709 198.648 212.563 198.632C212.416 198.616 212.279 198.556 212.167 198.46C211.16 197.615 210.031 196.927 208.818 196.421C209.77 198.405 211.025 200.228 212.539 201.824C213.566 202.866 219.803 199.83 223.628 197.27C224.492 196.019 224.998 181.373 224.179 178.917C223.598 177.175 218.508 171.623 215.248 168.304C215.112 168.165 215.035 167.978 215.035 167.783C215.035 167.588 215.112 167.401 215.248 167.262C215.317 167.192 215.4 167.137 215.49 167.099C215.581 167.061 215.678 167.042 215.777 167.042C215.875 167.042 215.972 167.061 216.063 167.099C216.153 167.137 216.236 167.192 216.305 167.262C217.168 168.125 224.745 175.821 225.623 178.441C226.337 180.599 226.397 197.24 224.492 198.52C223.539 199.086 216.856 203.447 213.224 203.447Z" fill="#484646"/>
<path d="M217.659 104.181C217.659 104.181 173.467 138.609 173.601 146.349C173.69 151.901 208.922 182.683 208.922 182.683L220.22 169.912L202.775 148.656L227.483 131.881" fill="#FF931E"/>
<path d="M290.401 137.418H290.282C290.185 137.404 290.092 137.37 290.008 137.32C289.924 137.269 289.851 137.203 289.793 137.124C289.735 137.045 289.693 136.956 289.669 136.861C289.646 136.765 289.642 136.667 289.656 136.57C289.656 136.436 291.889 122.132 294.122 114.868C294.179 114.671 294.312 114.504 294.492 114.405C294.672 114.306 294.884 114.282 295.082 114.34C295.279 114.397 295.446 114.53 295.545 114.71C295.644 114.89 295.667 115.102 295.61 115.3C293.79 122.385 292.334 129.559 291.249 136.793C291.235 136.89 291.201 136.983 291.15 137.067C291.1 137.151 291.033 137.224 290.955 137.282C290.876 137.34 290.786 137.382 290.691 137.405C290.596 137.429 290.497 137.433 290.401 137.418Z" fill="#484646"/>
<path d="M312.683 146.543C312.559 146.542 312.436 146.511 312.326 146.453C312.24 146.407 312.163 146.343 312.102 146.267C312.04 146.191 311.994 146.103 311.967 146.009C311.939 145.915 311.93 145.817 311.941 145.719C311.951 145.622 311.981 145.527 312.028 145.441L319.649 131.509C319.696 131.423 319.759 131.347 319.836 131.286C319.912 131.224 319.999 131.178 320.093 131.151C320.187 131.123 320.286 131.114 320.383 131.125C320.481 131.135 320.575 131.165 320.661 131.211C320.747 131.258 320.823 131.322 320.885 131.398C320.946 131.474 320.992 131.562 321.02 131.656C321.047 131.75 321.056 131.848 321.046 131.946C321.035 132.043 321.006 132.138 320.959 132.224L313.338 146.156C313.275 146.274 313.18 146.373 313.065 146.441C312.949 146.51 312.817 146.545 312.683 146.543Z" fill="#484646"/>
<path d="M348.793 98.1675C348.606 98.1719 348.424 98.1024 348.287 97.974C348.217 97.9048 348.162 97.8225 348.124 97.7318C348.087 97.6411 348.067 97.5438 348.067 97.4456C348.067 97.3473 348.087 97.25 348.124 97.1594C348.162 97.0687 348.217 96.9863 348.287 96.9172C351.502 93.5532 346.799 88.7604 346.65 88.5669C346.527 88.4396 346.451 88.2732 346.438 88.0965C346.424 87.9198 346.473 87.7439 346.575 87.5993C346.68 87.4569 346.832 87.3563 347.003 87.3154C347.175 87.2745 347.356 87.296 347.513 87.3761C347.513 87.3761 352.366 89.8469 355.878 89.4153H355.968C355.491 88.418 352.202 85.7239 348.436 83.2977C348.348 83.2476 348.272 83.1802 348.211 83.0995C348.15 83.0189 348.106 82.9266 348.082 82.8285C348.058 82.7304 348.054 82.6284 348.071 82.5287C348.087 82.429 348.124 82.3338 348.179 82.2488C348.233 82.1638 348.305 82.0908 348.389 82.0343C348.472 81.9778 348.567 81.9389 348.666 81.92C348.765 81.9012 348.867 81.9028 348.966 81.9247C349.065 81.9465 349.158 81.9883 349.24 82.0474C353.229 84.6224 357.888 88.0012 357.471 89.8618C357.397 90.1893 357.114 90.7698 356.057 90.9037C353.822 91.0275 351.587 90.6618 349.508 89.832C350.996 92.1987 351.785 95.4138 349.359 97.9442C349.286 98.0199 349.198 98.0791 349.1 98.1176C349.003 98.1561 348.898 98.1731 348.793 98.1675Z" fill="#484646"/>
<path d="M258.443 132.611C258.279 132.606 258.121 132.549 257.992 132.447C257.863 132.345 257.771 132.204 257.729 132.045L248.59 94.3123C248.545 94.1209 248.578 93.9195 248.681 93.7522C248.784 93.5849 248.949 93.4652 249.14 93.4192C249.235 93.3927 249.335 93.3862 249.432 93.4C249.53 93.4137 249.624 93.4476 249.707 93.4993C249.791 93.551 249.864 93.6195 249.92 93.7005C249.976 93.7815 250.015 93.8732 250.034 93.9699L258.533 128.785L267.255 94.5504C267.302 94.3531 267.426 94.1826 267.599 94.0765C267.772 93.9704 267.981 93.9375 268.178 93.9848C268.375 94.0322 268.546 94.156 268.652 94.3291C268.758 94.5022 268.791 94.7103 268.744 94.9077L259.277 132.119C259.225 132.291 259.11 132.437 258.956 132.528C258.802 132.619 258.619 132.648 258.443 132.611Z" fill="white"/>
<path d="M258.309 157.885C265.494 157.885 271.318 152.06 271.318 144.876C271.318 137.691 265.494 131.866 258.309 131.866C251.124 131.866 245.3 137.691 245.3 144.876C245.3 152.06 251.124 157.885 258.309 157.885Z" fill="white"/>
<path d="M258.309 158.674C255.585 158.677 252.922 157.872 250.656 156.361C248.39 154.849 246.623 152.7 245.578 150.185C244.534 147.669 244.259 144.9 244.789 142.228C245.318 139.557 246.628 137.102 248.553 135.175C250.478 133.248 252.932 131.935 255.603 131.403C258.274 130.87 261.043 131.142 263.56 132.184C266.076 133.225 268.228 134.99 269.741 137.255C271.255 139.519 272.063 142.182 272.063 144.905C272.063 148.554 270.614 152.054 268.035 154.636C265.456 157.217 261.958 158.67 258.309 158.674ZM258.309 132.64C255.879 132.637 253.503 133.356 251.481 134.704C249.46 136.052 247.883 137.97 246.952 140.214C246.021 142.459 245.776 144.929 246.25 147.312C246.723 149.696 247.893 151.885 249.611 153.603C251.329 155.322 253.519 156.492 255.902 156.965C258.286 157.438 260.756 157.194 263 156.262C265.245 155.331 267.163 153.755 268.511 151.733C269.859 149.712 270.577 147.335 270.574 144.905C270.576 143.293 270.26 141.696 269.645 140.205C269.03 138.714 268.127 137.359 266.988 136.218C265.849 135.076 264.496 134.17 263.007 133.551C261.518 132.932 259.922 132.613 258.309 132.611V132.64Z" fill="#484646"/>
<path d="M272.985 356.863C272.985 356.863 273.804 372.016 274.399 372.611C274.995 373.207 283.494 373.623 283.494 373.623L284.982 368.22L288.778 374.174C288.778 374.174 324.978 378.416 323.147 373.876C321.316 369.337 292.856 356.908 292.856 356.908L272.985 356.863Z" fill="#484646"/>
<path d="M313.799 376.66C304.69 376.66 292.172 375.276 288.704 374.874C288.594 374.861 288.489 374.823 288.397 374.764C288.304 374.705 288.226 374.625 288.168 374.531L285.191 370.066L284.134 373.862C284.093 374.025 283.996 374.17 283.861 374.27C283.725 374.371 283.559 374.421 283.39 374.412C274.608 373.996 273.998 373.385 273.804 373.192C273.611 372.998 273 372.373 272.167 356.953C272.162 356.851 272.179 356.75 272.214 356.656C272.25 356.561 272.305 356.475 272.375 356.402C272.443 356.326 272.525 356.266 272.618 356.225C272.71 356.184 272.81 356.163 272.911 356.164H292.797C292.895 356.141 292.997 356.141 293.095 356.164C296.072 357.444 321.912 368.845 323.787 373.534C323.89 373.777 323.926 374.043 323.892 374.305C323.858 374.566 323.755 374.814 323.594 375.023C322.745 376.243 318.771 376.66 313.799 376.66ZM289.225 373.43C304.571 375.216 321.569 375.975 322.492 374.115C321.227 370.989 304.05 362.564 292.723 357.607H273.775C274.132 363.993 274.653 370.885 274.995 372.12C277.628 372.52 280.282 372.764 282.943 372.849L284.283 368.027C284.321 367.889 284.399 367.765 284.506 367.67C284.612 367.575 284.744 367.513 284.886 367.491C285.027 367.469 285.172 367.488 285.302 367.546C285.433 367.604 285.544 367.699 285.623 367.818L289.225 373.43Z" fill="#484646"/>
<path d="M226.62 356.863C226.62 356.863 225.816 372.016 225.206 372.611C224.595 373.207 216.111 373.623 216.111 373.623L214.623 368.22L210.842 374.174C210.842 374.174 174.643 378.416 176.458 373.876C178.274 369.337 206.749 356.908 206.749 356.908L226.62 356.863Z" fill="#484646"/>
<path d="M185.821 376.66C180.834 376.66 176.89 376.243 175.937 375.037C175.778 374.827 175.678 374.579 175.647 374.317C175.615 374.056 175.654 373.791 175.759 373.549C177.634 368.86 203.504 357.459 206.436 356.179C206.534 356.158 206.635 356.158 206.734 356.179H226.619C226.723 356.18 226.824 356.201 226.919 356.242C227.013 356.283 227.099 356.342 227.17 356.417C227.238 356.491 227.29 356.578 227.323 356.672C227.356 356.767 227.37 356.867 227.364 356.967C226.545 372.388 225.965 372.983 225.741 373.207C225.518 373.43 224.923 374.01 216.156 374.427C215.986 374.434 215.818 374.383 215.681 374.283C215.543 374.183 215.443 374.04 215.396 373.876L214.34 370.081L211.452 374.546C211.394 374.64 211.316 374.72 211.223 374.779C211.131 374.838 211.026 374.876 210.916 374.889C207.433 375.276 194.93 376.66 185.821 376.66ZM206.897 357.607C195.555 362.564 178.378 371.004 177.128 374.1C178.036 375.975 194.99 375.216 210.38 373.43L213.968 367.818C214.048 367.699 214.16 367.605 214.292 367.547C214.424 367.489 214.569 367.469 214.712 367.491C214.853 367.515 214.985 367.578 215.093 367.672C215.201 367.767 215.28 367.89 215.322 368.027L216.662 372.849C219.325 372.77 221.981 372.512 224.61 372.075C224.967 370.736 225.473 363.919 225.831 357.607H206.897Z" fill="#484646"/>
<path d="M258.309 134.903L261.078 140.514L267.284 141.407L262.804 145.784L263.861 151.961L258.309 149.043L252.772 151.961L253.829 145.784L249.333 141.407L255.54 140.514L258.309 134.903Z" fill="#FF931E"/>
<path d="M320.304 192.343C320.116 192.339 319.936 192.263 319.803 192.129C319.67 191.996 319.593 191.817 319.589 191.628V185.258C319.589 185.068 319.665 184.887 319.799 184.753C319.933 184.619 320.114 184.543 320.304 184.543C320.398 184.541 320.492 184.558 320.58 184.594C320.667 184.629 320.747 184.681 320.814 184.748C320.88 184.815 320.933 184.894 320.968 184.982C321.003 185.07 321.02 185.163 321.018 185.258V191.628C321.018 191.818 320.943 192 320.809 192.134C320.675 192.268 320.493 192.343 320.304 192.343Z" fill="#D1D1D1"/>
<path d="M320.304 204.042C320.207 204.046 320.111 204.031 320.021 203.997C319.931 203.962 319.849 203.91 319.779 203.844C319.71 203.777 319.654 203.697 319.617 203.608C319.579 203.52 319.559 203.424 319.559 203.328V196.942C319.563 196.754 319.64 196.574 319.773 196.441C319.906 196.308 320.086 196.232 320.274 196.228C320.368 196.228 320.461 196.246 320.547 196.282C320.634 196.318 320.713 196.371 320.779 196.437C320.845 196.503 320.898 196.582 320.934 196.669C320.97 196.755 320.988 196.848 320.988 196.942V203.328C320.99 203.42 320.974 203.511 320.941 203.597C320.908 203.682 320.858 203.76 320.794 203.827C320.73 203.893 320.654 203.946 320.57 203.983C320.486 204.02 320.396 204.04 320.304 204.042Z" fill="#D1D1D1"/>
<path d="M329.354 195.007H322.968C322.771 195.007 322.581 194.929 322.442 194.789C322.302 194.65 322.224 194.46 322.224 194.263C322.224 194.066 322.302 193.876 322.442 193.737C322.581 193.597 322.771 193.519 322.968 193.519H329.354C329.551 193.519 329.74 193.597 329.88 193.737C330.019 193.876 330.098 194.066 330.098 194.263C330.098 194.46 330.019 194.65 329.88 194.789C329.74 194.929 329.551 195.007 329.354 195.007Z" fill="#D1D1D1"/>
<path d="M317.639 195.007H311.269C311.071 195.007 310.882 194.929 310.742 194.789C310.603 194.65 310.524 194.46 310.524 194.263C310.524 194.066 310.603 193.876 310.742 193.737C310.882 193.597 311.071 193.519 311.269 193.519H317.639C317.837 193.519 318.026 193.597 318.165 193.737C318.305 193.876 318.383 194.066 318.383 194.263C318.383 194.46 318.305 194.65 318.165 194.789C318.026 194.929 317.837 195.007 317.639 195.007Z" fill="#D1D1D1"/>
<path d="M311.269 68.5172C311.105 68.5008 310.952 68.4281 310.835 68.3115C310.718 68.1948 310.646 68.0413 310.629 67.8772V62.6378C310.614 62.5363 310.622 62.4329 310.65 62.3345C310.679 62.2361 310.729 62.145 310.796 62.0675C310.863 61.9899 310.946 61.9278 311.039 61.8851C311.132 61.8425 311.234 61.8204 311.336 61.8204C311.439 61.8204 311.54 61.8425 311.633 61.8851C311.726 61.9278 311.809 61.9899 311.876 62.0675C311.944 62.145 311.993 62.2361 312.022 62.3345C312.051 62.4329 312.058 62.5363 312.043 62.6378V67.8772C312.024 68.0642 311.933 68.2363 311.788 68.3561C311.643 68.476 311.456 68.5338 311.269 68.5172Z" fill="#D1D1D1"/>
<path d="M311.269 77.9988C311.08 77.9988 310.898 77.9235 310.764 77.7895C310.63 77.6555 310.555 77.4738 310.555 77.2843V72.1193C310.54 72.0179 310.547 71.9144 310.576 71.816C310.605 71.7176 310.654 71.6266 310.721 71.549C310.788 71.4715 310.871 71.4093 310.965 71.3667C311.058 71.3241 311.159 71.302 311.262 71.302C311.364 71.302 311.466 71.3241 311.559 71.3667C311.652 71.4093 311.735 71.4715 311.802 71.549C311.869 71.6266 311.919 71.7176 311.947 71.816C311.976 71.9144 311.983 72.0179 311.969 72.1193V77.2843C311.969 77.4712 311.896 77.6507 311.765 77.7843C311.634 77.9179 311.456 77.9949 311.269 77.9988Z" fill="#D1D1D1"/>
<path d="M318.578 70.6755H313.427C313.23 70.6755 313.041 70.5971 312.901 70.4575C312.762 70.3179 312.683 70.1286 312.683 69.9312C312.683 69.7339 312.762 69.5446 312.901 69.405C313.041 69.2654 313.23 69.187 313.427 69.187H318.578C318.775 69.187 318.964 69.2654 319.104 69.405C319.243 69.5446 319.322 69.7339 319.322 69.9312C319.322 70.1286 319.243 70.3179 319.104 70.4575C318.964 70.5971 318.775 70.6755 318.578 70.6755Z" fill="#D1D1D1"/>
<path d="M309.141 70.6755H303.976C303.778 70.6755 303.589 70.5971 303.449 70.4575C303.31 70.3179 303.231 70.1286 303.231 69.9312C303.231 69.7339 303.31 69.5446 303.449 69.405C303.589 69.2654 303.778 69.187 303.976 69.187H309.141C309.338 69.187 309.527 69.2654 309.667 69.405C309.806 69.5446 309.885 69.7339 309.885 69.9312C309.885 70.1286 309.806 70.3179 309.667 70.4575C309.527 70.5971 309.338 70.6755 309.141 70.6755Z" fill="#D1D1D1"/>
<path d="M191.551 31.8563C191.457 31.8583 191.363 31.8412 191.275 31.806C191.188 31.7708 191.108 31.7183 191.042 31.6515C190.975 31.5848 190.922 31.5052 190.887 31.4176C190.852 31.33 190.835 31.2362 190.837 31.1418V24.7116C190.822 24.6102 190.829 24.5067 190.858 24.4083C190.887 24.3099 190.936 24.2189 191.003 24.1413C191.071 24.0638 191.154 24.0016 191.247 23.959C191.34 23.9163 191.441 23.8943 191.544 23.8943C191.646 23.8943 191.748 23.9163 191.841 23.959C191.934 24.0016 192.017 24.0638 192.084 24.1413C192.151 24.2189 192.201 24.3099 192.23 24.4083C192.258 24.5067 192.266 24.6102 192.251 24.7116V31.0822C192.261 31.1802 192.251 31.2792 192.221 31.3729C192.19 31.4665 192.14 31.5527 192.074 31.6258C192.008 31.6988 191.927 31.7571 191.837 31.7969C191.747 31.8366 191.65 31.8568 191.551 31.8563Z" fill="#D1D1D1"/>
<path d="M191.551 43.5705C191.457 43.5725 191.363 43.5555 191.275 43.5203C191.188 43.4851 191.108 43.4325 191.042 43.3658C190.975 43.299 190.922 43.2195 190.887 43.1319C190.852 43.0443 190.835 42.9504 190.837 42.8561V36.4854C190.822 36.384 190.829 36.2805 190.858 36.1821C190.887 36.0837 190.936 35.9927 191.003 35.9151C191.071 35.8376 191.154 35.7754 191.247 35.7328C191.34 35.6902 191.441 35.6681 191.544 35.6681C191.646 35.6681 191.748 35.6902 191.841 35.7328C191.934 35.7754 192.017 35.8376 192.084 35.9151C192.151 35.9927 192.201 36.0837 192.23 36.1821C192.258 36.2805 192.266 36.384 192.251 36.4854V42.8561C192.253 42.9492 192.236 43.0417 192.202 43.1283C192.168 43.2149 192.116 43.2938 192.051 43.3604C191.986 43.4269 191.908 43.4798 191.822 43.5159C191.737 43.552 191.644 43.5705 191.551 43.5705Z" fill="#D1D1D1"/>
<path d="M200.482 34.5206H194.111C193.914 34.5206 193.725 34.4422 193.585 34.3026C193.445 34.163 193.367 33.9737 193.367 33.7763C193.367 33.579 193.445 33.3897 193.585 33.2501C193.725 33.1105 193.914 33.0321 194.111 33.0321H200.482C200.679 33.0321 200.869 33.1105 201.008 33.2501C201.148 33.3897 201.226 33.579 201.226 33.7763C201.226 33.9737 201.148 34.163 201.008 34.3026C200.869 34.4422 200.679 34.5206 200.482 34.5206Z" fill="#D1D1D1"/>
<path d="M188.827 34.5206H182.457C182.259 34.5206 182.07 34.4422 181.931 34.3026C181.791 34.163 181.713 33.9737 181.713 33.7763C181.713 33.579 181.791 33.3897 181.931 33.2501C182.07 33.1105 182.259 33.0321 182.457 33.0321H188.827C189.025 33.0321 189.214 33.1105 189.354 33.2501C189.493 33.3897 189.572 33.579 189.572 33.7763C189.572 33.9737 189.493 34.163 189.354 34.3026C189.214 34.4422 189.025 34.5206 188.827 34.5206Z" fill="#D1D1D1"/>
<path d="M97.5101 174.184C97.3206 174.184 97.1388 174.108 97.0048 173.974C96.8709 173.84 96.7956 173.659 96.7956 173.469V167.098C96.7935 167.004 96.8106 166.91 96.8458 166.823C96.881 166.735 96.9336 166.655 97.0003 166.589C97.0671 166.522 97.1466 166.469 97.2342 166.434C97.3218 166.399 97.4157 166.382 97.5101 166.384C97.6995 166.384 97.8813 166.459 98.0152 166.593C98.1492 166.727 98.2245 166.909 98.2245 167.098V173.469C98.2207 173.657 98.1442 173.837 98.011 173.97C97.8779 174.103 97.6983 174.18 97.5101 174.184Z" fill="#D1D1D1"/>
<path d="M97.5099 185.883C97.4168 185.885 97.3242 185.868 97.2376 185.834C97.151 185.8 97.0721 185.748 97.0055 185.683C96.939 185.618 96.8861 185.54 96.8501 185.455C96.814 185.369 96.7954 185.276 96.7954 185.183V178.798C96.7954 178.608 96.8707 178.427 97.0047 178.293C97.1387 178.159 97.3204 178.083 97.5099 178.083C97.6982 178.087 97.8777 178.164 98.0109 178.297C98.144 178.43 98.2205 178.609 98.2243 178.798V185.183C98.2205 185.37 98.1435 185.548 98.0099 185.679C97.8763 185.81 97.6968 185.883 97.5099 185.883Z" fill="#D1D1D1"/>
<path d="M106.545 176.848H100.174C99.9767 176.848 99.7873 176.769 99.6478 176.63C99.5082 176.49 99.4298 176.301 99.4298 176.104C99.4298 175.906 99.5082 175.717 99.6478 175.577C99.7873 175.438 99.9767 175.359 100.174 175.359H106.545C106.742 175.359 106.931 175.438 107.071 175.577C107.211 175.717 107.289 175.906 107.289 176.104C107.289 176.301 107.211 176.49 107.071 176.63C106.931 176.769 106.742 176.848 106.545 176.848Z" fill="#D1D1D1"/>
<path d="M94.8013 176.848H88.4157C88.2184 176.848 88.0291 176.769 87.8895 176.63C87.7499 176.49 87.6715 176.301 87.6715 176.104C87.6715 175.906 87.7499 175.717 87.8895 175.577C88.0291 175.438 88.2184 175.359 88.4157 175.359H94.8013C94.9987 175.359 95.1879 175.438 95.3275 175.577C95.4671 175.717 95.5455 175.906 95.5455 176.104C95.5455 176.301 95.4671 176.49 95.3275 176.63C95.1879 176.769 94.9987 176.848 94.8013 176.848Z" fill="#D1D1D1"/>
<path d="M55.0885 218.897C54.9954 218.897 54.9032 218.879 54.8173 218.843C54.7315 218.806 54.6537 218.754 54.5885 218.687C54.5234 218.62 54.4721 218.542 54.4379 218.455C54.4036 218.368 54.387 218.276 54.389 218.183V211.812C54.389 211.615 54.4674 211.425 54.6069 211.286C54.7465 211.146 54.9358 211.068 55.1332 211.068C55.3306 211.068 55.5199 211.146 55.6594 211.286C55.799 211.425 55.8774 211.615 55.8774 211.812V218.212C55.8761 218.311 55.854 218.408 55.8125 218.498C55.7709 218.587 55.711 218.667 55.6365 218.732C55.562 218.796 55.4746 218.844 55.3802 218.873C55.2858 218.902 55.1864 218.91 55.0885 218.897Z" fill="#D1D1D1"/>
<path d="M55.0884 230.611C54.9015 230.607 54.7236 230.53 54.5928 230.397C54.462 230.263 54.3888 230.084 54.3888 229.897V223.526C54.3888 223.329 54.4672 223.14 54.6068 223C54.7463 222.86 54.9356 222.782 55.133 222.782C55.3304 222.782 55.5197 222.86 55.6593 223C55.7989 223.14 55.8773 223.329 55.8773 223.526V229.897C55.8778 229.997 55.8572 230.097 55.8167 230.189C55.7762 230.281 55.7169 230.363 55.6424 230.43C55.568 230.498 55.4802 230.549 55.3847 230.58C55.2892 230.611 55.1883 230.622 55.0884 230.611Z" fill="#D1D1D1"/>
<path d="M64.1388 221.561H57.7681C57.6667 221.576 57.5632 221.569 57.4648 221.54C57.3664 221.511 57.2754 221.462 57.1978 221.395C57.1203 221.328 57.0581 221.245 57.0155 221.151C56.9729 221.058 56.9508 220.957 56.9508 220.854C56.9508 220.752 56.9729 220.651 57.0155 220.557C57.0581 220.464 57.1203 220.381 57.1978 220.314C57.2754 220.247 57.3664 220.197 57.4648 220.169C57.5632 220.14 57.6667 220.133 57.7681 220.147H64.1388C64.2402 220.133 64.3437 220.14 64.4421 220.169C64.5405 220.197 64.6315 220.247 64.7091 220.314C64.7866 220.381 64.8488 220.464 64.8914 220.557C64.934 220.651 64.9561 220.752 64.9561 220.854C64.9561 220.957 64.934 221.058 64.8914 221.151C64.8488 221.245 64.7866 221.328 64.7091 221.395C64.6315 221.462 64.5405 221.511 64.4421 221.54C64.3437 221.569 64.2402 221.576 64.1388 221.561Z" fill="#D1D1D1"/>
<path d="M52.4242 221.561H46.0536C45.9521 221.576 45.8487 221.569 45.7503 221.54C45.6519 221.511 45.5608 221.462 45.4833 221.395C45.4058 221.328 45.3436 221.245 45.301 221.151C45.2583 221.058 45.2363 220.957 45.2363 220.854C45.2363 220.752 45.2583 220.651 45.301 220.557C45.3436 220.464 45.4058 220.381 45.4833 220.314C45.5608 220.247 45.6519 220.197 45.7503 220.169C45.8487 220.14 45.9521 220.133 46.0536 220.147H52.4242C52.5257 220.133 52.6291 220.14 52.7275 220.169C52.8259 220.197 52.917 220.247 52.9945 220.314C53.072 220.381 53.1342 220.464 53.1769 220.557C53.2195 220.651 53.2416 220.752 53.2416 220.854C53.2416 220.957 53.2195 221.058 53.1769 221.151C53.1342 221.245 53.072 221.328 52.9945 221.395C52.917 221.462 52.8259 221.511 52.7275 221.54C52.6291 221.569 52.5257 221.576 52.4242 221.561Z" fill="#D1D1D1"/>
<path d="M56.2047 285.7H92.9401L89.1296 311.45C88.934 312.698 88.298 313.834 87.3369 314.653C86.3758 315.472 85.153 315.92 83.8902 315.915H65.2546C63.9918 315.92 62.7691 315.472 61.8079 314.653C60.8468 313.834 60.2108 312.698 60.0152 311.45L56.2047 285.7Z" fill="#484646"/>
<path d="M83.8907 316.704H65.2551C63.8111 316.699 62.4167 316.176 61.3246 315.232C60.2324 314.287 59.5146 312.982 59.3012 311.554L55.4908 285.819C55.4748 285.713 55.4811 285.606 55.5094 285.504C55.5376 285.401 55.587 285.305 55.6545 285.223C55.7255 285.142 55.8123 285.077 55.9096 285.031C56.0069 284.985 56.1125 284.959 56.2201 284.955H92.9555C93.0631 284.959 93.1687 284.985 93.266 285.031C93.3633 285.077 93.4501 285.142 93.5211 285.223C93.5886 285.305 93.638 285.401 93.6662 285.504C93.6945 285.606 93.7008 285.713 93.6848 285.819L89.8893 311.554C89.6718 312.989 88.9467 314.298 87.8459 315.243C86.7451 316.188 85.3416 316.706 83.8907 316.704ZM57.0983 286.444L60.7748 311.331C60.9372 312.403 61.4755 313.382 62.2936 314.094C63.1116 314.806 64.156 315.203 65.2402 315.216H83.8759C84.9601 315.203 86.0045 314.806 86.8225 314.094C87.6405 313.382 88.1789 312.403 88.3413 311.331L92.0178 286.444H57.0983Z" fill="#484646"/>
</svg>
