<svg width="150" height="150" viewBox="0 0 150 150" fill="none" xmlns="http://www.w3.org/2000/svg">
<g clip-path="url(#clip0_1233_27099)">
<path d="M74.0978 121.043H69.104V82.7203H73.1653C73.362 82.7203 73.5508 82.798 73.6902 82.9363C73.8296 83.0747 73.9085 83.2625 73.9095 83.4586L74.0978 121.043Z" fill="#CCCCCC"/>
<path d="M69.5711 121.246H15.9434V93.9535H69.5711V121.246Z" fill="white"/>
<path d="M48.4335 121.144H16.0449V94.055H69.4691V100.17C69.4628 105.731 67.2445 111.062 63.3009 114.994C59.3574 118.926 54.0106 121.138 48.4335 121.144Z" fill="#F2F2F2"/>
<path d="M73.2844 83.8089C73.2575 83.8597 73.2366 83.9135 73.2221 83.9692L71.3729 91.0762L69.367 94.8639H16.1465V93.9205L19.1765 91.0762L22.7112 84.335C22.8672 84.0374 23.0721 83.7679 23.3174 83.5378C23.8771 83.0127 24.6166 82.7203 25.3851 82.7203H72.6265C72.7547 82.7203 72.8808 82.7534 72.9925 82.8163C73.1041 82.8792 73.1976 82.9698 73.2638 83.0793C73.33 83.1888 73.3667 83.3136 73.3703 83.4414C73.3739 83.5692 73.3443 83.6958 73.2844 83.8089Z" fill="#F2F2F2"/>
<path d="M69.5711 121.246H15.9434V93.9535H69.5711V121.246ZM16.3505 120.84H69.164V94.3594H16.3505V120.84Z" fill="#E6E6E6"/>
<path d="M72.361 87.4446L71.373 91.0763H19.1768L20.8634 88.0535L72.361 87.4446Z" fill="#CCCCCC"/>
<path d="M26.4697 108.255H17.9209V108.727H26.4697V108.255Z" fill="white"/>
<path d="M26.4697 109.906H17.9209V110.378H26.4697V109.906Z" fill="white"/>
<path d="M26.4697 111.557H17.9209V112.028H26.4697V111.557Z" fill="white"/>
<path d="M21.2322 103.001C22.9304 103.001 24.3072 101.628 24.3072 99.9346C24.3072 98.2413 22.9304 96.8686 21.2322 96.8686C19.5339 96.8686 18.1572 98.2413 18.1572 99.9346C18.1572 101.628 19.5339 103.001 21.2322 103.001Z" fill="white"/>
<path d="M54.9343 89.0166H52.3228V68.9758H54.4466C54.5495 68.9758 54.6482 69.0164 54.7211 69.0887C54.794 69.1611 54.8353 69.2593 54.8358 69.3618L54.9343 89.0166Z" fill="#CCCCCC"/>
<path d="M52.5668 89.1227H24.522V74.8502H52.5668V89.1227Z" fill="white"/>
<path d="M41.5129 89.0696H24.5752V74.9033H52.5136V78.1011C52.5103 81.0091 51.3502 83.7971 49.2879 85.8534C47.2256 87.9096 44.4295 89.0663 41.5129 89.0696Z" fill="#F2F2F2"/>
<path d="M54.5089 69.5451C54.4948 69.5717 54.4839 69.5998 54.4763 69.6289L53.5092 73.3456L52.4603 75.3263H24.6284V74.833L26.213 73.3456L28.0614 69.8202C28.143 69.6646 28.2502 69.5237 28.3785 69.4033C28.6712 69.1287 29.0579 68.9758 29.4598 68.9758H54.1648C54.2319 68.9758 54.2978 68.9931 54.3562 69.026C54.4146 69.0589 54.4635 69.1063 54.4981 69.1636C54.5327 69.2208 54.5519 69.2861 54.5538 69.3529C54.5557 69.4198 54.5402 69.486 54.5089 69.5451Z" fill="#F2F2F2"/>
<path d="M52.5668 89.1227H24.522V74.8502H52.5668V89.1227ZM24.7349 88.9104H52.3539V75.0625H24.7349V88.9104Z" fill="#E6E6E6"/>
<path d="M54.0262 71.4464L53.5096 73.3454H26.2134L27.0954 71.7646L54.0262 71.4464Z" fill="#CCCCCC"/>
<path d="M30.0268 82.3292H25.5562V82.5759H30.0268V82.3292Z" fill="white"/>
<path d="M30.0268 83.1926H25.5562V83.4392H30.0268V83.1926Z" fill="white"/>
<path d="M30.0268 84.0559H25.5562V84.3026H30.0268V84.0559Z" fill="white"/>
<path d="M27.2882 79.5814C28.1763 79.5814 28.8963 78.8636 28.8963 77.9781C28.8963 77.0925 28.1763 76.3747 27.2882 76.3747C26.4001 76.3747 25.6802 77.0925 25.6802 77.9781C25.6802 78.8636 26.4001 79.5814 27.2882 79.5814Z" fill="white"/>
<path d="M140 121.196C140 121.228 139.994 121.259 139.982 121.289C139.97 121.318 139.952 121.345 139.929 121.367C139.907 121.389 139.88 121.407 139.851 121.419C139.821 121.431 139.79 121.438 139.758 121.437H10.2422C10.178 121.437 10.1164 121.412 10.0709 121.367C10.0255 121.321 10 121.26 10 121.196C10 121.132 10.0255 121.07 10.0709 121.025C10.1164 120.98 10.178 120.954 10.2422 120.954H139.758C139.79 120.954 139.821 120.961 139.851 120.973C139.88 120.985 139.907 121.003 139.929 121.025C139.952 121.047 139.97 121.074 139.982 121.103C139.994 121.133 140 121.164 140 121.196Z" fill="#CCCCCC"/>
<path d="M110.623 59.4018L106.916 58.8723C105.662 60.9627 105.216 66.5267 105.216 66.5267L101.588 75.1247C101.348 75.2874 101.155 75.5104 101.028 75.7711C100.902 76.0319 100.847 76.3212 100.868 76.6101C100.89 76.8989 100.987 77.177 101.151 77.4163C101.314 77.6557 101.538 77.8479 101.8 77.9736C102.061 78.0993 102.351 78.1541 102.641 78.1324C102.931 78.1107 103.21 78.0133 103.449 77.85C103.689 77.6867 103.882 77.4633 104.008 77.2022C104.133 76.9411 104.188 76.6517 104.166 76.3629L110.123 66.3552L110.623 59.4018Z" fill="#FFB8B8"/>
<path d="M110.033 49.1399C110.607 49.2285 111.154 49.4421 111.635 49.7655C112.117 50.0889 112.521 50.5142 112.819 51.0111C113.117 51.5079 113.302 52.0642 113.36 52.6403C113.417 53.2163 113.347 53.798 113.154 54.344L112.367 56.5673C112.367 56.5673 111.939 63.2617 110.306 65.1513L105.295 64.699C105.295 64.699 106.211 61.3216 105.507 59.6875C105.077 58.6867 105.101 55.2302 105.525 52.4184C105.605 51.9078 105.784 51.4178 106.054 50.9766C106.324 50.5353 106.678 50.1514 107.097 49.8469C107.516 49.5424 107.99 49.3232 108.494 49.2019C108.998 49.0806 109.521 49.0595 110.033 49.1399Z" fill="#E6E6E6"/>
<path d="M122.284 118.602L120.051 118.602L118.989 110.013L122.285 110.014L122.284 118.602Z" fill="#FFB6B6"/>
<path d="M122.363 120.925L115.496 120.925V120.838C115.496 120.131 115.778 119.453 116.279 118.954C116.78 118.454 117.46 118.173 118.169 118.173H118.169L119.423 117.224L121.764 118.173L122.363 118.173L122.363 120.925Z" fill="#2F2E41"/>
<path d="M112.576 107.958L110.513 108.811L106.232 101.283L109.277 100.025L112.576 107.958Z" fill="#FFB6B6"/>
<path d="M113.541 110.074L107.198 112.696L107.164 112.616C106.893 111.963 106.892 111.23 107.163 110.577C107.434 109.923 107.955 109.404 108.609 109.134L108.61 109.134L109.404 107.778L111.93 107.761L112.484 107.532L113.541 110.074Z" fill="#2F2E41"/>
<path d="M124.838 69.7465L108.99 71.3974L106.87 78.5165L99.5283 90.2802L107.634 105.13L110.489 102.575L107.749 90.5838L115.928 81.7799L117.478 81.1383L118.71 113.807L123.263 113.882L125.256 77.8336C126.213 74.6491 125.925 72.0198 124.838 69.7465Z" fill="#2F2E41"/>
<path d="M119.027 47.2091L116.426 44.2886L112.316 44.744L109.684 48.416C108.283 48.7371 107.059 49.5812 106.264 50.7748C105.468 51.9683 105.162 53.4204 105.407 54.8324C106.429 60.6955 109.899 66.3819 108.753 69.2748C107.014 73.6661 106.907 75.457 111.071 74.8414C115.235 74.2257 129.185 72.8064 126.48 70.1098C123.776 67.4131 123.182 62.907 123.182 62.907L123.073 52.5976C123.188 51.9758 123.173 51.337 123.028 50.7214C122.884 50.1058 122.613 49.5267 122.233 49.0206C121.853 48.5145 121.372 48.0922 120.82 47.7805C120.268 47.4687 119.658 47.2742 119.027 47.2091L119.027 47.2091Z" fill="#E6E6E6"/>
<path d="M113.944 43.5413C116.464 43.5413 118.507 41.5045 118.507 38.992C118.507 36.4795 116.464 34.4427 113.944 34.4427C111.424 34.4427 109.381 36.4795 109.381 38.992C109.381 41.5045 111.424 43.5413 113.944 43.5413Z" fill="#FFB8B8"/>
<path d="M119.566 38.7219C119.362 39.6436 118.995 40.5216 118.481 41.3142C118.344 41.5845 118.141 41.8153 117.889 41.9843C117.762 42.0659 117.609 42.1002 117.459 42.0815C117.309 42.0628 117.17 41.9922 117.067 41.8819L116.956 41.7917C117.173 41.658 117.368 41.4898 117.531 41.2937C117.612 41.1953 117.668 41.0791 117.695 40.9547C117.722 40.8303 117.719 40.7014 117.685 40.5785C117.646 40.4574 117.561 40.3562 117.448 40.2962C117.336 40.2362 117.204 40.2221 117.081 40.2568C116.814 40.3613 116.652 40.7466 116.372 40.6872C116.146 40.638 116.099 40.3408 116.099 40.1072C116.107 38.8858 115.515 37.1501 115.057 37.2034C114.594 37.2286 114.13 37.1668 113.69 37.021C113.249 36.875 112.784 36.8158 112.321 36.8468C112.288 36.8509 112.255 36.8571 112.22 36.8632C112.146 36.6311 112.044 36.4089 111.916 36.2013C111.931 36.4519 111.918 36.7033 111.879 36.9513C111.511 37.1028 111.13 37.2228 110.741 37.3099C110.317 37.3694 109.386 38.6317 109.343 38.5026C109.269 38.2706 109.167 38.0483 109.039 37.8407C109.053 38.0913 109.041 38.3427 109.002 38.5907C109 38.601 109 38.6092 108.998 38.6194C108.792 38.3469 108.667 38.0149 108.737 38.269C108.048 36.7157 108.315 35.6029 109.399 34.2934C109.61 34.0118 109.889 33.7883 110.21 33.6438C110.371 33.5733 110.548 33.5453 110.723 33.5625C110.898 33.5798 111.065 33.6416 111.209 33.7422C111.651 33.3383 112.193 33.0596 112.779 32.9349C113.365 32.8103 113.974 32.8442 114.543 33.0331C115.671 33.4245 116.541 33.654 116.713 34.8344C117.646 34.6848 118.606 35.2135 119.12 36.0025C119.632 36.7935 119.737 37.7977 119.566 38.7219Z" fill="#2F2E41"/>
<path d="M115.866 76.5078H114.352V64.8869H115.583C115.643 64.8869 115.7 64.9105 115.742 64.9524C115.785 64.9943 115.808 65.0513 115.809 65.1108L115.866 76.5078Z" fill="#3F3D56"/>
<path d="M114.493 76.5694H98.231V68.2933H114.493V76.5694Z" fill="white"/>
<path d="M108.083 76.5386H98.2617V68.324H114.462V70.1784C114.46 71.8646 113.788 73.4813 112.592 74.6736C111.396 75.866 109.774 76.5367 108.083 76.5386Z" fill="#03DAC5"/>
<path d="M115.619 65.2171C115.611 65.2325 115.605 65.2488 115.6 65.2657L115.039 67.4208L114.431 68.5694H98.2925V68.2833L99.2113 67.4208L100.283 65.3766C100.33 65.2863 100.393 65.2046 100.467 65.1349C100.637 64.9756 100.861 64.887 101.094 64.887H115.42C115.458 64.887 115.497 64.897 115.531 64.9161C115.564 64.9351 115.593 64.9626 115.613 64.9958C115.633 65.029 115.644 65.0669 115.645 65.1056C115.646 65.1444 115.637 65.1828 115.619 65.2171Z" fill="#3F3D56"/>
<path d="M114.493 76.5694H98.231V68.2933H114.493V76.5694ZM98.3544 76.4463H114.37V68.4164H98.3544V76.4463Z" fill="#3F3D56"/>
<path d="M115.339 66.3194L115.04 67.4208H99.2114L99.7227 66.5041L115.339 66.3194Z" fill="#03DAC5"/>
<path d="M101.423 72.6301H98.8306V72.7731H101.423V72.6301Z" fill="white"/>
<path d="M101.423 73.1307H98.8306V73.2738H101.423V73.1307Z" fill="white"/>
<path d="M101.423 73.6313H98.8306V73.7744H101.423V73.6313Z" fill="white"/>
<path d="M99.8348 71.0367C100.35 71.0367 100.767 70.6205 100.767 70.107C100.767 69.5935 100.35 69.1772 99.8348 69.1772C99.3198 69.1772 98.9023 69.5935 98.9023 70.107C98.9023 70.6205 99.3198 71.0367 99.8348 71.0367Z" fill="white"/>
<path d="M122.193 58.3393L118.485 57.8098C117.232 59.9002 116.786 65.4642 116.786 65.4642L113.158 74.0622C112.918 74.2249 112.725 74.4479 112.598 74.7086C112.472 74.9694 112.417 75.2587 112.438 75.5476C112.46 75.8364 112.557 76.1145 112.72 76.3538C112.884 76.5932 113.108 76.7854 113.369 76.9111C113.631 77.0368 113.921 77.0916 114.211 77.0699C114.501 77.0482 114.779 76.9508 115.019 76.7875C115.259 76.6242 115.452 76.4008 115.577 76.1397C115.703 75.8786 115.758 75.5892 115.736 75.3004L121.693 65.2927L122.193 58.3393Z" fill="#FFB8B8"/>
<path d="M120.183 48.0774C120.757 48.166 121.304 48.3796 121.786 48.7031C122.268 49.0265 122.672 49.4517 122.97 49.9486C123.268 50.4455 123.452 51.0017 123.51 51.5778C123.568 52.1538 123.498 52.7355 123.305 53.2815L122.518 55.5048C122.518 55.5048 123.509 62.1992 121.876 64.0888L116.864 63.6365C116.864 63.6365 117.781 60.2591 117.077 58.625C116.646 57.6242 116.67 54.1677 117.095 51.3559C117.419 49.2089 118.031 47.7451 120.183 48.0774Z" fill="#E6E6E6"/>
<path d="M20.9549 100.204C21.7891 100.204 22.4654 99.5292 22.4654 98.6974C22.4654 97.8656 21.7891 97.1913 20.9549 97.1913C20.1206 97.1913 19.4443 97.8656 19.4443 98.6974C19.4443 99.5292 20.1206 100.204 20.9549 100.204Z" fill="#D1D3D4"/>
<path d="M49.3789 44.7263C48.8519 44.7607 48.3592 44.9987 48.0056 45.3898C47.652 45.7809 47.4654 46.294 47.4855 46.8202C47.4913 46.9271 47.5059 47.0333 47.5293 47.1378L41.5454 50.8966L44.8536 52.3554L50.0288 48.5624C50.4558 48.4323 50.8276 48.1649 51.0861 47.802C51.3447 47.4391 51.4755 47.001 51.4581 46.5562C51.4458 46.3032 51.3836 46.0551 51.2751 45.826C51.1666 45.5969 51.0139 45.3914 50.8258 45.2212C50.6376 45.051 50.4177 44.9194 50.1785 44.8339C49.9394 44.7484 49.6857 44.7107 49.4319 44.723C49.4142 44.7239 49.3965 44.725 49.3789 44.7263Z" fill="#FFB6B6"/>
<path d="M43.6086 49.1881L45.0916 52.2391L39.2279 56.0014C38.8107 56.2714 38.3311 56.4306 37.8349 56.4637C37.3386 56.4969 36.842 56.4029 36.3924 56.1908C35.8458 55.9299 35.399 55.4989 35.1194 54.9628C34.8398 54.4267 34.7426 53.8145 34.8423 53.2185L36.745 42.3879C36.8727 41.63 37.2869 40.9497 37.9023 40.4869C38.5177 40.0242 39.2875 39.8141 40.0535 39.9C40.4266 39.9407 40.788 40.0542 41.1171 40.2341C41.4461 40.4141 41.7365 40.6569 41.9714 40.9487C42.2064 41.2405 42.3814 41.5756 42.4865 41.9348C42.5916 42.2941 42.6247 42.6704 42.5839 43.0424C42.5806 43.0718 42.577 43.1012 42.5728 43.1304C42.5584 43.2345 42.5384 43.3377 42.5129 43.4396L40.4358 51.1422L43.6086 49.1881Z" fill="#03DAC5"/>
<path d="M44.0255 53.9178H35.6396V62.2792H44.0255V53.9178Z" fill="#FFB8B8"/>
<path d="M63.9121 78.5425L67.1147 77.4683L68.8982 86.1603L66.728 86.8881L63.9121 78.5425Z" fill="#FFB6B6"/>
<path d="M58.4839 77.8746L61.6607 76.7263L63.6465 85.3745L61.494 86.1524L58.4839 77.8746Z" fill="#FFB6B6"/>
<path d="M35.9401 64.4635C34.2593 75.636 56.6418 69.0306 56.6418 69.0306L63.6596 78.6835L67.7682 77.9386C67.7682 77.9386 65.9195 72.1438 62.6179 64.3755C61.1517 60.9256 44.5029 61.7686 44.5029 61.7686L44.1572 59.0635L34.6328 58.8773L35.9401 64.4635Z" fill="#2F2E41"/>
<path d="M52.1079 69.7796L57.2836 66.5656C61.0726 74.1095 62.1895 77.3767 62.1895 77.3767L58.6074 78.3811L52.1079 69.7796Z" fill="#2F2E41"/>
<path d="M40.7309 40.3307L39.043 38.1675L36.6352 38.0634L36.3949 40.098L35.2019 40.6465C34.0107 45.1589 33.8267 49.877 34.6629 54.468C34.8228 54.6181 34.9397 54.808 35.0014 55.0182C35.0631 55.2283 35.0675 55.4511 35.014 55.6635L34.9367 55.9709L34.9438 55.9822C35.1977 56.3816 35.2838 56.8645 35.1836 57.3267L34.6139 58.3361C34.4094 58.6991 34.2867 59.1021 34.2543 59.5172C34.2219 59.9323 34.2806 60.3494 34.4262 60.7396C34.5718 61.1298 34.801 61.4837 35.0977 61.7766C35.3944 62.0696 35.7515 62.2946 36.1442 62.436C39.6464 63.7017 42.9293 64.1731 45.358 60.6214L46.1217 48.2441L40.7309 40.3307Z" fill="#03DAC5"/>
<path d="M38.9625 38.7419C41.4212 38.7419 43.4143 36.7546 43.4143 34.3031C43.4143 31.8517 41.4212 29.8644 38.9625 29.8644C36.5039 29.8644 34.5107 31.8517 34.5107 34.3031C34.5107 36.7546 36.5039 38.7419 38.9625 38.7419Z" fill="#FFB8B8"/>
<path d="M36.7279 28.9523C34.843 28.9884 33.348 30.7317 33.3887 32.8461C31.9938 34.2973 31.6559 41.4354 32.8215 43.3343C34.9535 43.5811 36.2504 38.3216 38.1202 39.0819L38.3665 37.9341L38.9249 39.4289C39.4001 39.6473 39.8717 39.887 40.3397 40.1481C40.676 38.61 40.5926 37.1148 39.6886 35.8125C38.8856 34.6556 40.8399 33.282 42.2375 33.4762L42.2171 32.4136L42.5681 33.4698C43.1129 33.869 43.7156 33.7245 44.3336 33.436C45.3357 28.2428 37.5769 26.8226 36.7279 28.9523Z" fill="#2F2E41"/>
<path d="M65.7417 88.3583L67.1685 88.1725L67.2473 86.7961L68.0755 88.0543L71.86 87.5614C72.0414 87.5378 72.2104 87.457 72.3425 87.3308C72.4746 87.2046 72.5628 87.0396 72.5941 86.8599C72.6255 86.6802 72.5984 86.4952 72.5168 86.3319C72.4353 86.1686 72.3035 86.0356 72.1408 85.9523L68.846 84.2648L68.6681 82.9069L65.5142 83.51L65.7417 88.3583Z" fill="#2F2E41"/>
<path d="M61.9731 88.3707L63.2675 87.744L62.9052 86.4136L64.0904 87.3456L67.5236 85.6834C67.6882 85.6037 67.8229 85.4737 67.9081 85.3123C67.9933 85.1509 68.0245 84.9665 67.9972 84.7862C67.9699 84.6058 67.8855 84.4389 67.7563 84.3097C67.627 84.1806 67.4598 84.096 67.279 84.0684L63.6179 83.5078L63.0179 82.2759L60.2178 83.8437L61.9731 88.3707Z" fill="#2F2E41"/>
<path d="M42.4316 58.771H44.0189V46.5903H42.728C42.6655 46.5903 42.6055 46.6149 42.5612 46.6589C42.5169 46.7029 42.4918 46.7626 42.4915 46.8249L42.4316 58.771Z" fill="#CCCCCC"/>
<path d="M43.8706 50.1607H60.9162V58.8355H43.8706V50.1607Z" fill="white"/>
<path d="M43.9033 52.1366V50.193H60.8842V58.8033H50.5895C48.8168 58.8013 47.1173 58.0982 45.8639 56.8484C44.6104 55.5986 43.9053 53.9041 43.9033 52.1366Z" fill="#F2F2F2"/>
<path d="M42.6905 46.9363C42.699 46.9524 42.7057 46.9695 42.7103 46.9872L43.2981 49.2462L43.9356 50.4501H60.8518V50.1503L59.8887 49.2462L58.7652 47.1035C58.7156 47.0089 58.6504 46.9232 58.5725 46.8501C58.3946 46.6832 58.1595 46.5903 57.9153 46.5903H42.8996C42.8588 46.5903 42.8188 46.6008 42.7833 46.6208C42.7478 46.6408 42.7181 46.6696 42.697 46.7044C42.676 46.7392 42.6643 46.7788 42.6632 46.8195C42.662 46.8601 42.6714 46.9003 42.6905 46.9363Z" fill="#F2F2F2"/>
<path d="M43.8706 50.1607H60.9162V58.8355H43.8706V50.1607ZM60.7868 58.7065H44V50.2897H60.7868L60.7868 58.7065Z" fill="#E6E6E6"/>
<path d="M42.9839 48.0918L43.298 49.2462H59.8885L59.3524 48.2854L42.9839 48.0918Z" fill="#CCCCCC"/>
<path d="M60.288 54.7064H57.5708V54.8563H60.288V54.7064Z" fill="white"/>
<path d="M60.288 55.2311H57.5708V55.3811H60.288V55.2311Z" fill="white"/>
<path d="M60.288 55.7559H57.5708V55.9058H60.288V55.7559Z" fill="white"/>
<path d="M59.2352 53.0363C59.775 53.0363 60.2126 52.6 60.2126 52.0618C60.2126 51.5236 59.775 51.0873 59.2352 51.0873C58.6954 51.0873 58.2578 51.5236 58.2578 52.0618C58.2578 52.6 58.6954 53.0363 59.2352 53.0363Z" fill="white"/>
<path d="M52.3289 52.9717C52.8401 52.9717 53.2545 52.5585 53.2545 52.0488C53.2545 51.5392 52.8401 51.126 52.3289 51.126C51.8177 51.126 51.4033 51.5392 51.4033 52.0488C51.4033 52.5585 51.8177 52.9717 52.3289 52.9717Z" fill="#D1D3D4"/>
<path d="M48.8335 49.0535C48.3068 49.0146 47.7858 49.1822 47.3811 49.5205C46.9765 49.8588 46.7203 50.3412 46.6669 50.865C46.6577 50.9717 46.6574 51.0789 46.666 51.1856L40.2168 54.0797L43.2898 55.9824L48.943 52.9423C49.384 52.8726 49.7894 52.6593 50.096 52.3357C50.4026 52.0121 50.5931 51.5964 50.6378 51.1535C50.6843 50.644 50.5259 50.1369 50.1975 49.7438C49.869 49.3508 49.3974 49.1039 48.8864 49.0576C48.8688 49.056 48.8511 49.0546 48.8335 49.0535Z" fill="#FFB6B6"/>
<path d="M42.4977 52.6734L43.5416 55.9001L37.2108 58.8144C36.76 59.024 36.263 59.1153 35.7669 59.0794C35.2708 59.0435 34.7921 58.8818 34.3764 58.6095C33.8714 58.2755 33.4889 57.7868 33.2867 57.2172C33.0844 56.6476 33.0734 56.0279 33.2551 55.4514L36.6473 44.989C36.8793 44.2561 37.3842 43.6397 38.058 43.2666C38.7319 42.8935 39.5235 42.7921 40.2701 42.9831C40.6339 43.0751 40.976 43.2375 41.2769 43.4613C41.5777 43.685 41.8314 43.9656 42.0235 44.2871C42.2155 44.6086 42.3422 44.9647 42.3963 45.335C42.4503 45.7053 42.4307 46.0826 42.3385 46.4454C42.3312 46.474 42.3235 46.5026 42.3153 46.531C42.2866 46.6321 42.2524 46.7315 42.2129 46.8289L39.0835 54.1694L42.4977 52.6734Z" fill="#03DAC5"/>
</g>
<defs>
<clipPath id="clip0_1233_27099">
<rect width="130" height="93.4375" fill="white" transform="translate(10 28)"/>
</clipPath>
</defs>
</svg>
