<svg width="400" height="400" viewBox="0 0 400 400" fill="none" xmlns="http://www.w3.org/2000/svg">
<path d="M292.024 196.809H313.856C315.957 192.485 316.384 187.471 316.505 182.599C316.617 178.184 316.505 173.688 315.166 169.486C313.42 164.1 309.684 159.584 304.721 156.86C299.757 154.136 293.942 153.41 288.461 154.829C287.103 153.247 285.287 152.126 283.264 151.622C281.326 151.205 275.571 151.764 275.51 153.743C275.534 154.363 275.724 154.966 276.058 155.489C278.037 159.204 281.133 162.208 283.569 165.639C289.303 173.525 290.278 185.969 292.024 196.809Z" fill="white"/>
<path d="M313.856 197.317H292.024C291.903 197.316 291.786 197.274 291.693 197.196C291.6 197.118 291.538 197.01 291.516 196.891C291.252 195.196 290.999 193.46 290.735 191.714C289.354 182.264 287.923 172.49 283.153 165.933C282.29 164.746 281.326 163.578 280.402 162.442C278.587 160.38 276.983 158.142 275.611 155.763C275.232 155.152 275.022 154.451 275.002 153.733C275.017 153.462 275.094 153.198 275.228 152.962C275.362 152.726 275.549 152.524 275.774 152.373C277.458 151.043 281.711 150.769 283.376 151.124C285.397 151.628 287.223 152.719 288.623 154.261C293.819 153.032 299.279 153.634 304.082 155.966C306.799 157.316 309.221 159.193 311.205 161.488C313.19 163.783 314.698 166.45 315.643 169.333C317.033 173.607 317.125 178.245 317.013 182.62C316.891 187.461 316.475 192.557 314.313 197.002C314.276 197.093 314.213 197.172 314.132 197.228C314.05 197.283 313.955 197.314 313.856 197.317ZM292.45 196.302H313.542C315.501 192.1 315.876 187.248 315.998 182.62C316.13 177.667 315.998 173.576 314.679 169.678C312.966 164.421 309.313 160.016 304.464 157.36C299.614 154.704 293.935 153.999 288.583 155.387C288.495 155.41 288.402 155.409 288.315 155.384C288.227 155.359 288.148 155.311 288.086 155.245C286.804 153.74 285.082 152.675 283.163 152.2C281.721 151.886 277.763 152.2 276.393 153.215C276.027 153.51 276.017 153.733 276.017 153.804C276.055 154.334 276.222 154.846 276.504 155.296C277.85 157.614 279.417 159.796 281.184 161.812C282.117 162.949 283.092 164.137 283.975 165.355C288.887 172.104 290.339 182.001 291.74 191.572C291.973 193.166 292.206 194.749 292.45 196.302Z" fill="#484646"/>
<path d="M315.958 152.972C318.688 150.81 321.307 148.394 324.504 147.034C324.764 146.89 325.061 146.827 325.357 146.851C325.636 146.918 325.883 147.08 326.057 147.308C326.45 147.806 326.719 148.391 326.841 149.014C326.963 149.638 326.934 150.281 326.757 150.891C326.391 152.108 325.791 153.242 324.991 154.23C322.941 157.028 320.528 159.54 317.815 161.701C316.043 163.257 313.929 164.373 311.644 164.959C308.518 165.598 301.331 162.523 304.539 158.331C305.452 157.133 307.584 157.316 308.842 156.981C311.455 156.126 313.873 154.764 315.958 152.972Z" fill="white"/>
<path d="M310.71 165.537C308.314 165.537 305.026 164.218 303.757 162.208C303.347 161.566 303.159 160.806 303.224 160.047C303.288 159.287 303.6 158.57 304.112 158.006C304.884 156.991 306.224 156.839 307.401 156.686C307.832 156.645 308.259 156.574 308.68 156.473C311.233 155.631 313.597 154.3 315.643 152.555L317.175 151.327C319.312 149.419 321.703 147.817 324.28 146.567C324.631 146.387 325.026 146.313 325.417 146.354C325.818 146.433 326.178 146.653 326.432 146.973C326.885 147.534 327.196 148.196 327.337 148.903C327.479 149.61 327.447 150.341 327.244 151.033C326.856 152.315 326.225 153.511 325.387 154.555C323.314 157.39 320.87 159.933 318.119 162.117C316.284 163.721 314.097 164.872 311.735 165.476C311.397 165.534 311.053 165.554 310.71 165.537ZM316.272 153.357C314.12 155.173 311.634 156.553 308.954 157.417C308.487 157.535 308.012 157.616 307.533 157.661C306.518 157.793 305.432 157.925 304.924 158.585C304.545 158.987 304.309 159.504 304.254 160.055C304.199 160.606 304.327 161.16 304.62 161.63C305.818 163.548 309.543 164.817 311.542 164.411C313.748 163.84 315.789 162.758 317.5 161.254C320.185 159.12 322.574 156.638 324.605 153.875C325.364 152.94 325.936 151.869 326.29 150.718C326.447 150.188 326.476 149.628 326.374 149.084C326.271 148.54 326.041 148.029 325.701 147.592C325.6 147.457 325.457 147.357 325.295 147.308C325.097 147.307 324.902 147.355 324.727 147.45C322.213 148.672 319.88 150.236 317.795 152.099L316.292 153.317L316.272 153.357Z" fill="#484646"/>
<path d="M158.368 131.027C156.744 123.739 154.583 116.523 153.933 109.083C153.283 101.643 154.298 93.7564 158.521 87.6055C160.111 85.0358 162.527 83.082 165.372 82.0636C167.869 81.3023 172.152 82.703 172.152 82.703C174.224 81.1884 176.376 79.7857 178.597 78.5009C183.337 76.136 188.747 75.2732 193.954 74.7657C201.435 74.0451 210.103 74.4308 214.853 80.2467C218.345 84.5199 218.649 90.4779 218.791 95.9894L219.167 110.118" fill="white"/>
<path d="M158.368 131.535C158.249 131.533 158.134 131.491 158.042 131.415C157.95 131.34 157.886 131.235 157.861 131.119C157.435 129.221 156.978 127.312 156.511 125.414C155.066 120.064 154.032 114.611 153.415 109.103C152.888 103.013 153.263 94.3147 158.094 87.2807C159.747 84.6196 162.251 82.5951 165.199 81.5358C167.483 80.8456 171.046 81.8099 172.03 82.1042C174.058 80.6354 176.166 79.28 178.344 78.0442C183.348 75.5575 189.011 74.7353 193.883 74.2684C204.307 73.2534 211.291 75.1109 215.198 79.9423C218.954 84.5301 219.126 91.158 219.258 95.9894L219.735 110.088C219.738 110.226 219.687 110.36 219.592 110.461C219.497 110.561 219.366 110.62 219.228 110.626C219.159 110.628 219.09 110.617 219.026 110.593C218.961 110.569 218.902 110.532 218.852 110.485C218.802 110.438 218.762 110.381 218.734 110.318C218.706 110.255 218.691 110.187 218.69 110.118L218.314 95.9793C218.162 90.1329 217.756 84.5504 214.498 80.5614C210.793 76.0244 204.104 74.2887 194.056 75.2631C189.275 75.73 183.733 76.5319 178.831 78.9476C176.634 80.2207 174.506 81.6098 172.457 83.1091C172.39 83.1571 172.313 83.1886 172.232 83.201C172.151 83.2133 172.068 83.2062 171.99 83.1801C171.99 83.1801 167.828 81.8403 165.524 82.5407C162.806 83.5463 160.497 85.4236 158.957 87.8796C154.298 94.6598 153.943 103.105 154.461 109.012C155.064 114.468 156.082 119.87 157.506 125.171C157.962 127.079 158.429 128.977 158.856 130.895C158.871 130.962 158.872 131.031 158.86 131.098C158.849 131.165 158.824 131.23 158.787 131.287C158.75 131.345 158.702 131.395 158.646 131.434C158.59 131.473 158.527 131.5 158.46 131.514L158.368 131.535Z" fill="#484646"/>
<path d="M239.487 325.623C234.412 232.142 242.451 197.327 238.472 187.705C229.043 165.05 173.786 157.63 173.786 157.63C173.786 157.63 113.993 157.326 100.706 188.984C97.3772 196.941 74.3163 252.178 72.0529 286.261C70.9059 303.303 88.6278 299.862 104.056 301.293V325.653L239.487 325.623Z" fill="#FF931E"/>
<path d="M202.267 199.793L197.73 206.026L215.442 280.344L204.957 301.446L189.57 280.344L191.732 206.584L185.124 198.981L194.634 191.45L202.267 199.793Z" fill="white"/>
<path d="M204.957 301.963C204.874 301.963 204.793 301.944 204.719 301.907C204.645 301.87 204.581 301.816 204.531 301.75L189.153 280.648C189.08 280.557 189.044 280.441 189.052 280.324L191.204 206.767L184.728 199.316C184.682 199.264 184.646 199.203 184.623 199.137C184.601 199.071 184.591 199.001 184.596 198.931C184.616 198.788 184.688 198.658 184.799 198.565L194.31 191.044C194.412 190.96 194.543 190.919 194.675 190.928C194.807 190.937 194.931 190.997 195.02 191.095L202.653 199.438C202.73 199.531 202.772 199.648 202.772 199.768C202.772 199.889 202.73 200.005 202.653 200.098L198.299 206.137L215.949 280.232C215.995 280.346 215.995 280.474 215.949 280.588L205.424 301.679C205.384 301.76 205.324 301.829 205.249 301.879C205.174 301.929 205.087 301.958 204.998 301.963H204.957ZM190.097 280.232L204.866 300.532L214.884 280.374L197.223 206.279C197.207 206.206 197.207 206.13 197.222 206.056C197.238 205.983 197.269 205.914 197.314 205.853L201.597 199.966L194.574 192.293L185.875 199.032L192.127 206.218C192.217 206.315 192.264 206.443 192.259 206.574L190.097 280.232Z" fill="#484646"/>
<path d="M207.931 162.239L210.337 177.87C210.337 177.87 206.784 194.84 189.58 190.851C184.558 189.681 179.864 187.394 175.847 184.161C171.83 180.928 168.593 176.831 166.377 172.175L164.448 135.828C164.448 135.828 177.105 128.916 173.106 101.318C173.106 101.318 192.27 110.585 217.766 107.104C217.766 107.104 223.856 135.524 221.948 148.83C220.04 162.137 207.931 162.239 207.931 162.239Z" fill="white"/>
<path d="M194.574 191.978C192.864 191.965 191.161 191.757 189.499 191.359C184.406 190.146 179.648 187.812 175.573 184.527C171.497 181.241 168.206 177.087 165.94 172.368C165.93 172.311 165.93 172.253 165.94 172.196L163.91 135.848C163.905 135.751 163.929 135.654 163.977 135.57C164.026 135.485 164.098 135.416 164.184 135.371C164.306 135.3 176.476 128.266 172.578 101.399C172.569 101.305 172.584 101.21 172.621 101.123C172.658 101.036 172.717 100.96 172.792 100.902C172.873 100.855 172.966 100.83 173.061 100.83C173.155 100.83 173.248 100.855 173.33 100.902C187.351 106.716 202.67 108.682 217.705 106.596C217.837 106.578 217.97 106.609 218.079 106.684C218.188 106.759 218.265 106.873 218.294 107.002C218.538 108.169 224.384 135.656 222.476 148.912C220.75 160.777 211.057 162.492 208.57 162.726L210.895 177.788C210.905 177.852 210.905 177.917 210.895 177.981C210.824 178.296 209.21 185.685 203.039 189.623C200.508 191.219 197.565 192.037 194.574 191.978ZM166.895 172.054C169.101 176.601 172.293 180.6 176.238 183.76C180.183 186.92 184.782 189.162 189.702 190.324C194.675 191.481 198.968 190.943 202.43 188.74C207.88 185.269 209.606 178.681 209.809 177.839L207.413 162.31C207.4 162.235 207.403 162.159 207.422 162.086C207.442 162.013 207.477 161.945 207.525 161.887C207.574 161.829 207.634 161.782 207.702 161.75C207.771 161.718 207.845 161.701 207.921 161.701C208.398 161.701 219.563 161.447 221.42 148.749C223.197 136.569 218.132 111.448 217.36 107.692C202.6 109.585 187.601 107.688 173.776 102.181C177.105 127.089 166.955 134.884 164.986 136.102L166.895 172.054Z" fill="#484646"/>
<path d="M199.111 123.75C199.111 123.75 207.231 138.731 204.805 141.005C202.379 143.278 196.187 141.005 196.187 141.005" fill="white"/>
<path d="M201.394 142.497C199.56 142.432 197.746 142.09 196.015 141.482C195.953 141.46 195.895 141.426 195.846 141.382C195.797 141.338 195.757 141.285 195.729 141.226C195.701 141.166 195.684 141.102 195.681 141.036C195.678 140.97 195.688 140.904 195.71 140.842C195.756 140.716 195.85 140.612 195.971 140.553C196.093 140.494 196.232 140.485 196.36 140.528C196.421 140.528 202.247 142.558 204.48 140.589C205.982 139.218 201.993 130.043 198.684 123.973C198.62 123.855 198.605 123.715 198.643 123.586C198.681 123.456 198.769 123.347 198.887 123.283C199.006 123.218 199.145 123.203 199.274 123.241C199.404 123.279 199.513 123.367 199.577 123.486C200.968 126.044 207.799 138.934 205.17 141.33C204.098 142.17 202.754 142.586 201.394 142.497Z" fill="#484646"/>
<path d="M186.617 123.927C187.547 123.888 188.228 122.127 188.138 119.993C188.048 117.859 187.222 116.161 186.292 116.2C185.363 116.239 184.682 118.001 184.771 120.134C184.861 122.268 185.688 123.966 186.617 123.927Z" fill="#484646"/>
<path d="M211.627 125.483C212.557 125.446 213.242 123.684 213.157 121.548C213.072 119.413 212.248 117.711 211.317 117.749C210.387 117.786 209.702 119.547 209.787 121.683C209.873 123.819 210.696 125.52 211.627 125.483Z" fill="#484646"/>
<path d="M175.471 128.723C173.95 126.126 171.944 123.845 169.564 122.004C168.33 120.92 166.792 120.243 165.159 120.065C163.819 120.077 162.51 120.468 161.383 121.192C159.693 122.189 158.231 123.53 157.093 125.128C155.955 126.726 155.165 128.546 154.775 130.469C154.4 132.252 154.47 134.099 154.978 135.848C155.959 138.556 157.855 140.836 160.338 142.294C162.806 143.721 165.432 144.855 168.163 145.674" fill="white"/>
<path d="M168.143 146.252H167.97C165.201 145.415 162.537 144.26 160.033 142.811C157.445 141.295 155.472 138.917 154.461 136.092C153.924 134.258 153.851 132.318 154.248 130.449C154.65 128.45 155.471 126.559 156.655 124.899C157.839 123.239 159.36 121.848 161.119 120.816C162.33 120.039 163.74 119.626 165.179 119.629C166.915 119.814 168.554 120.522 169.879 121.659C172.329 123.54 174.396 125.872 175.969 128.53C175.989 128.641 175.973 128.755 175.923 128.857C175.874 128.958 175.794 129.04 175.694 129.092C175.594 129.145 175.48 129.164 175.369 129.146C175.258 129.129 175.155 129.077 175.075 128.997C173.586 126.458 171.621 124.228 169.29 122.43C168.146 121.434 166.734 120.799 165.23 120.603C163.993 120.601 162.781 120.953 161.738 121.618C160.108 122.575 158.697 123.865 157.599 125.405C156.5 126.944 155.739 128.697 155.364 130.55C155.009 132.232 155.076 133.975 155.557 135.625C156.479 138.205 158.275 140.38 160.632 141.776C163.051 143.223 165.629 144.385 168.315 145.237C168.38 145.259 168.44 145.293 168.492 145.338C168.543 145.383 168.585 145.438 168.615 145.499C168.646 145.561 168.663 145.627 168.668 145.696C168.672 145.764 168.663 145.832 168.64 145.897C168.604 146 168.537 146.09 168.448 146.154C168.359 146.218 168.252 146.252 168.143 146.252Z" fill="#484646"/>
<path d="M207.931 162.239C198.051 163.757 187.943 162.09 179.074 157.478C179.074 157.478 193.782 180.092 210.194 176.905L207.931 162.239Z" fill="#484646"/>
<path d="M207.028 177.717C201.039 177.717 194.574 174.672 188.138 168.765C184.573 165.46 181.39 161.766 178.648 157.752C178.582 157.664 178.547 157.558 178.547 157.448C178.547 157.338 178.582 157.231 178.648 157.143C178.722 157.058 178.823 157.001 178.933 156.981C179.044 156.961 179.158 156.979 179.257 157.032C188.03 161.56 198.006 163.208 207.769 161.741C207.837 161.726 207.907 161.726 207.975 161.74C208.043 161.754 208.108 161.782 208.164 161.822C208.221 161.861 208.269 161.91 208.306 161.968C208.343 162.025 208.367 162.09 208.378 162.157L210.641 176.824C210.662 176.954 210.631 177.088 210.555 177.196C210.479 177.304 210.365 177.378 210.235 177.403C209.178 177.607 208.104 177.712 207.028 177.717ZM180.638 158.787C184.302 163.771 196.461 178.631 209.636 176.489L207.555 162.827C198.374 164.086 189.025 162.684 180.617 158.787H180.638Z" fill="#484646"/>
<path d="M288.39 150.187L288.157 150.556C287.658 151.348 286.864 151.91 285.95 152.117C285.036 152.323 284.078 152.159 283.285 151.659L259.573 136.704L263.575 130.359L287.278 145.309C288.071 145.809 288.632 146.603 288.839 147.517C289.046 148.43 288.881 149.389 288.382 150.181L288.39 150.187Z" fill="white"/>
<path d="M285.142 152.708C284.383 152.708 283.639 152.489 283 152.078L259.32 137.117C259.261 137.083 259.211 137.036 259.172 136.98C259.133 136.924 259.108 136.86 259.097 136.792C259.082 136.729 259.079 136.663 259.089 136.599C259.1 136.534 259.123 136.472 259.158 136.417L263.157 130.063C263.23 129.95 263.345 129.871 263.476 129.842C263.607 129.814 263.744 129.838 263.857 129.911L287.537 144.872C288.441 145.446 289.081 146.353 289.318 147.397C289.556 148.441 289.372 149.536 288.806 150.444L288.573 150.82C287.999 151.726 287.091 152.368 286.045 152.606C285.748 152.67 285.446 152.704 285.142 152.708ZM260.254 136.539L283.538 151.216C283.873 151.432 284.248 151.578 284.64 151.646C285.032 151.714 285.434 151.702 285.822 151.611C286.608 151.448 287.297 150.981 287.74 150.312L287.974 149.947C288.396 149.267 288.534 148.448 288.358 147.667C288.181 146.887 287.704 146.207 287.03 145.775L263.715 131.027L260.254 136.539Z" fill="#484646"/>
<path d="M260.944 141.367L267.367 131.066L261.578 127.456L255.155 137.757L260.944 141.367Z" fill="white"/>
<path d="M260.335 140.416C260.238 140.416 260.143 140.388 260.061 140.335L254.306 136.701C254.25 136.666 254.2 136.62 254.162 136.565C254.123 136.511 254.095 136.45 254.08 136.385C254.065 136.32 254.063 136.252 254.074 136.186C254.085 136.12 254.109 136.057 254.144 136.001L260.609 125.759C260.644 125.702 260.689 125.651 260.744 125.612C260.798 125.572 260.86 125.544 260.925 125.528C260.99 125.513 261.058 125.512 261.124 125.523C261.191 125.535 261.254 125.56 261.31 125.597L267.065 129.231C267.122 129.265 267.171 129.31 267.21 129.364C267.248 129.419 267.275 129.48 267.288 129.545C267.319 129.677 267.297 129.815 267.227 129.931L260.752 140.162C260.68 140.275 260.567 140.355 260.437 140.385L260.335 140.416ZM255.26 136.102L260.163 139.147L266.091 129.758L261.188 126.713L255.26 136.102Z" fill="#484646"/>
<path d="M319.002 171.876L320.908 168.854C322.167 166.858 321.569 164.219 319.573 162.96L286.478 142.087C284.482 140.828 281.843 141.425 280.584 143.421L278.678 146.443C277.419 148.439 278.017 151.078 280.013 152.337L313.108 173.211C315.104 174.47 317.743 173.872 319.002 171.876Z" fill="white"/>
<path d="M315.369 174.368C314.47 174.366 313.59 174.109 312.831 173.627L279.742 152.748C279.211 152.413 278.751 151.977 278.388 151.464C278.025 150.951 277.767 150.371 277.629 149.759C277.49 149.146 277.474 148.512 277.58 147.893C277.687 147.274 277.915 146.682 278.25 146.151L280.148 143.106C280.828 142.037 281.904 141.28 283.14 141.001C284.375 140.721 285.672 140.941 286.746 141.614L319.835 162.492C320.366 162.827 320.826 163.264 321.189 163.777C321.551 164.29 321.809 164.869 321.948 165.482C322.087 166.095 322.103 166.729 321.996 167.348C321.89 167.967 321.662 168.559 321.327 169.09L319.429 172.135C319.088 172.672 318.642 173.136 318.12 173.498C317.597 173.861 317.006 174.115 316.384 174.246C316.051 174.323 315.71 174.364 315.369 174.368ZM284.198 141.888C283.56 141.887 282.932 142.047 282.373 142.354C281.814 142.661 281.342 143.105 281.001 143.644L279.103 146.689C278.837 147.106 278.657 147.573 278.573 148.061C278.489 148.549 278.504 149.048 278.616 149.531C278.725 150.013 278.928 150.47 279.214 150.874C279.499 151.278 279.862 151.622 280.28 151.886L313.369 172.754C314.217 173.285 315.24 173.46 316.215 173.239C317.191 173.019 318.04 172.421 318.576 171.577L320.474 168.532C320.738 168.113 320.917 167.647 321.001 167.159C321.085 166.671 321.072 166.172 320.963 165.689C320.853 165.206 320.65 164.75 320.364 164.346C320.078 163.942 319.715 163.598 319.297 163.335L286.208 142.466C285.602 142.101 284.905 141.914 284.198 141.928V141.888Z" fill="#484646"/>
<path d="M207.231 99.2476C203.837 104.628 202.115 110.894 202.282 117.253C202.449 123.612 204.497 129.778 208.169 134.973C211.84 140.168 216.97 144.157 222.908 146.437C228.847 148.717 235.328 149.184 241.533 147.781C247.737 146.377 253.386 143.166 257.765 138.552C262.145 133.938 265.058 128.129 266.136 121.86C267.214 115.591 266.409 109.143 263.823 103.331C261.237 97.5194 256.985 92.605 251.606 89.2092C244.39 84.6596 235.662 83.1614 227.341 85.0437C219.02 86.926 211.787 92.0348 207.231 99.2476Z" fill="white"/>
<path d="M234.382 149.084C228.541 149.08 222.808 147.509 217.781 144.536C212.753 141.562 208.616 137.294 205.799 132.177C202.982 127.06 201.59 121.281 201.767 115.443C201.944 109.605 203.683 103.921 206.804 98.9837C209.836 94.1759 214.069 90.2423 219.086 87.5712C224.103 84.9001 229.731 83.584 235.412 83.7528C241.093 83.9217 246.632 85.5697 251.482 88.534C256.331 91.4984 260.323 95.6765 263.064 100.656C265.805 105.635 267.2 111.243 267.11 116.926C267.02 122.609 265.45 128.171 262.553 133.061C259.657 137.952 255.535 142.002 250.594 144.812C245.654 147.622 240.066 149.094 234.382 149.084ZM207.657 99.5622C203.747 105.758 202.106 113.118 203.014 120.389C203.923 127.659 207.324 134.389 212.638 139.433C217.952 144.476 224.851 147.521 232.159 148.049C239.466 148.576 246.731 146.553 252.714 142.325C258.697 138.097 263.03 131.924 264.972 124.86C266.915 117.796 266.348 110.276 263.369 103.583C260.389 96.8896 255.18 91.4366 248.631 88.1531C242.081 84.8695 234.595 83.9586 227.449 85.5755C219.261 87.4341 212.143 92.4639 207.657 99.5622Z" fill="#484646"/>
<path d="M248.013 94.8932C252.271 97.5771 255.638 101.463 257.687 106.061C259.736 110.658 260.375 115.76 259.525 120.721C258.674 125.682 256.371 130.279 252.907 133.931C249.444 137.583 244.975 140.125 240.066 141.237C235.157 142.349 230.028 141.98 225.329 140.177C220.63 138.374 216.571 135.218 213.666 131.108C210.76 126.998 209.139 122.118 209.007 117.087C208.876 112.055 210.239 107.097 212.925 102.841C216.525 97.135 222.244 93.0927 228.824 91.6023C235.404 90.112 242.306 91.2957 248.013 94.8932Z" fill="white"/>
<path d="M234.402 142.365C230.376 142.365 226.405 141.429 222.803 139.631C219.201 137.832 216.066 135.22 213.648 132.001C211.23 128.782 209.593 125.045 208.868 121.084C208.143 117.124 208.35 113.049 209.471 109.182C210.593 105.315 212.598 101.762 215.33 98.8043C218.061 95.8463 221.443 93.5643 225.209 92.1388C228.974 90.7133 233.019 90.1834 237.025 90.591C241.03 90.9986 244.886 92.3325 248.287 94.4872C253.053 97.4875 256.713 101.957 258.714 107.221C260.716 112.484 260.95 118.256 259.382 123.665C257.815 129.074 254.529 133.825 250.023 137.203C245.516 140.58 240.033 142.399 234.402 142.385V142.365ZM234.483 91.4422C232.615 91.4424 230.753 91.6501 228.931 92.0613C223.301 93.3339 218.287 96.5193 214.742 101.075C211.197 105.63 209.342 111.274 209.492 117.044C209.641 122.814 211.787 128.353 215.563 132.719C219.34 137.084 224.513 140.005 230.201 140.984C235.89 141.962 241.742 140.938 246.76 138.086C251.778 135.234 255.652 130.73 257.721 125.342C259.791 119.954 259.929 114.015 258.11 108.537C256.292 103.058 252.63 98.3803 247.749 95.2992C243.783 92.7817 239.182 91.444 234.483 91.4422Z" fill="#D1D1D1"/>
<path d="M208.449 145.674C208.449 145.674 190.879 159.305 183.957 132.875L208.449 145.674Z" fill="white"/>
<path d="M198.583 149.703C197.285 149.706 195.996 149.497 194.766 149.084C189.6 147.328 185.804 141.918 183.469 132.996C183.436 132.862 183.457 132.719 183.528 132.6C183.6 132.481 183.716 132.396 183.85 132.362C183.985 132.328 184.127 132.349 184.246 132.421C184.365 132.492 184.451 132.608 184.484 132.743C186.717 141.309 190.3 146.486 195.122 148.12C201.547 150.312 208.104 145.329 208.164 145.278C208.217 145.236 208.277 145.206 208.342 145.188C208.406 145.17 208.474 145.165 208.54 145.173C208.607 145.181 208.671 145.202 208.729 145.235C208.787 145.267 208.839 145.311 208.88 145.364C208.921 145.417 208.952 145.477 208.97 145.541C208.988 145.606 208.993 145.673 208.985 145.74C208.977 145.806 208.956 145.87 208.923 145.929C208.89 145.987 208.846 146.038 208.794 146.08C205.828 148.28 202.272 149.542 198.583 149.703Z" fill="#484646"/>
<path d="M298.093 159.701C299.19 159.193 299.494 157.793 299.535 156.575C299.603 154.281 299.213 151.997 298.388 149.855L302.387 158.656C303.053 160.416 304.056 162.03 305.34 163.406C305.996 164.081 306.83 164.555 307.745 164.772C308.66 164.99 309.618 164.942 310.507 164.634C312.994 163.517 313.41 160.168 313.065 157.468C312.754 154.944 312.088 152.477 311.085 150.14C310.317 148.033 308.926 146.21 307.096 144.912C305.198 143.735 302.498 143.644 300.905 145.186C299.159 142.517 295.556 137.716 291.699 138.67C289.172 139.289 289.466 140.7 289.973 143.025C290.674 146.161 293.648 161.782 298.093 159.701Z" fill="white"/>
<path d="M308.994 165.456C307.5 165.405 306.076 164.805 304.995 163.771C303.673 162.345 302.639 160.677 301.95 158.859L300.022 154.606C300.076 155.281 300.093 155.959 300.073 156.636C300.012 158.473 299.413 159.681 298.337 160.209C298.011 160.374 297.651 160.459 297.286 160.459C296.921 160.459 296.562 160.374 296.236 160.209C293.191 158.686 291.161 150.749 289.689 143.969L289.506 143.157C289.029 140.984 288.573 138.934 291.608 138.193C294.642 137.452 297.789 139.635 301.037 144.456C301.987 143.854 303.089 143.534 304.214 143.534C305.339 143.534 306.44 143.854 307.391 144.456C309.315 145.803 310.779 147.709 311.583 149.916C312.6 152.298 313.283 154.808 313.613 157.377C313.795 158.808 314.12 163.578 310.761 165.07C310.207 165.326 309.604 165.458 308.994 165.456ZM298.388 149.348C298.484 149.348 298.579 149.375 298.66 149.427C298.741 149.48 298.805 149.554 298.844 149.642L302.844 158.442C303.495 160.136 304.459 161.693 305.686 163.03C306.268 163.639 307.012 164.069 307.829 164.27C308.647 164.471 309.506 164.436 310.304 164.167C313.024 162.949 312.72 158.777 312.567 157.529C312.254 155.051 311.598 152.63 310.618 150.333C309.896 148.32 308.575 146.578 306.833 145.339C305.249 144.324 302.773 144.1 301.25 145.552C301.198 145.606 301.134 145.647 301.064 145.671C300.993 145.696 300.918 145.704 300.844 145.694C300.771 145.685 300.7 145.66 300.637 145.622C300.574 145.583 300.52 145.532 300.479 145.471C298.317 142.152 295.059 138.366 291.821 139.157C289.852 139.645 289.933 140.497 290.471 142.913L290.643 143.735C291.384 147.196 293.638 157.722 296.662 159.234C296.85 159.332 297.059 159.383 297.271 159.383C297.483 159.383 297.692 159.332 297.88 159.234C298.763 158.818 298.997 157.549 299.027 156.555C299.096 154.326 298.716 152.107 297.911 150.028C297.886 149.967 297.873 149.903 297.874 149.837C297.874 149.772 297.887 149.707 297.913 149.646C297.938 149.586 297.975 149.531 298.022 149.485C298.069 149.439 298.124 149.403 298.185 149.379C298.249 149.354 298.319 149.344 298.388 149.348Z" fill="#484646"/>
<path d="M284.695 155.946C284.695 155.946 296.875 160.462 298.225 173.87L284.695 155.946Z" fill="white"/>
<path d="M298.164 174.378C298.039 174.378 297.919 174.331 297.826 174.247C297.734 174.162 297.677 174.046 297.667 173.921C296.378 161 284.584 156.463 284.472 156.423C284.347 156.373 284.246 156.276 284.191 156.152C284.136 156.029 284.131 155.889 284.178 155.763C284.226 155.638 284.321 155.537 284.442 155.482C284.564 155.427 284.702 155.422 284.827 155.468C284.959 155.468 297.332 160.249 298.682 173.82C298.689 173.886 298.683 173.954 298.664 174.018C298.644 174.082 298.613 174.142 298.57 174.194C298.528 174.246 298.475 174.289 298.416 174.32C298.357 174.352 298.292 174.372 298.225 174.378H298.164Z" fill="#484646"/>
<path d="M229.946 177.21C229.946 177.21 280.757 224.915 281.285 221.789C284.645 202.229 287.314 185.502 287.314 185.502L320.464 186.852C320.464 186.852 320.464 280.232 298.134 282.496C281.224 284.201 222.283 229.015 222.283 229.015L229.946 177.21Z" fill="#FF931E"/>
<path d="M238.442 305.861C238.31 305.859 238.184 305.808 238.089 305.718C237.993 305.627 237.934 305.505 237.924 305.374L228.485 194.262C228.506 194.148 228.564 194.045 228.651 193.967C228.737 193.89 228.846 193.843 228.961 193.834C229.077 193.824 229.192 193.853 229.289 193.916C229.386 193.979 229.46 194.072 229.5 194.181L239.02 305.293C239.026 305.361 239.018 305.429 238.997 305.494C238.976 305.559 238.942 305.619 238.898 305.671C238.854 305.723 238.799 305.765 238.739 305.796C238.678 305.827 238.611 305.846 238.543 305.851L238.442 305.861Z" fill="#484646"/>
<path d="M160.865 303.506L95.1543 301.365C95.085 301.362 95.0169 301.346 94.9538 301.317C94.8908 301.288 94.8341 301.247 94.7869 301.196C94.7398 301.145 94.7032 301.085 94.6791 301.02C94.6551 300.955 94.6441 300.886 94.6468 300.816C94.6571 300.678 94.7193 300.549 94.821 300.455C94.9227 300.361 95.0563 300.309 95.1949 300.309L160.388 302.44L162.246 267.524L116.784 262.145C116.711 262.134 116.642 262.108 116.579 262.07C116.516 262.031 116.462 261.981 116.419 261.922C116.378 261.861 116.35 261.793 116.336 261.722C116.322 261.65 116.323 261.577 116.337 261.506C122.255 236.506 131.035 198.667 130.933 196.891C130.903 196.757 130.926 196.618 130.998 196.502C131.071 196.386 131.186 196.303 131.319 196.271C131.457 196.244 131.601 196.271 131.72 196.346C131.839 196.422 131.924 196.541 131.958 196.677C132.344 198.22 120.286 249.386 117.494 261.171L162.855 266.55C162.987 266.565 163.108 266.631 163.193 266.733C163.278 266.835 163.32 266.966 163.312 267.098L161.403 303.009C161.396 303.145 161.335 303.273 161.235 303.366C161.134 303.459 161.002 303.509 160.865 303.506Z" fill="#484646"/>
<path d="M205.343 231.096L267.288 242.434L249.627 325.623L185.124 318.142L205.343 231.096Z" fill="#484646"/>
<path d="M249.637 326.131H249.576L185.063 318.66C184.993 318.65 184.925 318.626 184.864 318.589C184.803 318.553 184.75 318.504 184.708 318.447C184.668 318.388 184.64 318.322 184.627 318.252C184.613 318.182 184.613 318.111 184.627 318.041L204.845 230.984C204.875 230.857 204.952 230.745 205.062 230.673C205.172 230.601 205.305 230.574 205.434 230.599L267.349 241.946C267.415 241.957 267.478 241.982 267.534 242.018C267.59 242.055 267.638 242.103 267.674 242.16C267.75 242.276 267.779 242.418 267.755 242.555L250.094 325.735C250.07 325.841 250.013 325.937 249.931 326.008C249.849 326.079 249.746 326.122 249.637 326.131ZM185.743 317.706L249.231 325.065L266.679 242.85L205.728 231.685L185.743 317.706Z" fill="#484646"/>
<path d="M213.006 269.666C212.529 264.236 194.908 271.625 194.908 271.625C194.908 271.625 199.882 260.298 197.213 258.237C194.543 256.177 185.57 269.798 185.57 269.798C178.037 270.964 170.427 271.575 162.804 271.625L161.221 296.898C186.494 295.071 202.886 294.351 203.668 292.727C205.211 289.489 213.483 275.096 213.006 269.666Z" fill="white"/>
<path d="M161.221 297.355C161.16 297.358 161.1 297.347 161.044 297.324C160.988 297.302 160.938 297.267 160.896 297.223C160.847 297.179 160.808 297.124 160.784 297.062C160.759 297.001 160.749 296.934 160.754 296.868L162.337 271.595C162.347 271.477 162.4 271.367 162.487 271.287C162.573 271.206 162.686 271.16 162.804 271.158C170.335 271.113 177.853 270.516 185.296 269.372C186.474 267.616 192.899 258.146 196.238 257.588C196.456 257.543 196.681 257.546 196.898 257.595C197.115 257.644 197.319 257.738 197.497 257.872C199.963 259.78 196.999 267.778 195.771 270.772C199.06 269.483 209.068 265.829 212.336 267.799C212.662 267.986 212.936 268.25 213.134 268.569C213.333 268.888 213.449 269.251 213.473 269.626C213.869 274.234 208.398 284.678 205.444 290.291C204.835 291.438 204.358 292.321 204.084 292.92C203.384 294.392 196.167 294.95 175.41 296.371C171.086 296.665 166.357 296.99 161.2 297.386L161.221 297.355ZM163.251 272.092L161.728 296.391L175.36 295.447C190.503 294.432 202.46 293.6 203.272 292.514C203.536 291.945 204.023 291.022 204.632 289.865C207.322 284.729 212.935 274.051 212.559 269.707C212.546 269.478 212.476 269.256 212.355 269.061C212.235 268.866 212.068 268.704 211.869 268.59C209.007 266.865 198.786 270.498 195.101 272.051C195.015 272.088 194.92 272.098 194.828 272.079C194.736 272.061 194.652 272.016 194.586 271.949C194.521 271.882 194.477 271.797 194.46 271.705C194.443 271.613 194.454 271.518 194.492 271.432C196.36 267.19 198.674 259.942 196.938 258.603C196.862 258.548 196.774 258.51 196.681 258.492C196.588 258.475 196.492 258.478 196.401 258.501C193.802 258.938 187.996 266.987 185.976 270.062C185.901 270.167 185.789 270.24 185.662 270.265C178.239 271.395 170.748 272.013 163.24 272.112L163.251 272.092Z" fill="#484646"/>
<path d="M277.479 238.181H277.377C277.31 238.167 277.245 238.141 277.188 238.102C277.131 238.064 277.082 238.014 277.044 237.957C277.006 237.899 276.98 237.834 276.968 237.766C276.955 237.699 276.956 237.629 276.971 237.562L286.106 194.13C286.12 194.062 286.146 193.998 286.185 193.94C286.223 193.883 286.273 193.834 286.33 193.796C286.388 193.759 286.453 193.733 286.521 193.72C286.588 193.708 286.658 193.709 286.725 193.724C286.861 193.753 286.979 193.834 287.055 193.95C287.131 194.066 287.158 194.207 287.131 194.343L277.996 237.775C277.971 237.892 277.905 237.996 277.81 238.071C277.716 238.145 277.599 238.184 277.479 238.181Z" fill="#484646"/>
<path d="M219.492 116.685C219.692 116.421 219.909 116.17 220.141 115.934L222.598 113.772C222.691 113.638 222.816 113.529 222.961 113.453C223.106 113.378 223.267 113.338 223.43 113.338C223.593 113.338 223.754 113.378 223.899 113.453C224.044 113.529 224.169 113.638 224.262 113.772L230.545 120.167C230.634 120.323 230.762 120.453 230.917 120.543C231.072 120.634 231.249 120.681 231.428 120.681C231.608 120.681 231.784 120.634 231.939 120.543C232.094 120.453 232.223 120.323 232.311 120.167L247.019 105.53C247.106 105.372 247.235 105.24 247.391 105.147C247.547 105.055 247.725 105.007 247.907 105.007C248.088 105.007 248.266 105.055 248.422 105.147C248.578 105.24 248.707 105.372 248.795 105.53L251.373 108.129C251.505 108.223 251.613 108.347 251.687 108.491C251.761 108.635 251.8 108.794 251.8 108.956C251.8 109.118 251.761 109.278 251.687 109.422C251.613 109.565 251.505 109.689 251.373 109.783L232.23 128.896C232.135 129.016 232.014 129.113 231.876 129.18C231.738 129.247 231.587 129.282 231.433 129.282C231.28 129.282 231.129 129.247 230.991 129.18C230.853 129.113 230.732 129.016 230.637 128.896C227.043 125.188 223.454 121.466 219.867 117.731C219.725 117.553 219.599 117.363 219.492 117.162V116.685Z" fill="#484646"/>
<path d="M231.438 129.789C231.218 129.782 231.002 129.73 230.803 129.635C230.604 129.541 230.426 129.407 230.281 129.241L219.512 118.076C219.386 117.924 219.274 117.761 219.177 117.589L219.076 117.426C219.023 117.345 218.995 117.249 218.994 117.152V116.645C218.993 116.525 219.036 116.409 219.116 116.32L219.309 116.086C219.461 115.889 219.627 115.702 219.806 115.528C220.385 114.99 220.984 114.452 221.573 113.925L222.273 113.305C222.42 113.133 222.604 112.996 222.811 112.903C223.018 112.811 223.243 112.766 223.47 112.772C223.697 112.778 223.919 112.834 224.121 112.937C224.323 113.04 224.5 113.187 224.638 113.366L230.911 119.761C231.049 119.927 231.238 120.044 231.448 120.096C231.623 120.063 231.785 119.982 231.915 119.862L246.613 105.226C246.77 105.043 246.962 104.893 247.178 104.785C247.395 104.676 247.63 104.613 247.871 104.597C248.352 104.639 248.797 104.869 249.109 105.236L251.688 107.835C251.86 107.979 251.999 108.16 252.095 108.365C252.19 108.569 252.239 108.792 252.239 109.017C252.239 109.242 252.19 109.465 252.095 109.669C251.999 109.874 251.86 110.055 251.688 110.199L232.585 129.261C232.44 129.422 232.263 129.552 232.066 129.643C231.869 129.733 231.655 129.783 231.438 129.789ZM219.999 117.051V117.122C220.055 117.222 220.12 117.317 220.192 117.406C223.778 121.121 227.368 124.843 230.961 128.571C231.067 128.704 231.219 128.791 231.388 128.815C231.556 128.789 231.71 128.707 231.824 128.581L250.967 109.469C251.302 109.134 251.302 108.89 250.967 108.535L248.389 105.947C248.24 105.795 248.06 105.677 247.861 105.602C247.654 105.655 247.47 105.772 247.333 105.936L232.666 120.532C232.512 120.711 232.325 120.858 232.114 120.964C231.903 121.07 231.674 121.134 231.438 121.151C231.198 121.134 230.964 121.068 230.749 120.958C230.535 120.849 230.344 120.697 230.19 120.512L223.917 114.117C223.542 113.732 223.359 113.732 222.902 114.117L222.212 114.747C221.623 115.274 221.035 115.762 220.456 116.33C220.31 116.473 220.174 116.625 220.05 116.787L219.969 116.888L219.999 117.051Z" fill="#484646"/>
<path d="M222.313 236.516L225.196 229.868L252.063 234.618V241.632L222.313 236.516Z" fill="#484646"/>
<path d="M252.063 242.139H251.982L222.232 237.064C222.155 237.055 222.081 237.027 222.017 236.983C221.953 236.938 221.9 236.88 221.864 236.811C221.827 236.743 221.807 236.666 221.806 236.588C221.805 236.511 221.822 236.434 221.857 236.364L224.729 229.716C224.774 229.609 224.853 229.521 224.955 229.465C225.056 229.41 225.174 229.391 225.287 229.411L252.155 234.161C252.273 234.183 252.379 234.246 252.456 234.339C252.532 234.432 252.573 234.549 252.571 234.669V241.662C252.571 241.736 252.554 241.809 252.523 241.876C252.491 241.942 252.445 242.001 252.388 242.048C252.292 242.112 252.178 242.144 252.063 242.139ZM223.044 236.13L251.556 241.023V235.034L225.511 230.436L223.044 236.13Z" fill="#484646"/>
<path d="M166.955 212.136C166.551 212.118 166.165 211.964 165.859 211.699C161.048 207.985 152.756 175.261 153.233 171.475C153.76 167.314 160.591 161.66 160.886 161.416C160.995 161.329 161.134 161.289 161.273 161.304C161.412 161.319 161.539 161.389 161.627 161.498C161.67 161.55 161.703 161.611 161.723 161.676C161.743 161.741 161.75 161.81 161.743 161.878C161.737 161.946 161.717 162.012 161.684 162.072C161.652 162.132 161.608 162.185 161.556 162.228C161.485 162.289 154.745 167.862 154.278 171.607C153.821 175.19 162.033 207.416 166.458 210.877C166.692 211.05 166.874 211.121 167.016 211.07C171.076 209.426 182.099 194.069 182.241 193.917C182.323 193.804 182.445 193.729 182.582 193.706C182.718 193.683 182.859 193.715 182.972 193.795C183.029 193.834 183.077 193.885 183.114 193.943C183.151 194.001 183.176 194.066 183.187 194.135C183.198 194.203 183.196 194.272 183.18 194.34C183.164 194.407 183.135 194.47 183.094 194.526C182.637 195.165 171.807 210.289 167.432 212.034C167.282 212.102 167.12 212.136 166.955 212.136Z" fill="#484646"/>
<path d="M214.528 206.279H214.336C210.946 205.904 205.414 194.505 204.795 193.216C204.736 193.09 204.729 192.945 204.777 192.814C204.824 192.682 204.922 192.575 205.048 192.516C205.172 192.457 205.314 192.449 205.444 192.495C205.573 192.54 205.679 192.636 205.739 192.76C207.982 197.459 212.326 205 214.447 205.234C214.561 205.249 214.677 205.23 214.78 205.18C214.883 205.129 214.968 205.049 215.026 204.95C217.604 201.651 221.116 183.137 218.66 174.023C218.622 173.888 218.639 173.744 218.708 173.622C218.776 173.501 218.89 173.411 219.025 173.373C219.092 173.355 219.161 173.35 219.23 173.359C219.298 173.368 219.364 173.391 219.424 173.426C219.483 173.461 219.535 173.507 219.577 173.563C219.618 173.618 219.648 173.681 219.664 173.749C222.242 183.31 218.599 202.077 215.858 205.599C215.706 205.81 215.506 205.981 215.275 206.099C215.044 206.217 214.788 206.279 214.528 206.279Z" fill="#484646"/>
</svg>
