<svg width="150" height="150" viewBox="0 0 150 150" fill="none" xmlns="http://www.w3.org/2000/svg">
<path d="M91.1506 129.226C96.4298 129.226 100.709 124.949 100.709 119.674C100.709 114.398 96.4298 110.122 91.1506 110.122C85.8714 110.122 81.5918 114.398 81.5918 119.674C81.5918 124.949 85.8714 129.226 91.1506 129.226Z" fill="#03DAC5"/>
<path d="M90.1274 20.0007C75.1882 20.1062 62.9562 32.2377 62.744 47.1653C62.742 47.3031 62.7411 48.2722 62.7412 49.5396C62.7413 51.398 63.4801 53.1803 64.7951 54.4944C66.11 55.8085 67.8935 56.5469 69.7532 56.5471H69.7532C70.6751 56.5469 71.5879 56.3652 72.4395 56.0123C73.2911 55.6595 74.0647 55.1424 74.7162 54.4906C75.3677 53.8388 75.8844 53.0652 76.2366 52.2138C76.5887 51.3625 76.7696 50.4501 76.7688 49.5289C76.7681 48.6667 76.7677 48.0699 76.7677 48.0333C76.7672 45.7263 77.3677 43.4588 78.5101 41.4541C79.6525 39.4493 81.2975 37.7763 83.2833 36.5995C85.269 35.4227 87.5271 34.7828 89.8354 34.7426C92.1437 34.7024 94.4227 35.2634 96.4483 36.3704C98.4738 37.4773 100.176 39.0921 101.388 41.0559C102.599 43.0197 103.278 45.2649 103.358 47.5705C103.438 49.8762 102.916 52.1629 101.843 54.2057C100.771 56.2486 99.1843 57.9772 97.2402 59.2216L97.2427 59.2245C97.2427 59.2245 87.2624 65.6451 84.2196 74.4529L84.2222 74.4535C83.6872 76.2579 83.4161 78.1301 83.4173 80.012C83.4173 80.7856 83.4628 87.5543 83.5508 93.048C83.5816 94.9436 84.3568 96.7511 85.7093 98.0806C87.0618 99.41 88.8831 100.155 90.7802 100.154H90.7802C91.7335 100.154 92.6773 99.966 93.5575 99.6001C94.4376 99.2342 95.2366 98.6979 95.9086 98.0223C96.5806 97.3466 97.1122 96.5448 97.4729 95.663C97.8336 94.7813 98.0163 93.8369 98.0104 92.8844C97.9799 87.8531 97.9633 81.9946 97.9633 81.5694C97.9633 76.1611 103.184 70.7725 107.473 67.2584C112.412 63.2119 115.965 57.6974 117.393 51.4769C117.709 50.1962 117.883 48.8848 117.912 47.5661C117.912 43.9293 117.192 40.3285 115.793 36.971C114.394 33.6136 112.345 30.5659 109.762 28.0036C107.179 25.4413 104.115 23.4151 100.745 22.0416C97.3751 20.668 93.7666 19.9744 90.1274 20.0007Z" fill="#03DAC5"/>
<path d="M133.938 130H15.1674C15.123 130 15.0804 129.933 15.049 129.816C15.0176 129.698 15 129.539 15 129.373C15 129.207 15.0176 129.048 15.049 128.931C15.0804 128.813 15.123 128.747 15.1674 128.746H133.938C133.982 128.746 134.025 128.812 134.056 128.93C134.088 129.047 134.106 129.207 134.106 129.373C134.106 129.539 134.088 129.699 134.056 129.816C134.025 129.934 133.982 130 133.938 130Z" fill="#3F3D56"/>
<path d="M71.7322 53.2326C69.8724 53.2324 68.089 52.494 66.774 51.1799C65.459 49.8658 64.7202 48.0835 64.7201 46.2251C64.72 44.9576 64.7209 43.9886 64.7228 43.8508C64.7819 39.5094 65.876 35.2447 67.9144 31.4105C64.5654 35.9919 62.724 41.5002 62.6448 47.1732C62.6429 47.311 62.642 48.2801 62.6421 49.5476C62.6422 51.406 63.381 53.1882 64.696 54.5024C66.011 55.8165 67.7944 56.5549 69.6541 56.5551C71.1823 56.5545 72.6685 56.0555 73.887 55.1338C75.1055 54.2122 75.9896 52.9183 76.4051 51.4487C75.1212 52.5993 73.4567 53.2347 71.7322 53.2326Z" fill="#3F3D56"/>
<path d="M90.6023 34.7661C92.7523 34.8687 94.8452 35.4912 96.7014 36.5801C98.5575 37.6691 100.121 39.1919 101.259 41.0179C102.396 42.8439 103.073 44.9185 103.232 47.0635C103.39 49.2086 103.025 51.36 102.168 53.3331C103.408 51.8784 104.319 50.1737 104.839 48.3353C105.36 46.4968 105.478 44.5679 105.184 42.6799C104.891 40.7919 104.194 38.9892 103.141 37.3949C102.087 35.8005 100.702 34.4519 99.0794 33.441C97.4571 32.4301 95.6356 31.7806 93.7393 31.5369C91.843 31.2932 89.9164 31.461 88.0908 32.0287C86.2653 32.5965 84.5837 33.551 83.1608 34.8271C81.7378 36.1032 80.6069 37.6709 79.8452 39.4233C81.1617 37.8757 82.8163 36.651 84.6813 35.8435C86.5464 35.036 88.5721 34.6674 90.6023 34.7661Z" fill="#3F3D56"/>
<path d="M92.7593 96.8399C90.8621 96.8403 89.0409 96.0955 87.6884 94.766C86.3359 93.4365 85.5607 91.629 85.5299 89.7335C85.4419 84.2397 85.3964 77.471 85.3964 76.6975C85.3951 74.8156 85.6663 72.9434 86.2013 71.139L86.1988 71.1384C86.5147 70.2327 86.8963 69.3512 87.3404 68.501C85.9769 70.3168 84.8918 72.3254 84.1207 74.4608L84.1233 74.4615C83.5883 76.2658 83.3171 78.138 83.3184 80.0199C83.3184 80.7935 83.3639 87.5622 83.4519 93.056C83.4827 94.9515 84.2579 96.759 85.6104 98.0885C86.9629 99.4179 88.7841 100.163 90.6813 100.162C92.2455 100.162 93.7675 99.655 95.0189 98.7172C96.2703 97.7794 97.1838 96.4614 97.6222 94.9609C96.2929 96.1721 94.5582 96.8424 92.7593 96.8399Z" fill="#3F3D56"/>
<path d="M41.2955 126.856L43.843 126.855L45.0551 117.036L41.2949 117.036L41.2955 126.856Z" fill="#FFB8B8"/>
<path d="M48.7559 129.219L40.7492 129.22L40.749 126.128L45.6622 126.128C46.4827 126.128 47.2695 126.454 47.8497 127.033C48.4299 127.613 48.7558 128.399 48.7559 129.219L48.7559 129.219Z" fill="#2F2E41"/>
<path d="M32.152 126.856L34.6994 126.855L35.9115 117.036L32.1514 117.036L32.152 126.856Z" fill="#FFB8B8"/>
<path d="M39.6128 129.219L31.6061 129.22L31.606 126.128L36.5192 126.128C37.3396 126.128 38.1265 126.454 38.7066 127.033C39.2868 127.613 39.6128 128.399 39.6128 129.219L39.6128 129.219Z" fill="#2F2E41"/>
<path d="M34.3788 123.836L31.8904 123.705C31.7621 123.698 31.6364 123.666 31.5206 123.61C31.4048 123.555 31.3012 123.477 31.2158 123.381C31.1304 123.285 31.0649 123.173 31.0231 123.051C30.9813 122.93 30.964 122.801 30.9722 122.673L33.9464 89.7673L47.6427 93.4605L48.9623 93.1008L44.8357 122.231C44.8006 122.451 44.6917 122.651 44.527 122.8C44.3624 122.949 44.1518 123.037 43.9301 123.051L41.2476 123.175C41.1135 123.183 40.9793 123.162 40.8535 123.115C40.7277 123.068 40.613 122.996 40.5167 122.902C40.4204 122.809 40.3445 122.696 40.294 122.572C40.2434 122.447 40.2192 122.314 40.2229 122.18L40.7089 104.696C40.7112 104.615 40.6831 104.536 40.6301 104.475C40.5772 104.414 40.5032 104.375 40.4228 104.365C40.3424 104.356 40.2614 104.377 40.1958 104.424C40.1302 104.472 40.0847 104.542 40.0682 104.621L35.3809 123.063C35.3367 123.282 35.2178 123.479 35.0447 123.62C34.8716 123.761 34.6548 123.838 34.4314 123.837C34.414 123.837 34.3964 123.837 34.3788 123.836Z" fill="#2F2E41"/>
<path d="M41.7527 62.843C44.5715 62.843 46.8565 60.5595 46.8565 57.7428C46.8565 54.926 44.5715 52.6426 41.7527 52.6426C38.934 52.6426 36.6489 54.926 36.6489 57.7428C36.6489 60.5595 38.934 62.843 41.7527 62.843Z" fill="#FFB8B8"/>
<path d="M33.255 72.7271L33.8162 84.8265L34.0191 89.2285C34.0272 89.4201 34.0923 89.605 34.2061 89.7594C34.3199 89.9139 34.4772 90.0309 34.6579 90.0955L47.8192 94.8598C47.9255 94.8993 48.0381 94.919 48.1516 94.918C48.2812 94.9187 48.4096 94.8932 48.5292 94.8431C48.6488 94.793 48.757 94.7194 48.8475 94.6266C48.9379 94.5338 49.0087 94.4237 49.0557 94.303C49.1026 94.1822 49.1247 94.0533 49.1207 93.9238L48.5811 72.1685C48.5457 70.3836 47.8882 68.6669 46.7219 67.3145C45.5557 65.9621 43.9539 65.0587 42.1926 64.76C42.0652 64.7406 41.9357 64.7211 41.8062 64.7039C40.714 64.5684 39.6054 64.6737 38.5584 65.0124C37.5113 65.3511 36.5512 65.915 35.7457 66.6644C34.9116 67.431 34.2562 68.3714 33.8258 69.419C33.3954 70.4666 33.2006 71.5959 33.255 72.727L33.255 72.7271Z" fill="#CCCCCC"/>
<path d="M54.1066 92.4454C53.7953 92.3489 53.5109 92.181 53.2761 91.9551C53.0413 91.7292 52.8626 91.4516 52.7542 91.1444C52.6458 90.8373 52.6108 90.509 52.6519 90.1859C52.693 89.8628 52.8091 89.5538 52.991 89.2835L48.5278 83.3529L52.3793 83.1147L56.0271 88.7831C56.4176 89.0848 56.6893 89.5143 56.7946 89.9962C56.8999 90.4781 56.8321 90.9817 56.603 91.4186C56.3739 91.8555 55.9981 92.1979 55.5416 92.3857C55.0852 92.5734 54.5771 92.5946 54.1066 92.4454H54.1066Z" fill="#FFB8B8"/>
<path d="M50.9679 88.2104C50.8496 88.1625 50.7421 88.0916 50.6514 88.0018C50.5608 87.912 50.4889 87.8052 50.4398 87.6875L43.7158 71.6785C43.5838 71.3651 43.515 71.0287 43.5132 70.6887C43.5114 70.3487 43.5767 70.0116 43.7053 69.6968C43.8339 69.382 44.0234 69.0956 44.2628 68.854C44.5023 68.6123 44.787 68.4203 45.1008 68.2887C45.4145 68.1571 45.7512 68.0885 46.0914 68.087C46.4317 68.0855 46.769 68.151 47.0839 68.2797C47.3988 68.4085 47.6853 68.5981 47.9269 68.8375C48.1685 69.077 48.3605 69.3617 48.4919 69.6753L55.216 85.6844C55.3154 85.9218 55.3165 86.1889 55.2191 86.4271C55.1217 86.6652 54.9337 86.8551 54.6964 86.9549L51.7113 88.2069C51.5937 88.2566 51.4675 88.2825 51.3399 88.2831C51.2123 88.2837 51.0859 88.259 50.9679 88.2105L50.9679 88.2104Z" fill="#CCCCCC"/>
<path d="M40.1117 87.6456L46.57 75.2883C46.6945 75.0507 46.9083 74.8721 47.1645 74.7918C47.4206 74.7115 47.6982 74.7359 47.9363 74.8599L57.3105 79.7522C57.5483 79.8767 57.727 80.0903 57.8074 80.3463C57.8878 80.6022 57.8633 80.8796 57.7392 81.1175L51.281 93.4748C51.1564 93.7124 50.9426 93.891 50.6865 93.9713C50.4303 94.0516 50.1528 94.0272 49.9147 93.9032L40.5405 89.0109C40.3027 88.8864 40.124 88.6728 40.0436 88.4168C39.9632 88.1609 39.9877 87.8835 40.1117 87.6456Z" fill="#3F3D56"/>
<path d="M44.4434 82.0001C44.3286 81.6952 44.1441 81.4215 43.9046 81.2006C43.6651 80.9797 43.3772 80.8178 43.064 80.7278C42.7507 80.6378 42.4208 80.6222 42.1005 80.6823C41.7801 80.7424 41.4783 80.8765 41.219 81.0739L35.031 76.9719L35.0205 80.8279L40.8983 84.1321C41.2228 84.5038 41.6679 84.7496 42.1555 84.8261C42.6431 84.9027 43.1422 84.8053 43.5651 84.551C43.9881 84.2966 44.3079 83.9016 44.4685 83.4351C44.6291 82.9687 44.6202 82.4606 44.4434 82.0001Z" fill="#FFB8B8"/>
<path d="M36.6193 82.8671L31.5621 78.864C31.015 78.6804 30.5207 78.367 30.1215 77.9504C29.7224 77.5339 29.4303 77.0268 29.2704 76.4727C29.1106 75.9186 29.0876 75.334 29.2036 74.769C29.3196 74.2041 29.5711 73.6757 29.9364 73.2293L34.5282 67.2157C34.8473 66.8261 35.2961 66.5642 35.7925 66.4779C36.2889 66.3917 36.7997 66.4869 37.2317 66.746C37.6637 67.0052 37.9879 67.4111 38.1451 67.8894C38.3023 68.3678 38.2819 68.8867 38.0877 69.3513L34.4546 75.2902L39.7938 77.8209C39.918 77.8797 40.0282 77.9642 40.1173 78.0688C40.2063 78.1734 40.2722 78.2956 40.3104 78.4275C40.3487 78.5594 40.3585 78.6979 40.3392 78.8339C40.32 78.9698 40.2721 79.1001 40.1986 79.2162L38.0434 82.6247C37.9705 82.7397 37.8743 82.8382 37.761 82.9137C37.6476 82.9892 37.5196 83.0401 37.3853 83.063C37.38 83.064 37.3746 83.0648 37.3693 83.0656C37.2373 83.0855 37.1027 83.0782 36.9737 83.044C36.8447 83.0099 36.7241 82.9497 36.6193 82.8671Z" fill="#CCCCCC"/>
<path d="M37.896 61.1581C37.8741 61.0941 37.8671 61.0259 37.8756 60.9588C37.8842 60.8917 37.908 60.8274 37.9452 60.7709C37.9825 60.7144 38.0321 60.6672 38.0905 60.6328C38.1488 60.5985 38.2142 60.5779 38.2817 60.5727C38.4199 60.5802 38.5552 60.6157 38.6794 60.6769C38.8035 60.7381 38.914 60.8238 39.004 60.9288C39.1887 61.1416 39.4038 61.3262 39.6422 61.4764C39.8891 61.6008 40.224 61.5831 40.3647 61.346C40.4969 61.1233 40.4063 60.8252 40.3263 60.5666C40.1227 59.9086 40.0088 59.2262 39.9876 58.5378C39.9646 57.7694 40.0731 56.9675 40.4987 56.3682C41.0481 55.5947 42.0305 55.3011 42.9602 55.3224C43.8899 55.3437 44.8046 55.6305 45.7255 55.8118C46.0434 55.8743 46.4171 55.9063 46.6297 55.6601C46.8558 55.3983 46.7728 54.9746 46.6766 54.6211C46.427 53.7038 46.1623 52.7554 45.5825 52.0145C44.9555 51.2448 44.06 50.7409 43.0762 50.6045C42.1317 50.4876 41.173 50.5964 40.2788 50.9219C38.8218 51.3808 37.5398 52.2732 36.6042 53.4799C35.6398 54.7632 35.223 56.3758 35.4451 57.9653C35.6621 59.3496 36.3962 60.6003 37.4994 61.4652L37.896 61.1581Z" fill="#2F2E41"/>
<path d="M89.0448 126.896C87.6869 126.305 86.4851 125.407 85.5341 124.272C84.5831 123.137 83.909 121.797 83.565 120.358C83.221 118.918 83.2166 117.419 83.552 115.977C83.8873 114.535 84.5534 113.191 85.4976 112.051C84.4029 112.85 83.4907 113.872 82.8215 115.05C82.1524 116.228 81.7416 117.535 81.6165 118.883C81.4914 120.232 81.6547 121.592 82.0957 122.873C82.5367 124.154 83.2453 125.326 84.1744 126.312C85.1035 127.298 86.2318 128.076 87.4846 128.593C88.7374 129.11 90.0859 129.355 91.4407 129.312C92.7954 129.268 94.1255 128.937 95.3425 128.341C96.5594 127.745 97.6356 126.896 98.4994 125.853C97.1521 126.837 95.5702 127.451 93.9113 127.634C92.2525 127.817 90.5746 127.563 89.0448 126.896Z" fill="#3F3D56"/>
</svg>
