<svg width="150" height="150" viewBox="0 0 150 150" fill="none" xmlns="http://www.w3.org/2000/svg">
<path d="M49.968 43.225C49.1075 43.5713 48.2288 43.8649 47.3362 44.1043C46.1573 44.4078 45.4916 44.5485 44.3537 44.0819C44.3137 44.0656 44.2756 44.0494 44.2396 44.0334C42.0827 43.0647 40.2389 41.4545 38.9327 39.3988C37.6265 37.3431 36.9141 34.9306 36.8824 32.455C36.8767 32.37 36.8767 32.2808 36.8767 32.1936C36.8756 31.7741 36.8946 31.3547 36.9336 30.9372C36.9835 30.3684 37.0696 29.8038 37.1914 29.2473L37.18 29.2451C36.2587 28.25 35.9042 26.8868 36.0218 25.517C36.1023 24.5884 36.3813 23.6912 36.8377 22.893C37.2941 22.0949 37.9161 21.4165 38.6568 20.9092C39.8175 20.1382 41.1263 19.6502 42.488 19.4806C42.8536 19.4361 43.2213 19.4136 43.5894 19.4131H47.0471C47.7612 19.2365 48.4867 19.1157 49.2177 19.0516H49.2233C56.1824 18.4419 61.6704 23.3154 61.1586 29.2451C61.1548 29.2517 61.1491 29.2582 61.1453 29.2647C60.9975 29.5195 60.8667 29.7612 60.751 29.9921C60.6392 30.2076 60.5444 30.4145 60.4629 30.6105C59.8278 32.1261 62.8458 55.6411 61.7633 55.9983C61.1472 56.2008 58.6639 38.7026 59.1094 42.03C59.6705 46.2045 53.174 41.9731 49.968 43.225Z" fill="#2F2E41"/>
<path d="M60.8616 86.1251L71 108L32 104L40.1411 83L60.8616 86.1251Z" fill="#FFB6B6"/>
<path d="M80 129.062C73.3583 131.343 66.359 132.31 59.3696 131.913L56.3303 126.828C56.3303 126.828 56.203 128.722 56.0132 131.617C52.686 131.219 49.4023 130.501 46.2049 129.472C40.1413 127.515 34.4574 124.484 28.6958 121.689C27.5288 114.511 27.0909 103.443 33.5428 97L68.2697 103.566C68.2697 103.566 73.8415 107.865 72.351 109.406C70.8604 110.943 70.6296 110.705 71.6089 111.716C72.5882 112.726 74.7043 114.077 74.7259 114.961C74.7345 115.306 77.1095 121.562 80 129.062Z" fill="#2F2E41"/>
<path d="M54.2949 44L45.6148 44.5902L40.0045 49.8737L38.0396 50.2155C36.2735 50.5224 34.6843 51.4503 33.5734 52.8232C32.4625 54.1961 31.9072 55.9185 32.0127 57.6639C32.4168 64.3374 33.3218 74.3086 35.2131 77.5437C38.1458 82.5599 40.5682 80.9861 38.1458 82.5599C35.7235 84.1338 34.0972 82.8971 35.2131 85.3844C36.3291 87.8718 33.7048 91.0622 33.7048 91.0622L32.6602 92.0803L33.7682 92.5229L69.0728 97C69.0728 97 66.0201 83.6234 67.9292 80.3374C69.8383 77.0514 74.4672 67.1185 70.336 63.2319L66.2967 49.3784L59.3486 47.3813L54.2949 44Z" fill="#03DAC5"/>
<path d="M106.125 98.9982C105.58 98.9801 105.045 98.838 104.557 98.5817C104.069 98.3255 103.64 97.9612 103.3 97.5141C102.959 97.067 102.716 96.5478 102.586 95.9923C102.456 95.4368 102.442 94.8583 102.547 94.2968L87 83.2588L88.855 78L107.228 91.2515C108.117 91.5057 108.886 92.0926 109.389 92.9012C109.892 93.7098 110.095 94.6838 109.959 95.6387C109.823 96.5936 109.357 97.463 108.651 98.0822C107.944 98.7014 107.045 99.0273 106.125 98.9982Z" fill="#FFB6B6"/>
<path d="M60.3373 49.6714L58 50.5852L70.4682 74.6286L96.2794 92L100 85.7911L80.3522 69.0348L72.4862 54.1395C71.3792 52.0433 69.5247 50.4265 67.281 49.6013C65.0373 48.7761 62.5634 48.801 60.3373 49.6714Z" fill="#03DAC5"/>
<path d="M50 41C54.9706 41 59 37.6421 59 33.5C59 29.3579 54.9706 26 50 26C45.0294 26 41 29.3579 41 33.5C41 37.6421 45.0294 41 50 41Z" fill="#FFB6B6"/>
<path d="M58 28.6076C57.8583 28.685 57.7185 28.7564 57.5767 28.8277C57.4291 28.9011 57.2814 28.9745 57.1318 29.0438C54.2871 30.3792 51.97 30.528 50.5644 28.6076C50.5259 27.5972 50.3063 26.603 49.9167 25.6758C49.9855 26.712 49.7219 27.7426 49.1666 28.6076H46.3357C43.4201 30.6116 41.9239 32.4526 43.9477 39.0316C44.0796 39.4638 44.9832 54.8196 45.2411 56C40.8274 54.2467 37.02 35.631 36.9235 30.7258C36.9176 30.6463 36.9176 30.5627 36.9176 30.4811C36.9165 30.0882 36.9362 29.6955 36.9767 29.3048C37.0287 28.7714 37.1181 28.2426 37.2444 27.7227L37.2326 27.7207C36.7836 27.2761 36.441 26.729 36.2321 26.123C36.0233 25.5171 35.954 24.869 36.0298 24.2304C36.7702 23.2264 37.6865 22.3757 38.7308 21.7227C39.6804 21.2465 40.6702 20.8616 41.6877 20.5729C41.7133 20.5668 41.7349 20.5607 41.7605 20.5545C42.0716 20.4669 42.3905 20.3874 42.7094 20.318C43.3667 20.1753 44.0312 20.0712 44.6997 20.0061C44.749 20.0041 44.7962 20 44.8395 20C45.1069 20.0002 45.3694 20.0748 45.5994 20.2161C45.6014 20.2161 45.6014 20.2181 45.6053 20.2181C45.8263 20.3549 46.0096 20.5483 46.1375 20.7797C46.2655 21.011 46.3337 21.2726 46.3357 21.5392H49.4895C49.6056 21.5392 49.7218 21.5433 49.8379 21.5494C54.23 21.7309 57.7598 23.6758 57.9862 28.1468C57.9961 28.3017 58 28.4526 58 28.6076Z" fill="#2F2E41"/>
<path d="M37.5 30C40.5376 30 43 27.3137 43 24C43 20.6863 40.5376 18 37.5 18C34.4624 18 32 20.6863 32 24C32 27.3137 34.4624 30 37.5 30Z" fill="#2F2E41"/>
<path d="M46.7745 22.302C46.1535 25.6383 43.0893 27.6337 40.1579 26.8175C38.7502 26.4255 37.5381 25.4182 36.7881 24.017C36.0382 22.6158 35.8119 20.9357 36.159 19.3461C36.8819 16.036 40.4395 16.9903 42.7756 14.8306C46.0804 11.7754 47.6121 17.8027 46.7745 22.302Z" fill="#2F2E41"/>
<path d="M33.6449 106.263C38.4855 86.4792 48.0765 69.475 63.9606 56.1524C64.5753 55.1388 65.5661 54.4111 66.7155 54.1287C67.865 53.8464 69.0793 54.0326 70.0919 54.6464L107.852 77.5923C108.864 78.2084 109.59 79.2014 109.872 80.3534C110.153 81.5054 109.967 82.7223 109.355 83.7373C103.292 104.037 94.2117 121.652 79.0394 133.848C78.4247 134.861 77.4339 135.589 76.2845 135.871C75.135 136.154 73.9208 135.967 72.9081 135.354L35.1476 112.408C34.1363 111.792 33.4102 110.799 33.1285 109.647C32.8468 108.495 33.0325 107.278 33.6449 106.263Z" fill="#F2F2F2"/>
<path opacity="0.2" d="M40.2945 112.936C39.2917 112.32 38.5717 111.327 38.2924 110.174C38.013 109.022 38.1972 107.805 38.8045 106.79C43.6042 87.0048 53.1145 69.9989 68.8647 56.675C69.2682 56.0115 69.8379 55.4675 70.5162 55.098L69.7794 54.6464C68.7753 54.0326 67.5713 53.8464 66.4315 54.1288C65.2917 54.4111 64.3093 55.1389 63.6997 56.1525C47.9495 69.4765 38.4392 86.4824 33.6395 106.268C33.0322 107.283 32.848 108.5 33.1274 109.652C33.4067 110.804 34.1267 111.797 35.1295 112.413L72.5718 135.362C73.2382 135.767 73.9988 135.987 74.7765 135.999C75.5541 136.012 76.3212 135.816 77 135.432L40.2945 112.936Z" fill="black"/>
<path d="M85.3029 102.759L59.8605 88.1517C59.4563 87.919 59.1655 87.5429 59.0521 87.106C58.9387 86.6692 59.0119 86.2073 59.2557 85.8218C59.4994 85.4363 59.8938 85.1588 60.3521 85.0502C60.8104 84.9416 61.2952 85.0108 61.7001 85.2425L87.1425 99.85C87.5457 100.083 87.8355 100.459 87.9483 100.896C88.0611 101.332 87.9877 101.793 87.7443 102.178C87.5009 102.563 87.1072 102.84 86.6496 102.949C86.1919 103.058 85.7077 102.99 85.3029 102.759Z" fill="white"/>
<path d="M70.0558 82.7083L63.9466 78.819C63.5039 78.5392 63.1845 78.085 63.0587 77.5563C62.9329 77.0277 63.0111 76.4679 63.2759 76.0001C63.5408 75.5324 63.9707 75.1949 64.471 75.062C64.9714 74.9291 65.5012 75.0117 65.9439 75.2915L65.9544 75.2983L72.0637 79.1875C72.5039 79.4697 72.8203 79.9247 72.9435 80.453C73.0667 80.9812 72.9867 81.5395 72.7209 82.0054C72.4552 82.4714 72.0254 82.8071 71.5258 82.9388C71.0263 83.0706 70.4976 82.9877 70.0558 82.7083Z" fill="white"/>
<path d="M80.3031 108.746L54.8627 93.328C54.4581 93.0829 54.1668 92.6862 54.0527 92.2252C53.9387 91.7642 54.0113 91.2765 54.2546 90.8692C54.4979 90.462 54.8919 90.1686 55.3502 90.0534C55.8085 89.9383 56.2934 90.0109 56.6985 90.2552L56.7022 90.2574L82.1425 105.675C82.5457 105.921 82.8355 106.318 82.9483 106.779C83.0611 107.239 82.9877 107.726 82.7443 108.133C82.5009 108.539 82.1073 108.832 81.6497 108.947C81.1921 109.062 80.7079 108.989 80.3031 108.746Z" fill="white"/>
<path d="M87.5 74C91.6421 74 95 70.6421 95 66.5C95 62.3579 91.6421 59 87.5 59C83.3579 59 80 62.3579 80 66.5C80 70.6421 83.3579 74 87.5 74Z" fill="#3F3D56"/>
<path d="M75 137C83.8366 137 91 130.06 91 121.5C91 112.94 83.8366 106 75 106C66.1634 106 59 112.94 59 121.5C59 130.06 66.1634 137 75 137Z" fill="white"/>
<path d="M75 137C71.8355 137 68.7421 136.091 66.1109 134.388C63.4797 132.685 61.4289 130.264 60.2179 127.432C59.0069 124.599 58.6901 121.483 59.3074 118.476C59.9248 115.469 61.4486 112.708 63.6863 110.54C65.9239 108.372 68.7748 106.896 71.8785 106.298C74.9822 105.7 78.1992 106.007 81.1229 107.18C84.0465 108.353 86.5453 110.34 88.3035 112.889C90.0616 115.438 91 118.434 91 121.5C90.9952 125.609 89.308 129.549 86.3084 132.455C83.3089 135.361 79.242 136.995 75 137ZM75 106.426C71.9226 106.426 68.9143 107.311 66.3555 108.967C63.7967 110.623 61.8023 112.977 60.6247 115.732C59.447 118.486 59.1389 121.517 59.7392 124.441C60.3396 127.365 61.8216 130.051 63.9976 132.159C66.1737 134.267 68.9462 135.702 71.9645 136.284C74.9828 136.865 78.1114 136.567 80.9545 135.426C83.7977 134.285 86.2278 132.353 87.9375 129.874C89.6472 127.395 90.5598 124.481 90.5597 121.5C90.5551 117.504 88.9142 113.672 85.9972 110.846C83.0802 108.021 79.1253 106.431 75 106.426Z" fill="#3F3D56"/>
<path d="M72.9037 130C72.6382 130 72.3765 129.934 72.1391 129.808C71.9017 129.682 71.6952 129.499 71.536 129.273L67.3428 123.332C67.2079 123.142 67.1096 122.924 67.0538 122.693C66.9979 122.462 66.9854 122.221 67.0171 121.985C67.0488 121.749 67.124 121.521 67.2384 121.316C67.3528 121.111 67.5042 120.931 67.6839 120.788C67.8636 120.645 68.0681 120.54 68.2858 120.481C68.5034 120.422 68.7299 120.409 68.9523 120.443C69.1746 120.477 69.3885 120.557 69.5818 120.679C69.775 120.8 69.9437 120.961 70.0783 121.153L72.8217 125.039L79.8676 113.809C79.9922 113.61 80.1523 113.44 80.3389 113.307C80.5254 113.174 80.7348 113.082 80.9549 113.035C81.1751 112.988 81.4018 112.988 81.622 113.035C81.8423 113.081 82.0518 113.173 82.2386 113.305C82.4255 113.437 82.5859 113.608 82.7109 113.806C82.8358 114.004 82.9228 114.226 82.9668 114.46C83.0108 114.694 83.0111 114.935 82.9675 115.169C82.9239 115.403 82.8374 115.626 82.7128 115.824L74.3264 129.191C74.1747 129.433 73.9706 129.632 73.7314 129.773C73.4921 129.914 73.2246 129.991 72.9512 129.999C72.9354 130 72.9195 130 72.9037 130Z" fill="#03DAC5"/>
<path d="M125.832 49.7702C126.458 49.7167 126.934 49.3208 126.897 48.8858C126.86 48.4508 126.323 48.1415 125.698 48.1949C125.072 48.2484 124.596 48.6444 124.633 49.0794C124.67 49.5144 125.207 49.8237 125.832 49.7702Z" fill="white"/>
<path d="M132.868 47.3837C133.493 47.3303 133.97 46.9343 133.933 46.4993C133.896 46.0643 133.359 45.755 132.733 45.8085C132.108 45.8619 131.631 46.2579 131.668 46.6929C131.706 47.1279 132.243 47.4372 132.868 47.3837Z" fill="#3F3D56"/>
<path d="M122.497 44.4026C123.123 44.3492 123.599 43.9532 123.562 43.5182C123.525 43.0832 122.988 42.7739 122.363 42.8274C121.737 42.8809 121.261 43.2768 121.298 43.7118C121.335 44.1468 121.872 44.4561 122.497 44.4026Z" fill="#FF6584"/>
<path d="M119.546 42.673C119.815 42.6122 119.962 42.2493 119.875 41.8624C119.787 41.4755 119.498 41.2112 119.229 41.272C118.96 41.3328 118.813 41.6957 118.9 42.0826C118.987 42.4695 119.276 42.7338 119.546 42.673Z" fill="#E6E6E6"/>
<path d="M117.445 38.474C117.714 38.4132 117.861 38.0503 117.774 37.6634C117.687 37.2765 117.398 37.0122 117.128 37.073C116.859 37.1338 116.712 37.4967 116.799 37.8836C116.887 38.2705 117.176 38.5348 117.445 38.474Z" fill="#3F3D56"/>
<path d="M127.526 44.3709C127.795 44.3101 127.942 43.9471 127.855 43.5602C127.767 43.1734 127.478 42.909 127.209 42.9698C126.94 43.0307 126.793 43.3936 126.88 43.7805C126.967 44.1673 127.256 44.4317 127.526 44.3709Z" fill="#E6E6E6"/>
<path d="M124.454 46.9218C124.723 46.861 124.87 46.498 124.783 46.1112C124.695 45.7243 124.406 45.4599 124.137 45.5207C123.868 45.5816 123.721 45.9445 123.808 46.3314C123.896 46.7183 124.185 46.9826 124.454 46.9218Z" fill="#FF6584"/>
<path d="M130.047 48.9997C130.316 48.9388 130.463 48.5759 130.376 48.189C130.289 47.8022 130 47.5378 129.73 47.5986C129.461 47.6594 129.314 48.0224 129.401 48.4093C129.489 48.7961 129.778 49.0605 130.047 48.9997Z" fill="#3F3D56"/>
<path d="M96.7845 17.2439C96.8917 16.8207 96.4855 16.3527 95.8771 16.1985C95.2688 16.0443 94.6887 16.2624 94.5814 16.6856C94.4742 17.1088 94.8804 17.5769 95.4887 17.7311C96.0971 17.8852 96.6772 17.6671 96.7845 17.2439Z" fill="white"/>
<path d="M89.3553 17.1961C89.4625 16.7729 89.0563 16.3048 88.4479 16.1506C87.8396 15.9965 87.2595 16.2146 87.1522 16.6378C87.045 17.061 87.4512 17.529 88.0595 17.6832C88.6679 17.8374 89.248 17.6193 89.3553 17.1961Z" fill="#3F3D56"/>
<path d="M98.179 23.4076C98.2862 22.9844 97.88 22.5164 97.2717 22.3622C96.6633 22.208 96.0832 22.4261 95.9759 22.8493C95.8687 23.2725 96.2749 23.7406 96.8833 23.8948C97.4916 24.0489 98.0717 23.8308 98.179 23.4076Z" fill="#FF6584"/>
<path d="M99.9107 25.7317C99.9547 25.3375 99.7681 24.9931 99.4939 24.9625C99.2197 24.9319 98.9617 25.2266 98.9176 25.6207C98.8736 26.0149 99.0602 26.3593 99.3344 26.39C99.6086 26.4206 99.8666 26.1259 99.9107 25.7317Z" fill="#E6E6E6"/>
<path d="M100.521 30.3873C100.566 29.9932 100.379 29.6488 100.105 29.6181C99.8305 29.5875 99.5725 29.8822 99.5285 30.2764C99.4844 30.6706 99.671 31.015 99.9452 31.0456C100.219 31.0762 100.477 30.7815 100.521 30.3873Z" fill="#3F3D56"/>
<path d="M92.9268 21.5151C92.9708 21.121 92.7842 20.7766 92.51 20.7459C92.2358 20.7153 91.9778 21.01 91.9338 21.4042C91.8897 21.7984 92.0763 22.1428 92.3505 22.1734C92.6247 22.204 92.8827 21.9093 92.9268 21.5151Z" fill="#E6E6E6"/>
<path d="M96.6655 20.1109C96.7096 19.7167 96.523 19.3723 96.2488 19.3416C95.9746 19.311 95.7166 19.6057 95.6725 19.9999C95.6285 20.3941 95.8151 20.7385 96.0893 20.7691C96.3635 20.7997 96.6215 20.505 96.6655 20.1109Z" fill="#FF6584"/>
<path d="M92.0591 16.3161C92.1031 15.9219 91.9166 15.5775 91.6423 15.5468C91.3681 15.5162 91.1101 15.8109 91.0661 16.2051C91.022 16.5993 91.2086 16.9437 91.4828 16.9743C91.7571 17.0049 92.0151 16.7102 92.0591 16.3161Z" fill="#3F3D56"/>
<path d="M35.9033 107.678C35.3094 107.439 34.7754 107.076 34.3383 106.614C33.9013 106.152 33.5715 105.602 33.3718 105.002C33.1722 104.403 33.1074 103.768 33.182 103.141C33.2566 102.515 33.4688 101.912 33.8039 101.374L21 83.6838L25.1076 79L40.1587 100.12C41.0382 100.741 41.6551 101.659 41.8924 102.698C42.1298 103.736 41.9712 104.825 41.4467 105.756C40.9222 106.688 40.0681 107.398 39.0465 107.752C38.0248 108.107 36.9064 108.08 35.9033 107.678Z" fill="#FFB6B6"/>
<path d="M36.1658 53.4082C35.5537 53.0518 34.8332 52.9229 34.1337 53.0448C33.4341 53.1667 32.8014 53.5313 32.3491 54.0733L16 76.7026L31.1513 98L37.0801 91.6977L27.8576 77.3545L40.1144 65.805C41.1216 63.6211 41.2755 61.1454 40.5462 58.8559C39.817 56.5664 38.2564 54.6256 36.1658 53.4082Z" fill="#03DAC5"/>
</svg>
