<svg width="400" height="400" viewBox="0 0 400 400" fill="none" xmlns="http://www.w3.org/2000/svg">
<path d="M107.53 253.909C107.53 253.909 75.0502 279.903 72.6548 282.329C70.2594 284.755 107.622 325.081 112.879 322.929C118.137 320.777 131.758 303.816 131.758 303.816L107.53 253.909Z" fill="#484646"/>
<path d="M112.473 323.538C106.15 323.538 79.9121 295.493 73.6698 286.145C72.0966 283.791 71.6398 282.583 72.2793 281.984C74.6747 279.558 105.876 254.579 107.205 253.513C107.265 253.467 107.334 253.434 107.408 253.417C107.481 253.399 107.558 253.398 107.632 253.412C107.705 253.431 107.773 253.466 107.832 253.513C107.892 253.56 107.941 253.619 107.977 253.686L132.154 303.603C132.195 303.688 132.211 303.783 132.2 303.876C132.189 303.969 132.152 304.058 132.093 304.131C131.535 304.831 118.37 321.285 113.052 323.416C112.869 323.496 112.672 323.538 112.473 323.538ZM107.398 254.701C103.338 257.989 75.2532 280.472 73.0608 282.694C72.5635 284.856 90.4782 305.451 103.227 316.463C110.453 322.706 112.362 322.665 112.737 322.492C117.467 320.584 129.464 305.857 131.159 303.756L107.398 254.701Z" fill="#484646"/>
<path d="M298.34 141.112C298.817 140.899 317.625 121.492 318.061 116.366C318.498 111.241 276.589 75.4416 271.493 77.6238C266.398 79.8061 248.788 107.414 248.788 107.414L297.508 139.569" fill="#484646"/>
<path d="M298.34 141.62C298.231 141.619 298.124 141.584 298.037 141.518C297.949 141.452 297.885 141.36 297.854 141.255C297.824 141.15 297.828 141.038 297.866 140.935C297.904 140.833 297.974 140.745 298.066 140.686C299.081 139.864 317.128 121.137 317.554 116.326C317.828 113.342 299.497 96.0257 284.323 85.013C274.437 77.8065 272.143 77.908 271.696 78.0907C267.849 79.7147 255.649 97.6396 249.488 107.262L297.812 139.143C297.924 139.219 298.002 139.336 298.028 139.469C298.055 139.602 298.028 139.74 297.954 139.853C297.88 139.965 297.765 140.042 297.633 140.069C297.502 140.095 297.366 140.069 297.254 139.996L248.483 107.83C248.375 107.756 248.299 107.642 248.273 107.514C248.246 107.385 248.271 107.251 248.341 107.14C249.062 106.003 266.104 79.3391 271.28 77.1569C271.899 76.8828 273.777 76.0911 284.901 84.1908C298.442 94.0668 318.904 112.428 318.549 116.417C318.051 121.939 298.705 141.498 298.523 141.579C298.465 141.603 298.403 141.617 298.34 141.62Z" fill="#484646"/>
<path d="M199.479 319.153C263.21 319.153 314.874 267.489 314.874 203.758C314.874 140.027 263.21 88.3624 199.479 88.3624C135.748 88.3624 84.0837 140.027 84.0837 203.758C84.0837 267.489 135.748 319.153 199.479 319.153Z" fill="white"/>
<path d="M199.479 319.661C176.556 319.661 154.147 312.863 135.087 300.128C116.027 287.392 101.171 269.29 92.3988 248.112C83.6264 226.933 81.3311 203.629 85.8033 181.146C90.2754 158.663 101.314 138.011 117.523 121.802C133.733 105.593 154.385 94.5541 176.868 90.082C199.351 85.6099 222.655 87.9051 243.833 96.6775C265.012 105.45 283.113 120.306 295.849 139.366C308.584 158.426 315.382 180.834 315.382 203.758C315.347 234.486 303.125 263.947 281.396 285.675C259.668 307.403 230.208 319.626 199.479 319.661ZM199.479 88.87C176.756 88.87 154.544 95.608 135.651 108.232C116.758 120.856 102.032 138.799 93.3365 159.792C84.6409 180.785 82.3658 203.885 86.7988 226.171C91.2317 248.457 102.174 268.928 118.241 284.996C134.308 301.063 154.78 312.005 177.066 316.438C199.352 320.871 222.452 318.596 243.445 309.9C264.438 301.205 282.381 286.479 295.005 267.586C307.629 248.693 314.367 226.48 314.367 203.758C314.332 173.298 302.217 144.097 280.678 122.558C259.14 101.02 229.939 88.9049 199.479 88.87Z" fill="#484646"/>
<path d="M185.51 143.139L155.962 125.273L143.538 145.821L173.086 163.687L185.51 143.139Z" fill="white"/>
<path d="M172.358 163.351C172.266 163.348 172.176 163.323 172.094 163.28L142.751 145.476C142.693 145.442 142.643 145.397 142.603 145.343C142.563 145.289 142.534 145.227 142.518 145.162C142.502 145.097 142.499 145.03 142.51 144.963C142.52 144.897 142.543 144.833 142.578 144.776L154.961 124.334C155.031 124.221 155.142 124.139 155.271 124.107C155.4 124.074 155.537 124.094 155.651 124.161L185.086 141.965C185.202 142.036 185.285 142.148 185.32 142.279C185.336 142.344 185.338 142.412 185.328 142.478C185.318 142.544 185.294 142.608 185.259 142.665L172.876 163.107C172.805 163.22 172.691 163.3 172.561 163.33L172.358 163.351ZM143.705 144.867L172.216 162.122L184.082 142.553L155.56 125.298L143.705 144.867Z" fill="#484646"/>
<path d="M172.405 162.828L143.02 145.025L130.639 165.46L160.024 183.264L172.405 162.828Z" fill="white"/>
<path d="M160.006 183.783C159.913 183.785 159.821 183.76 159.742 183.712L130.358 165.908C130.245 165.837 130.164 165.724 130.134 165.594C130.104 165.466 130.126 165.33 130.195 165.218L142.578 144.776C142.649 144.661 142.762 144.577 142.893 144.543C143.021 144.512 143.156 144.534 143.268 144.604L172.653 162.407C172.765 162.481 172.848 162.592 172.886 162.721C172.917 162.853 172.895 162.991 172.825 163.107L160.442 183.539C160.397 183.614 160.332 183.676 160.256 183.718C160.18 183.761 160.093 183.783 160.006 183.783ZM131.322 165.31L159.833 182.565L171.688 162.995L143.177 145.74L131.322 165.31Z" fill="#484646"/>
<path d="M170.43 156.885C170.34 156.887 170.252 156.862 170.176 156.814C170.121 156.783 170.072 156.74 170.034 156.69C169.995 156.639 169.968 156.581 169.952 156.519C169.937 156.457 169.935 156.393 169.945 156.33C169.956 156.268 169.979 156.208 170.014 156.154L177.748 143.386C177.781 143.331 177.825 143.283 177.877 143.246C177.928 143.208 177.987 143.181 178.049 143.166C178.111 143.15 178.176 143.148 178.239 143.158C178.303 143.168 178.363 143.19 178.418 143.223C178.526 143.292 178.604 143.401 178.634 143.525C178.664 143.65 178.645 143.782 178.58 143.893L170.846 156.641C170.804 156.715 170.743 156.776 170.67 156.818C170.597 156.861 170.514 156.884 170.43 156.885Z" fill="#D1D1D1"/>
<path d="M167.334 150.968C167.249 150.968 167.165 150.947 167.09 150.907C167.036 150.873 166.988 150.83 166.95 150.778C166.913 150.726 166.885 150.668 166.87 150.605C166.855 150.543 166.853 150.479 166.863 150.415C166.872 150.352 166.895 150.292 166.928 150.237L172.866 140.402C172.895 140.34 172.936 140.285 172.988 140.241C173.039 140.196 173.099 140.163 173.164 140.143C173.229 140.123 173.298 140.117 173.366 140.125C173.433 140.133 173.498 140.156 173.557 140.19C173.615 140.225 173.666 140.272 173.705 140.328C173.744 140.383 173.771 140.447 173.785 140.513C173.798 140.58 173.797 140.649 173.782 140.715C173.767 140.782 173.739 140.844 173.698 140.899L167.75 150.704C167.711 150.781 167.651 150.846 167.578 150.892C167.505 150.939 167.421 150.965 167.334 150.968Z" fill="#D1D1D1"/>
<path d="M160.666 150.968C160.576 150.969 160.488 150.945 160.412 150.897C160.357 150.864 160.31 150.821 160.272 150.771C160.235 150.72 160.208 150.662 160.193 150.601C160.177 150.539 160.175 150.476 160.184 150.413C160.194 150.351 160.216 150.291 160.249 150.237L166.522 139.884C166.589 139.776 166.696 139.699 166.819 139.669C166.942 139.638 167.072 139.657 167.182 139.721C167.292 139.789 167.371 139.896 167.404 140.021C167.436 140.146 167.418 140.279 167.354 140.391L161.082 150.734C161.038 150.806 160.977 150.864 160.904 150.905C160.831 150.946 160.749 150.968 160.666 150.968Z" fill="#D1D1D1"/>
<path d="M155.783 148.014C155.694 148.016 155.605 147.991 155.53 147.943C155.475 147.91 155.427 147.866 155.39 147.814C155.352 147.762 155.325 147.704 155.309 147.642C155.294 147.579 155.292 147.515 155.302 147.452C155.312 147.388 155.334 147.328 155.367 147.273L158.503 142.107C158.537 142.052 158.581 142.004 158.632 141.967C158.684 141.929 158.743 141.902 158.805 141.887C158.867 141.872 158.932 141.869 158.995 141.879C159.058 141.889 159.119 141.911 159.173 141.944C159.281 142.011 159.358 142.118 159.389 142.241C159.419 142.364 159.4 142.495 159.336 142.604L156.199 147.781C156.156 147.852 156.095 147.911 156.022 147.952C155.949 147.993 155.867 148.014 155.783 148.014Z" fill="#D1D1D1"/>
<path d="M160.808 139.721C160.718 139.722 160.63 139.697 160.554 139.65C160.445 139.581 160.368 139.473 160.338 139.348C160.307 139.223 160.327 139.091 160.391 138.98L163.101 134.514C163.173 134.417 163.279 134.351 163.397 134.327C163.516 134.303 163.639 134.325 163.743 134.386C163.846 134.448 163.923 134.547 163.959 134.662C163.994 134.778 163.985 134.902 163.934 135.012L161.193 139.488C161.153 139.555 161.096 139.611 161.029 139.652C160.962 139.693 160.886 139.716 160.808 139.721Z" fill="#D1D1D1"/>
<path d="M152.464 142.432C152.378 142.428 152.295 142.404 152.221 142.36C152.166 142.327 152.118 142.283 152.081 142.232C152.043 142.18 152.016 142.121 152.001 142.059C151.986 141.997 151.983 141.932 151.993 141.869C152.003 141.806 152.025 141.745 152.058 141.691L158.219 131.541C158.288 131.432 158.397 131.355 158.522 131.324C158.646 131.294 158.778 131.313 158.889 131.378C158.944 131.411 158.991 131.455 159.029 131.507C159.067 131.559 159.094 131.617 159.109 131.679C159.124 131.742 159.127 131.806 159.117 131.869C159.107 131.933 159.085 131.993 159.052 132.048L152.88 142.198C152.838 142.27 152.777 142.33 152.704 142.371C152.631 142.412 152.548 142.433 152.464 142.432Z" fill="#D1D1D1"/>
<path d="M158.037 177.327C157.95 177.329 157.865 177.304 157.793 177.256C157.738 177.225 157.689 177.183 157.651 177.132C157.612 177.081 157.585 177.023 157.569 176.961C157.554 176.9 157.552 176.835 157.562 176.773C157.573 176.71 157.596 176.65 157.631 176.596L165.365 163.828C165.393 163.765 165.435 163.708 165.487 163.662C165.539 163.616 165.6 163.582 165.666 163.562C165.733 163.542 165.803 163.536 165.871 163.545C165.94 163.553 166.006 163.577 166.065 163.613C166.124 163.65 166.175 163.698 166.213 163.756C166.252 163.813 166.278 163.878 166.29 163.947C166.301 164.015 166.298 164.085 166.28 164.152C166.263 164.219 166.231 164.281 166.187 164.335L158.453 177.094C158.41 177.166 158.349 177.225 158.276 177.266C158.203 177.307 158.12 177.328 158.037 177.327Z" fill="#D1D1D1"/>
<path d="M154.951 171.41C154.863 171.409 154.776 171.388 154.697 171.349C154.643 171.316 154.595 171.272 154.557 171.22C154.519 171.168 154.492 171.11 154.477 171.048C154.462 170.985 154.459 170.921 154.469 170.858C154.479 170.794 154.501 170.734 154.535 170.679L160.483 160.874C160.515 160.82 160.558 160.773 160.609 160.736C160.66 160.698 160.718 160.671 160.779 160.656C160.84 160.641 160.904 160.638 160.966 160.648C161.029 160.657 161.089 160.679 161.142 160.712C161.196 160.744 161.243 160.787 161.281 160.838C161.318 160.889 161.345 160.947 161.36 161.008C161.375 161.069 161.378 161.133 161.369 161.195C161.359 161.258 161.338 161.317 161.305 161.371L155.367 171.186C155.322 171.255 155.26 171.312 155.187 171.351C155.115 171.39 155.033 171.41 154.951 171.41Z" fill="#D1D1D1"/>
<path d="M148.272 171.41C148.187 171.41 148.103 171.389 148.029 171.349C147.974 171.316 147.926 171.272 147.889 171.22C147.851 171.168 147.824 171.11 147.809 171.048C147.794 170.985 147.791 170.921 147.801 170.858C147.811 170.794 147.833 170.734 147.866 170.679L154.129 160.326C154.2 160.22 154.308 160.144 154.432 160.114C154.556 160.083 154.687 160.101 154.799 160.164C154.853 160.197 154.901 160.241 154.939 160.292C154.976 160.344 155.004 160.403 155.019 160.465C155.034 160.527 155.036 160.592 155.027 160.655C155.017 160.718 154.994 160.779 154.961 160.833L148.688 171.176C148.646 171.248 148.585 171.308 148.512 171.349C148.439 171.39 148.356 171.411 148.272 171.41Z" fill="#D1D1D1"/>
<path d="M258.082 210.306L212.707 247.141L215.215 250.23L260.589 213.395L258.082 210.306Z" fill="white"/>
<path d="M215.212 250.762H215.161C215.027 250.748 214.903 250.683 214.816 250.58L212.309 247.535C212.225 247.428 212.187 247.293 212.202 247.158C212.217 247.023 212.285 246.9 212.39 246.814L257.76 209.98C257.867 209.896 258.003 209.858 258.137 209.873C258.272 209.888 258.395 209.956 258.481 210.061L260.988 213.106C261.069 213.214 261.108 213.347 261.1 213.482C261.085 213.616 261.02 213.739 260.917 213.827L215.536 250.661C215.442 250.73 215.328 250.765 215.212 250.762ZM213.415 247.23L215.293 249.534L259.882 213.35L258.004 211.035L213.415 247.23Z" fill="#484646"/>
<path d="M259.909 213.945L215.897 249.674L234.373 272.432L278.384 236.703L259.909 213.945Z" fill="white"/>
<path d="M234.375 272.971H234.273C234.208 272.964 234.145 272.945 234.087 272.913C234.03 272.882 233.979 272.839 233.938 272.788L215.506 250.021C215.421 249.916 215.381 249.781 215.394 249.647C215.408 249.512 215.473 249.388 215.577 249.301L259.587 213.573C259.694 213.489 259.83 213.451 259.964 213.466C260.099 213.481 260.222 213.549 260.308 213.654L278.781 236.41C278.862 236.518 278.901 236.651 278.893 236.786C278.874 236.919 278.809 237.041 278.71 237.131L234.689 272.849C234.603 272.926 234.491 272.97 234.375 272.971ZM216.612 249.768L234.446 271.742L277.675 236.654L259.841 214.689L216.612 249.768Z" fill="#484646"/>
<path d="M229.198 261.501C229.127 261.502 229.056 261.487 228.991 261.457C228.926 261.427 228.869 261.383 228.823 261.329L219.647 250.022C219.605 249.972 219.573 249.915 219.553 249.853C219.534 249.791 219.527 249.726 219.534 249.661C219.54 249.596 219.56 249.534 219.592 249.477C219.624 249.42 219.667 249.371 219.718 249.331L258.735 217.663C258.783 217.621 258.84 217.591 258.901 217.573C258.962 217.556 259.027 217.552 259.09 217.562C259.216 217.578 259.331 217.639 259.415 217.734L268.621 229.092C268.662 229.141 268.692 229.198 268.711 229.259C268.729 229.32 268.735 229.384 268.729 229.447C268.722 229.511 268.703 229.572 268.672 229.628C268.641 229.684 268.6 229.733 268.55 229.772L229.543 261.44C229.439 261.502 229.317 261.523 229.198 261.501ZM220.662 249.737L229.269 260.344L267.525 229.285L258.928 218.688L220.662 249.737Z" fill="#D1D1D1"/>
<path d="M249.782 256.852C249.709 256.853 249.636 256.836 249.569 256.805C249.502 256.773 249.443 256.727 249.397 256.67L244.9 251.128C244.859 251.079 244.829 251.022 244.811 250.961C244.794 250.9 244.789 250.836 244.799 250.773C244.804 250.71 244.822 250.648 244.852 250.593C244.881 250.537 244.922 250.487 244.971 250.448L254.665 242.582C254.714 242.541 254.77 242.51 254.831 242.492C254.892 242.473 254.956 242.467 255.02 242.474C255.083 242.48 255.144 242.499 255.2 242.53C255.256 242.561 255.305 242.603 255.345 242.653L259.841 248.195C259.882 248.243 259.913 248.3 259.931 248.361C259.95 248.422 259.956 248.486 259.949 248.55C259.943 248.613 259.923 248.674 259.893 248.73C259.862 248.786 259.82 248.835 259.77 248.875L250.087 256.741C250 256.81 249.893 256.85 249.782 256.852ZM245.956 250.894L249.854 255.685L258.786 248.428L254.898 243.637L245.956 250.894Z" fill="#D1D1D1"/>
<path d="M264.977 302.193C264.977 302.193 280.618 322.665 285.206 323.041C289.794 323.416 328.232 286.633 326.953 283.07C325.674 279.507 303.212 260.222 303.212 260.222L264.977 302.193Z" fill="#484646"/>
<path d="M285.257 323.548H285.165C280.486 323.162 266.185 304.618 264.571 302.507C264.492 302.415 264.449 302.298 264.449 302.177C264.449 302.056 264.492 301.939 264.571 301.847L302.806 259.877C302.901 259.784 303.028 259.732 303.161 259.732C303.294 259.732 303.422 259.784 303.517 259.877C304.43 260.669 326.09 279.284 327.4 282.938C327.592 283.466 327.491 284.4 325.268 287.302C317.859 296.965 289.814 323.548 285.257 323.548ZM265.637 302.233C270.154 308.1 281.735 322.259 285.247 322.533H285.307C288.535 322.533 312.083 301.35 322.629 288.926C326.588 284.268 326.496 283.334 326.476 283.232C325.461 280.472 309.728 266.505 303.253 260.902L265.637 302.233Z" fill="#484646"/>
<path d="M240.8 279.051C240.8 279.051 242.099 271.59 241.561 270.027C241.023 268.464 239.724 265.013 238.892 265.967C238.059 266.921 238.577 270.027 238.577 270.027C238.577 270.027 237.044 267.774 235.613 265.46C234.182 263.145 232.852 263.156 232.791 263.957C233.077 265.376 233.502 266.763 234.06 268.099C234.06 268.099 232.121 263.491 231.37 264.617C230.619 265.744 232.132 269.824 232.132 269.824C232.132 269.824 229.939 264.851 229.087 266.536C228.234 268.22 229.249 271.773 229.858 273.001C230.467 274.229 235.572 283.405 235.572 283.405L241.531 278.766" fill="white"/>
<path d="M235.613 283.851H235.512C235.441 283.836 235.373 283.807 235.314 283.765C235.255 283.723 235.205 283.67 235.166 283.608C234.963 283.232 230.091 274.402 229.442 273.174C228.792 271.946 227.726 268.18 228.67 266.262C228.744 266.081 228.869 265.925 229.029 265.814C229.19 265.702 229.379 265.639 229.574 265.632C229.8 265.668 230.017 265.748 230.213 265.868C230.408 265.988 230.577 266.146 230.711 266.333C230.575 265.648 230.657 264.938 230.944 264.303C231.027 264.169 231.144 264.061 231.283 263.99C231.423 263.918 231.579 263.886 231.736 263.897C231.946 263.93 232.143 264.021 232.304 264.16C232.295 264.066 232.295 263.971 232.304 263.876C232.316 263.663 232.395 263.459 232.53 263.293C232.665 263.127 232.849 263.008 233.055 262.953C233.948 262.729 235.085 263.562 236.1 265.155C236.75 266.17 237.43 267.246 237.968 268.068C237.893 267.208 238.107 266.347 238.577 265.622C238.68 265.499 238.815 265.406 238.967 265.353C239.118 265.299 239.282 265.287 239.44 265.318C239.785 265.389 240.607 265.551 242.099 269.885C242.566 271.235 241.855 276.107 241.51 278.239C241.605 278.213 241.705 278.217 241.797 278.25C241.89 278.283 241.97 278.342 242.028 278.421C242.111 278.526 242.149 278.66 242.134 278.793C242.118 278.926 242.051 279.048 241.947 279.132L235.989 283.77C235.879 283.846 235.744 283.875 235.613 283.851ZM229.604 266.657C228.924 268.048 229.716 271.347 230.365 272.676C230.883 273.691 234.7 280.583 235.786 282.542L240.312 279.02C240.308 278.99 240.308 278.959 240.312 278.929C240.8 276.087 241.449 271.205 241.084 270.159C240.069 267.114 239.44 266.454 239.247 266.292C238.831 266.891 238.902 268.698 239.084 269.844C239.104 269.957 239.085 270.073 239.029 270.173C238.974 270.272 238.886 270.35 238.78 270.393C238.673 270.436 238.554 270.442 238.443 270.408C238.332 270.375 238.236 270.305 238.171 270.21C238.171 270.21 236.608 267.926 235.187 265.632C234.172 263.978 233.39 263.856 233.289 263.886C233.58 265.232 233.998 266.547 234.537 267.814C234.562 267.876 234.574 267.941 234.573 268.007C234.572 268.073 234.558 268.138 234.531 268.199C234.505 268.259 234.466 268.314 234.419 268.359C234.371 268.405 234.315 268.441 234.253 268.464C234.192 268.49 234.127 268.504 234.061 268.504C233.995 268.505 233.93 268.492 233.869 268.466C233.809 268.44 233.754 268.403 233.708 268.355C233.662 268.308 233.627 268.252 233.603 268.19C233.155 267.012 232.528 265.91 231.746 264.922C231.492 265.663 231.979 267.825 232.619 269.55C232.662 269.676 232.656 269.813 232.601 269.934C232.547 270.055 232.447 270.15 232.324 270.2C232.203 270.248 232.068 270.247 231.947 270.198C231.826 270.149 231.728 270.055 231.675 269.936C231.209 268.716 230.506 267.602 229.604 266.657Z" fill="#484646"/>
<path d="M261.191 242.145C261.191 242.145 253.893 244.175 252.289 243.81C250.686 243.444 247.113 242.49 247.945 241.567C248.778 240.643 251.924 240.846 251.924 240.846C251.924 240.846 249.529 239.547 247.083 238.349C244.636 237.151 244.515 235.832 245.306 235.7C246.745 235.838 248.166 236.121 249.549 236.542C249.549 236.542 244.778 235.071 245.824 234.218C246.869 233.365 251.082 234.451 251.082 234.451C251.082 234.451 245.915 232.766 247.468 231.751C249.021 230.736 252.706 231.386 253.985 231.873C255.263 232.36 264.906 236.522 264.906 236.522L260.846 242.906" fill="white"/>
<path d="M252.787 244.358C252.579 244.362 252.371 244.341 252.168 244.297C247.712 243.282 247.458 242.45 247.357 242.104C247.309 241.952 247.303 241.789 247.341 241.633C247.378 241.478 247.458 241.335 247.57 241.221C248.245 240.682 249.081 240.383 249.945 240.369C249.072 239.912 247.976 239.354 246.9 238.806C245.215 237.984 244.281 236.948 244.413 236.035C244.449 235.824 244.551 235.63 244.704 235.48C244.858 235.331 245.054 235.234 245.266 235.202C245.314 235.227 245.367 235.24 245.421 235.238C245.475 235.236 245.528 235.22 245.574 235.192C245.62 235.164 245.659 235.125 245.685 235.078C245.712 235.031 245.726 234.977 245.726 234.923C245.726 234.869 245.712 234.816 245.685 234.769C245.659 234.722 245.62 234.682 245.574 234.654C245.528 234.626 245.475 234.611 245.421 234.609C245.367 234.607 245.314 234.619 245.266 234.644C245.236 234.491 245.25 234.333 245.305 234.188C245.361 234.043 245.456 233.916 245.58 233.822C246.193 233.464 246.904 233.311 247.61 233.386C247.21 233.151 246.919 232.768 246.798 232.32C246.785 232.124 246.829 231.929 246.925 231.758C247.02 231.587 247.163 231.447 247.336 231.356C249.153 230.239 253 230.95 254.289 231.437C255.578 231.924 264.845 235.923 265.241 236.096C265.308 236.125 265.368 236.168 265.417 236.223C265.466 236.277 265.503 236.341 265.525 236.41C265.545 236.48 265.551 236.552 265.542 236.624C265.533 236.695 265.51 236.764 265.474 236.826L261.414 243.221C261.341 243.333 261.228 243.413 261.097 243.444C260.966 243.474 260.829 243.452 260.714 243.383C260.631 243.333 260.564 243.258 260.522 243.17C260.481 243.081 260.466 242.983 260.481 242.886C257.968 243.616 255.392 244.109 252.787 244.358ZM248.372 241.901C248.544 242.074 249.305 242.622 252.432 243.353C253.507 243.607 258.308 242.47 261.079 241.698H261.171L264.216 236.847C262.186 235.954 254.939 232.838 253.853 232.432C252.462 231.914 249.113 231.417 247.763 232.269C247.692 232.269 247.681 232.34 247.681 232.34C248.753 233.105 249.953 233.672 251.224 234.015C251.351 234.055 251.458 234.143 251.52 234.261C251.583 234.379 251.597 234.516 251.559 234.644C251.521 234.771 251.435 234.878 251.319 234.943C251.204 235.007 251.067 235.024 250.94 234.989C249.153 234.522 246.951 234.269 246.25 234.583C247.31 235.268 248.471 235.782 249.691 236.106C249.826 236.144 249.94 236.233 250.008 236.355C250.077 236.477 250.094 236.621 250.056 236.755C250.019 236.89 249.929 237.004 249.807 237.073C249.686 237.141 249.541 237.159 249.407 237.121C248.086 236.704 246.725 236.425 245.347 236.289C245.347 236.38 245.54 237.141 247.265 237.984C249.691 239.171 252.097 240.48 252.127 240.491C252.231 240.545 252.313 240.635 252.358 240.743C252.404 240.851 252.41 240.972 252.377 241.084C252.343 241.197 252.272 241.294 252.174 241.36C252.077 241.426 251.96 241.456 251.843 241.445C250.716 241.282 248.899 241.394 248.372 241.901Z" fill="#484646"/>
<path d="M275.888 288.592C274.096 292.104 272.576 295.748 271.341 299.493C271.341 299.493 256.512 295.433 255.517 294.925C254.523 294.418 242.231 276.006 242.231 276.006L233.928 281.974C233.928 281.974 244.982 301.015 247.61 303.289C250.239 305.562 266.662 313.307 272.63 314.048C278.598 314.789 290.961 307.481 299.101 299.259C307.242 291.038 316.793 274.179 315.25 267.977C313.707 261.775 308.795 258.375 306.917 257.116C305.039 255.858 295.072 246.571 293.448 245.545C291.824 244.52 263.891 234.076 263.891 234.076L260.917 242.917C260.917 242.917 286.12 253.767 287.612 254.721C289.104 255.675 300.279 270.961 300.279 270.961C300.279 270.961 291.519 273.641 287.256 276.665C282.993 279.69 275.888 288.592 275.888 288.592Z" fill="#FF931E"/>
<path d="M303.05 287.333C302.791 284.139 301.774 281.052 300.083 278.33C298.392 275.608 296.075 273.328 293.326 271.682C290.884 270.124 287.985 269.44 285.104 269.743C283.673 269.919 282.322 270.5 281.209 271.417C280.097 272.333 279.268 273.549 278.822 274.919C278.055 274.696 277.246 274.657 276.461 274.805C275.676 274.953 274.938 275.285 274.305 275.772C270.864 278.289 271.037 283.324 271.788 287.049C272.262 289.694 273.171 292.242 274.477 294.59C276.203 297.323 278.679 299.503 281.608 300.868C284.538 302.234 287.799 302.729 291.002 302.294C294.493 301.707 297.647 299.86 299.868 297.102C302.088 294.345 303.22 290.869 303.05 287.333Z" fill="white"/>
<path d="M288.758 302.954C285.816 302.967 282.92 302.228 280.344 300.807C277.768 299.386 275.598 297.33 274.041 294.834C272.703 292.436 271.773 289.833 271.29 287.13C270.499 283.232 270.275 277.995 274.01 275.346C274.643 274.87 275.367 274.529 276.137 274.346C276.908 274.163 277.707 274.14 278.487 274.28C279.022 272.924 279.912 271.738 281.064 270.845C282.216 269.952 283.587 269.386 285.033 269.205C288.032 268.904 291.046 269.619 293.59 271.235C296.413 272.919 298.791 275.254 300.525 278.046C302.259 280.838 303.299 284.005 303.557 287.282C303.745 290.945 302.582 294.548 300.288 297.409C297.994 300.271 294.729 302.189 291.113 302.802C290.333 302.91 289.546 302.961 288.758 302.954ZM277.472 275.204C276.434 275.233 275.433 275.588 274.609 276.219C271.361 278.584 271.564 283.374 272.285 286.978C272.743 289.57 273.631 292.068 274.914 294.367C276.59 297.01 278.992 299.115 281.832 300.431C284.672 301.746 287.83 302.217 290.93 301.787C294.297 301.223 297.34 299.443 299.481 296.784C301.621 294.125 302.711 290.773 302.542 287.363C302.296 284.253 301.308 281.248 299.66 278.598C298.012 275.949 295.753 273.734 293.072 272.138C290.726 270.642 287.945 269.978 285.175 270.25C283.845 270.418 282.588 270.958 281.552 271.81C280.516 272.661 279.741 273.789 279.319 275.062C279.277 275.194 279.186 275.307 279.065 275.376C279.001 275.404 278.932 275.418 278.862 275.418C278.792 275.418 278.723 275.404 278.659 275.376C278.275 275.257 277.874 275.198 277.472 275.204Z" fill="#484646"/>
<path d="M292.676 297.727C292.499 298.627 292.631 299.56 293.052 300.376C293.352 300.762 293.601 301.185 293.793 301.634C293.874 302.053 293.853 302.484 293.732 302.893C293.479 304.003 293.164 305.097 292.788 306.171C292.713 306.315 292.691 306.48 292.727 306.638C292.829 306.943 293.255 306.953 293.58 306.902C295.701 306.587 297.904 306.232 299.67 304.963C300.721 304.083 301.565 302.982 302.143 301.738C302.72 300.494 303.016 299.138 303.009 297.767C303.009 295.605 302.501 291.86 299.812 291.606C296.543 291.322 293.143 294.742 292.676 297.727Z" fill="white"/>
<path d="M293.306 307.46C293.09 307.475 292.876 307.422 292.694 307.307C292.511 307.192 292.37 307.022 292.291 306.821C292.215 306.556 292.233 306.273 292.341 306.019C292.717 304.97 293.029 303.899 293.275 302.812C293.375 302.483 293.4 302.136 293.346 301.797C293.253 301.546 293.119 301.313 292.95 301.106C292.849 300.964 292.747 300.812 292.656 300.66C292.167 299.746 292.013 298.691 292.22 297.676C292.707 294.448 296.341 290.804 299.863 291.129C302.623 291.393 303.567 294.753 303.517 297.808C303.519 299.256 303.203 300.686 302.591 301.999C301.979 303.311 301.086 304.472 299.974 305.4C298.107 306.78 295.66 307.146 293.701 307.43L293.306 307.46ZM293.235 306.445C293.325 306.46 293.418 306.46 293.509 306.445C295.457 306.151 297.67 305.826 299.325 304.598C300.316 303.765 301.111 302.724 301.653 301.549C302.195 300.373 302.471 299.092 302.461 297.798C302.461 297.249 302.461 292.408 299.72 292.154C296.747 291.86 293.63 295.098 293.184 297.838C293.023 298.625 293.131 299.443 293.488 300.163L293.742 300.528C294.036 300.869 294.235 301.28 294.321 301.722C294.406 302.163 294.375 302.62 294.229 303.045C293.974 304.173 293.652 305.285 293.265 306.374L293.235 306.445Z" fill="#484646"/>
<path d="M196.332 274.29C198.953 274.031 201.574 274.776 203.667 276.373C205.76 277.971 207.17 280.303 207.612 282.899C208.053 285.494 207.494 288.161 206.047 290.361C204.6 292.561 202.373 294.13 199.814 294.753L200.2 298.528C200.231 298.717 200.224 298.911 200.178 299.097C200.132 299.283 200.048 299.457 199.932 299.609C199.816 299.762 199.67 299.889 199.503 299.982C199.336 300.076 199.151 300.134 198.961 300.154C198.77 300.173 198.578 300.153 198.395 300.095C198.212 300.038 198.044 299.943 197.899 299.817C197.755 299.691 197.637 299.537 197.555 299.365C197.472 299.192 197.426 299.004 197.419 298.813L197.033 295.037C194.399 294.945 191.898 293.856 190.035 291.991C188.173 290.127 187.088 287.624 186.999 284.99C186.91 282.356 187.824 279.787 189.556 277.8C191.289 275.814 193.711 274.56 196.332 274.29Z" fill="white"/>
<path d="M198.809 300.579C198.336 300.579 197.881 300.403 197.53 300.086C197.179 299.769 196.959 299.334 196.911 298.863L196.576 295.524C193.85 295.328 191.297 294.117 189.421 292.129C187.546 290.141 186.484 287.521 186.447 284.788C186.41 282.056 187.4 279.408 189.221 277.37C191.042 275.332 193.562 274.052 196.282 273.783C198.965 273.564 201.635 274.344 203.778 275.975C205.92 277.606 207.384 279.971 207.888 282.616C208.392 285.261 207.9 287.999 206.507 290.303C205.114 292.607 202.918 294.315 200.342 295.098L200.687 298.437C200.738 298.94 200.587 299.443 200.267 299.835C199.947 300.228 199.485 300.477 198.982 300.528L198.809 300.579ZM196.383 274.798C193.893 275.059 191.595 276.255 189.952 278.143C188.309 280.032 187.442 282.473 187.527 284.975C187.612 287.478 188.642 289.854 190.41 291.627C192.177 293.4 194.551 294.437 197.053 294.529C197.176 294.534 197.293 294.582 197.382 294.666C197.472 294.75 197.528 294.864 197.54 294.986L197.926 298.762C197.937 298.882 197.973 298.999 198.03 299.105C198.088 299.212 198.167 299.305 198.262 299.38C198.357 299.455 198.466 299.51 198.583 299.542C198.699 299.573 198.821 299.581 198.941 299.564C199.061 299.551 199.176 299.515 199.282 299.457C199.387 299.398 199.479 299.319 199.553 299.225C199.627 299.13 199.681 299.021 199.712 298.905C199.743 298.789 199.75 298.668 199.733 298.549L199.347 294.763C199.335 294.64 199.368 294.517 199.441 294.417C199.514 294.318 199.622 294.249 199.743 294.225C202.184 293.639 204.312 292.147 205.694 290.052C207.077 287.956 207.611 285.413 207.19 282.938C206.768 280.463 205.421 278.241 203.422 276.722C201.423 275.203 198.921 274.501 196.424 274.757L196.383 274.798Z" fill="#484646"/>
<path d="M197.388 292.002C201.452 292.002 204.747 288.707 204.747 284.643C204.747 280.579 201.452 277.284 197.388 277.284C193.324 277.284 190.029 280.579 190.029 284.643C190.029 288.707 193.324 292.002 197.388 292.002Z" fill="#484646"/>
<path d="M197.368 292.509C195.336 292.532 193.375 291.766 191.896 290.373C190.417 288.98 189.535 287.069 189.436 285.04C189.336 283.011 190.026 281.022 191.361 279.491C192.696 277.959 194.573 277.005 196.596 276.828C198.671 276.618 200.743 277.24 202.358 278.558C203.973 279.877 204.999 281.782 205.209 283.857C205.419 285.931 204.796 288.003 203.478 289.618C202.16 291.234 200.254 292.259 198.18 292.469C197.91 292.498 197.639 292.511 197.368 292.509ZM196.718 277.832C195.144 277.993 193.673 278.694 192.558 279.817C191.442 280.94 190.751 282.415 190.601 283.991C190.451 285.567 190.852 287.145 191.736 288.458C192.62 289.772 193.932 290.737 195.448 291.192C196.964 291.646 198.591 291.56 200.051 290.95C201.511 290.339 202.715 289.241 203.456 287.842C204.197 286.444 204.43 284.831 204.116 283.28C203.802 281.729 202.959 280.334 201.732 279.335C200.326 278.19 198.523 277.65 196.718 277.832Z" fill="#484646"/>
<path d="M120.938 196.034C123.471 196.79 125.62 198.481 126.951 200.764C128.282 203.047 128.694 205.751 128.103 208.327C127.513 210.903 125.965 213.157 123.772 214.633C121.58 216.109 118.908 216.695 116.3 216.273L115.214 219.906C115.092 220.243 114.846 220.52 114.527 220.681C114.207 220.842 113.838 220.875 113.495 220.772C113.152 220.67 112.861 220.44 112.683 220.13C112.504 219.819 112.451 219.453 112.534 219.105L113.63 215.471C111.218 214.385 109.311 212.421 108.295 209.979C107.279 207.536 107.232 204.799 108.163 202.323C109.094 199.847 110.933 197.819 113.306 196.65C115.679 195.482 118.408 195.262 120.938 196.034Z" fill="white"/>
<path d="M113.874 221.409C113.688 221.412 113.503 221.384 113.326 221.327C113.085 221.257 112.861 221.139 112.666 220.981C112.472 220.823 112.31 220.628 112.191 220.407C112.072 220.186 111.998 219.944 111.973 219.694C111.949 219.444 111.974 219.192 112.047 218.952L113.062 215.735C110.594 214.518 108.677 212.415 107.695 209.845C106.712 207.275 106.737 204.429 107.764 201.877C108.79 199.324 110.743 197.254 113.231 196.08C115.72 194.906 118.559 194.716 121.182 195.546C123.838 196.297 126.111 198.025 127.543 200.384C128.975 202.744 129.46 205.558 128.901 208.26C128.341 210.963 126.778 213.353 124.526 214.949C122.275 216.545 119.502 217.228 116.767 216.861L115.802 220.089C115.655 220.572 115.323 220.976 114.879 221.216C114.568 221.371 114.22 221.438 113.874 221.409ZM117.934 196.095C115.68 196.111 113.5 196.896 111.752 198.318C110.004 199.741 108.794 201.718 108.321 203.921C107.848 206.125 108.14 208.424 109.15 210.439C110.159 212.453 111.826 214.064 113.874 215.004C113.987 215.053 114.079 215.143 114.131 215.255C114.184 215.367 114.193 215.494 114.158 215.613L113.062 219.247C113.026 219.358 113.014 219.476 113.024 219.593C113.035 219.71 113.068 219.823 113.123 219.927C113.177 220.03 113.252 220.121 113.343 220.195C113.433 220.268 113.538 220.322 113.651 220.353C113.877 220.423 114.121 220.4 114.331 220.29C114.54 220.179 114.697 219.99 114.767 219.764L115.863 216.121C115.897 216.004 115.972 215.904 116.076 215.84C116.179 215.776 116.302 215.753 116.422 215.775C117.766 215.979 119.138 215.903 120.451 215.553C121.765 215.203 122.993 214.586 124.057 213.74C125.122 212.895 126.001 211.839 126.639 210.639C127.278 209.438 127.662 208.119 127.769 206.764C127.875 205.409 127.701 204.046 127.257 202.761C126.813 201.476 126.11 200.296 125.19 199.295C124.27 198.294 123.153 197.493 121.91 196.942C120.667 196.392 119.324 196.103 117.964 196.095H117.934Z" fill="#484646"/>
<path d="M117.934 213.36C121.998 213.36 125.293 210.065 125.293 206.001C125.293 201.937 121.998 198.642 117.934 198.642C113.87 198.642 110.575 201.937 110.575 206.001C110.575 210.065 113.87 213.36 117.934 213.36Z" fill="#484646"/>
<path d="M117.944 213.867C117.174 213.866 116.408 213.753 115.67 213.532C113.769 212.959 112.154 211.687 111.151 209.972C110.148 208.257 109.831 206.226 110.264 204.288C110.697 202.349 111.847 200.645 113.484 199.52C115.121 198.394 117.123 197.929 119.088 198.219C121.053 198.508 122.836 199.531 124.079 201.081C125.321 202.63 125.932 204.593 125.787 206.574C125.642 208.556 124.753 210.409 123.298 211.762C121.843 213.114 119.931 213.867 117.944 213.867ZM117.944 199.15C116.474 199.156 115.045 199.634 113.867 200.513C112.688 201.391 111.823 202.625 111.397 204.032C111.01 205.327 111.015 206.708 111.412 208.001C111.809 209.293 112.58 210.439 113.628 211.294C114.676 212.148 115.954 212.673 117.3 212.802C118.645 212.931 119.999 212.658 121.19 212.018C122.381 211.378 123.356 210.399 123.991 209.205C124.626 208.012 124.893 206.657 124.759 205.311C124.624 203.966 124.094 202.691 123.235 201.646C122.377 200.602 121.228 199.836 119.933 199.444C119.281 199.249 118.604 199.15 117.924 199.15H117.944Z" fill="#484646"/>
<path d="M188.02 118.63C188.072 121.302 187.094 123.893 185.288 125.863C183.481 127.834 180.986 129.034 178.319 129.214C175.652 129.394 173.018 128.541 170.963 126.831C168.908 125.121 167.591 122.686 167.283 120.03H163.487C163.294 120.047 163.099 120.023 162.916 119.96C162.732 119.898 162.563 119.798 162.421 119.667C162.278 119.535 162.164 119.376 162.086 119.198C162.008 119.021 161.967 118.829 161.967 118.635C161.967 118.441 162.008 118.249 162.086 118.071C162.164 117.894 162.278 117.734 162.421 117.603C162.563 117.472 162.732 117.372 162.916 117.309C163.099 117.247 163.294 117.223 163.487 117.239H167.283C167.649 114.636 168.987 112.268 171.027 110.611C173.068 108.954 175.66 108.131 178.283 108.307C180.905 108.484 183.364 109.646 185.165 111.561C186.965 113.476 187.975 116.001 187.989 118.63H188.02Z" fill="white"/>
<path d="M177.616 129.541C175.054 129.538 172.575 128.635 170.612 126.989C168.649 125.343 167.327 123.06 166.877 120.538H163.518C163.256 120.557 162.993 120.522 162.746 120.435C162.498 120.348 162.271 120.211 162.079 120.032C161.887 119.854 161.734 119.638 161.629 119.397C161.524 119.157 161.47 118.897 161.47 118.635C161.47 118.373 161.524 118.113 161.629 117.873C161.734 117.632 161.887 117.416 162.079 117.237C162.271 117.059 162.498 116.922 162.746 116.835C162.993 116.748 163.256 116.713 163.518 116.732H166.877C167.239 114.686 168.176 112.786 169.58 111.255C170.984 109.725 172.796 108.626 174.802 108.089C176.809 107.552 178.927 107.599 180.907 108.225C182.888 108.85 184.649 110.028 185.984 111.62C187.318 113.212 188.171 115.151 188.441 117.211C188.711 119.27 188.388 121.364 187.509 123.246C186.63 125.128 185.232 126.72 183.48 127.835C181.727 128.95 179.693 129.542 177.616 129.541ZM163.518 117.747C163.393 117.733 163.267 117.746 163.148 117.785C163.029 117.823 162.919 117.887 162.826 117.97C162.732 118.054 162.658 118.157 162.607 118.271C162.556 118.386 162.529 118.51 162.529 118.635C162.529 118.76 162.556 118.884 162.607 118.999C162.658 119.113 162.732 119.215 162.826 119.299C162.919 119.383 163.029 119.446 163.148 119.485C163.267 119.523 163.393 119.536 163.518 119.523H167.283C167.406 119.525 167.524 119.571 167.616 119.653C167.707 119.735 167.766 119.848 167.781 119.97C168.119 122.455 169.389 124.72 171.334 126.305C173.278 127.891 175.752 128.678 178.255 128.508C180.758 128.339 183.104 127.225 184.817 125.392C186.53 123.559 187.483 121.144 187.483 118.635C187.483 116.126 186.53 113.711 184.817 111.878C183.104 110.045 180.758 108.931 178.255 108.761C175.752 108.592 173.278 109.379 171.334 110.964C169.389 112.55 168.119 114.814 167.781 117.3C167.766 117.422 167.707 117.535 167.616 117.617C167.524 117.699 167.406 117.745 167.283 117.747H163.518Z" fill="#484646"/>
<path d="M177.616 125.988C181.68 125.988 184.975 122.694 184.975 118.63C184.975 114.566 181.68 111.271 177.616 111.271C173.552 111.271 170.257 114.566 170.257 118.63C170.257 122.694 173.552 125.988 177.616 125.988Z" fill="#484646"/>
<path d="M177.616 126.496C176.06 126.496 174.539 126.035 173.246 125.17C171.952 124.306 170.944 123.077 170.349 121.64C169.753 120.203 169.597 118.621 169.901 117.095C170.204 115.569 170.954 114.168 172.054 113.067C173.154 111.967 174.555 111.218 176.081 110.915C177.607 110.611 179.189 110.767 180.626 111.362C182.064 111.958 183.292 112.966 184.157 114.259C185.021 115.553 185.482 117.074 185.482 118.63C185.48 120.715 184.65 122.714 183.175 124.189C181.701 125.664 179.701 126.493 177.616 126.496ZM177.616 111.789C176.261 111.789 174.936 112.191 173.809 112.944C172.682 113.697 171.804 114.768 171.285 116.02C170.767 117.273 170.632 118.651 170.897 119.98C171.162 121.31 171.816 122.53 172.775 123.488C173.734 124.446 174.956 125.098 176.286 125.361C177.615 125.624 178.993 125.487 180.245 124.967C181.497 124.447 182.566 123.567 183.318 122.439C184.069 121.311 184.469 119.985 184.467 118.63C184.465 116.814 183.742 115.074 182.457 113.792C181.172 112.509 179.431 111.789 177.616 111.789Z" fill="#484646"/>
<path d="M301.263 181.58C301.249 184.209 300.24 186.734 298.439 188.649C296.638 190.564 294.179 191.726 291.557 191.902C288.934 192.079 286.342 191.255 284.301 189.598C282.261 187.941 280.923 185.574 280.557 182.971H276.761C276.568 182.987 276.373 182.963 276.19 182.901C276.006 182.838 275.838 182.738 275.695 182.607C275.552 182.475 275.438 182.316 275.36 182.138C275.282 181.961 275.241 181.769 275.241 181.575C275.241 181.381 275.282 181.189 275.36 181.012C275.438 180.834 275.552 180.674 275.695 180.543C275.838 180.412 276.006 180.312 276.19 180.249C276.373 180.187 276.568 180.163 276.761 180.179H280.557C280.923 177.576 282.262 175.207 284.304 173.55C286.345 171.893 288.938 171.071 291.562 171.248C294.185 171.426 296.644 172.59 298.444 174.507C300.244 176.423 301.251 178.951 301.263 181.58Z" fill="white"/>
<path d="M290.88 192.481C288.319 192.48 285.84 191.577 283.878 189.931C281.917 188.284 280.597 186 280.151 183.478H276.792C276.53 183.497 276.267 183.462 276.02 183.375C275.772 183.288 275.546 183.151 275.353 182.973C275.161 182.794 275.008 182.578 274.903 182.337C274.798 182.097 274.744 181.837 274.744 181.575C274.744 181.313 274.798 181.053 274.903 180.813C275.008 180.572 275.161 180.356 275.353 180.177C275.546 179.999 275.772 179.862 276.02 179.775C276.267 179.688 276.53 179.653 276.792 179.672H280.151C280.513 177.626 281.451 175.726 282.855 174.195C284.259 172.664 286.071 171.565 288.079 171.029C290.086 170.492 292.204 170.54 294.185 171.166C296.166 171.792 297.927 172.971 299.261 174.564C300.595 176.157 301.447 178.097 301.716 180.157C301.985 182.217 301.66 184.311 300.78 186.193C299.899 188.075 298.5 189.666 296.746 190.78C294.993 191.894 292.957 192.484 290.88 192.481ZM276.792 180.687C276.667 180.674 276.541 180.687 276.422 180.725C276.303 180.764 276.193 180.827 276.1 180.911C276.006 180.994 275.932 181.097 275.881 181.211C275.83 181.326 275.803 181.45 275.803 181.575C275.803 181.7 275.83 181.824 275.881 181.939C275.932 182.053 276.006 182.156 276.1 182.239C276.193 182.323 276.303 182.386 276.422 182.425C276.541 182.463 276.667 182.476 276.792 182.463H280.588C280.711 182.465 280.829 182.511 280.92 182.593C281.012 182.675 281.07 182.788 281.085 182.91C281.423 185.396 282.693 187.66 284.638 189.246C286.583 190.831 289.057 191.618 291.56 191.449C294.063 191.279 296.408 190.165 298.121 188.332C299.834 186.499 300.787 184.084 300.787 181.575C300.787 179.066 299.834 176.651 298.121 174.818C296.408 172.985 294.063 171.871 291.56 171.701C289.057 171.532 286.583 172.319 284.638 173.904C282.693 175.49 281.423 177.754 281.085 180.24C281.07 180.362 281.012 180.475 280.92 180.557C280.829 180.639 280.711 180.685 280.588 180.687H276.792Z" fill="#484646"/>
<path d="M290.89 188.939C294.954 188.939 298.249 185.644 298.249 181.58C298.249 177.516 294.954 174.221 290.89 174.221C286.826 174.221 283.531 177.516 283.531 181.58C283.531 185.644 286.826 188.939 290.89 188.939Z" fill="#484646"/>
<path d="M290.89 189.436C289.333 189.438 287.811 188.978 286.516 188.115C285.221 187.251 284.211 186.023 283.614 184.585C283.018 183.147 282.861 181.565 283.164 180.038C283.467 178.511 284.217 177.108 285.318 176.008C286.418 174.907 287.821 174.158 289.348 173.854C290.875 173.551 292.457 173.708 293.895 174.304C295.333 174.901 296.561 175.911 297.425 177.206C298.288 178.501 298.748 180.023 298.746 181.58C298.743 183.663 297.915 185.659 296.442 187.132C294.969 188.605 292.973 189.433 290.89 189.436ZM290.89 174.729C289.534 174.727 288.209 175.127 287.081 175.879C285.953 176.63 285.073 177.699 284.553 178.951C284.033 180.203 283.896 181.581 284.159 182.91C284.422 184.24 285.074 185.462 286.032 186.421C286.989 187.38 288.21 188.034 289.539 188.299C290.869 188.564 292.247 188.429 293.499 187.911C294.752 187.393 295.822 186.514 296.576 185.387C297.329 184.261 297.731 182.936 297.731 181.58C297.728 179.766 297.007 178.026 295.725 176.742C294.443 175.458 292.704 174.734 290.89 174.729Z" fill="#484646"/>
<path d="M279.471 158.083C279.471 158.083 271.584 163.391 269.828 163.807C268.073 164.224 258.988 163.939 258.988 163.939L267.616 151.688C267.616 151.688 273.706 150.42 276.842 150.744C279.978 151.069 279.471 158.083 279.471 158.083Z" fill="white"/>
<path d="M264.977 164.548C262.145 164.548 259.181 164.447 258.968 164.447C258.877 164.44 258.79 164.411 258.713 164.361C258.637 164.311 258.574 164.243 258.532 164.163C258.487 164.084 258.464 163.994 258.464 163.904C258.464 163.813 258.487 163.724 258.532 163.645L267.159 151.394C267.235 151.289 267.347 151.217 267.474 151.191C267.717 151.191 273.665 149.902 276.852 150.247C280.446 150.623 279.958 157.819 279.897 158.123C279.892 158.2 279.869 158.275 279.83 158.342C279.792 158.409 279.738 158.466 279.674 158.509C278.862 159.057 271.676 163.868 269.879 164.305C268.254 164.512 266.615 164.593 264.977 164.548ZM259.902 163.452C262.876 163.533 268.438 163.615 269.676 163.32C270.915 163.026 276.619 159.352 278.933 157.809C279.035 155.84 278.822 151.475 276.741 151.252C274.021 150.968 268.925 151.932 267.87 152.145L259.902 163.452Z" fill="#484646"/>
<path d="M245.905 127.816C246.173 129.21 246.245 130.634 246.118 132.048C245.885 133.439 246.91 138.453 246.91 138.453L237.318 146.492C237.318 146.492 234.943 134.312 235.542 132.282C236.746 129.278 238.101 126.338 239.602 123.471L245.905 127.816Z" fill="white"/>
<path d="M237.318 146.979C237.265 146.988 237.21 146.988 237.156 146.979C237.073 146.95 236.998 146.9 236.94 146.834C236.881 146.769 236.84 146.689 236.821 146.603C236.577 145.345 234.436 134.281 235.055 132.15C236.254 129.114 237.609 126.143 239.115 123.248C239.148 123.184 239.194 123.128 239.25 123.083C239.306 123.037 239.37 123.004 239.44 122.984C239.511 122.967 239.585 122.965 239.657 122.979C239.728 122.993 239.796 123.023 239.856 123.065L246.189 127.43C246.263 127.486 246.322 127.559 246.362 127.643C246.673 129.131 246.759 130.657 246.616 132.17C246.433 133.185 247.123 137.011 247.397 138.382C247.418 138.472 247.413 138.567 247.382 138.655C247.352 138.743 247.297 138.821 247.225 138.879L237.603 146.887C237.52 146.947 237.42 146.979 237.318 146.979ZM239.764 124.162C238.361 126.825 237.104 129.562 235.999 132.363C235.603 133.723 236.709 140.655 237.623 145.487L246.362 138.219C246.118 137.042 245.398 133.205 245.621 131.926C245.716 130.655 245.655 129.376 245.438 128.12L239.764 124.162Z" fill="#484646"/>
<path d="M310.55 116.478C311.403 121.634 303.344 150.907 301.75 152.541C300.157 154.175 278.842 161.585 278.842 161.585L275.31 149.354C275.31 149.354 290.464 142.411 291.367 141.66C292.27 140.909 294.412 129.744 294.412 129.744C294.412 129.744 280.953 127.714 275.949 123.451C270.945 119.188 266.408 105.282 263.901 104.724C261.394 104.166 253.832 108.693 252.736 110.611C251.64 112.53 248.97 129.795 248.97 129.795L236.303 125.857C236.303 125.857 239.876 107.993 241.967 102.877C244.058 97.7613 268.225 86.1294 270.976 85.8554C273.726 85.5813 309.698 111.332 310.55 116.478Z" fill="#FF931E"/>
<path d="M263.099 115.676C263.445 119.16 264.864 122.451 267.159 125.095C267.159 125.095 266.53 126.841 267.789 127.308C268.48 127.59 269.224 127.721 269.971 127.694C269.971 127.694 277.644 131.642 281.552 129.724C285.46 127.805 280.09 112.134 273.351 112.286C266.611 112.438 263.099 115.676 263.099 115.676Z" fill="white"/>
<path d="M278.933 130.759C275.178 130.759 270.702 128.617 269.879 128.201C269.109 128.206 268.344 128.065 267.626 127.785C267.167 127.564 266.807 127.178 266.619 126.704C266.431 126.23 266.428 125.703 266.611 125.227C264.349 122.531 262.961 119.211 262.632 115.707C262.628 115.631 262.64 115.555 262.668 115.485C262.696 115.415 262.739 115.352 262.795 115.301C262.937 115.158 266.5 111.931 273.361 111.778C278.03 111.626 281.775 118.346 282.943 123.116C283.836 126.75 283.409 129.389 281.796 130.221C280.894 130.612 279.916 130.796 278.933 130.759ZM269.94 127.206C270.017 127.191 270.097 127.191 270.174 127.206C270.255 127.206 277.675 131.023 281.339 129.236C282.455 128.688 282.699 126.374 281.948 123.329C280.699 118.254 277.106 112.763 273.452 112.763H273.371C269.892 112.719 266.489 113.785 263.658 115.808C264.03 119.084 265.381 122.172 267.535 124.669C267.598 124.737 267.642 124.821 267.662 124.912C267.682 125.004 267.676 125.098 267.647 125.187C267.647 125.187 267.21 126.466 267.971 126.76C268.593 127.012 269.26 127.13 269.93 127.105L269.94 127.206Z" fill="#484646"/>
<path d="M263.099 115.676C264.382 117.273 266.094 118.47 268.035 119.124C269.976 119.779 272.063 119.865 274.051 119.371C274.051 119.371 275.066 127.034 281.532 129.724C281.532 129.724 293.387 125.166 295.833 116.346C298.279 107.526 292.443 100.228 285.571 97.1828C278.7 94.1378 261.577 98.1572 263.099 115.676Z" fill="white"/>
<path d="M281.532 130.251C281.468 130.266 281.402 130.266 281.339 130.251C275.645 127.866 274.021 121.888 273.645 120.041C271.622 120.417 269.535 120.237 267.606 119.52C265.678 118.803 263.979 117.577 262.693 115.97C262.642 115.895 262.611 115.808 262.602 115.717C261.82 106.693 265.87 101.781 269.413 99.2534C274.873 95.3253 281.978 95.0208 285.784 96.7565C292.656 99.8015 298.878 107.292 296.32 116.529C293.833 125.491 282.212 130.048 281.714 130.241C281.654 130.254 281.593 130.258 281.532 130.251ZM274.051 118.883C274.174 118.885 274.292 118.931 274.384 119.013C274.475 119.095 274.534 119.208 274.548 119.33C274.548 119.401 275.624 126.577 281.542 129.196C283.044 128.567 293.153 124.121 295.346 116.234C297.741 107.576 291.854 100.542 285.368 97.67C281.745 96.0561 274.995 96.5332 269.991 100.106C266.692 102.461 262.886 107.049 263.586 115.504C264.81 116.996 266.434 118.109 268.268 118.711C270.102 119.313 272.069 119.38 273.939 118.904L274.051 118.883Z" fill="#484646"/>
<path d="M233.947 153.228L254.877 167.629C256.147 168.503 257.885 168.181 258.759 166.911L269.242 151.676C270.115 150.406 269.794 148.668 268.524 147.794L247.595 133.394C246.325 132.52 244.587 132.841 243.713 134.111L233.23 149.346C232.356 150.616 232.677 152.354 233.947 153.228Z" fill="white"/>
<path d="M256.431 168.639C255.764 168.637 255.114 168.435 254.563 168.06L233.634 153.657C232.914 153.161 232.421 152.398 232.263 151.538C232.105 150.678 232.295 149.79 232.791 149.07L243.266 133.845C243.763 133.125 244.525 132.632 245.384 132.472C246.244 132.312 247.132 132.499 247.854 132.992L268.783 147.385C269.142 147.629 269.448 147.942 269.685 148.305C269.922 148.668 270.085 149.075 270.164 149.501C270.244 149.928 270.238 150.366 270.147 150.79C270.056 151.214 269.883 151.616 269.636 151.973L259.161 167.198C258.858 167.642 258.451 168.006 257.975 168.257C257.499 168.509 256.969 168.64 256.431 168.639ZM245.986 133.418C245.614 133.421 245.248 133.515 244.921 133.692C244.594 133.869 244.315 134.123 244.109 134.433L233.624 149.658C233.283 150.158 233.154 150.773 233.264 151.368C233.374 151.963 233.715 152.49 234.212 152.835L255.142 167.228C255.388 167.399 255.667 167.52 255.96 167.583C256.254 167.647 256.558 167.651 256.853 167.596C257.148 167.541 257.43 167.429 257.682 167.264C257.933 167.1 258.15 166.888 258.319 166.639L268.804 151.414C269.144 150.914 269.274 150.3 269.163 149.705C269.053 149.109 268.712 148.582 268.215 148.237L247.286 133.824C246.904 133.56 246.451 133.418 245.986 133.418Z" fill="#484646"/>
<path d="M236.202 151.76L255.442 164.999C256.112 165.46 257.028 165.29 257.489 164.621L266.654 151.3C267.115 150.631 266.945 149.714 266.276 149.254L247.035 136.015C246.366 135.554 245.449 135.724 244.988 136.393L235.823 149.714C235.363 150.383 235.532 151.3 236.202 151.76Z" fill="white"/>
<path d="M256.248 165.777C255.85 165.773 255.462 165.653 255.131 165.431L235.846 152.236C235.631 152.089 235.447 151.9 235.306 151.68C235.164 151.461 235.069 151.215 235.024 150.958C234.973 150.704 234.975 150.442 235.029 150.189C235.083 149.936 235.188 149.696 235.339 149.486L244.474 136.159C244.78 135.738 245.236 135.45 245.748 135.356C246.26 135.261 246.789 135.367 247.225 135.651L266.51 148.846C266.931 149.152 267.218 149.608 267.313 150.12C267.407 150.632 267.301 151.161 267.017 151.597L257.882 164.924C257.696 165.185 257.451 165.398 257.167 165.546C256.883 165.695 256.568 165.773 256.248 165.777ZM246.169 136.281C246.014 136.285 245.862 136.325 245.725 136.397C245.588 136.469 245.469 136.572 245.377 136.697L236.242 150.014C236.103 150.226 236.049 150.483 236.09 150.734C236.143 150.984 236.288 151.205 236.496 151.353L255.781 164.548C255.884 164.621 256 164.673 256.123 164.7C256.246 164.727 256.373 164.73 256.497 164.707C256.621 164.684 256.739 164.637 256.845 164.568C256.95 164.499 257.04 164.409 257.111 164.305L266.246 150.978C266.319 150.876 266.371 150.761 266.399 150.639C266.427 150.517 266.43 150.391 266.408 150.267C266.356 150.017 266.211 149.796 266.002 149.648L246.717 136.402C246.55 136.311 246.36 136.269 246.169 136.281Z" fill="#484646"/>
<path d="M266.418 158.357C266.418 158.357 259.313 159.483 258.552 158.255C257.791 157.027 259.303 155.149 260.653 154.774C262.003 154.398 269.23 153.901 269.23 153.901" fill="white"/>
<path d="M261.313 159.341C259.811 159.341 258.511 159.138 258.126 158.529C257.955 158.244 257.855 157.922 257.834 157.59C257.813 157.258 257.871 156.926 258.004 156.621C258.23 156.075 258.571 155.584 259.003 155.181C259.436 154.778 259.95 154.473 260.511 154.287C261.902 153.891 268.895 153.414 269.199 153.393C269.332 153.385 269.463 153.429 269.564 153.517C269.665 153.604 269.727 153.727 269.737 153.86C269.743 153.927 269.735 153.995 269.714 154.058C269.692 154.122 269.658 154.181 269.614 154.231C269.569 154.282 269.515 154.322 269.454 154.351C269.393 154.38 269.327 154.396 269.26 154.398C267.23 154.54 261.851 154.957 260.785 155.261C260.375 155.402 260 155.629 259.685 155.927C259.37 156.224 259.122 156.585 258.958 156.987C258.876 157.143 258.834 157.317 258.834 157.494C258.834 157.671 258.876 157.845 258.958 158.002C259.313 158.499 262.754 158.438 266.317 157.87C266.383 157.86 266.45 157.863 266.515 157.879C266.58 157.895 266.641 157.923 266.695 157.963C266.748 158.002 266.794 158.052 266.828 158.109C266.863 158.166 266.885 158.23 266.895 158.296C266.905 158.362 266.902 158.429 266.886 158.494C266.87 158.559 266.842 158.62 266.802 158.674C266.763 158.727 266.713 158.773 266.656 158.807C266.598 158.842 266.535 158.865 266.469 158.874C264.764 159.153 263.041 159.309 261.313 159.341Z" fill="#484646"/>
<path d="M238.973 135.773C238.973 135.946 238.597 143.497 240.343 144.086C242.089 144.675 242.008 142.766 242.221 141.041C242.434 139.315 241.865 136.382 242.84 134.271" fill="white"/>
<path d="M240.921 144.705C240.673 144.697 240.427 144.653 240.191 144.573C238.516 144.005 238.323 139.498 238.465 135.834C238.468 135.698 238.521 135.568 238.615 135.47C238.709 135.373 238.837 135.314 238.973 135.306C239.037 135.303 239.101 135.314 239.161 135.337C239.222 135.359 239.277 135.394 239.323 135.439C239.37 135.483 239.407 135.537 239.432 135.596C239.457 135.655 239.47 135.719 239.47 135.783V135.875C239.287 140.665 239.856 143.386 240.485 143.609C240.691 143.69 240.919 143.69 241.124 143.609C241.449 143.406 241.541 142.492 241.622 141.691C241.622 141.457 241.622 141.214 241.693 140.98C241.736 140.324 241.736 139.667 241.693 139.011C241.536 137.335 241.747 135.644 242.312 134.058C242.34 133.997 242.38 133.942 242.43 133.897C242.48 133.851 242.538 133.816 242.601 133.794C242.664 133.771 242.732 133.761 242.799 133.765C242.866 133.768 242.932 133.785 242.992 133.814C243.053 133.841 243.107 133.881 243.152 133.929C243.198 133.978 243.233 134.035 243.255 134.098C243.278 134.16 243.288 134.227 243.285 134.293C243.281 134.359 243.265 134.424 243.236 134.484C242.74 135.931 242.56 137.468 242.708 138.991C242.756 139.694 242.756 140.399 242.708 141.102C242.708 141.335 242.647 141.569 242.627 141.792C242.515 142.919 242.403 143.995 241.673 144.462C241.453 144.617 241.191 144.702 240.921 144.705Z" fill="#484646"/>
<path d="M181.812 253.921L155.352 227.672L123.357 259.926L149.817 286.174L181.812 253.921Z" fill="white"/>
<path d="M149.795 286.683C149.661 286.681 149.533 286.627 149.44 286.531L122.978 260.283C122.887 260.188 122.836 260.06 122.836 259.928C122.833 259.86 122.845 259.793 122.869 259.73C122.894 259.667 122.931 259.61 122.978 259.562L154.971 227.316C155.018 227.268 155.075 227.231 155.136 227.205C155.198 227.179 155.265 227.166 155.332 227.166C155.399 227.166 155.465 227.179 155.527 227.205C155.589 227.231 155.645 227.268 155.692 227.316L182.153 253.564C182.201 253.611 182.238 253.667 182.264 253.729C182.29 253.791 182.303 253.857 182.303 253.924C182.303 253.991 182.29 254.058 182.264 254.119C182.238 254.181 182.201 254.237 182.153 254.284L150.16 286.562C150.059 286.648 149.928 286.691 149.795 286.683ZM124.054 259.918L149.795 285.455L181.077 253.929L155.337 228.392L124.054 259.918Z" fill="#484646"/>
<path d="M171.942 255.604C171.878 255.604 171.815 255.592 171.755 255.567C171.696 255.543 171.642 255.507 171.597 255.462L153.753 237.75C153.709 237.706 153.673 237.652 153.649 237.594C153.625 237.536 153.612 237.473 153.612 237.41C153.612 237.347 153.625 237.284 153.649 237.226C153.673 237.168 153.709 237.115 153.753 237.07C153.798 237.025 153.851 236.99 153.909 236.966C153.968 236.942 154.03 236.929 154.093 236.929C154.156 236.929 154.219 236.942 154.277 236.966C154.336 236.99 154.389 237.025 154.433 237.07L172.277 254.772C172.366 254.864 172.416 254.988 172.416 255.117C172.416 255.246 172.366 255.369 172.277 255.462C172.186 255.548 172.067 255.599 171.942 255.604Z" fill="#D1D1D1"/>
<path d="M166.826 260.75C166.764 260.752 166.701 260.74 166.644 260.716C166.586 260.691 166.534 260.654 166.492 260.608L148.638 242.917C148.592 242.871 148.556 242.817 148.532 242.758C148.507 242.699 148.494 242.636 148.494 242.571C148.494 242.507 148.507 242.444 148.532 242.385C148.556 242.325 148.592 242.272 148.638 242.226C148.73 242.137 148.854 242.087 148.983 242.087C149.112 242.087 149.235 242.137 149.328 242.226L167.172 259.928C167.217 259.973 167.253 260.027 167.278 260.086C167.302 260.145 167.315 260.209 167.315 260.273C167.315 260.337 167.302 260.401 167.278 260.46C167.253 260.519 167.217 260.573 167.172 260.618C167.078 260.705 166.954 260.752 166.826 260.75Z" fill="#D1D1D1"/>
<path d="M161.721 265.896C161.593 265.899 161.469 265.852 161.376 265.764L143.532 248.052C143.487 248.008 143.451 247.955 143.427 247.897C143.402 247.838 143.39 247.776 143.39 247.712C143.39 247.649 143.402 247.586 143.427 247.528C143.451 247.47 143.487 247.417 143.532 247.372C143.577 247.327 143.63 247.291 143.688 247.267C143.746 247.243 143.809 247.23 143.872 247.23C143.936 247.23 143.998 247.243 144.057 247.267C144.115 247.291 144.168 247.327 144.212 247.372L162.056 265.084C162.101 265.128 162.137 265.181 162.161 265.24C162.186 265.298 162.198 265.361 162.198 265.424C162.198 265.487 162.186 265.55 162.161 265.608C162.137 265.667 162.101 265.72 162.056 265.764C161.966 265.85 161.846 265.898 161.721 265.896Z" fill="#D1D1D1"/>
<path d="M156.605 271.052C156.479 271.051 156.359 271 156.27 270.91L138.417 253.209C138.33 253.115 138.281 252.992 138.281 252.864C138.281 252.736 138.33 252.612 138.417 252.518C138.462 252.473 138.516 252.437 138.575 252.412C138.634 252.388 138.698 252.375 138.762 252.375C138.826 252.375 138.889 252.388 138.949 252.412C139.008 252.437 139.062 252.473 139.107 252.518L156.951 270.22C157.019 270.288 157.066 270.375 157.084 270.47C157.103 270.564 157.094 270.663 157.057 270.752C157.02 270.841 156.957 270.917 156.877 270.971C156.796 271.024 156.702 271.053 156.605 271.052Z" fill="#D1D1D1"/>
<path d="M144.101 268.86C144.039 268.861 143.978 268.85 143.92 268.828C143.863 268.805 143.81 268.771 143.766 268.728L133.311 258.355C133.266 258.309 133.23 258.256 133.205 258.196C133.181 258.137 133.168 258.074 133.168 258.01C133.168 257.945 133.181 257.882 133.205 257.823C133.23 257.764 133.266 257.71 133.311 257.664C133.402 257.576 133.524 257.526 133.651 257.526C133.778 257.526 133.9 257.576 133.991 257.664L144.446 268.038C144.491 268.082 144.527 268.135 144.551 268.193C144.576 268.252 144.588 268.314 144.588 268.378C144.588 268.441 144.576 268.504 144.551 268.562C144.527 268.62 144.491 268.673 144.446 268.718C144.402 268.765 144.348 268.802 144.289 268.827C144.229 268.851 144.165 268.863 144.101 268.86Z" fill="#D1D1D1"/>
<path d="M113.194 266.343C114.564 264.871 116.838 264.759 118.858 264.759C120.198 264.684 121.54 264.842 122.826 265.226C124.528 265.996 126.018 267.166 127.17 268.637C129.282 270.93 131.515 273.478 131.707 276.594C131.961 280.654 128.287 284.288 124.237 284.937C120.187 285.587 116.117 283.841 112.889 281.284C111.091 280.047 109.795 278.207 109.235 276.097C109.103 275.024 109.202 273.935 109.526 272.904C109.85 271.873 110.391 270.923 111.113 270.119C112.574 268.537 114.252 267.17 116.097 266.059" fill="white"/>
<path d="M122.481 285.546C118.157 285.546 114.503 283.192 112.575 281.649C110.342 279.863 109.083 278.066 108.738 276.158C108.592 275.008 108.698 273.841 109.048 272.737C109.399 271.632 109.986 270.618 110.768 269.763C112.245 268.128 113.955 266.719 115.843 265.581C115.956 265.507 116.094 265.481 116.227 265.507C116.36 265.534 116.477 265.612 116.554 265.724C116.627 265.835 116.653 265.972 116.627 266.103C116.6 266.234 116.523 266.349 116.411 266.424C114.603 267.51 112.961 268.854 111.539 270.413C110.858 271.156 110.347 272.038 110.04 272.999C109.733 273.959 109.639 274.975 109.763 275.975C110.068 277.64 111.204 279.233 113.234 280.857C115.264 282.481 119.477 285.161 124.186 284.4C127.79 283.821 131.474 280.553 131.23 276.594C131.058 273.752 129.048 271.357 126.835 268.951C125.731 267.545 124.308 266.421 122.684 265.673C121.454 265.308 120.169 265.16 118.888 265.236C116.858 265.236 114.828 265.348 113.6 266.657C113.553 266.705 113.497 266.743 113.435 266.768C113.373 266.794 113.307 266.807 113.24 266.807C113.173 266.807 113.106 266.794 113.044 266.768C112.983 266.743 112.926 266.705 112.879 266.657C112.786 266.561 112.733 266.432 112.733 266.297C112.733 266.163 112.786 266.033 112.879 265.937C114.381 264.333 116.777 264.191 118.969 264.191C120.367 264.114 121.768 264.279 123.11 264.678C124.889 265.481 126.448 266.699 127.658 268.231C130.002 270.778 132.134 273.306 132.327 276.503C132.611 280.999 128.47 284.724 124.43 285.374C123.786 285.487 123.134 285.545 122.481 285.546Z" fill="#484646"/>
<path d="M130.439 231.254C131.018 231.004 131.624 230.823 132.245 230.716C132.966 230.635 135.971 230.391 138.559 229.925C141.147 229.458 142.842 229.031 142.436 228.25C142.03 227.468 137.422 227.296 137.422 227.296C138.976 225.997 140.633 224.826 142.375 223.794C143.725 223.226 144.405 222.779 144.324 222.119C144.243 221.459 144.172 220.759 140.914 222.637C140.914 222.637 144.05 220.14 142.761 219.653C141.472 219.166 139.056 221.043 139.056 221.043C139.056 221.043 141.888 218.638 141.35 217.998C140.812 217.359 137.564 218.831 137.564 218.831C137.564 218.831 140.771 217.085 139.929 216.415C139.087 215.745 136.549 216.506 133.291 218.699C130.033 220.891 124.887 225.073 124.887 225.073L130.439 231.254Z" fill="white"/>
<path d="M130.439 231.751C130.368 231.751 130.297 231.735 130.233 231.705C130.168 231.675 130.11 231.632 130.063 231.579L124.511 225.377C124.466 225.326 124.432 225.267 124.411 225.202C124.39 225.138 124.383 225.069 124.389 225.002C124.394 224.933 124.413 224.866 124.444 224.805C124.476 224.744 124.519 224.69 124.572 224.646C124.572 224.646 129.769 220.434 133.007 218.252C136.427 215.938 139.097 215.095 140.244 215.989C140.357 216.076 140.447 216.191 140.503 216.322C140.56 216.453 140.583 216.597 140.568 216.74C140.54 216.959 140.452 217.166 140.315 217.338C140.56 217.265 140.821 217.256 141.071 217.311C141.321 217.366 141.553 217.484 141.746 217.653C142.03 218.008 141.969 218.506 141.553 219.155C142.003 219.017 142.484 219.017 142.933 219.155C143.095 219.204 143.24 219.298 143.351 219.426C143.462 219.553 143.536 219.709 143.563 219.876C143.585 220.266 143.466 220.652 143.228 220.962C143.555 220.837 143.916 220.837 144.243 220.962C144.416 221.068 144.559 221.217 144.657 221.395C144.755 221.573 144.804 221.774 144.801 221.977C144.933 223.083 143.786 223.672 142.548 224.18C141.213 224.934 139.946 225.804 138.762 226.778C140.639 226.93 142.497 227.245 142.822 227.935C142.889 228.069 142.925 228.217 142.925 228.366C142.925 228.516 142.889 228.664 142.822 228.798C142.507 229.458 141.472 229.813 138.569 230.351C136.305 230.747 133.727 230.99 132.621 231.092H132.215C131.646 231.198 131.091 231.368 130.561 231.599C130.531 231.658 130.49 231.71 130.439 231.751ZM125.668 225.113L130.621 230.655C131.139 230.439 131.681 230.289 132.235 230.209H132.651C133.737 230.107 136.285 229.864 138.518 229.468C140.751 229.072 141.868 228.747 142.04 228.453C140.542 228.044 138.996 227.835 137.442 227.834C137.339 227.832 137.24 227.797 137.158 227.735C137.076 227.673 137.015 227.587 136.985 227.488C136.951 227.391 136.947 227.285 136.974 227.186C137.001 227.086 137.058 226.997 137.138 226.93C138.726 225.599 140.424 224.404 142.213 223.357C143.36 222.87 143.877 222.515 143.847 222.21C143.856 222.119 143.856 222.028 143.847 221.936C143.847 221.936 143.39 221.865 141.248 223.104C141.136 223.165 141.005 223.184 140.88 223.156C140.755 223.128 140.644 223.055 140.568 222.951C140.498 222.845 140.47 222.716 140.491 222.59C140.512 222.463 140.579 222.35 140.68 222.271C141.695 221.449 142.649 220.414 142.639 220.089C141.878 219.876 140.152 220.921 139.442 221.47C139.391 221.51 139.332 221.541 139.269 221.559C139.206 221.577 139.14 221.582 139.075 221.574C139.01 221.567 138.947 221.547 138.889 221.515C138.832 221.483 138.782 221.44 138.741 221.388C138.659 221.285 138.619 221.153 138.63 221.021C138.641 220.889 138.703 220.766 138.802 220.678C139.653 220.023 140.384 219.226 140.964 218.323C139.881 218.491 138.832 218.834 137.858 219.338C137.737 219.399 137.597 219.409 137.468 219.366C137.34 219.323 137.234 219.231 137.173 219.11C137.113 218.989 137.103 218.848 137.146 218.72C137.188 218.591 137.28 218.485 137.402 218.425C138.225 218.016 138.971 217.467 139.604 216.801C139.005 216.516 136.996 216.902 133.656 219.165C130.906 220.901 126.917 224.078 125.668 225.113Z" fill="#484646"/>
<path d="M128.571 233.041L131.038 231.477L125.09 224.119L121.151 226.677L128.571 233.041Z" fill="#484646"/>
<path d="M128.571 233.548C128.449 233.549 128.33 233.506 128.236 233.426L120.827 227.062C120.765 227.013 120.717 226.949 120.687 226.876C120.657 226.804 120.646 226.724 120.654 226.646C120.659 226.567 120.681 226.491 120.72 226.422C120.759 226.354 120.813 226.295 120.878 226.25L124.816 223.692C124.921 223.625 125.048 223.599 125.172 223.62C125.296 223.64 125.407 223.706 125.486 223.804L131.434 231.153C131.516 231.271 131.552 231.415 131.535 231.559C131.523 231.629 131.496 231.697 131.455 231.756C131.415 231.816 131.363 231.866 131.302 231.904L128.835 233.467C128.756 233.518 128.665 233.546 128.571 233.548ZM122.004 226.737L128.612 232.411L130.276 231.396L124.988 224.839L122.004 226.737Z" fill="#484646"/>
<path d="M144.852 280.857C144.852 280.857 142.081 276.168 141.807 274.382C141.533 272.595 142.071 269.713 142.527 269.662C142.984 269.611 144.131 272.017 143.898 273.438C143.898 273.438 146.344 266.241 147.673 266.048C149.003 265.856 148.688 267.398 148.384 268.281C148.384 268.281 149.521 266.119 150.13 266.647C150.739 267.175 150.394 269.256 150.394 269.256C150.394 269.256 151.246 266.931 151.947 267.388C152.647 267.845 152.221 269.855 152.221 269.855C152.221 269.855 153.104 267.49 153.621 268.464C154.139 269.438 154.027 279.477 152.809 282.502C151.591 285.526 144.852 280.857 144.852 280.857Z" fill="white"/>
<path d="M151.043 284.034C148.557 284.034 144.953 281.588 144.527 281.273C144.467 281.236 144.418 281.183 144.385 281.121C144.263 280.918 141.563 276.33 141.238 274.463C140.977 272.77 141.202 271.038 141.888 269.469C141.947 269.385 142.023 269.314 142.11 269.26C142.197 269.206 142.294 269.17 142.395 269.154C142.528 269.146 142.66 269.17 142.78 269.225C142.901 269.28 143.006 269.364 143.086 269.469C143.527 270.01 143.855 270.635 144.05 271.306C144.994 268.84 146.395 265.713 147.531 265.551C147.763 265.495 148.006 265.505 148.232 265.58C148.458 265.656 148.659 265.793 148.81 265.977C148.914 266.109 148.99 266.261 149.034 266.424C149.214 266.249 149.438 266.126 149.683 266.069C149.808 266.044 149.938 266.049 150.061 266.082C150.184 266.116 150.298 266.177 150.394 266.262C150.667 266.533 150.836 266.893 150.871 267.277C151.019 267.112 151.203 266.983 151.409 266.901C151.532 266.859 151.663 266.846 151.791 266.864C151.92 266.881 152.043 266.929 152.15 267.002C152.303 267.118 152.433 267.262 152.53 267.428C152.628 267.593 152.692 267.776 152.718 267.967C152.859 267.849 153.033 267.778 153.215 267.764C153.381 267.754 153.546 267.797 153.686 267.886C153.827 267.975 153.935 268.107 153.997 268.261C154.657 269.51 154.403 279.781 153.205 282.735C153.093 283.03 152.913 283.294 152.68 283.507C152.448 283.721 152.169 283.877 151.865 283.963C151.596 284.024 151.319 284.048 151.043 284.034ZM145.227 280.472C146.547 281.375 149.988 283.405 151.612 282.918C151.767 282.874 151.909 282.795 152.028 282.685C152.146 282.576 152.236 282.44 152.292 282.288C153.439 279.456 153.52 270.656 153.195 268.911C152.976 269.255 152.795 269.623 152.657 270.007C152.619 270.141 152.53 270.256 152.408 270.324C152.286 270.393 152.142 270.41 152.008 270.372C151.873 270.335 151.759 270.245 151.69 270.123C151.622 270.001 151.604 269.857 151.642 269.723C151.8 269.107 151.8 268.461 151.642 267.845C151.267 268.307 150.978 268.833 150.79 269.398C150.744 269.516 150.657 269.612 150.545 269.67C150.432 269.728 150.303 269.743 150.18 269.712C150.059 269.681 149.954 269.605 149.886 269.5C149.819 269.395 149.793 269.267 149.815 269.144C149.961 268.475 149.961 267.783 149.815 267.114C149.397 267.526 149.054 268.006 148.8 268.535C148.772 268.596 148.732 268.65 148.683 268.696C148.634 268.741 148.577 268.776 148.514 268.799C148.451 268.822 148.385 268.833 148.318 268.83C148.251 268.828 148.186 268.812 148.125 268.784C148.064 268.756 148.01 268.716 147.965 268.667C147.919 268.618 147.884 268.56 147.861 268.498C147.838 268.435 147.827 268.368 147.83 268.302C147.833 268.235 147.848 268.169 147.876 268.109C148.125 267.649 148.187 267.111 148.049 266.607C147.988 266.536 147.795 266.556 147.714 266.607C147.125 266.789 145.583 270.017 144.354 273.651C144.322 273.785 144.238 273.902 144.12 273.974C144.002 274.046 143.86 274.069 143.725 274.036C143.591 274.004 143.474 273.92 143.402 273.802C143.33 273.684 143.307 273.542 143.339 273.407C143.378 272.373 143.106 271.351 142.558 270.474C142.195 271.729 142.088 273.044 142.243 274.341C142.507 275.65 144.436 279.152 145.227 280.472Z" fill="#484646"/>
<path d="M144.141 283.354L144.852 280.857L152.769 282.502L151.906 286.785L144.141 283.354Z" fill="#484646"/>
<path d="M151.906 287.292C151.839 287.303 151.77 287.303 151.703 287.292L143.938 283.811C143.826 283.763 143.734 283.676 143.682 283.566C143.629 283.455 143.62 283.329 143.654 283.212L144.365 280.725C144.396 280.6 144.475 280.491 144.585 280.423C144.695 280.355 144.827 280.332 144.953 280.36L152.87 282.004C153.001 282.033 153.115 282.112 153.189 282.224C153.263 282.335 153.29 282.471 153.266 282.603L152.403 286.886C152.388 286.96 152.356 287.029 152.31 287.089C152.265 287.148 152.206 287.197 152.139 287.231C152.068 287.272 151.988 287.293 151.906 287.292ZM144.801 283.07L151.581 286.064L152.221 282.897L145.207 281.487L144.801 283.07Z" fill="#484646"/>
<path d="M110.068 270.322C110.068 270.322 102.831 266.069 98.781 265.389C98.781 265.389 106.404 250.164 107.317 249.149C108.231 248.134 129.647 233.213 129.647 233.213L122.177 224.87C122.177 224.87 100.192 239.394 95.6142 244.358C91.0365 249.321 81.7188 262.405 84.2157 270.707C86.7126 279.01 89.2907 289.119 100.121 298.559C108.309 305.788 118.699 310.037 129.607 310.617C136.833 311.013 144.76 309.074 147.034 306.821C149.308 304.568 152.769 285.151 152.769 285.151L142.832 282.502L139.462 298.407L131.342 295.362C131.342 295.362 130.246 288.612 122.116 281.933C117.753 278.44 113.72 274.553 110.068 270.322Z" fill="#FF931E"/>
<path d="M112.778 298.285C114.968 298.379 117.137 297.821 119.01 296.681C123.73 293.819 127.81 290.764 130.743 285.922C131.87 284.075 132.773 281.801 132.002 279.832C130.987 277.284 127.343 276.127 126.704 273.539C126.49 272.666 126.785 271.712 126.49 270.859C126.314 270.44 126.037 270.071 125.682 269.786C125.328 269.5 124.908 269.308 124.46 269.225C124.052 269.152 123.649 269.054 123.253 268.931C122.525 268.51 121.893 267.943 121.395 267.266C120.551 266.468 119.538 265.87 118.43 265.519C117.323 265.167 116.151 265.071 115.001 265.236C112.701 265.591 110.529 266.524 108.687 267.946C103.531 271.661 98.3343 279.111 99.2986 285.81C100.293 292.286 106.119 298.031 112.778 298.285Z" fill="white"/>
<path d="M113.245 298.802H112.757C106.069 298.549 99.8061 292.712 98.8114 285.871C97.7964 279.152 103.034 271.397 108.413 267.52C110.324 266.049 112.576 265.085 114.96 264.719C116.186 264.54 117.438 264.641 118.619 265.016C119.8 265.39 120.882 266.028 121.781 266.881L122.217 267.368C122.554 267.794 122.98 268.14 123.466 268.383C123.694 268.459 123.928 268.517 124.166 268.555L124.603 268.647C125.129 268.754 125.62 268.99 126.033 269.333C126.446 269.677 126.767 270.118 126.967 270.616C127.121 271.136 127.176 271.68 127.13 272.22C127.103 272.593 127.124 272.968 127.191 273.336C127.485 274.534 128.561 275.417 129.698 276.381C130.876 277.201 131.828 278.304 132.469 279.588C133.189 281.395 132.763 283.547 131.18 286.166C128.054 291.322 123.608 294.458 119.274 297.097C117.461 298.213 115.373 298.803 113.245 298.802ZM116.077 265.663C115.752 265.663 115.417 265.663 115.062 265.713C112.843 266.059 110.748 266.96 108.972 268.332C103.836 272.037 98.8215 279.385 99.8365 285.719C100.852 292.053 106.596 297.544 112.818 297.777C114.91 297.878 116.984 297.344 118.766 296.245C122.989 293.687 127.323 290.622 130.337 285.658C131.748 283.334 132.144 281.476 131.545 279.974C130.962 278.854 130.111 277.895 129.069 277.183C127.861 276.168 126.602 275.153 126.227 273.62C126.136 273.163 126.106 272.695 126.135 272.23C126.171 271.814 126.136 271.396 126.034 270.991C125.883 270.655 125.655 270.36 125.367 270.13C125.079 269.901 124.74 269.744 124.379 269.672L124.004 269.601C123.696 269.547 123.394 269.465 123.1 269.357C122.462 269.047 121.906 268.592 121.476 268.028C121.344 267.875 121.212 267.723 121.07 267.581C120.406 266.947 119.623 266.451 118.766 266.122C117.908 265.792 116.994 265.636 116.077 265.663Z" fill="#484646"/>
<path d="M133.372 159.23C135.638 158.471 138.069 158.355 140.396 158.895C140.396 158.895 141.32 156.865 142.781 156.611C144.243 156.357 143.928 156.976 143.928 156.976C143.928 156.976 145.136 155.505 145.816 156.063C145.816 156.063 147.247 156.692 147.42 157.596C147.42 157.596 149.328 156.926 149.632 158.032C149.937 159.138 148.354 161.402 145.907 163.452C143.461 165.502 140.518 167.116 139.635 167.157C138.752 167.197 132.042 165.848 132.042 165.848L133.372 159.23Z" fill="white"/>
<path d="M139.594 167.664C138.528 167.664 133.057 166.568 131.951 166.345C131.819 166.318 131.702 166.24 131.626 166.128C131.55 166.016 131.521 165.879 131.545 165.746L132.875 159.128C132.89 159.044 132.927 158.965 132.983 158.899C133.038 158.833 133.109 158.783 133.189 158.753C135.426 158.004 137.818 157.85 140.132 158.306C140.39 157.788 140.749 157.327 141.189 156.951C141.628 156.574 142.138 156.289 142.69 156.114C143.123 155.982 143.586 155.982 144.019 156.114C144.659 155.525 145.451 155.099 146.049 155.596C146.711 155.891 147.28 156.362 147.694 156.956C148.271 156.794 148.885 156.83 149.439 157.058C149.6 157.138 149.741 157.253 149.853 157.393C149.965 157.533 150.046 157.696 150.089 157.87C150.505 159.372 148.435 161.93 146.212 163.807C143.989 165.685 140.751 167.573 139.624 167.634L139.594 167.664ZM132.641 165.452C135.229 165.969 139.046 166.66 139.604 166.649C140.162 166.639 142.994 165.228 145.582 163.066C148.171 160.905 149.348 158.915 149.135 158.164C149.128 158.124 149.112 158.087 149.087 158.055C149.062 158.023 149.03 157.998 148.993 157.981C148.525 157.863 148.031 157.895 147.582 158.073C147.517 158.102 147.446 158.117 147.374 158.117C147.302 158.117 147.231 158.102 147.166 158.073C147.104 158.035 147.051 157.984 147.009 157.925C146.967 157.866 146.938 157.799 146.922 157.728C146.831 157.251 145.999 156.713 145.613 156.56C145.57 156.544 145.53 156.524 145.491 156.499C145.369 156.398 144.771 156.794 144.324 157.332C144.264 157.412 144.182 157.472 144.087 157.505C143.993 157.537 143.891 157.541 143.794 157.514C143.698 157.488 143.612 157.433 143.547 157.357C143.482 157.281 143.441 157.187 143.431 157.088C143.246 157.09 143.063 157.111 142.883 157.149C141.868 157.342 141.086 158.651 140.853 159.179C140.8 159.285 140.714 159.37 140.607 159.42C140.499 159.47 140.379 159.481 140.264 159.453C138.125 158.97 135.897 159.05 133.798 159.687L132.641 165.452Z" fill="#484646"/>
<path d="M143.644 166.111C143.551 166.113 143.459 166.089 143.38 166.04C143.267 165.971 143.185 165.86 143.151 165.732C143.117 165.603 143.133 165.467 143.197 165.35L150.14 153.434C150.21 153.318 150.322 153.234 150.453 153.2C150.584 153.166 150.723 153.184 150.84 153.251C150.956 153.321 151.04 153.433 151.074 153.564C151.109 153.695 151.09 153.834 151.023 153.952L144.08 165.858C144.036 165.934 143.973 165.998 143.896 166.043C143.819 166.087 143.733 166.111 143.644 166.111Z" fill="#484646"/>
<path d="M145.278 158.042C146.069 157.85 146.88 157.748 147.694 157.738C147.873 157.713 148.055 157.724 148.229 157.771C148.404 157.818 148.567 157.9 148.709 158.012C148.828 158.149 148.905 158.319 148.928 158.499C148.952 158.68 148.921 158.863 148.841 159.027C148.674 159.353 148.417 159.625 148.1 159.808C147.119 160.352 146.067 160.755 144.974 161.006C144.725 161.067 144.488 161.17 144.273 161.311C144.02 161.531 143.801 161.787 143.624 162.072C142.849 162.972 141.895 163.702 140.822 164.213" fill="white"/>
<path d="M140.812 164.762C140.721 164.763 140.63 164.739 140.552 164.692C140.473 164.646 140.408 164.578 140.366 164.498C140.333 164.439 140.313 164.375 140.306 164.308C140.299 164.242 140.305 164.174 140.324 164.11C140.342 164.046 140.374 163.986 140.416 163.934C140.458 163.882 140.51 163.839 140.569 163.807C141.579 163.32 142.478 162.629 143.208 161.777L143.329 161.615C143.503 161.349 143.719 161.112 143.969 160.915C144.227 160.741 144.511 160.611 144.811 160.529L145.481 160.326C146.298 160.135 147.081 159.824 147.805 159.402C148.041 159.265 148.237 159.069 148.374 158.834C148.415 158.763 148.436 158.682 148.436 158.6C148.436 158.518 148.415 158.438 148.374 158.367C148.252 158.245 147.948 158.245 147.724 158.245C146.951 158.257 146.182 158.356 145.43 158.54C145.3 158.57 145.163 158.548 145.048 158.477C144.934 158.407 144.853 158.294 144.821 158.164C144.805 158.1 144.801 158.033 144.81 157.968C144.82 157.902 144.842 157.839 144.876 157.783C144.91 157.726 144.955 157.677 145.009 157.638C145.062 157.599 145.122 157.57 145.187 157.555C146.014 157.351 146.862 157.242 147.714 157.23C147.961 157.205 148.21 157.23 148.447 157.304C148.685 157.377 148.905 157.497 149.095 157.657C149.286 157.868 149.41 158.131 149.451 158.413C149.493 158.695 149.45 158.982 149.328 159.24C149.123 159.659 148.803 160.012 148.404 160.255C147.592 160.725 146.712 161.068 145.796 161.27L145.146 161.473C144.953 161.517 144.767 161.592 144.598 161.696C144.437 161.834 144.296 161.995 144.182 162.173L144.05 162.356C143.23 163.314 142.221 164.091 141.086 164.64C141.008 164.705 140.913 164.748 140.812 164.762Z" fill="#484646"/>
<path d="M157.316 138.564C156.173 140.1 155.408 141.884 155.083 143.771C154.261 147.395 153.763 150.501 154.535 150.592C155.306 150.683 156.91 147.232 156.91 147.232C156.91 147.232 157.417 155.19 158.737 155.221C160.056 155.251 159.955 153.891 159.955 153.891C159.955 153.891 160.787 155.576 161.437 154.906C161.623 154.672 161.749 154.396 161.804 154.103C161.859 153.809 161.841 153.506 161.751 153.221C161.751 153.221 162.614 154.764 163.101 154.165C163.244 153.947 163.338 153.701 163.376 153.443C163.415 153.186 163.397 152.923 163.325 152.673C163.325 152.673 164.451 154.084 164.776 153.008C165.101 151.932 164.238 143.792 163.223 140.625C162.717 138.89 161.994 137.226 161.071 135.672L157.316 138.564Z" fill="white"/>
<path d="M158.767 155.728C157.752 155.728 156.991 153.465 156.585 149.07C155.783 150.47 155.083 151.171 154.555 151.1C154.442 151.087 154.333 151.051 154.235 150.993C154.137 150.936 154.052 150.858 153.987 150.765C153.621 150.247 153.449 149.029 154.657 143.66C155.001 141.689 155.808 139.828 157.011 138.229L157.072 138.169L160.808 135.266C160.921 135.182 161.063 135.146 161.203 135.164C161.342 135.194 161.465 135.273 161.548 135.387C162.496 136.979 163.24 138.685 163.761 140.462C164.685 143.436 165.73 151.891 165.334 153.201C165.299 153.382 165.21 153.549 165.08 153.681C164.95 153.813 164.785 153.903 164.604 153.942C164.366 153.984 164.122 153.941 163.913 153.82C163.851 154.079 163.733 154.321 163.568 154.53C163.483 154.641 163.371 154.728 163.244 154.785C163.116 154.842 162.977 154.866 162.838 154.855C162.609 154.836 162.39 154.752 162.208 154.612C162.121 154.871 161.971 155.104 161.772 155.292C161.669 155.403 161.539 155.486 161.396 155.534C161.252 155.582 161.099 155.593 160.95 155.566C160.626 155.489 160.337 155.307 160.127 155.048C160.083 155.114 160.032 155.175 159.975 155.231C159.82 155.394 159.633 155.523 159.425 155.609C159.216 155.695 158.992 155.735 158.767 155.728ZM156.92 146.725H157.011C157.122 146.746 157.222 146.803 157.296 146.888C157.37 146.972 157.412 147.08 157.417 147.192C157.661 150.937 158.3 154.378 158.818 154.723C158.981 154.716 159.136 154.652 159.255 154.54C159.391 154.36 159.46 154.137 159.447 153.911C159.444 153.794 159.48 153.679 159.55 153.585C159.62 153.491 159.72 153.423 159.833 153.394C159.945 153.363 160.064 153.373 160.17 153.421C160.276 153.469 160.361 153.553 160.412 153.657C160.566 154.021 160.815 154.336 161.132 154.571C161.488 154.185 161.264 153.414 161.264 153.404C161.232 153.286 161.244 153.16 161.297 153.05C161.351 152.94 161.442 152.853 161.554 152.805C161.667 152.757 161.793 152.751 161.909 152.788C162.025 152.825 162.124 152.903 162.188 153.008C162.347 153.291 162.545 153.551 162.777 153.779C162.899 153.483 162.921 153.155 162.838 152.845C162.81 152.734 162.821 152.616 162.869 152.512C162.916 152.407 162.998 152.322 163.101 152.27C163.204 152.218 163.321 152.203 163.433 152.226C163.546 152.249 163.647 152.31 163.721 152.399C163.882 152.593 164.07 152.764 164.279 152.906C164.26 148.798 163.735 144.707 162.716 140.726C162.259 139.219 161.654 137.76 160.909 136.372L157.671 138.889C156.612 140.36 155.894 142.049 155.57 143.832C154.555 148.166 154.555 149.526 154.687 149.922C155.394 149.003 155.987 148.001 156.453 146.938C156.506 146.865 156.576 146.807 156.658 146.77C156.74 146.732 156.83 146.717 156.92 146.725Z" fill="#484646"/>
<path d="M122.562 97.3046C122.562 97.3046 112.798 84.3836 109.205 83.6833C105.612 82.9829 75.3649 121.979 75.4563 126.902C75.5476 131.825 97.2483 142.005 97.2483 142.005L122.562 97.3046Z" fill="#484646"/>
<path d="M97.2482 142.513C97.1778 142.527 97.1054 142.527 97.0351 142.513C94.7615 141.416 75.04 132.007 74.9182 126.912C74.9182 122.304 98.8012 91.1232 106.596 84.5765C108.241 83.1961 108.9 83.1149 109.296 83.1859C112.981 83.8964 121.953 95.6603 122.958 97.0001C123.015 97.0819 123.046 97.1793 123.046 97.2792C123.046 97.379 123.015 97.4765 122.958 97.5583L97.5832 142.218C97.5534 142.29 97.5078 142.353 97.4497 142.404C97.3917 142.455 97.3228 142.492 97.2482 142.513ZM109.124 84.1806C109.053 84.1806 108.484 84.2415 106.647 85.9061C97.6745 93.9855 75.9332 123.146 75.9332 126.902C75.9332 130.657 90.7827 138.371 97.0148 141.345L121.953 97.3452C119.111 93.6201 111.803 84.7084 109.103 84.1502L109.124 84.1806Z" fill="#484646"/>
<path d="M101.795 106.907C101.795 106.907 111.458 96.0562 118.36 93.0721C125.262 90.088 131.464 89.9357 135.747 93.5085C140.03 97.0813 151.053 107.191 153.144 111.779C155.235 116.366 163.467 136.605 163.467 136.605L153.652 141.173C153.652 141.173 143.999 118.691 143.268 116.813C142.538 114.935 129.779 106.805 129.332 106.369C128.886 105.932 126.287 116.985 121.872 121.472C117.457 125.958 102.435 137.022 102.435 137.022C102.435 137.022 112.697 149.567 114.483 151.313C116.269 153.059 136.651 157.037 136.651 157.037L133.971 167.35C133.971 167.35 112.27 163.99 108.911 162.569C105.551 161.148 86.946 149.465 86.0832 138.453C85.2205 127.44 101.795 106.907 101.795 106.907Z" fill="#FF931E"/>
<path d="M124.866 111.017C126.105 112.601 127.129 114.342 127.911 116.194C129.085 118.469 129.572 121.036 129.312 123.583C128.886 126.09 126.978 128.485 124.45 128.749C125.465 131.733 123.517 135.113 120.735 136.565C117.954 138.016 114.574 137.834 111.6 136.93C107.921 135.748 104.618 133.615 102.027 130.748C99.4354 127.88 97.647 124.379 96.8423 120.599C95.5736 114.509 99.0246 106.815 105.47 105.019C112.169 103.161 120.502 105.638 124.866 111.017Z" fill="white"/>
<path d="M116.056 138.128C114.501 138.116 112.955 137.876 111.468 137.417C107.704 136.201 104.325 134.016 101.671 131.082C99.0162 128.148 97.1797 124.568 96.3449 120.7C95.0863 114.61 98.4663 106.44 105.328 104.531C112.189 102.623 120.847 105.252 125.262 110.703C126.551 112.331 127.613 114.127 128.419 116.041C129.261 117.94 130.337 120.802 129.85 123.715C129.454 126.08 127.719 128.627 125.12 129.206C125.821 132.434 123.669 135.682 121.06 137.062C119.503 137.816 117.786 138.182 116.056 138.128ZM110.118 104.876C108.593 104.871 107.075 105.069 105.602 105.465C99.2783 107.231 96.1724 114.783 97.3396 120.457C98.1363 124.144 99.8867 127.557 102.416 130.355C104.945 133.153 108.165 135.238 111.753 136.402C115.082 137.417 118.208 137.285 120.543 136.067C122.877 134.849 124.927 131.723 124.004 128.861C123.978 128.79 123.97 128.715 123.981 128.64C123.991 128.566 124.02 128.495 124.065 128.435C124.104 128.371 124.157 128.316 124.22 128.276C124.284 128.236 124.355 128.21 124.43 128.201C126.825 127.947 128.49 125.572 128.845 123.451C129.2 121.33 128.754 119.188 127.485 116.346C126.7 114.527 125.676 112.82 124.44 111.271C121.212 107.323 115.569 104.876 110.118 104.876Z" fill="#484646"/>
<path d="M103.998 104.024C102.469 103.962 100.951 104.313 99.6031 105.039C98.5969 105.418 97.7127 106.064 97.0453 106.907C96.6315 107.579 96.3876 108.342 96.3348 109.129C96.0792 110.813 96.4012 112.534 97.2483 114.012C97.6757 114.736 98.2983 115.326 99.0449 115.714C99.7915 116.101 100.632 116.271 101.471 116.204C102.188 116.075 102.876 115.817 103.501 115.443C105.073 114.628 106.391 113.396 107.307 111.88C108.809 109.008 107.662 104.44 103.998 104.024Z" fill="white"/>
<path d="M100.973 116.691C100.126 116.662 99.2989 116.421 98.5684 115.99C97.8379 115.56 97.227 114.952 96.7915 114.225C95.8843 112.657 95.527 110.832 95.7765 109.038C95.8458 108.171 96.1207 107.332 96.5784 106.592C97.2967 105.672 98.2558 104.969 99.3493 104.562C100.778 103.793 102.388 103.425 104.008 103.496C104.794 103.583 105.545 103.868 106.192 104.324C106.838 104.781 107.358 105.393 107.703 106.105C108.171 107.026 108.415 108.045 108.415 109.079C108.415 110.112 108.171 111.131 107.703 112.053C106.753 113.655 105.37 114.957 103.714 115.808C103.038 116.218 102.291 116.497 101.511 116.63C101.334 116.665 101.154 116.686 100.973 116.691ZM103.44 104.511C102.175 104.594 100.941 104.94 99.8162 105.526C98.8966 105.855 98.083 106.427 97.4614 107.181C97.0884 107.795 96.8723 108.493 96.8321 109.211C96.5934 110.768 96.8791 112.36 97.6441 113.737C98.0268 114.373 98.5763 114.892 99.233 115.237C99.8897 115.583 100.629 115.741 101.369 115.696C102.022 115.577 102.648 115.34 103.216 114.996C104.708 114.236 105.957 113.072 106.82 111.636C107.211 110.862 107.414 110.007 107.414 109.139C107.414 108.272 107.211 107.417 106.82 106.643C106.547 106.084 106.136 105.605 105.626 105.25C105.117 104.895 104.525 104.675 103.907 104.613C103.753 104.566 103.597 104.529 103.44 104.501V104.511Z" fill="#484646"/>
</svg>
