<svg width="150" height="150" viewBox="0 0 150 150" fill="none" xmlns="http://www.w3.org/2000/svg">
<path d="M103.797 104.42L43.2843 119.995C41.2316 120.521 39.0541 120.212 37.2294 119.135C35.4047 118.058 34.0819 116.302 33.5512 114.251L15.2506 43.2185C14.7245 41.1669 15.034 38.9904 16.1114 37.1666C17.1888 35.3428 18.9459 34.0206 20.9974 33.4901L77.2945 19L91.7039 25.4475L109.544 94.6917C110.07 96.7433 109.76 98.9198 108.683 100.744C107.605 102.567 105.848 103.89 103.797 104.42Z" fill="#CDF8F3"/>
<path d="M21.5717 35.7172C20.1108 36.095 18.8595 37.0366 18.0922 38.3353C17.325 39.6341 17.1046 41.184 17.4792 42.645L35.7798 113.678C36.1578 115.138 37.0998 116.389 38.3992 117.155C39.6986 117.922 41.2492 118.143 42.711 117.768L103.224 102.193C104.684 101.815 105.936 100.874 106.703 99.5749C107.47 98.2762 107.691 96.7263 107.316 95.2652L89.7526 27.0939L77.0894 21.4277L21.5717 35.7172Z" fill="white"/>
<path d="M91.5505 25.8139L82.1853 28.2244C81.5016 28.4004 80.776 28.2977 80.1681 27.9389C79.5602 27.5801 79.1197 26.9947 78.9437 26.3113L77.1625 19.3977C77.1547 19.3674 77.1556 19.3356 77.1651 19.3058C77.1745 19.276 77.1922 19.2495 77.2161 19.2293C77.24 19.2091 77.2691 19.1961 77.3 19.1916C77.331 19.1872 77.3625 19.1916 77.3911 19.2043L91.5765 25.5009C91.6081 25.5149 91.6345 25.5384 91.6521 25.5681C91.6697 25.5978 91.6776 25.6323 91.6748 25.6667C91.6719 25.7011 91.6584 25.7337 91.6361 25.7601C91.6139 25.7865 91.5839 25.8053 91.5505 25.8139Z" fill="#CDF8F3"/>
<path d="M86.624 86.4741L59.0735 93.5652C58.9043 93.6088 58.7281 93.6186 58.555 93.5941C58.382 93.5696 58.2154 93.5113 58.0649 93.4225C57.9144 93.3336 57.7829 93.2161 57.6778 93.0764C57.5728 92.9368 57.4963 92.7779 57.4527 92.6087C57.4091 92.4395 57.3993 92.2634 57.4238 92.0904C57.4483 91.9174 57.5066 91.751 57.5955 91.6006C57.6844 91.4501 57.802 91.3187 57.9417 91.2137C58.0814 91.1087 58.2404 91.0322 58.4097 90.9886L85.9602 83.8975C86.1295 83.8539 86.3057 83.8441 86.4787 83.8686C86.6518 83.8931 86.8183 83.9514 86.9689 84.0402C87.1194 84.1291 87.2509 84.2467 87.3559 84.3863C87.461 84.5259 87.5375 84.6849 87.5811 84.854C87.6246 85.0232 87.6345 85.1993 87.61 85.3723C87.5854 85.5453 87.5271 85.7117 87.4382 85.8622C87.3494 86.0126 87.2317 86.1441 87.092 86.2491C86.9523 86.354 86.7933 86.4305 86.624 86.4741Z" fill="#CDF8F3"/>
<path d="M93.0605 89.4538L60.1931 97.9134C59.8513 98.0014 59.4885 97.95 59.1845 97.7706C58.8806 97.5912 58.6604 97.2985 58.5723 96.9568C58.4843 96.6152 58.5357 96.2525 58.7151 95.9487C58.8946 95.6449 59.1875 95.4248 59.5293 95.3368L92.3966 86.8772C92.7383 86.7896 93.1009 86.8411 93.4046 87.0205C93.7083 87.2 93.9283 87.4925 94.0163 87.834C94.1043 88.1755 94.053 88.5379 93.8738 88.8416C93.6946 89.1454 93.402 89.3655 93.0605 89.4538Z" fill="#CDF8F3"/>
<path d="M47.8287 102.106C50.4268 102.106 52.533 100.001 52.533 97.4038C52.533 94.807 50.4268 92.7019 47.8287 92.7019C45.2307 92.7019 43.1245 94.807 43.1245 97.4038C43.1245 100.001 45.2307 102.106 47.8287 102.106Z" fill="#68E9DC"/>
<path d="M83.6939 74.1691L47.1041 83.5834C46.0466 83.8542 44.9249 83.6947 43.985 83.1398C43.045 82.585 42.3636 81.6802 42.0903 80.6238L34.4224 50.8504C34.1515 49.7935 34.3111 48.6723 34.8662 47.7328C35.4213 46.7933 36.3266 46.1123 37.3834 45.8391L73.9733 36.4248C75.0307 36.154 76.1525 36.3135 77.0924 36.8684C78.0323 37.4232 78.7137 38.328 78.987 39.3843L86.6549 69.1578C86.9258 70.2147 86.7662 71.3359 86.2111 72.2754C85.656 73.2149 84.7508 73.8959 83.6939 74.1691Z" fill="white"/>
<path d="M83.6939 74.1691L47.1041 83.5834C46.0466 83.8542 44.9249 83.6947 43.985 83.1398C43.045 82.585 42.3636 81.6802 42.0903 80.6238L34.4224 50.8504C34.1515 49.7935 34.3111 48.6723 34.8662 47.7328C35.4213 46.7933 36.3266 46.1123 37.3834 45.8391L73.9733 36.4248C75.0307 36.154 76.1525 36.3135 77.0924 36.8684C78.0323 37.4232 78.7137 38.328 78.987 39.3843L86.6549 69.1578C86.9258 70.2147 86.7662 71.3359 86.2111 72.2754C85.656 73.2149 84.7508 73.8959 83.6939 74.1691ZM37.5042 46.3079C36.5717 46.549 35.7729 47.1499 35.2831 47.9789C34.7933 48.8078 34.6525 49.7971 34.8916 50.7297L42.5594 80.5032C42.8006 81.4352 43.4018 82.2336 44.2312 82.7231C45.0605 83.2127 46.0503 83.3534 46.9833 83.1145L83.5732 73.7002C84.5057 73.4592 85.3045 72.8583 85.7943 72.0293C86.284 71.2004 86.4249 70.2111 86.1858 69.2785L78.5179 39.505C78.2767 38.573 77.6755 37.7746 76.8462 37.2851C76.0168 36.7955 75.027 36.6548 74.094 36.8937L37.5042 46.3079Z" fill="#68E9DC"/>
<path d="M72.1176 46.4356L53.6512 51.1868C53.4897 51.2319 53.3172 51.214 53.1684 51.1368C53.0197 51.0595 52.9058 50.9287 52.8499 50.7708C52.8238 50.6883 52.8148 50.6014 52.8235 50.5153C52.8322 50.4292 52.8583 50.3458 52.9003 50.2702C52.9423 50.1945 52.9993 50.1282 53.0678 50.0753C53.1362 50.0224 53.2148 49.984 53.2986 49.9624L72.0963 45.126C72.8556 45.5105 72.6558 46.2971 72.1174 46.4357L72.1176 46.4356Z" fill="#CDF8F3"/>
<path d="M72.9511 49.6734L54.4846 54.4246C54.3232 54.4697 54.1507 54.4518 54.0019 54.3745C53.8532 54.2973 53.7393 54.1665 53.6833 54.0086C53.6573 53.9261 53.6483 53.8392 53.657 53.7531C53.6657 53.667 53.6918 53.5836 53.7338 53.508C53.7758 53.4323 53.8328 53.366 53.9013 53.3131C53.9697 53.2602 54.0483 53.2218 54.1321 53.2002L72.9298 48.3638C73.6891 48.7483 73.4893 49.5349 72.9508 49.6734L72.9511 49.6734Z" fill="#CDF8F3"/>
<path d="M50.9671 57.295L45.3313 58.7451C45.1472 58.7922 44.952 58.7645 44.7883 58.6679C44.6247 58.5713 44.5061 58.4138 44.4586 58.2299L42.7466 51.5825C42.6994 51.3985 42.7272 51.2034 42.8238 51.0398C42.9204 50.8763 43.078 50.7578 43.262 50.7102L48.8977 49.2602C49.0818 49.2131 49.277 49.2409 49.4406 49.3375C49.6042 49.434 49.7228 49.5915 49.7704 49.7753L51.4824 56.4228C51.5296 56.6068 51.5018 56.8019 51.4052 56.9655C51.3086 57.129 51.151 57.2475 50.9671 57.2951V57.295Z" fill="#68E9DC"/>
<path d="M74.6048 56.3158L46.4217 63.5671C46.2602 63.6121 46.0877 63.5942 45.9389 63.517C45.7902 63.4397 45.6763 63.309 45.6204 63.151C45.5943 63.0685 45.5854 62.9816 45.594 62.8955C45.6027 62.8095 45.6288 62.7261 45.6708 62.6504C45.7128 62.5748 45.7698 62.5085 45.8383 62.4556C45.9068 62.4026 45.9853 62.3642 46.0691 62.3427L74.5837 55.0061C75.3431 55.3907 75.1433 56.1772 74.6048 56.3158L74.6048 56.3158Z" fill="#CDF8F3"/>
<path d="M75.4383 59.5545L47.2552 66.8058C47.0937 66.8509 46.9212 66.833 46.7724 66.7557C46.6237 66.6785 46.5098 66.5477 46.4539 66.3898C46.4278 66.3073 46.4188 66.2204 46.4275 66.1343C46.4362 66.0482 46.4623 65.9648 46.5043 65.8892C46.5463 65.8135 46.6033 65.7472 46.6718 65.6943C46.7402 65.6414 46.8188 65.603 46.9026 65.5814L75.4172 58.2449C76.1766 58.6294 75.9768 59.416 75.4383 59.5545V59.5545Z" fill="#CDF8F3"/>
<path d="M76.2723 62.7909L48.0891 70.0421C47.9277 70.0872 47.7552 70.0693 47.6064 69.9921C47.4577 69.9148 47.3438 69.784 47.2878 69.6261C47.2618 69.5436 47.2528 69.4567 47.2615 69.3706C47.2702 69.2845 47.2963 69.2011 47.3383 69.1255C47.3803 69.0499 47.4373 68.9836 47.5058 68.9306C47.5742 68.8777 47.6528 68.8393 47.7366 68.8178L76.2512 61.4812C77.0106 61.8658 76.8107 62.6523 76.2723 62.7909Z" fill="#CDF8F3"/>
<path d="M77.1058 66.0292L48.9226 73.2804C48.7612 73.3255 48.5887 73.3076 48.4399 73.2303C48.2912 73.1531 48.1773 73.0223 48.1213 72.8644C48.0953 72.7819 48.0863 72.695 48.095 72.6089C48.1037 72.5228 48.1298 72.4394 48.1718 72.3638C48.2138 72.2881 48.2708 72.2218 48.3393 72.1689C48.4077 72.116 48.4863 72.0776 48.5701 72.056L77.0847 64.7195C77.844 65.104 77.6442 65.8906 77.1058 66.0292L77.1058 66.0292Z" fill="#CDF8F3"/>
<path d="M77.9398 69.266L49.7566 76.5172C49.5952 76.5623 49.4226 76.5444 49.2739 76.4672C49.1251 76.3899 49.0113 76.2591 48.9553 76.1012C48.9293 76.0187 48.9203 75.9318 48.929 75.8457C48.9377 75.7596 48.9638 75.6762 49.0058 75.6006C49.0478 75.525 49.1048 75.4586 49.1732 75.4057C49.2417 75.3528 49.3202 75.3144 49.4041 75.2929L77.9187 67.9563C78.678 68.3409 78.4782 69.1274 77.9398 69.266Z" fill="#CDF8F3"/>
<path d="M48.1757 99.0524C48.0733 99.0789 47.965 99.0715 47.8672 99.0311L47.8611 99.0286L46.5796 98.4856C46.5201 98.4604 46.4662 98.4238 46.4209 98.3778C46.3756 98.3317 46.3398 98.2772 46.3156 98.2174C46.2914 98.1575 46.2792 98.0935 46.2798 98.029C46.2804 97.9644 46.2937 97.9006 46.319 97.8412C46.3442 97.7818 46.381 97.728 46.4271 97.6828C46.4732 97.6376 46.5278 97.6019 46.5877 97.5778C46.6476 97.5537 46.7117 97.5416 46.7763 97.5423C46.8408 97.543 46.9047 97.5564 46.9641 97.5818L47.7945 97.9348L48.8826 95.3762C48.9079 95.3169 48.9445 95.2631 48.9906 95.2179C49.0366 95.1728 49.0911 95.1371 49.1509 95.113C49.2107 95.0889 49.2747 95.0768 49.3392 95.0774C49.4036 95.078 49.4674 95.0913 49.5267 95.1165L49.5269 95.1166L49.5204 95.1333L49.5272 95.1165C49.647 95.1676 49.7416 95.2641 49.7903 95.3848C49.8389 95.5055 49.8377 95.6406 49.7869 95.7605L48.5067 98.7688C48.477 98.8382 48.4317 98.8998 48.3744 98.9488C48.317 98.9979 48.2492 99.0331 48.176 99.0517L48.1757 99.0524Z" fill="white"/>
<path d="M127.007 131.239H64.5211C62.4682 131.237 60.5002 130.42 59.0486 128.97C57.5971 127.519 56.7807 125.552 56.7783 123.5V50.1504C56.7807 48.0987 57.5971 46.1317 59.0486 44.6809C60.5002 43.2301 62.4682 42.414 64.5209 42.4116H122.567L134.75 52.1175V123.5C134.748 125.552 133.931 127.519 132.48 128.97C131.028 130.42 129.06 131.237 127.007 131.239Z" fill="#E6FBF9" stroke="#03DAC5" stroke-width="0.5"/>
<path d="M64.5207 44.4614C63.0117 44.4631 61.565 45.063 60.498 46.1295C59.431 47.196 58.8308 48.642 58.8291 50.1503V123.5C58.8308 125.009 59.431 126.455 60.498 127.521C61.565 128.588 63.0117 129.187 64.5207 129.189H127.007C128.516 129.187 129.963 128.588 131.03 127.521C132.097 126.455 132.697 125.009 132.699 123.5V53.105L121.85 44.4614H64.5207Z" fill="white"/>
<path d="M114.854 65.7895H86.4047C86.0517 65.7895 85.7132 65.6494 85.4636 65.3999C85.214 65.1504 85.0737 64.812 85.0737 64.4592C85.0737 64.1064 85.214 63.768 85.4636 63.5185C85.7132 63.2691 86.0517 63.1289 86.4047 63.1289H114.854C115.207 63.1289 115.546 63.2691 115.795 63.5185C116.045 63.768 116.185 64.1064 116.185 64.4592C116.185 64.812 116.045 65.1504 115.795 65.3999C115.546 65.6494 115.207 65.7895 114.854 65.7895Z" fill="#03DAC5"/>
<path d="M120.344 70.2793H86.4044C86.0517 70.2788 85.7136 70.1384 85.4644 69.889C85.2152 69.6396 85.0752 69.3015 85.0752 68.949C85.0752 68.5965 85.2152 68.2584 85.4644 68.0089C85.7136 67.7595 86.0517 67.6191 86.4044 67.6187H120.344C120.519 67.6184 120.692 67.6527 120.854 67.7194C121.015 67.7861 121.162 67.8841 121.286 68.0077C121.41 68.1312 121.508 68.2779 121.575 68.4395C121.642 68.601 121.677 68.7741 121.677 68.949C121.677 69.1238 121.642 69.297 121.575 69.4585C121.508 69.62 121.41 69.7667 121.286 69.8903C121.162 70.0138 121.015 70.1118 120.854 70.1785C120.692 70.2453 120.519 70.2795 120.344 70.2793Z" fill="#03DAC5"/>
<path d="M114.854 83.249H86.4056C86.0526 83.249 85.7141 83.3892 85.4645 83.6386C85.2149 83.8881 85.0747 84.2264 85.0747 84.5792C85.0747 84.932 85.2149 85.2704 85.4645 85.5199C85.7141 85.7693 86.0526 85.9095 86.4056 85.9095H114.854C115.207 85.9095 115.545 85.7693 115.795 85.5199C116.045 85.2704 116.185 84.932 116.185 84.5792C116.185 84.2264 116.045 83.8881 115.795 83.6386C115.545 83.3892 115.207 83.249 114.854 83.249Z" fill="#CDF8F3"/>
<path d="M120.345 87.7397H86.4056C86.0526 87.7397 85.7141 87.8799 85.4645 88.1294C85.2149 88.3788 85.0747 88.7172 85.0747 89.07C85.0747 89.4228 85.2149 89.7611 85.4645 90.0106C85.7141 90.26 86.0526 90.4002 86.4056 90.4002H120.345C120.698 90.4002 121.036 90.26 121.286 90.0106C121.535 89.7611 121.675 89.4228 121.675 89.07C121.675 88.7172 121.535 88.3788 121.286 88.1294C121.036 87.8799 120.698 87.7397 120.345 87.7397Z" fill="#CDF8F3"/>
<path d="M114.854 106.031H86.4047C86.0517 106.031 85.7132 105.891 85.4636 105.642C85.214 105.392 85.0737 105.054 85.0737 104.701C85.0737 104.348 85.214 104.01 85.4636 103.76C85.7132 103.511 86.0517 103.371 86.4047 103.371H114.854C115.207 103.371 115.546 103.511 115.795 103.76C116.045 104.01 116.185 104.348 116.185 104.701C116.185 105.054 116.045 105.392 115.795 105.642C115.546 105.891 115.207 106.031 114.854 106.031Z" fill="#CDF8F3"/>
<path d="M120.344 110.521H86.4044C86.0517 110.521 85.7136 110.381 85.4644 110.131C85.2152 109.882 85.0752 109.544 85.0752 109.191C85.0752 108.839 85.2152 108.501 85.4644 108.251C85.7136 108.002 86.0517 107.861 86.4044 107.861H120.344C120.519 107.861 120.692 107.895 120.854 107.962C121.015 108.028 121.162 108.126 121.286 108.25C121.41 108.373 121.508 108.52 121.575 108.682C121.642 108.843 121.677 109.016 121.677 109.191C121.677 109.366 121.642 109.539 121.575 109.701C121.508 109.862 121.41 110.009 121.286 110.132C121.162 110.256 121.015 110.354 120.854 110.421C120.692 110.487 120.519 110.522 120.344 110.521Z" fill="#CDF8F3"/>
<path d="M74.5572 71.4061C77.1553 71.4061 79.2615 69.3009 79.2615 66.7041C79.2615 64.1073 77.1553 62.0022 74.5572 62.0022C71.9592 62.0022 69.853 64.1073 69.853 66.7041C69.853 69.3009 71.9592 71.4061 74.5572 71.4061Z" fill="#03DAC5"/>
<path d="M74.0912 68.4977C73.9854 68.4979 73.8824 68.4636 73.7977 68.4002L73.7924 68.3962L72.6869 67.5509C72.6355 67.5118 72.5924 67.4628 72.56 67.407C72.5276 67.3511 72.5065 67.2894 72.498 67.2254C72.4894 67.1614 72.4936 67.0963 72.5103 67.0339C72.5269 66.9716 72.5557 66.9131 72.595 66.8618C72.6344 66.8106 72.6834 66.7676 72.7394 66.7353C72.7953 66.703 72.8571 66.6821 72.9211 66.6737C72.9852 66.6653 73.0503 66.6696 73.1127 66.6864C73.1751 66.7032 73.2335 66.7321 73.2847 66.7715L74.0008 67.3204L75.693 65.1138C75.7322 65.0627 75.7811 65.0197 75.837 64.9875C75.8928 64.9552 75.9545 64.9343 76.0184 64.9259C76.0823 64.9174 76.1473 64.9216 76.2096 64.9383C76.2719 64.955 76.3303 64.9837 76.3815 65.0229L76.3816 65.023L76.3711 65.0376L76.3819 65.023C76.4852 65.1024 76.5527 65.2194 76.5698 65.3484C76.5868 65.4775 76.5519 65.608 76.4728 65.7114L74.4824 68.3056C74.4364 68.3654 74.3772 68.4137 74.3094 68.4469C74.2416 68.4802 74.1671 68.4973 74.0916 68.4971L74.0912 68.4977Z" fill="white"/>
<path d="M79.7448 86.8246C79.745 87.4421 79.6236 88.0537 79.3873 88.6243C79.151 89.1949 78.8046 89.7134 78.3679 90.1502C77.9311 90.587 77.4125 90.9335 76.8418 91.1699C76.271 91.4064 75.6592 91.5281 75.0414 91.5282C75.0009 91.529 74.9605 91.5274 74.9203 91.5234C73.9953 91.4997 73.0979 91.2038 72.3403 90.6729C71.5827 90.1419 70.9986 89.3994 70.6611 88.5383C70.3235 87.6772 70.2476 86.7357 70.4427 85.8317C70.6378 84.9277 71.0954 84.1013 71.7581 83.4558C72.4208 82.8104 73.2592 82.3747 74.1684 82.2032C75.0776 82.0316 76.0173 82.1319 76.8697 82.4915C77.7222 82.8511 78.4497 83.4539 78.9611 84.2247C79.4725 84.9954 79.7451 85.8998 79.7448 86.8246Z" fill="#CDF8F3"/>
<path d="M74.5572 111.648C77.1553 111.648 79.2615 109.543 79.2615 106.946C79.2615 104.35 77.1553 102.244 74.5572 102.244C71.9592 102.244 69.853 104.35 69.853 106.946C69.853 109.543 71.9592 111.648 74.5572 111.648Z" fill="#CDF8F3"/>
<path d="M122.696 42.3834L134.863 52.0169C134.89 52.0383 134.909 52.0676 134.919 52.1008C134.929 52.1339 134.928 52.1693 134.916 52.2019C134.905 52.2345 134.884 52.2628 134.856 52.2828C134.828 52.3028 134.794 52.3135 134.759 52.3135H125.089C124.383 52.3135 123.706 52.0332 123.206 51.5342C122.707 51.0353 122.427 50.3585 122.427 49.6529V42.5137C122.427 42.4824 122.436 42.4518 122.452 42.4253C122.469 42.3989 122.493 42.3776 122.521 42.364C122.549 42.3504 122.58 42.345 122.611 42.3484C122.642 42.3518 122.672 42.3639 122.696 42.3834ZM122.677 42.6867L134.519 52.0635H125.089C124.449 52.0635 123.835 51.8095 123.383 51.3574C122.931 50.9053 122.677 50.2922 122.677 49.6529V42.6867ZM134.707 52.2127L134.707 52.2129L134.707 52.2129C134.707 52.2128 134.707 52.2128 134.707 52.2127ZM122.593 42.5137H122.593H122.593ZM122.593 42.5137L122.593 42.5137L122.593 42.5137Z" fill="#9AF0E8" stroke="#03DAC5" stroke-width="0.5"/>
<path d="M79.7454 86.8248C79.7457 87.4423 79.6242 88.0539 79.3879 88.6245C79.1517 89.1951 78.8053 89.7136 78.3685 90.1504C77.9317 90.5872 77.4132 90.9337 76.8424 91.1701C76.2716 91.4066 75.6598 91.5283 75.042 91.5284C75.0016 91.5292 74.9611 91.5276 74.9209 91.5235C74.3132 90.0084 74.0789 88.3695 74.2378 86.7449C74.3967 85.1203 74.9442 83.5577 75.834 82.189C76.9283 82.3765 77.921 82.9446 78.6368 83.7929C79.3525 84.6412 79.7452 85.7151 79.7454 86.8248Z" fill="#03DAC5"/>
<path d="M85.0737 84.5805C85.0744 84.2275 85.2149 83.8892 85.4646 83.6397C85.7143 83.3901 86.0527 83.2497 86.4058 83.249H93.4949C93.909 84.0908 94.2032 84.9863 94.3692 85.9095H86.4058C86.053 85.9094 85.7146 85.7694 85.4648 85.5203C85.2151 85.2711 85.0745 84.9331 85.0737 84.5805Z" fill="#03DAC5"/>
<path d="M94.5337 87.7397C94.5342 88.6383 94.4153 89.5329 94.1801 90.4002H86.4056C86.0526 90.4002 85.7141 90.26 85.4645 90.0106C85.2149 89.7611 85.0747 89.4228 85.0747 89.07C85.0747 88.7172 85.2149 88.3788 85.4645 88.1294C85.7141 87.8799 86.0526 87.7397 86.4056 87.7397H94.5337Z" fill="#03DAC5"/>
<path d="M112.074 104.147C111.873 104.476 111.55 104.712 111.176 104.803C110.801 104.893 110.406 104.831 110.077 104.631L93.1218 94.294C92.9588 94.1947 92.8171 94.0643 92.7046 93.9102C92.5921 93.7561 92.5111 93.5814 92.4661 93.396C92.4212 93.2107 92.4133 93.0182 92.4427 92.8298C92.4722 92.6413 92.5385 92.4605 92.6379 92.2977C92.7372 92.1348 92.8677 91.9932 93.0219 91.8807C93.176 91.7683 93.3508 91.6873 93.5363 91.6424C93.7218 91.5975 93.9143 91.5895 94.1028 91.619C94.2914 91.6484 94.4723 91.7147 94.6352 91.814L111.59 102.151C111.919 102.351 112.155 102.675 112.246 103.049C112.336 103.423 112.275 103.818 112.074 104.147Z" fill="#3F3D56"/>
<path d="M95.1191 93.8103C93.9218 95.7723 92.1693 97.3354 90.0832 98.3018C87.9971 99.2683 85.6711 99.5948 83.3994 99.2399C81.1277 98.8851 79.0122 97.8649 77.3206 96.3084C75.6289 94.7519 74.4371 92.729 73.8957 90.4954C73.3543 88.2618 73.4877 85.918 74.2791 83.7602C75.0705 81.6024 76.4842 79.7276 78.3416 78.373C80.199 77.0183 82.4165 76.2445 84.7139 76.1496C87.0112 76.0546 89.2851 76.6427 91.2481 77.8394C93.8776 79.4466 95.7619 82.0307 96.4876 85.0248C97.2133 88.0189 96.7212 91.1784 95.1191 93.8103ZM77.7506 83.2213C76.8527 84.6928 76.4114 86.3974 76.4827 88.1196C76.5539 89.8418 77.1345 91.5041 78.151 92.8965C79.1675 94.2888 80.5743 95.3486 82.1934 95.9419C83.8125 96.5351 85.5712 96.6351 87.2472 96.2293C88.9232 95.8235 90.4412 94.93 91.6091 93.6619C92.7771 92.3938 93.5426 90.8079 93.8088 89.105C94.0751 87.402 93.8301 85.6584 93.1049 84.0946C92.3797 82.5307 91.2068 81.217 89.7346 80.3194C87.7598 79.1185 85.389 78.7496 83.1423 79.2936C80.8957 79.8376 78.9566 81.2501 77.7506 83.2213Z" fill="#68E9DC"/>
</svg>
