<svg width="400" height="400" viewBox="0 0 400 400" fill="none" xmlns="http://www.w3.org/2000/svg">
<path d="M263.133 264.727H262.9C261.826 264.67 260.819 264.189 260.1 263.389C259.381 262.59 259.008 261.538 259.063 260.464L264.757 153.737C264.815 152.66 265.299 151.651 266.101 150.93C266.903 150.21 267.959 149.838 269.036 149.895C270.112 149.953 271.122 150.437 271.843 151.239C272.563 152.041 272.935 153.097 272.877 154.174L267.183 260.891C267.126 261.927 266.675 262.901 265.922 263.615C265.168 264.328 264.171 264.726 263.133 264.727Z" fill="#484646"/>
<path d="M128.748 225.792C126.749 225.825 124.762 225.481 122.891 224.777C115.482 221.874 113.076 217.073 112.365 213.612C109.767 200.864 125.175 185.314 126.941 183.588C127.318 183.2 127.769 182.892 128.268 182.681C128.766 182.469 129.302 182.36 129.843 182.359C130.384 182.358 130.92 182.465 131.419 182.674C131.919 182.883 132.371 183.19 132.75 183.576C133.129 183.963 133.427 184.421 133.626 184.924C133.826 185.427 133.922 185.965 133.911 186.506C133.899 187.048 133.779 187.581 133.558 188.075C133.338 188.569 133.02 189.014 132.625 189.384C127.174 194.743 119.014 205.624 120.323 211.998C120.496 212.831 121.013 215.368 125.855 217.266C134.594 220.697 152.326 206.72 161.451 197.108C162.203 196.379 163.207 195.968 164.255 195.962C165.303 195.956 166.312 196.355 167.072 197.076C167.832 197.796 168.284 198.783 168.334 199.83C168.384 200.876 168.027 201.901 167.338 202.691C164.861 205.218 144.856 225.792 128.748 225.792Z" fill="#484646"/>
<path d="M148.205 139.111C148.205 139.111 139.07 134.757 136.725 142.43C134.381 150.104 133.924 172.992 131.772 175.621C129.487 178.093 127.031 180.403 124.424 182.533L134.269 202.092L156.112 192.267C156.112 192.267 148.499 149.677 148.205 139.111Z" fill="white"/>
<path d="M134.218 202.589C134.12 202.588 134.023 202.559 133.939 202.508C133.855 202.456 133.787 202.382 133.741 202.295L123.906 182.746C123.851 182.64 123.834 182.519 123.858 182.403C123.882 182.286 123.946 182.182 124.038 182.106C126.616 179.99 129.048 177.701 131.315 175.255C132.33 174.017 133.021 166.892 133.68 160.03C134.34 153.169 135.03 146.013 136.177 142.278C136.413 141.335 136.856 140.457 137.474 139.708C138.092 138.958 138.87 138.355 139.75 137.944C143.455 136.32 148.185 138.543 148.388 138.644C148.473 138.685 148.545 138.748 148.597 138.827C148.649 138.905 148.678 138.997 148.682 139.091C149.017 149.505 156.508 191.749 156.579 192.165C156.6 192.282 156.582 192.402 156.527 192.507C156.472 192.612 156.383 192.695 156.274 192.744L134.431 202.589C134.361 202.603 134.289 202.603 134.218 202.589ZM125.022 182.644L134.452 201.381L155.472 191.922C154.711 187.598 148.103 149.86 147.647 139.426C146.632 138.999 142.947 137.649 140.166 138.878C139.427 139.23 138.776 139.743 138.26 140.378C137.743 141.014 137.375 141.756 137.182 142.552C136.066 146.186 135.386 153.26 134.726 160.101C133.873 169.013 133.264 174.535 132.127 175.925C129.926 178.345 127.552 180.601 125.022 182.675V182.644Z" fill="#484646"/>
<path d="M197.94 287.129C196.962 287.14 196.013 286.798 195.268 286.166C194.522 285.534 194.029 284.654 193.88 283.688L181.101 200.143C180.938 199.078 181.205 197.993 181.843 197.125C182.48 196.257 183.437 195.678 184.501 195.515C185.566 195.352 186.652 195.619 187.52 196.256C188.388 196.894 188.967 197.85 189.13 198.915L202 282.46C202.081 282.987 202.057 283.525 201.93 284.043C201.803 284.561 201.575 285.048 201.259 285.478C200.943 285.908 200.546 286.271 200.089 286.548C199.633 286.824 199.127 287.007 198.6 287.088C198.381 287.119 198.161 287.132 197.94 287.129Z" fill="#484646"/>
<path d="M222.077 287.129H221.61C221.08 287.068 220.567 286.904 220.101 286.645C219.634 286.386 219.224 286.038 218.892 285.621C218.56 285.203 218.314 284.724 218.167 284.211C218.02 283.699 217.976 283.162 218.037 282.632C221.011 256.861 225.589 214.749 225.426 209.684C225.214 208.764 225.33 207.798 225.753 206.954C226.176 206.109 226.88 205.439 227.745 205.058C228.609 204.677 229.579 204.609 230.488 204.866C231.397 205.123 232.187 205.689 232.724 206.466C233.901 208.162 234.257 208.669 230.166 246.955C228.228 265.144 226.106 283.383 226.106 283.566C225.985 284.549 225.508 285.454 224.766 286.11C224.024 286.766 223.067 287.129 222.077 287.129Z" fill="#484646"/>
<path d="M208.334 314.605C244.227 314.605 273.324 311.146 273.324 306.88C273.324 302.615 244.227 299.156 208.334 299.156C172.44 299.156 143.343 302.615 143.343 306.88C143.343 311.146 172.44 314.605 208.334 314.605Z" fill="#F2F1F1"/>
<path d="M206.659 232.775C243.348 232.775 273.091 203.033 273.091 166.344C273.091 129.654 243.348 99.9118 206.659 99.9118C169.97 99.9118 140.227 129.654 140.227 166.344C140.227 203.033 169.97 232.775 206.659 232.775Z" fill="#FF931E"/>
<path d="M206.73 99.8915C223.807 99.8811 240.234 106.439 252.61 118.206C264.986 129.974 272.362 146.05 273.211 163.106C274.06 180.162 268.318 196.892 257.172 209.831C246.027 222.77 230.332 230.927 213.338 232.613C196.345 234.299 179.353 229.385 165.883 218.888C152.412 208.392 143.494 193.117 140.975 176.227C138.456 159.336 142.529 142.124 152.351 128.154C162.173 114.184 176.992 104.526 193.738 101.181C198.016 100.325 202.367 99.8937 206.73 99.8915ZM206.73 98.8765C188.829 98.8576 171.653 105.951 158.981 118.596C146.31 131.241 139.18 148.401 139.161 166.303C139.143 184.204 146.236 201.38 158.881 214.052C171.526 226.723 188.686 233.853 206.588 233.871C215.452 233.881 224.231 232.144 232.423 228.761C240.616 225.377 248.062 220.413 254.337 214.152C260.611 207.891 265.591 200.455 268.991 192.27C272.392 184.084 274.147 175.309 274.156 166.445C274.166 157.581 272.429 148.802 269.046 140.609C265.662 132.417 260.698 124.971 254.437 118.696C248.176 112.422 240.74 107.442 232.555 104.042C224.369 100.641 215.594 98.8858 206.73 98.8765Z" fill="#484646"/>
<path d="M183.642 166.965C186.499 166.411 187.749 160.466 186.435 153.687C185.121 146.908 181.74 141.862 178.883 142.415C176.026 142.969 174.776 148.914 176.09 155.693C177.405 162.472 180.786 167.518 183.642 166.965Z" fill="#484646"/>
<path d="M226.539 158.66C229.396 158.106 230.646 152.162 229.332 145.383C228.017 138.604 224.636 133.557 221.779 134.111C218.923 134.665 217.672 140.609 218.987 147.388C220.301 154.167 223.682 159.214 226.539 158.66Z" fill="#484646"/>
<path d="M178.523 216.21C178.171 216.21 177.829 216.087 177.557 215.863C177.285 215.64 177.099 215.328 177.031 214.982C175.478 207.157 178.046 199.047 184.136 192.125C190.226 185.202 199.056 180.482 209.105 178.503C229.943 174.362 249.471 184.005 252.648 199.991C252.726 200.395 252.641 200.813 252.411 201.154C252.18 201.494 251.824 201.73 251.42 201.808C251.016 201.886 250.598 201.8 250.257 201.57C249.917 201.34 249.681 200.983 249.603 200.579C246.761 186.248 228.837 177.681 209.643 181.487C200.274 183.345 192.022 187.841 186.42 194.144C180.817 200.448 178.635 207.522 179.995 214.394C180.072 214.789 179.99 215.2 179.765 215.535C179.541 215.869 179.193 216.102 178.797 216.18L178.523 216.21Z" fill="#484646"/>
<path d="M136.021 201.483L125.959 181.152C125.037 179.288 122.778 178.524 120.914 179.447L119.922 179.938C118.058 180.86 117.295 183.119 118.218 184.983L128.279 205.314C129.202 207.178 131.461 207.942 133.325 207.019L134.316 206.529C136.18 205.606 136.943 203.347 136.021 201.483Z" fill="white"/>
<path d="M131.671 207.938C130.868 207.938 130.082 207.714 129.401 207.291C128.719 206.867 128.169 206.262 127.814 205.543L117.755 185.243C117.504 184.738 117.356 184.188 117.317 183.625C117.279 183.063 117.352 182.498 117.532 181.964C117.712 181.429 117.996 180.936 118.367 180.511C118.738 180.086 119.189 179.738 119.694 179.488L120.709 179.001C121.212 178.749 121.76 178.6 122.321 178.562C122.882 178.523 123.445 178.597 123.977 178.777C125.056 179.142 125.947 179.919 126.454 180.939L136.512 201.239C136.763 201.744 136.912 202.294 136.95 202.857C136.988 203.419 136.915 203.984 136.735 204.518C136.555 205.053 136.272 205.547 135.901 205.971C135.53 206.396 135.079 206.744 134.574 206.994L133.559 207.481C132.972 207.773 132.326 207.929 131.671 207.938ZM128.758 205.086C129.141 205.855 129.814 206.44 130.628 206.714C131.442 206.988 132.332 206.928 133.102 206.548L134.117 206.06C134.887 205.679 135.475 205.007 135.751 204.193C136.027 203.378 135.968 202.488 135.589 201.716L125.53 181.416C125.143 180.646 124.469 180.059 123.652 179.782C123.248 179.647 122.822 179.592 122.397 179.622C121.972 179.651 121.557 179.764 121.176 179.955L120.161 180.442C119.778 180.63 119.437 180.892 119.156 181.212C118.875 181.533 118.661 181.906 118.525 182.309C118.389 182.713 118.334 183.14 118.364 183.565C118.394 183.99 118.508 184.405 118.699 184.786L128.758 205.086Z" fill="#484646"/>
<path d="M162.797 176.949C167.174 176.08 170.275 173.121 169.723 170.339C169.171 167.557 165.175 166.005 160.799 166.873C156.422 167.741 153.321 170.701 153.873 173.483C154.425 176.265 158.42 177.817 162.797 176.949Z" fill="white"/>
<path d="M253.286 159.403C257.663 158.535 260.764 155.576 260.212 152.794C259.66 150.011 255.664 148.46 251.288 149.328C246.911 150.196 243.81 153.155 244.362 155.938C244.914 158.72 248.909 160.272 253.286 159.403Z" fill="white"/>
<path d="M168.82 149.21C168.82 149.21 182.684 143.12 184.42 133.843L168.82 149.21Z" fill="#FF931E"/>
<path d="M168.82 150.733C168.452 150.76 168.087 150.652 167.792 150.43C167.498 150.209 167.294 149.888 167.218 149.527C167.143 149.166 167.201 148.79 167.381 148.469C167.562 148.147 167.853 147.902 168.2 147.779C168.332 147.718 181.395 141.862 182.918 133.518C182.955 133.319 183.032 133.128 183.143 132.957C183.254 132.787 183.397 132.64 183.565 132.525C183.733 132.41 183.921 132.329 184.12 132.287C184.319 132.245 184.525 132.243 184.725 132.28C184.925 132.317 185.115 132.394 185.286 132.505C185.456 132.616 185.603 132.759 185.718 132.927C185.833 133.095 185.914 133.284 185.956 133.483C185.998 133.682 186 133.887 185.963 134.087C184.105 143.993 170.078 150.327 169.479 150.56C169.277 150.67 169.05 150.729 168.82 150.733Z" fill="#484646"/>
<path d="M234.409 136.614C234.409 136.614 219.245 136.249 214.109 128.362L234.409 136.614Z" fill="#FF931E"/>
<path d="M234.409 138.127C233.759 138.127 218.392 137.639 212.891 129.184C212.756 129.021 212.657 128.831 212.6 128.627C212.542 128.424 212.528 128.21 212.558 128C212.588 127.791 212.662 127.59 212.774 127.41C212.886 127.23 213.034 127.076 213.209 126.957C213.384 126.838 213.582 126.756 213.791 126.718C213.999 126.68 214.213 126.685 214.419 126.735C214.625 126.784 214.818 126.875 214.987 127.004C215.156 127.132 215.296 127.294 215.398 127.479C220.026 134.584 234.297 135.031 234.45 135.041C234.853 135.041 235.241 135.201 235.526 135.487C235.812 135.772 235.972 136.16 235.972 136.563C235.972 136.967 235.812 137.354 235.526 137.64C235.241 137.926 234.853 138.086 234.45 138.086L234.409 138.127Z" fill="#484646"/>
<path d="M135.152 177.803C135.152 177.803 134.787 160.314 138.857 153.94C142.927 147.566 151.778 145.201 149.87 152.062C147.961 158.924 142.765 167.135 142.765 167.135C142.765 167.135 146.591 181.802 141.831 190.561" fill="white"/>
<path d="M141.821 191.089C141.732 191.09 141.645 191.069 141.567 191.028C141.445 190.962 141.354 190.85 141.314 190.717C141.275 190.584 141.289 190.441 141.354 190.318C145.962 181.843 142.288 167.409 142.247 167.267C142.229 167.197 142.225 167.124 142.235 167.053C142.246 166.981 142.27 166.913 142.308 166.851C142.369 166.77 147.505 158.619 149.362 151.92C149.707 150.702 149.859 149.139 148.702 148.622C146.672 147.718 141.922 150.124 139.303 154.224C135.365 160.385 135.67 177.62 135.67 177.793C135.671 177.861 135.659 177.928 135.634 177.992C135.609 178.055 135.572 178.113 135.525 178.162C135.478 178.211 135.422 178.25 135.36 178.277C135.297 178.305 135.23 178.319 135.162 178.321C135.026 178.321 134.894 178.268 134.796 178.173C134.698 178.079 134.64 177.949 134.634 177.813C134.634 177.092 134.32 160.091 138.431 153.666C141.181 149.352 146.388 146.439 149.139 147.668C149.971 148.033 151.24 149.119 150.387 152.194C148.621 158.558 144.135 165.917 143.282 167.216C143.769 169.165 146.794 182.441 142.267 190.815C142.224 190.896 142.16 190.965 142.081 191.013C142.003 191.061 141.913 191.087 141.821 191.089Z" fill="#484646"/>
<path d="M273.324 243.636C273.324 243.636 270.553 259.257 270.279 264.118C270.005 268.98 262.768 287.961 253.41 289.108C244.051 290.255 258.109 279.739 257.896 272.868C257.683 265.996 252.364 272.076 250.365 279.212C248.365 286.347 244.559 278.877 246.305 272.299C248.05 265.722 248.974 265.631 249.543 260.201C250.111 254.77 249.167 237.343 249.167 237.343L273.324 243.636Z" fill="white"/>
<path d="M252.171 289.707C250.974 289.707 250.233 289.422 249.878 288.834C249.086 287.494 250.618 285.342 252.74 282.348C254.861 279.354 257.449 275.71 257.368 272.898C257.307 271.122 256.901 270.442 256.536 270.401C255.318 270.259 252.344 274.035 250.852 279.364C249.989 282.409 248.822 282.825 247.969 282.602C245.939 282.064 244.528 276.907 245.757 272.178C246.457 269.508 247.036 267.874 247.502 266.565C248.302 264.512 248.801 262.355 248.984 260.16C249.543 254.831 248.609 237.556 248.599 237.373C248.593 237.292 248.608 237.21 248.642 237.136C248.675 237.062 248.727 236.997 248.791 236.947C248.855 236.894 248.931 236.857 249.013 236.839C249.094 236.821 249.178 236.824 249.258 236.845L273.456 243.128C273.583 243.162 273.694 243.242 273.765 243.353C273.836 243.464 273.864 243.597 273.842 243.727C273.842 243.879 271.071 259.378 270.797 264.149C270.523 268.919 263.235 288.428 253.471 289.625C253.04 289.68 252.606 289.707 252.171 289.707ZM256.475 269.356H256.658C257.754 269.488 258.343 270.665 258.414 272.858C258.505 276.014 255.896 279.699 253.592 282.947C252.06 285.099 250.334 287.535 250.781 288.286C250.882 288.448 251.329 288.813 253.339 288.57C262.403 287.463 269.487 268.463 269.751 264.078C270.015 259.693 272.248 246.711 272.725 244.011L249.685 238.023C249.857 241.403 250.537 255.41 250.03 260.261C249.831 262.539 249.312 264.777 248.487 266.91C248.03 268.199 247.472 269.802 246.772 272.431C245.625 276.826 247.056 281.262 248.243 281.566C248.629 281.668 249.258 281.069 249.847 279.059C251.167 274.39 254.161 269.356 256.475 269.356Z" fill="#484646"/>
<path d="M248.848 240.897L274.996 247.982C277.155 248.566 279.379 247.291 279.964 245.132L280.105 244.613C280.689 242.454 279.414 240.229 277.255 239.644L251.107 232.56C248.948 231.975 246.724 233.251 246.139 235.41L245.998 235.929C245.414 238.088 246.689 240.312 248.848 240.897Z" fill="white"/>
<path d="M276.095 248.66C275.69 248.657 275.288 248.602 274.897 248.498L248.73 241.393C247.56 241.074 246.564 240.304 245.96 239.252C245.357 238.2 245.196 236.951 245.513 235.78L245.655 235.262C245.969 234.097 246.731 233.103 247.775 232.496C248.818 231.89 250.059 231.72 251.227 232.024L277.384 239.129C277.963 239.286 278.506 239.555 278.981 239.921C279.456 240.287 279.855 240.744 280.153 241.264C280.452 241.784 280.646 242.358 280.723 242.953C280.799 243.548 280.758 244.153 280.601 244.732L280.459 245.26C280.195 246.227 279.622 247.081 278.826 247.692C278.031 248.302 277.057 248.635 276.054 248.64L276.095 248.66ZM250.07 232.948C249.296 232.95 248.544 233.206 247.929 233.678C247.315 234.149 246.873 234.809 246.67 235.556L246.528 236.074C246.406 236.521 246.374 236.987 246.433 237.446C246.492 237.905 246.64 238.348 246.87 238.749C247.1 239.151 247.407 239.503 247.773 239.786C248.14 240.069 248.558 240.277 249.005 240.398L275.161 247.503C275.608 247.624 276.074 247.657 276.533 247.598C276.992 247.539 277.435 247.391 277.836 247.161C278.238 246.931 278.59 246.624 278.873 246.258C279.156 245.891 279.364 245.473 279.485 245.026L279.627 244.499C279.752 244.047 279.787 243.576 279.728 243.111C279.668 242.646 279.517 242.198 279.283 241.793C279.048 241.387 278.736 241.033 278.362 240.75C277.989 240.467 277.564 240.261 277.11 240.144L250.953 233.039C250.651 232.97 250.34 232.939 250.03 232.948H250.07Z" fill="#484646"/>
<path d="M208.334 269.792C208.334 269.792 179.69 264.2 179.457 266.991C179.223 269.782 180.391 292.64 180.391 292.64C180.391 292.64 152.986 307.368 157.208 309.235C161.43 311.103 208.334 302.435 208.334 302.435V269.792Z" fill="white"/>
<path d="M159.583 310.007C158.71 310.06 157.834 309.961 156.995 309.712C156.784 309.635 156.601 309.498 156.467 309.317C156.334 309.137 156.256 308.921 156.244 308.697C156.244 308.048 156.163 306.353 168.262 298.984C173.387 295.868 178.584 293.026 179.853 292.335C179.701 289.412 178.716 269.599 178.939 266.96C178.954 266.82 178.998 266.685 179.068 266.563C179.137 266.44 179.232 266.334 179.345 266.25C181.994 264.22 204.05 268.432 208.435 269.295C208.556 269.317 208.665 269.381 208.744 269.475C208.822 269.57 208.863 269.69 208.862 269.813V302.455C208.861 302.577 208.819 302.696 208.741 302.79C208.663 302.885 208.555 302.949 208.435 302.973C204.132 303.744 169.896 310.007 159.583 310.007ZM182.34 266.707C181.02 266.707 180.188 266.829 179.964 267.092C179.751 269.772 180.908 292.386 180.919 292.62C180.921 292.718 180.897 292.815 180.848 292.901C180.8 292.987 180.73 293.058 180.645 293.107C169.114 299.309 157.228 306.82 157.3 308.657C157.3 308.657 157.3 308.718 157.421 308.758C160.71 310.22 194.489 304.444 207.816 301.998V270.229C197.686 268.26 187.009 266.707 182.34 266.707Z" fill="#484646"/>
<path d="M211.48 269.792C211.48 269.792 240.123 264.2 240.357 266.991C240.59 269.782 239.423 292.64 239.423 292.64C239.423 292.64 266.828 307.368 262.606 309.235C258.383 311.103 211.48 302.435 211.48 302.435V269.792Z" fill="white"/>
<path d="M260.231 310.007C249.928 310.007 215.682 303.744 211.379 302.952C211.259 302.929 211.151 302.864 211.073 302.77C210.995 302.676 210.952 302.557 210.952 302.435V269.792C210.952 269.67 210.995 269.552 211.073 269.457C211.151 269.363 211.259 269.298 211.379 269.275C215.774 268.422 237.769 264.2 240.469 266.23C240.585 266.311 240.681 266.416 240.752 266.539C240.822 266.662 240.864 266.799 240.875 266.94C241.098 269.589 240.113 289.402 239.961 292.315C244.569 294.802 263.692 305.338 263.57 308.677C263.558 308.901 263.48 309.117 263.347 309.297C263.213 309.478 263.03 309.615 262.819 309.692C261.981 309.947 261.105 310.054 260.231 310.007ZM211.998 301.998C225.325 304.444 259.104 310.21 262.393 308.758C262.474 308.758 262.525 308.687 262.525 308.657C262.596 306.82 250.71 299.309 239.18 293.107C239.093 293.059 239.021 292.989 238.973 292.903C238.924 292.816 238.901 292.718 238.905 292.62C238.905 292.386 240.063 269.772 239.839 267.042C238.824 265.864 224.97 267.712 211.998 270.229V301.998Z" fill="#484646"/>
<path d="M136.543 93.4056C134.868 90.5332 130.991 89.5283 127.763 90.3606C124.535 91.1929 121.866 93.4056 119.541 95.7807C118.783 96.4157 118.27 97.295 118.09 98.2675C118.029 99.2825 118.963 100.297 119.886 99.9727C115.431 99.181 111.766 103.474 109.807 107.545C108.792 109.575 108.011 111.909 108.924 113.929C109.838 115.949 112.315 116.974 114.588 117.218C118.918 117.678 123.255 116.42 126.667 113.716C128.024 115.037 129.694 115.991 131.521 116.488C133.349 116.985 135.272 117.01 137.111 116.559C138.951 116.109 140.645 115.198 142.035 113.912C143.425 112.626 144.466 111.008 145.058 109.209C144.206 109.747 145.546 110.833 146.54 110.884C148.966 111.026 151.473 111.158 153.737 110.265C158.873 108.235 159.482 95.8721 156.051 91.8425C152.417 87.5491 138.897 87.7724 136.543 93.4056Z" fill="white"/>
<path d="M116.395 117.816C115.771 117.818 115.147 117.784 114.527 117.715C111.533 117.38 109.32 116.071 108.437 114.122C107.422 111.828 108.366 109.27 109.32 107.301C110.274 105.332 113.208 100.064 117.826 99.3941C117.63 99.0302 117.539 98.6192 117.562 98.2066C117.743 97.1102 118.308 96.1138 119.156 95.395C121.186 93.2737 124.048 90.7159 127.621 89.8227C130.585 89.0919 134.411 89.8227 136.482 92.3906C137.71 90.4926 140.308 89.1223 143.769 88.5844C148.246 87.884 154.031 88.6453 156.437 91.467C158.599 94.0045 159.35 99.79 158.142 104.662C157.35 107.808 155.858 109.97 153.919 110.752C151.514 111.696 148.844 111.544 146.5 111.412C145.943 111.361 145.411 111.154 144.967 110.813C144.186 112.453 143.033 113.888 141.598 115.003C140.163 116.118 138.488 116.881 136.705 117.232C134.923 117.583 133.083 117.512 131.333 117.025C129.583 116.538 127.971 115.648 126.626 114.426C123.673 116.634 120.082 117.824 116.395 117.816ZM118.841 100.379C115.187 100.379 112.061 104.073 110.274 107.758C109.422 109.524 108.549 111.818 109.402 113.695C110.417 115.959 113.462 116.537 114.649 116.669C118.843 117.129 123.048 115.906 126.342 113.269C126.438 113.186 126.56 113.141 126.687 113.141C126.814 113.141 126.936 113.186 127.032 113.269C128.271 114.495 129.794 115.395 131.465 115.891C133.136 116.386 134.903 116.462 136.61 116.11C138.317 115.759 139.911 114.991 141.25 113.876C142.59 112.761 143.633 111.332 144.287 109.717C144.261 109.516 144.295 109.312 144.386 109.132C144.476 108.951 144.619 108.801 144.795 108.702C144.882 108.638 144.986 108.604 145.094 108.604C145.202 108.604 145.307 108.638 145.393 108.702C145.478 108.766 145.541 108.856 145.572 108.958C145.603 109.06 145.601 109.169 145.566 109.27C145.566 109.412 145.475 109.554 145.424 109.696C145.733 110.014 146.141 110.214 146.581 110.265C148.824 110.397 151.362 110.539 153.554 109.676C155.168 109.037 156.447 107.139 157.147 104.327C158.264 99.8509 157.594 94.3496 155.655 92.0861C153.716 89.8227 148.753 88.9092 143.942 89.6197C140.369 90.1779 137.852 91.6497 137.03 93.5985C136.993 93.6908 136.93 93.7705 136.849 93.8281C136.768 93.8856 136.672 93.9187 136.573 93.9233C136.476 93.9298 136.38 93.9096 136.294 93.8648C136.208 93.82 136.136 93.7525 136.086 93.6695C134.462 90.8783 130.727 90.1373 127.885 90.8478C124.566 91.67 121.886 94.106 119.917 96.1258C119.255 96.6769 118.797 97.4348 118.618 98.2776C118.617 98.4738 118.661 98.6675 118.747 98.8436C118.833 99.0197 118.959 99.1734 119.115 99.2926C119.389 99.2926 119.673 99.2926 119.968 99.3941C120.08 99.4139 120.183 99.4705 120.26 99.5549C120.338 99.6394 120.385 99.7471 120.394 99.861C120.403 99.9761 120.374 100.091 120.312 100.188C120.25 100.285 120.157 100.359 120.049 100.399C119.651 100.541 119.213 100.519 118.831 100.338L118.841 100.379Z" fill="#D1D1D1"/>
<path d="M144.866 109.747C144.291 109.738 143.718 109.69 143.15 109.605C141.07 109.301 138.431 108.458 137.679 106.134C137.638 106.002 137.649 105.859 137.712 105.735C137.775 105.612 137.883 105.518 138.014 105.474C138.146 105.432 138.289 105.444 138.413 105.506C138.536 105.569 138.63 105.678 138.674 105.809C139.283 107.717 141.841 108.357 143.303 108.57C144.391 108.788 145.517 108.736 146.581 108.417C147.436 108.038 148.182 107.452 148.753 106.712C149.637 105.648 150.325 104.435 150.783 103.129C150.829 102.995 150.926 102.884 151.054 102.821C151.181 102.758 151.329 102.749 151.463 102.794C151.598 102.84 151.709 102.938 151.771 103.065C151.834 103.193 151.844 103.34 151.798 103.474C151.302 104.902 150.549 106.227 149.575 107.382C148.895 108.268 148.001 108.967 146.977 109.412C146.3 109.655 145.584 109.769 144.866 109.747Z" fill="#D1D1D1"/>
<path d="M254.496 91.9542C252.813 91.5793 251.05 91.8357 249.544 92.6747C248.037 93.5137 246.892 94.8769 246.324 96.5053C245.757 98.1337 245.807 99.9137 246.466 101.507C247.125 103.101 248.346 104.397 249.898 105.149C250.704 105.397 251.465 105.774 252.151 106.266C252.601 106.757 252.984 107.307 253.288 107.9C255.419 111.31 259.967 112.67 263.905 111.868C267.843 111.067 271.213 108.448 273.831 105.393C273.501 105.699 273.303 106.123 273.283 106.573C273.262 107.023 273.419 107.463 273.72 107.798C274.362 108.456 275.192 108.899 276.095 109.067C278.866 109.808 281.941 110.082 284.499 108.773C285.769 108.172 286.793 107.151 287.396 105.882C287.999 104.612 288.144 103.174 287.808 101.81C288.316 103.545 290.508 102.825 291.259 102.043C292.274 101.028 292.173 98.0949 292 96.8262C291.492 92.9083 287.828 88.8077 283.545 89.1426C282.694 89.3155 281.822 89.3633 280.957 89.2847C279.546 88.9802 278.653 87.5998 277.364 86.9401C276.589 86.6033 275.742 86.4676 274.901 86.5457C274.06 86.6237 273.252 86.913 272.553 87.3867C271.15 88.3341 269.941 89.5397 268.99 90.9392C268.401 89.4979 266.544 89.1528 264.991 89.1731C260.931 89.2238 258.627 90.0561 255.856 92.685C255.435 92.3853 254.978 92.1398 254.496 91.9542Z" fill="white"/>
<path d="M261.631 112.65C259.911 112.7 258.205 112.318 256.67 111.54C255.134 110.762 253.818 109.611 252.841 108.194C252.75 108.062 252.669 107.92 252.588 107.778C252.381 107.313 252.069 106.902 251.676 106.578C251.283 106.254 250.82 106.025 250.324 105.91L249.705 105.657C247.983 104.882 246.613 103.491 245.866 101.757C245.119 100.023 245.048 98.0714 245.669 96.2879C246.289 94.5044 247.555 93.018 249.217 92.1219C250.88 91.2257 252.817 90.9848 254.648 91.4467C255.055 91.5806 255.436 91.7831 255.775 92.0455C258.485 89.5892 260.85 88.7366 264.981 88.6859C266.889 88.6859 268.259 89.1325 269.041 90.046C269.912 88.821 271.003 87.7679 272.258 86.9401C273.035 86.4189 273.931 86.1028 274.863 86.0212C275.794 85.9395 276.732 86.095 277.587 86.4732C278.147 86.7829 278.668 87.1576 279.14 87.5897C279.557 88.104 280.116 88.4848 280.748 88.685C281.379 88.8852 282.055 88.8961 282.693 88.7163L283.484 88.625C288.123 88.2494 291.97 92.6139 292.518 96.745C292.518 96.9175 293.056 100.978 291.614 102.399C291.222 102.768 290.749 103.043 290.234 103.201C289.718 103.36 289.173 103.398 288.64 103.312H288.529C288.492 104.551 288.116 105.756 287.441 106.796C286.766 107.836 285.819 108.671 284.702 109.209C282.378 110.366 279.424 110.478 275.933 109.544C274.946 109.37 274.036 108.899 273.324 108.194C273.107 107.925 272.949 107.614 272.857 107.281C270.479 109.835 267.4 111.632 264.006 112.447C263.224 112.595 262.428 112.663 261.631 112.65ZM252.902 92.2587C251.534 92.2686 250.199 92.6875 249.071 93.4616C247.942 94.2357 247.071 95.3297 246.569 96.6029C246.091 98.1552 246.184 99.8272 246.832 101.317C247.48 102.806 248.64 104.014 250.101 104.723L250.7 104.956C251.307 105.115 251.872 105.405 252.355 105.807C252.837 106.209 253.225 106.712 253.491 107.281L253.724 107.666C255.623 110.711 259.814 112.234 263.803 111.412C267.433 110.494 270.674 108.438 273.05 105.545C273.174 105.328 273.344 105.141 273.547 104.997C273.653 104.929 273.778 104.9 273.903 104.916C274.027 104.932 274.141 104.992 274.226 105.085C274.31 105.178 274.358 105.297 274.362 105.423C274.366 105.548 274.326 105.67 274.248 105.768L273.913 106.144C273.877 106.232 273.854 106.324 273.842 106.418C273.797 106.803 273.906 107.19 274.146 107.494C274.727 108.027 275.45 108.38 276.227 108.509C279.465 109.382 282.175 109.29 284.256 108.255C285.419 107.714 286.359 106.785 286.914 105.628C287.47 104.472 287.606 103.158 287.301 101.911C287.262 101.777 287.278 101.632 287.345 101.509C287.413 101.387 287.526 101.296 287.661 101.257C287.796 101.218 287.94 101.234 288.063 101.301C288.186 101.369 288.277 101.482 288.316 101.617C288.346 101.77 288.419 101.912 288.527 102.025C288.635 102.139 288.773 102.219 288.925 102.256C289.281 102.296 289.642 102.26 289.983 102.15C290.324 102.04 290.638 101.858 290.904 101.617C291.645 100.876 291.696 98.3791 291.493 96.8465C291.016 93.1722 287.534 89.305 283.596 89.6197L282.855 89.7009C282.071 89.9019 281.247 89.8811 280.475 89.641C279.702 89.4008 279.012 88.9506 278.48 88.3408C278.074 87.952 277.625 87.6114 277.141 87.3258C276.442 87.0349 275.683 86.9216 274.93 86.996C274.177 87.0704 273.455 87.3301 272.827 87.7521C271.495 88.6816 270.348 89.852 269.447 91.2031C269.39 91.2758 269.315 91.3323 269.23 91.3671C269.145 91.4019 269.052 91.4138 268.96 91.4015C268.869 91.3891 268.782 91.3531 268.709 91.2969C268.636 91.2407 268.579 91.1664 268.543 91.0813C268.016 89.8024 266.107 89.6298 265.042 89.6501C261.032 89.6501 258.891 90.5129 256.242 93.0098C256.158 93.0867 256.052 93.135 255.939 93.1477C255.826 93.1605 255.711 93.1371 255.612 93.0808L255.196 92.8068C254.956 92.6192 254.689 92.4686 254.405 92.3602C253.91 92.2629 253.405 92.2288 252.902 92.2587Z" fill="#D1D1D1"/>
<path d="M274.887 106.225C274.548 106.22 274.209 106.196 273.872 106.154C272.227 105.906 270.689 105.189 269.442 104.089C268.194 102.989 267.29 101.553 266.838 99.9524C266.82 99.8864 266.815 99.8174 266.823 99.7494C266.831 99.6815 266.853 99.6158 266.887 99.5563C266.921 99.4969 266.967 99.4447 267.021 99.4029C267.075 99.3611 267.137 99.3306 267.204 99.3129C267.338 99.2789 267.481 99.2992 267.6 99.3695C267.72 99.4398 267.807 99.5544 267.843 99.6885C268.22 101.103 269.007 102.374 270.105 103.342C271.203 104.309 272.563 104.93 274.014 105.125C275.464 105.321 276.94 105.082 278.255 104.44C279.571 103.797 280.666 102.78 281.403 101.515C281.438 101.455 281.484 101.403 281.539 101.361C281.595 101.319 281.658 101.289 281.725 101.272C281.792 101.255 281.862 101.251 281.931 101.262C281.999 101.272 282.065 101.296 282.124 101.333C282.241 101.404 282.325 101.519 282.359 101.651C282.393 101.784 282.374 101.924 282.307 102.043C281.532 103.317 280.442 104.371 279.143 105.103C277.844 105.835 276.378 106.222 274.887 106.225Z" fill="#D1D1D1"/>
<path d="M253.593 97.5671C253.465 96.8369 253.539 96.0856 253.808 95.3948C254.077 94.7039 254.53 94.0998 255.117 93.648C255.705 93.1962 256.405 92.914 257.142 92.8319C257.879 92.7498 258.624 92.871 259.297 93.1823" fill="white"/>
<path d="M253.592 98.0442C253.47 98.0461 253.35 98.0043 253.255 97.9262C253.16 97.8481 253.096 97.7388 253.075 97.6179C252.927 96.7921 253.009 95.9416 253.312 95.1593C253.614 94.3769 254.126 93.6928 254.791 93.1817C255.457 92.6705 256.249 92.3519 257.083 92.2608C257.917 92.1696 258.76 92.3093 259.52 92.6647C259.638 92.7292 259.726 92.8361 259.768 92.9636C259.81 93.0911 259.801 93.2297 259.744 93.3512C259.687 93.4727 259.586 93.568 259.462 93.6177C259.337 93.6674 259.198 93.6678 259.073 93.6188C258.488 93.3438 257.838 93.2352 257.196 93.305C256.553 93.3747 255.941 93.6202 255.429 94.0144C254.916 94.4086 254.522 94.9363 254.289 95.5397C254.057 96.1431 253.995 96.7989 254.11 97.4352C254.134 97.5724 254.102 97.7134 254.022 97.8275C253.943 97.9415 253.821 98.0194 253.684 98.0442H253.592Z" fill="#D1D1D1"/>
<path d="M127.966 121.196C127.963 121.063 127.909 120.935 127.814 120.84C127.72 120.746 127.592 120.691 127.458 120.689C127.324 120.689 127.195 120.742 127.1 120.837C127.004 120.933 126.951 121.062 126.951 121.196C127.123 122.729 127.306 124.241 127.479 125.794C127.481 125.928 127.536 126.056 127.63 126.15C127.725 126.245 127.852 126.299 127.986 126.302C128.12 126.299 128.248 126.245 128.342 126.15C128.437 126.056 128.491 125.928 128.494 125.794C128.321 124.262 128.138 122.729 127.966 121.196Z" fill="#D1D1D1"/>
<path d="M138.055 127.824C138.022 127.766 137.978 127.716 137.925 127.675C137.872 127.634 137.811 127.604 137.747 127.586C137.682 127.569 137.615 127.564 137.548 127.573C137.482 127.582 137.418 127.603 137.36 127.637C137.302 127.67 137.251 127.714 137.21 127.767C137.17 127.82 137.14 127.881 137.122 127.945C137.105 128.01 137.1 128.077 137.109 128.144C137.117 128.21 137.139 128.274 137.172 128.332C137.303 128.523 137.416 128.727 137.507 128.941V129.022V129.144C137.507 129.255 137.588 129.367 137.619 129.479C137.682 129.692 137.729 129.909 137.761 130.128V130.22C137.761 130.22 137.761 130.311 137.761 130.352C137.761 130.392 137.761 130.605 137.761 130.727C137.761 130.862 137.814 130.991 137.91 131.086C138.005 131.181 138.134 131.235 138.268 131.235C138.403 131.235 138.532 131.181 138.627 131.086C138.722 130.991 138.776 130.862 138.776 130.727C138.801 129.712 138.552 128.71 138.055 127.824Z" fill="#D1D1D1"/>
<path d="M146.175 123.734C146.043 122.973 145.921 122.211 145.789 121.45C145.754 121.321 145.669 121.212 145.553 121.145C145.437 121.079 145.299 121.061 145.17 121.095C145.042 121.135 144.934 121.222 144.868 121.339C144.802 121.456 144.783 121.594 144.815 121.724C144.937 122.485 145.069 123.247 145.19 124.008C145.228 124.137 145.315 124.247 145.433 124.313C145.55 124.38 145.689 124.398 145.82 124.363C145.948 124.323 146.056 124.236 146.122 124.119C146.188 124.002 146.207 123.864 146.175 123.734Z" fill="#D1D1D1"/>
<path d="M263.519 121.075L262.748 118.405C262.73 118.338 262.7 118.276 262.659 118.221C262.617 118.166 262.565 118.12 262.506 118.085C262.446 118.05 262.381 118.027 262.312 118.018C262.244 118.008 262.175 118.012 262.108 118.03C262.042 118.047 261.979 118.077 261.924 118.119C261.869 118.16 261.823 118.212 261.788 118.271C261.753 118.331 261.73 118.397 261.721 118.465C261.711 118.533 261.715 118.602 261.733 118.669L262.494 121.338C262.529 121.473 262.616 121.588 262.736 121.659C262.856 121.729 262.999 121.749 263.133 121.714C263.268 121.679 263.383 121.592 263.454 121.472C263.524 121.352 263.544 121.209 263.509 121.075H263.519Z" fill="#D1D1D1"/>
<path d="M274.065 124.13C273.931 124.132 273.804 124.187 273.709 124.281C273.615 124.376 273.56 124.503 273.558 124.637V127.682C273.558 127.817 273.611 127.946 273.706 128.041C273.801 128.136 273.931 128.19 274.065 128.19C274.199 128.187 274.326 128.133 274.421 128.038C274.516 127.944 274.57 127.816 274.573 127.682V124.637C274.57 124.503 274.516 124.376 274.421 124.281C274.326 124.187 274.199 124.132 274.065 124.13Z" fill="#D1D1D1"/>
<path d="M284.144 124.637C284.139 124.504 284.084 124.378 283.99 124.284C283.896 124.19 283.77 124.135 283.637 124.13C283.383 124.13 283.088 124.363 283.129 124.637L283.708 129.225C283.708 129.36 283.761 129.489 283.856 129.584C283.951 129.679 284.08 129.732 284.215 129.732C284.35 129.732 284.479 129.679 284.574 129.584C284.669 129.489 284.723 129.36 284.723 129.225L284.144 124.637Z" fill="#D1D1D1"/>
<path d="M279.394 146.998C279.26 147 279.132 147.055 279.038 147.149C278.943 147.244 278.889 147.371 278.886 147.505V149.403C278.886 149.538 278.94 149.667 279.035 149.762C279.13 149.857 279.259 149.911 279.394 149.911C279.528 149.911 279.657 149.857 279.753 149.762C279.848 149.667 279.901 149.538 279.901 149.403V147.505C279.901 147.371 279.848 147.241 279.753 147.146C279.657 147.051 279.528 146.998 279.394 146.998Z" fill="#D1D1D1"/>
<path d="M289.818 157.645C289.432 156.376 289.056 155.107 288.671 153.839C288.631 153.711 288.543 153.603 288.426 153.537C288.31 153.471 288.172 153.452 288.041 153.483C287.915 153.521 287.807 153.607 287.743 153.723C287.678 153.839 287.662 153.975 287.696 154.103C288.072 155.382 288.458 156.65 288.843 157.919C288.861 157.986 288.892 158.048 288.934 158.103C288.977 158.158 289.029 158.203 289.089 158.238C289.149 158.272 289.215 158.294 289.283 158.303C289.352 158.312 289.421 158.308 289.488 158.29C289.555 158.272 289.617 158.241 289.672 158.198C289.726 158.156 289.772 158.104 289.807 158.044C289.841 157.984 289.863 157.918 289.872 157.85C289.881 157.781 289.876 157.712 289.858 157.645H289.818Z" fill="#D1D1D1"/>
<path d="M120.557 133.031C120.554 132.897 120.5 132.77 120.405 132.675C120.31 132.581 120.183 132.526 120.049 132.524C119.914 132.524 119.785 132.577 119.69 132.672C119.595 132.768 119.542 132.897 119.542 133.031C119.663 134.168 119.785 135.315 119.917 136.462C119.917 136.597 119.971 136.726 120.066 136.821C120.161 136.916 120.29 136.969 120.425 136.969C120.558 136.967 120.686 136.913 120.781 136.818C120.875 136.723 120.929 136.596 120.932 136.462C120.8 135.315 120.678 134.168 120.557 133.031Z" fill="#D1D1D1"/>
<path d="M125.53 154.996C125.145 153.547 125.042 152.038 125.225 150.55C125.225 150.416 125.172 150.286 125.077 150.191C124.982 150.096 124.852 150.043 124.718 150.043C124.583 150.043 124.454 150.096 124.359 150.191C124.264 150.286 124.21 150.416 124.21 150.55C124.022 152.13 124.135 153.732 124.545 155.27C124.582 155.4 124.668 155.511 124.786 155.578C124.904 155.644 125.044 155.661 125.175 155.625C125.305 155.589 125.416 155.502 125.483 155.384C125.549 155.266 125.566 155.126 125.53 154.996Z" fill="#D1D1D1"/>
<path d="M130.788 137.467C130.654 137.469 130.526 137.524 130.432 137.618C130.337 137.713 130.283 137.84 130.28 137.974V140.258C130.28 140.393 130.334 140.522 130.429 140.617C130.524 140.712 130.653 140.766 130.788 140.766C130.922 140.766 131.051 140.712 131.146 140.617C131.242 140.522 131.295 140.393 131.295 140.258V137.974C131.292 137.84 131.238 137.713 131.144 137.618C131.049 137.524 130.921 137.469 130.788 137.467Z" fill="#D1D1D1"/>
</svg>
