<svg width="150" height="150" viewBox="0 0 150 150" fill="none" xmlns="http://www.w3.org/2000/svg">
<g clip-path="url(#clip0_1233_27096)">
<path d="M89.7774 83.084L41.5459 95.4982C39.9099 95.9173 38.1743 95.6707 36.7199 94.8124C35.2655 93.9541 34.2112 92.5542 33.7881 90.9199L19.2017 34.3034C18.7823 32.6681 19.0291 30.9333 19.8878 29.4797C20.7465 28.026 22.1471 26.9722 23.7822 26.5493L68.6537 15L80.1387 20.139L94.358 75.33C94.7773 76.9653 94.5305 78.7 93.6718 80.1537C92.8131 81.6074 91.4126 82.6612 89.7774 83.084Z" fill="#F2F2F2"/>
<path d="M24.24 28.3244C23.0756 28.6255 22.0783 29.376 21.4668 30.4112C20.8553 31.4464 20.6795 32.6817 20.9782 33.8462L35.5646 90.4628C35.8659 91.6266 36.6167 92.6235 37.6524 93.2347C38.6881 93.8459 39.924 94.0216 41.0891 93.7231L89.3206 81.3089C90.4851 81.0078 91.4824 80.2574 92.0939 79.2222C92.7054 78.187 92.8812 76.9516 92.5825 75.7871L78.5836 21.4512L68.4904 16.935L24.24 28.3244Z" fill="white"/>
<path d="M80.0161 20.431L72.5516 22.3523C72.0067 22.4925 71.4283 22.4107 70.9438 22.1247C70.4592 21.8387 70.1082 21.3721 69.9678 20.8274L68.5481 15.317C68.5419 15.2928 68.5426 15.2674 68.5502 15.2437C68.5577 15.22 68.5718 15.1988 68.5909 15.1827C68.6099 15.1667 68.6331 15.1562 68.6577 15.1527C68.6824 15.1492 68.7076 15.1527 68.7304 15.1628L80.0368 20.1815C80.062 20.1927 80.083 20.2114 80.0971 20.2351C80.1111 20.2588 80.1174 20.2862 80.1151 20.3136C80.1129 20.3411 80.1021 20.3671 80.0844 20.3881C80.0666 20.4092 80.0427 20.4241 80.0161 20.431Z" fill="#F2F2F2"/>
<path d="M76.0892 68.7804L54.1301 74.4324C53.9952 74.4671 53.8547 74.4749 53.7168 74.4554C53.5789 74.4359 53.4461 74.3894 53.3262 74.3186C53.2062 74.2478 53.1014 74.1541 53.0176 74.0428C52.9339 73.9315 52.8729 73.8048 52.8382 73.67C52.8035 73.5351 52.7956 73.3948 52.8152 73.2569C52.8347 73.119 52.8812 72.9864 52.952 72.8665C53.0229 72.7465 53.1166 72.6418 53.228 72.5581C53.3393 72.4744 53.4661 72.4135 53.601 72.3787L75.5601 66.7267C75.695 66.692 75.8355 66.6842 75.9734 66.7037C76.1113 66.7232 76.2441 66.7697 76.364 66.8405C76.484 66.9113 76.5888 67.005 76.6726 67.1163C76.7563 67.2276 76.8173 67.3543 76.852 67.4891C76.8867 67.624 76.8946 67.7644 76.875 67.9022C76.8555 68.0401 76.809 68.1728 76.7382 68.2927C76.6673 68.4126 76.5736 68.5174 76.4622 68.601C76.3509 68.6847 76.2241 68.7457 76.0892 68.7804Z" fill="#CCCCCC"/>
<path d="M81.2205 71.1552L55.0236 77.8979C54.7512 77.968 54.462 77.9271 54.2197 77.7841C53.9774 77.6411 53.8019 77.4078 53.7318 77.1355C53.6616 76.8631 53.7025 76.5741 53.8456 76.332C53.9886 76.0898 54.2221 75.9144 54.4945 75.8442L80.6914 69.1015C80.9638 69.0317 81.2527 69.0728 81.4948 69.2158C81.7369 69.3588 81.9122 69.592 81.9824 69.8641C82.0525 70.1363 82.0116 70.4252 81.8688 70.6673C81.7259 70.9093 81.4927 71.0848 81.2205 71.1552Z" fill="#CCCCCC"/>
<path d="M45.1675 81.2396C47.2383 81.2396 48.917 79.5617 48.917 77.4919C48.917 75.4222 47.2383 73.7443 45.1675 73.7443C43.0967 73.7443 41.418 75.4222 41.418 77.4919C41.418 79.5617 43.0967 81.2396 45.1675 81.2396Z" fill="#E6E6E6"/>
<path d="M73.7545 58.9724L44.5906 66.476C43.7477 66.6918 42.8537 66.5647 42.1045 66.1225C41.3553 65.6802 40.8122 64.959 40.5944 64.1171L34.4827 40.3862C34.2667 39.5437 34.3939 38.6501 34.8364 37.9013C35.2788 37.1525 36.0004 36.6096 36.8427 36.3919L66.0066 28.8883C66.8495 28.6724 67.7436 28.7996 68.4927 29.2418C69.2419 29.684 69.785 30.4052 70.0029 31.2472L76.1145 54.9781C76.3305 55.8205 76.2033 56.7142 75.7608 57.463C75.3184 58.2118 74.5969 58.7546 73.7545 58.9724Z" fill="white"/>
<path d="M73.7545 58.9724L44.5906 66.476C43.7477 66.6918 42.8537 66.5647 42.1045 66.1225C41.3553 65.6802 40.8122 64.959 40.5944 64.1171L34.4827 40.3862C34.2667 39.5437 34.3939 38.6501 34.8364 37.9013C35.2788 37.1525 36.0004 36.6096 36.8427 36.3919L66.0066 28.8883C66.8495 28.6724 67.7436 28.7996 68.4927 29.2418C69.2419 29.684 69.785 30.4052 70.0029 31.2472L76.1145 54.9781C76.3305 55.8205 76.2033 56.7142 75.7608 57.463C75.3184 58.2118 74.5969 58.7546 73.7545 58.9724ZM36.939 36.7656C36.1957 36.9577 35.5591 37.4367 35.1687 38.0974C34.7783 38.7581 34.6661 39.5467 34.8566 40.29L40.9683 64.0209C41.1605 64.7638 41.6397 65.4001 42.3007 65.7903C42.9618 66.1805 43.7507 66.2927 44.4943 66.1023L73.6583 58.5986C74.4015 58.4065 75.0382 57.9275 75.4286 57.2668C75.819 56.6061 75.9312 55.8176 75.7407 55.0743L69.629 31.3434C69.4367 30.6005 68.9575 29.9641 68.2965 29.5739C67.6355 29.1837 66.8466 29.0716 66.1029 29.262L36.939 36.7656Z" fill="#E6E6E6"/>
<path d="M64.5274 36.8676L49.8087 40.6545C49.68 40.6904 49.5425 40.6762 49.424 40.6146C49.3054 40.5531 49.2146 40.4488 49.17 40.3229C49.1493 40.2572 49.1421 40.1879 49.149 40.1193C49.156 40.0507 49.1768 39.9842 49.2103 39.9239C49.2437 39.8636 49.2891 39.8108 49.3437 39.7686C49.3983 39.7264 49.4609 39.6958 49.5277 39.6786L64.5104 35.8237C65.1156 36.1302 64.9564 36.7572 64.5272 36.8676L64.5274 36.8676Z" fill="#F2F2F2"/>
<path d="M65.1914 39.4481L50.4728 43.2351C50.3441 43.271 50.2066 43.2567 50.088 43.1952C49.9694 43.1336 49.8787 43.0294 49.8341 42.9035C49.8133 42.8378 49.8062 42.7685 49.8131 42.6999C49.82 42.6313 49.8409 42.5648 49.8743 42.5045C49.9078 42.4442 49.9532 42.3913 50.0078 42.3492C50.0624 42.307 50.125 42.2764 50.1918 42.2592L65.1744 38.4043C65.7797 38.7108 65.6204 39.3377 65.1912 39.4482L65.1914 39.4481Z" fill="#F2F2F2"/>
<path d="M47.6696 45.523L43.1776 46.6787C43.0309 46.7163 42.8753 46.6942 42.7449 46.6172C42.6145 46.5402 42.52 46.4147 42.4821 46.2681L41.1175 40.9698C41.0799 40.8232 41.102 40.6676 41.1791 40.5373C41.2561 40.4069 41.3817 40.3124 41.5283 40.2746L46.0203 39.1188C46.167 39.0813 46.3226 39.1034 46.453 39.1804C46.5834 39.2574 46.6779 39.3829 46.7159 39.5294L48.0804 44.8277C48.118 44.9744 48.0959 45.1299 48.0189 45.2603C47.9419 45.3906 47.8163 45.4851 47.6696 45.523V45.523Z" fill="#E6E6E6"/>
<path d="M66.5094 44.7427L44.046 50.5224C43.9173 50.5583 43.7798 50.544 43.6612 50.4824C43.5427 50.4209 43.4519 50.3166 43.4073 50.1908C43.3866 50.125 43.3794 50.0557 43.3863 49.9871C43.3933 49.9185 43.4141 49.852 43.4476 49.7917C43.481 49.7315 43.5264 49.6786 43.581 49.6364C43.6356 49.5943 43.6982 49.5636 43.765 49.5465L66.4926 43.6989C67.0978 44.0054 66.9385 44.6323 66.5094 44.7427L66.5094 44.7427Z" fill="#F2F2F2"/>
<path d="M67.1744 47.3239L44.711 53.1035C44.5824 53.1394 44.4449 53.1252 44.3263 53.0636C44.2077 53.0021 44.117 52.8978 44.0724 52.7719C44.0516 52.7062 44.0445 52.6369 44.0514 52.5683C44.0583 52.4997 44.0791 52.4332 44.1126 52.3729C44.1461 52.3126 44.1915 52.2598 44.2461 52.2176C44.3006 52.1754 44.3632 52.1448 44.43 52.1276L67.1576 46.28C67.7629 46.5865 67.6036 47.2135 67.1744 47.3239V47.3239Z" fill="#F2F2F2"/>
<path d="M67.8385 49.9035L45.3751 55.6831C45.2464 55.719 45.1089 55.7048 44.9904 55.6432C44.8718 55.5817 44.781 55.4774 44.7364 55.3515C44.7157 55.2858 44.7085 55.2165 44.7154 55.1479C44.7224 55.0793 44.7432 55.0128 44.7767 54.9525C44.8101 54.8922 44.8555 54.8394 44.9101 54.7972C44.9647 54.755 45.0273 54.7244 45.0941 54.7072L67.8217 48.8596C68.4269 49.1661 68.2676 49.7931 67.8385 49.9035Z" fill="#F2F2F2"/>
<path d="M68.5035 52.4845L46.0401 58.2642C45.9115 58.3001 45.774 58.2858 45.6554 58.2243C45.5368 58.1627 45.4461 58.0584 45.4015 57.9326C45.3807 57.8668 45.3736 57.7975 45.3805 57.7289C45.3874 57.6603 45.4082 57.5938 45.4417 57.5336C45.4752 57.4733 45.5206 57.4204 45.5752 57.3782C45.6297 57.3361 45.6923 57.3055 45.7592 57.2883L68.4867 51.4407C69.0919 51.7472 68.9327 52.3741 68.5035 52.4846L68.5035 52.4845Z" fill="#F2F2F2"/>
<path d="M69.1676 55.0644L46.7042 60.844C46.5755 60.8799 46.438 60.8656 46.3195 60.8041C46.2009 60.7425 46.1101 60.6383 46.0655 60.5124C46.0448 60.4467 46.0376 60.3774 46.0446 60.3088C46.0515 60.2402 46.0723 60.1737 46.1058 60.1134C46.1392 60.0531 46.1846 60.0003 46.2392 59.9581C46.2938 59.9159 46.3564 59.8853 46.4232 59.8681L69.1508 54.0205C69.756 54.327 69.5967 54.954 69.1676 55.0644Z" fill="#F2F2F2"/>
<path d="M45.4448 78.8056C45.3631 78.8267 45.2768 78.8208 45.1988 78.7886L45.194 78.7866L44.1725 78.3538C44.1251 78.3338 44.0821 78.3046 44.046 78.2679C44.0099 78.2312 43.9814 78.1878 43.9621 78.1401C43.9428 78.0924 43.9331 78.0413 43.9336 77.9899C43.9341 77.9384 43.9447 77.8876 43.9648 77.8402C43.985 77.7929 44.0142 77.75 44.051 77.7139C44.0877 77.6779 44.1312 77.6495 44.179 77.6303C44.2268 77.6111 44.2778 77.6015 44.3293 77.602C44.3808 77.6025 44.4316 77.6132 44.479 77.6334L45.1409 77.9148L46.0082 75.8755C46.0283 75.8282 46.0575 75.7853 46.0942 75.7493C46.1309 75.7134 46.1743 75.6849 46.222 75.6657C46.2697 75.6465 46.3207 75.6369 46.3721 75.6373C46.4235 75.6378 46.4743 75.6484 46.5216 75.6685L46.5217 75.6686L46.5165 75.6819L46.5219 75.6685C46.6174 75.7092 46.6928 75.7861 46.7316 75.8824C46.7704 75.9786 46.7695 76.0863 46.7289 76.1818L45.7085 78.5796C45.6849 78.6349 45.6488 78.684 45.6031 78.7231C45.5574 78.7622 45.5033 78.7902 45.445 78.805L45.4448 78.8056Z" fill="white"/>
<path d="M108.277 104.659H58.472C56.783 104.657 55.1638 103.986 53.9695 102.792C52.7752 101.598 52.1035 99.98 52.1016 98.2918V39.8283C52.1035 38.1401 52.7752 36.5217 53.9695 35.328C55.1638 34.1343 56.783 33.4628 58.472 33.4609H104.807L114.647 41.3003V98.2918C114.645 99.98 113.974 101.598 112.779 102.792C111.585 103.986 109.966 104.657 108.277 104.659Z" fill="#E6E6E6"/>
<path d="M58.4721 35.2939C57.2693 35.2953 56.1162 35.7735 55.2658 36.6235C54.4153 37.4736 53.9369 38.6261 53.9355 39.8282V98.2918C53.9369 99.494 54.4153 100.647 55.2658 101.497C56.1162 102.347 57.2693 102.825 58.4721 102.826H108.277C109.48 102.825 110.633 102.347 111.483 101.497C112.334 100.647 112.812 99.494 112.814 98.2918V42.1833L104.166 35.2939H58.4721Z" fill="white"/>
<path d="M98.5909 52.2935H75.9153C75.634 52.2935 75.3642 52.1818 75.1652 51.9829C74.9663 51.7841 74.8545 51.5144 74.8545 51.2332C74.8545 50.952 74.9663 50.6823 75.1652 50.4834C75.3642 50.2846 75.634 50.1729 75.9153 50.1729H98.5909C98.8722 50.1729 99.142 50.2846 99.341 50.4834C99.5399 50.6823 99.6517 50.952 99.6517 51.2332C99.6517 51.5144 99.5399 51.7841 99.341 51.9829C99.142 52.1818 98.8722 52.2935 98.5909 52.2935Z" fill="#03DAC5"/>
<path d="M102.966 55.8721H75.9149C75.6338 55.8717 75.3643 55.7599 75.1657 55.5611C74.967 55.3622 74.8555 55.0928 74.8555 54.8118C74.8555 54.5308 74.967 54.2613 75.1657 54.0625C75.3643 53.8637 75.6338 53.7518 75.9149 53.7515H102.966C103.106 53.7513 103.244 53.7786 103.373 53.8318C103.502 53.885 103.619 53.963 103.717 54.0615C103.816 54.16 103.894 54.277 103.948 54.4057C104.001 54.5344 104.029 54.6724 104.029 54.8118C104.029 54.9512 104.001 55.0892 103.948 55.2179C103.894 55.3466 103.816 55.4636 103.717 55.5621C103.619 55.6605 103.502 55.7386 103.373 55.7918C103.244 55.845 103.106 55.8723 102.966 55.8721Z" fill="#03DAC5"/>
<path d="M98.5901 66.2097H75.9153C75.6339 66.2097 75.3641 66.3214 75.1652 66.5203C74.9662 66.7191 74.8545 66.9888 74.8545 67.27C74.8545 67.5512 74.9662 67.8209 75.1652 68.0197C75.3641 68.2185 75.6339 68.3302 75.9153 68.3302H98.5901C98.8714 68.3302 99.1412 68.2185 99.3401 68.0197C99.5391 67.8209 99.6508 67.5512 99.6508 67.27C99.6508 66.9888 99.5391 66.7191 99.3401 66.5203C99.1412 66.3214 98.8714 66.2097 98.5901 66.2097Z" fill="#CCCCCC"/>
<path d="M102.966 69.7889H75.9153C75.6339 69.7889 75.3641 69.9006 75.1652 70.0995C74.9662 70.2983 74.8545 70.568 74.8545 70.8492C74.8545 71.1304 74.9662 71.4001 75.1652 71.5989C75.3641 71.7977 75.6339 71.9095 75.9153 71.9095H102.966C103.248 71.9095 103.517 71.7977 103.716 71.5989C103.915 71.4001 104.027 71.1304 104.027 70.8492C104.027 70.568 103.915 70.2983 103.716 70.0995C103.517 69.9006 103.248 69.7889 102.966 69.7889Z" fill="#CCCCCC"/>
<path d="M98.5909 84.3685H75.9153C75.634 84.3685 75.3642 84.2567 75.1652 84.0579C74.9663 83.859 74.8545 83.5894 74.8545 83.3081C74.8545 83.0269 74.9663 82.7572 75.1652 82.5584C75.3642 82.3595 75.634 82.2478 75.9153 82.2478H98.5909C98.8722 82.2478 99.142 82.3595 99.341 82.5584C99.5399 82.7572 99.6517 83.0269 99.6517 83.3081C99.6517 83.5894 99.5399 83.859 99.341 84.0579C99.142 84.2567 98.8722 84.3685 98.5909 84.3685Z" fill="#CCCCCC"/>
<path d="M102.966 87.9471H75.9149C75.6338 87.9467 75.3643 87.8348 75.1657 87.636C74.967 87.4372 74.8555 87.1677 74.8555 86.8867C74.8555 86.6058 74.967 86.3363 75.1657 86.1375C75.3643 85.9387 75.6338 85.8268 75.9149 85.8264H102.966C103.106 85.8262 103.244 85.8535 103.373 85.9067C103.502 85.9599 103.619 86.038 103.717 86.1365C103.816 86.235 103.894 86.3519 103.948 86.4806C104.001 86.6094 104.029 86.7474 104.029 86.8867C104.029 87.0261 104.001 87.1641 103.948 87.2928C103.894 87.4216 103.816 87.5385 103.717 87.637C103.619 87.7355 103.502 87.8136 103.373 87.8668C103.244 87.92 103.106 87.9473 102.966 87.9471Z" fill="#CCCCCC"/>
<path d="M66.4722 56.7703C68.5429 56.7703 70.2217 55.0924 70.2217 53.0226C70.2217 50.9528 68.5429 49.2749 66.4722 49.2749C64.4014 49.2749 62.7227 50.9528 62.7227 53.0226C62.7227 55.0924 64.4014 56.7703 66.4722 56.7703Z" fill="#03DAC5"/>
<path d="M66.1005 54.4522C66.0161 54.4524 65.934 54.4251 65.8665 54.3745L65.8623 54.3714L64.9812 53.6976C64.9402 53.6664 64.9059 53.6274 64.88 53.5829C64.8542 53.5384 64.8374 53.4892 64.8306 53.4382C64.8238 53.3871 64.8271 53.3353 64.8404 53.2855C64.8537 53.2358 64.8766 53.1892 64.908 53.1483C64.9393 53.1075 64.9784 53.0732 65.023 53.0475C65.0676 53.0218 65.1168 53.0051 65.1679 52.9984C65.2189 52.9917 65.2708 52.9952 65.3205 53.0085C65.3703 53.0219 65.4169 53.045 65.4577 53.0764L66.0284 53.5138L67.3772 51.7551C67.4084 51.7144 67.4474 51.6801 67.4919 51.6544C67.5364 51.6287 67.5856 51.612 67.6365 51.6053C67.6875 51.5986 67.7393 51.6019 67.7889 51.6152C67.8386 51.6285 67.8852 51.6514 67.926 51.6827L67.9261 51.6828L67.9177 51.6944L67.9263 51.6828C68.0086 51.746 68.0624 51.8393 68.076 51.9421C68.0896 52.045 68.0618 52.149 67.9987 52.2314L66.4123 54.2991C66.3756 54.3468 66.3284 54.3853 66.2744 54.4118C66.2204 54.4383 66.161 54.4519 66.1008 54.4518L66.1005 54.4522Z" fill="white"/>
<path d="M70.607 69.0596C70.6071 69.5518 70.5103 70.0392 70.322 70.494C70.1337 70.9488 69.8576 71.3621 69.5095 71.7103C69.1613 72.0584 68.748 72.3346 68.2931 72.523C67.8381 72.7115 67.3505 72.8085 66.8581 72.8086C66.8259 72.8092 66.7936 72.8079 66.7616 72.8047C66.0243 72.7858 65.309 72.55 64.7052 72.1268C64.1013 71.7036 63.6358 71.1118 63.3668 70.4255C63.0977 69.7392 63.0372 68.9888 63.1927 68.2682C63.3482 67.5476 63.7129 66.8889 64.2411 66.3745C64.7693 65.8601 65.4376 65.5128 66.1623 65.3761C66.887 65.2393 67.6359 65.3193 68.3154 65.6059C68.9949 65.8925 69.5747 66.373 69.9823 66.9873C70.3899 67.6016 70.6072 68.3224 70.607 69.0596Z" fill="#CCCCCC"/>
<path d="M66.4722 88.8452C68.5429 88.8452 70.2217 87.1673 70.2217 85.0975C70.2217 83.0277 68.5429 81.3499 66.4722 81.3499C64.4014 81.3499 62.7227 83.0277 62.7227 85.0975C62.7227 87.1673 64.4014 88.8452 66.4722 88.8452Z" fill="#CCCCCC"/>
<path d="M114.456 41.5525H106.748C106.185 41.5525 105.646 41.329 105.248 40.9313C104.85 40.5336 104.626 39.9942 104.626 39.4318V33.7415C104.626 33.7166 104.633 33.6922 104.647 33.6711C104.66 33.65 104.679 33.6331 104.701 33.6222C104.724 33.6114 104.749 33.6071 104.774 33.6098C104.798 33.6125 104.822 33.6222 104.841 33.6377L114.538 41.316C114.56 41.3331 114.576 41.3565 114.583 41.3829C114.591 41.4093 114.59 41.4375 114.581 41.4635C114.572 41.4895 114.555 41.512 114.533 41.528C114.511 41.5439 114.484 41.5525 114.456 41.5525Z" fill="#CCCCCC"/>
<path d="M70.6071 69.0596C70.6073 69.5518 70.5105 70.0392 70.3222 70.4941C70.1339 70.9489 69.8578 71.3621 69.5096 71.7103C69.1615 72.0584 68.7482 72.3346 68.2932 72.523C67.8383 72.7115 67.3507 72.8085 66.8582 72.8086C66.826 72.8092 66.7938 72.808 66.7617 72.8047C66.2773 71.5971 66.0906 70.2908 66.2172 68.9959C66.3439 67.701 66.7803 66.4556 67.4895 65.3646C68.3617 65.5141 69.1529 65.9669 69.7234 66.643C70.2939 67.3192 70.6069 68.1751 70.6071 69.0596Z" fill="#03DAC5"/>
<path d="M74.8545 67.2709C74.855 66.9896 74.967 66.72 75.166 66.5211C75.365 66.3222 75.6348 66.2102 75.9162 66.2097H81.5666C81.8966 66.8806 82.1312 67.5944 82.2635 68.3302H75.9162C75.635 68.3302 75.3653 68.2186 75.1662 68.02C74.9672 67.8214 74.8551 67.552 74.8545 67.2709Z" fill="#03DAC5"/>
<path d="M82.3938 69.7889C82.3942 70.5051 82.2994 71.2182 82.112 71.9095H75.9153C75.6339 71.9095 75.3641 71.7977 75.1652 71.5989C74.9662 71.4001 74.8545 71.1304 74.8545 70.8492C74.8545 70.568 74.9662 70.2983 75.1652 70.0995C75.3641 69.9006 75.6339 69.7889 75.9153 69.7889H82.3938Z" fill="#03DAC5"/>
<path d="M96.3749 82.8666C96.2149 83.1287 95.9573 83.3166 95.6588 83.3889C95.3602 83.4612 95.0452 83.412 94.7829 83.2521L81.269 75.0131C81.1391 74.9339 81.0261 74.83 80.9365 74.7072C80.8468 74.5844 80.7822 74.4451 80.7464 74.2973C80.7106 74.1496 80.7043 73.9962 80.7278 73.846C80.7512 73.6958 80.8041 73.5517 80.8833 73.4219C80.9625 73.2921 81.0665 73.1792 81.1894 73.0896C81.3122 73 81.4516 72.9354 81.5994 72.8996C81.7472 72.8638 81.9007 72.8575 82.051 72.8809C82.2012 72.9044 82.3454 72.9572 82.4753 73.0364L95.9892 81.2754C96.2515 81.4353 96.4394 81.6928 96.5117 81.9912C96.5841 82.2896 96.5348 82.6045 96.3749 82.8666Z" fill="#3F3D56"/>
<path d="M82.8612 74.6276C81.9069 76.1914 80.5101 77.4372 78.8473 78.2076C77.1846 78.9779 75.3307 79.2381 73.52 78.9553C71.7093 78.6725 70.0232 77.8593 68.6749 76.6187C67.3266 75.3781 66.3766 73.7657 65.9451 71.9854C65.5136 70.2052 65.6199 68.337 66.2507 66.6172C66.8814 64.8973 68.0083 63.403 69.4887 62.3233C70.9691 61.2435 72.7366 60.6268 74.5677 60.5511C76.3988 60.4754 78.2112 60.9442 79.7758 61.898C81.8716 63.179 83.3735 65.2387 83.952 67.6251C84.5304 70.0116 84.1381 72.5299 82.8612 74.6276ZM69.0177 66.1877C68.3019 67.3605 67.9502 68.7192 68.007 70.0918C68.0638 71.4645 68.5266 72.7895 69.3368 73.8992C70.147 75.009 71.2682 75.8537 72.5588 76.3266C73.8493 76.7994 75.2511 76.8791 76.5869 76.5557C77.9228 76.2322 79.1326 75.52 80.0636 74.5093C80.9945 73.4985 81.6046 72.2346 81.8168 70.8772C82.029 69.5199 81.8338 68.1301 81.2558 66.8837C80.6778 65.6372 79.7429 64.5901 78.5695 63.8747C76.9954 62.9175 75.1058 62.6234 73.3151 63.0571C71.5244 63.4907 69.9789 64.6165 69.0177 66.1877Z" fill="#3F3D56"/>
<path d="M112.549 71.2897C115.168 71.2897 117.29 69.168 117.29 66.5507C117.29 63.9334 115.168 61.8116 112.549 61.8116C109.93 61.8116 107.808 63.9334 107.808 66.5507C107.808 69.168 109.93 71.2897 112.549 71.2897Z" fill="#A0616A"/>
<path d="M112.243 93.1182C112.151 92.8334 112.121 92.5325 112.154 92.2353C112.187 91.938 112.283 91.6511 112.434 91.3933C112.586 91.1355 112.79 90.9127 113.034 90.7394C113.278 90.5661 113.556 90.4462 113.849 90.3877C113.942 90.3695 114.036 90.3579 114.131 90.353L119.125 82.3411L114.563 78.0061C114.389 77.8405 114.249 77.642 114.152 77.4221C114.055 77.2022 114.002 76.9652 113.997 76.7249C113.992 76.4845 114.035 76.2456 114.123 76.0218C114.211 75.7981 114.342 75.594 114.51 75.4212C114.677 75.2485 114.877 75.1107 115.098 75.0156C115.319 74.9205 115.556 74.8701 115.797 74.8673C116.037 74.8645 116.276 74.9094 116.499 74.9993C116.722 75.0892 116.925 75.2224 117.096 75.3912L123.395 81.5991L123.408 81.6145C123.603 81.9108 123.697 82.2621 123.676 82.6161C123.655 82.9701 123.521 83.308 123.293 83.5796L116.295 91.8519C116.316 91.9182 116.333 91.9856 116.347 92.0537C116.406 92.347 116.402 92.6494 116.335 92.941C116.269 93.2326 116.141 93.5069 115.961 93.7458C115.781 93.9847 115.553 94.183 115.291 94.3275C115.029 94.472 114.739 94.5596 114.441 94.5845C114.381 94.5898 114.321 94.5924 114.261 94.5924C113.812 94.5905 113.375 94.447 113.013 94.1822C112.65 93.9175 112.381 93.5451 112.243 93.1182Z" fill="#A0616A"/>
<path d="M104.74 132.506L102.373 132.506L101.248 123.382L104.74 123.382L104.74 132.506Z" fill="#A0616A"/>
<path d="M105.343 134.799L97.7124 134.799V134.702C97.7124 134.313 97.7892 133.926 97.9385 133.566C98.0878 133.206 98.3065 132.879 98.5824 132.603C98.8582 132.327 99.1856 132.109 99.546 131.96C99.9063 131.81 100.293 131.734 100.683 131.734H100.683L105.344 131.734L105.343 134.799Z" fill="#2F2E41"/>
<path d="M128.264 129.236L126.23 130.446L120.592 123.182L123.594 121.396L128.264 129.236Z" fill="#A0616A"/>
<path d="M129.956 130.897L123.399 134.799L123.349 134.716C123.15 134.381 123.018 134.01 122.962 133.625C122.906 133.239 122.926 132.846 123.022 132.468C123.118 132.09 123.288 131.735 123.521 131.422C123.754 131.11 124.047 130.846 124.382 130.647L124.382 130.647L128.387 128.263L129.956 130.897Z" fill="#2F2E41"/>
<path d="M100.949 128.488C99.3635 109.829 98.4204 92.4943 104.216 85.423L104.261 85.3682L114.014 89.2678L114.031 89.3027C114.063 89.3743 117.307 96.5061 116.551 101.303L118.956 112.364L126.801 125.493C126.864 125.599 126.904 125.716 126.918 125.839C126.932 125.961 126.92 126.085 126.883 126.202C126.845 126.32 126.783 126.427 126.701 126.519C126.619 126.611 126.518 126.684 126.405 126.733L122.996 128.232C122.804 128.316 122.587 128.328 122.387 128.265C122.187 128.202 122.016 128.07 121.906 127.892L113.372 113.984L108.552 103.316C108.526 103.258 108.482 103.211 108.426 103.181C108.37 103.151 108.305 103.14 108.243 103.15C108.18 103.16 108.122 103.19 108.078 103.236C108.035 103.283 108.007 103.342 108.001 103.405L105.329 128.507C105.306 128.72 105.206 128.918 105.046 129.061C104.887 129.205 104.68 129.284 104.465 129.283H101.815C101.597 129.282 101.388 129.2 101.228 129.053C101.068 128.906 100.969 128.704 100.949 128.488Z" fill="#2F2E41"/>
<path d="M104.249 85.571L104.202 85.5487L104.195 85.4977C103.831 82.9488 104.262 80.1168 105.477 77.0803C106.076 75.5941 107.189 74.3724 108.613 73.6378C110.038 72.9031 111.679 72.7044 113.238 73.0779C114.135 73.299 114.978 73.7041 115.711 74.2676C116.444 74.831 117.052 75.5405 117.496 76.351C117.935 77.1533 118.202 78.0379 118.281 78.9488C118.36 79.8597 118.249 80.777 117.954 81.6426C116.423 86.1191 114.436 90.3074 114.416 90.3493L114.374 90.4367L104.249 85.571Z" fill="#03DAC5"/>
<path d="M93.6074 79.2223C93.8422 79.0369 94.1136 78.9033 94.4037 78.8301C94.6938 78.7569 94.9962 78.7458 95.2909 78.7975C95.5856 78.8493 95.866 78.9627 96.1138 79.1303C96.3617 79.2979 96.5712 79.516 96.7288 79.7702C96.7784 79.8509 96.8222 79.935 96.86 80.0218L106.117 81.8919L108.582 76.1027C108.676 75.8815 108.813 75.6812 108.985 75.5132C109.157 75.3453 109.361 75.213 109.585 75.1242C109.808 75.0354 110.047 74.9917 110.287 74.9956C110.528 74.9996 110.765 75.0511 110.986 75.1472C111.206 75.2434 111.405 75.3822 111.572 75.5557C111.738 75.7292 111.869 75.934 111.955 76.1582C112.042 76.3823 112.084 76.6215 112.078 76.8618C112.071 77.1021 112.018 77.3388 111.92 77.5583L108.308 85.6294L108.298 85.6467C108.088 85.9328 107.792 86.1439 107.453 86.2485C107.114 86.3531 106.75 86.3457 106.416 86.2274L96.2131 82.5728C96.1583 82.6156 96.1012 82.6554 96.0422 82.6922C95.7879 82.8497 95.5031 82.9518 95.2065 82.9916C94.9099 83.0314 94.6083 83.0081 94.3213 82.9233C94.0344 82.8385 93.7686 82.694 93.5414 82.4993C93.3142 82.3047 93.1308 82.0642 93.003 81.7938C92.977 81.7392 92.9535 81.684 92.9326 81.6281C92.7771 81.2071 92.7587 80.7479 92.8799 80.3159C93.0011 79.8838 93.2557 79.5011 93.6074 79.2223Z" fill="#A0616A"/>
<path d="M129.677 71.6258C129.221 70.817 128.555 70.0762 127.676 69.7772C126.54 69.3911 125.31 69.8022 124.142 70.0767C123.242 70.2881 122.302 70.4176 121.395 70.2391C120.488 70.0607 119.613 69.5331 119.2 68.7063C118.593 67.49 119.104 66.0396 119.067 64.6809C119.048 63.9413 118.862 63.2156 118.521 62.5585C118.181 61.9015 117.696 61.3303 117.102 60.8879C116.509 60.4455 115.823 60.1436 115.096 60.0048C114.369 59.866 113.62 59.894 112.905 60.0867C111.786 59.7641 110.774 59.7342 110.082 60.5936C109.212 60.5936 108.377 60.9392 107.762 61.5543C107.146 62.1694 106.8 63.0038 106.8 63.8737H109.938C109.79 64.6735 109.96 65.4997 110.412 66.1758C110.966 66.9892 111.929 67.5777 112.115 68.5441C112.294 69.4805 111.657 70.3691 110.989 71.0498C110.321 71.7306 109.546 72.4051 109.338 73.3356C109.21 74.0419 109.355 74.7704 109.744 75.374C110.132 75.9703 110.613 76.5003 111.17 76.9438C113.676 79.0903 116.656 80.6136 119.864 81.3894C122.123 81.9331 124.595 82.074 126.692 81.0738C127.531 80.6737 128.279 80.1054 128.889 79.4043C129.499 78.7031 129.958 77.8841 130.238 76.998C130.518 76.112 130.613 75.1778 130.516 74.2536C130.42 73.3295 130.134 72.435 129.677 71.6258Z" fill="#2F2E41"/>
<path d="M130.386 135H93.7077C93.6565 135 93.6074 134.98 93.5712 134.944C93.535 134.907 93.5146 134.858 93.5146 134.807C93.5146 134.756 93.535 134.707 93.5712 134.671C93.6074 134.634 93.6565 134.614 93.7077 134.614H130.386C130.437 134.614 130.486 134.634 130.522 134.671C130.559 134.707 130.579 134.756 130.579 134.807C130.579 134.858 130.559 134.907 130.522 134.944C130.486 134.98 130.437 135 130.386 135Z" fill="#CCCCCC"/>
</g>
<defs>
<clipPath id="clip0_1233_27096">
<rect width="111.579" height="120" fill="white" transform="translate(19 15)"/>
</clipPath>
</defs>
</svg>
