<svg width="400" height="400" viewBox="0 0 400 400" fill="none" xmlns="http://www.w3.org/2000/svg">
<path d="M204.791 108.551C205.146 108.317 205.654 108.084 205.958 108.378C206.263 108.673 206.08 109.211 205.837 109.566C205.184 110.562 204.375 111.446 203.441 112.184C205.03 111.454 206.721 110.968 208.455 110.743C208.8 110.743 209.257 110.743 209.328 111.078C209.399 111.413 209.146 111.586 208.922 111.748C207.438 112.796 205.772 113.56 204.01 114.001C205.059 113.828 206.135 113.94 207.126 114.326C207.306 114.383 207.463 114.497 207.572 114.651C207.755 115.026 207.349 115.402 206.984 115.605C203.35 117.635 199.107 118.153 194.966 118.417C194.8 118.445 194.63 118.42 194.479 118.346C194.184 118.163 194.255 117.716 194.367 117.331C195.991 112.844 200.944 111.038 204.791 108.551Z" fill="white"/>
<path d="M194.814 118.934C194.601 118.938 194.391 118.886 194.205 118.782C193.977 118.6 193.82 118.344 193.763 118.058C193.705 117.772 193.75 117.475 193.89 117.219C195.22 113.494 198.61 111.555 201.878 109.687C202.761 109.18 203.675 108.673 204.517 108.124C205.36 107.576 206.06 107.779 206.304 108.003C206.761 108.429 206.75 109.119 206.304 109.85C206.075 110.201 205.828 110.54 205.563 110.865C206.501 110.581 207.462 110.377 208.435 110.256C209.197 110.165 209.735 110.428 209.866 110.966C209.938 111.271 209.866 111.718 209.257 112.164C208.431 112.738 207.55 113.231 206.629 113.636C206.86 113.696 207.087 113.771 207.309 113.859C207.609 113.952 207.863 114.155 208.019 114.428C208.303 114.986 208.019 115.625 207.227 116.052C203.472 118.082 199.107 118.66 194.997 118.924L194.814 118.934ZM205.593 108.784C205.401 108.811 205.219 108.888 205.066 109.007C204.203 109.556 203.279 110.083 202.386 110.601C199.27 112.377 196.052 114.225 194.844 117.584C194.794 117.713 194.773 117.852 194.784 117.99C194.784 117.99 194.895 117.99 194.936 117.99C198.996 117.736 203.157 117.219 206.74 115.24C206.877 115.166 206.998 115.066 207.096 114.945L206.943 114.884C206.037 114.53 205.051 114.428 204.091 114.59C203.961 114.608 203.829 114.576 203.722 114.501C203.614 114.426 203.54 114.312 203.513 114.184C203.488 114.056 203.513 113.924 203.583 113.815C203.653 113.705 203.762 113.627 203.888 113.595C205.604 113.141 207.222 112.374 208.659 111.332C208.7 111.307 208.737 111.276 208.77 111.24H208.557C206.871 111.451 205.228 111.92 203.685 112.631C203.574 112.678 203.449 112.684 203.334 112.647C203.219 112.61 203.12 112.533 203.057 112.43C202.993 112.328 202.968 112.205 202.987 112.086C203.005 111.966 203.066 111.857 203.157 111.778C204.049 111.073 204.824 110.23 205.451 109.282C205.577 109.127 205.645 108.933 205.644 108.733L205.593 108.784Z" fill="#484646"/>
<path d="M309.539 304.263H89.5075C89.3729 304.263 89.2438 304.21 89.1486 304.114C89.0535 304.019 89 303.89 89 303.756C89 303.621 89.0535 303.492 89.1486 303.397C89.2438 303.302 89.3729 303.248 89.5075 303.248H309.539C309.674 303.248 309.803 303.302 309.898 303.397C309.993 303.492 310.047 303.621 310.047 303.756C310.047 303.89 309.993 304.019 309.898 304.114C309.803 304.21 309.674 304.263 309.539 304.263Z" fill="#D1D1D1"/>
<path d="M149.951 114.488C149.951 114.488 199.452 110.875 199.452 111.18C199.452 111.484 197.717 119.239 197.717 119.239C197.717 119.239 155.137 133.317 149.951 128.526C144.764 123.735 149.951 114.488 149.951 114.488Z" fill="#FF931E"/>
<path d="M134.563 312.068C134.465 312.078 134.367 312.078 134.269 312.068C133.738 311.991 133.259 311.705 132.938 311.276C132.616 310.846 132.478 310.306 132.554 309.775L158.71 126.516C158.787 125.978 159.074 125.492 159.509 125.166C159.944 124.839 160.491 124.699 161.029 124.776C161.568 124.852 162.054 125.14 162.38 125.575C162.707 126.01 162.847 126.556 162.77 127.095L136.593 310.333C136.522 310.819 136.277 311.262 135.904 311.581C135.531 311.901 135.054 312.074 134.563 312.068Z" fill="#484646"/>
<path d="M100.226 312.068C100.128 312.078 100.029 312.078 99.9316 312.068C99.4004 311.991 98.9218 311.705 98.6003 311.276C98.2789 310.846 98.1408 310.306 98.2162 309.775L124.413 126.516C124.49 125.978 124.778 125.492 125.212 125.166C125.647 124.839 126.194 124.699 126.733 124.776C127.271 124.852 127.757 125.14 128.083 125.575C128.41 126.01 128.55 126.556 128.473 127.095L102.236 310.333C102.165 310.815 101.923 311.256 101.554 311.575C101.185 311.893 100.713 312.069 100.226 312.068Z" fill="#484646"/>
<path d="M136.37 288.703H103.555C103.017 288.703 102.5 288.489 102.12 288.108C101.739 287.728 101.525 287.211 101.525 286.673C101.525 286.135 101.739 285.618 102.12 285.238C102.5 284.857 103.017 284.643 103.555 284.643H136.37C136.908 284.643 137.425 284.857 137.805 285.238C138.186 285.618 138.4 286.135 138.4 286.673C138.4 287.211 138.186 287.728 137.805 288.108C137.425 288.489 136.908 288.703 136.37 288.703Z" fill="#484646"/>
<path d="M140.136 262.333H107.321C106.782 262.333 106.266 262.12 105.885 261.739C105.505 261.358 105.291 260.842 105.291 260.303C105.291 259.765 105.505 259.249 105.885 258.868C106.266 258.487 106.782 258.273 107.321 258.273H140.136C140.674 258.273 141.19 258.487 141.571 258.868C141.952 259.249 142.166 259.765 142.166 260.303C142.166 260.842 141.952 261.358 141.571 261.739C141.19 262.12 140.674 262.333 140.136 262.333Z" fill="#484646"/>
<path d="M143.891 235.964H111.086C110.548 235.964 110.032 235.75 109.651 235.369C109.27 234.988 109.056 234.472 109.056 233.934C109.056 233.395 109.27 232.879 109.651 232.498C110.032 232.118 110.548 231.904 111.086 231.904H143.891C144.43 231.904 144.946 232.118 145.327 232.498C145.707 232.879 145.921 233.395 145.921 233.934C145.921 234.472 145.707 234.988 145.327 235.369C144.946 235.75 144.43 235.964 143.891 235.964Z" fill="#484646"/>
<path d="M147.657 209.594H114.852C114.314 209.594 113.797 209.38 113.417 208.999C113.036 208.619 112.822 208.102 112.822 207.564C112.822 207.026 113.036 206.509 113.417 206.129C113.797 205.748 114.314 205.534 114.852 205.534H147.657C148.195 205.534 148.712 205.748 149.092 206.129C149.473 206.509 149.687 207.026 149.687 207.564C149.687 208.102 149.473 208.619 149.092 208.999C148.712 209.38 148.195 209.594 147.657 209.594Z" fill="#484646"/>
<path d="M151.423 183.224H118.618C118.079 183.224 117.563 183.01 117.182 182.63C116.802 182.249 116.588 181.733 116.588 181.194C116.588 180.656 116.802 180.14 117.182 179.759C117.563 179.378 118.079 179.164 118.618 179.164H151.423C151.961 179.164 152.477 179.378 152.858 179.759C153.239 180.14 153.453 180.656 153.453 181.194C153.453 181.733 153.239 182.249 152.858 182.63C152.477 183.01 151.961 183.224 151.423 183.224Z" fill="#484646"/>
<path d="M155.188 156.865H122.383C121.845 156.865 121.329 156.651 120.948 156.27C120.567 155.889 120.353 155.373 120.353 154.835C120.353 154.296 120.567 153.78 120.948 153.399C121.329 153.019 121.845 152.805 122.383 152.805H155.188C155.727 152.805 156.243 153.019 156.624 153.399C157.004 153.78 157.218 154.296 157.218 154.835C157.218 155.373 157.004 155.889 156.624 156.27C156.243 156.651 155.727 156.865 155.188 156.865Z" fill="#484646"/>
<path d="M170.007 145.456C171.022 142.482 172.037 139.498 173.052 136.524C173.59 134.991 174.209 133.479 174.839 131.967C175.174 131.016 175.826 130.209 176.685 129.68C177.544 129.152 178.558 128.934 179.558 129.064C181.974 129.338 184.359 129.845 186.765 130.231C188.04 130.515 189.337 130.685 190.642 130.739C191.604 130.76 192.544 130.456 193.312 129.876C196.072 127.247 198.721 124.496 201.33 121.756C201.777 121.24 202.086 120.62 202.23 119.953C202.374 119.286 202.347 118.593 202.152 117.939C201.533 115.026 200.833 112.134 200.244 109.221C199.965 108.093 199.855 106.93 199.919 105.77C199.991 104.916 200.395 104.125 201.046 103.567C205.495 100.669 210.353 98.4555 215.459 97C216.211 96.7573 217.023 96.7711 217.767 97.0393C218.511 97.3074 219.145 97.8148 219.57 98.4819C221.407 101.009 223.345 103.466 225.101 106.044C225.671 107.019 226.511 107.808 227.52 108.316C228.528 108.824 229.663 109.029 230.785 108.906C233.962 108.673 237.16 108.622 240.357 108.47C240.942 108.436 241.51 108.26 242.012 107.958C242.515 107.655 242.936 107.235 243.239 106.734C244.376 105.049 245.452 103.323 246.569 101.659C247.523 100.207 248.467 98.7357 249.482 97.3248C249.925 96.5993 250.607 96.0507 251.411 95.7729C252.215 95.4951 253.09 95.5055 253.887 95.8023C258.302 97.3248 262.717 98.8473 267.082 100.573C267.909 100.9 268.598 101.503 269.033 102.28C269.467 103.057 269.621 103.959 269.467 104.836C269.223 107.282 268.675 109.698 268.279 112.134C268.097 113.281 267.924 114.438 267.833 115.595C267.739 116.34 267.824 117.096 268.079 117.802C268.335 118.508 268.755 119.143 269.305 119.655C271.629 121.847 273.994 124.009 276.237 126.293C276.883 126.988 277.707 127.493 278.619 127.753C279.532 128.012 280.499 128.016 281.414 127.765C284.57 127.074 287.707 126.313 290.863 125.623C293.35 125.085 295.055 125.846 296.151 128.14C297.958 131.909 299.694 135.705 301.358 139.529C302.566 142.32 302.13 143.934 299.734 145.832C298.11 147.121 296.354 148.237 294.659 149.465C293.472 150.359 292.304 151.282 291.178 152.257C290.699 152.652 290.317 153.153 290.062 153.72C289.807 154.286 289.685 154.904 289.706 155.525C289.777 158.834 289.828 162.143 289.98 165.441C290.004 166.341 290.26 167.218 290.724 167.989C291.189 168.759 291.845 169.396 292.629 169.836C294.436 170.912 296.273 171.958 298.06 173.054C299.187 173.718 300.275 174.446 301.318 175.236C302.072 175.735 302.63 176.48 302.897 177.345C303.164 178.209 303.122 179.139 302.779 179.976C301.331 183.955 299.846 187.927 298.323 191.892C298.056 192.497 297.715 193.066 297.308 193.587C296.95 194.228 296.4 194.741 295.736 195.054C295.072 195.367 294.326 195.465 293.604 195.333C290.731 194.866 287.869 194.379 285.007 193.902C284.793 193.902 284.57 193.902 284.357 193.801C283.158 193.478 281.889 193.525 280.717 193.937C279.545 194.348 278.525 195.103 277.79 196.105C276.176 198.013 274.349 199.738 272.603 201.545C271.794 202.339 271.218 203.34 270.937 204.439C270.656 205.537 270.681 206.692 271.01 207.777C271.71 210.558 272.4 213.339 272.969 216.151C273.568 219.125 272.969 220.404 270.269 221.713C266.381 223.581 262.433 225.337 258.464 227.032C257.583 227.513 256.55 227.639 255.579 227.385C254.607 227.13 253.769 226.513 253.237 225.661C251.704 223.723 250.294 221.693 248.862 219.673C245.817 215.349 245.016 214.963 239.727 215.237C237.697 215.339 235.586 215.471 233.516 215.582C232.529 215.597 231.563 215.866 230.711 216.364C229.859 216.862 229.151 217.572 228.654 218.424C227.395 220.454 226.187 222.627 224.868 224.667C224.171 225.73 223.372 226.722 222.483 227.631C222.091 228.094 221.565 228.424 220.978 228.575C220.39 228.726 219.771 228.69 219.204 228.473C215.022 226.917 210.847 225.357 206.679 223.794C206.113 223.543 205.576 223.234 205.075 222.87C204.431 222.515 203.914 221.966 203.597 221.302C203.28 220.637 203.18 219.89 203.309 219.165C203.766 216.334 204.253 213.512 204.69 210.68C204.822 209.817 204.903 208.944 204.954 208.071C205.031 207.364 204.941 206.648 204.691 205.981C204.44 205.315 204.037 204.716 203.512 204.235C201.239 202.157 198.979 200.053 196.732 197.921C196.094 197.296 195.299 196.855 194.431 196.642C193.563 196.43 192.654 196.454 191.799 196.714C189.018 197.404 186.217 198.013 183.425 198.652L183.101 198.733C179.447 199.403 178.269 198.916 176.676 195.557C174.92 191.821 173.316 188.005 171.753 184.178C170.809 181.824 171.215 180.494 173.265 178.941C175.498 177.246 177.762 175.602 180.117 174.089C181.26 173.439 182.187 172.467 182.783 171.294C183.379 170.121 183.616 168.799 183.466 167.492C183.263 164.518 183.182 161.544 183.03 158.56C183.023 157.938 182.861 157.328 182.558 156.786C182.255 156.243 181.82 155.785 181.294 155.454C178.817 153.87 176.32 152.318 173.854 150.714C172.23 149.699 170.596 148.623 169.936 146.654L170.007 145.456ZM264.696 162.082C264.705 158.353 263.974 154.66 262.547 151.215C261.12 147.77 259.025 144.642 256.383 142.011C253.741 139.38 250.604 137.298 247.153 135.886C243.702 134.474 240.005 133.759 236.276 133.784C223.234 133.723 208.435 145.162 208.445 162.112C208.482 169.542 211.442 176.658 216.684 181.923C221.926 187.188 229.03 190.179 236.459 190.248C254.577 190.279 265.498 174.556 264.696 162.082Z" fill="white"/>
<path d="M220.351 229.092C219.925 229.088 219.502 229.009 219.103 228.859L215.672 227.58C212.634 226.457 209.589 225.323 206.537 224.18C206.018 223.955 205.525 223.676 205.065 223.347L204.842 223.205C204.105 222.807 203.513 222.186 203.148 221.432C202.784 220.678 202.666 219.828 202.812 219.003C203.005 217.755 203.218 216.506 203.421 215.258C203.685 213.674 203.939 212.091 204.192 210.507C204.304 209.767 204.385 208.955 204.446 207.95C204.518 207.318 204.44 206.679 204.22 206.083C204 205.488 203.642 204.952 203.177 204.519C201.147 202.712 199.229 200.875 197.28 199.038L196.387 198.206C195.813 197.634 195.093 197.231 194.306 197.039C193.518 196.848 192.694 196.875 191.921 197.12C189.972 197.597 188.013 198.043 186.054 198.48L183.425 199.079L183.192 199.139C179.244 199.86 177.873 199.139 176.219 195.688C174.28 191.557 172.565 187.416 171.286 184.27C170.271 181.732 170.708 180.149 172.961 178.444C175.549 176.475 177.741 174.932 179.842 173.572C180.9 172.972 181.759 172.076 182.313 170.993C182.866 169.911 183.091 168.69 182.959 167.482C182.837 165.634 182.756 163.757 182.674 161.94C182.674 160.803 182.583 159.676 182.522 158.55C182.518 158.008 182.379 157.477 182.116 157.003C181.854 156.53 181.477 156.13 181.02 155.84L177.975 153.881C176.523 152.967 175.062 152.043 173.61 151.1C171.915 150.003 170.2 148.887 169.5 146.765C169.49 146.712 169.49 146.657 169.5 146.603V145.456C169.491 145.402 169.491 145.347 169.5 145.294L170.362 142.756C171.083 140.625 171.804 138.483 172.565 136.362C173.133 134.748 173.793 133.134 174.362 131.774C174.731 130.715 175.455 129.817 176.412 129.233C177.369 128.648 178.498 128.412 179.609 128.567C181.213 128.739 182.827 129.033 184.39 129.307L186.826 129.734L187.79 129.896C188.72 130.105 189.669 130.217 190.622 130.231C191.457 130.247 192.275 129.995 192.956 129.51C195.9 126.699 198.65 123.816 200.955 121.39C201.343 120.934 201.61 120.386 201.73 119.799C201.851 119.212 201.822 118.604 201.645 118.031C201.371 116.742 201.086 115.453 200.792 114.174C200.427 112.55 200.061 110.926 199.777 109.302C199.488 108.124 199.375 106.91 199.442 105.699C199.482 105.198 199.624 104.711 199.859 104.267C200.095 103.824 200.42 103.433 200.812 103.12C205.288 100.175 210.19 97.9357 215.347 96.4824C216.197 96.2102 217.113 96.2258 217.954 96.5267C218.794 96.8277 219.512 97.3971 219.996 98.147C220.645 99.0402 221.305 99.9232 221.965 100.806C223.163 102.4 224.401 104.054 225.548 105.729C226.067 106.629 226.837 107.357 227.763 107.826C228.69 108.295 229.733 108.483 230.765 108.368C232.795 108.216 234.947 108.145 236.977 108.064L240.357 107.932C240.863 107.9 241.354 107.746 241.787 107.482C242.22 107.219 242.583 106.854 242.844 106.419C243.513 105.404 244.163 104.389 244.813 103.374C245.259 102.674 245.706 101.984 246.163 101.344L246.64 100.613C247.421 99.4157 248.233 98.1774 249.096 96.9899C249.597 96.1709 250.367 95.5524 251.275 95.2411C252.183 94.9297 253.172 94.9452 254.069 95.2847C259.378 97.1117 263.448 98.5834 267.264 100.055C268.196 100.419 268.973 101.094 269.465 101.965C269.957 102.836 270.133 103.85 269.964 104.836C269.812 106.48 269.508 108.124 269.213 109.718C269.061 110.54 268.919 111.352 268.787 112.174C268.604 113.26 268.432 114.428 268.34 115.595C268.254 116.263 268.329 116.943 268.559 117.577C268.788 118.21 269.166 118.78 269.66 119.239L271.304 120.781C273.06 122.426 274.877 124.141 276.592 125.856C277.179 126.489 277.93 126.948 278.76 127.183C279.591 127.417 280.47 127.418 281.302 127.186C282.845 126.851 284.347 126.496 285.93 126.171C287.514 125.846 289.148 125.43 290.752 125.075C293.512 124.486 295.431 125.4 296.608 127.876C298.415 131.642 300.161 135.479 301.815 139.275C303.114 142.259 302.637 144.126 300.049 146.177C299.085 146.948 298.019 147.659 297.075 148.339C296.375 148.826 295.684 149.354 294.994 149.821C293.736 150.765 292.599 151.668 291.533 152.581C291.111 152.93 290.774 153.372 290.551 153.872C290.327 154.372 290.222 154.917 290.244 155.464V157.494C290.305 160.062 290.356 162.731 290.477 165.35C290.498 166.165 290.731 166.961 291.152 167.659C291.574 168.356 292.171 168.932 292.883 169.329L295.177 170.679C296.192 171.298 297.278 171.907 298.323 172.546C299.461 173.229 300.562 173.971 301.622 174.769C302.467 175.328 303.091 176.164 303.387 177.132C303.683 178.101 303.633 179.142 303.246 180.078C301.876 183.843 300.414 187.741 298.79 192.004C298.544 192.59 298.23 193.145 297.857 193.658L297.765 193.801C297.348 194.519 296.72 195.092 295.967 195.442C295.214 195.792 294.371 195.903 293.553 195.76L287.727 194.795L284.733 194.298C284.579 194.281 284.426 194.254 284.276 194.217C283.163 193.912 281.985 193.954 280.897 194.337C279.809 194.72 278.863 195.425 278.186 196.358C277.049 197.708 275.78 198.987 274.562 200.215L272.979 201.829C272.232 202.563 271.699 203.487 271.44 204.501C271.18 205.516 271.204 206.582 271.507 207.584C272.187 210.233 272.888 213.086 273.476 215.978C274.136 219.216 273.415 220.708 270.502 222.068C266.95 223.774 263.083 225.519 258.678 227.397C257.693 227.92 256.547 228.054 255.467 227.772C254.388 227.49 253.454 226.813 252.851 225.875C251.583 224.271 250.375 222.576 249.218 220.932L248.457 219.866C245.462 215.654 244.884 215.379 239.738 215.643C238.56 215.694 237.393 215.765 236.216 215.836L233.536 215.988C232.631 215.995 231.744 216.239 230.962 216.694C230.18 217.15 229.532 217.803 229.08 218.587C228.654 219.277 228.238 219.977 227.822 220.678C227.01 222.058 226.167 223.479 225.284 224.839C224.573 225.934 223.753 226.954 222.838 227.884C222.526 228.242 222.145 228.534 221.718 228.742C221.29 228.949 220.826 229.068 220.351 229.092ZM193.433 195.952C194.841 195.954 196.191 196.512 197.189 197.505L198.072 198.338C200.021 200.178 201.983 202.002 203.959 203.808C204.537 204.343 204.983 205.004 205.261 205.741C205.539 206.477 205.643 207.268 205.563 208.051C205.502 209.066 205.42 209.929 205.299 210.7C205.045 212.294 204.781 213.877 204.527 215.471C204.314 216.709 204.111 217.958 203.918 219.196C203.808 219.822 203.896 220.467 204.171 221.041C204.446 221.614 204.894 222.087 205.451 222.393L205.684 222.545C206.08 222.831 206.505 223.073 206.953 223.266L216.088 226.676L219.519 227.945C219.991 228.131 220.511 228.162 221.002 228.032C221.493 227.903 221.93 227.62 222.249 227.225C223.116 226.341 223.894 225.376 224.574 224.342C225.446 222.992 226.289 221.581 227.091 220.211C227.507 219.511 227.923 218.81 228.349 218.11C228.895 217.193 229.667 216.431 230.591 215.898C231.515 215.365 232.561 215.078 233.627 215.065C234.521 215.065 235.404 214.963 236.297 214.913L239.829 214.72C245.32 214.436 246.223 214.872 249.431 219.368L250.192 220.444C251.339 222.068 252.537 223.753 253.785 225.337C255.034 226.92 256.485 227.367 258.424 226.555C262.819 224.677 266.666 222.941 270.208 221.246C272.695 220.048 273.192 219.023 272.624 216.242C272.055 213.461 271.335 210.528 270.665 207.889C270.32 206.72 270.299 205.481 270.602 204.301C270.906 203.121 271.524 202.046 272.39 201.19C272.918 200.642 273.405 200.104 273.984 199.566C275.192 198.348 276.44 197.079 277.557 195.76C278.355 194.681 279.461 193.869 280.728 193.429C281.996 192.989 283.367 192.942 284.662 193.293C284.773 193.293 284.895 193.293 285.017 193.354H285.271L288.041 193.811L293.868 194.826C294.487 194.907 295.116 194.795 295.67 194.507C296.223 194.218 296.675 193.766 296.963 193.212L297.065 193.07C297.392 192.62 297.671 192.137 297.897 191.628C299.521 187.365 300.942 183.508 302.343 179.712C302.65 178.977 302.688 178.156 302.451 177.395C302.213 176.634 301.715 175.981 301.044 175.551C300.017 174.772 298.946 174.054 297.836 173.399C296.821 172.76 295.756 172.151 294.71 171.531C293.939 171.085 293.177 170.638 292.416 170.171C291.558 169.692 290.84 168.997 290.333 168.155C289.826 167.313 289.547 166.353 289.523 165.37C289.391 162.742 289.341 160.072 289.28 157.494V155.464C289.255 154.768 289.39 154.076 289.675 153.441C289.961 152.805 290.388 152.244 290.924 151.8C292.01 150.866 293.157 149.942 294.446 148.988C295.136 148.481 295.837 147.973 296.547 147.486C297.562 146.816 298.526 146.106 299.47 145.365C301.693 143.599 302.049 142.218 300.942 139.66C299.288 135.875 297.542 132.048 295.745 128.292C294.73 126.262 293.32 125.552 291.015 126.049C289.412 126.394 287.808 126.77 286.204 127.135C284.601 127.501 283.159 127.856 281.566 128.15C280.567 128.42 279.514 128.413 278.52 128.128C277.525 127.844 276.627 127.294 275.922 126.537C274.217 124.801 272.41 123.106 270.655 121.462L269.01 119.909C268.408 119.345 267.947 118.649 267.663 117.875C267.379 117.101 267.281 116.272 267.376 115.453C267.478 114.255 267.65 113.057 267.833 111.951C267.965 111.129 268.117 110.297 268.269 109.474C268.554 107.901 268.858 106.277 269.01 104.684C269.157 103.921 269.035 103.131 268.665 102.448C268.295 101.765 267.699 101.232 266.98 100.938C263.154 99.4766 259.094 98.0049 253.785 96.188C253.09 95.9171 252.321 95.8998 251.613 96.1393C250.906 96.3787 250.306 96.8595 249.918 97.4974C249.076 98.6646 248.264 99.9029 247.482 101.09L247.015 101.821C246.562 102.498 246.115 103.175 245.675 103.851C245.016 104.866 244.356 105.881 243.645 106.896C243.296 107.464 242.814 107.939 242.242 108.28C241.669 108.621 241.022 108.818 240.357 108.855L236.977 108.987C234.947 109.068 232.856 109.139 230.795 109.292C229.596 109.418 228.385 109.198 227.306 108.659C226.227 108.119 225.324 107.282 224.705 106.247C223.569 104.592 222.341 102.948 221.153 101.365C220.493 100.471 219.833 99.5883 219.184 98.6951C218.809 98.1212 218.251 97.6908 217.601 97.4734C216.95 97.256 216.246 97.2645 215.601 97.4974C210.545 98.9296 205.736 101.123 201.34 104.004C200.82 104.476 200.5 105.13 200.447 105.831C200.387 106.94 200.493 108.051 200.762 109.129C201.086 110.753 201.452 112.367 201.777 113.981C202.061 115.27 202.355 116.559 202.629 117.848C202.838 118.581 202.86 119.355 202.696 120.099C202.531 120.843 202.184 121.534 201.685 122.111C199.371 124.578 196.61 127.47 193.647 130.292C192.778 130.97 191.703 131.329 190.602 131.307C189.578 131.286 188.559 131.17 187.557 130.962L186.623 130.8C185.801 130.668 184.978 130.515 184.156 130.373C182.613 130.089 181.02 129.805 179.447 129.632C178.554 129.505 177.645 129.694 176.877 130.166C176.11 130.639 175.532 131.366 175.245 132.221C174.686 133.57 174.027 135.164 173.468 136.758C172.717 138.879 171.997 141.01 171.276 143.142L170.433 145.608V146.532C171.042 148.268 172.514 149.222 174.067 150.237C175.62 151.252 177.011 152.115 178.472 153.038L181.517 154.997C182.11 155.374 182.6 155.892 182.944 156.505C183.287 157.118 183.474 157.807 183.486 158.509C183.547 159.636 183.598 160.772 183.639 161.909C183.72 163.716 183.791 165.594 183.923 167.431C184.086 168.836 183.834 170.258 183.197 171.521C182.56 172.784 181.567 173.832 180.34 174.536C178.259 175.876 176.097 177.408 173.519 179.367C171.631 180.798 171.316 181.884 172.179 184.006C173.448 187.132 175.153 191.263 177.092 195.364C178.533 198.409 179.467 198.886 182.959 198.246C183.013 198.252 183.067 198.252 183.121 198.246H183.263L185.78 197.678C187.729 197.231 189.688 196.795 191.627 196.308C192.21 196.109 192.818 195.99 193.433 195.952ZM236.51 190.796H236.449C228.876 190.756 221.626 187.721 216.283 182.355C210.939 176.989 207.935 169.726 207.928 162.153C207.93 158.388 208.68 154.661 210.135 151.188C211.59 147.715 213.721 144.566 216.403 141.924C221.813 136.534 229.192 133.317 236.155 133.317H236.266C240.066 133.276 243.836 133.992 247.357 135.422C250.878 136.852 254.08 138.968 256.775 141.646C259.471 144.325 261.607 147.513 263.059 151.025C264.511 154.536 265.251 158.302 265.234 162.102C265.651 168.882 262.778 176.241 257.541 181.803C254.837 184.667 251.571 186.941 247.946 188.482C244.322 190.022 240.418 190.797 236.48 190.756L236.51 190.796ZM236.155 134.332C228.972 134.541 222.149 137.52 217.113 142.645C213.239 146.481 210.591 151.381 209.502 156.724C208.414 162.067 208.935 167.613 211 172.659C213.065 177.706 216.58 182.026 221.101 185.074C225.622 188.122 230.946 189.76 236.398 189.781H236.459C240.257 189.813 244.021 189.059 247.515 187.568C251.008 186.076 254.155 183.878 256.759 181.113C261.834 175.744 264.575 168.659 264.169 162.153C264.186 158.485 263.474 154.85 262.074 151.459C260.673 148.069 258.612 144.991 256.011 142.405C253.41 139.819 250.32 137.776 246.921 136.395C243.523 135.014 239.884 134.323 236.216 134.362L236.155 134.332Z" fill="#484646"/>
<path d="M269.7 231.01C270.005 230.117 270.299 229.224 270.614 228.341C270.776 227.874 270.969 227.427 271.152 226.971C271.254 226.688 271.449 226.448 271.705 226.291C271.962 226.134 272.264 226.069 272.563 226.108C273.294 226.189 274.004 226.341 274.725 226.453C275.105 226.539 275.492 226.59 275.882 226.605C276.171 226.611 276.454 226.518 276.684 226.341C277.506 225.56 278.298 224.738 279.079 223.905C279.211 223.749 279.304 223.563 279.348 223.363C279.392 223.164 279.387 222.956 279.333 222.758C279.14 221.896 278.937 221.023 278.754 220.15C278.67 219.819 278.639 219.476 278.663 219.135C278.672 219.008 278.706 218.885 278.764 218.771C278.821 218.658 278.901 218.557 278.998 218.475C280.327 217.604 281.782 216.94 283.312 216.506C283.537 216.434 283.78 216.438 284.002 216.519C284.225 216.6 284.414 216.752 284.54 216.953C285.088 217.704 285.666 218.445 286.194 219.216C286.366 219.507 286.619 219.743 286.921 219.894C287.224 220.045 287.563 220.106 287.899 220.069C288.854 219.998 289.808 219.988 290.762 219.937C290.937 219.927 291.107 219.875 291.257 219.785C291.408 219.695 291.534 219.569 291.624 219.419C291.97 218.912 292.284 218.404 292.639 217.886C292.995 217.369 293.208 217.014 293.512 216.587C293.646 216.371 293.851 216.208 294.091 216.124C294.331 216.041 294.593 216.043 294.832 216.131C296.151 216.587 297.471 217.064 298.78 217.562C299.029 217.659 299.236 217.84 299.366 218.073C299.496 218.307 299.54 218.578 299.491 218.841C299.42 219.571 299.257 220.292 299.135 221.023C299.085 221.368 299.034 221.713 299.004 222.038C298.975 222.26 299.001 222.486 299.079 222.697C299.156 222.907 299.284 223.095 299.45 223.246C300.14 223.905 300.851 224.555 301.48 225.276C301.673 225.485 301.921 225.636 302.195 225.713C302.469 225.79 302.759 225.79 303.033 225.712C303.977 225.509 304.911 225.286 305.855 225.073C306.166 224.971 306.504 224.993 306.8 225.135C307.095 225.277 307.323 225.527 307.438 225.834C307.976 226.961 308.504 228.097 309.001 229.244C309.097 229.398 309.16 229.57 309.188 229.75C309.215 229.929 309.205 230.112 309.16 230.288C309.114 230.463 309.034 230.628 308.923 230.771C308.812 230.915 308.673 231.034 308.514 231.122C308.027 231.508 307.499 231.843 307.002 232.218C306.504 232.594 306.301 232.756 305.987 233.051C305.84 233.174 305.724 233.33 305.648 233.506C305.572 233.683 305.539 233.874 305.55 234.066C305.55 235.081 305.55 236.096 305.631 237.04C305.642 237.307 305.72 237.567 305.859 237.796C305.997 238.025 306.191 238.215 306.423 238.349C306.971 238.674 307.519 238.978 308.057 239.364C308.382 239.567 308.717 239.78 309.022 240.013C309.247 240.164 309.414 240.387 309.495 240.645C309.577 240.904 309.567 241.182 309.468 241.434C309.032 242.622 308.585 243.82 308.128 245.007C308.054 245.186 307.955 245.354 307.834 245.505C307.732 245.701 307.569 245.859 307.369 245.954C307.17 246.05 306.944 246.077 306.728 246.032L304.16 245.606H303.967C303.608 245.507 303.228 245.519 302.877 245.64C302.525 245.762 302.219 245.987 301.998 246.286C301.511 246.865 300.983 247.382 300.445 247.92C300.203 248.159 300.031 248.459 299.947 248.788C299.863 249.117 299.87 249.463 299.968 249.788C300.181 250.62 300.384 251.453 300.556 252.295C300.623 252.457 300.655 252.631 300.649 252.806C300.644 252.981 300.601 253.152 300.525 253.31C300.448 253.467 300.339 253.606 300.204 253.718C300.07 253.83 299.913 253.913 299.744 253.96C298.587 254.518 297.4 255.046 296.212 255.553C295.948 255.697 295.639 255.733 295.348 255.656C295.057 255.579 294.807 255.393 294.649 255.137C294.192 254.558 293.766 253.949 293.34 253.351C292.416 252.051 292.183 251.94 290.599 252.021L288.742 252.122C288.445 252.126 288.155 252.207 287.899 252.356C287.642 252.505 287.429 252.719 287.28 252.975C286.905 253.594 286.549 254.234 286.154 254.843C285.943 255.157 285.705 255.452 285.443 255.726C285.324 255.872 285.161 255.976 284.978 256.021C284.795 256.067 284.602 256.052 284.428 255.979C283.18 255.513 281.921 255.056 280.673 254.579C280.504 254.505 280.344 254.413 280.196 254.305C279.999 254.203 279.841 254.04 279.746 253.84C279.65 253.64 279.623 253.415 279.668 253.198C279.81 252.346 279.952 251.503 280.084 250.651C280.084 250.397 280.145 250.133 280.165 249.879C280.187 249.666 280.159 249.45 280.084 249.249C280.008 249.048 279.886 248.868 279.729 248.722C279.049 248.103 278.379 247.474 277.699 246.834C277.508 246.648 277.271 246.517 277.012 246.455C276.753 246.392 276.482 246.4 276.227 246.479C275.395 246.682 274.552 246.865 273.72 247.058H273.618C272.532 247.261 272.177 247.118 271.7 246.114C271.223 245.109 270.685 243.85 270.228 242.703C270.152 242.571 270.102 242.425 270.083 242.274C270.064 242.122 270.076 241.969 270.118 241.822C270.159 241.675 270.23 241.538 270.326 241.419C270.422 241.3 270.54 241.202 270.675 241.13C271.345 240.633 272.025 240.115 272.705 239.689C273.057 239.49 273.342 239.19 273.523 238.829C273.703 238.467 273.772 238.06 273.72 237.659C273.659 236.765 273.639 235.872 273.588 234.989C273.586 234.803 273.538 234.62 273.448 234.456C273.357 234.293 273.228 234.155 273.07 234.055C272.329 233.578 271.578 233.122 270.847 232.634C270.323 232.381 269.906 231.949 269.67 231.416L269.7 231.01ZM298.039 235.984C298.042 234.867 297.823 233.761 297.396 232.73C296.968 231.698 296.34 230.761 295.548 229.974C294.756 229.187 293.816 228.565 292.782 228.143C291.747 227.722 290.64 227.509 289.523 227.519C287.309 227.582 285.204 228.499 283.651 230.079C282.097 231.659 281.216 233.779 281.19 235.994C281.203 238.217 282.09 240.346 283.658 241.922C285.226 243.498 287.351 244.395 289.574 244.419C290.687 244.432 291.791 244.223 292.823 243.805C293.854 243.386 294.791 242.766 295.579 241.98C296.368 241.195 296.991 240.26 297.414 239.23C297.836 238.2 298.049 237.097 298.039 235.984Z" fill="#D1D1D1"/>
<path d="M284.783 256.396C284.614 256.394 284.445 256.363 284.286 256.304L283.342 255.949C282.408 255.604 281.464 255.259 280.541 254.934C280.36 254.854 280.187 254.759 280.023 254.65C279.734 254.491 279.501 254.247 279.356 253.951C279.21 253.655 279.16 253.321 279.211 252.995L279.384 251.899L279.627 250.458C279.627 250.214 279.678 249.971 279.698 249.727C279.715 249.59 279.7 249.451 279.655 249.32C279.609 249.19 279.533 249.072 279.434 248.976C278.836 248.438 278.257 247.9 277.678 247.352L277.394 247.088C277.263 246.959 277.099 246.869 276.92 246.826C276.742 246.783 276.555 246.789 276.379 246.844L274.633 247.25L273.862 247.423H273.74C273.498 247.518 273.24 247.561 272.98 247.549C272.721 247.538 272.467 247.472 272.234 247.356C272.002 247.241 271.796 247.078 271.631 246.877C271.465 246.677 271.344 246.445 271.274 246.195C270.685 244.946 270.167 243.708 269.792 242.764C269.59 242.396 269.541 241.963 269.655 241.559C269.769 241.154 270.036 240.811 270.401 240.602C271.182 240.003 271.852 239.536 272.482 239.12C272.748 238.975 272.964 238.753 273.101 238.484C273.239 238.214 273.292 237.908 273.253 237.608C273.253 237.05 273.192 236.481 273.172 235.913L273.121 234.898C273.123 234.793 273.098 234.689 273.048 234.597C272.999 234.504 272.926 234.426 272.837 234.37L271.923 233.792L270.604 232.949C269.986 232.633 269.501 232.108 269.234 231.467C269.223 231.414 269.223 231.358 269.234 231.305V230.98C269.223 230.926 269.223 230.871 269.234 230.818L269.538 229.924L270.147 228.138C270.32 227.671 270.502 227.204 270.695 226.747C270.837 226.36 271.106 226.033 271.458 225.819C271.811 225.605 272.225 225.517 272.634 225.57C273.121 225.57 273.649 225.712 274.085 225.793L274.816 225.925L275.11 225.976C275.364 226.034 275.622 226.065 275.882 226.067C276.046 226.07 276.207 226.028 276.349 225.946C277.222 225.113 278.044 224.251 278.724 223.53C278.798 223.433 278.848 223.32 278.869 223.2C278.89 223.08 278.882 222.956 278.846 222.84C278.764 222.454 278.673 222.068 278.592 221.693C278.511 221.317 278.369 220.678 278.267 220.221C278.176 219.836 278.142 219.439 278.166 219.044C278.184 218.844 278.244 218.651 278.342 218.476C278.44 218.301 278.573 218.149 278.734 218.029C280.108 217.131 281.61 216.446 283.19 215.999C283.514 215.898 283.862 215.904 284.183 216.018C284.503 216.131 284.778 216.345 284.966 216.628C285.159 216.902 285.352 217.166 285.555 217.43C285.92 217.917 286.286 218.445 286.631 218.902C286.748 219.121 286.929 219.3 287.15 219.414C287.372 219.528 287.622 219.572 287.869 219.541C288.488 219.541 289.117 219.47 289.747 219.45H290.762C290.858 219.445 290.952 219.416 291.034 219.364C291.116 219.313 291.183 219.241 291.229 219.155L291.807 218.262L292.365 217.409C292.609 217.034 292.843 216.668 293.106 216.313C293.299 216.005 293.592 215.773 293.936 215.656C294.28 215.54 294.654 215.546 294.994 215.674C296.588 216.222 297.816 216.689 298.963 217.105C299.31 217.247 299.598 217.501 299.782 217.827C299.967 218.153 300.035 218.532 299.978 218.902C299.927 219.409 299.836 219.917 299.755 220.394C299.704 220.637 299.663 220.881 299.623 221.124C299.582 221.368 299.521 221.784 299.491 222.139C299.47 222.286 299.484 222.436 299.534 222.575C299.583 222.715 299.666 222.841 299.775 222.941L300.272 223.408C300.81 223.916 301.348 224.423 301.866 224.941C301.996 225.091 302.167 225.2 302.358 225.255C302.549 225.309 302.752 225.305 302.942 225.245L304.322 224.931L305.774 224.606C306.193 224.477 306.645 224.51 307.041 224.697C307.438 224.885 307.75 225.215 307.915 225.621C308.463 226.758 308.93 227.894 309.478 229.052C309.721 229.466 309.791 229.959 309.674 230.424C309.556 230.889 309.26 231.29 308.849 231.538C308.555 231.772 308.24 231.985 307.936 232.198L307.327 232.634C306.981 232.888 306.636 233.162 306.312 233.436C306.224 233.507 306.155 233.597 306.109 233.699C306.063 233.801 306.042 233.913 306.048 234.025V234.522C306.048 235.324 306.048 236.126 306.119 236.918C306.124 237.103 306.177 237.284 306.273 237.442C306.369 237.601 306.505 237.731 306.667 237.821L307.347 238.227L308.301 238.785C308.652 238.996 308.991 239.226 309.316 239.476C309.636 239.692 309.871 240.012 309.982 240.382C310.093 240.752 310.073 241.149 309.925 241.506C309.488 242.703 309.042 243.891 308.585 245.078C308.505 245.281 308.4 245.472 308.271 245.647C308.111 245.931 307.867 246.16 307.573 246.3C307.278 246.44 306.947 246.485 306.626 246.428L304.058 246.002H303.825C303.556 245.929 303.272 245.94 303.01 246.035C302.749 246.129 302.523 246.302 302.363 246.53C302.018 246.936 301.643 247.322 301.257 247.707L300.79 248.184C300.605 248.358 300.473 248.582 300.41 248.828C300.348 249.074 300.356 249.333 300.435 249.575C300.648 250.407 300.861 251.25 301.034 252.102C301.112 252.319 301.145 252.55 301.133 252.78C301.12 253.01 301.061 253.236 300.96 253.443C300.859 253.65 300.717 253.835 300.543 253.987C300.369 254.138 300.167 254.253 299.947 254.325C298.882 254.832 297.714 255.34 296.395 255.919C296.029 256.108 295.606 256.155 295.207 256.052C294.809 255.949 294.462 255.703 294.233 255.36C293.847 254.883 293.502 254.345 293.147 253.889L292.903 253.554C292.081 252.396 292.02 252.366 290.599 252.437L288.752 252.539C288.545 252.543 288.342 252.602 288.164 252.709C287.986 252.816 287.839 252.967 287.737 253.148L287.362 253.767C287.118 254.193 286.864 254.609 286.6 255.025C286.375 255.387 286.116 255.726 285.829 256.04C285.54 256.291 285.165 256.418 284.783 256.396ZM276.663 245.758C277.176 245.757 277.668 245.958 278.034 246.317L278.308 246.581L280.053 248.205C280.281 248.389 280.46 248.626 280.577 248.894C280.693 249.163 280.743 249.455 280.723 249.747C280.717 250.026 280.69 250.305 280.642 250.58C280.571 251.067 280.49 251.595 280.409 252.041L280.236 253.127C280.211 253.247 280.228 253.371 280.283 253.48C280.339 253.589 280.43 253.676 280.541 253.726C280.657 253.815 280.783 253.89 280.916 253.949L283.718 254.964L284.662 255.32C284.783 255.32 284.925 255.381 285.108 255.188C285.349 254.941 285.566 254.673 285.758 254.386C286.012 253.98 286.255 253.574 286.499 253.158L286.884 252.528C287.075 252.202 287.345 251.931 287.671 251.739C287.996 251.547 288.364 251.441 288.742 251.432L290.599 251.331C292.365 251.239 292.751 251.422 293.786 252.874L294.02 253.209C294.365 253.696 294.71 254.173 295.035 254.64C295.08 254.728 295.143 254.806 295.22 254.869C295.298 254.931 295.388 254.975 295.484 254.999C295.581 255.023 295.681 255.026 295.779 255.008C295.876 254.99 295.969 254.951 296.05 254.893C297.359 254.345 298.506 253.878 299.562 253.32C300.15 253.026 300.222 252.884 300.09 252.214C299.917 251.381 299.714 250.549 299.501 249.727C299.381 249.319 299.375 248.887 299.482 248.475C299.589 248.064 299.806 247.69 300.11 247.393L300.587 246.905C300.952 246.54 301.308 246.175 301.602 245.779C301.882 245.408 302.266 245.129 302.706 244.978C303.145 244.826 303.619 244.808 304.068 244.926H304.231L306.799 245.363C306.92 245.386 307.045 245.369 307.155 245.314C307.265 245.259 307.354 245.169 307.408 245.058C307.501 244.93 307.583 244.794 307.651 244.652C308.098 243.464 308.545 242.277 308.981 241.089C309.046 240.94 309.054 240.772 309.003 240.616C308.953 240.461 308.847 240.33 308.707 240.247C308.41 240.02 308.098 239.813 307.773 239.628L306.849 239.07L306.159 238.664C305.859 238.484 305.609 238.232 305.432 237.93C305.255 237.629 305.156 237.288 305.144 236.938C305.144 236.126 305.144 235.324 305.073 234.522V233.954C305.066 233.694 305.117 233.435 305.225 233.197C305.332 232.96 305.492 232.75 305.692 232.584C306.037 232.279 306.393 231.995 306.768 231.721L307.398 231.274C307.692 231.071 307.976 230.868 308.26 230.645C308.798 230.219 308.859 229.975 308.595 229.356C308.098 228.219 307.58 227.093 307.042 225.966C307.011 225.865 306.959 225.772 306.889 225.693C306.82 225.613 306.735 225.549 306.64 225.504C306.544 225.46 306.441 225.435 306.335 225.432C306.23 225.43 306.125 225.449 306.027 225.489L304.596 225.814L303.196 226.128C302.837 226.227 302.457 226.226 302.099 226.124C301.741 226.022 301.418 225.823 301.166 225.55C300.658 225.032 300.15 224.535 299.602 224.048L299.105 223.581C298.892 223.371 298.727 223.116 298.624 222.836C298.52 222.555 298.48 222.255 298.506 221.957C298.506 221.591 298.587 221.236 298.648 220.881C298.709 220.525 298.74 220.383 298.78 220.13C298.876 219.667 298.947 219.199 298.993 218.729C299.027 218.578 299.007 218.421 298.936 218.284C298.866 218.146 298.75 218.038 298.608 217.978C297.471 217.541 296.263 217.095 294.68 216.557C294.544 216.5 294.393 216.497 294.255 216.548C294.118 216.599 294.004 216.7 293.939 216.831C293.685 217.166 293.451 217.521 293.228 217.846L292.68 218.699L292.081 219.612C291.945 219.828 291.758 220.008 291.537 220.137C291.317 220.266 291.068 220.34 290.812 220.353H289.797C289.188 220.353 288.579 220.353 287.96 220.444C287.536 220.489 287.108 220.412 286.727 220.221C286.346 220.03 286.027 219.734 285.809 219.368C285.474 218.871 285.118 218.404 284.794 217.927C284.591 217.653 284.388 217.389 284.195 217.115C284.128 216.998 284.023 216.908 283.896 216.862C283.77 216.815 283.631 216.815 283.504 216.861C282.024 217.278 280.616 217.922 279.333 218.77C279.275 218.85 279.24 218.945 279.231 219.044C279.218 219.34 279.245 219.637 279.313 219.927C279.414 220.414 279.516 220.891 279.627 221.378C279.739 221.865 279.8 222.15 279.891 222.535C279.964 222.811 279.969 223.101 279.903 223.379C279.837 223.657 279.704 223.915 279.516 224.129C278.825 224.87 277.993 225.743 277.1 226.595C276.775 226.855 276.369 226.995 275.953 226.991C275.612 226.989 275.271 226.952 274.938 226.879L274.664 226.829L273.913 226.707C273.456 226.626 272.999 226.534 272.532 226.484C272.342 226.457 272.148 226.499 271.985 226.601C271.821 226.703 271.699 226.859 271.639 227.042C271.456 227.488 271.274 227.935 271.111 228.382L270.502 230.158L270.228 231.173C270.441 231.55 270.763 231.854 271.152 232.046L272.482 232.898L273.395 233.477C273.622 233.618 273.809 233.814 273.94 234.046C274.072 234.278 274.142 234.54 274.146 234.807L274.197 235.822C274.197 236.38 274.197 236.938 274.278 237.486C274.328 237.97 274.237 238.457 274.018 238.891C273.798 239.325 273.459 239.686 273.04 239.932C272.431 240.318 271.791 240.775 271.01 241.353C270.563 241.688 270.523 241.84 270.716 242.368C271.091 243.302 271.609 244.53 272.177 245.748C272.542 246.52 272.654 246.581 273.547 246.418L274.4 246.225L276.125 245.819C276.302 245.779 276.482 245.758 276.663 245.758ZM289.554 244.926C287.194 244.91 284.935 243.963 283.27 242.29C281.605 240.617 280.668 238.354 280.662 235.994C280.663 234.82 280.897 233.658 281.352 232.576C281.807 231.493 282.473 230.513 283.312 229.691C284.954 228.035 287.172 227.076 289.503 227.011C290.686 226.998 291.859 227.22 292.956 227.664C294.052 228.108 295.049 228.766 295.888 229.599C296.728 230.432 297.394 231.424 297.847 232.516C298.299 233.609 298.531 234.781 298.527 235.964C298.559 237.097 298.364 238.225 297.952 239.282C297.541 240.338 296.921 241.302 296.131 242.115C295.294 243.008 294.282 243.72 293.157 244.204C292.032 244.687 290.819 244.933 289.594 244.926H289.554ZM289.452 228.026C287.395 228.084 285.44 228.939 284.002 230.412C283.259 231.139 282.67 232.008 282.267 232.967C281.864 233.925 281.657 234.954 281.657 235.994C281.66 238.086 282.489 240.092 283.965 241.575C285.44 243.058 287.442 243.898 289.534 243.911C290.622 243.92 291.701 243.704 292.702 243.276C293.703 242.848 294.604 242.218 295.35 241.424C296.048 240.711 296.596 239.864 296.96 238.935C297.325 238.006 297.498 237.012 297.471 236.014C297.478 234.963 297.275 233.921 296.874 232.949C296.474 231.977 295.883 231.095 295.137 230.354C294.392 229.613 293.506 229.028 292.531 228.634C291.557 228.24 290.514 228.043 289.463 228.057L289.452 228.026Z" fill="#484646"/>
<path d="M186.44 265.48C186.948 263.45 187.455 261.42 187.952 259.39C188.226 258.375 188.551 257.36 188.876 256.284C189.043 255.636 189.427 255.064 189.965 254.665C190.502 254.266 191.161 254.064 191.83 254.092C193.444 254.092 195.047 254.335 196.651 254.457C197.512 254.57 198.382 254.607 199.249 254.569C199.886 254.531 200.492 254.277 200.965 253.848C202.639 251.95 204.233 249.981 205.796 248.002C206.059 247.634 206.227 247.207 206.283 246.759C206.34 246.31 206.284 245.855 206.121 245.434C205.552 243.546 204.923 241.678 204.365 239.78C204.116 239.054 203.979 238.294 203.959 237.527C203.954 237.244 204.006 236.964 204.113 236.702C204.219 236.44 204.377 236.203 204.578 236.004C207.347 233.834 210.426 232.092 213.713 230.838C214.197 230.636 214.735 230.6 215.242 230.736C215.749 230.872 216.196 231.172 216.514 231.589C217.875 233.152 219.285 234.634 220.574 236.268C221.007 236.879 221.607 237.352 222.302 237.631C222.997 237.91 223.757 237.983 224.492 237.841C226.583 237.507 228.694 237.283 230.795 236.999C231.18 236.944 231.546 236.796 231.861 236.568C232.175 236.339 232.43 236.038 232.602 235.69C233.252 234.512 233.861 233.315 234.5 232.127C235.059 231.112 235.596 230.097 236.185 229.082C236.438 228.579 236.857 228.179 237.372 227.951C237.887 227.724 238.465 227.682 239.007 227.834C242.052 228.585 245.016 229.366 248 230.229C248.564 230.399 249.053 230.758 249.384 231.246C249.714 231.734 249.867 232.321 249.817 232.909C249.817 234.543 249.563 236.167 249.451 237.801C249.39 238.572 249.34 239.344 249.35 240.115C249.332 240.61 249.432 241.102 249.64 241.552C249.848 242.002 250.159 242.396 250.547 242.703C252.212 244.023 253.897 245.312 255.501 246.692C255.968 247.116 256.542 247.403 257.162 247.523C257.781 247.643 258.421 247.591 259.012 247.372C261.042 246.743 263.072 246.053 265.102 245.424C265.766 245.135 266.516 245.115 267.194 245.369C267.872 245.623 268.425 246.13 268.736 246.784C270.147 249.169 271.507 251.585 272.796 254.01C273.75 255.787 273.557 256.873 272.076 258.263C271.061 259.207 269.985 260.05 268.96 260.953C268.219 261.613 267.498 262.283 266.808 262.983C266.513 263.271 266.289 263.624 266.154 264.013C266.018 264.402 265.974 264.817 266.026 265.226C266.26 267.408 266.483 269.591 266.777 271.763C266.846 272.359 267.069 272.926 267.425 273.409C267.781 273.892 268.258 274.272 268.807 274.513C270.056 275.122 271.324 275.711 272.573 276.33C273.354 276.705 274.114 277.126 274.846 277.589C275.375 277.873 275.788 278.333 276.014 278.888C276.24 279.444 276.265 280.061 276.085 280.634C275.354 283.354 274.593 286.064 273.821 288.754C273.68 289.164 273.497 289.559 273.273 289.931C273.088 290.379 272.767 290.758 272.356 291.015C271.944 291.271 271.463 291.393 270.979 291.362C269.061 291.22 267.143 291.058 265.224 290.906C265.082 290.906 264.93 290.906 264.788 290.906C263.976 290.756 263.138 290.858 262.385 291.197C261.633 291.536 261.002 292.097 260.576 292.804C259.621 294.154 258.546 295.402 257.47 296.691C256.979 297.262 256.653 297.956 256.528 298.698C256.403 299.441 256.483 300.203 256.759 300.903C257.389 302.7 257.998 304.496 258.535 306.323C259.073 308.15 258.789 309.135 257.074 310.15C254.607 311.602 252.1 312.992 249.573 314.332C249.018 314.701 248.343 314.843 247.686 314.73C247.029 314.617 246.44 314.256 246.041 313.723C244.914 312.535 243.869 311.267 242.813 310.018C240.529 307.338 240.002 307.125 236.51 307.602L232.45 308.191C231.8 308.256 231.177 308.488 230.643 308.865C230.11 309.242 229.683 309.751 229.405 310.343C228.694 311.794 228.014 313.256 227.263 314.687C226.858 315.426 226.386 316.126 225.852 316.778C225.621 317.108 225.291 317.356 224.911 317.489C224.53 317.622 224.118 317.633 223.731 317.519C220.889 316.727 218.037 315.946 215.195 315.144C214.804 315.012 214.429 314.835 214.078 314.616C213.634 314.42 213.262 314.089 213.016 313.67C212.77 313.251 212.663 312.765 212.708 312.282C212.84 310.383 213.003 308.485 213.135 306.587C213.165 306.009 213.165 305.43 213.135 304.852C213.142 304.382 213.041 303.916 212.838 303.492C212.636 303.067 212.337 302.696 211.967 302.406C210.343 301.157 208.74 299.888 207.136 298.62C206.679 298.242 206.129 297.994 205.543 297.902C204.958 297.809 204.358 297.875 203.807 298.092C202 298.711 200.193 299.269 198.376 299.858C198.31 299.883 198.242 299.903 198.173 299.919C195.798 300.568 194.986 300.325 193.748 298.193C192.368 295.828 191.089 293.392 189.85 290.956C189.089 289.454 189.282 288.551 190.551 287.404C191.82 286.257 193.332 284.948 194.793 283.811C195.514 283.318 196.073 282.624 196.4 281.815C196.726 281.006 196.807 280.118 196.631 279.264C196.336 277.315 196.113 275.346 195.839 273.397C195.799 272.987 195.657 272.593 195.427 272.251C195.196 271.909 194.885 271.629 194.519 271.438C192.784 270.535 191.048 269.652 189.333 268.728C188.13 268.265 187.131 267.391 186.511 266.261L186.44 265.48ZM249.938 271.062C249.731 268.597 249.036 266.197 247.896 264.001C246.755 261.805 245.19 259.858 243.292 258.27C241.394 256.683 239.201 255.487 236.838 254.753C234.475 254.018 231.99 253.759 229.527 253.99C220.909 254.69 211.785 263.125 212.759 274.29C213.206 279.196 215.566 283.729 219.329 286.909C223.091 290.088 227.954 291.659 232.866 291.281C244.853 290.276 251.167 279.274 249.938 271.062Z" fill="#FF931E"/>
<path d="M224.259 318.047C224.025 318.047 223.792 318.013 223.569 317.945L221.244 317.306C219.214 316.727 217.093 316.159 215.022 315.57C214.667 315.45 214.327 315.29 214.007 315.093L213.845 315.002C213.314 314.758 212.872 314.356 212.579 313.851C212.286 313.345 212.158 312.762 212.211 312.18C212.272 311.327 212.333 310.465 212.404 309.612C212.485 308.597 212.566 307.531 212.637 306.496C212.669 305.935 212.669 305.372 212.637 304.811C212.638 304.417 212.547 304.028 212.37 303.676C212.194 303.323 211.938 303.017 211.622 302.781C210.161 301.665 208.709 300.518 207.268 299.381L206.781 298.995C206.39 298.67 205.918 298.457 205.415 298.38C204.913 298.303 204.398 298.365 203.928 298.559C202.66 298.985 201.381 299.401 200.102 299.807L198.498 300.315L198.265 300.396C195.626 301.117 194.601 300.711 193.271 298.427C191.748 295.808 190.378 293.169 189.353 291.159C188.924 290.497 188.769 289.694 188.921 288.92C189.072 288.145 189.518 287.46 190.165 287.008C191.769 285.557 193.129 284.41 194.448 283.395C195.092 282.955 195.591 282.335 195.883 281.613C196.176 280.891 196.249 280.098 196.093 279.335C195.9 278.117 195.748 276.889 195.585 275.671C195.494 274.93 195.402 274.189 195.301 273.448C195.265 273.118 195.149 272.803 194.964 272.529C194.778 272.254 194.528 272.03 194.235 271.874L192.083 270.758L189.038 269.164C187.73 268.657 186.649 267.695 185.993 266.454C185.988 266.4 185.988 266.346 185.993 266.292V265.602C185.978 265.538 185.978 265.472 185.993 265.409L186.43 263.602C186.785 262.181 187.13 260.75 187.506 259.329C187.79 258.233 188.115 257.167 188.44 256.183C188.636 255.447 189.072 254.798 189.679 254.339C190.285 253.879 191.028 253.635 191.789 253.645H191.88C192.956 253.645 194.042 253.777 195.088 253.868L196.732 254.01L197.382 254.071C197.996 254.131 198.615 254.131 199.229 254.071C199.743 254.044 200.234 253.852 200.63 253.523C202.406 251.493 204.06 249.463 205.441 247.697C205.652 247.394 205.784 247.043 205.825 246.676C205.865 246.309 205.814 245.938 205.674 245.596C205.431 244.754 205.157 243.931 204.893 243.099C204.558 242.084 204.233 240.998 203.878 239.932C203.618 239.156 203.474 238.345 203.451 237.527C203.45 237.168 203.523 236.812 203.664 236.483C203.805 236.153 204.013 235.855 204.274 235.608C207.084 233.404 210.212 231.639 213.551 230.371C214.132 230.136 214.774 230.096 215.38 230.257C215.986 230.418 216.523 230.771 216.91 231.264C217.387 231.812 217.864 232.36 218.352 232.898C219.235 233.913 220.148 234.928 221.001 235.943C221.376 236.486 221.902 236.906 222.513 237.153C223.125 237.4 223.795 237.463 224.442 237.334C225.802 237.121 227.192 236.948 228.502 236.786L230.724 236.502C231.028 236.464 231.318 236.351 231.567 236.174C231.817 235.997 232.019 235.761 232.156 235.487C232.541 234.786 232.917 234.086 233.282 233.375C233.546 232.898 233.8 232.36 234.054 231.924L234.358 231.376C234.805 230.533 235.261 229.691 235.749 228.879C236.056 228.281 236.559 227.806 237.174 227.534C237.79 227.262 238.48 227.21 239.129 227.387C242.762 228.3 245.543 229.041 248.132 229.793C248.808 229.987 249.396 230.41 249.796 230.989C250.195 231.568 250.382 232.268 250.324 232.969C250.324 234.066 250.202 235.182 250.101 236.248C250.04 236.796 249.989 237.344 249.949 237.892C249.898 238.613 249.847 239.384 249.857 240.156C249.84 240.577 249.923 240.996 250.099 241.379C250.275 241.762 250.54 242.098 250.872 242.358L252.029 243.262C253.288 244.277 254.597 245.292 255.846 246.307C256.249 246.678 256.747 246.929 257.286 247.031C257.824 247.133 258.38 247.083 258.891 246.885C259.906 246.581 260.921 246.256 261.885 245.931L265.011 244.916C265.785 244.588 266.655 244.57 267.442 244.867C268.228 245.164 268.87 245.752 269.234 246.51C270.644 248.895 272.025 251.331 273.294 253.747C274.309 255.705 274.116 257.066 272.482 258.619C271.883 259.177 271.243 259.715 270.624 260.222C270.198 260.588 269.761 260.943 269.345 261.318C268.564 262.009 267.873 262.658 267.224 263.348C266.981 263.583 266.797 263.872 266.686 264.191C266.575 264.51 266.54 264.851 266.584 265.186L266.726 266.495C266.909 268.231 267.102 269.976 267.325 271.712C267.38 272.222 267.569 272.708 267.872 273.121C268.175 273.535 268.581 273.861 269.051 274.067L270.624 274.828C271.355 275.173 272.096 275.528 272.827 275.894C273.62 276.278 274.393 276.705 275.141 277.173C275.765 277.51 276.251 278.055 276.516 278.713C276.781 279.371 276.808 280.1 276.592 280.776C275.861 283.496 275.1 286.206 274.329 288.896C274.195 289.308 274.015 289.703 273.791 290.073V290.175C273.544 290.706 273.137 291.148 272.628 291.439C272.119 291.73 271.532 291.856 270.949 291.799L266.98 291.484L265.052 291.332H264.727C264.008 291.201 263.267 291.292 262.601 291.593C261.936 291.894 261.378 292.391 261.002 293.017C260.322 293.981 259.561 294.895 258.82 295.788C258.495 296.163 258.18 296.549 257.866 296.935C257.432 297.438 257.146 298.051 257.039 298.707C256.932 299.362 257.007 300.034 257.257 300.65C257.845 302.365 258.475 304.212 259.033 306.1C259.672 308.272 259.246 309.379 257.338 310.505C255.084 311.835 252.628 313.205 249.817 314.697C249.168 315.13 248.378 315.298 247.609 315.166C246.841 315.034 246.152 314.612 245.686 313.987C244.752 312.972 243.859 311.957 242.996 310.942L242.438 310.282C240.265 307.734 239.88 307.582 236.581 308.039L234.236 308.374L232.511 308.628C231.941 308.678 231.395 308.877 230.927 309.205C230.458 309.533 230.084 309.978 229.841 310.495C229.598 310.982 229.364 311.51 229.131 311.957C228.664 312.972 228.197 313.895 227.69 314.85C227.272 315.618 226.783 316.346 226.228 317.022C226.002 317.333 225.706 317.588 225.364 317.766C225.022 317.944 224.644 318.04 224.259 318.047ZM205.075 297.3C205.938 297.305 206.773 297.606 207.44 298.153L207.928 298.549C209.369 299.685 210.81 300.822 212.272 301.939C212.705 302.273 213.053 302.705 213.289 303.198C213.526 303.692 213.643 304.234 213.632 304.781C213.663 305.372 213.663 305.965 213.632 306.557C213.561 307.572 213.48 308.648 213.398 309.693C213.327 310.546 213.266 311.399 213.206 312.251C213.163 312.639 213.248 313.03 213.448 313.365C213.648 313.7 213.951 313.961 214.312 314.109L214.474 314.2C214.741 314.361 215.023 314.494 215.317 314.596L221.539 316.331L223.863 316.971C224.154 317.056 224.465 317.046 224.75 316.942C225.035 316.838 225.279 316.645 225.446 316.392C225.966 315.762 226.422 315.082 226.807 314.362C227.304 313.429 227.761 312.464 228.228 311.51C228.461 311.013 228.694 310.495 228.938 310.038C229.254 309.372 229.737 308.799 230.34 308.374C230.943 307.949 231.645 307.686 232.379 307.613L234.104 307.359L236.459 307.024C240.123 306.516 240.814 306.78 243.219 309.612L243.787 310.282C244.63 311.297 245.513 312.312 246.426 313.327C246.751 313.78 247.24 314.087 247.789 314.182C248.338 314.277 248.902 314.152 249.36 313.835C252.141 312.353 254.587 310.982 256.83 309.663C258.332 308.78 258.576 308.14 258.069 306.415C257.561 304.689 256.891 302.72 256.302 301.015C255.997 300.235 255.909 299.387 256.048 298.561C256.188 297.735 256.549 296.962 257.094 296.326L258.048 295.169C258.779 294.296 259.53 293.392 260.19 292.459C260.67 291.677 261.374 291.059 262.21 290.684C263.047 290.309 263.977 290.196 264.879 290.358H265.102L267.072 290.51L271.04 290.824C271.428 290.868 271.82 290.785 272.156 290.587C272.493 290.39 272.757 290.088 272.908 289.728L272.969 289.627C273.151 289.322 273.301 288.999 273.415 288.663C274.187 285.952 274.938 283.253 275.679 280.543C275.842 280.076 275.828 279.565 275.641 279.107C275.454 278.649 275.107 278.276 274.664 278.056C273.947 277.605 273.204 277.195 272.441 276.828C271.72 276.462 270.989 276.117 270.259 275.813L268.675 275.051C268.057 274.769 267.522 274.333 267.122 273.783C266.722 273.234 266.47 272.59 266.392 271.915C266.158 270.169 265.975 268.423 265.783 266.678L265.64 265.368C265.582 264.883 265.635 264.391 265.797 263.93C265.959 263.469 266.225 263.051 266.574 262.709C267.234 262.029 267.944 261.349 268.746 260.679C269.173 260.303 269.609 259.938 270.046 259.573C270.655 259.065 271.274 258.558 271.852 257.999C273.162 256.761 273.314 255.908 272.471 254.356C271.162 251.95 269.792 249.524 268.411 247.139C268.287 246.864 268.109 246.616 267.888 246.411C267.667 246.205 267.407 246.045 267.124 245.94C266.841 245.835 266.54 245.788 266.238 245.8C265.936 245.813 265.64 245.885 265.366 246.012C264.351 246.327 263.286 246.662 262.25 247.027L259.205 247.991C258.534 248.235 257.808 248.292 257.107 248.154C256.406 248.016 255.756 247.69 255.227 247.21C253.998 246.195 252.699 245.18 251.441 244.165L250.283 243.251C249.833 242.899 249.471 242.445 249.23 241.926C248.988 241.408 248.873 240.839 248.893 240.267C248.893 239.455 248.893 238.664 248.994 237.913C248.994 237.364 249.086 236.806 249.137 236.258C249.238 235.243 249.34 234.116 249.36 233.051C249.397 232.577 249.275 232.104 249.011 231.709C248.748 231.313 248.36 231.017 247.908 230.868C245.32 230.117 242.549 229.387 238.936 228.473C238.499 228.345 238.032 228.376 237.617 228.563C237.202 228.749 236.867 229.077 236.672 229.488C236.185 230.29 235.749 231.122 235.302 231.954L234.998 232.503L234.236 233.944C233.861 234.654 233.485 235.365 233.089 236.075C232.868 236.482 232.553 236.83 232.17 237.09C231.787 237.349 231.347 237.513 230.887 237.567L228.664 237.852C227.324 238.014 225.944 238.187 224.604 238.4C223.783 238.564 222.931 238.486 222.153 238.176C221.375 237.866 220.703 237.338 220.219 236.654C219.377 235.639 218.473 234.624 217.59 233.609L216.139 231.965C215.888 231.626 215.53 231.382 215.123 231.271C214.716 231.161 214.284 231.191 213.896 231.356C210.653 232.583 207.614 234.294 204.883 236.431C204.61 236.742 204.462 237.143 204.466 237.557C204.491 238.276 204.621 238.988 204.852 239.668C205.157 240.683 205.492 241.77 205.867 242.815C206.131 243.647 206.395 244.48 206.649 245.322C206.84 245.824 206.902 246.366 206.829 246.898C206.756 247.43 206.551 247.935 206.232 248.367C204.852 250.123 203.187 252.204 201.391 254.234C200.83 254.745 200.117 255.059 199.361 255.127C198.684 255.171 198.004 255.151 197.331 255.066H196.712L194.956 254.822C193.941 254.731 192.865 254.63 191.819 254.599C191.26 254.571 190.708 254.74 190.26 255.078C189.813 255.416 189.499 255.9 189.373 256.446C189.059 257.461 188.734 258.476 188.46 259.491C188.084 260.912 187.739 262.333 187.394 263.754L186.968 265.48V266.028C187.553 266.999 188.441 267.752 189.495 268.17L192.54 269.763L194.702 270.89C195.14 271.117 195.515 271.449 195.793 271.856C196.071 272.264 196.244 272.734 196.296 273.224C196.397 273.965 196.488 274.706 196.59 275.447C196.742 276.665 196.894 277.873 197.087 279.091C197.283 280.043 197.195 281.031 196.834 281.933C196.473 282.835 195.855 283.612 195.057 284.166C193.758 285.181 192.418 286.298 190.835 287.729C189.729 288.744 189.597 289.393 190.246 290.672C191.261 292.702 192.631 295.29 194.134 297.889C195.23 299.777 195.778 299.99 197.991 299.381L198.173 299.32L199.777 298.802C201.056 298.396 202.325 297.99 203.593 297.564C204.07 297.396 204.57 297.307 205.075 297.3ZM231.293 291.87C226.505 291.853 221.897 290.046 218.374 286.804C214.851 283.562 212.667 279.121 212.251 274.351C212.035 271.837 212.324 269.305 213.101 266.905C213.879 264.504 215.129 262.284 216.778 260.374C219.194 257.442 222.433 255.299 226.077 254.223C229.721 253.147 233.604 253.186 237.226 254.336C240.847 255.486 244.042 257.693 246.398 260.674C248.754 263.655 250.164 267.273 250.446 271.062C250.722 273.479 250.51 275.926 249.824 278.258C249.137 280.591 247.988 282.762 246.447 284.643C244.811 286.715 242.763 288.426 240.432 289.666C238.102 290.906 235.539 291.65 232.907 291.85C232.372 291.856 231.834 291.86 231.293 291.86V291.87ZM231.161 254.457C230.633 254.457 230.146 254.457 229.567 254.518C224.855 255.043 220.531 257.38 217.509 261.034C215.962 262.843 214.79 264.94 214.059 267.205C213.329 269.47 213.056 271.858 213.256 274.229C213.583 277.854 214.987 281.298 217.289 284.117C219.591 286.936 222.684 289.001 226.17 290.046C229.656 291.091 233.375 291.068 236.848 289.981C240.321 288.893 243.388 286.79 245.655 283.943C247.111 282.169 248.196 280.122 248.846 277.922C249.496 275.722 249.699 273.413 249.441 271.133C249.078 266.552 246.988 262.28 243.594 259.182C240.2 256.084 235.756 254.391 231.161 254.447V254.457Z" fill="#484646"/>
<path d="M201.879 139.02C202.286 138.564 202.246 137.865 201.79 137.458C201.334 137.051 200.635 137.091 200.228 137.547L193.951 144.584C193.545 145.04 193.585 145.74 194.041 146.146C194.497 146.553 195.196 146.513 195.603 146.057L201.879 139.02Z" fill="#484646"/>
<path d="M194.783 146.938C194.387 146.938 194.005 146.793 193.707 146.532C193.55 146.39 193.422 146.219 193.331 146.027C193.24 145.835 193.189 145.627 193.18 145.416C193.163 145.205 193.191 144.994 193.261 144.794C193.331 144.595 193.441 144.413 193.586 144.258L199.858 137.214C200.145 136.901 200.544 136.712 200.968 136.691C201.393 136.67 201.809 136.817 202.126 137.1C202.443 137.383 202.635 137.78 202.661 138.205C202.687 138.629 202.544 139.046 202.264 139.366L195.991 146.4C195.852 146.561 195.68 146.692 195.488 146.784C195.296 146.877 195.088 146.929 194.875 146.938H194.783ZM201.066 137.691C200.981 137.69 200.897 137.708 200.82 137.743C200.743 137.778 200.675 137.83 200.62 137.894L194.337 144.928C194.236 145.051 194.182 145.206 194.184 145.365C194.189 145.443 194.21 145.519 194.244 145.589C194.279 145.658 194.328 145.72 194.387 145.771C194.508 145.876 194.664 145.931 194.824 145.923C194.979 145.912 195.123 145.843 195.23 145.73L201.553 138.686C201.653 138.567 201.704 138.415 201.695 138.26C201.693 138.181 201.675 138.103 201.642 138.032C201.609 137.96 201.561 137.896 201.503 137.844C201.383 137.738 201.226 137.683 201.066 137.691Z" fill="#484646"/>
<path d="M201.797 137.976C201.673 137.973 201.554 137.926 201.462 137.844C201.414 137.796 201.377 137.74 201.351 137.679C201.325 137.617 201.312 137.55 201.312 137.483C201.312 137.416 201.325 137.35 201.351 137.288C201.377 137.226 201.414 137.17 201.462 137.123L207.552 130.343C207.595 130.289 207.649 130.244 207.71 130.212C207.771 130.18 207.839 130.16 207.908 130.155C207.977 130.149 208.046 130.158 208.111 130.18C208.177 130.202 208.237 130.238 208.288 130.284C208.34 130.331 208.381 130.387 208.41 130.45C208.438 130.513 208.454 130.581 208.455 130.65C208.456 130.72 208.444 130.788 208.418 130.852C208.391 130.916 208.352 130.974 208.303 131.023L202.213 137.803C202.162 137.862 202.097 137.908 202.025 137.938C201.953 137.968 201.875 137.981 201.797 137.976Z" fill="#484646"/>
<path d="M208.039 131.713L206.892 131.743L206.801 130.607L208.973 128.455L209.45 128.881L209.927 129.307L208.039 131.713Z" fill="#484646"/>
<path d="M188.358 144.39L192.581 142.959C192.581 142.959 196.113 138.361 197.392 138.402C198.671 138.442 196.214 141.873 196.377 141.975C196.539 142.076 202.081 139.315 202.375 140.696C202.67 142.076 201.097 144.756 200.112 145.416C199.127 146.075 188.328 150.491 188.328 150.491L188.358 144.39Z" fill="white"/>
<path d="M188.358 151.029C188.256 151.029 188.156 150.997 188.074 150.937C188.005 150.892 187.949 150.83 187.91 150.757C187.871 150.685 187.85 150.603 187.851 150.521V144.431C187.85 144.325 187.883 144.222 187.945 144.136C188.007 144.05 188.095 143.986 188.196 143.954L192.256 142.563C193.21 141.325 195.981 137.935 197.331 137.935C197.48 137.931 197.628 137.968 197.758 138.041C197.889 138.115 197.997 138.222 198.072 138.351C198.407 138.94 198.001 139.864 197.331 141.102C199.472 140.239 201.391 139.529 202.335 139.996C202.459 140.058 202.567 140.149 202.651 140.259C202.736 140.37 202.794 140.499 202.822 140.635C203.177 142.3 201.411 145.131 200.355 145.862C199.3 146.593 189.576 150.572 188.47 151.029C188.433 151.033 188.395 151.033 188.358 151.029ZM188.866 144.756V149.76C193.169 147.994 199.198 145.446 199.848 144.999C200.721 144.39 202.142 141.954 201.878 140.797C201.563 140.635 200.112 141.051 197.595 142.076C196.58 142.503 196.407 142.553 196.153 142.432C196.032 142.36 195.938 142.249 195.889 142.117C195.798 141.833 195.889 141.62 196.316 140.899C196.684 140.276 196.987 139.616 197.219 138.93C196.509 139.173 194.651 141.051 192.956 143.264C192.894 143.344 192.809 143.404 192.712 143.436L188.866 144.756Z" fill="#484646"/>
<path d="M121.947 223.357C121.947 223.601 121.368 229.447 121.947 229.447C122.525 229.447 127.621 230.462 127.621 230.462V223.357H121.947Z" fill="white"/>
<path d="M127.621 230.97H127.529C125.073 230.503 122.292 229.955 121.947 229.955C121.781 229.943 121.623 229.875 121.5 229.762C121.216 229.447 121.003 228.747 121.409 223.763C121.409 223.53 121.409 223.368 121.409 223.317C121.414 223.185 121.47 223.06 121.564 222.967C121.658 222.875 121.784 222.822 121.916 222.819H127.59C127.725 222.819 127.854 222.873 127.949 222.968C128.044 223.063 128.098 223.192 128.098 223.327V230.432C128.097 230.507 128.08 230.581 128.048 230.649C128.017 230.717 127.971 230.778 127.915 230.828C127.834 230.905 127.731 230.955 127.621 230.97ZM122.251 229.001C123.216 229.123 125.814 229.6 127.113 229.853V223.865H122.383C122.177 225.569 122.133 227.289 122.251 229.001Z" fill="#484646"/>
<path d="M118.09 154.764C118.009 155.352 120.313 210.741 121.622 224.687C121.622 224.687 127.063 225.996 127.712 225.996C128.362 225.996 137.152 166.517 137.152 166.517L118.09 154.764Z" fill="#484646"/>
<path d="M127.722 226.504C127.042 226.504 122.424 225.408 121.5 225.184C121.397 225.159 121.305 225.103 121.236 225.023C121.167 224.943 121.124 224.843 121.115 224.738C119.866 211.411 117.471 155.505 117.593 154.703C117.604 154.62 117.637 154.541 117.686 154.474C117.736 154.407 117.801 154.353 117.877 154.317C117.952 154.277 118.035 154.256 118.12 154.256C118.205 154.256 118.289 154.277 118.364 154.317L137.415 166.061C137.5 166.114 137.568 166.189 137.611 166.279C137.654 166.369 137.671 166.469 137.659 166.568C137.659 166.72 135.436 181.61 133.183 196.318C128.565 226.504 128.352 226.504 127.722 226.504ZM122.089 224.281C124.241 224.788 126.514 225.296 127.387 225.448C128.331 221.784 133.325 188.959 136.603 166.761L118.618 155.677C118.821 162.894 120.901 211.177 122.089 224.281Z" fill="#484646"/>
<path d="M137.141 196.064C137.141 196.064 133.142 200.804 132.645 202.682L138.451 203.413C138.451 203.413 143.759 197.455 144.003 197.373C144.246 197.292 137.141 196.064 137.141 196.064Z" fill="white"/>
<path d="M138.451 203.92H138.39L132.584 203.179C132.513 203.173 132.444 203.15 132.382 203.113C132.321 203.076 132.268 203.026 132.229 202.966C132.188 202.906 132.16 202.838 132.148 202.766C132.136 202.694 132.139 202.62 132.158 202.55C132.675 200.581 136.593 195.932 136.756 195.729C136.814 195.662 136.888 195.611 136.972 195.58C137.055 195.55 137.145 195.542 137.233 195.557C144.48 196.815 144.48 196.815 144.52 197.323C144.524 197.416 144.504 197.509 144.461 197.593C144.418 197.677 144.355 197.748 144.277 197.8C143.861 198.155 140.724 201.626 138.826 203.758C138.778 203.809 138.72 203.85 138.655 203.878C138.591 203.906 138.521 203.92 138.451 203.92ZM133.376 202.256L138.268 202.875C140.958 199.83 142.328 198.378 143.028 197.637C141.739 197.384 139.192 196.927 137.365 196.622C135.851 198.367 134.508 200.254 133.355 202.256H133.376Z" fill="#484646"/>
<path d="M120.526 144.715C120.526 144.715 115.735 158.448 118.79 163.889C121.845 169.329 152.833 175.439 152.833 175.439L135.325 196.754L141.415 198.937C141.415 198.937 168.586 191.74 170.85 181.935C173.113 172.13 145.475 154.723 145.475 154.723" fill="#484646"/>
<path d="M141.333 199.485H141.161L135.071 197.302C134.995 197.276 134.927 197.232 134.873 197.173C134.818 197.115 134.778 197.044 134.756 196.967C134.732 196.89 134.728 196.807 134.744 196.727C134.76 196.648 134.795 196.573 134.848 196.511L151.818 175.774C146.743 174.759 121.196 169.278 118.323 164.142C115.197 158.56 119.826 145.121 120.029 144.553C120.075 144.426 120.168 144.322 120.289 144.264C120.411 144.205 120.55 144.196 120.678 144.238C120.742 144.26 120.8 144.294 120.85 144.338C120.9 144.383 120.94 144.437 120.969 144.498C120.997 144.559 121.013 144.625 121.016 144.691C121.018 144.758 121.007 144.825 120.983 144.888C120.983 145.02 116.304 158.458 119.206 163.645C121.612 167.949 144.318 173.257 152.854 174.942C152.94 174.96 153.02 174.999 153.088 175.055C153.155 175.112 153.207 175.185 153.239 175.267C153.268 175.35 153.275 175.44 153.259 175.527C153.243 175.614 153.204 175.696 153.148 175.764L136.126 196.561L141.354 198.449C143.536 197.85 168.19 190.888 170.281 181.864C172.443 172.516 145.373 155.363 145.099 155.19C144.985 155.119 144.903 155.005 144.873 154.873C144.842 154.742 144.865 154.604 144.937 154.49C145.008 154.375 145.122 154.294 145.253 154.263C145.385 154.233 145.523 154.256 145.637 154.327C146.784 155.048 173.59 172.049 171.276 182.098C168.962 192.146 142.592 199.17 141.465 199.464L141.333 199.485Z" fill="#484646"/>
<path d="M152.184 110.439C150.069 109.887 148.145 108.767 146.622 107.201C145.916 106.515 145.438 105.629 145.251 104.663C145.172 104.181 145.251 103.687 145.476 103.253C145.701 102.819 146.06 102.47 146.5 102.258C146.044 101.959 145.666 101.555 145.399 101.08C145.133 100.605 144.984 100.072 144.967 99.5273C144.932 98.4651 145.185 97.4131 145.698 96.4823C145.949 95.8382 146.361 95.2689 146.894 94.8284C147.426 94.3879 148.063 94.0907 148.743 93.9651C148.225 92.9501 147.728 91.6509 148.154 90.5649C148.431 90.032 148.832 89.5728 149.321 89.2251C150.231 88.4801 151.21 87.8241 152.245 87.2661C152.494 87.0733 152.791 86.9524 153.104 86.9167C153.418 86.8809 153.735 86.9315 154.021 87.0631C154.305 85.964 154.891 84.9662 155.713 84.1824C156.534 83.3986 157.558 82.8601 158.67 82.6276C159.774 82.3723 160.931 82.4937 161.958 82.9727C162.927 83.6483 163.834 84.4092 164.668 85.2463C165.593 84.987 166.567 84.9502 167.509 85.1389C168.451 85.3277 169.335 85.7366 170.088 86.3323C170.612 86.8687 170.983 87.5359 171.162 88.2643C171.34 88.9926 171.32 89.7556 171.103 90.4735C172.294 91.1008 173.333 91.9807 174.148 93.0516C174.547 93.587 174.822 94.2047 174.952 94.8597C175.082 95.5147 175.064 96.1904 174.899 96.8376C174.708 97.4764 174.313 98.0349 173.774 98.4273C173.235 98.8197 172.582 99.0243 171.915 99.0097C172.458 99.5668 172.78 100.302 172.821 101.079C172.862 101.856 172.62 102.621 172.139 103.232C171.626 103.818 170.951 104.238 170.199 104.439C169.447 104.639 168.652 104.612 167.916 104.359C167.716 104.268 167.497 104.226 167.277 104.237C167.02 104.318 166.789 104.465 166.607 104.663C165.927 105.191 165.084 105.039 164.364 105.384C163.384 105.985 162.454 106.664 161.583 107.414C160.681 108.056 159.746 108.648 158.781 109.19C157.766 109.932 156.678 110.569 155.533 111.088C154.518 111.423 153.889 110.977 152.894 110.682L152.184 110.439Z" fill="white"/>
<path d="M154.863 111.707C154.374 111.686 153.893 111.576 153.442 111.383C153.233 111.301 153.019 111.23 152.803 111.169L152.042 110.936C149.845 110.354 147.849 109.186 146.266 107.556C145.466 106.797 144.923 105.807 144.713 104.724C144.651 104.266 144.699 103.8 144.852 103.364C145.006 102.928 145.261 102.535 145.596 102.217C144.904 101.518 144.489 100.591 144.429 99.6086C144.376 98.4336 144.65 97.2669 145.221 96.2388C145.484 95.6308 145.866 95.082 146.346 94.6251C146.825 94.1683 147.392 93.8126 148.012 93.5795C147.751 93.0949 147.594 92.5613 147.55 92.0126C147.506 91.4639 147.577 90.9122 147.758 90.3924C148.059 89.7826 148.505 89.2562 149.058 88.8597C150.005 88.0874 151.025 87.4076 152.103 86.8297C152.602 86.514 153.188 86.3648 153.777 86.4034C154.159 85.3331 154.809 84.3788 155.666 83.6323C156.523 82.8857 157.557 82.372 158.67 82.1404C159.88 81.8632 161.148 81.9989 162.273 82.5261C163.213 83.1742 164.099 83.8972 164.922 84.6881C165.893 84.461 166.904 84.4581 167.876 84.6797C168.849 84.9013 169.758 85.3415 170.535 85.967C171.081 86.5186 171.484 87.1954 171.709 87.9384C171.933 88.6815 171.973 89.4682 171.824 90.23C172.938 90.8637 173.906 91.7248 174.666 92.7573C175.109 93.3572 175.413 94.0485 175.555 94.7807C175.697 95.5129 175.675 96.2676 175.488 96.9899C175.305 97.5722 174.981 98.0998 174.543 98.5251C174.105 98.9504 173.568 99.26 172.981 99.4259C173.328 100.073 173.48 100.806 173.419 101.537C173.358 102.269 173.086 102.967 172.636 103.547C172.062 104.218 171.298 104.701 170.445 104.931C169.592 105.161 168.689 105.128 167.855 104.836C167.73 104.781 167.596 104.747 167.459 104.734C167.35 104.788 167.251 104.861 167.165 104.947L167.023 105.059C166.574 105.372 166.054 105.567 165.511 105.628C165.229 105.664 164.952 105.735 164.689 105.841C164.041 106.199 163.435 106.628 162.882 107.12C162.577 107.373 162.273 107.617 161.978 107.83C161.065 108.481 160.117 109.081 159.136 109.627C158.781 109.83 158.436 110.063 158.121 110.307C157.421 110.84 156.644 111.264 155.817 111.565C155.511 111.671 155.187 111.719 154.863 111.707ZM152.336 109.972L153.087 110.185L153.787 110.428C154.295 110.688 154.883 110.746 155.432 110.591C156.158 110.309 156.842 109.926 157.462 109.454C157.827 109.2 158.193 108.957 158.568 108.744C159.421 108.246 160.415 107.658 161.329 106.998C161.603 106.795 161.887 106.561 162.181 106.328C162.802 105.782 163.483 105.309 164.211 104.917C164.562 104.769 164.931 104.667 165.308 104.613C165.669 104.577 166.017 104.455 166.323 104.257L166.434 104.156C166.656 103.941 166.934 103.793 167.236 103.729C167.513 103.698 167.793 103.74 168.048 103.851C168.692 104.084 169.391 104.118 170.055 103.95C170.719 103.782 171.317 103.418 171.773 102.907C172.176 102.397 172.381 101.758 172.349 101.109C172.317 100.46 172.051 99.8436 171.601 99.3751C171.521 99.3039 171.466 99.2094 171.444 99.1051C171.421 99.0008 171.432 98.8921 171.475 98.7943C171.517 98.6965 171.59 98.6147 171.682 98.5604C171.773 98.5062 171.88 98.4822 171.986 98.4921C172.538 98.4988 173.077 98.3249 173.52 97.9968C173.964 97.6688 174.288 97.2046 174.443 96.6752C174.585 96.1015 174.598 95.5031 174.481 94.9237C174.363 94.3443 174.118 93.7984 173.763 93.3257C173.001 92.3181 172.027 91.4899 170.91 90.8999C170.811 90.8427 170.733 90.7534 170.691 90.6464C170.648 90.5394 170.643 90.4212 170.677 90.3112C170.862 89.6783 170.874 89.0072 170.712 88.3681C170.549 87.7289 170.218 87.1451 169.753 86.6775C169.064 86.1526 168.263 85.7942 167.413 85.6304C166.562 85.4667 165.686 85.502 164.851 85.7335C164.735 85.7679 164.61 85.7603 164.499 85.712C164.387 85.6638 164.296 85.578 164.242 85.4696C163.459 84.7431 162.631 84.0652 161.765 83.4396C160.844 83.0042 159.802 82.8968 158.812 83.1351C157.793 83.3464 156.854 83.8387 156.1 84.5562C155.347 85.2738 154.809 86.1879 154.549 87.1951C154.528 87.2763 154.489 87.3516 154.435 87.4151C154.38 87.4785 154.311 87.5283 154.234 87.5605C154.156 87.5915 154.071 87.6022 153.988 87.5916C153.904 87.5809 153.825 87.5493 153.757 87.4996C153.463 87.2865 152.925 87.4996 152.519 87.7331C151.512 88.2765 150.557 88.9119 149.667 89.6311C149.244 89.9302 148.897 90.3227 148.652 90.7781C148.266 91.6713 148.753 92.8081 149.23 93.7622C149.27 93.8371 149.291 93.9208 149.291 94.0058C149.291 94.0907 149.27 94.1744 149.23 94.2494C149.177 94.3183 149.107 94.3729 149.027 94.4084C148.948 94.4438 148.86 94.4589 148.773 94.4524C147.352 94.5336 146.439 96.0459 146.114 96.6955C145.632 97.5561 145.394 98.5315 145.424 99.5172C145.442 99.9777 145.572 100.427 145.801 100.826C146.031 101.226 146.354 101.564 146.743 101.811C146.825 101.862 146.891 101.934 146.934 102.02C146.977 102.106 146.996 102.202 146.987 102.298C146.979 102.393 146.944 102.483 146.887 102.559C146.829 102.635 146.751 102.692 146.662 102.725C146.326 102.897 146.054 103.172 145.886 103.51C145.718 103.848 145.663 104.231 145.728 104.602C145.902 105.462 146.334 106.248 146.967 106.856C148.435 108.347 150.274 109.419 152.295 109.962L152.336 109.972Z" fill="#484646"/>
<path d="M167.277 105.049C167.277 105.049 168.88 110.286 168.018 111.017C167.155 111.748 165.338 110.571 165.338 110.571" fill="white"/>
<path d="M167.287 111.768C166.488 111.704 165.719 111.435 165.054 110.987C164.992 110.953 164.937 110.907 164.894 110.852C164.85 110.796 164.819 110.732 164.802 110.663C164.784 110.595 164.782 110.524 164.794 110.454C164.806 110.384 164.832 110.318 164.871 110.259C164.91 110.2 164.961 110.15 165.02 110.112C165.08 110.074 165.146 110.049 165.216 110.038C165.286 110.027 165.357 110.031 165.425 110.049C165.494 110.068 165.557 110.1 165.612 110.144C166.221 110.54 167.297 110.966 167.642 110.631C167.987 110.297 167.51 107.708 166.739 105.201C166.719 105.138 166.711 105.071 166.717 105.005C166.723 104.939 166.742 104.875 166.774 104.816C166.805 104.757 166.847 104.705 166.899 104.664C166.951 104.622 167.01 104.59 167.074 104.572C167.137 104.55 167.204 104.542 167.271 104.547C167.337 104.552 167.402 104.571 167.461 104.603C167.52 104.634 167.572 104.677 167.614 104.73C167.656 104.782 167.686 104.842 167.703 104.907C168.343 106.937 169.276 110.581 168.292 111.413C168.006 111.641 167.652 111.766 167.287 111.768Z" fill="#484646"/>
<path d="M169.155 95.2035C169.388 95.4378 169.532 95.7468 169.561 96.0764C169.728 97.2328 169.677 98.4104 169.408 99.5477C168.969 101.805 168.386 104.033 167.663 106.216C166.79 109.119 165.846 112.012 164.831 114.874C164.191 116.691 159.4 115.321 158.741 114.529L157.35 122.04C157.35 122.04 154.874 121.989 151.534 119.076C148.195 116.163 148.489 115.24 148.489 115.24L151.27 106.906C151.27 106.906 154.427 107.861 157.36 104.643C157.827 104.135 158.223 103.232 158.781 102.836C159.34 102.44 160.263 102.451 160.872 101.73C161.151 101.396 161.347 101.002 161.446 100.579C161.544 100.156 161.543 99.7161 161.441 99.2939C161.441 99.1112 161.349 98.8879 161.441 98.756C161.535 98.6951 161.643 98.6601 161.755 98.6545C162.062 98.5928 162.353 98.471 162.613 98.2959C162.872 98.1208 163.094 97.896 163.266 97.6345C163.438 97.3729 163.556 97.0799 163.614 96.7724C163.672 96.4649 163.668 96.1489 163.603 95.8429C164.81 96.1982 165.967 95.2238 166.861 94.3306C166.576 94.6148 168.718 94.97 168.749 94.9802C168.898 95.0257 169.036 95.1017 169.155 95.2035Z" fill="white"/>
<path d="M157.33 122.548C157.218 122.548 154.62 122.466 151.24 119.452C148.022 116.64 147.89 115.483 147.982 115.108L150.783 106.744C150.829 106.622 150.919 106.52 151.035 106.46C151.151 106.4 151.286 106.386 151.412 106.419C151.524 106.419 154.315 107.221 157.015 104.298C157.199 104.085 157.366 103.858 157.513 103.618C157.774 103.16 158.118 102.754 158.528 102.42C158.839 102.212 159.182 102.055 159.543 101.953C159.928 101.876 160.282 101.685 160.558 101.405C160.789 101.127 160.952 100.799 161.033 100.446C161.115 100.093 161.112 99.7264 161.024 99.3752C160.961 99.2051 160.945 99.0212 160.977 98.8427C161.009 98.6642 161.089 98.4976 161.207 98.3602C161.363 98.2232 161.559 98.1412 161.765 98.1267C162.009 98.0847 162.241 97.9915 162.445 97.8532C162.65 97.715 162.823 97.5349 162.953 97.3249C163.091 97.1258 163.186 96.9006 163.233 96.6631C163.281 96.4257 163.278 96.1811 163.227 95.9445C163.202 95.8574 163.2 95.7651 163.224 95.6774C163.247 95.5897 163.294 95.5101 163.359 95.4471C163.425 95.3863 163.505 95.3432 163.592 95.3219C163.679 95.3006 163.77 95.3017 163.856 95.3253C164.81 95.6095 165.825 94.7366 166.607 93.9449C166.654 93.8974 166.71 93.8596 166.772 93.8338C166.834 93.8081 166.9 93.7948 166.967 93.7948C167.034 93.7948 167.101 93.8081 167.162 93.8338C167.224 93.8596 167.28 93.8974 167.328 93.9449C167.368 93.9907 167.402 94.042 167.429 94.0972C167.896 94.2525 168.374 94.3679 168.86 94.4423H169.043C169.238 94.5123 169.42 94.6153 169.581 94.7468C169.895 95.0591 170.098 95.4654 170.159 95.9039C170.338 97.1236 170.29 98.3658 170.017 99.568C169.622 101.629 169.096 103.663 168.444 105.658L168.251 106.287C167.378 109.2 166.424 112.113 165.409 114.966C165.282 115.287 165.067 115.567 164.789 115.773C164.511 115.98 164.181 116.104 163.836 116.133C162.236 116.289 160.624 116.001 159.177 115.301L157.929 122.06C157.925 122.133 157.907 122.204 157.874 122.27C157.841 122.335 157.795 122.392 157.738 122.438C157.682 122.484 157.616 122.518 157.546 122.536C157.475 122.555 157.402 122.559 157.33 122.548ZM148.926 115.311C148.926 115.504 149.311 116.468 151.849 118.691C153.264 120.051 155.016 121.01 156.924 121.472L158.233 114.428C158.248 114.333 158.291 114.245 158.356 114.175C158.421 114.104 158.505 114.055 158.599 114.032C158.691 114.007 158.789 114.009 158.881 114.038C158.973 114.067 159.054 114.121 159.116 114.194C160.447 115 162.003 115.356 163.552 115.209C163.998 115.128 164.272 114.955 164.364 114.702C165.379 111.87 166.313 108.957 167.185 106.064L167.378 105.435C168.016 103.479 168.531 101.486 168.921 99.4665C169.171 98.3886 169.222 97.2743 169.073 96.1779C168.992 95.8125 168.941 95.6704 168.84 95.5892C168.771 95.5308 168.692 95.486 168.606 95.4573C168.026 95.367 167.456 95.2244 166.901 95.031C166.201 95.8296 165.234 96.3457 164.181 96.4824C164.162 97.0109 163.996 97.5237 163.704 97.9643C163.502 98.2808 163.237 98.5528 162.927 98.764C162.616 98.9751 162.266 99.1209 161.897 99.1925C162.015 99.6928 162.015 100.214 161.897 100.714C161.779 101.214 161.546 101.68 161.217 102.075C160.835 102.497 160.338 102.797 159.786 102.938C159.519 103.008 159.265 103.121 159.035 103.273C158.736 103.535 158.486 103.848 158.294 104.196C158.113 104.483 157.91 104.755 157.685 105.008C156.95 105.906 156.002 106.605 154.928 107.043C153.854 107.48 152.687 107.643 151.534 107.515L148.926 115.311Z" fill="#484646"/>
<path d="M165.399 112.722C164.552 112.645 163.76 112.268 163.164 111.66C162.569 111.052 162.21 110.252 162.151 109.403" fill="white"/>
<path d="M165.399 113.189C164.43 113.114 163.52 112.694 162.835 112.005C162.149 111.315 161.734 110.403 161.664 109.434C161.644 109.299 161.678 109.162 161.759 109.053C161.84 108.943 161.961 108.87 162.095 108.85C162.23 108.83 162.367 108.864 162.476 108.945C162.586 109.026 162.659 109.147 162.679 109.282C162.713 110.017 163.012 110.716 163.522 111.248C164.031 111.78 164.716 112.109 165.45 112.174C165.584 112.174 165.714 112.228 165.809 112.323C165.904 112.418 165.957 112.547 165.957 112.682C165.957 112.816 165.904 112.945 165.809 113.041C165.714 113.136 165.584 113.189 165.45 113.189H165.399Z" fill="#484646"/>
<path d="M161.136 105.282C161.269 104.528 161.192 103.752 160.913 103.039C160.768 102.469 160.543 101.922 160.243 101.415C160.088 101.163 159.879 100.948 159.632 100.785C159.385 100.622 159.105 100.515 158.812 100.471C158.551 100.461 158.292 100.507 158.05 100.605C157.809 100.703 157.591 100.851 157.411 101.04C157.046 101.419 156.775 101.877 156.619 102.38C156.254 103.463 156.181 104.624 156.407 105.745C156.634 106.865 157.151 107.907 157.908 108.764L157.797 108.551" fill="white"/>
<path d="M157.908 109.271C157.836 109.273 157.765 109.259 157.698 109.231C157.632 109.203 157.572 109.161 157.523 109.109C156.718 108.175 156.171 107.047 155.934 105.837C155.697 104.627 155.779 103.376 156.173 102.207C156.354 101.637 156.663 101.117 157.076 100.684C157.308 100.442 157.589 100.252 157.901 100.128C158.213 100.004 158.548 99.9476 158.883 99.9638C159.253 100.011 159.609 100.14 159.923 100.342C160.238 100.544 160.503 100.813 160.7 101.131C161.026 101.682 161.272 102.277 161.43 102.897C161.741 103.698 161.822 104.57 161.664 105.414C161.626 105.544 161.539 105.654 161.421 105.72C161.304 105.786 161.165 105.804 161.035 105.77C160.906 105.734 160.796 105.649 160.73 105.533C160.663 105.417 160.645 105.28 160.679 105.15C160.788 104.489 160.711 103.811 160.456 103.191C160.331 102.663 160.126 102.156 159.847 101.689C159.739 101.505 159.593 101.346 159.417 101.223C159.242 101.1 159.042 101.017 158.832 100.979C158.642 100.971 158.453 101.005 158.277 101.079C158.102 101.153 157.945 101.264 157.817 101.405C157.488 101.732 157.241 102.132 157.096 102.572C156.789 103.497 156.707 104.482 156.859 105.444C157.011 106.407 157.392 107.319 157.969 108.104C158.078 108.15 158.168 108.232 158.223 108.338L158.335 108.561C158.386 108.672 158.397 108.798 158.365 108.917C158.334 109.035 158.262 109.139 158.162 109.21C158.083 109.249 157.996 109.27 157.908 109.271Z" fill="#484646"/>
<path d="M158.721 114.529C157.429 113.653 156.418 112.423 155.808 110.987C155.808 110.987 154.671 115.473 158.101 117.869L158.721 114.529Z" fill="#484646"/>
<path d="M158.101 118.376C157.996 118.377 157.893 118.345 157.807 118.285C154.143 115.717 155.269 111.058 155.32 110.865C155.347 110.757 155.408 110.661 155.494 110.592C155.58 110.522 155.686 110.483 155.797 110.479C155.908 110.475 156.017 110.507 156.107 110.571C156.197 110.636 156.263 110.728 156.295 110.834C156.869 112.159 157.809 113.293 159.005 114.103C159.087 114.159 159.151 114.237 159.189 114.33C159.227 114.422 159.237 114.523 159.218 114.62L158.599 117.96C158.583 118.043 158.547 118.121 158.494 118.186C158.441 118.252 158.372 118.303 158.294 118.335C158.233 118.362 158.168 118.376 158.101 118.376ZM156.132 112.722C156.099 113.501 156.225 114.279 156.505 115.007C156.784 115.735 157.21 116.398 157.756 116.955L158.162 114.773C157.388 114.193 156.704 113.502 156.132 112.722Z" fill="#484646"/>
<path d="M166.263 102.129C166.453 101.56 166.426 101.039 166.203 100.964C165.98 100.889 165.645 101.29 165.454 101.859C165.264 102.428 165.291 102.949 165.514 103.024C165.738 103.099 166.073 102.698 166.263 102.129Z" fill="#484646"/>
<path d="M161.887 122.04C161.41 120.599 152.123 109.464 145.373 112.164C138.623 114.864 124.413 135.347 120.526 144.715L146.023 156.895C146.023 156.895 164.526 129.977 161.887 122.04Z" fill="#FF931E"/>
<path d="M150.803 137.082C150.803 137.082 153.118 149.719 161.877 153.424C170.636 157.129 189.81 151.901 189.81 151.901V142.289C189.81 142.289 177.823 147.05 171.946 142.289C166.069 137.529 161.877 122.04 161.877 122.04L150.803 137.082Z" fill="#FF931E"/>
<path d="M132.645 202.682C132.645 202.682 129.6 208.234 130.442 208.772C131.285 209.31 144.297 208.884 144.013 208.122C143.729 207.361 138.451 203.403 138.451 203.403L132.645 202.682Z" fill="#484646"/>
<path d="M134.157 209.553C132.821 209.649 131.478 209.532 130.179 209.208C129.854 209.015 128.9 208.417 132.209 202.438C132.258 202.349 132.332 202.277 132.423 202.23C132.513 202.183 132.615 202.164 132.716 202.174L138.512 202.915C138.599 202.924 138.683 202.955 138.755 203.007C140.379 204.225 144.196 207.138 144.49 207.95C144.533 208.07 144.537 208.201 144.5 208.323C144.464 208.445 144.389 208.553 144.287 208.63C143.637 209.147 138.126 209.553 134.157 209.553ZM130.788 208.376C132.117 208.751 141.039 208.376 143.242 207.96C141.652 206.521 139.988 205.166 138.258 203.9L132.929 203.23C131.803 205.311 130.737 207.726 130.788 208.376Z" fill="#484646"/>
<path d="M121.947 229.447C121.947 229.447 121.115 235.334 121.693 235.659C122.272 235.984 136.329 235.74 135.67 234.644C135.01 233.548 127.621 230.473 127.621 230.473L121.947 229.447Z" fill="#484646"/>
<path d="M125.093 236.319C123.872 236.372 122.649 236.311 121.439 236.136C121.155 235.974 120.556 235.639 121.439 229.407C121.463 229.274 121.536 229.155 121.642 229.072C121.754 228.992 121.893 228.96 122.028 228.98L127.712 229.995C127.745 229.986 127.78 229.986 127.814 229.995C129.59 230.716 135.426 233.172 136.116 234.38C136.19 234.508 136.218 234.657 136.196 234.803C136.174 234.948 136.103 235.082 135.994 235.182C135.172 236.014 129.133 236.319 125.093 236.319ZM122.048 235.273C123.388 235.466 132.889 235.273 134.959 234.604C132.581 233.168 130.081 231.946 127.489 230.95L122.414 230.077C122.117 231.792 121.991 233.533 122.038 235.273H122.048Z" fill="#484646"/>
<path d="M136.4 171.948H136.279C135.7 171.745 122.221 166.984 118.557 164.213C118.477 164.153 118.425 164.063 118.412 163.964C118.399 163.865 118.425 163.765 118.486 163.686C118.546 163.606 118.636 163.554 118.735 163.541C118.834 163.527 118.934 163.554 119.014 163.615C122.586 166.304 136.39 171.176 136.532 171.227C136.627 171.261 136.705 171.332 136.749 171.423C136.792 171.514 136.799 171.619 136.766 171.714C136.734 171.784 136.683 171.844 136.618 171.885C136.553 171.927 136.477 171.949 136.4 171.948Z" fill="white"/>
<path d="M171.692 155.505C170.007 155.505 168.17 155.434 166.181 155.261C153.574 154.185 148.114 134.748 147.911 133.946C147.876 133.814 147.896 133.674 147.964 133.556C148.032 133.439 148.145 133.352 148.276 133.317C148.405 133.283 148.543 133.301 148.659 133.367C148.774 133.434 148.859 133.543 148.895 133.672C148.895 133.865 154.396 153.251 166.302 154.276C178.401 155.291 185.049 152.551 185.11 152.521C185.236 152.47 185.376 152.47 185.501 152.521C185.626 152.572 185.727 152.67 185.78 152.795C185.831 152.917 185.832 153.055 185.783 153.178C185.734 153.302 185.638 153.401 185.516 153.454C185.252 153.536 180.533 155.505 171.692 155.505Z" fill="#484646"/>
<path d="M169.327 139.874C169.251 139.873 169.176 139.855 169.108 139.821C169.039 139.788 168.979 139.74 168.931 139.681C167.652 138.057 162.293 127.501 161.583 123.695C161.335 121.867 160.402 120.202 158.974 119.036C158.914 119.002 158.862 118.956 158.82 118.901C158.779 118.846 158.749 118.783 158.733 118.716C158.716 118.649 158.714 118.579 158.725 118.511C158.736 118.443 158.761 118.378 158.799 118.32C158.836 118.263 158.885 118.213 158.942 118.174C158.999 118.136 159.063 118.109 159.131 118.096C159.199 118.083 159.268 118.085 159.335 118.099C159.403 118.114 159.466 118.143 159.522 118.183C161.195 119.493 162.288 121.406 162.567 123.512C163.257 127.156 168.566 137.59 169.672 139.052C169.715 139.103 169.746 139.163 169.765 139.227C169.784 139.291 169.79 139.358 169.782 139.424C169.775 139.49 169.754 139.554 169.721 139.612C169.688 139.671 169.644 139.721 169.591 139.762C169.515 139.823 169.424 139.862 169.327 139.874Z" fill="#484646"/>
</svg>
