<svg width="150" height="150" viewBox="0 0 150 150" fill="none" xmlns="http://www.w3.org/2000/svg">
<g clip-path="url(#clip0_1149_26991)">
<path d="M95.2443 68.0992L48.2012 95.5942C48.0366 95.6902 47.8406 95.7169 47.6562 95.6686C47.4719 95.6202 47.3142 95.5007 47.2179 95.3363L16.9661 43.5765C16.8701 43.4118 16.8434 43.2158 16.8917 43.0315C16.9401 42.8471 17.0596 42.6895 17.224 42.5931L64.2671 15.0981C64.4318 15.0021 64.6277 14.9754 64.8121 15.0237C64.9964 15.0721 65.1541 15.1916 65.2504 15.356L95.5022 67.1158C95.5982 67.2805 95.625 67.4765 95.5766 67.6608C95.5283 67.8452 95.4088 68.0028 95.2443 68.0992Z" fill="white"/>
<path d="M95.2443 68.0992L48.2012 95.5942C48.0366 95.6902 47.8406 95.7169 47.6562 95.6686C47.4719 95.6202 47.3142 95.5007 47.2179 95.3363L16.9661 43.5765C16.8701 43.4118 16.8434 43.2158 16.8917 43.0315C16.9401 42.8471 17.0596 42.6895 17.224 42.5931L64.2671 15.0981C64.4318 15.0021 64.6277 14.9754 64.8121 15.0237C64.9964 15.0721 65.1541 15.1916 65.2504 15.356L95.5022 67.1158C95.5982 67.2805 95.625 67.4765 95.5766 67.6608C95.5283 67.8452 95.4088 68.0028 95.2443 68.0992ZM17.3691 42.8414C17.2704 42.8992 17.1987 42.9938 17.1697 43.1044C17.1407 43.215 17.1568 43.3326 17.2143 43.4314L47.4661 95.1912C47.5239 95.2899 47.6185 95.3616 47.7291 95.3906C47.8397 95.4196 47.9573 95.4035 48.0561 95.3459L95.0993 67.8509C95.1979 67.7931 95.2696 67.6985 95.2986 67.5879C95.3276 67.4773 95.3116 67.3597 95.254 67.2609L65.0022 15.5011C64.9444 15.4024 64.8498 15.3307 64.7392 15.3017C64.6286 15.2727 64.511 15.2888 64.4122 15.3464L17.3691 42.8414Z" fill="#3F3D56"/>
<path d="M47.6088 47.9959L35.9411 54.8152C35.7765 54.9112 35.5805 54.9379 35.3962 54.8896C35.2118 54.8413 35.0542 54.7218 34.9578 54.5573L28.1385 42.8896C28.0425 42.725 28.0157 42.529 28.0641 42.3446C28.1124 42.1603 28.2319 42.0026 28.3963 41.9063L40.064 35.0869C40.2287 34.991 40.4247 34.9642 40.609 35.0126C40.7934 35.0609 40.951 35.1804 41.0474 35.3448L47.8667 47.0125C47.9627 47.1772 47.9895 47.3732 47.9411 47.5575C47.8928 47.7419 47.7733 47.8995 47.6088 47.9959ZM28.5414 42.1545C28.4428 42.2123 28.3711 42.3069 28.3421 42.4175C28.3131 42.5282 28.3291 42.6458 28.3867 42.7445L35.2061 54.4122C35.2639 54.5109 35.3585 54.5826 35.4691 54.6116C35.5797 54.6406 35.6973 54.6246 35.7961 54.567L47.4637 47.7476C47.5624 47.6898 47.6341 47.5952 47.6631 47.4846C47.6921 47.374 47.6761 47.2564 47.6185 47.1576L40.7991 35.4899C40.7413 35.3913 40.6467 35.3196 40.5361 35.2906C40.4255 35.2615 40.3079 35.2776 40.2091 35.3352L28.5414 42.1545Z" fill="#F2F2F2"/>
<path d="M45.0915 51.3821L33.4238 58.2014C33.2757 58.2878 33.0993 58.3119 32.9333 58.2684C32.7674 58.2249 32.6256 58.1173 32.5388 57.9693L25.7195 46.3017C25.6331 46.1535 25.609 45.9771 25.6525 45.8112C25.696 45.6452 25.8036 45.5034 25.9516 45.4166L37.6193 38.5973C37.7675 38.5109 37.9439 38.4868 38.1098 38.5303C38.2757 38.5739 38.4176 38.6814 38.5043 38.8294L45.3236 50.4971C45.41 50.6453 45.4341 50.8217 45.3906 50.9876C45.3471 51.1535 45.2395 51.2954 45.0915 51.3821Z" fill="#03DAC5"/>
<path d="M73.2536 42.5825L36.761 63.9111C36.6129 63.9977 36.4364 64.0219 36.2704 63.9784C36.1045 63.9348 35.9626 63.8272 35.876 63.679C35.7894 63.5309 35.7652 63.3544 35.8088 63.1884C35.8523 63.0225 35.96 62.8806 36.1081 62.794L72.6006 41.4654C72.674 41.4226 72.7551 41.3945 72.8393 41.383C72.9234 41.3715 73.009 41.3766 73.0912 41.3982C73.1734 41.4197 73.2505 41.4573 73.3182 41.5086C73.3859 41.56 73.4428 41.6242 73.4857 41.6975C73.5285 41.7709 73.5565 41.852 73.5681 41.9361C73.5796 42.0203 73.5745 42.1059 73.5529 42.1881C73.5314 42.2703 73.4938 42.3474 73.4425 42.4151C73.3911 42.4828 73.3269 42.5397 73.2536 42.5825Z" fill="#CCCCCC"/>
<path d="M66.6898 51.5812L39.01 67.759C38.9367 67.8019 38.8556 67.8299 38.7714 67.8414C38.6873 67.853 38.6017 67.8478 38.5195 67.8262C38.3535 67.7827 38.2116 67.675 38.125 67.5269C38.0384 67.3788 38.0143 67.2023 38.0578 67.0363C38.1013 66.8704 38.209 66.7285 38.3571 66.6419L66.0368 50.4641C66.1102 50.4212 66.1913 50.3932 66.2754 50.3817C66.3596 50.3701 66.4452 50.3753 66.5274 50.3968C66.6096 50.4184 66.6867 50.4559 66.7544 50.5073C66.8221 50.5586 66.879 50.6228 66.9219 50.6962C66.9647 50.7695 66.9927 50.8506 67.0043 50.9348C67.0158 51.019 67.0107 51.1046 66.9891 51.1868C66.9676 51.2689 66.93 51.3461 66.8787 51.4137C66.8273 51.4814 66.7631 51.5383 66.6898 51.5812V51.5812Z" fill="#CCCCCC"/>
<path d="M64.8591 28.5049L48.7229 37.9359C48.5748 38.0225 48.3983 38.0467 48.2324 38.0032C48.0664 37.9596 47.9245 37.852 47.8379 37.7038C47.7513 37.5557 47.7271 37.3792 47.7707 37.2132C47.8142 37.0473 47.9219 36.9054 48.07 36.8188L64.2062 27.3878C64.3543 27.3012 64.5308 27.277 64.6968 27.3205C64.7789 27.3421 64.8561 27.3796 64.9237 27.431C64.9914 27.4823 65.0483 27.5465 65.0912 27.6199C65.1341 27.6932 65.1621 27.7743 65.1736 27.8585C65.1851 27.9427 65.18 28.0283 65.1584 28.1105C65.1369 28.1926 65.0994 28.2698 65.048 28.3375C64.9966 28.4051 64.9324 28.462 64.8591 28.5049Z" fill="#CCCCCC"/>
<path d="M63.0811 34.7064L50.972 41.7838C50.8986 41.8267 50.8175 41.8547 50.7334 41.8662C50.6492 41.8777 50.5636 41.8726 50.4814 41.851C50.3992 41.8295 50.3221 41.792 50.2544 41.7406C50.1867 41.6892 50.1298 41.625 50.0869 41.5517C50.0441 41.4783 50.0161 41.3973 50.0045 41.3131C49.993 41.2289 49.9981 41.1433 50.0197 41.0611C50.0413 40.9789 50.0788 40.9018 50.1301 40.8341C50.1815 40.7664 50.2457 40.7095 50.319 40.6667L62.4282 33.5893C62.5763 33.5027 62.7528 33.4786 62.9187 33.5221C63.0847 33.5656 63.2266 33.6733 63.3132 33.8214C63.3998 33.9696 63.424 34.146 63.3804 34.312C63.3369 34.478 63.2292 34.6199 63.0811 34.7064Z" fill="#CCCCCC"/>
<path d="M77.7516 50.2782L41.2591 71.6068C41.1109 71.6934 40.9345 71.7176 40.7685 71.6741C40.6025 71.6305 40.4606 71.5228 40.3741 71.3747C40.2875 71.2266 40.2633 71.0501 40.3068 70.8841C40.3503 70.7182 40.458 70.5763 40.6062 70.4897L77.0987 49.1611C77.2468 49.0745 77.4233 49.0503 77.5893 49.0939C77.7552 49.1374 77.8971 49.2451 77.9837 49.3932C78.0703 49.5413 78.0945 49.7178 78.051 49.8838C78.0074 50.0498 77.8998 50.1916 77.7516 50.2782V50.2782Z" fill="#CCCCCC"/>
<path d="M71.1878 59.2769L43.5081 75.4547C43.4347 75.4976 43.3537 75.5256 43.2695 75.5371C43.1853 75.5486 43.0997 75.5435 43.0175 75.5219C42.9353 75.5004 42.8582 75.4628 42.7905 75.4115C42.7228 75.3601 42.6659 75.2959 42.6231 75.2226C42.5802 75.1492 42.5522 75.0682 42.5407 74.984C42.5291 74.8998 42.5343 74.8142 42.5558 74.732C42.5774 74.6498 42.6149 74.5727 42.6663 74.505C42.7176 74.4373 42.7818 74.3804 42.8552 74.3376L70.5349 58.1598C70.6082 58.1169 70.6893 58.0889 70.7735 58.0773C70.8577 58.0658 70.9433 58.071 71.0255 58.0925C71.1077 58.1141 71.1848 58.1516 71.2525 58.203C71.3201 58.2543 71.377 58.3185 71.4199 58.3919C71.4628 58.4652 71.4908 58.5463 71.5023 58.6305C71.5139 58.7146 71.5087 58.8003 71.4872 58.8824C71.4656 58.9646 71.4281 59.0417 71.3767 59.1094C71.3254 59.1771 71.2612 59.234 71.1878 59.2769V59.2769Z" fill="#CCCCCC"/>
<path d="M82.2492 57.974L45.7566 79.3026C45.6833 79.3454 45.6022 79.3734 45.518 79.385C45.4339 79.3965 45.3482 79.3913 45.266 79.3698C45.1839 79.3482 45.1067 79.3107 45.0391 79.2593C44.9714 79.208 44.9145 79.1438 44.8716 79.0704C44.8287 78.9971 44.8007 78.916 44.7892 78.8318C44.7777 78.7477 44.7828 78.6621 44.8044 78.5799C44.8259 78.4977 44.8634 78.4206 44.9148 78.3529C44.9662 78.2852 45.0304 78.2283 45.1037 78.1854L81.5963 56.8568C81.6696 56.814 81.7507 56.786 81.8349 56.7744C81.919 56.7629 82.0047 56.768 82.0868 56.7896C82.169 56.8111 82.2461 56.8487 82.3138 56.9C82.3815 56.9514 82.4384 57.0156 82.4813 57.0889C82.5241 57.1623 82.5521 57.2434 82.5637 57.3275C82.5752 57.4117 82.5701 57.4973 82.5485 57.5795C82.527 57.6617 82.4894 57.7388 82.4381 57.8065C82.3867 57.8742 82.3225 57.9311 82.2492 57.974Z" fill="#CCCCCC"/>
<path d="M84.4982 61.8218L48.0056 83.1504C47.9323 83.1933 47.8512 83.2213 47.767 83.2328C47.6829 83.2443 47.5972 83.2392 47.5151 83.2176C47.4329 83.1961 47.3558 83.1586 47.2881 83.1072C47.2204 83.0558 47.1635 82.9916 47.1206 82.9183C47.0778 82.8449 47.0498 82.7639 47.0382 82.6797C47.0267 82.5955 47.0318 82.5099 47.0534 82.4277C47.0749 82.3455 47.1125 82.2684 47.1638 82.2007C47.2152 82.133 47.2794 82.0761 47.3527 82.0333L83.8453 60.7047C83.9186 60.6618 83.9997 60.6338 84.0839 60.6223C84.1681 60.6107 84.2537 60.6159 84.3359 60.6374C84.418 60.659 84.4952 60.6965 84.5628 60.7479C84.6305 60.7992 84.6874 60.8634 84.7303 60.9368C84.7732 61.0101 84.8012 61.0912 84.8127 61.1754C84.8242 61.2596 84.8191 61.3452 84.7975 61.4274C84.776 61.5095 84.7385 61.5867 84.6871 61.6544C84.6357 61.722 84.5715 61.7789 84.4982 61.8218Z" fill="#CCCCCC"/>
<path d="M72.6974 76.801C73.2044 76.204 73.6607 75.5657 74.0617 74.8928C74.4213 74.2858 74.7741 73.6368 74.8534 72.9249C74.8939 72.6218 74.8623 72.3134 74.7612 72.0247C74.6601 71.7361 74.4922 71.4754 74.2714 71.2638C74.0579 71.067 73.7873 70.9433 73.4988 70.9105C73.2103 70.8777 72.9189 70.9375 72.6667 71.0814C72.4115 71.2279 72.2006 71.4407 72.0564 71.6972C71.9123 71.9537 71.8401 72.2445 71.8477 72.5387C71.8684 72.8625 71.962 73.1776 72.1215 73.4603C72.2809 73.743 72.5021 73.986 72.7686 74.1712C73.8473 74.9527 75.5318 74.9119 76.6815 74.3172C77.9764 73.6473 78.6454 71.8948 77.6281 70.6952C77.4165 70.4456 77.0644 70.7245 77.1174 70.9936C77.1846 71.3572 77.3881 71.6814 77.6863 71.9C77.9845 72.1186 78.355 72.215 78.7219 72.1697C79.0888 72.1243 79.4246 71.9406 79.6607 71.656C79.8967 71.3714 80.0152 71.0074 79.9918 70.6384L79.5345 70.9057C80.0952 71.1541 80.7114 71.2504 81.3212 71.185C81.9309 71.1195 82.5127 70.8947 83.0079 70.5331C83.2529 70.3551 83.4716 70.1436 83.6579 69.9049C83.8817 69.6128 84.2578 69.4241 84.5623 69.2138L86.7566 67.6976C87.0794 67.4745 86.7725 66.9431 86.447 67.1679L84.4597 68.5411C84.1286 68.7699 83.7952 68.9959 83.4661 69.2277C83.2308 69.3933 83.086 69.6607 82.8719 69.8575C82.4666 70.2221 81.9659 70.464 81.4283 70.5549C80.8907 70.6458 80.3384 70.5821 79.8356 70.3711C79.7888 70.3459 79.7363 70.3332 79.6831 70.3341C79.6299 70.3351 79.5779 70.3497 79.532 70.3765C79.4861 70.4033 79.4478 70.4415 79.4209 70.4873C79.394 70.5332 79.3793 70.5852 79.3783 70.6384C79.4025 70.8586 79.3387 71.0794 79.2009 71.2528C79.0631 71.4262 78.8623 71.5381 78.6423 71.5642C78.4223 71.5902 78.201 71.5283 78.0264 71.3919C77.8519 71.2555 77.7383 71.0557 77.7104 70.8359L77.1997 71.1344C77.856 71.9083 77.4189 73.0953 76.6629 73.6146C75.8173 74.1953 74.5679 74.2962 73.6148 73.9352C73.381 73.8547 73.1663 73.7269 72.9841 73.5598C72.8019 73.3926 72.6562 73.1897 72.5559 72.9636C72.463 72.7595 72.4365 72.5313 72.4801 72.3112C72.5238 72.0912 72.6353 71.8904 72.7991 71.7371C72.9411 71.5969 73.1319 71.5173 73.3314 71.5152C73.5309 71.513 73.7234 71.5885 73.8683 71.7257C74.0261 71.8868 74.1419 72.0842 74.2055 72.3006C74.269 72.517 74.2784 72.7457 74.2328 72.9666C74.1345 73.5812 73.7947 74.148 73.4786 74.6729C73.1177 75.2711 72.7096 75.8395 72.2581 76.3726C72.005 76.6721 72.4416 77.1037 72.6974 76.801L72.6974 76.801Z" fill="#03DAC5"/>
<path d="M78.1437 91.3874C78.1966 91.4417 78.2451 91.5002 78.2888 91.5622L85.0842 91.3959L85.8769 89.9473L88.2195 90.858L87.0653 93.5589C86.9721 93.7771 86.8106 93.9591 86.6051 94.0777C86.3996 94.1963 86.1611 94.245 85.9255 94.2166L78.248 93.2891C78.0669 93.5184 77.8203 93.6871 77.5409 93.7728C77.2616 93.8585 76.9628 93.8571 76.6843 93.7688C76.4058 93.6806 76.1607 93.5096 75.9818 93.2787C75.8028 93.0478 75.6983 92.7678 75.6823 92.4761C75.6663 92.1843 75.7395 91.8946 75.8922 91.6455C76.0449 91.3964 76.2697 91.1997 76.537 91.0815C76.8042 90.9633 77.101 90.9293 77.388 90.9839C77.675 91.0385 77.9386 91.1793 78.1437 91.3874Z" fill="#FFB7B7"/>
<path d="M100.296 132.657H98.0615L96.9985 124.038L100.296 124.038L100.296 132.657Z" fill="#FFB7B7"/>
<path d="M100.866 134.822L93.6611 134.822V134.731C93.6612 133.987 93.9566 133.274 94.4825 132.748C95.0084 132.222 95.7216 131.927 96.4653 131.927H96.4655L100.866 131.927L100.866 134.822Z" fill="#2F2E41"/>
<path d="M80.0068 132.607L77.9521 131.729L80.3602 123.386L83.3927 124.682L80.0068 132.607Z" fill="#FFB7B7"/>
<path d="M79.68 134.822L73.0547 131.992L73.0905 131.908C73.3827 131.224 73.9346 130.685 74.6247 130.407C75.3149 130.13 76.0869 130.139 76.7708 130.431L76.771 130.431L80.8175 132.16L79.68 134.822Z" fill="#2F2E41"/>
<path d="M89.4356 93.2543L89.2739 95.8726L93.9969 96.378L98.9387 96.9068L97.4841 92.9311L89.4356 93.2543Z" fill="#FFB7B7"/>
<path d="M89.1248 95.9063L87.29 83.1156L90.4702 82.0733L91.4042 80.7924L95.9496 81.0613L96.6169 82.5561L99.0406 83.7014L98.6681 90.6187L98.9398 96.4053L89.1248 95.9063Z" fill="#2F2E41"/>
<path d="M87.9701 92.4786L84.7354 91.1844L84.7491 91.1269C84.763 91.0688 86.1398 85.3156 86.3226 84.3911C86.513 83.4279 87.2087 83.1616 87.2383 83.1508L87.2599 83.1428L88.54 83.5325L89.1022 87.95L87.9701 92.4786Z" fill="#2F2E41"/>
<path d="M81.6712 131.092L77.3652 130.209L84.2473 111.219L86.6027 104.741C86.6027 104.741 88.0966 99.548 88.7716 97.5382L89.1789 94.8416L98.8212 95.9088C98.8212 95.9088 101.514 99.8639 100.696 106.31L101.066 130.54L96.7603 130.761L93.1536 106.324L86.8235 119.72C86.8235 119.72 84.8284 125.437 83.4009 126.676L81.6712 131.092Z" fill="#2F2E41"/>
<path d="M94.9545 96.8081C95.0303 96.8063 95.1062 96.8105 95.1814 96.8206L99.6797 91.7245L99.1564 90.1583L101.417 89.0596L102.613 91.7424C102.709 91.9591 102.733 92.2013 102.68 92.4326C102.628 92.664 102.501 92.872 102.32 93.0254L96.42 98.0247C96.4649 98.3134 96.421 98.6089 96.2939 98.872C96.1668 99.1351 95.9627 99.3533 95.7086 99.4975C95.4545 99.6417 95.1625 99.7052 94.8715 99.6794C94.5804 99.6537 94.3041 99.5399 94.0793 99.3533C93.8545 99.1667 93.6919 98.916 93.613 98.6347C93.5341 98.3534 93.5428 98.0547 93.6378 97.7784C93.7328 97.5021 93.9096 97.2613 94.1449 97.088C94.3801 96.9147 94.6625 96.817 94.9545 96.8081Z" fill="#FFB7B7"/>
<path d="M99.3208 92.2205L97.4443 87.8066L98.1762 84.7321L98.9648 83.7358C99.0225 83.7111 99.0848 83.6987 99.1476 83.6992C99.2104 83.6998 99.2724 83.7134 99.3297 83.7392C99.6205 83.8563 99.8682 84.215 100.066 84.8055L101.824 89.8146L99.3208 92.2205Z" fill="#2F2E41"/>
<path d="M89.585 79.1568V75.8291C89.585 74.6465 90.0548 73.5123 90.891 72.6761C91.7272 71.8398 92.8614 71.3701 94.044 71.3701C95.2266 71.3701 96.3608 71.8398 97.1971 72.6761C98.0333 73.5123 98.5031 74.6465 98.5031 75.8291V79.1568C98.5029 79.3156 98.4398 79.4678 98.3275 79.5801C98.2152 79.6924 98.0629 79.7556 97.9041 79.7558H90.1839C90.0251 79.7556 89.8729 79.6924 89.7606 79.5801C89.6483 79.4678 89.5851 79.3156 89.585 79.1568Z" fill="#2F2E41"/>
<path d="M93.1276 79.6783C94.9332 79.6783 96.3969 78.2146 96.3969 76.4091C96.3969 74.6035 94.9332 73.1398 93.1276 73.1398C91.3221 73.1398 89.8584 74.6035 89.8584 76.4091C89.8584 78.2146 91.3221 79.6783 93.1276 79.6783Z" fill="#FFB7B7"/>
<path d="M88.5303 76.0954C88.5313 75.1602 88.9033 74.2636 89.5646 73.6023C90.2258 72.9411 91.1224 72.5691 92.0576 72.5681H92.7232C93.6583 72.5691 94.5549 72.9411 95.2162 73.6023C95.8774 74.2636 96.2494 75.1602 96.2504 76.0954V76.1619H94.844L94.3642 74.8186L94.2683 76.1619H93.5414L93.2994 75.4842L93.251 76.1619H88.5303L88.5303 76.0954Z" fill="#2F2E41"/>
<path d="M92.8058 80.13C92.7398 80.0406 92.7004 79.9343 92.6921 79.8235C92.6838 79.7126 92.707 79.6017 92.7589 79.5035C93.4642 78.162 94.4517 75.6833 93.141 74.1546L93.0468 74.0448H96.8519V79.7577L93.3952 80.3676C93.3602 80.3738 93.3248 80.3769 93.2892 80.377C93.1949 80.377 93.1018 80.3546 93.0178 80.3116C92.9338 80.2687 92.8611 80.2065 92.8058 80.13Z" fill="#2F2E41"/>
<path d="M48.418 130.774L50.4372 131.496L54.1817 124.05L51.2014 122.985L48.418 130.774Z" fill="#9F616A"/>
<path d="M47.2031 132.547L48.1383 129.931L52.115 131.352C52.7867 131.593 53.3353 132.09 53.6406 132.735C53.946 133.38 53.983 134.12 53.7437 134.792L53.7142 134.874L47.2031 132.547Z" fill="#2F2E41"/>
<path d="M61.5487 132.771L63.693 132.771L64.7133 124.5L61.5483 124.5L61.5487 132.771Z" fill="#9F616A"/>
<path d="M61.002 132.071L65.225 132.071H65.2251C65.5786 132.071 65.9285 132.141 66.2551 132.276C66.5816 132.411 66.8783 132.609 67.1282 132.859C67.3781 133.109 67.5763 133.406 67.7116 133.732C67.8468 134.059 67.9164 134.409 67.9165 134.762V134.85L61.0021 134.85L61.002 132.071Z" fill="#2F2E41"/>
<path d="M56.6616 79.929L57.5942 78.0862C57.5942 78.0862 61.0684 78.9566 61.3842 80.9702L56.6616 79.929Z" fill="#F1F1F1"/>
<path d="M52.8137 101L55.3498 115.152L48.6157 127.061L52.6387 128.636L59.4603 117.091L60.3349 113.943L60.8595 130.385L64.4878 130.274L66.1512 114.922L63.4832 100.65L52.8137 101Z" fill="#2F2E41"/>
<path d="M57.6281 104.345C53.9023 104.345 51.5367 103.633 51.4837 103.621L51.3979 103.603L53.3386 94.6055L53.426 86.3061C53.426 82.7891 55.7407 80.1962 56.0619 79.9569C56.116 79.7434 56.216 79.5443 56.355 79.3735C56.494 79.2026 56.6686 79.0642 56.8667 78.9679C57.6388 78.6175 58.5823 79.0379 58.622 79.056L61.4539 80.1178L61.4673 80.1571C61.5014 80.2577 65.2314 92.503 65.2314 92.503C65.2314 92.503 65.0057 103.202 64.927 103.553C64.927 103.553 59.6982 104.345 57.6281 104.345Z" fill="#3F3D56"/>
<path d="M60.4906 77.506C62.6046 77.506 64.3182 75.7923 64.3182 73.6784C64.3182 71.5645 62.6046 69.8508 60.4906 69.8508C58.3767 69.8508 56.6631 71.5645 56.6631 73.6784C56.6631 75.7923 58.3767 77.506 60.4906 77.506Z" fill="#9F616A"/>
<path opacity="0.2" d="M56.2231 86.9849L62.9195 96.3278L63.9083 91.9647L56.2231 86.9849Z" fill="black"/>
<path d="M77.2172 93.3419C77.0289 93.4909 76.8102 93.5968 76.5765 93.6521C76.3428 93.7074 76.0999 93.7108 75.8647 93.662C75.6296 93.6133 75.408 93.5136 75.2156 93.37C75.0232 93.2263 74.8646 93.0422 74.751 92.8307L68.9873 93.7532L70.236 90.9889L75.5178 90.5366C75.8859 90.3694 76.3026 90.3429 76.6888 90.4623C77.0751 90.5817 77.4041 90.8387 77.6136 91.1845C77.823 91.5303 77.8984 91.9409 77.8253 92.3385C77.7523 92.7361 77.5359 93.0932 77.2172 93.3419H77.2172Z" fill="#9F616A"/>
<path d="M70.5332 90.8315L72.6042 90.6284L73.1781 93.5174L70.5721 93.5634L70.5332 90.8315Z" fill="#F1F1F1"/>
<path d="M72.2307 94.524L62.088 93.6209L56.9666 85.476L56.9508 85.404C56.8055 84.7387 56.9073 84.0431 57.2372 83.4473C57.5671 82.8515 58.1025 82.3961 58.7436 82.1662C59.3846 81.9363 60.0875 81.9475 60.7208 82.1979C61.3542 82.4482 61.8748 82.9204 62.1855 83.5265L65.1919 89.3907L71.2594 90.3079L72.2307 94.524Z" fill="#3F3D56"/>
<path d="M57.2306 77.0016L60.4075 77.1156C60.6011 77.1226 61.1267 75.0327 61.1955 74.5991C61.2498 74.3169 61.4051 74.0641 61.6322 73.8879C61.8594 73.7118 62.1429 73.6243 62.4298 73.6419C62.6676 73.6644 63.2673 73.2201 63.8861 72.694C65.0609 71.6952 64.9998 69.8194 63.7092 68.9754C63.674 68.9523 63.6393 68.9313 63.6054 68.9122C62.7912 68.4565 61.8389 68.3035 60.906 68.2918C60.0602 68.2813 59.1906 68.3877 58.4455 68.788C57.1098 69.5056 56.3989 71.0739 56.3365 72.5889C56.274 74.1039 56.7597 75.5853 57.3109 76.9978" fill="#2F2E41"/>
<path d="M136.869 135H13.1664C13.1222 135 13.0799 134.982 13.0487 134.951C13.0175 134.92 13 134.878 13 134.834C13 134.79 13.0175 134.747 13.0487 134.716C13.0799 134.685 13.1222 134.667 13.1664 134.667H136.935C136.98 134.667 137.022 134.685 137.053 134.716C137.084 134.747 137.102 134.79 137.102 134.834C137.102 134.926 136.961 135 136.869 135Z" fill="#CBCBCB"/>
</g>
<defs>
<clipPath id="clip0_1149_26991">
<rect width="124.102" height="120" fill="white" transform="translate(13 15)"/>
</clipPath>
</defs>
</svg>
