<svg width="400" height="400" viewBox="0 0 400 400" fill="none" xmlns="http://www.w3.org/2000/svg">
<path d="M139.461 196.815C138.655 196.814 137.867 196.574 137.198 196.124C80.9567 158.265 70.0556 121.867 69.5786 120.334C69.3231 119.312 69.4752 118.23 70.0027 117.318C70.5302 116.405 71.3919 115.734 72.4055 115.445C73.4191 115.157 74.5052 115.273 75.4342 115.771C76.3633 116.268 77.0625 117.108 77.384 118.111C77.4855 118.446 88.1633 153.352 141.694 189.385C142.417 189.87 142.965 190.576 143.256 191.396C143.547 192.217 143.567 193.11 143.312 193.943C143.057 194.775 142.541 195.504 141.841 196.021C141.14 196.538 140.292 196.816 139.421 196.815H139.461Z" fill="#484646"/>
<path d="M281.145 192.064C260.165 192.064 227.665 165.431 223.524 161.949C223.052 161.63 222.653 161.216 222.352 160.732C222.051 160.249 221.855 159.707 221.777 159.143C221.699 158.579 221.74 158.005 221.899 157.458C222.057 156.911 222.329 156.404 222.696 155.968C223.063 155.533 223.518 155.18 224.03 154.932C224.543 154.684 225.102 154.547 225.671 154.529C226.24 154.511 226.806 154.613 227.334 154.828C227.861 155.043 228.337 155.367 228.731 155.778C236.358 162.011 244.383 167.741 252.756 172.932C268.305 182.422 280.374 186.127 285.855 182.98C297.984 176.109 297.304 148.155 296.005 137.965C295.938 137.436 295.976 136.899 296.117 136.384C296.258 135.87 296.499 135.388 296.826 134.967C297.153 134.546 297.56 134.193 298.023 133.929C298.487 133.665 298.998 133.494 299.527 133.428C300.056 133.361 300.593 133.399 301.108 133.54C301.622 133.681 302.104 133.922 302.525 134.249C302.946 134.576 303.299 134.983 303.563 135.446C303.827 135.91 303.997 136.421 304.064 136.95C304.853 144.164 304.972 151.435 304.419 158.671C303.1 174.759 298.197 185.315 289.844 190.044C287.17 191.465 284.171 192.161 281.145 192.064Z" fill="#484646"/>
<path d="M119.466 278.958C118.389 278.968 117.353 278.549 116.585 277.794C115.817 277.04 115.38 276.011 115.37 274.934C115.361 273.857 115.78 272.821 116.534 272.053C117.289 271.285 118.318 270.848 119.395 270.838C131.747 270.605 141.268 266.921 147.703 259.856C158.452 248.062 157.285 230.685 157.275 230.513C157.235 229.979 157.3 229.444 157.467 228.936C157.634 228.428 157.9 227.958 158.248 227.552C158.597 227.147 159.022 226.815 159.5 226.574C159.977 226.333 160.497 226.188 161.03 226.148C161.563 226.108 162.099 226.173 162.607 226.341C163.115 226.508 163.585 226.773 163.99 227.122C164.395 227.471 164.728 227.896 164.969 228.373C165.21 228.85 165.355 229.37 165.395 229.904C165.456 230.756 166.805 250.965 153.722 265.327C145.734 274.097 134.234 278.684 119.557 278.958H119.466Z" fill="#484646"/>
<path d="M272.426 270.534C271.505 270.534 270.611 270.22 269.892 269.644C269.173 269.069 268.671 268.266 268.468 267.367C261.738 237.607 220.144 236.643 219.748 236.633C219.215 236.625 218.688 236.512 218.199 236.301C217.709 236.089 217.266 235.783 216.895 235.401C216.145 234.628 215.733 233.589 215.749 232.512C215.765 231.435 216.208 230.409 216.981 229.659C217.754 228.909 218.793 228.497 219.87 228.513C228.322 228.865 236.677 230.459 244.666 233.243C262.043 239.384 273.015 250.569 276.405 265.581C276.642 266.628 276.455 267.726 275.884 268.635C275.313 269.544 274.406 270.191 273.36 270.432C273.054 270.504 272.741 270.538 272.426 270.534Z" fill="#484646"/>
<path d="M197.357 328.683C224.281 328.683 246.107 325.225 246.107 320.959C246.107 316.693 224.281 313.235 197.357 313.235C170.433 313.235 148.607 316.693 148.607 320.959C148.607 325.225 170.433 328.683 197.357 328.683Z" fill="#F2F1F1"/>
<path d="M192.637 251.219C229.326 251.219 259.069 221.476 259.069 184.787C259.069 148.098 229.326 118.355 192.637 118.355C155.948 118.355 126.205 148.098 126.205 184.787C126.205 221.476 155.948 251.219 192.637 251.219Z" fill="#FF931E"/>
<path d="M192.637 118.355C205.777 118.353 218.622 122.247 229.548 129.546C240.474 136.844 248.99 147.219 254.019 159.357C259.049 171.496 260.366 184.854 257.804 197.741C255.242 210.628 248.916 222.466 239.625 231.758C230.335 241.049 218.498 247.377 205.611 249.941C192.725 252.505 179.367 251.19 167.227 246.163C155.088 241.135 144.712 232.62 137.412 221.695C130.112 210.771 126.216 197.926 126.216 184.787C126.216 167.17 133.213 150.274 145.669 137.816C158.126 125.358 175.02 118.358 192.637 118.355ZM192.637 117.34C179.292 117.34 166.246 121.298 155.149 128.712C144.052 136.127 135.404 146.665 130.296 158.995C125.189 171.325 123.853 184.892 126.457 197.981C129.06 211.071 135.487 223.094 144.924 232.531C154.361 241.968 166.384 248.394 179.473 250.998C192.562 253.602 206.13 252.265 218.46 247.158C230.79 242.051 241.328 233.402 248.743 222.306C256.157 211.209 260.114 198.163 260.114 184.817C260.101 166.923 252.989 149.764 240.338 137.108C227.687 124.451 210.532 117.331 192.637 117.31V117.34Z" fill="#484646"/>
<path d="M176.052 169.339C175.648 169.339 175.261 169.178 174.976 168.893C174.69 168.607 174.53 168.22 174.53 167.816C174.53 161.198 172.266 156.813 170.774 156.813C169.282 156.813 167.019 161.198 167.019 167.816C167.019 168.22 166.858 168.607 166.573 168.893C166.287 169.178 165.9 169.339 165.496 169.339C165.092 169.339 164.705 169.178 164.42 168.893C164.134 168.607 163.974 168.22 163.974 167.816C163.974 161.005 166.359 153.768 170.774 153.768C175.189 153.768 177.575 161.005 177.575 167.816C177.575 168.22 177.414 168.607 177.129 168.893C176.843 169.178 176.456 169.339 176.052 169.339Z" fill="#484646"/>
<path d="M219.799 169.339C219.395 169.339 219.008 169.178 218.722 168.893C218.437 168.607 218.276 168.22 218.276 167.816C218.276 161.198 216.013 156.813 214.521 156.813C213.029 156.813 210.765 161.198 210.765 167.816C210.765 168.22 210.605 168.607 210.319 168.893C210.034 169.178 209.646 169.339 209.243 169.339C208.839 169.339 208.452 169.178 208.166 168.893C207.881 168.607 207.72 168.22 207.72 167.816C207.72 161.005 210.105 153.768 214.521 153.768C218.936 153.768 221.321 161.005 221.321 167.816C221.321 168.22 221.161 168.607 220.875 168.893C220.59 169.178 220.202 169.339 219.799 169.339Z" fill="#484646"/>
<path d="M229.644 198.702C229.644 214.191 213.079 226.737 192.637 226.737C172.195 226.737 155.63 214.191 155.63 198.702H229.644Z" fill="#484646"/>
<path d="M289.011 152.215C284.495 149.485 281.703 139.335 282.455 133.763C283.206 128.19 285.946 128.982 288.961 128.454C288.646 126.171 288.402 123.603 289.844 121.806C290.637 120.895 291.645 120.197 292.777 119.776C299.06 117.104 306.132 116.958 312.519 119.37C313.741 119.767 314.844 120.465 315.726 121.4C316.449 122.385 316.932 123.525 317.137 124.729C319.746 136.057 314.163 143.426 312.844 154.012L300.075 153.119C297.223 152.926 291.63 153.677 289.123 152.256C289.084 152.248 289.047 152.234 289.011 152.215Z" fill="white"/>
<path d="M312.844 154.56L300.075 153.677C299.263 153.616 298.177 153.677 297.03 153.677C294.117 153.748 290.808 153.819 288.91 152.753L288.778 152.682C283.835 149.637 281.247 139.112 281.968 133.712C282.658 128.637 285.013 128.393 287.499 128.129L288.413 128.028C288.119 125.673 288.037 123.288 289.479 121.481C290.331 120.524 291.409 119.795 292.615 119.36C299.02 116.618 306.239 116.469 312.753 118.944C314.058 119.362 315.235 120.106 316.173 121.106C316.949 122.155 317.467 123.372 317.685 124.658C319.391 132.058 317.685 137.731 315.869 143.74C314.748 147.12 313.923 150.591 313.402 154.113C313.384 154.245 313.316 154.365 313.212 154.449C313.109 154.532 312.977 154.572 312.844 154.56ZM298.806 152.591C299.273 152.591 299.72 152.591 300.106 152.591L312.387 153.444C312.927 150.031 313.742 146.667 314.823 143.385C316.599 137.518 318.274 131.976 316.62 124.841C316.434 123.716 315.989 122.649 315.32 121.725C314.495 120.869 313.469 120.23 312.336 119.867C306.079 117.492 299.145 117.634 292.99 120.263C291.946 120.649 291.008 121.275 290.25 122.09C288.961 123.694 289.164 126.059 289.479 128.343C289.499 128.477 289.466 128.614 289.386 128.724C289.306 128.835 289.186 128.909 289.052 128.931C288.545 129.013 288.037 129.073 287.57 129.124C285.236 129.368 283.51 129.54 282.972 133.793C282.201 139.497 285.124 149.211 289.276 151.728L289.377 151.789C291.021 152.723 294.31 152.642 296.959 152.581L298.806 152.591Z" fill="#484646"/>
<path d="M288.139 157.012L315.23 156.199C317.466 156.132 319.225 154.264 319.158 152.027L319.142 151.49C319.075 149.253 317.207 147.494 314.971 147.561L287.88 148.374C285.644 148.441 283.885 150.309 283.952 152.545L283.968 153.083C284.035 155.32 285.903 157.079 288.139 157.012Z" fill="white"/>
<path d="M287.956 158.234C286.771 158.23 285.635 157.766 284.785 156.941C283.935 156.116 283.438 154.993 283.399 153.809V153.271C283.36 152.059 283.805 150.88 284.635 149.995C285.465 149.111 286.612 148.591 287.824 148.551L314.904 147.689C315.505 147.667 316.104 147.764 316.667 147.975C317.229 148.185 317.745 148.506 318.183 148.917C319.064 149.748 319.582 150.893 319.624 152.104V152.652C319.644 153.251 319.546 153.849 319.335 154.41C319.124 154.972 318.804 155.486 318.394 155.923C317.984 156.361 317.491 156.713 316.945 156.96C316.398 157.207 315.808 157.343 315.209 157.362L288.119 158.234H287.956ZM287.834 149.597C286.901 149.629 286.018 150.029 285.379 150.71C284.74 151.391 284.397 152.297 284.424 153.231V153.779C284.438 154.241 284.544 154.696 284.734 155.118C284.925 155.54 285.196 155.92 285.534 156.237C285.871 156.554 286.268 156.801 286.701 156.964C287.134 157.127 287.595 157.204 288.058 157.189L315.148 156.316C315.611 156.303 316.066 156.198 316.488 156.008C316.91 155.818 317.29 155.546 317.606 155.208C317.922 154.87 318.168 154.473 318.33 154.04C318.492 153.606 318.566 153.145 318.548 152.682V152.144C318.516 151.211 318.116 150.328 317.435 149.689C316.754 149.05 315.848 148.707 314.915 148.734L287.824 149.597H287.834Z" fill="#484646"/>
<path d="M147.551 186.665C152.013 186.665 155.63 184.365 155.63 181.529C155.63 178.692 152.013 176.393 147.551 176.393C143.089 176.393 139.472 178.692 139.472 181.529C139.472 184.365 143.089 186.665 147.551 186.665Z" fill="white"/>
<path d="M237.734 186.665C242.196 186.665 245.813 184.365 245.813 181.529C245.813 178.692 242.196 176.393 237.734 176.393C233.272 176.393 229.654 178.692 229.654 181.529C229.654 184.365 233.272 186.665 237.734 186.665Z" fill="white"/>
<path d="M288.961 128.454C288.961 128.454 306.429 125.988 304.663 130.799C302.897 135.61 290.382 138.178 290.382 138.178C290.382 138.178 301.547 135.133 304.165 143.527" fill="white"/>
<path d="M304.165 144.045C304.054 144.045 303.946 144.01 303.856 143.944C303.767 143.878 303.701 143.786 303.668 143.679C302.653 140.431 300.166 138.604 296.269 138.229C294.606 138.092 292.932 138.188 291.295 138.513L290.483 138.696C290.357 138.707 290.232 138.672 290.129 138.598C290.027 138.524 289.954 138.416 289.925 138.293C289.895 138.17 289.911 138.041 289.969 137.928C290.026 137.816 290.123 137.728 290.24 137.681L290.91 137.539C293.447 136.94 302.755 134.494 304.176 130.626C304.263 130.467 304.3 130.284 304.282 130.103C304.264 129.922 304.191 129.751 304.074 129.611C302.602 127.795 294.066 128.241 289.032 128.952C288.961 128.972 288.886 128.977 288.812 128.966C288.739 128.955 288.669 128.929 288.607 128.889C288.544 128.848 288.492 128.795 288.452 128.732C288.412 128.67 288.386 128.6 288.376 128.526C288.365 128.453 288.371 128.378 288.392 128.307C288.413 128.236 288.449 128.17 288.498 128.114C288.547 128.058 288.607 128.013 288.675 127.983C288.742 127.952 288.816 127.936 288.89 127.937C290.28 127.734 302.562 126.1 304.886 128.952C305.114 129.232 305.26 129.57 305.308 129.928C305.356 130.286 305.305 130.651 305.16 130.982C304.145 133.844 299.689 135.904 295.964 137.173C299.344 137.407 303.232 138.746 304.663 143.365C304.685 143.43 304.694 143.499 304.689 143.568C304.684 143.636 304.665 143.704 304.634 143.765C304.603 143.826 304.56 143.881 304.507 143.926C304.455 143.97 304.394 144.004 304.328 144.024C304.275 144.04 304.22 144.047 304.165 144.045Z" fill="#484646"/>
<path d="M96.0397 133.448C98.8715 128.992 96.8517 118.66 93.695 114.001C90.5384 109.342 88.4272 111.25 85.4938 112.133C84.8036 109.931 83.8394 107.525 81.7586 106.551C80.6426 106.115 79.4371 105.958 78.2467 106.094C71.4326 106.498 65.0371 109.516 60.3929 114.518C59.4708 115.41 58.7898 116.52 58.4136 117.746C58.2039 118.951 58.2803 120.189 58.6369 121.359C61.3368 132.656 69.5786 136.767 75.5164 145.628L86.5494 139.152C89.0159 137.701 94.3548 135.884 95.9686 133.499L96.0397 133.448Z" fill="white"/>
<path d="M75.5164 146.186C75.4299 146.187 75.3447 146.166 75.2684 146.125C75.1922 146.084 75.1274 146.025 75.0799 145.953C73.044 143.03 70.7584 140.29 68.249 137.762C63.9454 133.184 59.8955 128.87 58.099 121.522C57.7262 120.274 57.6497 118.957 57.8757 117.675C58.2705 116.342 59.0009 115.133 59.997 114.163C64.7278 109.052 71.2536 105.971 78.2061 105.566C79.4806 105.431 80.7688 105.605 81.9616 106.074C84.0627 107.089 85.0066 109.23 85.8288 111.463L86.6915 111.149C89.0463 110.276 91.259 109.443 94.1315 113.676C97.1765 118.193 99.5719 128.82 96.4863 133.692L96.4051 133.824C95.1871 135.62 92.1928 137.021 89.5437 138.269C88.5287 138.757 87.5137 139.213 86.8133 139.629L75.7803 146.115C75.7009 146.164 75.6093 146.188 75.5164 146.186ZM79.0892 106.601H78.267C71.5852 106.997 65.3152 109.961 60.7684 114.874C59.9059 115.717 59.2704 116.764 58.9211 117.919C58.7412 119.038 58.8176 120.183 59.1444 121.268C60.8496 128.373 64.8081 132.606 69.0102 137.072C71.4393 139.516 73.6661 142.154 75.6686 144.958L86.2855 138.726C87.0366 138.29 88.0415 137.813 89.1072 137.315C91.5026 136.189 94.4766 134.798 95.5423 133.255L95.6032 133.154C98.2016 129.094 96.4863 119.045 93.2586 114.285C90.8936 110.712 89.2696 111.311 87.0671 112.133C86.6103 112.306 86.1333 112.478 85.6461 112.63C85.5155 112.669 85.375 112.656 85.2539 112.594C85.1329 112.531 85.0406 112.424 84.9965 112.296C84.2657 110.103 83.3928 107.89 81.5252 107.058C80.7557 106.731 79.9252 106.571 79.0892 106.591V106.601Z" fill="#484646"/>
<path d="M95.6993 130.087L71.0698 141.369C69.0363 142.3 68.1429 144.704 69.0743 146.737L69.2984 147.226C70.2298 149.26 72.6334 150.153 74.6669 149.222L99.2964 137.94C101.33 137.009 102.223 134.605 101.292 132.572L101.068 132.083C100.136 130.049 97.7328 129.156 95.6993 130.087Z" fill="white"/>
<path d="M72.989 150.104C72.4445 150.102 71.9049 150.002 71.3955 149.81C70.8307 149.605 70.3127 149.29 69.8717 148.882C69.4307 148.474 69.0757 147.982 68.8275 147.435L68.6042 146.937C68.3504 146.39 68.2074 145.798 68.1833 145.195C68.1593 144.592 68.2547 143.99 68.4641 143.424C68.6736 142.858 68.9928 142.339 69.4036 141.897C69.8143 141.454 70.3084 141.098 70.8575 140.847L95.4916 129.591C96.0393 129.339 96.6315 129.197 97.2341 129.173C97.8368 129.15 98.4381 129.246 99.0038 129.455C99.5694 129.664 100.088 129.983 100.531 130.393C100.973 130.803 101.33 131.296 101.582 131.844L101.805 132.342C102.059 132.889 102.202 133.482 102.226 134.085C102.25 134.688 102.154 135.289 101.945 135.855C101.736 136.421 101.416 136.94 101.006 137.383C100.595 137.825 100.101 138.181 99.5516 138.432L74.8871 149.688C74.2912 149.96 73.6441 150.102 72.989 150.104ZM97.349 130.231C96.8451 130.231 96.347 130.338 95.8874 130.545L71.294 141.832C70.8734 142.025 70.4949 142.298 70.1801 142.637C69.8653 142.976 69.6203 143.373 69.4591 143.807C69.2979 144.241 69.2237 144.702 69.2407 145.164C69.2578 145.626 69.3657 146.08 69.5583 146.501L69.7816 146.998C69.9742 147.419 70.2477 147.797 70.5866 148.112C70.9255 148.427 71.3231 148.672 71.7566 148.833C72.1902 148.994 72.6513 149.069 73.1135 149.052C73.5757 149.035 74.0301 148.927 74.4506 148.734L99.0948 137.447C99.9405 137.054 100.596 136.343 100.92 135.468C101.243 134.594 101.207 133.627 100.82 132.778L100.597 132.281C100.315 131.668 99.8628 131.149 99.2942 130.785C98.7256 130.422 98.0645 130.229 97.3896 130.231H97.349Z" fill="#484646"/>
<path d="M85.4939 112.133C85.4939 112.133 68.7667 117.705 72.4816 121.268C76.1965 124.831 88.5591 121.512 88.5591 121.512C88.5591 121.512 77.2013 123.704 78.602 132.433" fill="white"/>
<path d="M78.602 132.9C78.4782 132.899 78.3586 132.856 78.264 132.776C78.1693 132.696 78.1058 132.585 78.0843 132.464C77.3129 127.683 80.1955 124.75 83.1593 123.044C79.2617 123.562 74.3796 123.684 72.1669 121.593C71.8932 121.363 71.6872 121.063 71.571 120.725C71.4547 120.387 71.4327 120.024 71.5071 119.675C72.309 116.061 84.0424 112.062 85.372 111.615C85.504 111.574 85.647 111.585 85.7704 111.648C85.8938 111.711 85.9877 111.819 86.0318 111.95C86.0541 112.015 86.0634 112.083 86.0591 112.152C86.0549 112.22 86.0371 112.287 86.0069 112.348C85.9767 112.409 85.9347 112.464 85.8832 112.509C85.8317 112.554 85.7718 112.588 85.707 112.61C80.8756 114.214 73.0398 117.614 72.512 119.898C72.4741 120.071 72.4876 120.252 72.5507 120.418C72.6137 120.583 72.7237 120.727 72.8672 120.832C75.9122 123.674 85.2807 121.705 87.808 121.106C88.214 120.994 88.4576 120.943 88.4779 120.943C88.6108 120.919 88.7481 120.946 88.8614 121.02C88.9747 121.093 89.0554 121.208 89.0869 121.339C89.1036 121.404 89.107 121.472 89.0971 121.539C89.0871 121.606 89.064 121.67 89.029 121.728C88.9941 121.785 88.948 121.835 88.8934 121.875C88.8389 121.914 88.777 121.943 88.7114 121.958L87.9095 122.161C86.3005 122.6 84.76 123.259 83.3319 124.12C80.0027 126.15 78.5918 128.931 79.1399 132.301C79.1604 132.438 79.1262 132.578 79.0445 132.69C78.9628 132.802 78.8403 132.878 78.7035 132.9H78.602Z" fill="#484646"/>
<path d="M276.974 243.89C276.974 243.89 258.49 248.224 254.248 264.88L278.608 298.446L311.646 252.345L287.286 260.678L276.974 243.89Z" fill="white"/>
<path d="M278.577 298.974C278.495 298.973 278.414 298.953 278.34 298.916C278.266 298.88 278.201 298.826 278.151 298.761L253.791 265.185C253.746 265.123 253.715 265.051 253.701 264.976C253.687 264.9 253.69 264.823 253.71 264.748C257.983 247.981 276.639 243.433 276.832 243.383C276.937 243.357 277.049 243.365 277.149 243.407C277.25 243.449 277.334 243.522 277.39 243.616L287.418 260.049L311.423 251.848C311.528 251.809 311.643 251.806 311.751 251.838C311.858 251.87 311.952 251.937 312.019 252.027C312.085 252.118 312.12 252.227 312.119 252.34C312.118 252.452 312.08 252.561 312.011 252.65L278.973 298.751C278.902 298.893 278.74 299.025 278.577 298.974ZM254.816 264.769L278.577 297.553L310.235 253.37L287.388 261.176C287.274 261.216 287.151 261.216 287.038 261.175C286.925 261.134 286.83 261.056 286.768 260.952L276.73 244.499C274.162 245.21 258.704 250.082 254.816 264.769Z" fill="#484646"/>
<path d="M279.927 299.695C270.914 292.59 280.82 281.425 290.28 268.798C297.081 259.765 309.687 248.712 315.787 253.492C322.801 258.993 290.635 308.099 279.927 299.695Z" fill="#D1D1D1"/>
<path d="M282.81 301.187C281.649 301.206 280.517 300.826 279.602 300.111C270.945 293.321 278.973 282.795 287.469 271.691L289.834 268.443C295.386 261.074 304.399 252.731 311.088 251.858C311.957 251.703 312.849 251.728 313.708 251.932C314.567 252.137 315.375 252.516 316.082 253.046C317.097 253.858 317.482 255.411 317.157 257.664C315.655 268.271 297.974 295.635 286.007 300.446C284.998 300.893 283.913 301.144 282.81 301.187ZM280.252 299.289C281.592 300.304 283.409 300.416 285.652 299.512C296.38 295.199 314.569 268.677 316.153 257.552C316.335 256.283 316.366 254.609 315.473 253.908C314.878 253.459 314.197 253.137 313.472 252.962C312.747 252.788 311.994 252.764 311.26 252.893C305.17 253.695 296.289 261.643 290.696 269.072L288.301 272.239C279.775 283.404 272.406 293.087 280.252 299.248V299.289Z" fill="#484646"/>
<path d="M126.642 285.921L122.988 260.546C112.18 263.419 101.06 264.953 89.8786 265.114C89.8786 265.114 84.0018 305.034 86.6915 305.166C89.3813 305.298 99.2775 288.175 99.2775 288.175C99.2775 288.175 107.682 291.788 126.642 285.921Z" fill="white"/>
<path d="M86.6814 305.683C86.5626 305.676 86.4467 305.643 86.3416 305.587C86.2366 305.531 86.1448 305.453 86.0724 305.359C83.9409 302.781 88.4475 271.316 89.3711 265.043C89.3861 264.919 89.4461 264.805 89.5397 264.723C89.6333 264.64 89.754 264.595 89.8786 264.596C101.021 264.429 112.101 262.909 122.876 260.069C122.949 260.046 123.026 260.039 123.101 260.05C123.177 260.061 123.249 260.088 123.313 260.13C123.377 260.17 123.431 260.223 123.471 260.286C123.512 260.349 123.537 260.421 123.546 260.496L127.2 285.871C127.216 285.995 127.188 286.12 127.121 286.226C127.055 286.331 126.953 286.41 126.835 286.449C110.067 291.656 101.46 289.494 99.5211 288.845C96.9024 293.27 89.432 305.683 86.6814 305.683ZM90.2948 265.632C87.7066 283.374 85.6258 302.781 86.793 304.638C88.417 304.354 94.1112 296.021 98.7903 287.921C98.8545 287.81 98.9568 287.726 99.0782 287.685C99.1996 287.644 99.3318 287.648 99.4501 287.698C99.5414 287.698 107.864 291.118 126.053 285.556L122.551 261.196C112.006 263.912 101.182 265.4 90.2948 265.632Z" fill="#484646"/>
<path d="M122.988 260.567C122.988 260.567 119.466 264.008 119.466 274.899C119.466 280.775 123.526 288.408 126.642 285.921C129.758 283.435 131.301 260.557 122.988 260.567Z" fill="#484646"/>
<path d="M125.404 286.936C124.984 286.929 124.571 286.829 124.196 286.642C121.516 285.353 118.969 279.649 118.969 274.898C118.969 263.916 122.501 260.343 122.653 260.191C122.755 260.096 122.889 260.045 123.029 260.049C125.414 260.049 127.271 261.744 128.408 264.951C130.753 271.61 129.525 284.297 126.997 286.327C126.554 286.712 125.99 286.928 125.404 286.936ZM123.252 261.094C122.623 261.876 120.024 265.652 120.024 274.898C120.024 279.222 122.318 284.571 124.652 285.698C124.918 285.845 125.222 285.906 125.524 285.874C125.826 285.841 126.11 285.716 126.337 285.515C128.144 284.064 129.839 272.168 127.413 265.297C126.419 262.617 125.038 261.206 123.221 261.094H123.252Z" fill="#484646"/>
<path d="M246.107 112.641C246.004 112.64 245.904 112.608 245.818 112.551C245.733 112.494 245.666 112.412 245.626 112.317C245.586 112.222 245.575 112.118 245.594 112.017C245.613 111.915 245.661 111.822 245.732 111.747L268.062 88.7475C268.11 88.6981 268.168 88.6588 268.231 88.632C268.295 88.6052 268.363 88.5914 268.432 88.5914C268.501 88.5914 268.57 88.6052 268.633 88.632C268.697 88.6588 268.755 88.6981 268.803 88.7475C268.9 88.8462 268.955 88.9793 268.955 89.118C268.955 89.2566 268.9 89.3897 268.803 89.4884L246.473 112.488C246.425 112.537 246.368 112.575 246.306 112.602C246.243 112.628 246.175 112.641 246.107 112.641Z" fill="#D1D1D1"/>
<path d="M197.925 101.141C197.791 101.138 197.662 101.084 197.566 100.99C197.469 100.895 197.413 100.768 197.408 100.633L196.251 72.5481C196.248 72.4788 196.259 72.4096 196.283 72.3445C196.307 72.2794 196.344 72.2197 196.391 72.1688C196.438 72.1179 196.495 72.0768 196.558 72.0478C196.621 72.0189 196.689 72.0026 196.758 72C196.896 71.9998 197.028 72.0523 197.128 72.1466C197.228 72.241 197.288 72.3702 197.296 72.5075L198.484 100.593C198.486 100.732 198.435 100.867 198.341 100.969C198.246 101.071 198.115 101.133 197.976 101.141H197.925Z" fill="#D1D1D1"/>
<path d="M133.321 121.644C133.249 121.645 133.177 121.631 133.111 121.603C133.044 121.575 132.984 121.534 132.935 121.481L105.225 91.3662C105.169 91.3176 105.124 91.2576 105.092 91.1902C105.061 91.1228 105.044 91.0496 105.043 90.9752C105.042 90.9008 105.056 90.827 105.085 90.7587C105.115 90.6903 105.158 90.6289 105.213 90.5786C105.268 90.5282 105.332 90.4899 105.403 90.4663C105.473 90.4427 105.548 90.4342 105.622 90.4415C105.696 90.4488 105.768 90.4716 105.832 90.5086C105.897 90.5455 105.953 90.5956 105.997 90.6557L133.706 120.771C133.804 120.87 133.858 121.003 133.858 121.141C133.858 121.28 133.804 121.413 133.706 121.512C133.654 121.559 133.593 121.595 133.527 121.617C133.461 121.64 133.391 121.649 133.321 121.644Z" fill="#D1D1D1"/>
<path d="M37.3828 209.238C37.2725 209.207 37.1755 209.14 37.1064 209.048C37.0374 208.957 37 208.845 37 208.731C37 208.616 37.0374 208.504 37.1064 208.413C37.1755 208.321 37.2725 208.255 37.3828 208.223L105.601 203.757C105.678 203.73 105.76 203.721 105.84 203.731C105.921 203.741 105.998 203.769 106.066 203.814C106.134 203.858 106.191 203.918 106.232 203.988C106.273 204.058 106.298 204.137 106.303 204.218C106.309 204.299 106.296 204.38 106.265 204.456C106.234 204.531 106.186 204.598 106.125 204.651C106.064 204.705 105.991 204.744 105.913 204.765C105.834 204.786 105.752 204.788 105.672 204.772L37.4539 209.238H37.3828Z" fill="#D1D1D1"/>
<path d="M73.5168 251.736C73.4149 251.738 73.3149 251.709 73.2298 251.652C73.1447 251.596 73.0785 251.516 73.0398 251.422C72.9853 251.294 72.9836 251.149 73.0349 251.02C73.0862 250.891 73.1864 250.787 73.3138 250.731L101.328 238.947C101.451 238.914 101.583 238.926 101.697 238.982C101.812 239.038 101.903 239.134 101.953 239.252C102.002 239.37 102.007 239.501 101.967 239.623C101.927 239.744 101.844 239.847 101.734 239.911L73.7198 251.696C73.6561 251.724 73.5867 251.738 73.5168 251.736Z" fill="#D1D1D1"/>
<path d="M292.422 205.939C292.301 205.939 292.184 205.896 292.091 205.818C291.998 205.74 291.936 205.632 291.914 205.513C291.901 205.446 291.901 205.376 291.915 205.309C291.929 205.242 291.956 205.178 291.995 205.121C292.034 205.065 292.083 205.016 292.141 204.979C292.198 204.942 292.263 204.916 292.33 204.904L361.513 191.486C361.58 191.471 361.649 191.47 361.716 191.483C361.783 191.495 361.847 191.521 361.904 191.559C361.961 191.597 362.009 191.646 362.047 191.703C362.084 191.76 362.11 191.825 362.122 191.892C362.149 192.029 362.12 192.171 362.042 192.287C361.964 192.404 361.843 192.484 361.706 192.511L292.523 205.929L292.422 205.939Z" fill="#D1D1D1"/>
<path d="M339.873 244.418H339.741L296.451 233.101C296.378 233.09 296.307 233.065 296.244 233.025C296.181 232.985 296.127 232.933 296.086 232.871C296.045 232.809 296.017 232.739 296.005 232.666C295.992 232.592 295.996 232.517 296.014 232.445C296.033 232.373 296.067 232.306 296.113 232.248C296.16 232.19 296.218 232.143 296.284 232.109C296.35 232.075 296.423 232.055 296.497 232.051C296.572 232.047 296.646 232.059 296.715 232.086L340.005 243.403C340.114 243.446 340.206 243.525 340.266 243.626C340.325 243.727 340.35 243.845 340.334 243.962C340.319 244.078 340.266 244.187 340.182 244.269C340.099 244.352 339.99 244.404 339.873 244.418Z" fill="#D1D1D1"/>
<path d="M159.751 101.141C159.643 101.141 159.537 101.107 159.449 101.043C159.361 100.979 159.297 100.889 159.264 100.785L155.143 89.2855C155.119 89.2209 155.108 89.1521 155.111 89.0832C155.114 89.0143 155.13 88.9467 155.16 88.8843C155.189 88.8219 155.23 88.766 155.282 88.7198C155.333 88.6737 155.393 88.6382 155.458 88.6156C155.588 88.5723 155.731 88.5808 155.855 88.6394C155.98 88.6979 156.077 88.802 156.128 88.9302L160.249 100.44C160.294 100.571 160.287 100.714 160.228 100.84C160.169 100.965 160.064 101.062 159.934 101.11L159.751 101.141Z" fill="#D1D1D1"/>
<path d="M87.5238 176.921C87.4569 176.935 87.3877 176.935 87.3208 176.921L66.6757 168.334C66.549 168.28 66.4483 168.179 66.3952 168.051C66.3421 167.924 66.3408 167.782 66.3915 167.654C66.4474 167.526 66.5506 167.425 66.6793 167.372C66.808 167.319 66.9522 167.318 67.0817 167.369L87.7268 175.956C87.8535 176.01 87.9542 176.111 88.0073 176.239C88.0604 176.366 88.0617 176.508 88.011 176.636C87.9641 176.724 87.8937 176.797 87.8076 176.847C87.7216 176.898 87.6234 176.923 87.5238 176.921Z" fill="#D1D1D1"/>
</svg>
