<svg width="400" height="400" viewBox="0 0 400 400" fill="none" xmlns="http://www.w3.org/2000/svg">
<path d="M48.6026 198.912L82.3683 218.568L65.4855 248.181L31.3275 228.376L48.6026 198.912Z" fill="white"/>
<path d="M65.485 248.87C65.3611 248.873 65.239 248.84 65.1332 248.776L30.9753 228.971C30.8956 228.926 30.8258 228.866 30.7701 228.793C30.7144 228.721 30.6739 228.638 30.6512 228.55C30.6284 228.461 30.6238 228.369 30.6377 228.278C30.6516 228.188 30.6836 228.102 30.7318 228.024L47.9934 198.56C48.0394 198.482 48.1005 198.413 48.1731 198.359C48.2457 198.304 48.3283 198.264 48.4163 198.242C48.5043 198.219 48.5959 198.214 48.6858 198.227C48.7757 198.24 48.8622 198.27 48.9403 198.317L82.7601 217.959C82.9178 218.052 83.033 218.204 83.081 218.381C83.129 218.557 83.1061 218.746 83.0171 218.906L66.0937 248.519C65.9958 248.681 65.8418 248.801 65.6608 248.857L65.485 248.87ZM32.2875 228.119L65.2279 247.22L81.4614 218.811L48.9133 199.872L32.2875 228.119Z" fill="#484646"/>
<path d="M82.2061 343.079C80.4897 346.122 79.0847 349.331 78.0124 352.656C76.592 357.364 79.4464 364.128 81.4485 365.941C82.512 366.76 83.8202 367.197 85.1624 367.183C86.5047 367.168 87.803 366.702 88.8483 365.86C91.0533 363.925 88.8483 345.365 88.8483 345.365L82.2061 343.079Z" fill="#484646"/>
<path d="M84.9792 367.875C83.4945 367.923 82.046 367.411 80.9208 366.441C78.7564 364.48 75.8073 357.391 77.3089 352.467C78.3834 349.073 79.8164 345.804 81.5837 342.714C81.6658 342.588 81.7875 342.493 81.9296 342.444C82.0717 342.395 82.226 342.394 82.3683 342.443L88.9293 344.729C89.0488 344.77 89.1542 344.843 89.2333 344.941C89.3124 345.04 89.3618 345.158 89.3757 345.284C89.9304 349.721 91.5267 364.358 89.2269 366.374C88.0242 367.345 86.5251 367.875 84.9792 367.875ZM82.5171 343.904C80.9496 346.758 79.6629 349.757 78.6752 352.859C77.3224 357.229 80.028 363.682 81.9083 365.44C82.8496 366.147 83.9985 366.523 85.1756 366.508C86.3528 366.493 87.4919 366.089 88.4153 365.359C89.6192 364.318 89.2405 354.699 88.1718 345.866L82.5171 343.904Z" fill="#484646"/>
<path d="M103.822 275.345C97.4112 283.669 92.6705 293.155 89.8616 303.28C85.5462 319.513 83.26 341.875 83.003 342.632C82.746 343.39 78.6876 350.506 81.542 351.845C84.3964 353.184 87.2508 353.942 88.7794 345.365C88.7794 345.365 118.297 286.519 119.434 279.471C120.57 272.423 103.822 275.345 103.822 275.345Z" fill="white"/>
<path d="M84.3294 353.36C83.2502 353.291 82.1985 352.991 81.245 352.481C80.9607 352.35 80.7061 352.162 80.4968 351.93C80.2874 351.697 80.1277 351.424 80.0275 351.128C79.3241 349.166 80.6498 345.96 82.0297 343.092C82.192 342.768 82.3002 342.538 82.3408 342.429C82.3814 342.321 82.5437 340.982 82.7331 339.507C83.6395 332.473 85.7633 316.009 89.1859 303.117C92.0374 292.9 96.8226 283.325 103.282 274.912C103.391 274.786 103.538 274.7 103.701 274.668C104.188 274.587 115.552 272.653 119.096 276.156C119.542 276.597 119.87 277.142 120.05 277.743C120.229 278.343 120.255 278.979 120.124 279.592C118.988 286.6 91.188 342.145 89.4429 345.608C88.6989 349.775 87.5626 352.129 85.8986 352.995C85.4136 353.244 84.8746 353.369 84.3294 353.36ZM104.202 275.994C97.95 284.202 93.3093 293.52 90.5252 303.456C87.1297 316.266 85.0193 332.662 84.1129 339.67C83.8018 342.145 83.7342 342.659 83.6665 342.862C83.5989 343.065 83.4771 343.282 83.2878 343.688C82.5843 345.135 80.7445 348.963 81.3397 350.641C81.3781 350.766 81.4425 350.881 81.5288 350.979C81.6151 351.077 81.7213 351.155 81.8403 351.209C83.2877 351.885 84.3564 352.21 85.2493 351.75C86.4803 351.101 87.4408 348.923 88.0901 345.243C88.1003 345.176 88.1233 345.112 88.1578 345.054C88.4554 344.472 117.635 286.221 118.744 279.362C118.839 278.967 118.83 278.554 118.719 278.163C118.607 277.772 118.397 277.416 118.109 277.13C115.66 274.722 107.489 275.453 104.202 275.994Z" fill="#484646"/>
<path d="M198.478 343.079C200.193 346.121 201.593 349.33 202.658 352.656C204.092 357.364 201.237 364.128 199.235 365.941C198.172 366.76 196.863 367.197 195.521 367.183C194.179 367.168 192.881 366.702 191.835 365.86C189.617 363.925 191.835 345.365 191.835 345.365L198.478 343.079Z" fill="#484646"/>
<path d="M195.704 367.848C194.137 367.878 192.61 367.356 191.389 366.374C189.089 364.358 190.685 349.721 191.24 345.284C191.254 345.159 191.303 345.04 191.382 344.942C191.462 344.843 191.567 344.77 191.686 344.729L198.248 342.443C198.39 342.397 198.544 342.398 198.685 342.447C198.827 342.496 198.948 342.589 199.032 342.714C200.785 345.811 202.217 349.079 203.307 352.467C204.809 357.391 201.846 364.48 199.681 366.442C198.573 367.383 197.158 367.883 195.704 367.848ZM192.525 345.866C191.457 354.699 191.078 364.318 192.282 365.359C193.204 366.092 194.344 366.497 195.521 366.512C196.699 366.526 197.848 366.15 198.789 365.44C200.683 363.722 203.348 357.229 202.022 352.859C201.023 349.759 199.732 346.76 198.166 343.904L192.525 345.866Z" fill="#484646"/>
<path d="M176.86 275.345C183.271 283.669 188.012 293.155 190.821 303.28C195.136 319.513 197.423 341.875 197.68 342.632C197.937 343.39 201.995 350.506 199.141 351.845C196.286 353.184 193.432 353.942 191.903 345.365C191.903 345.365 162.385 286.519 161.235 279.471C160.086 272.423 176.86 275.345 176.86 275.345Z" fill="white"/>
<path d="M196.367 353.36C195.821 353.365 195.282 353.235 194.798 352.981C193.134 352.115 191.998 349.762 191.24 345.595C189.509 342.132 161.695 286.586 160.559 279.579C160.434 278.965 160.463 278.329 160.645 277.729C160.827 277.129 161.155 276.584 161.601 276.143C165.145 272.639 176.481 274.573 176.995 274.655C177.158 274.687 177.306 274.772 177.415 274.898C183.874 283.312 188.659 292.887 191.511 303.104C194.933 315.996 197.057 332.459 197.964 339.494C198.153 340.968 198.315 342.199 198.356 342.443L198.667 343.079C200.02 345.947 201.373 349.153 200.669 351.114C200.567 351.41 200.406 351.682 200.197 351.914C199.988 352.146 199.735 352.334 199.452 352.467C198.499 352.981 197.447 353.285 196.367 353.36ZM169.812 275.453C166.849 275.453 163.9 275.845 162.588 277.13C162.3 277.417 162.09 277.772 161.976 278.163C161.863 278.553 161.85 278.966 161.939 279.362C163.062 286.221 192.241 344.472 192.539 345.054C192.567 345.115 192.59 345.178 192.607 345.243C193.256 348.923 194.216 351.101 195.447 351.75C196.34 352.21 197.409 351.885 198.856 351.209C198.975 351.155 199.082 351.077 199.168 350.979C199.254 350.881 199.319 350.766 199.357 350.641C199.952 348.963 198.099 345.135 197.409 343.688C197.269 343.419 197.142 343.144 197.03 342.862C197.03 342.659 196.895 342.145 196.57 339.67C195.677 332.662 193.567 316.266 190.158 303.456C187.376 293.522 182.74 284.204 176.495 275.994C174.28 275.641 172.041 275.46 169.798 275.453H169.812Z" fill="#484646"/>
<path d="M113.726 197.14C113.726 197.897 103.066 252.496 101.036 276.873C101.036 276.873 142.675 298.707 180.77 275.345C180.77 275.345 172.126 240.307 171.882 232.177C171.639 224.047 167.553 202.727 161.723 193.839L113.726 197.14Z" fill="#484646"/>
<path d="M141.674 286.749C127.511 286.64 113.538 283.475 100.712 277.468C100.595 277.407 100.5 277.313 100.437 277.197C100.374 277.082 100.348 276.95 100.36 276.819C101.997 257.095 109.275 217.689 112.021 202.849C112.603 199.656 113.036 197.356 113.049 197.099C113.067 196.937 113.139 196.785 113.255 196.669C113.371 196.554 113.522 196.481 113.685 196.463L161.668 193.163C161.787 193.151 161.907 193.173 162.015 193.226C162.122 193.278 162.213 193.359 162.277 193.46C168.175 202.443 172.288 223.614 172.545 232.164C172.802 240.118 181.324 274.831 181.419 275.182C181.451 275.322 181.44 275.468 181.387 275.601C181.333 275.734 181.241 275.847 181.122 275.926C169.239 283.142 155.575 286.891 141.674 286.749ZM101.74 276.467C106.069 278.578 144.745 296.313 179.999 275.033C178.916 270.623 171.449 239.861 171.206 232.204C170.949 224.087 166.931 203.376 161.371 194.529L114.307 197.776C114.186 198.466 113.928 199.927 113.333 203.092C110.628 217.797 103.444 256.676 101.74 276.467Z" fill="#484646"/>
<path d="M188.25 79.1495L191.456 70.4646C191.456 70.4646 189.968 67.042 191.632 64.4853C193.296 61.9285 194.338 59.7505 195.69 60.5351C197.043 61.3197 203.807 64.8505 202.711 69.0847C201.616 73.319 198.653 73.9007 198.653 73.9007C197.237 77.8905 195.462 81.7437 193.35 85.4129L188.25 79.1495Z" fill="white"/>
<path d="M193.323 86.1029C193.22 86.1016 193.118 86.078 193.024 86.0336C192.931 85.9892 192.848 85.9252 192.782 85.8459L187.682 79.596C187.605 79.5004 187.555 79.3864 187.536 79.2654C187.517 79.1444 187.53 79.0205 187.574 78.9061L190.685 70.4782C190.269 69.4567 190.084 68.356 190.142 67.2546C190.201 66.1532 190.502 65.0783 191.023 64.1065L191.686 63.0649C193.039 60.8328 194.392 58.9118 196.002 59.94L196.407 60.1835C198.396 61.3333 204.457 64.8506 203.334 69.2607C203.146 70.4124 202.664 71.4961 201.934 72.4063C201.204 73.3166 200.251 74.0225 199.167 74.4554C197.752 78.3844 196.005 82.186 193.945 85.8188C193.889 85.9181 193.808 86.0021 193.712 86.0634C193.615 86.1247 193.505 86.1615 193.391 86.1705L193.323 86.1029ZM189.021 79.0549L193.215 84.209C195.089 80.8554 196.673 77.3479 197.95 73.7249C197.988 73.6038 198.058 73.4956 198.154 73.4121C198.249 73.3285 198.366 73.273 198.491 73.2514C198.585 73.2514 201.034 72.6832 201.981 68.9631C202.847 65.5676 197.476 62.4561 195.704 61.428L195.271 61.171C194.757 60.8598 193.797 62.375 192.877 63.8766C192.647 64.2148 192.43 64.58 192.187 64.9453C190.753 67.1368 192.065 70.2212 192.079 70.2617C192.14 70.4276 192.14 70.6099 192.079 70.7758L189.021 79.0549Z" fill="#484646"/>
<path d="M194.92 62.3073C196.884 63.2863 198.551 64.7713 199.75 66.6092C199.91 66.8129 199.991 67.0673 199.98 67.3262C199.98 67.6373 199.601 67.8132 199.317 67.9484C198.935 68.1817 198.492 68.2948 198.045 68.2731C197.759 68.2233 197.487 68.1126 197.247 67.9484C196.26 67.3556 195.351 66.6422 194.541 65.8246C194.913 66.1274 195.191 66.5302 195.341 66.9856C195.492 67.4409 195.509 67.9298 195.391 68.3946C195.273 68.8594 195.025 69.2809 194.675 69.6093C194.326 69.9377 193.89 70.1593 193.419 70.2482" fill="white"/>
<path d="M193.473 70.9381C193.312 70.9374 193.155 70.8802 193.032 70.7764C192.908 70.6726 192.825 70.5288 192.797 70.3699C192.761 70.1869 192.799 69.9972 192.903 69.8425C193.007 69.6878 193.168 69.5807 193.351 69.5447C193.678 69.4622 193.976 69.2929 194.214 69.0548C194.452 68.8166 194.621 68.5184 194.704 68.1919C194.766 67.9155 194.766 67.6285 194.703 67.3522C194.64 67.076 194.515 66.8174 194.339 66.5956C194.23 66.5009 194.136 66.3927 194.028 66.2845C193.96 66.2232 193.905 66.1492 193.866 66.0667C193.827 65.9843 193.805 65.895 193.801 65.8039C193.796 65.7128 193.81 65.6218 193.841 65.5359C193.872 65.4501 193.919 65.3712 193.98 65.3037C194.042 65.2362 194.115 65.1814 194.198 65.1425C194.28 65.1036 194.37 65.0813 194.461 65.0769C194.552 65.0725 194.643 65.0861 194.729 65.1169C194.815 65.1477 194.893 65.1951 194.961 65.2563C195.106 65.3767 195.242 65.5078 195.367 65.6487C196.032 66.2824 196.762 66.8446 197.545 67.3261C197.705 67.4338 197.884 67.5117 198.072 67.5561C198.38 67.5438 198.678 67.4505 198.938 67.2855C199.036 67.2508 199.127 67.2006 199.209 67.1367C199.165 67.0829 199.129 67.0239 199.101 66.9609C197.968 65.2277 196.394 63.8271 194.542 62.9025C194.396 62.81 194.289 62.6672 194.242 62.5011C194.195 62.3351 194.21 62.1575 194.285 62.0022C194.361 61.8468 194.49 61.7245 194.65 61.6585C194.809 61.5925 194.987 61.5875 195.15 61.6444C197.232 62.679 198.998 64.2534 200.264 66.2033C200.399 66.3781 200.498 66.5785 200.554 66.7924C200.609 67.0063 200.621 67.2292 200.589 67.4479C200.511 67.6965 200.379 67.9243 200.201 68.1141C200.023 68.3039 199.804 68.4508 199.56 68.5436C199.164 68.82 198.691 68.9682 198.208 68.9682C197.724 68.9682 197.252 68.82 196.855 68.5436L196.178 68.0972C196.165 68.257 196.137 68.4154 196.097 68.5707C195.945 69.1496 195.638 69.676 195.209 70.0932C194.78 70.5104 194.245 70.8025 193.662 70.9381H193.473Z" fill="#484646"/>
<path d="M72.8572 188.793L71.4097 200.17C71.3151 200.874 72.8437 203.092 73.0466 203.958C73.5877 206.42 73.6689 209.153 74.0071 211.669C74.0071 212.048 74.0883 212.521 73.7771 212.751C73.466 212.981 72.8572 212.751 72.4243 212.413L69.2588 209.843C67.6965 212.602 66.3401 215.473 65.2005 218.433C62.576 219.069 59.9787 217.31 58.0983 215.362C57.8881 215.16 57.7102 214.928 57.5707 214.672C57.4445 214.357 57.3714 214.023 57.3543 213.685C56.8673 209.153 56.3262 200.373 61.6832 198.033C62.279 192.824 63.3476 187.68 64.8758 182.665L72.8572 188.793Z" fill="white"/>
<path d="M64.1992 219.258C62.9422 219.152 61.7191 218.795 60.6017 218.21C59.4843 217.625 58.4951 216.822 57.6923 215.849C57.4285 215.594 57.209 215.297 57.043 214.97C56.8765 214.589 56.7802 214.181 56.7589 213.766C56.4071 210.451 55.4061 200.522 61.1284 197.532C61.7565 192.424 62.8154 187.378 64.2939 182.449C64.3237 182.337 64.3817 182.235 64.4622 182.152C64.5427 182.069 64.6431 182.008 64.7539 181.975C64.8608 181.941 64.9743 181.933 65.0849 181.952C65.1955 181.971 65.3 182.016 65.3897 182.083L73.2899 188.211C73.3851 188.289 73.4596 188.389 73.5068 188.502C73.554 188.615 73.5725 188.739 73.5605 188.861C73.5605 188.861 72.0995 200.184 72.0995 200.238C72.3054 200.841 72.5729 201.421 72.8976 201.969C73.2422 202.539 73.5191 203.148 73.7228 203.782C74.0456 205.413 74.2715 207.062 74.3992 208.72C74.4804 209.68 74.5751 210.627 74.6969 211.547C74.7789 211.854 74.7757 212.177 74.6874 212.482C74.5992 212.788 74.4294 213.063 74.1963 213.279C73.8581 213.536 73.1276 213.82 72.0454 212.927L69.5157 210.884C68.1586 213.393 66.9657 215.986 65.9443 218.649C65.9041 218.755 65.8388 218.85 65.754 218.925C65.6692 219.001 65.5674 219.055 65.4573 219.082C65.0458 219.187 64.6238 219.246 64.1992 219.258ZM65.3491 183.855C63.9696 188.511 62.9964 193.277 62.4406 198.1C62.4266 198.225 62.3807 198.344 62.3072 198.446C62.2337 198.548 62.1352 198.629 62.0212 198.682C58.4769 200.224 57.1918 205.121 58.0981 213.63C58.1095 213.886 58.1644 214.137 58.2605 214.374C58.361 214.571 58.4988 214.745 58.6663 214.888C59.8973 216.174 62.2782 218.189 64.7403 217.837C65.8576 214.974 67.1683 212.19 68.6634 209.504C68.7129 209.417 68.781 209.341 68.8628 209.283C68.9445 209.224 69.0381 209.185 69.1369 209.166C69.2388 209.146 69.3438 209.15 69.4444 209.175C69.545 209.201 69.6386 209.249 69.7186 209.315L72.8841 211.899C73.0195 212.009 73.1698 212.1 73.3305 212.169C73.3305 212.169 73.3305 211.993 73.3305 211.777C73.2088 210.844 73.1141 209.87 73.0194 208.896C72.9034 207.296 72.6865 205.706 72.3701 204.134C72.1901 203.62 71.9589 203.126 71.6801 202.659C71.1445 201.899 70.8137 201.014 70.7197 200.089C70.7197 199.994 71.8831 191.106 72.0724 189.118L65.3491 183.855Z" fill="#484646"/>
<path d="M128.971 126.754C128.682 126.616 128.378 126.512 128.065 126.443C125.752 125.942 122.167 128.729 120.219 130.109C118.192 131.679 116.718 133.854 116.012 136.318C115.063 139.561 114.42 142.885 114.091 146.248C111.94 163.834 111.94 181.961 110.871 199.683C110.871 199.683 125.616 210.343 137.927 208.625C150.237 206.907 165.673 199.872 165.673 199.872C165.673 199.872 161.357 150.753 161.195 143.299C161.195 143.299 168.987 132.828 178.321 119.882C187.655 106.936 196.286 81.7604 196.286 81.7604L188.169 76.241C188.169 76.241 160.424 120.301 155.594 124.427C150.981 128.364 144.163 129.514 138.279 129.189C136.168 129.08 134.074 128.758 132.029 128.229C130.971 127.821 129.949 127.328 128.971 126.754Z" fill="#FF931E"/>
<path d="M121.829 121.532C120.858 120.961 120.103 120.086 119.678 119.043C119.607 118.234 119.742 117.419 120.07 116.676C122.776 108.559 122.234 99.2791 126.834 92.0552C127.388 91.0545 128.183 90.2081 129.147 89.5931C129.632 89.2909 130.192 89.1308 130.764 89.1308C131.335 89.1308 131.895 89.2909 132.38 89.5931C136.439 82.7074 146.409 87.6316 149.236 93.178C152.226 99.0491 153.984 105.786 156.203 111.982C157.04 113.846 157.438 115.878 157.366 117.921C157.309 118.939 156.915 119.91 156.247 120.681C155.578 121.452 154.673 121.98 153.673 122.182L152.591 120.301C152.713 120.448 152.805 120.617 152.862 120.799C152.918 120.981 152.938 121.172 152.921 121.362C152.903 121.552 152.848 121.736 152.759 121.905C152.67 122.073 152.549 122.223 152.402 122.344C151.826 122.821 151.136 123.138 150.399 123.264C143.243 125.063 135.519 126.511 128.593 124.049C127.524 123.67 126.266 122.696 126.685 121.668C126.022 123.535 123.655 122.804 121.829 121.532Z" fill="white"/>
<path d="M136.844 126.024C133.979 126.057 131.128 125.599 128.417 124.671C127.589 124.401 126.863 123.887 126.333 123.196C126.217 123.262 126.095 123.316 125.968 123.359C124.277 123.927 122.113 122.533 121.477 122.101C120.976 121.749 119.285 120.477 119.042 119.165C118.943 118.281 119.073 117.387 119.421 116.568C120.4 113.378 121.128 110.117 121.599 106.814C122.478 101.619 123.398 96.2352 126.266 91.6763C126.887 90.577 127.77 89.6477 128.836 88.9708C129.336 88.6823 129.893 88.5074 130.468 88.4583C131.043 88.4092 131.622 88.4872 132.164 88.6867C132.862 87.6522 133.819 86.8182 134.939 86.2677C136.059 85.7171 137.303 85.4691 138.549 85.5482C140.888 85.7658 143.14 86.5448 145.114 87.8189C147.087 89.093 148.724 90.8247 149.885 92.8668C151.9 97.1476 153.586 101.575 154.931 106.111C155.554 108.005 156.176 109.885 156.839 111.725C157.712 113.693 158.119 115.837 158.029 117.988C157.952 119.166 157.485 120.284 156.701 121.166C155.917 122.049 154.861 122.644 153.7 122.858C153.579 122.87 153.456 122.85 153.345 122.8C153.233 122.75 153.137 122.673 153.064 122.574L152.889 122.777C152.23 123.343 151.431 123.722 150.575 123.873C146.102 125.14 141.491 125.862 136.844 126.024ZM127.375 121.965C127.336 122.065 127.336 122.176 127.375 122.276C127.726 122.797 128.247 123.18 128.849 123.359C135.532 125.713 143.081 124.36 150.264 122.561C150.872 122.465 151.446 122.213 151.928 121.83C152.111 121.646 152.217 121.399 152.226 121.14L152.009 120.748C151.909 120.603 151.867 120.426 151.893 120.252C151.919 120.078 152.01 119.92 152.148 119.811C152.287 119.702 152.461 119.65 152.637 119.666C152.812 119.682 152.975 119.764 153.091 119.896C153.293 120.098 153.445 120.343 153.538 120.613L154.038 121.505C154.782 121.228 155.431 120.745 155.91 120.113C156.389 119.48 156.678 118.725 156.744 117.934C156.786 115.999 156.402 114.078 155.621 112.306C154.958 110.453 154.336 108.559 153.7 106.652C152.357 102.176 150.68 97.8077 148.681 93.5838C147.644 91.7568 146.181 90.2067 144.417 89.0647C142.654 87.9226 140.641 87.2222 138.549 87.0227C137.439 86.9591 136.334 87.2096 135.36 87.7456C134.386 88.2816 133.583 89.0813 133.043 90.053C132.992 90.1353 132.925 90.2066 132.846 90.2624C132.767 90.3182 132.678 90.3574 132.583 90.3777C132.487 90.3979 132.388 90.3975 132.293 90.3765C132.197 90.3555 132.107 90.3144 132.029 90.2559C131.658 90.0301 131.232 89.9107 130.797 89.9107C130.363 89.9107 129.937 90.0301 129.566 90.2559C128.669 90.7855 127.916 91.5291 127.375 92.4204C124.669 96.7493 123.79 101.755 122.897 107.044C122.427 110.39 121.704 113.696 120.733 116.933C120.457 117.568 120.328 118.257 120.354 118.949C120.763 119.802 121.418 120.514 122.234 120.991C123.129 121.759 124.291 122.143 125.468 122.06C125.591 122.02 125.703 121.951 125.794 121.859C125.886 121.768 125.955 121.656 125.995 121.532C125.992 121.487 125.992 121.442 125.995 121.397C126.06 121.218 126.193 121.071 126.365 120.99C126.538 120.909 126.736 120.9 126.915 120.964C127.094 121.029 127.241 121.162 127.322 121.335C127.403 121.507 127.412 121.705 127.348 121.884C127.36 121.91 127.37 121.937 127.375 121.965Z" fill="#484646"/>
<path d="M140.781 141.107L140.51 141.337C140.167 141.616 139.75 141.789 139.311 141.835C138.871 141.88 138.427 141.797 138.034 141.594C137.672 141.33 137.368 140.994 137.142 140.607C134.247 136.454 132.299 132.138 133.164 126.971C133.168 126.921 133.168 126.871 133.164 126.822L133.029 125.077L132.677 120.261V119.557V118.543L133.11 113.213L144.298 113.335L144.69 119.855V120.261L144.947 124.441L145.082 126.727V126.822C145.087 131.158 144.008 135.427 141.944 139.24C141.661 139.922 141.268 140.553 140.781 141.107Z" fill="white"/>
<path d="M138.996 142.555C138.518 142.563 138.048 142.431 137.643 142.176C137.204 141.865 136.832 141.469 136.547 141.013C134.126 137.522 131.474 132.774 132.489 126.862L132.002 120.315L132.124 118.489L132.557 113.159C132.57 112.983 132.651 112.819 132.782 112.701C132.913 112.582 133.084 112.519 133.26 112.523L144.448 112.631C144.624 112.637 144.792 112.708 144.919 112.831C145.047 112.953 145.124 113.118 145.138 113.294L145.516 119.814C145.516 119.814 145.516 119.95 145.516 119.963L145.909 126.727C145.947 131.218 144.843 135.645 142.703 139.592C142.345 140.362 141.855 141.062 141.255 141.662L140.93 141.946C140.363 142.342 139.688 142.555 138.996 142.555ZM133.882 113.916L133.382 120.301L133.882 126.768C133.892 126.876 133.892 126.984 133.882 127.092C133.165 131.367 134.315 135.29 137.738 140.214C137.922 140.517 138.16 140.783 138.441 140.999C138.713 141.124 139.014 141.17 139.311 141.131C139.608 141.093 139.887 140.972 140.119 140.783C140.197 140.727 140.269 140.663 140.335 140.593C140.821 140.112 141.211 139.543 141.485 138.916C143.503 135.22 144.555 131.074 144.542 126.862L144.136 119.99V119.855L143.798 114.024L133.882 113.916Z" fill="#484646"/>
<path d="M132.677 120.261C133.56 121.789 134.811 123.073 136.316 123.995C138.697 125.55 142.079 126.93 145.001 126.457L144.798 119.855C142.662 120.146 140.496 120.146 138.359 119.855C136.445 119.735 134.567 119.277 132.813 118.502L132.677 120.261Z" fill="#484646"/>
<path d="M143.758 127.228C140.959 127.046 138.262 126.111 135.952 124.522C134.341 123.517 133.01 122.121 132.083 120.464C132.049 120.344 132.049 120.218 132.083 120.098L132.205 118.38C132.214 118.27 132.25 118.163 132.309 118.069C132.368 117.975 132.448 117.896 132.543 117.839C132.64 117.786 132.75 117.758 132.861 117.758C132.972 117.758 133.081 117.786 133.179 117.839C134.867 118.553 136.665 118.969 138.495 119.07C140.578 119.348 142.689 119.348 144.772 119.07C144.866 119.051 144.962 119.054 145.054 119.08C145.146 119.106 145.23 119.154 145.3 119.219C145.374 119.277 145.434 119.351 145.476 119.435C145.518 119.519 145.541 119.612 145.543 119.706L145.746 126.308C145.752 126.472 145.697 126.633 145.592 126.76C145.488 126.887 145.34 126.971 145.178 126.998C144.711 127.112 144.236 127.189 143.758 127.228ZM133.368 120.112C134.192 121.466 135.328 122.603 136.682 123.426C138.91 125.011 141.578 125.858 144.312 125.848L144.15 120.612C142.195 120.796 140.226 120.759 138.279 120.504C136.622 120.378 134.987 120.05 133.409 119.53L133.368 120.112Z" fill="#484646"/>
<path d="M138.373 121.424H139.55C140.842 121.439 142.123 121.198 143.322 120.717C144.521 120.236 145.613 119.524 146.536 118.62C147.459 117.717 148.196 116.641 148.703 115.453C149.21 114.265 149.479 112.989 149.493 111.698C149.379 108.681 149.094 105.673 148.641 102.688C148.641 102.688 144.109 101.065 140.524 99.7119C134.558 97.4528 132.948 94.3008 132.948 94.3008C132.777 96.4438 132.323 98.5546 131.596 100.578C130.811 102.005 129.906 103.363 128.89 104.636C128.89 104.636 128.714 109.479 128.687 111.495C128.665 114.093 129.671 116.594 131.485 118.454C133.3 120.314 135.775 121.381 138.373 121.424Z" fill="white"/>
<path d="M139.632 122.141H138.36C135.574 122.106 132.916 120.968 130.967 118.978C129.017 116.988 127.935 114.307 127.957 111.522C127.957 109.493 128.146 104.636 128.146 104.636C128.155 104.489 128.207 104.348 128.295 104.23C129.262 102.986 130.126 101.665 130.879 100.28C131.593 98.3325 132.048 96.2994 132.232 94.2332C132.244 94.0796 132.306 93.9342 132.409 93.8194C132.511 93.7045 132.649 93.6265 132.8 93.5974C132.95 93.5673 133.107 93.5882 133.244 93.6568C133.381 93.7254 133.491 93.8378 133.558 93.9761C133.558 93.9761 135.167 97.0064 140.768 99.1167C144.312 100.47 148.885 102.093 148.885 102.093C149.005 102.134 149.112 102.208 149.193 102.305C149.274 102.403 149.326 102.522 149.345 102.648C149.813 105.667 150.098 108.712 150.197 111.765C150.158 114.538 149.026 117.183 147.048 119.126C145.069 121.069 142.404 122.152 139.632 122.141ZM138.373 120.788H139.55C140.75 120.817 141.943 120.601 143.057 120.155C144.171 119.708 145.182 119.04 146.03 118.191C146.883 117.352 147.561 116.352 148.026 115.249C148.49 114.146 148.731 112.962 148.736 111.765C148.643 108.92 148.381 106.084 147.951 103.27C146.774 102.85 143.176 101.538 140.24 100.429C137.648 99.5401 135.299 98.0577 133.382 96.1C133.141 97.7234 132.724 99.3157 132.137 100.848C131.392 102.278 130.518 103.636 129.526 104.907C129.526 105.881 129.35 109.777 129.337 111.535C129.323 112.734 129.545 113.923 129.991 115.036C130.437 116.149 131.097 117.162 131.935 118.019C132.774 118.876 133.772 119.559 134.875 120.03C135.977 120.5 137.161 120.749 138.36 120.761L138.373 120.788Z" fill="#484646"/>
<path d="M139.375 111.021C138.801 111.019 138.227 110.988 137.657 110.927C137.475 110.9 137.31 110.802 137.199 110.656C137.088 110.509 137.038 110.325 137.062 110.142C137.073 110.051 137.103 109.963 137.149 109.884C137.195 109.804 137.256 109.735 137.329 109.68C137.402 109.624 137.485 109.584 137.574 109.561C137.663 109.538 137.755 109.533 137.846 109.547C138.678 109.629 139.517 109.629 140.349 109.547C140.182 107.63 139.692 105.754 138.901 104C138.835 103.821 138.843 103.622 138.922 103.449C139.002 103.275 139.148 103.14 139.327 103.074C139.507 103.007 139.705 103.015 139.879 103.095C140.053 103.175 140.188 103.32 140.254 103.5C140.89 105.137 142.31 109.114 141.607 110.372C141.52 110.52 141.401 110.645 141.258 110.739C141.115 110.833 140.952 110.893 140.782 110.913C140.315 110.979 139.846 111.015 139.375 111.021Z" fill="#484646"/>
<path d="M135.226 105.484C135.236 104.565 134.942 103.817 134.568 103.813C134.195 103.809 133.884 104.55 133.874 105.469C133.864 106.388 134.158 107.136 134.532 107.14C134.905 107.145 135.216 106.403 135.226 105.484Z" fill="#484646"/>
<path d="M144.172 105.266C144.182 104.347 143.887 103.599 143.514 103.594C143.14 103.59 142.829 104.332 142.819 105.251C142.809 106.17 143.104 106.918 143.477 106.922C143.851 106.926 144.162 106.185 144.172 105.266Z" fill="#484646"/>
<path d="M150.832 129.568C150.832 132.273 151.035 137.779 145.204 148.006L139.55 141.797C140.997 139.092 144.731 137.238 145.028 127.539C145.028 127.295 145.028 127.065 145.028 126.822C145.1 126.779 145.177 126.747 145.258 126.727C147.382 125.807 150.534 127.43 150.832 128.567C150.862 128.9 150.862 129.235 150.832 129.568Z" fill="white"/>
<path d="M145.205 148.696C145.109 148.698 145.014 148.68 144.926 148.642C144.837 148.605 144.757 148.55 144.691 148.48L138.969 142.271C138.872 142.165 138.809 142.031 138.789 141.889C138.77 141.746 138.795 141.601 138.861 141.472C139.248 140.756 139.701 140.076 140.214 139.443C141.891 137.319 143.974 134.681 144.191 127.512C144.203 127.282 144.203 127.052 144.191 126.822C144.189 126.701 144.22 126.583 144.279 126.478C144.339 126.374 144.425 126.287 144.529 126.227C144.643 126.156 144.766 126.102 144.894 126.064C145.615 125.818 146.379 125.723 147.138 125.785C147.897 125.848 148.634 126.068 149.304 126.429C149.832 126.686 151.104 127.39 151.361 128.391C151.424 128.784 151.447 129.183 151.428 129.581V129.96C151.428 132.909 151.428 138.429 145.692 148.345C145.641 148.443 145.566 148.526 145.473 148.588C145.381 148.649 145.275 148.686 145.165 148.696H145.205ZM140.335 141.702L145.057 146.83C150.089 137.739 150.116 132.693 150.143 129.947V129.568C150.167 129.289 150.167 129.008 150.143 128.729C149.806 128.258 149.335 127.899 148.79 127.701C147.832 127.191 146.718 127.056 145.665 127.322C145.659 127.403 145.659 127.485 145.665 127.566C145.422 135.196 143.082 138.158 141.377 140.323C140.985 140.81 140.633 141.283 140.335 141.702Z" fill="#484646"/>
<path d="M138.968 141.851L132.692 148.047C125.792 143.285 127.172 129.433 127.389 128.608C127.66 128.007 128.141 127.526 128.741 127.255C129.395 126.838 130.138 126.582 130.909 126.509C131.681 126.436 132.459 126.548 133.179 126.835V126.984C133.449 137.049 137.48 139.065 138.968 141.851Z" fill="white"/>
<path d="M132.692 148.696C132.547 148.698 132.406 148.655 132.286 148.575C124.683 143.326 126.685 128.526 126.726 128.391C127.038 127.627 127.621 127.006 128.363 126.646C129.117 126.172 129.973 125.885 130.86 125.809C131.748 125.734 132.64 125.872 133.463 126.213C133.576 126.273 133.671 126.363 133.737 126.472C133.804 126.582 133.84 126.707 133.842 126.835V126.984C134.031 134.411 136.263 137.211 138.062 139.457C138.619 140.103 139.113 140.8 139.537 141.54C139.607 141.673 139.634 141.824 139.612 141.973C139.59 142.121 139.521 142.259 139.415 142.365L133.138 148.521C133.014 148.628 132.856 148.69 132.692 148.696ZM129.039 127.863C128.638 128.058 128.3 128.363 128.065 128.743C127.754 129.987 126.794 142.406 132.624 147.087L138.035 141.675C137.738 141.215 137.373 140.756 136.967 140.241C135.154 137.996 132.705 134.925 132.435 127.214C131.268 126.956 130.046 127.16 129.026 127.782L129.039 127.863Z" fill="#484646"/>
<path d="M141.052 112.78H137.778C137.778 112.78 137.399 118.637 139.415 118.015C141.052 117.501 141.471 114.931 141.052 112.78Z" fill="#484646"/>
<path d="M124.074 127.539C123.506 125.78 83.6929 147.628 76.5502 152.444C69.4075 157.26 60.0191 193.027 60.0191 193.027L75.0621 193.758C75.0621 193.758 86.7908 165.633 92.0396 161.074C97.2885 156.516 119.637 148.007 119.637 148.007L124.074 127.539Z" fill="#FF931E"/>
<path d="M332.35 69.3418C332.843 67.9847 333.095 66.5516 333.094 65.1076C332.837 63.7548 331.849 61.2386 332.35 59.6964C332.851 58.1543 334.582 53.3383 336.584 53.4601C338.586 53.5818 344.552 55.2052 345.174 58.1949C345.797 61.1845 339.763 76.444 339.763 76.444L332.35 69.3418Z" fill="white"/>
<path d="M339.763 77.1203C339.587 77.1186 339.418 77.051 339.29 76.9309L331.944 69.8288C331.852 69.7394 331.787 69.6262 331.756 69.502C331.725 69.3778 331.729 69.2473 331.768 69.1253C332.245 67.8814 332.492 66.5614 332.499 65.2293C332.431 64.8776 332.323 64.4717 332.201 64.0118C331.652 62.5486 331.503 60.9658 331.768 59.4258C332.255 57.816 334.054 52.5401 336.692 52.6619C338.424 52.7701 345.161 54.3664 345.905 57.9377C346.554 61.0356 341.021 75.0505 340.385 76.6333C340.346 76.7388 340.281 76.8326 340.196 76.9059C340.111 76.9793 340.008 77.0298 339.898 77.0527L339.763 77.1203ZM333.189 69.1524L339.506 75.2534C341.887 69.1524 344.985 60.2104 344.579 58.2624C344.078 55.8274 338.694 54.204 336.611 54.0688C335.515 54.0688 333.905 56.9367 333.053 59.8181C332.89 61.116 333.043 62.4341 333.5 63.66C333.635 64.1606 333.757 64.607 333.824 65.0128C333.858 66.4251 333.62 67.8307 333.121 69.1524H333.189Z" fill="#484646"/>
<path d="M323.15 51.5662L357.146 68.9225L369.335 45.2893L335.055 28.907L323.15 51.5662Z" fill="white"/>
<path d="M357.147 69.5853C357.038 69.586 356.931 69.558 356.836 69.5041L322.84 52.1884C322.757 52.1477 322.684 52.0908 322.623 52.0211C322.563 51.9514 322.517 51.8703 322.488 51.7826C322.452 51.697 322.433 51.605 322.433 51.512C322.433 51.419 322.452 51.327 322.488 51.2415L334.379 28.5822C334.461 28.4196 334.603 28.2957 334.775 28.2374C334.948 28.1792 335.136 28.1913 335.299 28.2711L369.579 44.6534C369.665 44.6919 369.741 44.7479 369.804 44.8178C369.867 44.8877 369.915 44.9699 369.944 45.0592C369.981 45.1448 370 45.2368 370 45.3298C370 45.4228 369.981 45.5148 369.944 45.6003L357.769 69.2336C357.707 69.3434 357.617 69.4343 357.507 69.4963C357.397 69.5583 357.273 69.5891 357.147 69.5853ZM324.098 51.2685L356.849 67.9755L368.389 45.6003L335.367 29.8268L324.098 51.2685Z" fill="#484646"/>
<path d="M232.622 69.3418C232.122 67.9865 231.87 66.5522 231.878 65.1076C232.122 63.7548 233.123 61.2386 232.622 59.6964C232.122 58.1543 230.376 53.3383 228.388 53.4601C226.399 53.5818 220.42 55.2052 219.798 58.1949C219.175 61.1845 225.276 76.5116 225.276 76.5116L232.622 69.3418Z" fill="white"/>
<path d="M225.276 77.1203H225.127C225.019 77.0931 224.919 77.041 224.834 76.9682C224.75 76.8954 224.683 76.8039 224.64 76.7009C224.018 75.1182 218.485 61.1033 219.134 58.0054C219.878 54.434 226.602 52.8377 228.347 52.7295C230.958 52.5401 232.771 57.8295 233.271 59.4935C233.522 61.0339 233.373 62.6131 232.838 64.0794C232.716 64.5394 232.608 64.9452 232.541 65.2969C232.545 66.628 232.788 67.9474 233.258 69.193C233.303 69.3131 233.312 69.4441 233.283 69.5693C233.254 69.6945 233.189 69.8084 233.095 69.8964L225.75 76.9986C225.611 77.0944 225.443 77.1376 225.276 77.1203ZM228.469 54.1229C226.385 54.2582 221.001 55.8815 220.501 58.3165C220.095 60.2645 223.206 69.1388 225.574 75.3076L231.891 69.2065C231.405 67.8734 231.189 66.4572 231.255 65.0399C231.323 64.6611 231.445 64.2147 231.567 63.6871C232.023 62.4611 232.176 61.1431 232.013 59.8452C231.107 56.9773 229.564 54.0688 228.469 54.0688V54.1229Z" fill="#484646"/>
<path d="M318.7 351.737C318.821 352.115 317.577 363.574 318.7 365.44C319.822 367.307 330.78 372.664 335.515 369.174C340.25 365.684 336.638 362.735 335.515 361.057C334.392 359.38 329.657 349.153 329.657 349.153L318.7 351.737Z" fill="#484646"/>
<path d="M331.322 371C330.281 370.992 329.244 370.883 328.224 370.676C323.841 369.796 318.998 367.253 318.118 365.792C317.239 364.331 317.455 360.246 317.915 353.833C317.915 352.927 318.037 351.994 318.037 351.831C318 351.756 317.981 351.672 317.981 351.588C317.981 351.503 318 351.42 318.037 351.344C318.146 351.2 318.306 351.103 318.484 351.074L329.455 348.463C329.607 348.427 329.767 348.445 329.908 348.514C330.049 348.583 330.161 348.699 330.226 348.842C330.226 348.936 334.947 359.028 336.029 360.665C336.21 360.932 336.404 361.189 336.611 361.436C337.216 362.034 337.694 362.749 338.015 363.538C338.335 364.326 338.493 365.171 338.478 366.022C338.32 366.784 338.007 367.506 337.558 368.141C337.108 368.776 336.533 369.312 335.867 369.715C334.525 370.612 332.934 371.062 331.322 371ZM319.376 352.318C319.376 352.657 319.376 353.157 319.268 353.969C319.065 356.674 318.565 363.925 319.268 365.129C319.823 366.076 324.111 368.511 328.481 369.391C330.51 369.796 333.297 369.999 335.096 368.674C335.617 368.367 336.072 367.959 336.432 367.473C336.792 366.987 337.051 366.434 337.193 365.846C337.144 364.498 336.572 363.221 335.596 362.288C335.353 361.977 335.123 361.68 334.947 361.423C333.946 359.894 330.266 351.953 329.279 349.924L319.376 352.318Z" fill="#484646"/>
<path d="M235.801 346.691C235.801 346.691 226.453 362.207 227.955 366.306C229.456 370.405 243.093 366.874 245.703 363.885C248.314 360.895 248.504 342.768 248.504 342.768L235.801 346.691Z" fill="#484646"/>
<path d="M232.487 368.849C231.793 368.857 231.1 368.798 230.417 368.674C229.755 368.632 229.117 368.411 228.571 368.035C228.026 367.658 227.593 367.14 227.319 366.536C225.763 362.248 234.245 347.962 235.219 346.339C235.307 346.198 235.441 346.093 235.598 346.041L248.301 342.118C248.403 342.086 248.512 342.079 248.619 342.097C248.725 342.115 248.825 342.159 248.911 342.223C248.997 342.288 249.066 342.373 249.113 342.47C249.16 342.567 249.183 342.674 249.18 342.781C249.18 344.662 248.91 361.233 246.217 364.331C244.324 366.482 237.397 368.849 232.487 368.849ZM236.247 347.205C232.568 353.347 227.59 363.262 228.591 366.022C228.821 366.658 229.511 367.077 230.66 367.294C234.881 368.092 243.295 365.549 245.189 363.384C247.083 361.22 247.706 349.166 247.814 343.633L236.247 347.205Z" fill="#484646"/>
<path d="M260.842 195.909C260.842 195.909 247.95 269.149 243.837 287.087C239.725 305.025 232.257 349.126 232.257 349.126C232.257 349.126 238.237 353.184 247.95 350.614L283.961 238.873L317.781 353.604L332.35 350.249L308.487 201.009L260.842 195.909Z" fill="#484646"/>
<path d="M317.835 354.28C317.688 354.282 317.544 354.236 317.427 354.147C317.309 354.059 317.224 353.935 317.185 353.793L283.934 241.173L248.585 350.83C248.552 350.936 248.492 351.031 248.411 351.106C248.331 351.182 248.232 351.236 248.125 351.263C238.223 353.969 232.122 349.91 231.892 349.68C231.786 349.606 231.703 349.503 231.652 349.383C231.602 349.263 231.587 349.132 231.608 349.004C231.689 348.571 239.129 304.687 243.201 286.938C247.273 269.189 260.07 196.518 260.206 195.787C260.233 195.618 260.323 195.466 260.46 195.363C260.596 195.26 260.766 195.213 260.936 195.232L308.582 200.332C308.729 200.349 308.868 200.413 308.975 200.516C309.083 200.618 309.154 200.754 309.177 200.901L333.094 350.14C333.122 350.309 333.085 350.481 332.989 350.622C332.893 350.763 332.747 350.862 332.58 350.898L318.01 354.266L317.835 354.28ZM284.015 238.197C284.159 238.2 284.298 238.249 284.413 238.336C284.527 238.424 284.61 238.546 284.651 238.684L318.335 352.805L331.674 349.721L307.905 201.631L261.396 196.639C260.125 203.823 248.355 270.366 244.5 287.276C240.644 304.186 233.799 344.093 233.001 348.815C234.354 349.599 239.657 352.075 247.422 350.1L283.325 238.684C283.363 238.545 283.446 238.422 283.561 238.334C283.676 238.246 283.816 238.198 283.961 238.197H284.015Z" fill="#484646"/>
<path d="M342.617 70.7081C339.127 83.9113 316.454 141.919 314.709 145.91C312.964 149.9 314.465 203.254 314.465 203.254C300.004 212.48 258.649 208.476 257.905 206.745C257.161 205.013 258.162 168.366 256.918 161.399C255.673 154.432 222.07 71.9527 222.07 71.9527L234.028 67.9755L246.42 94.6931C246.42 94.6931 261.111 119.544 264.602 122.033C265.84 122.79 267.222 123.283 268.66 123.48C272.124 124.051 275.634 124.291 279.144 124.197C286.097 126.186 294.633 123.48 299.301 121.208C300.158 120.818 300.985 120.366 301.776 119.855C304.996 117.596 331.646 67.9755 331.646 67.9755L342.617 70.7081Z" fill="#FF931E"/>
<path d="M299.288 121.208L284.299 179.581L268.647 123.48C272.112 124.051 275.622 124.291 279.132 124.197C286.085 126.186 294.621 123.48 299.288 121.208Z" fill="#484646"/>
<path d="M284.298 180.257C284.152 180.257 284.01 180.21 283.892 180.122C283.775 180.034 283.69 179.911 283.649 179.77L268.065 123.697C268.034 123.585 268.031 123.467 268.057 123.354C268.083 123.24 268.137 123.135 268.214 123.048C268.291 122.959 268.391 122.894 268.503 122.858C268.615 122.822 268.735 122.818 268.849 122.845C272.265 123.402 275.725 123.637 279.185 123.548H279.388C285.705 125.361 293.7 123.21 299.057 120.599C299.174 120.549 299.303 120.531 299.429 120.549C299.555 120.567 299.673 120.62 299.771 120.701C299.869 120.782 299.943 120.889 299.984 121.009C300.025 121.13 300.032 121.259 300.004 121.384L285.015 179.757C284.981 179.902 284.898 180.031 284.78 180.122C284.661 180.213 284.515 180.261 284.366 180.257H284.298ZM269.593 124.333L284.298 176.97L298.3 122.425C292.807 124.833 285.245 126.605 279.076 124.874C275.906 124.957 272.734 124.776 269.593 124.333Z" fill="#484646"/>
<path d="M296.041 103.933C296.21 103.49 296.355 103.038 296.474 102.58C298.855 93.8274 295.352 82.5722 285.043 81.8687C282.683 81.7705 280.344 82.3437 278.296 83.5218C276.249 84.6999 274.578 86.4346 273.477 88.5244C270.514 93.6786 271.34 100.267 271.881 105.935C271.883 106.311 271.995 106.678 272.205 106.99C272.801 107.68 273.95 107.22 274.708 107.206C275.804 107.206 276.954 107.369 278.049 107.436C279.97 107.531 281.878 107.599 283.785 107.558C286.547 107.678 289.314 107.601 292.064 107.328C293.228 107.139 294.026 107.139 294.77 106.192C295.326 105.521 295.756 104.756 296.041 103.933Z" fill="white"/>
<path d="M287.952 108.221H286.247H283.839C282.162 108.221 280.322 108.221 278.063 108.099L276.71 107.991C276.047 107.991 275.357 107.856 274.708 107.869H274.126C273.806 108.018 273.454 108.082 273.102 108.055C272.75 108.028 272.411 107.911 272.118 107.716C271.824 107.52 271.586 107.252 271.426 106.938C271.266 106.624 271.19 106.274 271.204 105.921V105.137C270.649 99.5496 270.027 93.205 272.949 88.105C274.119 85.919 275.882 84.1078 278.036 82.8801C280.19 81.6523 282.647 81.0579 285.124 81.1652C287.042 81.2697 288.911 81.8117 290.588 82.7496C292.264 83.6875 293.704 84.9965 294.797 86.5763C296.319 88.9598 297.318 91.6398 297.726 94.4385C298.134 97.2372 297.942 100.091 297.164 102.81C297.038 103.268 296.889 103.719 296.718 104.163C296.406 105.032 295.949 105.842 295.365 106.557C295.034 106.96 294.622 107.289 294.156 107.522C293.69 107.755 293.18 107.887 292.659 107.91H292.253C290.83 108.13 289.392 108.234 287.952 108.221ZM284.556 106.868H286.274C288.185 106.949 290.099 106.867 291.996 106.625H292.416C292.774 106.634 293.131 106.564 293.46 106.422C293.79 106.279 294.084 106.067 294.323 105.799C294.794 105.195 295.164 104.519 295.419 103.797C295.568 103.364 295.703 102.918 295.825 102.445C296.549 99.9215 296.729 97.2736 296.354 94.6757C295.978 92.0778 295.056 89.5893 293.647 87.3745C292.666 85.9673 291.375 84.8039 289.874 83.9736C288.374 83.1434 286.702 82.6686 284.989 82.5856C282.779 82.5073 280.591 83.0534 278.677 84.1612C276.763 85.269 275.2 86.8937 274.167 88.849C271.461 93.5838 272.056 99.6713 272.584 105.082L272.665 105.867C272.669 106.102 272.725 106.333 272.827 106.544C273.003 106.746 273.436 106.706 274.045 106.544L274.802 106.462C275.519 106.462 276.236 106.462 276.94 106.584L278.198 106.692C280.43 106.801 282.256 106.841 283.893 106.814L284.556 106.868Z" fill="#484646"/>
<path d="M275.844 105.001C275.303 100.645 268.16 99.3332 268.336 104.447C268.338 106.219 268.955 107.935 270.081 109.303C270.656 109.977 271.418 110.465 272.27 110.706C273.122 110.947 274.027 110.929 274.87 110.656" fill="white"/>
<path d="M273.477 111.522C272.736 111.51 272.006 111.347 271.331 111.043C270.657 110.738 270.052 110.298 269.554 109.75C268.313 108.266 267.633 106.394 267.633 104.46C267.552 103.974 267.575 103.477 267.7 103.001C267.825 102.524 268.05 102.08 268.359 101.697C268.668 101.313 269.055 101 269.494 100.777C269.933 100.553 270.415 100.426 270.906 100.402C272.224 100.308 273.529 100.711 274.564 101.533C275.598 102.354 276.287 103.534 276.493 104.839C276.505 104.928 276.499 105.018 276.476 105.104C276.452 105.191 276.412 105.272 276.358 105.343C276.303 105.414 276.235 105.473 276.157 105.518C276.08 105.563 275.994 105.592 275.905 105.603C275.816 105.615 275.726 105.609 275.639 105.585C275.553 105.562 275.472 105.522 275.401 105.467C275.33 105.413 275.27 105.345 275.226 105.267C275.181 105.189 275.152 105.104 275.141 105.015C274.973 104.057 274.458 103.195 273.694 102.594C272.93 101.992 271.971 101.693 271.001 101.755C270.217 101.755 268.904 102.242 268.972 104.352C268.961 105.984 269.532 107.566 270.582 108.816C271.072 109.382 271.719 109.791 272.441 109.991C273.163 110.191 273.928 110.173 274.64 109.939C274.806 109.875 274.989 109.878 275.153 109.946C275.317 110.014 275.448 110.142 275.519 110.304C275.584 110.472 275.582 110.657 275.514 110.823C275.446 110.989 275.317 111.123 275.154 111.197C274.621 111.413 274.052 111.524 273.477 111.522Z" fill="#484646"/>
<path d="M291.414 105.001C291.956 100.645 299.112 99.3332 298.936 104.447C298.936 106.221 298.313 107.94 297.177 109.303C296.606 109.977 295.846 110.466 294.996 110.707C294.145 110.948 293.242 110.93 292.402 110.656" fill="white"/>
<path d="M293.769 111.522C293.214 111.525 292.663 111.424 292.145 111.224C291.98 111.153 291.849 111.019 291.781 110.852C291.712 110.685 291.712 110.498 291.78 110.331C291.849 110.167 291.98 110.036 292.144 109.968C292.309 109.899 292.494 109.899 292.659 109.966C293.371 110.198 294.136 110.215 294.857 110.015C295.579 109.816 296.226 109.408 296.718 108.843C297.738 107.595 298.292 106.031 298.287 104.42C298.354 102.309 297.042 101.89 296.258 101.822C295.288 101.764 294.331 102.064 293.568 102.665C292.805 103.266 292.289 104.126 292.118 105.082C292.095 105.26 292.002 105.421 291.86 105.53C291.718 105.639 291.538 105.687 291.361 105.664C291.272 105.654 291.186 105.627 291.109 105.583C291.031 105.539 290.963 105.48 290.909 105.409C290.854 105.338 290.815 105.257 290.793 105.171C290.77 105.085 290.766 104.995 290.779 104.907C290.986 103.602 291.674 102.422 292.709 101.6C293.743 100.779 295.048 100.375 296.366 100.469C296.858 100.493 297.339 100.621 297.778 100.844C298.217 101.067 298.604 101.381 298.913 101.764C299.222 102.148 299.447 102.592 299.572 103.068C299.697 103.545 299.72 104.042 299.64 104.528C299.64 106.464 298.954 108.338 297.705 109.817C297.2 110.355 296.59 110.783 295.913 111.076C295.236 111.369 294.506 111.521 293.769 111.522Z" fill="#484646"/>
<path d="M275.302 126.646C278.144 127.872 281.204 128.511 284.298 128.526C289.953 128.729 290.914 127.174 290.914 127.174L290.778 124.143L290.467 117.082L290.17 110.494L277.223 110.047L276.601 115.458L276.412 117.19L275.302 126.646Z" fill="white"/>
<path d="M285.245 129.216H284.298C281.113 129.2 277.964 128.533 275.045 127.255C274.922 127.194 274.82 127.096 274.755 126.975C274.689 126.854 274.663 126.715 274.68 126.578L276.574 109.993C276.591 109.825 276.672 109.669 276.8 109.558C276.929 109.447 277.095 109.39 277.264 109.398L290.21 109.844C290.381 109.854 290.542 109.925 290.664 110.044C290.786 110.164 290.86 110.323 290.873 110.494L291.617 127.174C291.623 127.308 291.585 127.441 291.509 127.552C291.279 127.836 290.156 129.216 285.245 129.216ZM276.019 126.227C278.663 127.247 281.465 127.797 284.298 127.85C288.357 127.985 289.791 127.214 290.197 126.917L289.493 111.157L277.792 110.751L276.019 126.227Z" fill="#484646"/>
<path d="M276.385 117.149C277.396 118.759 278.791 120.093 280.444 121.032C283.149 122.669 287.275 124.549 290.684 124.157L290.373 117.095C287.899 117.327 285.407 117.272 282.946 116.933C280.751 116.769 278.593 116.271 276.548 115.458L276.385 117.149Z" fill="#484646"/>
<path d="M289.792 124.887C286.18 124.887 282.284 122.885 280.16 121.614C278.388 120.651 276.889 119.254 275.804 117.555C275.725 117.435 275.692 117.292 275.709 117.149L275.898 115.404C275.912 115.298 275.95 115.197 276.008 115.108C276.067 115.019 276.145 114.945 276.237 114.89C276.333 114.84 276.439 114.814 276.548 114.814C276.656 114.814 276.763 114.84 276.859 114.89C278.843 115.654 280.933 116.11 283.055 116.243C285.472 116.605 287.925 116.674 290.36 116.446C290.452 116.437 290.545 116.447 290.633 116.475C290.722 116.503 290.803 116.548 290.874 116.608C290.946 116.668 291.005 116.742 291.047 116.826C291.089 116.91 291.113 117.002 291.117 117.095L291.428 124.143C291.436 124.314 291.38 124.481 291.269 124.612C291.159 124.742 291.003 124.826 290.833 124.847C290.487 124.88 290.139 124.894 289.792 124.887ZM277.075 117C278.047 118.434 279.345 119.617 280.863 120.45C282.514 121.438 286.558 123.643 290.049 123.521L289.792 117.839C287.484 117.982 285.167 117.887 282.879 117.555C280.928 117.39 279.004 116.999 277.143 116.392L277.075 117Z" fill="#484646"/>
<path d="M294.972 93.2592L294.417 108.965C294.404 109.636 294.313 110.303 294.147 110.954C293.61 113.174 292.323 115.141 290.505 116.524C288.686 117.906 286.446 118.619 284.163 118.543H283C280.858 118.467 278.797 117.7 277.127 116.357C275.457 115.013 274.266 113.165 273.733 111.089C273.499 110.17 273.395 109.223 273.422 108.275L273.977 92.5828C273.977 92.5828 276.425 95.8159 283.446 95.7483C287.424 95.7686 291.357 94.919 294.972 93.2592Z" fill="white"/>
<path d="M284.501 119.219H284.136H282.973C280.685 119.13 278.488 118.307 276.704 116.872C274.921 115.437 273.647 113.466 273.07 111.251C272.825 110.27 272.716 109.259 272.746 108.248L273.3 92.5421C273.302 92.4033 273.348 92.2686 273.43 92.1569C273.513 92.0453 273.628 91.9623 273.76 91.9198C273.894 91.8783 274.038 91.8794 274.171 91.923C274.304 91.9666 274.421 92.0506 274.504 92.1633C274.504 92.1633 276.939 95.1665 283.446 95.0583C287.306 95.0912 291.127 94.2882 294.647 92.7045C294.75 92.6451 294.867 92.6138 294.986 92.6138C295.104 92.6138 295.221 92.6451 295.324 92.7045C295.423 92.768 295.504 92.8563 295.558 92.9607C295.613 93.0651 295.639 93.182 295.635 93.2997L295.121 108.992C295.106 109.708 295.011 110.421 294.837 111.116C294.268 113.428 292.941 115.482 291.067 116.951C289.194 118.42 286.882 119.218 284.501 119.219ZM274.599 94.0031L274.098 108.262C274.015 110.714 274.908 113.099 276.582 114.892C278.257 116.686 280.575 117.741 283.027 117.826H284.19C286.315 117.888 288.397 117.222 290.09 115.937C291.783 114.653 292.986 112.827 293.497 110.764C293.645 110.152 293.727 109.527 293.741 108.897L294.255 94.2872C290.808 95.6435 287.137 96.3366 283.433 96.3299C280.315 96.5243 277.217 95.7083 274.599 94.0031Z" fill="#484646"/>
<path d="M284.407 100.699C284.407 100.699 287.667 107.896 286.219 108.032C285 107.978 283.808 107.654 282.729 107.085" fill="white"/>
<path d="M285.976 108.694C284.731 108.595 283.52 108.24 282.418 107.653C282.333 107.615 282.257 107.56 282.195 107.491C282.132 107.423 282.085 107.342 282.055 107.254C282.025 107.167 282.013 107.074 282.021 106.981C282.028 106.889 282.055 106.799 282.098 106.717C282.142 106.635 282.202 106.563 282.275 106.506C282.347 106.448 282.431 106.406 282.521 106.382C282.61 106.358 282.704 106.353 282.795 106.367C282.887 106.381 282.975 106.413 283.054 106.462C283.948 106.928 284.92 107.226 285.922 107.342C285.533 105.12 284.817 102.968 283.798 100.956C283.759 100.877 283.737 100.79 283.732 100.702C283.728 100.613 283.741 100.525 283.772 100.442C283.802 100.358 283.848 100.282 283.909 100.217C283.969 100.152 284.042 100.1 284.122 100.064C284.288 99.9899 284.475 99.984 284.645 100.047C284.814 100.111 284.952 100.238 285.029 100.402C286.097 102.769 287.734 106.936 287.085 108.167C287.002 108.31 286.887 108.431 286.748 108.52C286.609 108.609 286.451 108.665 286.287 108.681L285.976 108.694Z" fill="#484646"/>
<path d="M279.808 101.132C280.182 101.132 280.484 100.442 280.484 99.5902C280.484 98.7384 280.182 98.048 279.808 98.048C279.434 98.048 279.132 98.7384 279.132 99.5902C279.132 100.442 279.434 101.132 279.808 101.132Z" fill="#484646"/>
<path d="M289.547 101.132C289.921 101.132 290.224 100.442 290.224 99.5902C290.224 98.7384 289.921 98.048 289.547 98.048C289.174 98.048 288.871 98.7384 288.871 99.5902C288.871 100.442 289.174 101.132 289.547 101.132Z" fill="#484646"/>
<path d="M227.265 54.7993C226.002 55.0391 224.821 55.5927 223.829 56.4091C222.814 57.1531 221.745 58.1271 221.772 59.3717C221.768 59.5065 221.816 59.6376 221.908 59.7369C222.025 59.8085 222.165 59.8327 222.3 59.8046C224.147 59.6799 225.931 59.0838 227.481 58.073C226.689 58.8238 226.142 59.7966 225.913 60.8637C225.683 61.9308 225.782 63.0423 226.196 64.0523L226.453 64.1335" fill="white"/>
<path d="M226.386 64.8234H226.183L225.926 64.7423C225.832 64.7148 225.745 64.6665 225.673 64.6009C225.6 64.5353 225.543 64.4541 225.507 64.3635C224.925 62.9182 224.925 61.304 225.507 59.8587C224.514 60.2213 223.476 60.4444 222.422 60.5216C222.106 60.5649 221.785 60.4823 221.529 60.2916C221.412 60.1832 221.319 60.0513 221.256 59.9044C221.193 59.7576 221.162 59.5991 221.164 59.4393C221.228 58.7068 221.466 58.0002 221.859 57.3788C222.252 56.7574 222.789 56.2393 223.423 55.868C224.5 54.9732 225.792 54.3762 227.17 54.1364C227.259 54.1251 227.348 54.1317 227.434 54.1557C227.519 54.1798 227.599 54.2208 227.669 54.2763C227.738 54.3318 227.796 54.4008 227.838 54.479C227.88 54.5572 227.906 54.6431 227.915 54.7316C227.934 54.9091 227.882 55.0869 227.77 55.2262C227.659 55.3656 227.497 55.4553 227.319 55.4757C226.178 55.7047 225.113 56.2163 224.221 56.9637C223.099 57.7754 222.544 58.4383 222.449 59.1147C224.085 58.9559 225.659 58.4036 227.035 57.5048C227.179 57.4125 227.352 57.3779 227.52 57.408C227.688 57.4381 227.839 57.5307 227.942 57.6672C228.043 57.8013 228.091 57.9685 228.076 58.1361C228.061 58.3036 227.984 58.4596 227.86 58.5735C227.205 59.1931 226.741 59.9873 226.523 60.8623C226.305 61.7374 226.342 62.6566 226.629 63.5112C226.787 63.5775 226.915 63.7 226.987 63.855C227.06 64.01 227.072 64.1864 227.022 64.35C226.977 64.4847 226.892 64.6024 226.779 64.6871C226.665 64.7719 226.528 64.8195 226.386 64.8234Z" fill="#484646"/>
<path d="M285.651 111.305L281.958 110.061C281.958 110.061 280.389 113.551 282.418 114.768C284.447 115.986 285.651 111.305 285.651 111.305Z" fill="#484646"/>
<path d="M334.271 57.9243C334.431 57.7096 334.634 57.5304 334.867 57.3977C335.1 57.265 335.357 57.1818 335.624 57.1532C336.65 56.902 337.71 56.8243 338.762 56.9232C339.818 57.0373 340.814 57.4715 341.617 58.1678C341.792 58.305 341.92 58.4944 341.982 58.7089C341.998 58.8925 341.952 59.0761 341.851 59.2306C341.751 59.3851 341.601 59.5014 341.427 59.5611C341.077 59.6656 340.708 59.6978 340.345 59.6558L337.639 59.4665C338.431 60.0336 339.098 60.7563 339.601 61.5903C339.844 62.0042 339.963 62.4793 339.944 62.959C339.925 63.4387 339.768 63.9028 339.493 64.2959" fill="white"/>
<path d="M339.519 64.9993C339.363 64.9974 339.211 64.9452 339.087 64.8505C338.95 64.7327 338.866 64.5663 338.85 64.3868C338.835 64.2073 338.891 64.029 339.005 63.89C339.191 63.5917 339.29 63.2472 339.29 62.8957C339.29 62.5442 339.191 62.1998 339.005 61.9014C338.537 61.1495 337.926 60.4968 337.206 59.9805C337.099 59.8888 337.022 59.7657 336.988 59.6285C336.954 59.4913 336.964 59.3469 337.016 59.2155C337.068 59.0842 337.161 58.9725 337.28 58.8962C337.399 58.8198 337.538 58.7827 337.68 58.79L340.385 58.9794C340.644 59.0294 340.911 59.0294 341.17 58.9794C341.227 58.9539 341.274 58.9114 341.305 58.8577C341.26 58.8036 341.21 58.7537 341.156 58.7088C340.46 58.1082 339.596 57.7353 338.681 57.6401C337.706 57.5454 336.722 57.6187 335.772 57.8566C335.434 57.9242 334.988 58.0595 334.852 58.303C334.809 58.3812 334.75 58.45 334.68 58.5056C334.61 58.5611 334.53 58.6023 334.444 58.6268C334.358 58.6513 334.268 58.6586 334.179 58.6483C334.09 58.638 334.004 58.6103 333.926 58.5668C333.847 58.5233 333.779 58.4648 333.723 58.3947C333.668 58.3245 333.626 58.2442 333.602 58.1581C333.577 58.0721 333.57 57.982 333.58 57.8932C333.591 57.8043 333.618 57.7183 333.662 57.6401C333.867 57.3367 334.136 57.0807 334.448 56.8894C334.761 56.6981 335.111 56.5758 335.475 56.5309C336.576 56.2611 337.715 56.1833 338.843 56.3009C340.029 56.4114 341.153 56.8836 342.063 57.6537C342.355 57.8857 342.56 58.21 342.644 58.5736C342.69 58.9092 342.619 59.2504 342.445 59.5406C342.27 59.8309 342.002 60.0528 341.684 60.1699C341.251 60.3243 340.786 60.3707 340.331 60.3051H339.56C339.825 60.6164 340.06 60.9515 340.263 61.3062C340.569 61.8457 340.713 62.4621 340.677 63.0812C340.641 63.7004 340.427 64.296 340.061 64.7964C339.992 64.8697 339.908 64.9262 339.814 64.9614C339.72 64.9966 339.619 65.0096 339.519 64.9993Z" fill="#484646"/>
<path d="M284.298 212.548C284.119 212.548 283.947 212.477 283.82 212.35C283.693 212.223 283.622 212.051 283.622 211.872V179.581C283.622 179.401 283.693 179.229 283.82 179.102C283.947 178.975 284.119 178.904 284.298 178.904C284.477 178.908 284.647 178.98 284.773 179.106C284.899 179.232 284.971 179.402 284.975 179.581V211.872C284.971 212.05 284.899 212.22 284.773 212.346C284.647 212.472 284.477 212.545 284.298 212.548Z" fill="#484646"/>
</svg>
