<svg width="400" height="400" viewBox="0 0 400 400" fill="none" xmlns="http://www.w3.org/2000/svg">
<path d="M176.885 179.421C176.885 179.421 146.435 188.364 140.7 191.683C119.913 203.751 103.145 260.895 102.739 270.853C102.333 280.81 121.517 298.826 121.517 298.826L147.328 288.849C147.328 288.849 134.621 268.609 138.731 257.891C143.038 246.742 148.024 235.868 153.662 225.33C153.662 225.33 148.79 246.198 149.429 254.004C150.069 261.809 156.26 298.856 156.26 298.856H236.872C236.872 298.856 244.058 268.721 244.312 250.136C244.565 231.552 239.592 223.158 239.592 223.158C239.592 223.158 249.366 238.383 253.67 256.653C254.685 261.068 246.484 282.129 246.484 282.129C246.484 282.129 269.26 275.836 278.852 286.92C283.974 279.334 286.499 270.292 286.048 261.149C285.145 246.168 257.953 196.26 253.67 194.372C241.612 189.074 223.859 180.457 218.236 180.985C212.613 181.512 176.885 179.421 176.885 179.421Z" fill="#FF931E"/>
<path d="M199.124 193.723H192.912V214.185H199.124V193.723Z" fill="white"/>
<path d="M199.093 214.703H192.882C192.742 214.703 192.607 214.647 192.508 214.548C192.409 214.449 192.354 214.315 192.354 214.175V193.723C192.354 193.583 192.409 193.449 192.508 193.35C192.607 193.251 192.742 193.195 192.882 193.195H199.093C199.162 193.195 199.23 193.209 199.294 193.235C199.357 193.262 199.415 193.301 199.463 193.35C199.511 193.399 199.549 193.458 199.575 193.522C199.6 193.586 199.612 193.654 199.611 193.723V214.175C199.612 214.244 199.6 214.312 199.575 214.376C199.549 214.44 199.511 214.498 199.463 214.548C199.415 214.597 199.357 214.636 199.294 214.662C199.23 214.689 199.162 214.703 199.093 214.703ZM193.399 213.688H198.566V194.24H193.399V213.688Z" fill="#484646"/>
<path d="M125.161 297.77H267.301L291.925 321.735H100.527L125.161 297.77Z" fill="white"/>
<path d="M291.925 322.252H100.527C100.423 322.251 100.322 322.22 100.235 322.162C100.149 322.104 100.081 322.023 100.04 321.927C100.001 321.831 99.9914 321.726 100.013 321.625C100.035 321.523 100.086 321.431 100.161 321.359L124.795 297.395C124.894 297.301 125.025 297.25 125.161 297.253H267.261C267.396 297.253 267.526 297.304 267.626 297.395L292.25 321.359C292.325 321.431 292.377 321.523 292.398 321.625C292.42 321.726 292.411 321.831 292.372 321.927C292.334 322.017 292.272 322.094 292.193 322.151C292.115 322.209 292.022 322.243 291.925 322.252ZM101.816 321.237H290.606L267.098 298.268H125.374L101.816 321.237Z" fill="#484646"/>
<path d="M214.176 302.734H164.32L165.487 300.48H213.405L214.176 302.734Z" fill="#F2F1F1"/>
<path d="M225.179 302.734H218.206L217.282 300.48H223.981L225.179 302.734Z" fill="#F2F1F1"/>
<path d="M235.633 302.734H228.66L227.331 300.48H234.04L235.633 302.734Z" fill="#F2F1F1"/>
<path d="M256.4 302.734H239.125L237.389 300.48H253.995L256.4 302.734Z" fill="#F2F1F1"/>
<path d="M256.563 302.734H249.59L247.448 300.48H254.147L256.563 302.734Z" fill="#F2F1F1"/>
<path d="M139.188 302.734H132.205L134.621 300.48H141.32L139.188 302.734Z" fill="#F2F1F1"/>
<path d="M149.643 302.734H142.67L144.679 300.48H151.378L149.643 302.734Z" fill="#F2F1F1"/>
<path d="M160.107 302.734H153.134L154.728 300.48H161.437L160.107 302.734Z" fill="#F2F1F1"/>
<path d="M153.063 306.976H127.658L130.418 304.398H154.778L153.063 306.976Z" fill="#F2F1F1"/>
<path d="M164.005 306.976H156.524L158.098 304.398H165.274L164.005 306.976Z" fill="#F2F1F1"/>
<path d="M175.616 306.976H168.126L169.222 304.398H176.388L175.616 306.976Z" fill="#F2F1F1"/>
<path d="M187.218 306.976H179.737L180.346 304.398H187.512L187.218 306.976Z" fill="#F2F1F1"/>
<path d="M198.83 306.976H191.339L191.471 304.398H198.637L198.83 306.976Z" fill="#F2F1F1"/>
<path d="M210.431 306.976H202.94L202.585 304.398H209.761L210.431 306.976Z" fill="#F2F1F1"/>
<path d="M222.032 306.976H214.552L213.709 304.398H220.885L222.032 306.976Z" fill="#F2F1F1"/>
<path d="M233.644 306.976H226.153L224.834 304.398H232.01L233.644 306.976Z" fill="#F2F1F1"/>
<path d="M245.245 306.976H237.765L235.958 304.398H243.134L245.245 306.976Z" fill="#F2F1F1"/>
<path d="M144.162 311.889H136.092L138.691 308.895H146.405L144.162 311.889Z" fill="#F2F1F1"/>
<path d="M156.687 311.889H148.607L150.658 308.895H158.372L156.687 311.889Z" fill="#F2F1F1"/>
<path d="M169.212 311.889H161.132L162.614 308.895H170.328L169.212 311.889Z" fill="#F2F1F1"/>
<path d="M181.737 311.889H173.658L174.581 308.895H182.295L181.737 311.889Z" fill="#F2F1F1"/>
<path d="M194.252 311.889H186.183L186.548 308.895H194.262L194.252 311.889Z" fill="#F2F1F1"/>
<path d="M206.777 311.889H198.698L198.505 308.895H206.229L206.777 311.889Z" fill="#F2F1F1"/>
<path d="M219.302 311.889H211.223L210.472 308.895H218.186L219.302 311.889Z" fill="#F2F1F1"/>
<path d="M231.827 311.889H223.748L222.438 308.895H230.152L231.827 311.889Z" fill="#F2F1F1"/>
<path d="M244.342 311.889H236.273L234.395 308.895H242.119L244.342 311.889Z" fill="#F2F1F1"/>
<path d="M148.12 317.644H139.35L142.01 314.132H150.353L148.12 317.644Z" fill="#F2F1F1"/>
<path d="M161.721 317.644H152.952L154.951 314.132H163.294L161.721 317.644Z" fill="#F2F1F1"/>
<path d="M175.312 317.644H166.553L167.892 314.132H176.236L175.312 317.644Z" fill="#F2F1F1"/>
<path d="M188.913 317.644H180.143L180.834 314.132H189.177L188.913 317.644Z" fill="#F2F1F1"/>
<path d="M202.514 317.644H193.744L193.775 314.132H202.118L202.514 317.644Z" fill="#F2F1F1"/>
<path d="M216.115 317.644H207.345L206.716 314.132H215.059L216.115 317.644Z" fill="#F2F1F1"/>
<path d="M229.706 317.644H220.936L219.657 314.132H228.001L229.706 317.644Z" fill="#F2F1F1"/>
<path d="M243.307 317.644H234.537L232.599 314.132H240.942L243.307 317.644Z" fill="#F2F1F1"/>
<path d="M256.908 317.644H248.138L245.54 314.132H253.883L256.908 317.644Z" fill="#F2F1F1"/>
<path d="M271.686 317.644H260.572L257.385 314.132H267.961L271.686 317.644Z" fill="#F2F1F1"/>
<path d="M266.215 311.889H248.788L246.362 308.895H263.008L266.215 311.889Z" fill="#F2F1F1"/>
<path d="M260.948 306.977H248.747L246.494 304.398H258.187L260.948 306.977Z" fill="#F2F1F1"/>
<path d="M130.459 311.889H122.38L125.587 308.895H133.311L130.459 311.889Z" fill="#F2F1F1"/>
<path d="M134.428 317.644H116.198L119.974 314.132H137.321L134.428 317.644Z" fill="#F2F1F1"/>
<path d="M229.807 73.9528C246.991 81.5145 254.38 101.672 258.227 120.044C260.257 129.575 262.937 140.679 271.879 144.546C281.552 148.718 292.281 141.663 299.649 134.132C294.727 143.45 289.499 153.174 280.639 158.939C271.595 164.866 260.166 165.719 249.366 165.211C242.891 164.907 236.293 164.125 230.487 161.253C212.674 152.402 209.355 128.418 196.282 113.426C185.503 101.063 180.113 92.6288 194.384 80.3067C203.925 72.1359 218.054 68.8067 229.807 73.9528Z" fill="white"/>
<path d="M254.512 165.881C252.696 165.881 250.97 165.881 249.376 165.749C243.368 165.465 236.395 164.734 230.295 161.689C219.312 156.279 213.659 145.003 208.228 134.02C204.696 126.915 201.042 119.618 195.957 113.792C189.867 106.798 184.853 100.465 185.33 93.8062C185.645 89.2387 188.446 84.8336 194.12 79.9311C204.331 71.1209 218.764 68.5327 230.041 73.496C244.088 79.6774 253.497 94.8719 258.816 119.953C261.069 130.61 263.789 140.466 272.163 144.079C283.014 148.768 294.788 138.446 299.345 133.787C299.434 133.697 299.553 133.642 299.679 133.631C299.805 133.62 299.931 133.653 300.035 133.726C300.136 133.801 300.207 133.91 300.235 134.033C300.263 134.156 300.246 134.285 300.187 134.396C295.478 143.308 290.149 153.407 281.004 159.406C272.782 164.765 262.703 165.881 254.512 165.881ZM217.749 72.0446C209.302 72.1182 201.157 75.1943 194.77 80.7228C189.319 85.4324 186.649 89.6142 186.335 93.9178C185.898 100.17 190.77 106.321 196.708 113.132C201.885 119.059 205.569 126.449 209.132 133.584C214.765 144.871 220.094 155.528 230.761 160.827C236.689 163.77 243.53 164.46 249.427 164.734C258.055 165.14 270.641 164.948 280.395 158.553C288.353 153.346 293.397 144.851 297.65 136.832C291.976 141.958 281.572 149.306 271.717 145.003C262.155 140.872 259.537 128.387 257.76 120.135C252.523 95.3997 243.307 80.4488 229.594 74.4603C225.855 72.8442 221.822 72.0216 217.749 72.0446Z" fill="#484646"/>
<path d="M210.502 92.1213C212.077 92.6882 213.513 93.5844 214.714 94.7501C216.145 96.2422 216.744 97.988 218.632 99.2973C220.52 100.607 222.398 101.429 224.215 102.606C230.254 106.494 233.877 113.548 234.446 120.704C234.783 125.993 233.814 131.284 231.624 136.111C229.929 139.999 228.965 143.216 225.768 146.15C220.211 151.163 213.656 154.944 206.533 157.244C199.682 159.527 190.821 156.99 184.295 154.392C180.661 152.94 177.048 150.961 174.855 147.733C174.471 147.07 174.008 146.457 173.475 145.906C172.984 145.508 172.45 145.167 171.881 144.891C161.934 139.481 160.351 128.174 163.609 118.349C165.355 113.101 167.273 105.641 172.023 102.342C173.962 100.992 176.144 99.9774 177.941 98.4447C179.139 97.4297 180.143 96.1813 181.331 95.1358C186.406 90.7003 195.247 88.5485 201.773 89.9289C204.738 90.4179 207.658 91.1512 210.502 92.1213Z" fill="white"/>
<path d="M200.545 158.655C195.927 158.655 190.395 157.396 184.092 154.879C181.138 153.701 176.926 151.712 174.419 148.027L174.145 147.601C173.65 146.661 172.847 145.919 171.871 145.5L171.638 145.378C160.665 139.41 160.188 127.007 163.112 118.207L163.7 116.38C165.335 111.305 167.364 104.961 171.729 101.936C172.49 101.398 173.302 100.921 174.094 100.444C175.326 99.7471 176.5 98.9529 177.606 98.0692C178.205 97.5414 178.783 96.9527 179.331 96.3741C179.879 95.7956 180.397 95.2678 180.986 94.7603C186.061 90.274 195.054 87.9902 201.885 89.4417L203.63 89.7969C206.049 90.1955 208.427 90.8103 210.735 91.6341C212.383 92.2197 213.883 93.1585 215.13 94.3847C215.66 94.9815 216.145 95.6158 216.582 96.2828C217.201 97.2826 218 98.16 218.937 98.871C219.915 99.5427 220.931 100.156 221.982 100.708C222.804 101.165 223.667 101.632 224.479 102.16C230.335 105.935 234.344 113.03 234.943 120.663C235.287 126.039 234.304 131.417 232.081 136.325C231.807 136.954 231.553 137.573 231.299 138.172C229.99 141.308 228.863 144.008 226.103 146.535C220.479 151.574 213.86 155.378 206.675 157.7C204.696 158.346 202.626 158.668 200.545 158.655ZM197.5 90.0507C191.806 90.0507 185.563 92.0807 181.686 95.5418C181.138 96.029 180.61 96.5568 180.103 97.1049C179.595 97.653 178.935 98.3128 178.296 98.8609C177.145 99.7926 175.92 100.628 174.632 101.358C173.86 101.825 173.059 102.302 172.318 102.819C168.258 105.641 166.228 111.782 164.705 116.715C164.502 117.354 164.299 117.963 164.106 118.552C161.305 126.976 161.731 138.852 172.135 144.475L172.368 144.597C172.892 144.851 173.383 145.168 173.83 145.541C174.29 145.984 174.689 146.486 175.018 147.033L175.281 147.439C177.068 150.057 179.991 152.118 184.488 153.904C193.683 157.558 201.042 158.523 206.371 156.746C213.421 154.462 219.912 150.72 225.423 145.764C228.001 143.399 229.097 140.791 230.355 137.766C230.609 137.167 230.863 136.538 231.147 135.898C233.298 131.15 234.253 125.947 233.928 120.744C233.34 113.426 229.513 106.646 223.93 103.043C223.149 102.535 222.306 102.078 221.494 101.632C220.422 101.055 219.382 100.422 218.378 99.7338C217.35 98.9485 216.47 97.9861 215.78 96.8918C215.34 96.2626 214.851 95.6687 214.318 95.1155C213.165 93.9929 211.779 93.1371 210.258 92.6085C208.021 91.812 205.719 91.2142 203.377 90.8221L201.611 90.4668C200.255 90.1852 198.874 90.0458 197.49 90.0507H197.5Z" fill="#484646"/>
<path d="M210.157 180.873C210.157 180.873 201.814 193.845 196.048 193.723C190.283 193.601 183.787 181.736 183.787 181.736L184.153 175.392L185.005 160.644L185.817 146.86L209.457 146.596L210.37 157.853L210.654 161.497L210.157 180.873Z" fill="white"/>
<path d="M196.099 194.24H196.048C189.958 194.108 183.604 182.466 183.341 181.969C183.292 181.886 183.268 181.791 183.27 181.695L185.3 146.82C185.305 146.688 185.36 146.563 185.454 146.47C185.549 146.378 185.675 146.325 185.807 146.322L209.457 146.058C209.59 146.058 209.718 146.108 209.816 146.198C209.914 146.289 209.974 146.413 209.984 146.546L211.172 161.456L210.715 180.883C210.713 180.977 210.685 181.068 210.634 181.147C210.258 181.685 202.138 194.24 196.099 194.24ZM184.285 181.604C185.005 182.872 190.912 193.083 196.028 193.195H196.109C201.255 193.195 208.787 182.03 209.639 180.71L210.096 161.425L208.949 147.063L186.284 147.317L184.285 181.604Z" fill="#484646"/>
<path d="M210.624 161.486C208.762 164.719 206.121 167.434 202.94 169.383C197.865 172.672 190.314 176.387 184.122 175.382L184.975 160.634C189.504 161.231 194.092 161.214 198.616 160.583C202.595 160.136 206.736 159.649 210.34 157.843L210.624 161.486Z" fill="#484646"/>
<path d="M186.304 176.052C185.546 176.056 184.79 175.998 184.041 175.879C183.918 175.859 183.807 175.794 183.73 175.696C183.653 175.598 183.616 175.475 183.625 175.351L184.477 160.603C184.479 160.533 184.496 160.463 184.528 160.4C184.559 160.337 184.604 160.281 184.66 160.238C184.715 160.193 184.778 160.159 184.846 160.14C184.914 160.121 184.986 160.116 185.056 160.126C189.535 160.742 194.077 160.742 198.555 160.126C202.26 159.71 206.452 159.243 210.116 157.426C210.189 157.386 210.271 157.365 210.355 157.365C210.438 157.365 210.52 157.386 210.593 157.426C210.663 157.468 210.723 157.526 210.767 157.594C210.811 157.663 210.838 157.741 210.847 157.822L211.121 161.476C211.145 161.566 211.145 161.661 211.121 161.75C209.232 165.078 206.529 167.872 203.265 169.87C199.449 172.256 192.608 176.052 186.304 176.052ZM184.66 174.945C191.075 175.747 198.657 171.565 202.666 168.967C205.734 167.093 208.29 164.488 210.106 161.385L209.893 158.614C206.239 160.248 202.23 160.644 198.667 161.091C194.292 161.695 189.858 161.736 185.472 161.212L184.66 174.945Z" fill="#484646"/>
<path d="M198.586 163.953H196.17C190.659 164.012 185.349 161.881 181.409 158.026C177.469 154.172 175.221 148.911 175.16 143.399C175.078 136.832 176.956 124.337 176.956 124.337C176.956 124.337 186.548 120.886 194.079 118.044C206.716 113.294 210.116 106.433 210.116 106.433C210.509 110.974 211.506 115.442 213.08 119.719C214.44 122.825 218.723 128.377 218.723 128.377C218.723 128.377 219.089 138.629 219.14 142.912C219.175 145.644 218.67 148.356 217.656 150.893C216.641 153.429 215.136 155.741 213.227 157.695C211.318 159.65 209.042 161.209 206.53 162.282C204.017 163.356 201.318 163.924 198.586 163.953Z" fill="white"/>
<path d="M195.937 164.501C190.326 164.501 184.941 162.289 180.95 158.344C176.96 154.399 174.686 149.04 174.622 143.43C174.551 136.903 176.408 124.408 176.428 124.287C176.44 124.193 176.478 124.104 176.537 124.031C176.596 123.957 176.674 123.902 176.763 123.87C176.865 123.87 186.447 120.389 193.876 117.577C206.198 112.949 209.619 106.301 209.649 106.23C209.679 106.097 209.759 105.982 209.872 105.908C209.986 105.834 210.124 105.807 210.256 105.834C210.389 105.86 210.507 105.938 210.583 106.05C210.659 106.162 210.688 106.299 210.664 106.433C211.067 110.91 212.054 115.315 213.598 119.536C214.907 122.581 219.13 128.042 219.17 128.093C219.238 128.18 219.277 128.287 219.282 128.397C219.282 128.499 219.647 138.7 219.698 142.932C219.757 148.582 217.571 154.024 213.62 158.063C209.669 162.101 204.276 164.406 198.627 164.47H196.201L195.937 164.501ZM198.586 163.425C203.95 163.355 209.069 161.165 212.824 157.333C216.578 153.5 218.663 148.338 218.622 142.973C218.571 139.055 218.257 129.971 218.206 128.631C217.526 127.738 213.872 122.886 212.603 119.983C211.171 116.138 210.21 112.133 209.741 108.057C208.086 110.32 203.742 115.01 194.262 118.592C187.553 121.13 179.098 124.175 177.423 124.784C177.139 126.743 175.616 137.573 175.677 143.45C175.747 148.788 177.916 153.884 181.716 157.634C185.515 161.384 190.639 163.486 195.977 163.486H196.201L198.586 163.425Z" fill="#484646"/>
<path d="M196.048 142.881C195.16 142.883 194.272 142.835 193.389 142.739C193.18 142.719 192.98 142.65 192.803 142.537C192.627 142.424 192.48 142.271 192.374 142.09C190.791 139.512 195.064 127.799 195.551 126.479C195.575 126.412 195.612 126.351 195.66 126.299C195.707 126.246 195.765 126.204 195.829 126.174C195.893 126.144 195.962 126.126 196.033 126.123C196.104 126.12 196.175 126.13 196.241 126.154C196.308 126.178 196.369 126.215 196.422 126.263C196.474 126.31 196.516 126.368 196.547 126.432C196.577 126.496 196.594 126.566 196.597 126.636C196.601 126.707 196.59 126.778 196.566 126.844C194.78 131.666 192.303 139.928 193.298 141.542C193.379 141.674 193.44 141.694 193.501 141.694C195.463 141.885 197.44 141.864 199.398 141.633C199.467 141.621 199.537 141.624 199.605 141.64C199.673 141.657 199.737 141.687 199.793 141.729C199.848 141.77 199.895 141.823 199.93 141.883C199.966 141.944 199.988 142.01 199.997 142.08C200.014 142.218 199.976 142.358 199.89 142.468C199.804 142.579 199.679 142.651 199.54 142.668C198.382 142.812 197.216 142.883 196.048 142.881Z" fill="#484646"/>
<path d="M206.677 133.762C207.467 133.753 208.09 132.165 208.069 130.214C208.047 128.263 207.389 126.689 206.599 126.698C205.809 126.706 205.185 128.295 205.207 130.245C205.228 132.196 205.886 133.77 206.677 133.762Z" fill="#484646"/>
<path d="M187.743 133.32C188.534 133.312 189.157 131.723 189.135 129.773C189.114 127.822 188.456 126.248 187.666 126.256C186.875 126.265 186.252 127.853 186.273 129.804C186.295 131.755 186.953 133.329 187.743 133.32Z" fill="#484646"/>
<path d="M210.806 176.985C210.806 176.985 220.622 177.696 221.159 180.244C221.697 182.791 218.855 201.457 215.344 205.74C211.832 210.024 196.789 193.723 196.789 193.723L210.806 176.985Z" fill="white"/>
<path d="M213.699 206.989C208.371 206.989 196.891 194.616 196.444 194.088C196.359 193.993 196.312 193.87 196.312 193.743C196.312 193.616 196.359 193.493 196.444 193.398L210.472 176.65C210.522 176.585 210.589 176.533 210.666 176.501C210.742 176.469 210.826 176.458 210.908 176.468C212.613 176.59 221.139 177.341 221.738 180.132C222.337 182.923 219.424 201.67 215.81 206.075C215.573 206.361 215.275 206.591 214.938 206.747C214.601 206.904 214.233 206.983 213.862 206.979L213.699 206.989ZM197.459 193.713C200.971 197.458 209.822 206.045 213.75 205.893C213.971 205.9 214.191 205.858 214.393 205.768C214.595 205.678 214.775 205.544 214.917 205.375C218.287 201.315 221.18 182.872 220.632 180.304C220.317 178.853 214.917 177.797 211.02 177.493L197.459 193.713Z" fill="#484646"/>
<path d="M182.853 176.326C182.853 176.326 173.018 176.569 172.348 179.086C171.678 181.604 173.647 200.401 176.956 204.837C180.265 209.273 196.048 193.723 196.048 193.723L182.853 176.326Z" fill="white"/>
<path d="M178.661 206.157H178.398C178.023 206.143 177.657 206.045 177.326 205.869C176.996 205.693 176.709 205.444 176.489 205.142C173.089 200.574 171.09 181.624 171.8 178.955C172.511 176.285 181.077 175.849 182.793 175.798C182.875 175.8 182.955 175.821 183.029 175.858C183.103 175.894 183.167 175.947 183.219 176.011L196.414 193.398C196.497 193.494 196.542 193.616 196.542 193.743C196.542 193.87 196.497 193.992 196.414 194.088C195.876 194.596 184.071 206.157 178.661 206.157ZM182.549 176.853C178.641 176.985 173.191 177.777 172.805 179.218C172.145 181.756 174.165 200.27 177.332 204.522C177.467 204.699 177.641 204.842 177.839 204.942C178.038 205.043 178.256 205.097 178.479 205.101C182.366 205.405 191.674 197.235 195.318 193.662L182.549 176.853Z" fill="#484646"/>
<path d="M185.787 146.85L209.426 146.586C209.426 146.586 205.823 159.061 196.789 157.843C187.756 156.625 185.787 146.85 185.787 146.85Z" fill="white"/>
<path d="M198.007 158.452C197.576 158.451 197.145 158.42 196.718 158.36C187.411 157.102 185.289 147.053 185.269 146.952C185.254 146.875 185.257 146.796 185.276 146.721C185.295 146.645 185.331 146.575 185.381 146.515C185.429 146.456 185.489 146.408 185.557 146.374C185.626 146.341 185.701 146.323 185.777 146.322L209.426 146.058C209.507 146.059 209.587 146.078 209.66 146.115C209.732 146.152 209.794 146.206 209.842 146.272C209.891 146.336 209.925 146.41 209.941 146.489C209.957 146.568 209.954 146.65 209.934 146.728C209.893 146.86 206.442 158.452 198.007 158.452ZM186.457 147.368C187.076 149.479 189.603 156.34 196.85 157.325C204.097 158.309 207.802 149.641 208.695 147.114L186.457 147.368Z" fill="#484646"/>
<path d="M217.526 124.368H219.911C220.886 124.368 221.852 124.561 222.752 124.935C223.652 125.309 224.47 125.858 225.158 126.549C225.845 127.241 226.389 128.061 226.759 128.964C227.128 129.866 227.316 130.833 227.31 131.808V146.018C227.31 146.989 227.119 147.952 226.747 148.849C226.375 149.747 225.83 150.563 225.143 151.25C224.456 151.937 223.64 152.482 222.743 152.854C221.845 153.226 220.883 153.417 219.911 153.417H217.526V124.368Z" fill="white"/>
<path d="M219.911 153.864H217.526C217.457 153.864 217.388 153.85 217.324 153.824C217.26 153.797 217.202 153.758 217.153 153.709C217.104 153.66 217.065 153.602 217.038 153.538C217.012 153.474 216.998 153.405 216.998 153.336V124.368C216.998 124.299 217.012 124.23 217.038 124.166C217.065 124.102 217.104 124.044 217.153 123.995C217.202 123.946 217.26 123.907 217.324 123.88C217.388 123.854 217.457 123.84 217.526 123.84H219.911C222.01 123.843 224.022 124.678 225.506 126.162C226.99 127.646 227.825 129.658 227.828 131.757V145.967C227.82 148.062 226.983 150.069 225.499 151.549C224.016 153.029 222.006 153.861 219.911 153.864ZM218.054 152.849H219.911C221.734 152.846 223.482 152.12 224.771 150.83C226.059 149.539 226.783 147.79 226.783 145.967V131.808C226.78 129.986 226.055 128.24 224.767 126.952C223.479 125.664 221.733 124.939 219.911 124.936H218.054V152.849Z" fill="#484646"/>
<path d="M176.956 153.336H174.571C173.596 153.336 172.63 153.143 171.73 152.769C170.83 152.394 170.012 151.846 169.324 151.154C168.637 150.463 168.093 149.642 167.723 148.74C167.354 147.838 167.166 146.871 167.172 145.896V131.686C167.172 130.714 167.363 129.752 167.735 128.854C168.107 127.957 168.652 127.141 169.339 126.454C170.026 125.767 170.842 125.222 171.739 124.85C172.637 124.478 173.599 124.287 174.571 124.287H176.956V153.336Z" fill="white"/>
<path d="M176.956 153.864H174.571C172.47 153.861 170.457 153.025 168.972 151.538C167.488 150.052 166.654 148.037 166.654 145.937V131.808C166.657 129.709 167.492 127.697 168.976 126.213C170.46 124.728 172.472 123.893 174.571 123.891H176.956C177.025 123.891 177.093 123.904 177.157 123.931C177.22 123.958 177.278 123.997 177.326 124.046C177.374 124.095 177.412 124.153 177.437 124.217C177.463 124.281 177.475 124.35 177.474 124.419V153.387C177.464 153.517 177.405 153.638 177.309 153.727C177.213 153.815 177.087 153.864 176.956 153.864ZM174.571 124.885C173.665 124.887 172.768 125.067 171.931 125.416C171.095 125.765 170.336 126.276 169.697 126.919C169.059 127.562 168.553 128.325 168.211 129.164C167.868 130.003 167.694 130.901 167.699 131.808V146.018C167.699 147.841 168.423 149.59 169.711 150.88C171 152.171 172.748 152.897 174.571 152.899H176.428V124.885H174.571Z" fill="#484646"/>
<path d="M223.707 129.24C223.303 129.24 222.916 129.079 222.631 128.794C222.345 128.508 222.185 128.121 222.185 127.717V114.015C222.185 101.419 211.355 91.2078 198.078 91.2078C184.802 91.2078 173.932 101.459 173.932 114.055V127.748C173.932 128.152 173.771 128.539 173.486 128.824C173.2 129.11 172.813 129.27 172.409 129.27C172.005 129.27 171.618 129.11 171.332 128.824C171.047 128.539 170.887 128.152 170.887 127.748V114.015C170.846 99.7338 183.046 88.1628 198.078 88.1628C213.111 88.1628 225.27 99.7744 225.27 114.055V127.748C225.266 127.949 225.223 128.147 225.142 128.331C225.061 128.514 224.945 128.68 224.799 128.819C224.654 128.958 224.483 129.066 224.295 129.139C224.108 129.211 223.908 129.245 223.707 129.24Z" fill="#484646"/>
<path d="M169.658 151.945C169.521 151.945 169.389 151.891 169.292 151.794C169.195 151.697 169.141 151.565 169.141 151.428V131.747C169.118 131.668 169.114 131.586 169.129 131.505C169.144 131.425 169.178 131.349 169.227 131.284C169.276 131.219 169.34 131.166 169.413 131.129C169.486 131.093 169.567 131.074 169.648 131.074C169.73 131.074 169.811 131.093 169.884 131.129C169.957 131.166 170.02 131.219 170.07 131.284C170.119 131.349 170.152 131.425 170.167 131.505C170.182 131.586 170.178 131.668 170.156 131.747V151.428C170.156 151.562 170.104 151.69 170.011 151.787C169.919 151.883 169.792 151.94 169.658 151.945Z" fill="#484646"/>
<path d="M223.707 151.945C223.57 151.945 223.438 151.891 223.341 151.794C223.244 151.697 223.189 151.565 223.189 151.428V131.747C223.167 131.668 223.163 131.586 223.178 131.505C223.193 131.425 223.226 131.349 223.275 131.284C223.325 131.219 223.388 131.166 223.461 131.129C223.534 131.093 223.615 131.074 223.697 131.074C223.778 131.074 223.859 131.093 223.932 131.129C224.005 131.166 224.069 131.219 224.118 131.284C224.167 131.349 224.201 131.425 224.216 131.505C224.231 131.586 224.227 131.668 224.204 131.747V151.428C224.204 151.562 224.153 151.69 224.06 151.787C223.967 151.883 223.841 151.94 223.707 151.945Z" fill="#484646"/>
<path d="M145.481 275.085C143.806 273.001 141.697 271.307 139.3 270.122C133.271 267.442 126.105 270.122 120.888 274.182C118.431 276.08 116.107 278.374 115.102 281.287C113.417 286.23 115.833 291.63 118.919 295.842C120.141 297.688 121.76 299.238 123.659 300.379C126.141 301.563 128.967 301.808 131.616 301.069C134.239 300.316 136.729 299.159 138.995 297.638C142.568 295.405 149.48 291.792 151.175 287.702C152.87 283.611 147.887 277.846 145.481 275.085Z" fill="#484646"/>
<path d="M128.389 302.003C126.666 302.028 124.962 301.634 123.425 300.856C121.458 299.679 119.779 298.077 118.513 296.167C115.711 292.34 112.758 286.636 114.625 281.155C115.508 278.577 117.406 276.242 120.583 273.796C127.059 268.812 134.133 267.27 139.503 269.665C141.973 270.866 144.146 272.599 145.867 274.74C149.125 278.496 153.276 283.946 151.642 287.935C150.13 291.589 144.852 294.746 140.995 297.07L139.259 298.085C136.948 299.631 134.411 300.809 131.738 301.577C130.643 301.855 129.518 301.998 128.389 302.003ZM134.083 269.523C130.023 269.523 125.486 271.259 121.202 274.598C118.157 276.912 116.401 279.105 115.589 281.48C113.854 286.555 116.665 291.944 119.325 295.568C120.502 297.358 122.066 298.86 123.902 299.963C126.269 301.098 128.971 301.325 131.494 300.602C134.063 299.865 136.501 298.731 138.721 297.243L140.477 296.177C144.212 293.944 149.328 290.889 150.708 287.539C152.302 283.692 146.882 277.46 145.095 275.359C143.476 273.329 141.428 271.682 139.097 270.538C137.529 269.869 135.838 269.537 134.133 269.564L134.083 269.523Z" fill="#484646"/>
<path d="M157.255 293.893C155.997 296.775 153.997 299.272 151.459 301.13C146.384 304.804 142.091 301.485 136.711 300.592C136.711 300.592 129.525 299.394 125.13 300.592C122.603 301.282 120.735 297.547 119.812 295.811C119.022 294.409 118.539 292.856 118.394 291.253C118.249 289.65 118.445 288.035 118.969 286.514C120.999 280.627 127.272 280.617 132.52 279.815C136.417 279.216 141.411 280.83 141.411 280.83C141.411 280.83 136.113 272.436 137.513 271.045C138.914 269.655 144.507 269.442 146.506 271.441C149.257 274.192 149.034 279.135 150.739 282.606C152.109 282.464 155.55 281.135 156.91 281.439C158.615 281.825 160.442 283.469 161.721 284.626C164.699 287.246 167.09 290.466 168.735 294.076C169.348 295.206 169.666 296.474 169.658 297.76C169.639 298.404 169.419 299.026 169.03 299.539C168.641 300.052 168.101 300.431 167.486 300.623C166.228 300.897 165.01 300.105 164.015 299.293C161.612 297.303 159.555 294.93 157.925 292.269C157.702 292.797 157.478 293.345 157.255 293.893Z" fill="white"/>
<path d="M146.486 303.343C144.544 303.235 142.629 302.842 140.802 302.176C139.436 301.728 138.042 301.368 136.63 301.1C136.336 301.049 129.475 299.943 125.262 301.1C122.471 301.851 120.553 298.278 119.517 296.36L119.355 296.055C118.532 294.589 118.028 292.967 117.876 291.293C117.724 289.619 117.927 287.932 118.472 286.342C120.299 280.901 125.668 280.201 130.408 279.571C131.088 279.49 131.779 279.399 132.438 279.297C135.054 279.055 137.693 279.292 140.223 279.998C138.427 277.014 135.768 272.04 137.107 270.7C138.041 269.767 140.152 269.452 141.756 269.472C142.771 269.472 145.41 269.675 146.831 271.096C148.607 272.872 149.206 275.44 149.785 277.927C150.062 279.332 150.47 280.709 151.003 282.038C151.459 281.957 152.068 281.784 152.708 281.612C154.322 281.175 155.996 280.718 156.991 280.942C158.696 281.327 160.452 282.86 161.731 283.987L162.026 284.24C165.044 286.913 167.465 290.191 169.131 293.863C169.79 295.073 170.122 296.433 170.095 297.811C170.065 298.565 169.801 299.292 169.339 299.889C168.877 300.485 168.24 300.923 167.517 301.14C165.984 301.485 164.543 300.48 163.599 299.709C161.415 297.914 159.506 295.807 157.935 293.457C157.844 293.69 157.752 293.924 157.651 294.147C156.365 297.12 154.308 299.696 151.693 301.607C150.19 302.732 148.363 303.341 146.486 303.343ZM130.073 299.537C132.32 299.554 134.562 299.734 136.783 300.074C138.244 300.349 139.685 300.722 141.096 301.191C144.628 302.277 147.684 303.221 151.135 300.704C153.6 298.904 155.541 296.479 156.758 293.68C156.981 293.152 157.194 292.665 157.367 292.066C157.394 291.971 157.45 291.887 157.526 291.824C157.602 291.76 157.695 291.721 157.793 291.711C157.894 291.697 157.996 291.713 158.088 291.756C158.18 291.8 158.257 291.868 158.311 291.954C159.92 294.567 161.951 296.896 164.319 298.846C165.172 299.537 166.278 300.308 167.364 300.074C167.868 299.905 168.308 299.584 168.622 299.155C168.936 298.726 169.11 298.211 169.12 297.679C169.123 296.482 168.826 295.302 168.258 294.248C166.636 290.71 164.288 287.552 161.366 284.981L161.071 284.718C159.874 283.703 158.24 282.241 156.788 281.916C155.501 281.921 154.225 282.144 153.012 282.576C152.283 282.795 151.541 282.968 150.79 283.094C150.682 283.104 150.574 283.082 150.479 283.029C150.385 282.977 150.309 282.896 150.262 282.799C149.598 281.3 149.107 279.73 148.8 278.12C148.222 275.664 147.684 273.35 146.131 271.797C144.881 270.848 143.333 270.376 141.766 270.467C140.031 270.467 138.437 270.822 137.879 271.391C137.32 271.959 139.148 276.252 141.847 280.526C141.907 280.614 141.938 280.718 141.938 280.825C141.938 280.932 141.907 281.036 141.847 281.124C141.781 281.21 141.69 281.273 141.586 281.304C141.482 281.335 141.371 281.332 141.269 281.297C141.269 281.297 136.346 279.744 132.621 280.282L130.591 280.566C125.942 281.175 121.141 281.804 119.517 286.656C119.016 288.11 118.83 289.653 118.97 291.184C119.11 292.715 119.573 294.199 120.329 295.537L120.492 295.842C121.385 297.507 123.06 300.612 125.039 300.064C126.688 299.677 128.38 299.5 130.073 299.537Z" fill="#484646"/>
<path d="M136.783 278.912C136.783 278.912 137.625 300.318 136.61 302.602C135.595 304.886 132.479 304.987 131.129 303.992C129.779 302.998 128.764 292.178 128.764 292.178C128.764 292.178 128.206 302.064 127.465 303.465C125.963 306.307 122.106 306.256 121.598 296.563C121.598 296.563 121.598 304.104 119.152 304.104C116.706 304.104 116.412 302.074 116.168 298.714C115.924 295.355 115.468 289.64 119.213 284.839C122.958 280.038 135.605 278.313 136.783 278.912Z" fill="white"/>
<path d="M125.283 305.657C125.115 305.656 124.948 305.636 124.785 305.596C123.882 305.403 122.501 304.52 121.689 301.191C121.294 303.018 120.553 304.662 119.152 304.662C116.107 304.662 115.884 302.064 115.64 298.785C115.376 295.263 114.95 289.488 118.756 284.575C122.359 279.917 135.372 277.643 137.026 278.485C137.109 278.528 137.178 278.592 137.228 278.671C137.278 278.749 137.306 278.839 137.31 278.932C137.392 281.135 138.122 300.521 137.087 302.856C136.845 303.386 136.485 303.855 136.035 304.226C135.584 304.597 135.056 304.861 134.489 304.997C133.872 305.169 133.226 305.209 132.593 305.115C131.96 305.02 131.354 304.793 130.814 304.449C129.992 303.84 129.343 300.724 128.896 297.71C128.652 300.328 128.328 303.038 127.881 303.8C127.652 304.312 127.291 304.755 126.834 305.081C126.377 305.408 125.842 305.606 125.283 305.657ZM121.598 296.075C121.731 296.075 121.86 296.125 121.958 296.215C122.056 296.306 122.116 296.43 122.126 296.563C122.41 302.064 123.811 304.307 125.019 304.581C125.729 304.733 126.49 304.226 127.049 303.251C127.607 302.277 128.064 295.954 128.297 292.178C128.329 292.067 128.395 291.97 128.487 291.901C128.578 291.832 128.69 291.795 128.805 291.795C128.919 291.795 129.031 291.832 129.122 291.901C129.214 291.97 129.281 292.067 129.312 292.178C129.789 297.253 130.743 303.059 131.464 303.586C131.876 303.84 132.336 304.004 132.815 304.069C133.294 304.133 133.781 304.097 134.245 303.962C134.661 303.866 135.049 303.676 135.379 303.407C135.71 303.138 135.975 302.796 136.153 302.409C136.843 300.836 136.62 287.915 136.295 279.358C134.174 279.186 122.928 280.901 119.609 285.205C116.046 289.823 116.452 295.355 116.706 298.664C116.98 302.358 117.244 303.637 119.172 303.637C120.482 303.637 121.101 299.445 121.101 296.613C121.099 296.546 121.112 296.479 121.136 296.416C121.161 296.353 121.199 296.296 121.246 296.248C121.293 296.2 121.349 296.161 121.412 296.135C121.474 296.109 121.541 296.096 121.608 296.096L121.598 296.075Z" fill="#484646"/>
<path d="M140.802 298.268H140.68C140.613 298.254 140.549 298.226 140.492 298.186C140.436 298.146 140.388 298.095 140.352 298.036C140.316 297.977 140.292 297.912 140.282 297.843C140.272 297.775 140.276 297.705 140.294 297.638C140.796 295.336 141.886 293.204 143.459 291.45C145.032 289.695 147.033 288.38 149.267 287.631C149.397 287.608 149.53 287.634 149.642 287.705C149.753 287.776 149.834 287.886 149.868 288.013C149.902 288.14 149.888 288.276 149.827 288.393C149.767 288.51 149.665 288.6 149.541 288.646C147.487 289.341 145.648 290.557 144.205 292.176C142.762 293.796 141.764 295.762 141.309 297.882C141.278 297.993 141.212 298.091 141.121 298.16C141.029 298.23 140.917 298.268 140.802 298.268Z" fill="#484646"/>
<path d="M143.512 270.102C139.706 268.833 137.331 269.087 135.148 271.756C134.361 272.824 133.786 274.034 133.453 275.319C132.249 279.262 131.71 283.378 131.86 287.499C131.824 288.279 131.992 289.056 132.347 289.752C132.736 290.299 133.288 290.71 133.924 290.925C134.56 291.14 135.248 291.149 135.889 290.95C137.167 290.518 138.275 289.694 139.056 288.595C141.624 285.337 142.507 281.104 143.309 277.034" fill="white"/>
<path d="M134.956 291.579C134.355 291.6 133.759 291.465 133.225 291.187C132.692 290.91 132.239 290.499 131.911 289.996C131.521 289.222 131.329 288.364 131.352 287.499C131.2 283.326 131.749 279.157 132.976 275.166C133.326 273.818 133.933 272.55 134.763 271.431C137.321 268.295 140.183 268.386 143.695 269.604C143.826 269.65 143.934 269.747 143.995 269.872C144.056 269.998 144.065 270.142 144.02 270.274C143.998 270.339 143.963 270.399 143.918 270.45C143.873 270.502 143.819 270.544 143.757 270.574C143.696 270.604 143.629 270.622 143.561 270.626C143.493 270.63 143.424 270.621 143.36 270.599C139.543 269.33 137.503 269.716 135.575 272.091C134.832 273.106 134.287 274.253 133.971 275.471C132.786 279.352 132.254 283.403 132.398 287.458C132.371 288.158 132.514 288.855 132.814 289.488C133.146 289.934 133.609 290.265 134.139 290.436C134.668 290.607 135.237 290.609 135.768 290.442C136.944 290.05 137.962 289.288 138.67 288.27C141.218 285.042 142.061 280.729 142.812 276.932C142.841 276.797 142.922 276.677 143.037 276.6C143.153 276.522 143.294 276.492 143.431 276.516C143.499 276.53 143.563 276.556 143.62 276.595C143.677 276.633 143.726 276.683 143.764 276.74C143.802 276.798 143.828 276.863 143.84 276.931C143.853 276.998 143.852 277.068 143.837 277.135C143.065 281.053 142.193 285.489 139.493 288.92C138.65 290.115 137.443 291.006 136.052 291.457C135.693 291.545 135.325 291.586 134.956 291.579Z" fill="#484646"/>
<path d="M249.316 275.085C250.993 273.003 253.102 271.31 255.497 270.122C261.536 267.442 268.692 270.122 273.909 274.182C276.376 276.08 278.69 278.374 279.695 281.287C281.379 286.23 278.964 291.63 275.878 295.842C274.659 297.691 273.039 299.241 271.138 300.379C268.656 301.564 265.829 301.809 263.181 301.069C260.56 300.318 258.073 299.16 255.812 297.638C252.229 295.405 245.317 291.792 243.632 287.702C241.947 283.611 246.92 277.846 249.316 275.085Z" fill="#484646"/>
<path d="M266.418 302.003C265.286 302.001 264.158 301.861 263.059 301.587C260.387 300.817 257.85 299.639 255.538 298.095L253.812 297.08C249.955 294.766 244.677 291.609 243.165 287.945C241.52 283.977 245.672 278.526 248.94 274.75C250.657 272.61 252.827 270.877 255.294 269.675C260.673 267.28 267.748 268.823 274.224 273.806C277.401 276.252 279.299 278.587 280.172 281.165C282.049 286.646 279.096 292.33 276.284 296.177C275.021 298.09 273.341 299.693 271.372 300.866C269.837 301.64 268.137 302.03 266.418 302.003ZM260.724 269.523C258.979 269.494 257.249 269.84 255.649 270.538C253.318 271.682 251.269 273.329 249.651 275.359C247.874 277.389 242.454 283.642 244.048 287.539C245.428 290.889 250.544 293.944 254.279 296.177L256.025 297.243C258.244 298.731 260.683 299.865 263.252 300.602C265.779 301.325 268.483 301.097 270.854 299.963C272.688 298.86 274.249 297.358 275.421 295.568C278.091 291.944 280.902 286.545 279.167 281.48C278.355 279.105 276.568 276.912 273.554 274.598C269.311 271.299 264.774 269.564 260.724 269.564V269.523Z" fill="#484646"/>
<path d="M237.542 293.893C238.8 296.775 240.8 299.272 243.337 301.13C248.412 304.804 252.706 301.485 258.085 300.592C258.085 300.592 265.282 299.394 269.677 300.592C272.194 301.282 274.061 297.547 274.985 295.811C275.779 294.411 276.264 292.857 276.41 291.254C276.555 289.65 276.356 288.035 275.827 286.514C273.797 280.627 267.535 280.617 262.277 279.815C258.38 279.216 253.386 280.83 253.386 280.83C253.386 280.83 258.684 272.436 257.283 271.045C255.883 269.655 250.29 269.442 248.29 271.441C245.54 274.192 245.773 279.135 244.058 282.606C242.688 282.464 239.247 281.135 237.887 281.439C236.182 281.825 234.365 283.469 233.076 284.626C230.097 287.246 227.707 290.466 226.062 294.076C225.447 295.205 225.132 296.474 225.148 297.76C225.159 298.405 225.375 299.029 225.763 299.544C226.152 300.058 226.693 300.436 227.31 300.623C228.569 300.897 229.797 300.105 230.792 299.293C233.189 297.297 235.246 294.925 236.882 292.269C237.073 292.822 237.293 293.364 237.542 293.893Z" fill="white"/>
<path d="M248.311 303.343C246.402 303.341 244.547 302.709 243.033 301.546C240.415 299.635 238.354 297.06 237.065 294.086C236.963 293.863 236.872 293.639 236.78 293.396C235.21 295.744 233.305 297.85 231.127 299.648C230.173 300.42 228.731 301.414 227.199 301.079C226.476 300.862 225.839 300.424 225.376 299.828C224.914 299.231 224.65 298.504 224.621 297.75C224.602 296.374 224.934 295.015 225.585 293.802C227.254 290.133 229.675 286.855 232.69 284.18L232.984 283.926C234.273 282.799 236.029 281.266 237.734 280.881C238.749 280.657 240.394 281.114 242.018 281.551C242.647 281.723 243.256 281.896 243.713 281.977C244.246 280.648 244.654 279.271 244.931 277.866C245.519 275.379 246.118 272.791 247.884 271.035C250.016 268.904 255.923 268.944 257.618 270.639C258.958 271.979 256.289 276.953 254.492 279.937C257.039 279.244 259.691 279.023 262.318 279.287C262.994 279.389 263.671 279.48 264.348 279.561C269.078 280.191 274.498 280.891 276.274 286.331C276.824 287.92 277.03 289.608 276.878 291.283C276.725 292.958 276.219 294.581 275.391 296.045L275.239 296.349C274.224 298.268 272.285 301.841 269.484 301.089C265.251 299.932 258.187 301.089 258.116 301.089C256.704 301.359 255.31 301.719 253.944 302.165C252.134 302.831 250.236 303.228 248.311 303.343ZM236.922 291.691H236.983C237.083 291.701 237.177 291.741 237.254 291.804C237.331 291.867 237.389 291.951 237.42 292.046C237.589 292.596 237.793 293.135 238.029 293.66C239.242 296.461 241.184 298.886 243.652 300.683C247.093 303.191 250.148 302.247 253.69 301.171C255.098 300.701 256.536 300.328 257.994 300.054C258.298 300.003 265.353 298.846 269.808 300.054C271.838 300.602 273.462 297.496 274.366 295.832L274.528 295.527C275.28 294.187 275.741 292.703 275.879 291.172C276.017 289.642 275.83 288.099 275.33 286.646C273.716 281.825 268.905 281.195 264.256 280.556L262.226 280.272C258.501 279.693 253.629 281.236 253.579 281.287C253.476 281.321 253.366 281.322 253.262 281.291C253.159 281.261 253.067 281.199 253 281.114C252.938 281.027 252.905 280.922 252.905 280.815C252.905 280.708 252.938 280.603 253 280.515C255.7 276.232 257.557 271.959 256.969 271.38C255.771 270.183 250.523 269.97 248.717 271.786C247.154 273.339 246.616 275.654 246.047 278.1C245.738 279.714 245.245 281.288 244.576 282.789C244.531 282.886 244.457 282.967 244.364 283.02C244.271 283.073 244.164 283.095 244.058 283.083C243.303 282.959 242.557 282.786 241.825 282.566C240.615 282.14 239.342 281.917 238.059 281.906C236.608 282.231 234.963 283.662 233.766 284.707L233.471 284.971C230.52 287.522 228.143 290.67 226.498 294.208C225.923 295.259 225.622 296.44 225.625 297.638C225.64 298.169 225.816 298.682 226.129 299.11C226.443 299.538 226.88 299.861 227.381 300.034C228.467 300.267 229.574 299.496 230.426 298.806C232.798 296.855 234.832 294.527 236.445 291.914C236.498 291.838 236.57 291.779 236.654 291.741C236.738 291.704 236.831 291.69 236.922 291.701V291.691Z" fill="#484646"/>
<path d="M258.014 278.912C258.014 278.912 257.182 300.318 258.187 302.602C259.192 304.886 262.328 304.987 263.668 303.992C265.007 302.998 266.083 292.178 266.083 292.178C266.083 292.178 266.642 302.064 267.383 303.465C268.895 306.307 272.742 306.256 273.249 296.563C273.249 296.563 273.249 304.104 275.695 304.104C278.142 304.104 278.436 302.074 278.69 298.714C278.943 295.355 279.39 289.64 275.645 284.839C271.899 280.038 259.192 278.313 258.014 278.912Z" fill="white"/>
<path d="M269.524 305.657C268.949 305.611 268.398 305.407 267.931 305.069C267.464 304.731 267.098 304.27 266.875 303.739C266.317 301.753 265.993 299.709 265.911 297.649C265.464 300.694 264.815 303.739 263.982 304.388C263.444 304.735 262.838 304.963 262.204 305.058C261.571 305.152 260.924 305.111 260.308 304.936C259.742 304.798 259.214 304.534 258.764 304.163C258.314 303.792 257.953 303.324 257.71 302.795C256.695 300.46 257.405 281.074 257.486 278.871C257.492 278.777 257.522 278.687 257.574 278.609C257.626 278.53 257.697 278.467 257.781 278.425C259.425 277.582 272.437 279.856 276.051 284.515C279.867 289.447 279.431 295.233 279.177 298.725C278.923 302.216 278.73 304.662 275.655 304.662C274.254 304.662 273.513 303.018 273.128 301.191C272.305 304.52 270.925 305.403 270.022 305.596C269.859 305.637 269.692 305.657 269.524 305.657ZM266.083 291.68C266.215 291.683 266.342 291.736 266.436 291.828C266.53 291.921 266.586 292.046 266.591 292.178C266.804 295.954 267.332 302.328 267.839 303.251C268.347 304.175 269.128 304.733 269.869 304.581C271.077 304.307 272.468 302.064 272.762 296.563C272.77 296.431 272.828 296.307 272.924 296.216C273.02 296.125 273.148 296.075 273.28 296.075C273.417 296.075 273.549 296.13 273.646 296.227C273.743 296.324 273.797 296.456 273.797 296.593C273.797 299.425 274.406 303.617 275.716 303.617C277.644 303.617 277.918 302.338 278.182 298.704C278.436 295.334 278.852 289.803 275.279 285.184C271.96 280.881 260.745 279.155 258.593 279.338C258.268 287.894 258.045 300.815 258.745 302.389C258.923 302.777 259.187 303.118 259.518 303.388C259.849 303.657 260.237 303.846 260.653 303.942C261.118 304.074 261.604 304.108 262.083 304.044C262.561 303.979 263.021 303.816 263.434 303.566C264.145 303.038 265.109 297.232 265.586 292.157C265.596 292.031 265.652 291.912 265.744 291.824C265.836 291.736 265.956 291.685 266.083 291.68Z" fill="#484646"/>
<path d="M253.995 298.268C253.877 298.266 253.763 298.226 253.671 298.152C253.579 298.079 253.514 297.976 253.487 297.862C253.032 295.741 252.034 293.775 250.592 292.156C249.149 290.537 247.31 289.32 245.256 288.625C245.128 288.582 245.021 288.491 244.958 288.372C244.896 288.252 244.881 288.113 244.917 287.983C244.954 287.853 245.038 287.742 245.154 287.673C245.27 287.603 245.408 287.581 245.54 287.61C247.772 288.36 249.772 289.676 251.343 291.43C252.914 293.185 254.003 295.317 254.502 297.618C254.52 297.685 254.525 297.755 254.515 297.823C254.505 297.891 254.481 297.957 254.445 298.016C254.409 298.075 254.361 298.126 254.305 298.166C254.248 298.205 254.184 298.233 254.117 298.247L253.995 298.268Z" fill="#484646"/>
<path d="M251.295 270.102C255.101 268.833 257.476 269.087 259.648 271.756C260.44 272.822 261.015 274.032 261.343 275.319C262.551 279.261 263.093 283.378 262.947 287.499C262.973 288.278 262.806 289.053 262.46 289.752C262.069 290.3 261.515 290.711 260.878 290.926C260.24 291.141 259.55 291.149 258.907 290.95C257.631 290.516 256.523 289.692 255.741 288.595C253.173 285.337 252.3 281.104 251.498 277.034" fill="white"/>
<path d="M259.851 291.579C259.488 291.579 259.126 291.532 258.775 291.437C257.381 290.991 256.172 290.099 255.335 288.899C252.624 285.469 251.752 281.033 250.98 277.115C250.956 276.978 250.986 276.837 251.064 276.722C251.141 276.606 251.26 276.525 251.396 276.496C251.464 276.483 251.533 276.483 251.6 276.497C251.667 276.511 251.731 276.538 251.788 276.577C251.845 276.615 251.893 276.665 251.93 276.723C251.968 276.78 251.993 276.845 252.005 276.912C252.756 280.708 253.609 285.032 256.157 288.25C256.861 289.267 257.876 290.029 259.049 290.422C259.582 290.588 260.152 290.586 260.683 290.415C261.213 290.244 261.678 289.913 262.013 289.468C262.315 288.835 262.454 288.138 262.419 287.438C262.568 283.382 262.036 279.33 260.846 275.451C260.53 274.233 259.985 273.086 259.242 272.071C257.314 269.696 255.274 269.31 251.457 270.579C251.393 270.601 251.324 270.61 251.256 270.606C251.188 270.602 251.121 270.584 251.06 270.554C250.998 270.523 250.944 270.481 250.899 270.43C250.854 270.378 250.819 270.319 250.797 270.254C250.775 270.188 250.766 270.118 250.771 270.049C250.776 269.979 250.794 269.911 250.826 269.849C250.857 269.787 250.9 269.731 250.952 269.686C251.005 269.64 251.066 269.606 251.132 269.584C254.644 268.417 257.507 268.275 260.054 271.411C260.891 272.527 261.502 273.796 261.851 275.146C263.07 279.139 263.616 283.306 263.465 287.478C263.502 288.345 263.309 289.207 262.906 289.975C262.581 290.486 262.128 290.902 261.592 291.184C261.056 291.465 260.456 291.601 259.851 291.579Z" fill="#484646"/>
<path d="M290.494 328.119H101.958L100.527 321.735H291.925L290.494 328.119Z" fill="white"/>
<path d="M290.494 328.647H101.958C101.84 328.647 101.725 328.607 101.632 328.533C101.54 328.459 101.476 328.356 101.45 328.241L100.009 321.846C99.9953 321.769 99.9972 321.689 100.015 321.613C100.032 321.536 100.065 321.464 100.111 321.4C100.161 321.339 100.225 321.29 100.297 321.257C100.369 321.223 100.447 321.206 100.527 321.207H291.925C292.005 321.206 292.083 321.223 292.155 321.257C292.227 321.29 292.291 321.339 292.341 321.4C292.39 321.462 292.424 321.535 292.441 321.612C292.459 321.689 292.459 321.769 292.443 321.846L291.002 328.241C290.976 328.356 290.912 328.459 290.82 328.533C290.727 328.607 290.612 328.647 290.494 328.647ZM102.384 327.632H290.078L291.276 322.283H101.176L102.384 327.632Z" fill="#484646"/>
<path d="M176.296 165.13C175.305 165.186 174.321 164.927 173.485 164.389C169.273 161.344 171.759 149.499 171.871 149.002C171.885 148.935 171.912 148.872 171.951 148.816C171.989 148.76 172.038 148.711 172.095 148.674C172.152 148.637 172.216 148.611 172.283 148.599C172.35 148.586 172.419 148.587 172.485 148.601C172.552 148.615 172.615 148.642 172.671 148.68C172.727 148.719 172.776 148.768 172.813 148.825C172.85 148.882 172.876 148.946 172.888 149.013C172.901 149.08 172.9 149.148 172.886 149.215C172.186 152.453 171.049 161.344 174.104 163.567C177.159 165.79 187.005 160.918 190.537 158.858C190.651 158.806 190.781 158.798 190.901 158.837C191.02 158.875 191.122 158.956 191.185 159.065C191.248 159.174 191.268 159.302 191.243 159.425C191.217 159.548 191.146 159.657 191.044 159.73C190.578 159.994 181.717 165.13 176.296 165.13Z" fill="#484646"/>
<path d="M197.043 153.038L190.742 157.089C189.733 157.738 189.441 159.082 190.09 160.091C190.739 161.1 192.083 161.392 193.092 160.744L199.392 156.692C200.401 156.044 200.693 154.7 200.045 153.691C199.396 152.682 198.052 152.389 197.043 153.038Z" fill="#484646"/>
<path d="M191.927 161.578C191.733 161.578 191.539 161.557 191.349 161.517C190.831 161.405 190.358 161.141 189.99 160.76C189.621 160.379 189.374 159.897 189.28 159.376C189.185 158.854 189.247 158.317 189.459 157.83C189.67 157.344 190.02 156.932 190.466 156.645L196.769 152.585C197.367 152.2 198.093 152.068 198.787 152.218C199.482 152.369 200.089 152.789 200.474 153.387C200.859 153.984 200.991 154.71 200.84 155.405C200.69 156.1 200.27 156.706 199.672 157.091L193.369 161.151C192.94 161.431 192.439 161.579 191.927 161.578ZM198.22 153.184C197.9 153.183 197.587 153.275 197.317 153.448L191.014 157.508C190.651 157.739 190.392 158.103 190.293 158.523C190.243 158.737 190.238 158.958 190.276 159.175C190.314 159.391 190.396 159.597 190.517 159.781C190.746 160.149 191.11 160.412 191.532 160.512C191.746 160.558 191.968 160.561 192.184 160.521C192.4 160.481 192.606 160.399 192.79 160.279L199.093 156.219C199.279 156.101 199.439 155.948 199.564 155.768C199.69 155.588 199.778 155.385 199.824 155.171C199.871 154.956 199.874 154.735 199.834 154.519C199.794 154.303 199.711 154.098 199.591 153.914C199.361 153.55 198.996 153.291 198.576 153.194C198.458 153.176 198.339 153.173 198.22 153.184Z" fill="#484646"/>
<path d="M204.554 210.054C205.547 210.054 206.351 209.25 206.351 208.258C206.351 207.265 205.547 206.461 204.554 206.461C203.562 206.461 202.758 207.265 202.758 208.258C202.758 209.25 203.562 210.054 204.554 210.054Z" fill="#484646"/>
<path d="M151.5 235.226H151.388C151.321 235.214 151.256 235.188 151.199 235.151C151.141 235.114 151.092 235.065 151.053 235.009C151.014 234.952 150.987 234.888 150.973 234.821C150.959 234.754 150.959 234.684 150.972 234.617C151.033 234.252 151.338 232.749 151.784 230.557C153.175 223.696 155.753 210.937 156.748 205.527C156.78 205.4 156.86 205.29 156.972 205.219C157.083 205.149 157.216 205.123 157.346 205.148C157.475 205.172 157.59 205.245 157.667 205.351C157.745 205.458 157.779 205.59 157.763 205.72C156.748 211.14 154.19 223.909 152.799 230.77L151.987 234.83C151.961 234.94 151.899 235.039 151.811 235.11C151.722 235.182 151.613 235.223 151.5 235.226Z" fill="#484646"/>
<path d="M173.536 241.489C179.814 241.489 184.904 236.399 184.904 230.121C184.904 223.842 179.814 218.753 173.536 218.753C167.257 218.753 162.168 223.842 162.168 230.121C162.168 236.399 167.257 241.489 173.536 241.489Z" fill="#484646"/>
<path d="M166.299 224.751L166.624 224.092L166.806 223.757C166.84 223.684 166.898 223.626 166.97 223.592C167.043 223.559 167.125 223.552 167.202 223.574L167.75 223.736C167.845 223.774 167.944 223.801 168.045 223.818C168.113 223.843 168.189 223.843 168.258 223.818C168.501 223.645 168.735 223.452 168.958 223.269C168.999 223.233 169.03 223.187 169.048 223.136C169.066 223.084 169.07 223.029 169.06 222.975L168.999 222.285C168.984 222.194 168.984 222.102 168.999 222.011C169.013 221.944 169.054 221.886 169.11 221.848C169.483 221.671 169.88 221.548 170.288 221.483C170.349 221.475 170.412 221.486 170.466 221.515C170.521 221.544 170.565 221.59 170.592 221.645C170.714 221.859 170.836 222.062 170.947 222.285C170.983 222.366 171.041 222.435 171.115 222.484C171.189 222.532 171.275 222.558 171.364 222.559L172.105 222.62C172.15 222.625 172.197 222.618 172.239 222.6C172.282 222.583 172.319 222.554 172.348 222.518L172.653 222.153C172.744 222.051 172.835 221.94 172.927 221.848C172.967 221.795 173.025 221.758 173.09 221.743C173.155 221.729 173.223 221.737 173.282 221.767L174.297 222.275C174.356 222.308 174.401 222.36 174.427 222.423C174.453 222.485 174.457 222.555 174.439 222.62C174.439 222.813 174.327 222.995 174.277 223.178C174.248 223.265 174.225 223.353 174.206 223.442C174.189 223.498 174.187 223.557 174.199 223.613C174.212 223.67 174.238 223.723 174.277 223.767C174.439 223.96 174.601 224.152 174.754 224.355C174.797 224.415 174.856 224.462 174.924 224.49C174.992 224.519 175.066 224.528 175.139 224.518L175.89 224.447C175.974 224.429 176.061 224.444 176.133 224.49C176.205 224.535 176.257 224.607 176.276 224.69C176.378 225.005 176.479 225.32 176.571 225.624C176.608 225.713 176.608 225.813 176.572 225.902C176.536 225.992 176.466 226.063 176.378 226.101L175.951 226.335C175.848 226.386 175.749 226.447 175.657 226.517C175.614 226.54 175.577 226.573 175.55 226.614C175.524 226.655 175.508 226.702 175.505 226.751C175.505 227.015 175.505 227.269 175.434 227.522C175.426 227.592 175.437 227.663 175.465 227.727C175.494 227.791 175.539 227.847 175.596 227.888L175.982 228.192L176.215 228.395C176.266 228.444 176.299 228.508 176.31 228.578C176.321 228.647 176.309 228.719 176.276 228.781L175.819 229.654C175.791 229.699 175.757 229.74 175.718 229.776C175.684 229.822 175.637 229.857 175.582 229.876C175.527 229.894 175.468 229.894 175.413 229.877L174.764 229.684H174.713C174.624 229.649 174.526 229.64 174.432 229.66C174.338 229.68 174.252 229.727 174.185 229.796C174.043 229.928 173.881 230.05 173.729 230.171C173.659 230.225 173.605 230.297 173.573 230.38C173.54 230.462 173.531 230.551 173.546 230.638C173.546 230.862 173.546 231.085 173.617 231.308C173.688 231.532 173.617 231.633 173.353 231.714L172.338 232.009C172.302 232.023 172.263 232.031 172.225 232.031C172.186 232.031 172.147 232.023 172.111 232.008C172.075 231.993 172.043 231.971 172.016 231.943C171.988 231.915 171.967 231.882 171.952 231.846C171.851 231.684 171.759 231.511 171.668 231.339C171.475 230.973 171.414 230.933 171.008 230.902H170.521C170.444 230.893 170.367 230.905 170.295 230.935C170.224 230.965 170.162 231.013 170.115 231.075C169.993 231.227 169.882 231.379 169.76 231.521C169.694 231.594 169.623 231.662 169.547 231.724C169.508 231.751 169.462 231.765 169.415 231.765C169.368 231.765 169.322 231.751 169.283 231.724C168.978 231.562 168.664 231.41 168.359 231.237L168.248 231.156C168.2 231.123 168.164 231.076 168.145 231.021C168.127 230.966 168.127 230.906 168.146 230.851C168.207 230.638 168.268 230.425 168.339 230.202C168.339 230.141 168.339 230.07 168.339 230.009C168.354 229.955 168.355 229.898 168.342 229.843C168.33 229.788 168.304 229.737 168.268 229.694C168.116 229.512 167.953 229.329 167.801 229.136C167.759 229.081 167.703 229.039 167.638 229.014C167.574 228.989 167.504 228.982 167.436 228.994L166.766 229.065C166.481 229.065 166.39 229.065 166.309 228.761C166.228 228.456 166.116 228.141 166.035 227.827C166.019 227.79 166.01 227.75 166.01 227.709C166.01 227.668 166.018 227.628 166.035 227.591C166.051 227.554 166.075 227.521 166.104 227.493C166.134 227.465 166.169 227.444 166.207 227.431C166.39 227.329 166.583 227.218 166.786 227.126C166.879 227.085 166.959 227.018 167.016 226.934C167.074 226.85 167.106 226.751 167.111 226.649C167.111 226.416 167.111 226.182 167.161 225.949C167.168 225.902 167.162 225.853 167.145 225.809C167.127 225.764 167.098 225.725 167.06 225.695L166.532 225.259C166.405 225.175 166.312 225.049 166.268 224.904L166.299 224.751ZM173.465 226.974C173.503 226.686 173.484 226.393 173.408 226.112C173.332 225.832 173.2 225.569 173.022 225.339C172.843 225.11 172.621 224.918 172.368 224.775C172.114 224.632 171.835 224.542 171.546 224.508C170.971 224.45 170.395 224.617 169.941 224.975C169.487 225.333 169.189 225.853 169.11 226.426C169.038 227.002 169.196 227.582 169.549 228.042C169.903 228.502 170.423 228.804 170.998 228.882C171.286 228.924 171.579 228.907 171.861 228.832C172.142 228.758 172.405 228.628 172.635 228.45C172.865 228.272 173.057 228.05 173.2 227.796C173.342 227.543 173.432 227.263 173.465 226.974Z" fill="white"/>
<path d="M172.155 234.323C172.226 234.14 172.287 233.947 172.348 233.764C172.409 233.582 172.419 233.582 172.46 233.49C172.479 233.43 172.519 233.378 172.573 233.344C172.627 233.31 172.691 233.298 172.754 233.308L173.201 233.379C173.278 233.384 173.356 233.384 173.434 233.379C173.463 233.382 173.493 233.379 173.521 233.37C173.549 233.362 173.574 233.347 173.597 233.328C173.769 233.166 173.932 232.993 174.094 232.821C174.113 232.785 174.124 232.745 174.124 232.704C174.124 232.663 174.113 232.623 174.094 232.587C174.094 232.404 174.013 232.232 173.982 232.049C173.967 231.979 173.967 231.906 173.982 231.836C173.983 231.81 173.989 231.784 174.002 231.761C174.014 231.738 174.032 231.719 174.053 231.704C174.323 231.52 174.621 231.383 174.936 231.298C174.983 231.282 175.033 231.282 175.08 231.298C175.126 231.315 175.165 231.347 175.19 231.389C175.302 231.542 175.424 231.694 175.535 231.856C175.57 231.915 175.621 231.963 175.682 231.994C175.744 232.024 175.812 232.036 175.88 232.029H176.479C176.514 232.027 176.548 232.017 176.578 232C176.608 231.982 176.633 231.957 176.652 231.927L176.865 231.613C176.916 231.521 176.977 231.43 177.037 231.339C177.065 231.293 177.108 231.259 177.158 231.243C177.208 231.226 177.262 231.228 177.311 231.247L178.123 231.542C178.176 231.56 178.221 231.597 178.249 231.645C178.277 231.694 178.286 231.751 178.276 231.806C178.276 231.958 178.225 232.11 178.205 232.252V232.465C178.199 232.512 178.204 232.559 178.22 232.603C178.235 232.647 178.262 232.687 178.296 232.719C178.438 232.861 178.59 232.993 178.722 233.135C178.764 233.177 178.816 233.207 178.873 233.223C178.93 233.239 178.99 233.24 179.047 233.227L179.626 233.095C179.657 233.082 179.69 233.076 179.724 233.076C179.758 233.077 179.791 233.085 179.822 233.099C179.852 233.114 179.879 233.134 179.901 233.16C179.924 233.185 179.94 233.215 179.95 233.247C180.062 233.48 180.174 233.714 180.275 233.947C180.295 233.98 180.309 234.016 180.314 234.054C180.32 234.091 180.318 234.13 180.308 234.167C180.299 234.204 180.282 234.238 180.259 234.269C180.236 234.299 180.207 234.324 180.174 234.343L179.869 234.566C179.791 234.618 179.716 234.676 179.646 234.739C179.616 234.764 179.593 234.795 179.577 234.83C179.561 234.865 179.553 234.903 179.555 234.942C179.555 235.145 179.555 235.348 179.555 235.551C179.558 235.606 179.574 235.66 179.602 235.708C179.631 235.755 179.67 235.796 179.717 235.825L180.052 236.018L180.255 236.16C180.301 236.189 180.335 236.234 180.352 236.285C180.369 236.337 180.367 236.394 180.346 236.444L180.072 237.185L180.011 237.287C179.988 237.326 179.953 237.358 179.912 237.378C179.87 237.398 179.824 237.405 179.778 237.398L179.25 237.307C179.176 237.286 179.097 237.289 179.025 237.314C178.952 237.339 178.889 237.387 178.844 237.449L178.53 237.784C178.477 237.831 178.439 237.893 178.421 237.962C178.403 238.03 178.406 238.102 178.428 238.17L178.55 238.687C178.55 238.87 178.55 238.941 178.377 239.022C178.139 239.146 177.895 239.258 177.646 239.357C177.593 239.386 177.529 239.393 177.47 239.376C177.412 239.359 177.362 239.319 177.332 239.266C177.23 239.154 177.149 239.022 177.058 238.9C176.966 238.779 176.824 238.606 176.489 238.626H176.104C176.044 238.629 175.986 238.646 175.935 238.676C175.884 238.706 175.841 238.748 175.809 238.799C175.728 238.931 175.657 239.063 175.576 239.185C175.537 239.254 175.485 239.316 175.424 239.367C175.401 239.399 175.369 239.422 175.333 239.433C175.296 239.444 175.256 239.442 175.221 239.428L174.449 239.134C174.411 239.121 174.377 239.1 174.348 239.073C174.309 239.052 174.278 239.019 174.259 238.978C174.241 238.938 174.236 238.893 174.246 238.85C174.246 238.677 174.297 238.494 174.327 238.322C174.358 238.149 174.327 238.22 174.327 238.159C174.331 238.116 174.325 238.073 174.309 238.032C174.293 237.992 174.268 237.955 174.236 237.926L173.82 237.54C173.781 237.501 173.732 237.473 173.679 237.459C173.625 237.445 173.569 237.445 173.515 237.459L172.998 237.581C172.764 237.581 172.693 237.581 172.592 237.378L172.287 236.678C172.258 236.621 172.253 236.555 172.272 236.494C172.291 236.434 172.333 236.383 172.389 236.353L172.805 236.058C172.876 236.016 172.934 235.955 172.972 235.881C173.01 235.808 173.026 235.725 173.018 235.642V235.094C173.018 235.056 173.009 235.019 172.991 234.985C172.974 234.952 172.948 234.923 172.917 234.901L172.45 234.607C172.34 234.555 172.254 234.465 172.206 234.353L172.155 234.323ZM178.012 235.338C178.012 235.108 177.966 234.88 177.878 234.667C177.79 234.455 177.66 234.262 177.497 234.1C177.334 233.937 177.14 233.809 176.927 233.722C176.714 233.635 176.486 233.591 176.256 233.592C175.798 233.602 175.362 233.79 175.04 234.116C174.718 234.442 174.536 234.88 174.53 235.338C174.533 235.797 174.717 236.237 175.042 236.562C175.367 236.887 175.807 237.071 176.266 237.073C176.496 237.078 176.724 237.035 176.937 236.95C177.15 236.864 177.343 236.737 177.506 236.575C177.669 236.413 177.797 236.22 177.884 236.008C177.971 235.795 178.015 235.567 178.012 235.338Z" fill="white"/>
<path d="M235.309 228.121H208.767V233.764H235.309V228.121Z" fill="white"/>
</svg>
