<svg width="400" height="400" viewBox="0 0 400 400" fill="none" xmlns="http://www.w3.org/2000/svg">
<path d="M129.468 272.149C129.468 272.149 106.042 190.624 116.74 173.379C127.438 156.134 197.27 165.899 209.105 172.131C220.94 178.363 229.598 272.149 229.598 272.149H129.468Z" fill="white"/>
<path d="M229.618 272.656H129.468C129.358 272.658 129.25 272.623 129.162 272.557C129.074 272.491 129.01 272.397 128.981 272.291C128.027 268.952 105.636 190.35 116.314 173.115C127.479 155.109 197.889 165.645 209.359 171.684C221.316 177.967 229.771 268.261 230.126 272.108C230.133 272.178 230.125 272.249 230.102 272.316C230.079 272.382 230.042 272.443 229.994 272.494C229.946 272.545 229.887 272.586 229.823 272.614C229.758 272.642 229.689 272.656 229.618 272.656ZM129.854 271.641H229.06C228.319 263.897 219.925 178.373 208.882 172.577C196.783 166.213 127.56 156.906 117.177 173.653C107.077 189.924 128.169 265.673 129.854 271.641Z" fill="#D1D1D1"/>
<path d="M314.503 249.748C313.823 247.038 302.962 243.972 300.861 242.795C298.76 241.618 284.114 242.795 284.114 242.795C284.114 242.795 239.281 234.35 237.018 231.63C234.754 228.91 223.924 179.55 223.924 179.55C214.911 175.49 207.573 194.034 210.435 204.925C213.297 215.816 212.577 244.145 223.924 247.718C235.272 251.291 281.394 256.548 281.394 256.548C281.394 256.548 293.279 255.361 296.507 255.361C299.735 255.361 308.393 254.853 311.285 256.548C314.178 258.243 315.213 252.468 314.503 249.748Z" fill="white"/>
<path d="M312.27 257.36C311.828 257.349 311.396 257.219 311.021 256.985C308.727 255.625 302.292 255.757 298.446 255.838H296.507C293.34 255.838 281.566 257.015 281.444 257.025C281.408 257.035 281.369 257.035 281.333 257.025C280.876 257.025 235.038 251.727 223.772 248.175C215.226 245.485 213.328 229.671 211.805 216.963C211.421 212.951 210.801 208.966 209.948 205.027C207.847 197.029 211.074 185.072 216.586 180.403C218.981 178.373 221.59 177.926 224.137 179.073C224.208 179.108 224.271 179.157 224.32 179.219C224.369 179.28 224.404 179.352 224.422 179.429C228.756 199.221 235.8 229.367 237.403 231.295C239.007 233.224 266.189 238.877 284.093 242.257C285.9 242.115 298.933 241.12 301.074 242.328C302.204 242.861 303.363 243.329 304.546 243.729C309.945 245.759 314.452 247.576 314.96 249.606C315.477 251.636 315.122 255.696 313.407 256.934C313.083 257.194 312.684 257.343 312.27 257.36ZM301.917 254.772C305.591 254.772 309.631 254.985 311.539 256.102C311.721 256.254 311.951 256.337 312.189 256.337C312.426 256.337 312.656 256.254 312.838 256.102C314.026 255.208 314.513 251.818 314.016 249.829C313.599 248.154 307.733 245.972 304.231 244.663C302.998 244.246 301.791 243.754 300.618 243.191C299.176 242.379 289.98 242.785 284.154 243.252H284.012C279.404 242.379 238.936 234.695 236.622 231.924C234.308 229.153 224.878 186.107 223.488 179.926C222.436 179.505 221.284 179.401 220.175 179.629C219.065 179.856 218.047 180.404 217.246 181.205C212.069 185.569 208.943 197.252 210.932 204.793C211.8 208.775 212.427 212.805 212.81 216.862C214.302 229.275 216.149 244.734 224.076 247.231C235.079 250.692 279.577 255.828 281.393 256.031C282.408 255.939 293.371 254.843 296.507 254.843H298.425C299.491 254.792 300.678 254.772 301.917 254.772Z" fill="#484646"/>
<path d="M195.971 95.5693C195.971 95.5693 208.73 96.0159 212.465 102.187C216.2 108.358 215.743 117.463 220.514 123.39C225.02 128.943 224.493 137.499 222.178 144.056C220.301 149.405 215.581 154.206 209.917 154.277C213.429 158.337 212.516 164.934 209.207 169.197C205.898 173.46 200.823 175.907 195.819 177.926C186.126 181.844 175.519 184.778 165.288 182.737C155.056 180.697 145.414 172.405 144.896 161.96C144.653 157.048 147.363 151.323 152.255 150.795C150.083 148.401 148.582 145.476 147.902 142.315C147.223 139.154 147.389 135.87 148.385 132.795C149.38 129.719 151.17 126.961 153.573 124.798C155.976 122.635 158.907 121.145 162.07 120.477C158.365 100.695 179.954 91.1338 195.971 95.5693Z" fill="white"/>
<path d="M172.179 183.905C169.832 183.913 167.489 183.689 165.186 183.235C155.523 181.317 144.947 173.217 144.389 161.991C144.145 157.119 146.703 151.567 151.291 150.42C149.256 147.95 147.882 145.003 147.299 141.855C146.715 138.708 146.942 135.465 147.957 132.429C148.972 129.394 150.742 126.666 153.1 124.503C155.459 122.339 158.329 120.811 161.441 120.061C159.918 110.713 163.978 104.694 167.703 101.263C174.605 94.9197 186.258 92.3721 196.052 95.0618C197.138 95.0618 209.156 95.7419 212.901 101.923C214.617 104.765 215.469 108.237 216.291 111.596C217.306 115.656 218.321 119.889 220.91 123.066C225.65 128.902 224.919 137.824 222.655 144.228C220.991 148.958 216.647 154.094 210.902 154.724C214.028 159.22 212.658 165.574 209.613 169.512C206.253 173.846 201.087 176.343 196.012 178.393C189.81 180.9 181.152 183.905 172.179 183.905ZM187.932 95.0111C180.624 95.0111 173.276 97.5283 168.394 102.015C164.79 105.323 160.852 111.15 162.567 120.356C162.591 120.486 162.563 120.621 162.489 120.731C162.415 120.841 162.301 120.917 162.172 120.944C159.104 121.598 156.264 123.048 153.935 125.148C151.605 127.248 149.87 129.924 148.903 132.907C147.936 135.891 147.772 139.076 148.426 142.143C149.08 145.21 150.53 148.05 152.631 150.379C152.691 150.45 152.731 150.534 152.749 150.625C152.767 150.716 152.761 150.809 152.732 150.897C152.699 150.984 152.643 151.06 152.57 151.118C152.496 151.175 152.408 151.211 152.316 151.222C147.748 151.75 145.211 157.18 145.404 161.9C145.932 172.608 156.092 180.352 165.379 182.2C176.442 184.402 187.942 180.525 195.626 177.409C200.579 175.379 205.603 172.994 208.821 168.842C211.805 164.995 213.074 158.692 209.542 154.561C209.477 154.491 209.435 154.404 209.42 154.31C209.406 154.216 209.42 154.119 209.46 154.033C209.499 153.944 209.563 153.868 209.644 153.814C209.725 153.76 209.82 153.73 209.917 153.729C215.662 153.617 220.067 148.532 221.711 143.853C223.884 137.702 224.604 129.176 220.128 123.665C217.408 120.315 216.342 115.981 215.317 111.799C214.475 108.358 213.683 105.11 212.049 102.41C208.486 96.5437 196.093 96.0362 195.971 96.0362H195.849C193.269 95.3376 190.606 94.9927 187.932 95.0111Z" fill="#484646"/>
<path d="M138.116 176.972C132.412 197.78 140.826 226.707 140.826 226.707L210.435 223.987C210.435 223.987 221.955 203.606 225.051 190.695C229.334 172.791 211.856 166.173 206.334 161.494C201.716 157.515 143.831 156.124 138.116 176.972Z" fill="#FF931E"/>
<path d="M223.143 166.203L237.464 201.525L211.074 208.062C211.074 208.062 191.536 169.492 194.905 159.342C208.709 157.18 217.865 159.514 223.143 166.203Z" fill="#FF931E"/>
<path d="M158.903 163.057C158.903 163.057 170.068 195.75 169.053 205.94C168.038 216.131 139.141 221.054 139.141 221.054C139.141 221.054 149.697 246.358 150.032 256.203C150.367 266.049 149.2 279.548 149.2 279.548L221.701 266.353C221.701 266.353 217.509 236.532 218.524 227.956C219.539 219.379 227.132 209.513 224.919 195.131C224.158 190.127 215.784 184.615 212.526 176.861C209.268 169.106 207.451 157.119 207.451 157.119H201.361C201.361 157.119 205.949 178.19 206.436 186.351C206.923 194.511 196.022 209.95 196.022 209.95C196.022 209.95 178.767 199.424 173.996 193.314C169.226 187.204 164.658 160.834 164.658 160.834L158.903 163.057Z" fill="#484646"/>
<path d="M149.119 280.046C149.057 280.047 148.995 280.036 148.938 280.013C148.88 279.991 148.828 279.957 148.784 279.914C148.723 279.864 148.677 279.8 148.648 279.727C148.62 279.654 148.61 279.575 148.621 279.497C148.621 279.366 149.778 265.927 149.443 256.224C149.108 246.52 138.695 221.5 138.603 221.247C138.573 221.177 138.559 221.102 138.562 221.026C138.565 220.95 138.586 220.876 138.622 220.81C138.658 220.743 138.709 220.686 138.771 220.642C138.833 220.598 138.904 220.569 138.979 220.556C139.263 220.506 167.51 215.583 168.475 205.89C169.49 195.922 158.497 163.554 158.386 163.26C158.343 163.137 158.35 163.003 158.405 162.885C158.46 162.768 158.558 162.676 158.68 162.63L164.394 160.499C164.461 160.467 164.534 160.45 164.608 160.45C164.681 160.45 164.754 160.467 164.821 160.499C164.884 160.536 164.938 160.585 164.98 160.645C165.022 160.704 165.051 160.772 165.064 160.844C165.064 161.108 169.683 187.112 174.301 193.06C178.543 198.511 193.159 207.696 195.788 209.3C197.463 206.854 206.283 193.578 205.837 186.412C205.339 178.383 200.762 157.464 200.762 157.251C200.745 157.178 200.746 157.103 200.763 157.031C200.781 156.959 200.815 156.891 200.863 156.835C200.91 156.774 200.969 156.725 201.038 156.691C201.107 156.658 201.183 156.641 201.259 156.642H207.349C207.47 156.641 207.586 156.683 207.678 156.762C207.769 156.84 207.829 156.949 207.847 157.068C207.847 157.19 209.734 169.116 212.922 176.698C214.495 180.464 217.377 183.803 219.915 186.666C222.615 189.711 224.99 192.411 225.355 195.06C226.817 204.58 224.087 212.03 221.681 218.597C220.432 221.632 219.516 224.794 218.951 228.027C217.936 236.441 222.087 265.998 222.128 266.292C222.145 266.423 222.112 266.555 222.034 266.661C221.957 266.767 221.841 266.838 221.711 266.861L149.22 280.056L149.119 280.046ZM139.76 221.439C141.374 225.368 150.144 247.068 150.458 256.183C150.753 264.719 149.9 276.097 149.677 278.929L221.052 265.978C220.493 261.979 216.992 235.984 217.946 227.936C218.505 224.623 219.438 221.385 220.727 218.283C223.082 211.827 225.802 204.509 224.34 195.242C223.975 192.877 221.742 190.32 219.143 187.356C216.545 184.392 213.622 181.043 211.978 177.125C209.105 170.253 207.288 159.87 206.903 157.687H201.828C202.589 161.22 206.344 179.063 206.801 186.371C207.319 194.613 196.753 209.716 196.306 210.305C196.232 210.408 196.123 210.48 195.999 210.506C195.875 210.532 195.745 210.511 195.636 210.447C194.926 210.011 178.229 199.8 173.468 193.679C169.033 187.985 164.861 165.675 164.13 161.615L159.451 163.361C160.862 167.543 170.403 196.349 169.439 205.991C168.475 215.634 144.115 220.617 139.76 221.439Z" fill="#484646"/>
<path d="M198.275 153.059L200.589 170.689C200.589 170.689 197.697 177.967 185.841 176.779C178.543 176.059 173.245 165.614 173.245 165.614C171.357 161.889 171.591 142.655 171.591 142.655C171.591 142.655 176.666 140.727 179.457 131.988C181.609 125.207 180.066 115.748 180.066 115.748C180.066 115.748 188.298 116.661 194.55 113.9C198.826 111.789 202.447 108.554 205.025 104.542C205.025 104.542 212.231 134.627 210.008 144.178C207.958 152.968 198.275 153.059 198.275 153.059Z" fill="white"/>
<path d="M188.338 177.439C187.477 177.439 186.617 177.394 185.76 177.307C178.493 176.587 173.306 166.934 172.758 165.828C170.87 162.042 171.083 143.477 171.083 142.635C171.086 142.534 171.118 142.436 171.176 142.353C171.234 142.27 171.314 142.206 171.408 142.168C171.459 142.168 176.311 140.189 178.97 131.825C181.071 125.238 179.579 115.879 179.569 115.788C179.554 115.712 179.559 115.633 179.582 115.559C179.605 115.484 179.646 115.417 179.701 115.362C179.755 115.304 179.821 115.259 179.895 115.231C179.969 115.203 180.048 115.192 180.127 115.199C180.208 115.199 188.298 116.072 194.337 113.393C200.133 110.835 204.182 105.049 204.487 104.359C204.515 104.274 204.565 104.197 204.63 104.135C204.696 104.073 204.775 104.028 204.862 104.004C204.993 103.976 205.129 104 205.242 104.07C205.356 104.14 205.438 104.251 205.471 104.38C205.543 104.674 212.719 134.535 210.455 144.249C208.628 152.105 200.955 153.384 198.793 153.536L201.046 170.629C201.066 170.712 201.066 170.799 201.046 170.882C200.945 171.167 198.326 177.439 188.338 177.439ZM172.098 142.929C172.098 145.467 172.017 162.021 173.702 165.34C173.702 165.442 178.929 175.561 185.882 176.252C196.499 177.267 199.625 171.512 200.092 170.578L197.788 153.089C197.776 152.947 197.82 152.805 197.91 152.694C197.957 152.64 198.014 152.597 198.079 152.567C198.144 152.538 198.214 152.522 198.285 152.521C198.671 152.521 207.593 152.318 209.542 143.985C211.49 135.652 206.111 111.383 204.832 105.75C202.245 109.391 198.787 112.326 194.773 114.286C189.424 116.651 182.776 116.387 180.685 116.235C180.99 118.498 181.832 126.222 179.954 132.089C177.488 139.833 173.296 142.381 172.098 142.97V142.929Z" fill="#484646"/>
<path d="M199.503 162.336C197.488 162.575 195.445 162.319 193.55 161.59C191.656 160.862 189.968 159.682 188.633 158.154C183.923 152.876 184.979 151.932 184.979 151.932C189.279 153.273 193.821 153.657 198.285 153.059L199.503 162.336Z" fill="#484646"/>
<path d="M198.032 162.935C196.178 162.937 194.346 162.543 192.659 161.778C190.971 161.013 189.466 159.895 188.247 158.499C186.727 156.964 185.478 155.183 184.552 153.231C184.157 152.135 184.481 151.689 184.634 151.557C184.701 151.495 184.784 151.453 184.873 151.435C184.963 151.417 185.055 151.424 185.141 151.455C189.364 152.783 193.824 153.178 198.214 152.612C198.346 152.598 198.478 152.635 198.582 152.717C198.686 152.799 198.755 152.918 198.773 153.049L199.991 162.316C200.008 162.444 199.976 162.575 199.901 162.681C199.825 162.787 199.712 162.859 199.585 162.884C199.069 162.939 198.55 162.956 198.032 162.935ZM185.415 152.612C185.578 153.242 186.258 154.744 188.998 157.819C190.233 159.209 191.77 160.297 193.491 161.001C195.211 161.704 197.07 162.005 198.925 161.879L197.839 153.627C193.671 154.102 189.451 153.757 185.415 152.612Z" fill="#484646"/>
<path d="M194.337 125.106C194.337 125.106 200.041 134.383 198.539 135.905C197.037 137.428 193.058 136.22 193.058 136.22" fill="white"/>
<path d="M196.032 137.184C194.974 137.162 193.923 137.001 192.906 136.707C192.771 136.668 192.658 136.577 192.59 136.455C192.522 136.332 192.506 136.187 192.545 136.053C192.584 135.918 192.675 135.804 192.798 135.737C192.921 135.669 193.066 135.653 193.2 135.692C194.215 135.997 197.128 136.565 198.184 135.51C198.915 134.769 196.56 129.653 193.911 125.36C193.854 125.246 193.841 125.115 193.876 124.993C193.911 124.87 193.991 124.766 194.099 124.699C194.208 124.633 194.337 124.61 194.462 124.634C194.587 124.659 194.698 124.729 194.773 124.832C196.164 127.085 200.559 134.576 198.904 136.251C198.106 136.926 197.075 137.262 196.032 137.184Z" fill="#484646"/>
<path d="M195.91 147.141C190.135 147.141 187.79 140.036 187.668 139.762C187.664 139.725 187.664 139.688 187.668 139.651C187.661 139.507 187.708 139.365 187.8 139.255C188.003 139.042 188.074 138.94 201.726 138.961C201.792 138.959 201.858 138.971 201.92 138.995C201.981 139.02 202.037 139.056 202.084 139.103C202.132 139.149 202.169 139.204 202.195 139.265C202.22 139.326 202.234 139.392 202.234 139.458C202.234 139.61 202.305 143.254 200.133 145.477C199.588 146.028 198.936 146.46 198.216 146.747C197.496 147.033 196.725 147.168 195.951 147.141H195.91ZM188.876 140.036C189.566 141.691 191.789 146.126 195.91 146.126C196.55 146.147 197.187 146.039 197.784 145.807C198.381 145.575 198.924 145.224 199.381 144.776C200.5 143.422 201.133 141.732 201.178 139.976C196.824 139.976 190.815 139.996 188.876 140.057V140.036Z" fill="#484646"/>
<path d="M184.867 123.543C184.867 123.543 185.953 120.498 189.708 121.736L184.867 123.543Z" fill="white"/>
<path d="M184.867 124.05C184.786 124.05 184.705 124.031 184.633 123.993C184.561 123.955 184.499 123.901 184.452 123.834C184.405 123.767 184.375 123.69 184.364 123.61C184.353 123.529 184.362 123.447 184.39 123.37C184.39 123.37 185.689 119.858 189.871 121.249C190 121.293 190.106 121.386 190.166 121.507C190.227 121.629 190.238 121.769 190.196 121.898C190.152 122.024 190.06 122.128 189.941 122.187C189.821 122.246 189.683 122.255 189.556 122.213C186.39 121.198 185.496 123.451 185.344 123.715C185.307 123.813 185.242 123.897 185.157 123.956C185.072 124.016 184.971 124.049 184.867 124.05Z" fill="#484646"/>
<path d="M198.6 121.888C198.6 121.888 200.376 119.168 203.736 121.269L198.6 121.888Z" fill="white"/>
<path d="M198.6 122.396C198.503 122.394 198.408 122.366 198.326 122.315C198.213 122.242 198.134 122.127 198.105 121.996C198.076 121.865 198.101 121.727 198.174 121.614C198.174 121.614 200.265 118.508 204.01 120.843C204.065 120.878 204.113 120.924 204.151 120.977C204.189 121.031 204.216 121.092 204.23 121.156C204.244 121.22 204.245 121.287 204.234 121.351C204.222 121.416 204.198 121.478 204.162 121.533C204.129 121.59 204.084 121.641 204.031 121.68C203.978 121.72 203.917 121.748 203.852 121.763C203.787 121.778 203.72 121.78 203.655 121.769C203.59 121.757 203.527 121.732 203.472 121.695C200.64 119.929 199.178 121.939 199.026 122.172C198.978 122.241 198.914 122.297 198.84 122.336C198.766 122.374 198.684 122.395 198.6 122.396Z" fill="#484646"/>
<path d="M180.482 132.119C180.209 130.502 179.515 128.985 178.469 127.722C177.423 126.458 176.062 125.493 174.524 124.923C172.388 124.028 170 123.942 167.805 124.68C166.72 125.06 165.743 125.696 164.955 126.533C164.167 127.37 163.592 128.385 163.278 129.491C162.84 131.78 163.309 134.149 164.587 136.098C165.903 138.302 167.738 140.15 169.932 141.482C172.125 142.814 174.611 143.59 177.173 143.741" fill="white"/>
<path d="M177.173 144.249C174.525 144.092 171.954 143.294 169.684 141.921C167.413 140.549 165.51 138.645 164.141 136.372C162.801 134.308 162.314 131.805 162.781 129.389C163.11 128.196 163.723 127.1 164.568 126.195C165.413 125.29 166.464 124.603 167.632 124.192C169.953 123.414 172.476 123.501 174.737 124.436C176.365 125.034 177.805 126.054 178.909 127.392C180.013 128.73 180.742 130.337 181.02 132.048C181.029 132.115 181.024 132.183 181.006 132.248C180.988 132.313 180.957 132.373 180.916 132.426C180.874 132.479 180.823 132.523 180.764 132.556C180.705 132.589 180.64 132.609 180.574 132.617C180.507 132.625 180.44 132.62 180.376 132.602C180.312 132.584 180.252 132.554 180.2 132.512C180.148 132.47 180.105 132.418 180.073 132.36C180.041 132.301 180.022 132.237 180.015 132.17C179.756 130.64 179.097 129.206 178.104 128.013C177.111 126.82 175.82 125.912 174.362 125.38C172.34 124.544 170.085 124.461 168.008 125.146C166.999 125.497 166.089 126.087 165.355 126.864C164.622 127.642 164.087 128.584 163.796 129.612C163.379 131.763 163.808 133.992 164.993 135.834C166.271 137.964 168.047 139.75 170.169 141.039C172.291 142.328 174.695 143.082 177.173 143.234C177.308 143.234 177.437 143.287 177.532 143.382C177.627 143.478 177.681 143.607 177.681 143.741C177.681 143.876 177.627 144.005 177.532 144.1C177.437 144.195 177.308 144.249 177.173 144.249Z" fill="#484646"/>
<path d="M191.79 173.674C191.79 173.674 182.807 176.333 175.702 175.227C168.597 174.12 165.075 157.271 163.075 147.659C161.076 138.047 161.289 129.694 164.425 126.344C167.562 122.995 175.083 122.375 175.083 122.375L176.788 137.986C176.788 137.986 169.226 139.712 169.683 144.076C170.14 148.441 170.698 158.489 174.078 162.042C177.458 165.594 179.782 161.209 182.878 162.042C185.974 162.874 192.003 171.897 191.79 173.674Z" fill="#484646"/>
<path d="M179.498 176.008C178.204 176.015 176.911 175.923 175.631 175.734C168.15 174.577 164.669 157.789 162.588 147.761C160.436 137.387 160.984 129.267 164.06 125.999C167.287 122.558 174.717 121.939 175.032 121.878C175.097 121.871 175.163 121.877 175.226 121.896C175.289 121.915 175.348 121.946 175.399 121.987C175.45 122.029 175.492 122.08 175.523 122.138C175.554 122.196 175.573 122.259 175.58 122.325L177.285 137.935C177.303 138.059 177.273 138.184 177.201 138.286C177.13 138.388 177.021 138.459 176.899 138.484C176.828 138.484 169.794 140.168 170.15 144.056L170.261 145.254C170.677 149.923 171.459 158.601 174.402 161.727C176.168 163.595 177.447 163.006 179.163 162.265C180.308 161.588 181.66 161.346 182.969 161.585C186.308 162.478 192.53 171.735 192.287 173.765C192.278 173.864 192.239 173.957 192.176 174.034C192.112 174.11 192.027 174.165 191.931 174.191C187.881 175.324 183.703 175.934 179.498 176.008ZM174.626 122.934C172.941 123.147 167.308 124.01 164.79 126.699C161.948 129.744 161.492 137.529 163.572 147.558C165.47 156.693 169.003 173.684 175.752 174.729C181.842 175.673 189.435 173.775 191.221 173.298C190.754 171.268 185.506 163.321 182.675 162.559C181.591 162.397 180.485 162.619 179.548 163.189C177.833 163.95 175.894 164.813 173.631 162.417C170.454 159.037 169.652 150.136 169.226 145.345L169.114 144.157C168.718 139.976 174.524 138.067 176.219 137.611L174.626 122.934Z" fill="#484646"/>
<path d="M162.75 252.407C148.266 249.9 137.558 216.608 139.233 209.361C140.907 202.114 149.383 199.343 158.609 199.312C163.075 208.062 163.075 207.757 163.075 208.874C163.075 208.874 165.755 195.141 169.409 174.11C169.409 174.11 163.166 162.945 162.131 160.073C161.096 157.2 160.101 142.818 162.192 142.412C164.283 142.006 164.679 143.914 165.511 148.299C166.343 152.683 166.932 156.733 166.932 156.733C166.932 156.733 167.267 149.628 168.15 146.766C169.165 143.609 171.702 142.036 172.119 144.736C172.535 147.436 170.484 152.531 171.104 157.931C171.104 157.931 172.596 148.258 174.89 148.887C177.183 149.517 173.814 157.302 174.027 161.9C174.027 161.9 175.651 154.927 177.945 155.13C180.239 155.333 176.93 161.088 177.356 164.265C177.782 167.441 184.461 172.74 184.857 175.247C185.253 177.754 177.234 254.914 162.75 252.407Z" fill="white"/>
<path d="M163.44 252.976C163.182 252.972 162.924 252.948 162.669 252.904C158.152 252.123 153.737 248.52 149.474 242.176C141.943 230.838 137.558 214.142 138.684 209.249C140.207 202.652 147.454 198.846 158.558 198.805C158.652 198.806 158.743 198.832 158.824 198.88C158.904 198.928 158.97 198.997 159.015 199.079L161.319 203.586C162.09 205.078 162.598 206.052 162.923 206.732C163.796 202.165 166.029 190.279 168.82 174.252C168.028 172.831 162.588 163.087 161.593 160.296C160.69 157.769 159.634 145.416 161.207 142.655C161.284 142.484 161.398 142.332 161.543 142.213C161.687 142.093 161.857 142.008 162.04 141.965C162.338 141.887 162.649 141.871 162.955 141.916C163.26 141.961 163.553 142.068 163.816 142.229C164.963 143 165.338 144.98 165.958 148.258C166.232 149.709 166.485 151.13 166.698 152.379C166.839 150.454 167.148 148.545 167.622 146.675C168.302 144.431 169.794 142.828 171.073 142.909C171.53 142.909 172.342 143.224 172.565 144.726C172.658 146.341 172.518 147.962 172.149 149.537C171.946 150.674 171.743 151.871 171.611 153.12C172.159 151.201 172.91 149.314 173.854 148.694C174.016 148.581 174.201 148.504 174.396 148.471C174.591 148.437 174.791 148.448 174.981 148.502C176.798 148.999 176.179 151.882 175.397 155.525C175.265 156.155 175.123 156.794 175.001 157.444C175.742 155.911 176.727 154.642 177.955 154.734C178.154 154.74 178.349 154.791 178.525 154.884C178.701 154.978 178.853 155.11 178.97 155.272C179.569 156.134 179.132 157.697 178.594 159.687C178.085 161.159 177.831 162.707 177.843 164.265C178.046 165.787 180.056 168.091 181.832 170.131C183.608 172.171 185.121 173.907 185.334 175.206C185.76 177.744 179.244 239.425 167.571 250.996C167.047 251.582 166.413 252.059 165.704 252.399C164.995 252.738 164.225 252.934 163.44 252.976ZM162.842 251.961C163.602 252.047 164.371 251.941 165.08 251.654C165.79 251.367 166.416 250.907 166.902 250.316C178.27 239.1 184.806 177.916 184.41 175.389C184.238 174.374 182.654 172.547 181.132 170.801C179.173 168.548 177.153 166.223 176.909 164.396C176.869 162.703 177.13 161.015 177.681 159.413C178.066 158.043 178.533 156.368 178.209 155.85C178.209 155.85 178.138 155.759 177.955 155.739C176.666 155.627 175.204 159.403 174.565 162.123C174.551 162.257 174.485 162.381 174.38 162.467C174.276 162.553 174.141 162.593 174.007 162.58C173.872 162.566 173.748 162.5 173.663 162.395C173.577 162.29 173.536 162.156 173.55 162.021C173.594 159.757 173.904 157.505 174.473 155.312C175.011 152.825 175.671 149.72 174.788 149.476C174.734 149.464 174.677 149.464 174.623 149.476C174.568 149.488 174.517 149.513 174.473 149.547C173.245 150.349 172.078 155.231 171.631 158.114C171.619 158.237 171.558 158.35 171.464 158.429C171.369 158.509 171.247 158.548 171.124 158.54C171.001 158.538 170.883 158.492 170.791 158.41C170.7 158.328 170.641 158.215 170.627 158.093C170.403 155.17 170.601 152.231 171.215 149.364C171.564 147.896 171.704 146.386 171.631 144.878C171.631 144.604 171.449 143.944 171.073 143.924C170.444 143.924 169.256 145.02 168.657 146.969C167.805 149.76 167.46 156.733 167.46 156.804C167.452 156.931 167.399 157.051 167.309 157.141C167.219 157.231 167.099 157.284 166.973 157.291C166.846 157.298 166.722 157.256 166.624 157.176C166.526 157.095 166.462 156.981 166.445 156.855C166.445 156.855 165.856 152.795 165.034 148.441C164.496 145.639 164.11 143.609 163.319 143.071C163.168 142.98 162.999 142.923 162.823 142.904C162.648 142.885 162.471 142.904 162.304 142.96C161.207 143.386 161.177 155.931 162.618 159.951C163.633 162.803 169.794 173.806 169.855 173.917C169.916 174.018 169.938 174.137 169.916 174.252C166.303 195.039 163.613 208.884 163.582 209.016C163.57 209.15 163.505 209.275 163.402 209.361C163.298 209.448 163.164 209.49 163.029 209.478C162.895 209.466 162.77 209.401 162.684 209.297C162.597 209.193 162.555 209.059 162.567 208.925C162.567 208.173 162.567 208.173 160.477 204.103C159.908 203.007 159.198 201.627 158.304 199.871C153.128 199.932 141.679 201.038 139.72 209.534C138.634 214.253 142.968 230.524 150.367 241.668C154.366 247.677 158.67 251.23 162.842 251.961Z" fill="#484646"/>
<path d="M344.557 261.43H50.9073C47.9251 261.43 45.5075 263.848 45.5075 266.83V274.595C45.5075 277.577 47.9251 279.995 50.9073 279.995H344.557C347.539 279.995 349.957 277.577 349.957 274.595V266.83C349.957 263.848 347.539 261.43 344.557 261.43Z" fill="white"/>
<path d="M344.557 280.502H50.9073C49.3414 280.5 47.8404 279.876 46.7332 278.769C45.6259 277.662 45.0027 276.161 45 274.595V266.84C45 265.273 45.6221 263.769 46.7296 262.66C47.8371 261.55 49.3397 260.926 50.9073 260.923H344.557C346.125 260.926 347.627 261.55 348.735 262.66C349.842 263.769 350.464 265.273 350.464 266.84V274.595C350.462 276.161 349.838 277.662 348.731 278.769C347.624 279.876 346.123 280.5 344.557 280.502ZM50.9073 261.938C49.6088 261.941 48.3645 262.458 47.4473 263.377C46.5301 264.297 46.015 265.542 46.015 266.84V274.595C46.015 275.893 46.5304 277.137 47.4479 278.054C48.3654 278.972 49.6098 279.487 50.9073 279.487H344.557C345.854 279.487 347.099 278.972 348.016 278.054C348.934 277.137 349.449 275.893 349.449 274.595V266.84C349.449 265.542 348.934 264.297 348.017 263.377C347.1 262.458 345.855 261.941 344.557 261.938H50.9073Z" fill="#484646"/>
<path d="M342.385 279.995H50.6738V306.131H342.385V279.995Z" fill="white"/>
<path d="M342.385 306.649H50.6739C50.5401 306.646 50.4125 306.592 50.3179 306.497C50.2233 306.403 50.169 306.275 50.1664 306.141V279.995C50.169 279.861 50.2233 279.733 50.3179 279.639C50.4125 279.544 50.5401 279.49 50.6739 279.487H342.385C342.519 279.487 342.649 279.541 342.744 279.636C342.839 279.731 342.892 279.86 342.892 279.995V306.141C342.892 306.276 342.839 306.405 342.744 306.5C342.649 306.595 342.519 306.649 342.385 306.649ZM51.1814 305.634H341.877V280.502H51.1814V305.634Z" fill="#484646"/>
<path d="M133.193 261.43H48.451C46.8254 261.43 45.5075 262.748 45.5075 264.374V277.051C45.5075 278.677 46.8254 279.995 48.451 279.995H133.193C134.819 279.995 136.137 278.677 136.137 277.051V264.374C136.137 262.748 134.819 261.43 133.193 261.43Z" fill="white"/>
<path d="M133.183 280.502H48.451C47.5357 280.502 46.658 280.139 46.0108 279.492C45.3636 278.844 45 277.967 45 277.051V264.384C45 263.468 45.3633 262.589 46.0102 261.94C46.6571 261.291 47.5348 260.926 48.451 260.923H133.183C134.101 260.923 134.982 261.288 135.631 261.937C136.28 262.586 136.644 263.466 136.644 264.384V277.051C136.642 277.968 136.276 278.845 135.627 279.492C134.978 280.139 134.099 280.502 133.183 280.502ZM48.451 261.938C48.1302 261.938 47.8126 262.001 47.5164 262.124C47.2202 262.247 46.9512 262.428 46.7249 262.655C46.4986 262.882 46.3193 263.152 46.1975 263.449C46.0757 263.746 46.0137 264.063 46.015 264.384V277.051C46.015 277.697 46.2717 278.317 46.7285 278.774C47.1853 279.231 47.8049 279.487 48.451 279.487H133.183C133.83 279.487 134.451 279.231 134.909 278.774C135.368 278.318 135.627 277.698 135.629 277.051V264.384C135.629 263.735 135.372 263.113 134.913 262.654C134.454 262.196 133.832 261.938 133.183 261.938H48.451Z" fill="#484646"/>
<path d="M133.904 279.995H47.7405V306.131H133.904V279.995Z" fill="white"/>
<path d="M133.894 306.649H47.7405C47.6059 306.649 47.4768 306.595 47.3817 306.5C47.2865 306.405 47.233 306.276 47.233 306.141V279.995C47.233 279.86 47.2865 279.731 47.3817 279.636C47.4768 279.541 47.6059 279.487 47.7405 279.487H133.894C134.028 279.487 134.157 279.541 134.253 279.636C134.348 279.731 134.401 279.86 134.401 279.995V306.141C134.401 306.276 134.348 306.405 134.253 306.5C134.157 306.595 134.028 306.649 133.894 306.649ZM48.248 305.634H133.386V280.502H48.2683L48.248 305.634Z" fill="#484646"/>
<path d="M335.686 257.178H246.355L264.169 200.48H353.499L335.686 257.178Z" fill="white"/>
<path d="M335.686 257.685H246.366C246.285 257.688 246.205 257.671 246.132 257.636C246.06 257.601 245.997 257.548 245.949 257.483C245.901 257.419 245.869 257.343 245.857 257.263C245.845 257.183 245.852 257.102 245.879 257.025L263.682 200.317C263.717 200.215 263.783 200.127 263.87 200.063C263.957 200 264.061 199.964 264.169 199.962H353.489C353.57 199.963 353.65 199.983 353.722 200.02C353.794 200.057 353.857 200.11 353.905 200.175C353.951 200.239 353.982 200.312 353.994 200.39C354.007 200.468 354 200.547 353.976 200.622L336.163 257.33C336.131 257.432 336.068 257.521 335.982 257.585C335.896 257.648 335.793 257.684 335.686 257.685ZM247.046 256.67H335.351L352.768 200.977H264.463L247.046 256.67Z" fill="#484646"/>
<path d="M335.808 257.178H210.435V261.43H335.808V257.178Z" fill="white"/>
<path d="M335.818 261.938H210.435C210.3 261.938 210.171 261.885 210.076 261.789C209.981 261.694 209.927 261.565 209.927 261.43V257.157C209.93 257.024 209.984 256.896 210.079 256.801C210.174 256.707 210.301 256.652 210.435 256.65H335.818C335.952 256.652 336.079 256.707 336.174 256.801C336.268 256.896 336.323 257.024 336.325 257.157V261.41C336.328 261.479 336.317 261.547 336.293 261.611C336.268 261.675 336.231 261.733 336.184 261.782C336.137 261.832 336.08 261.871 336.017 261.898C335.954 261.924 335.886 261.938 335.818 261.938ZM210.973 260.923H335.31V257.685H210.942L210.973 260.923Z" fill="#484646"/>
<path d="M246.356 261.938C246.221 261.938 246.092 261.885 245.997 261.789C245.902 261.694 245.848 261.565 245.848 261.43V257.157C245.848 257.023 245.902 256.894 245.997 256.798C246.092 256.703 246.221 256.65 246.356 256.65C246.489 256.652 246.617 256.707 246.712 256.801C246.806 256.896 246.861 257.024 246.863 257.157V261.41C246.866 261.479 246.855 261.547 246.83 261.611C246.806 261.675 246.769 261.733 246.722 261.782C246.674 261.832 246.618 261.871 246.555 261.898C246.492 261.924 246.424 261.938 246.356 261.938Z" fill="#484646"/>
<path d="M301.54 235.042C306.524 234.52 310.33 231.859 310.041 229.099C309.752 226.34 305.477 224.526 300.493 225.048C295.509 225.57 291.703 228.23 291.992 230.99C292.281 233.75 296.556 235.564 301.54 235.042Z" fill="#D1D1D1"/>
<path d="M109.798 255.381C108.401 255.381 107.01 255.207 105.656 254.863C105.59 254.847 105.527 254.817 105.472 254.776C105.417 254.735 105.37 254.684 105.335 254.625C105.299 254.566 105.276 254.501 105.266 254.433C105.256 254.365 105.259 254.296 105.276 254.229C105.292 254.162 105.322 254.1 105.363 254.045C105.404 253.989 105.455 253.943 105.514 253.907C105.573 253.872 105.638 253.849 105.706 253.839C105.774 253.828 105.843 253.832 105.91 253.848C108.201 254.425 110.592 254.488 112.91 254.032C115.228 253.575 117.417 252.612 119.318 251.209C119.948 250.754 120.506 250.207 120.973 249.585C120.516 249.58 120.063 249.498 119.633 249.342C119.234 249.193 118.87 248.964 118.563 248.669C118.255 248.374 118.012 248.019 117.847 247.626C117.721 247.342 117.656 247.034 117.656 246.723C117.656 246.412 117.721 246.104 117.847 245.82C118.05 245.417 118.382 245.093 118.79 244.9C119.198 244.707 119.659 244.656 120.1 244.754C120.716 244.842 121.291 245.117 121.747 245.541C122.202 245.966 122.517 246.52 122.647 247.129C122.719 247.546 122.719 247.971 122.647 248.388L123.236 248.256C125.266 247.769 127.53 247.119 128.961 245.525C129.042 245.434 129.113 245.333 129.194 245.231C128.466 244.547 127.979 243.647 127.804 242.663C127.657 242.069 127.692 241.443 127.906 240.869C128.119 240.295 128.501 239.799 129.001 239.446C129.087 239.384 129.19 239.352 129.296 239.352C129.401 239.352 129.504 239.384 129.59 239.446C130.006 239.768 130.349 240.174 130.597 240.637C130.845 241.1 130.993 241.611 131.031 242.135C131.113 243.115 130.924 244.098 130.483 244.977C130.681 245.089 130.893 245.174 131.113 245.231C134.005 245.952 136.614 243.343 137.345 242.521C137.593 242.247 137.817 241.951 138.015 241.638C137.191 241.195 136.441 240.627 135.792 239.953C135.734 239.889 135.692 239.813 135.67 239.73C135.58 239.369 135.637 238.988 135.827 238.669C136.017 238.349 136.325 238.118 136.685 238.025C137.166 237.834 137.7 237.824 138.189 237.995C138.677 238.167 139.087 238.509 139.344 238.958C139.635 239.664 139.635 240.455 139.344 241.161C140.456 241.638 141.66 241.86 142.869 241.811C144.078 241.763 145.261 241.445 146.331 240.881C147.401 240.316 148.332 239.52 149.054 238.55C149.777 237.58 150.274 236.461 150.509 235.274L150.266 235C150.036 234.691 149.876 234.336 149.795 233.959C149.715 233.583 149.716 233.194 149.799 232.818C149.854 232.524 149.974 232.246 150.15 232.004C150.325 231.762 150.552 231.561 150.814 231.417C150.885 231.384 150.963 231.367 151.042 231.367C151.121 231.367 151.199 231.384 151.27 231.417C151.342 231.452 151.403 231.504 151.451 231.567C151.499 231.631 151.531 231.704 151.545 231.782C151.727 232.806 151.727 233.854 151.545 234.878C152.142 235.233 152.819 235.432 153.514 235.457C154.701 235.49 155.881 235.25 156.961 234.755C158.042 234.261 158.994 233.525 159.746 232.604C160.575 231.65 161.182 230.523 161.522 229.306C161.433 229.233 161.348 229.155 161.268 229.072C161.017 228.739 160.854 228.347 160.795 227.933C160.737 227.519 160.784 227.098 160.933 226.707C161.013 226.398 161.177 226.117 161.406 225.895C161.635 225.673 161.921 225.519 162.232 225.449C162.297 225.434 162.364 225.432 162.43 225.444C162.495 225.455 162.557 225.479 162.613 225.515C162.669 225.551 162.717 225.598 162.755 225.653C162.792 225.708 162.818 225.769 162.831 225.834C163.046 226.836 163.064 227.871 162.882 228.879C163.581 229.129 164.324 229.229 165.064 229.174C167.226 229.113 170.139 228.616 171.865 226.575C172.425 225.906 172.777 225.087 172.88 224.221C172.299 223.848 171.809 223.348 171.449 222.759C171.178 222.34 170.998 221.869 170.919 221.376C170.84 220.883 170.865 220.379 170.992 219.897C171.011 219.824 171.047 219.757 171.096 219.701C171.145 219.645 171.207 219.601 171.276 219.572C171.344 219.539 171.419 219.523 171.494 219.523C171.57 219.523 171.644 219.539 171.713 219.572C172.268 219.866 172.748 220.284 173.115 220.795C173.481 221.306 173.724 221.895 173.824 222.515C173.897 222.876 173.934 223.243 173.935 223.612C174.11 223.681 174.29 223.735 174.473 223.774C175.34 223.885 176.22 223.764 177.024 223.423C177.829 223.083 178.528 222.535 179.051 221.835C179.309 221.525 179.527 221.184 179.701 220.82C179.243 220.882 178.778 220.882 178.32 220.82C178.186 220.8 178.063 220.732 177.975 220.627C177.575 220.108 177.297 219.505 177.164 218.864C177.03 218.222 177.044 217.558 177.204 216.923C177.218 216.846 177.252 216.774 177.302 216.714C177.351 216.654 177.415 216.607 177.488 216.578C177.8 216.449 178.137 216.391 178.474 216.409C178.811 216.426 179.14 216.519 179.437 216.679C179.81 216.874 180.139 217.144 180.403 217.472C180.667 217.801 180.86 218.181 180.969 218.587C181.02 218.8 181.051 219.018 181.061 219.237C182.833 218.045 184.301 216.452 185.344 214.588C185.969 213.702 186.465 212.732 186.816 211.706C186.025 211.654 185.258 211.41 184.583 210.995C184.048 210.707 183.618 210.258 183.353 209.711C183.089 209.164 183.004 208.548 183.111 207.95C183.131 207.845 183.184 207.749 183.263 207.676C183.584 207.387 183.981 207.195 184.406 207.121C184.832 207.048 185.269 207.096 185.669 207.26C186.249 207.465 186.764 207.819 187.165 208.285C187.566 208.752 187.837 209.315 187.953 209.919C187.989 210.147 188.006 210.378 188.003 210.609C188.371 210.523 188.717 210.361 189.018 210.132C190.937 208.65 191.383 205.91 191.566 203.159C191.664 202.26 191.634 201.35 191.475 200.459C191.258 200.709 191.005 200.925 190.724 201.099C190.363 201.319 189.958 201.454 189.537 201.494C189.117 201.535 188.693 201.479 188.298 201.332C188 201.226 187.73 201.051 187.512 200.822C187.293 200.593 187.131 200.316 187.039 200.013C186.93 199.607 186.963 199.176 187.133 198.792C187.303 198.408 187.599 198.094 187.973 197.902C188.484 197.583 189.081 197.432 189.682 197.47C190.283 197.509 190.856 197.734 191.322 198.115L191.515 198.318C191.602 198.082 191.677 197.841 191.739 197.597C192.412 195.122 192.598 192.541 192.287 189.995V189.893C191.657 190.034 190.998 189.955 190.419 189.67C190.089 189.512 189.815 189.258 189.634 188.94C189.453 188.623 189.372 188.258 189.404 187.894C189.395 187.84 189.395 187.785 189.404 187.731C189.505 187.512 189.658 187.32 189.848 187.172C190.039 187.023 190.263 186.923 190.5 186.879C190.813 186.82 191.135 186.832 191.443 186.915C191.75 186.997 192.035 187.148 192.276 187.356C192.563 187.618 192.788 187.941 192.936 188.3C193.489 187.358 193.691 186.25 193.505 185.174C193.199 181.245 191.697 177.504 189.201 174.455C189.115 174.351 189.073 174.217 189.085 174.082C189.096 173.948 189.16 173.823 189.262 173.734C189.368 173.652 189.502 173.614 189.636 173.627C189.77 173.64 189.894 173.704 189.983 173.806C192.574 177.03 194.124 180.966 194.428 185.092C194.591 187.122 194.185 188.543 193.19 189.406L193.251 189.832C193.582 192.514 193.386 195.235 192.672 197.841C192.54 198.352 192.363 198.852 192.145 199.333C192.573 200.574 192.709 201.898 192.54 203.2C192.337 206.184 191.84 209.178 189.597 210.904C189.083 211.294 188.479 211.549 187.841 211.645C187.485 212.89 186.922 214.067 186.176 215.126C184.826 217.217 183.131 219.511 180.878 220.424C180.685 221.164 180.339 221.856 179.863 222.454C179.223 223.299 178.369 223.957 177.389 224.361C176.41 224.764 175.34 224.898 174.291 224.748L173.864 224.637C173.7 225.575 173.298 226.456 172.697 227.195C170.738 229.529 167.51 230.097 165.146 230.158C164.314 230.212 163.48 230.106 162.689 229.844C162.301 231.12 161.648 232.3 160.771 233.305C159.913 234.348 158.825 235.178 157.592 235.731C156.359 236.284 155.016 236.545 153.666 236.492C152.926 236.46 152.201 236.277 151.534 235.954C151.213 237.244 150.614 238.448 149.78 239.482C148.945 240.516 147.895 241.356 146.702 241.943C145.51 242.529 144.204 242.849 142.875 242.878C141.546 242.908 140.227 242.648 139.009 242.115C138.768 242.519 138.486 242.896 138.167 243.242C135.964 245.708 133.264 246.835 130.94 246.287C130.624 246.206 130.32 246.083 130.037 245.921C129.945 246.043 129.844 246.165 129.742 246.277C128.118 248.104 125.682 248.804 123.51 249.322C123.104 249.423 122.688 249.514 122.272 249.575C121.7 250.577 120.917 251.443 119.978 252.113C117.023 254.266 113.454 255.412 109.798 255.381ZM119.704 245.769C119.517 245.762 119.332 245.807 119.169 245.898C119.006 245.989 118.872 246.124 118.78 246.287C118.709 246.446 118.672 246.619 118.672 246.794C118.672 246.969 118.709 247.142 118.78 247.302C118.892 247.561 119.055 247.795 119.259 247.99C119.463 248.186 119.704 248.338 119.968 248.438C120.464 248.604 120.99 248.663 121.511 248.611C121.66 248.199 121.708 247.757 121.653 247.322C121.553 246.93 121.339 246.576 121.037 246.307C120.735 246.037 120.359 245.864 119.958 245.81L119.704 245.769ZM129.265 240.562C129.038 240.829 128.876 241.144 128.791 241.484C128.707 241.824 128.702 242.179 128.778 242.521C128.91 243.202 129.226 243.834 129.692 244.348C129.955 243.706 130.062 243.01 130.006 242.318C129.968 241.665 129.706 241.045 129.265 240.562ZM136.665 239.385C137.196 239.925 137.805 240.383 138.471 240.745C138.639 240.31 138.639 239.829 138.471 239.395C138.316 239.181 138.093 239.026 137.839 238.955C137.585 238.883 137.315 238.898 137.071 238.999C136.726 239.111 136.665 239.273 136.665 239.385ZM161.948 226.839C161.927 226.888 161.91 226.939 161.898 226.992C161.8 227.326 161.818 227.683 161.948 228.007C161.99 227.619 161.99 227.227 161.948 226.839ZM171.845 220.881C171.882 221.342 172.028 221.787 172.271 222.18C172.425 222.434 172.613 222.667 172.829 222.871C172.834 222.806 172.834 222.742 172.829 222.678C172.688 221.985 172.329 221.355 171.804 220.881H171.845ZM178.615 219.866C179.081 219.894 179.548 219.839 179.995 219.704C180.024 219.422 180.007 219.138 179.944 218.861C179.868 218.597 179.738 218.351 179.564 218.138C179.389 217.925 179.174 217.75 178.929 217.623C178.665 217.492 178.369 217.443 178.077 217.481C177.949 218.297 178.126 219.132 178.574 219.826L178.615 219.866ZM184.035 208.336C184.019 208.707 184.105 209.076 184.284 209.402C184.463 209.727 184.728 209.998 185.05 210.183C185.617 210.519 186.259 210.707 186.917 210.731C186.943 210.519 186.943 210.304 186.917 210.092C186.833 209.669 186.639 209.275 186.356 208.949C186.073 208.624 185.71 208.377 185.303 208.234C185.097 208.138 184.869 208.093 184.641 208.104C184.413 208.114 184.191 208.18 183.994 208.295L184.035 208.336ZM189.516 198.511C189.141 198.505 188.772 198.604 188.45 198.795C188.269 198.873 188.122 199.013 188.035 199.19C187.947 199.366 187.925 199.568 187.973 199.759C188.023 199.908 188.107 200.043 188.217 200.154C188.328 200.265 188.464 200.349 188.612 200.399C188.86 200.491 189.125 200.527 189.388 200.505C189.652 200.482 189.907 200.401 190.135 200.267C190.48 200.034 190.771 199.729 190.987 199.373C190.869 199.192 190.729 199.025 190.571 198.876C190.425 198.738 190.253 198.631 190.065 198.561C189.876 198.491 189.676 198.46 189.475 198.47L189.516 198.511ZM190.297 188.097C190.312 188.248 190.368 188.392 190.46 188.514C190.551 188.636 190.674 188.73 190.815 188.787C191.185 188.973 191.609 189.023 192.013 188.929C191.919 188.623 191.747 188.347 191.515 188.127C191.398 188.024 191.258 187.948 191.106 187.908C190.955 187.867 190.796 187.863 190.642 187.894C190.499 187.901 190.362 187.959 190.257 188.056L190.297 188.097Z" fill="#D1D1D1"/>
<path d="M158.609 199.82C158.498 199.819 158.39 199.782 158.302 199.714C158.214 199.647 158.151 199.552 158.122 199.444L151.534 174.242C151.517 174.175 151.513 174.106 151.523 174.038C151.532 173.969 151.555 173.904 151.59 173.844C151.625 173.785 151.671 173.733 151.726 173.692C151.781 173.65 151.843 173.62 151.91 173.603C151.977 173.585 152.046 173.581 152.114 173.591C152.182 173.6 152.248 173.623 152.308 173.658C152.367 173.693 152.419 173.739 152.46 173.794C152.502 173.849 152.532 173.911 152.549 173.978L159.137 199.191C159.154 199.254 159.158 199.32 159.149 199.385C159.14 199.45 159.119 199.512 159.086 199.569C159.053 199.626 159.009 199.675 158.957 199.715C158.904 199.754 158.845 199.783 158.782 199.8L158.609 199.82Z" fill="#484646"/>
<path d="M204.873 211.168L219.621 208.062V213.116L204.873 216.172V211.168Z" fill="white"/>
<path d="M102.256 124.974H57.9819V168.284H102.256V124.974Z" fill="white"/>
<path d="M102.256 168.791H57.9819C57.8473 168.791 57.7182 168.738 57.623 168.643C57.5278 168.548 57.4744 168.419 57.4744 168.284V124.974C57.4744 124.839 57.5278 124.71 57.623 124.615C57.7182 124.52 57.8473 124.466 57.9819 124.466H102.256C102.391 124.466 102.52 124.52 102.615 124.615C102.71 124.71 102.764 124.839 102.764 124.974V168.284C102.764 168.419 102.71 168.548 102.615 168.643C102.52 168.738 102.391 168.791 102.256 168.791ZM58.4894 167.776H101.749V125.481H58.4894V167.776Z" fill="#D1D1D1"/>
<path d="M102.256 124.974H57.9819V134.667H102.256V124.974Z" fill="white"/>
<path d="M102.256 135.175H57.9819C57.8473 135.175 57.7182 135.121 57.623 135.026C57.5278 134.931 57.4744 134.802 57.4744 134.667V124.974C57.4744 124.839 57.5278 124.71 57.623 124.615C57.7182 124.52 57.8473 124.466 57.9819 124.466H102.256C102.391 124.466 102.52 124.52 102.615 124.615C102.71 124.71 102.764 124.839 102.764 124.974V134.667C102.764 134.802 102.71 134.931 102.615 135.026C102.52 135.121 102.391 135.175 102.256 135.175ZM58.4894 134.16H101.749V125.481H58.4894V134.16Z" fill="#D1D1D1"/>
<path d="M80.119 132.028C81.1841 132.028 82.0475 131.237 82.0475 130.262C82.0475 129.287 81.1841 128.496 80.119 128.496C79.0539 128.496 78.1905 129.287 78.1905 130.262C78.1905 131.237 79.0539 132.028 80.119 132.028Z" fill="#D1D1D1"/>
<path d="M62.255 242.389V235.375L111.838 247.901V254.153L62.255 242.389Z" fill="#484646"/>
<path d="M111.838 254.66H111.726L62.1332 242.886C62.0232 242.861 61.925 242.799 61.8549 242.71C61.7848 242.622 61.7469 242.512 61.7475 242.399V235.386C61.7471 235.308 61.7642 235.231 61.7976 235.161C61.831 235.09 61.8798 235.028 61.9404 234.98C62.0017 234.933 62.0727 234.9 62.1482 234.885C62.2238 234.869 62.3018 234.87 62.3768 234.888L111.97 247.413C112.079 247.443 112.175 247.508 112.243 247.598C112.311 247.688 112.347 247.798 112.345 247.911V254.112C112.345 254.247 112.292 254.376 112.197 254.471C112.101 254.566 111.972 254.62 111.838 254.62V254.66ZM62.7524 241.983L111.34 253.514V248.286L62.7524 236.025V241.983Z" fill="#484646"/>
<path d="M56.0533 261.431L56.6116 238.126L116.73 251.646L118.232 261.431H56.0533Z" fill="white"/>
<path d="M118.232 261.938H56.0534C55.9859 261.938 55.919 261.925 55.8568 261.898C55.7945 261.872 55.7381 261.834 55.6909 261.786C55.6436 261.738 55.6065 261.68 55.5816 261.618C55.5567 261.555 55.5445 261.488 55.5459 261.42L56.1041 238.075C56.1079 238 56.128 237.927 56.1631 237.86C56.1981 237.793 56.2473 237.735 56.3071 237.69C56.3638 237.641 56.4309 237.607 56.5032 237.59C56.5754 237.572 56.6508 237.571 56.7233 237.588L116.842 251.118C116.941 251.138 117.032 251.19 117.101 251.264C117.171 251.339 117.215 251.433 117.227 251.534L118.73 261.319C118.74 261.391 118.735 261.464 118.716 261.533C118.697 261.603 118.663 261.668 118.618 261.725C118.573 261.786 118.515 261.837 118.448 261.874C118.382 261.91 118.308 261.932 118.232 261.938ZM56.571 260.923H117.633L116.273 252.082L57.109 238.755L56.571 260.923Z" fill="#484646"/>
</svg>
