<svg width="150" height="150" viewBox="0 0 150 150" fill="none" xmlns="http://www.w3.org/2000/svg">
<g clip-path="url(#clip0_1237_26707)">
<path d="M32.1363 107.924L32 108.275L107.697 137.92L107.834 137.568L32.1363 107.924Z" fill="#CACACA"/>
<path d="M86.2261 10.0579L44.1499 21.2038C43.9816 21.2517 43.8262 21.337 43.6952 21.4534C43.549 21.5821 43.4243 21.7335 43.3257 21.9018C43.2175 22.0841 43.134 22.2801 43.0775 22.4847C43.0176 22.6989 42.9869 22.9204 42.9863 23.1429V85.8654C42.9865 86.0844 43.0171 86.3023 43.0775 86.5127C43.133 86.7086 43.2166 86.8954 43.3257 87.0672C43.4237 87.2235 43.5488 87.3608 43.6952 87.4725C43.8284 87.5746 43.9845 87.6421 44.1499 87.669L86.2261 93.8943C86.4701 93.9319 86.7195 93.9126 86.9549 93.838C87.1789 93.7656 87.3836 93.6429 87.5534 93.4793C87.7296 93.3085 87.8679 93.1023 87.9592 92.8741C88.0596 92.6223 88.1105 92.3533 88.1089 92.082V11.6505C88.1117 11.3847 88.0607 11.1211 87.9592 10.8757C87.8694 10.6604 87.7304 10.4693 87.5534 10.3181C87.3811 10.173 87.1753 10.0737 86.9549 10.0292C86.713 9.98222 86.4636 9.99204 86.2261 10.0579Z" fill="#F2F2F2"/>
<path d="M45.1871 22.9638C45.0683 22.9989 44.9588 23.0602 44.8666 23.1432C44.764 23.234 44.6765 23.3407 44.6075 23.4593C44.5318 23.5883 44.4738 23.7269 44.4351 23.8715C44.3942 24.0225 44.3742 24.1784 44.3756 24.3348V84.5114C44.3739 84.6654 44.3939 84.8188 44.4351 84.9671C44.4731 85.1054 44.5311 85.2373 44.6072 85.3587C44.6757 85.4692 44.7634 85.5664 44.8661 85.6457C44.9599 85.7183 45.0699 85.7668 45.1866 85.7869L84.5995 91.1226C84.7673 91.1432 84.9377 91.1244 85.0971 91.0677C85.2501 91.0124 85.3886 90.9231 85.5024 90.8065C85.6211 90.6845 85.7133 90.5391 85.7733 90.3795C85.8393 90.2036 85.8714 90.0167 85.8677 89.8287V14.164C85.8721 13.9795 85.84 13.796 85.7733 13.6241C85.7144 13.4732 85.6218 13.3379 85.5024 13.2288C85.3872 13.1247 85.2478 13.0512 85.0971 13.0149C84.9333 12.977 84.7628 12.9781 84.5995 13.0184L45.1871 22.9638Z" fill="white"/>
<path d="M46.8542 25.3696C46.773 25.3907 46.6984 25.4318 46.6371 25.4892C46.5661 25.5548 46.5065 25.6317 46.4605 25.7168C46.408 25.8125 46.368 25.9145 46.3415 26.0204C46.3123 26.1338 46.2973 26.2505 46.2969 26.3677V34.7491C46.2963 34.8602 46.311 34.9709 46.3406 35.0779C46.3653 35.1692 46.4056 35.2554 46.4596 35.3328C46.505 35.3985 46.5659 35.4518 46.6368 35.4882C46.7041 35.5214 46.7801 35.5322 46.8539 35.519L82.0812 29.423C82.1974 29.4015 82.3074 29.354 82.4029 29.284C82.5058 29.2089 82.595 29.1164 82.6666 29.0108C82.744 28.8976 82.8042 28.7733 82.8451 28.6422C82.8883 28.5049 82.9104 28.3618 82.9107 28.2177V17.955C82.9119 17.8196 82.8897 17.685 82.8451 17.5572C82.8069 17.4472 82.7461 17.3464 82.6666 17.2615C82.5934 17.1825 82.5005 17.1248 82.3975 17.0943C82.2945 17.0638 82.1853 17.0616 82.0812 17.0881L46.8542 25.3696Z" fill="#F2F2F2"/>
<path d="M46.8544 39.599C46.7743 39.6137 46.6989 39.6475 46.6346 39.6977C46.5639 39.7522 46.5035 39.8189 46.4561 39.8946C46.4037 39.9775 46.3636 40.0675 46.3371 40.162C46.3091 40.2629 46.2956 40.3672 46.297 40.4719V58.3859C46.2956 58.4883 46.3096 58.5903 46.3383 58.6886C46.364 58.7768 46.4042 58.8601 46.4573 58.935C46.5045 59.0023 46.5653 59.0587 46.6358 59.1006C46.7024 59.14 46.7782 59.1606 46.8555 59.1604L82.0823 58.1513C82.196 58.1458 82.3071 58.1152 82.4077 58.0616C82.5091 58.0074 82.5991 57.934 82.6726 57.8453C82.7495 57.7529 82.8095 57.6475 82.8496 57.534C82.8922 57.4141 82.9132 57.2876 82.9116 57.1603V35.2251C82.9139 35.1011 82.8929 34.9779 82.8496 34.8617C82.8106 34.7571 82.7503 34.6618 82.6726 34.5818C82.5984 34.5057 82.5077 34.4477 82.4077 34.4123C82.3029 34.376 82.1911 34.365 82.0812 34.3802L46.8544 39.599Z" fill="#F2F2F2"/>
<path d="M49.9409 25.8549L77.7063 19.5297V21.6669L49.9409 27.6876V25.8549Z" fill="white"/>
<path d="M49.9893 29.7069L77.772 24.0209V25.0137L49.9893 30.5579V29.7069Z" fill="white"/>
<path d="M49.9893 31.2127L77.772 25.7775V26.7703L49.9893 32.0639V31.2127Z" fill="white"/>
<path d="M49.9893 32.7185L77.772 27.5341V28.5269L49.9893 33.5697V32.7185Z" fill="white"/>
<path d="M65.394 58.6647L79.4833 58.2638C79.5323 58.2624 79.5808 58.2527 79.6267 58.2351C79.673 58.2174 79.7163 58.1925 79.7552 58.1615C79.7955 58.1292 79.8311 58.0913 79.8608 58.0489C79.892 58.0041 79.917 57.9552 79.9351 57.9037C79.9724 57.7992 79.982 57.6868 79.9631 57.5775C79.954 57.5248 79.938 57.4735 79.9153 57.4251C79.8931 57.3773 79.864 57.3331 79.8289 57.2939L70.541 46.9471C70.5007 46.9012 70.4503 46.8654 70.3939 46.8425C70.3409 46.8214 70.2836 46.8132 70.2269 46.8185C70.168 46.8243 70.1111 46.8428 70.0601 46.8728C70.0034 46.9063 69.9537 46.9506 69.9138 47.0033L67.753 49.8092C67.6717 49.9168 67.57 50.007 67.4538 50.0748C67.3501 50.1351 67.2342 50.1714 67.1147 50.1811C66.9993 50.1899 66.8835 50.1708 66.7768 50.1256C66.6627 50.0763 66.5613 50.0012 66.4807 49.9062L60.1123 42.553C60.0768 42.5111 60.0318 42.4785 59.9811 42.4579C59.9338 42.4392 59.8827 42.4327 59.8323 42.4389C59.7793 42.4458 59.7285 42.4646 59.6836 42.4939C59.6325 42.5273 59.5881 42.5703 59.553 42.6204L48.3644 58.2779C48.3393 58.3133 48.3188 58.3519 48.3034 58.3925C48.2874 58.4346 48.2762 58.4783 48.2698 58.5229C48.2633 58.5683 48.2616 58.6143 48.2648 58.6601C48.2679 58.7057 48.2763 58.7508 48.2896 58.7946C48.3021 58.8361 48.3198 58.8759 48.3424 58.9129C48.3627 58.9464 48.3877 58.9766 48.4168 59.0026C48.4435 59.0266 48.4743 59.0457 48.5076 59.059C48.54 59.0717 48.5746 59.0777 48.6094 59.0768L65.4107 58.5921L65.394 58.6647Z" fill="white"/>
<path d="M51.0609 41.4797C51.2429 41.455 51.428 41.4808 51.5964 41.5544C51.7678 41.6309 51.9189 41.747 52.0374 41.8931C52.1699 42.0569 52.2708 42.2441 52.3349 42.4452C52.4089 42.6745 52.4459 42.9143 52.4445 43.1554C52.4445 43.4052 52.4076 43.6536 52.3349 43.8924C52.2681 44.1148 52.1678 44.3256 52.0374 44.5175C51.9194 44.6925 51.7701 44.8441 51.5971 44.9645C51.4379 45.0756 51.2541 45.146 51.0617 45.1695C50.8797 45.1905 50.6955 45.161 50.5291 45.0844C50.3603 45.0046 50.2123 44.8866 50.0965 44.7397C49.9669 44.5762 49.8682 44.3902 49.8055 44.1909C49.7337 43.9647 49.6979 43.7285 49.6993 43.4911C49.6992 43.2453 49.735 43.0008 49.8055 42.7653C49.8706 42.5452 49.9685 42.3363 50.0958 42.1455C50.2116 41.9703 50.3581 41.8177 50.5283 41.6952C50.686 41.5814 50.8687 41.5074 51.0609 41.4797Z" fill="white"/>
<path d="M46.8544 63.368C46.7766 63.3703 46.7008 63.3933 46.6346 63.4345C46.5643 63.4787 46.5037 63.537 46.4567 63.6057C46.4038 63.682 46.3636 63.7665 46.3377 63.8558C46.3092 63.9546 46.2955 64.0571 46.297 64.16V82.0741C46.2959 82.1784 46.3099 82.2824 46.3383 82.3828C46.3647 82.4762 46.4048 82.5651 46.4573 82.6465C46.5047 82.7207 46.5652 82.7855 46.6358 82.8378C46.7004 82.886 46.7759 82.9174 46.8555 82.9294L82.0812 87.0352C82.1915 87.0467 82.303 87.0322 82.4067 86.9928C82.507 86.954 82.5975 86.8932 82.6716 86.8149C82.7492 86.7327 82.8094 86.6355 82.8486 86.5293C82.8917 86.4125 82.9128 86.2886 82.9106 86.164V64.2296C82.9123 64.1028 82.8913 63.9767 82.8486 63.8573C82.8086 63.7455 82.7487 63.6419 82.6716 63.5517C82.598 63.4653 82.5079 63.3946 82.4067 63.3438C82.3055 63.2932 82.1943 63.266 82.0812 63.2643L46.8544 63.368Z" fill="#F2F2F2"/>
<path d="M65.394 85.1259L79.4827 86.7709C79.5306 86.7766 79.5791 86.7739 79.6261 86.7629C79.6717 86.7521 79.7151 86.7335 79.7544 86.7078C79.7947 86.6814 79.8304 86.6485 79.86 86.6105C79.8915 86.5697 79.9166 86.5244 79.9344 86.476C79.9534 86.4252 79.9653 86.372 79.9697 86.318C79.9742 86.2631 79.9717 86.2079 79.9624 86.1536C79.953 86.0987 79.937 86.0451 79.9146 85.9941C79.8921 85.9427 79.863 85.8943 79.8282 85.8503L70.541 74.1556C70.5008 74.1043 70.4507 74.0616 70.3938 74.0302C70.3423 74.0019 70.2853 73.9855 70.2267 73.9821C70.1696 73.9789 70.1125 73.9891 70.06 74.012C70.0037 74.0369 69.9537 74.0742 69.9137 74.1211L67.753 76.6127C67.6714 76.7087 67.5691 76.7847 67.4539 76.835C67.3469 76.8807 67.2307 76.9003 67.1147 76.892C66.9957 76.8829 66.8803 76.8472 66.7768 76.7874C66.6618 76.7207 66.5611 76.6315 66.4808 76.5251L60.1123 68.2464C60.0769 68.1996 60.0322 68.1607 59.9809 68.1324C59.9352 68.1073 59.8843 68.0934 59.8322 68.0919C59.7807 68.0907 59.7297 68.1022 59.6835 68.1252C59.6324 68.1508 59.5875 68.1875 59.5521 68.2325L48.3644 82.2668C48.3391 82.2989 48.3186 82.3345 48.3034 82.3726C48.2873 82.4129 48.276 82.455 48.2698 82.498C48.2632 82.5431 48.2615 82.5889 48.2648 82.6344C48.268 82.6814 48.2763 82.7279 48.2895 82.7731C48.3022 82.8171 48.3199 82.8594 48.3423 82.8993C48.3627 82.9359 48.3877 82.9697 48.4166 82.9999C48.4432 83.0276 48.4738 83.051 48.5075 83.0693C48.5391 83.0865 48.5736 83.0976 48.6092 83.1019L65.4108 85.0564L65.394 85.1259Z" fill="white"/>
<path d="M51.0609 65.8595C51.2494 65.8629 51.4339 65.9152 51.5964 66.0114C51.7689 66.1143 51.9188 66.2517 52.0366 66.4149C52.1679 66.5955 52.2684 66.7967 52.3341 67.0104C52.4073 67.2453 52.4443 67.4902 52.4437 67.7364C52.4446 67.9811 52.4076 68.2244 52.3341 68.4576C52.2689 68.6672 52.1683 68.864 52.0366 69.0393C51.9187 69.1971 51.7686 69.3277 51.5964 69.4223C51.4322 69.5114 51.2474 69.5553 51.0609 69.5495C50.8724 69.542 50.6891 69.486 50.5283 69.3869C50.3584 69.2816 50.2113 69.1431 50.0958 68.9795C49.9676 68.7996 49.8696 68.6 49.8054 68.3884C49.7344 68.1567 49.6986 67.9156 49.6992 67.6732C49.6984 67.4324 49.7342 67.1928 49.8054 66.9628C49.8691 66.7552 49.9672 66.5599 50.0958 66.3852C50.2113 66.2269 50.3587 66.0949 50.5283 65.9976C50.6907 65.9055 50.8744 65.8579 51.0609 65.8595Z" fill="white"/>
<path d="M56.7907 33.5276C56.6581 33.5524 56.5328 33.6072 56.4244 33.6878C56.3079 33.7743 56.2073 33.8805 56.1269 34.0016C56.0396 34.1318 55.972 34.2742 55.9264 34.4243C55.8776 34.5821 55.8526 34.7462 55.8521 34.9114V102.683C55.8535 103.011 55.9486 103.332 56.1263 103.608C56.2068 103.734 56.3073 103.846 56.4238 103.939C56.5314 104.026 56.6564 104.087 56.7903 104.121L106.759 115.71C106.959 115.758 107.167 115.764 107.37 115.727C107.552 115.692 107.723 115.616 107.871 115.503C108.016 115.389 108.133 115.243 108.21 115.075C108.295 114.89 108.337 114.689 108.335 114.485V26.1166C108.337 25.9106 108.294 25.7067 108.21 25.5188C108.132 25.346 108.016 25.1933 107.871 25.0722C107.725 24.9513 107.553 24.8648 107.37 24.8192C107.17 24.7703 106.962 24.764 106.759 24.8009L56.7907 33.5276Z" fill="#E6E6E6"/>
<path d="M57.9444 35.2468C57.8092 35.2734 57.6817 35.3304 57.5714 35.4134C57.4533 35.502 57.3513 35.6106 57.2702 35.7343C57.1826 35.8667 57.1152 36.0116 57.0702 36.164C57.0224 36.3243 56.9989 36.4909 57.0006 36.6581V101.548C56.9983 101.881 57.0919 102.207 57.2702 102.488C57.3515 102.617 57.4533 102.731 57.5714 102.827C57.6808 102.916 57.808 102.981 57.9444 103.016L104.703 113.494C104.902 113.537 105.107 113.537 105.306 113.494C105.486 113.455 105.654 113.374 105.796 113.256C105.938 113.139 106.051 112.989 106.124 112.819C106.204 112.632 106.243 112.429 106.238 112.225V28.9563C106.243 28.75 106.204 28.545 106.124 28.3548C106.05 28.1801 105.938 28.0243 105.797 27.899C105.655 27.7736 105.487 27.6818 105.306 27.6305C105.11 27.5758 104.904 27.5636 104.703 27.5946L57.9444 35.2468Z" fill="white"/>
<path d="M63.9144 44.0843C63.8514 44.0918 63.791 44.1137 63.7377 44.1484C63.6818 44.1849 63.633 44.2314 63.5938 44.2856C63.5515 44.3436 63.5187 44.4079 63.4966 44.4763C63.473 44.5487 63.461 44.6243 63.4609 44.7005V47.2984C63.4606 47.3722 63.4727 47.4456 63.4966 47.5154C63.518 47.578 63.5509 47.6359 63.5936 47.6863C63.633 47.7328 63.6821 47.7699 63.7376 47.7949C63.7931 47.8194 63.8539 47.8294 63.9143 47.8239L95.4093 45.0319C95.4949 45.0238 95.578 44.9984 95.6535 44.9571C95.7292 44.916 95.7969 44.8616 95.8533 44.7963C95.9109 44.73 95.9566 44.6542 95.9883 44.5721C96.021 44.4881 96.038 44.3987 96.0385 44.3085V41.2404C96.0388 41.1532 96.022 41.0668 95.9888 40.9863C95.958 40.9117 95.912 40.8443 95.8538 40.7885C95.7967 40.734 95.7285 40.6926 95.654 40.6672C95.5753 40.6405 95.4918 40.6315 95.4093 40.6407L63.9144 44.0843Z" fill="#03DAC5"/>
<path d="M63.7442 52.7149C63.7284 52.7158 63.7131 52.7206 63.6995 52.7288C63.6856 52.7372 63.6733 52.7482 63.6635 52.7613C63.653 52.7754 63.6448 52.7911 63.6393 52.8078C63.6334 52.8257 63.6304 52.8445 63.6304 52.8634V53.8785C63.6303 53.8971 63.6333 53.9155 63.6393 53.9331C63.6447 53.949 63.6529 53.9638 63.6635 53.9767C63.6734 53.9887 63.6856 53.9984 63.6995 54.0051C63.7134 54.0118 63.7288 54.0148 63.7442 54.014L95.8023 52.2678C95.8236 52.2666 95.8445 52.261 95.8636 52.2514C95.8825 52.2418 95.8994 52.2287 95.9136 52.2128C95.9432 52.1797 95.9596 52.1367 95.9597 52.0922V50.8955C95.9598 50.8735 95.9556 50.8516 95.9473 50.8312C95.9396 50.8121 95.9281 50.7948 95.9136 50.7802C95.8991 50.7657 95.8816 50.7544 95.8625 50.7471C95.8433 50.7398 95.8228 50.7368 95.8023 50.7381L63.7442 52.7149Z" fill="#CCCCCC"/>
<path d="M63.7442 56.0166C63.7284 56.0173 63.7131 56.0218 63.6995 56.0297C63.6856 56.0379 63.6733 56.0488 63.6635 56.0617C63.653 56.0756 63.6448 56.0911 63.6393 56.1077C63.6334 56.1256 63.6304 56.1443 63.6304 56.1632V57.1783C63.6303 57.197 63.6333 57.2155 63.6393 57.2331C63.6446 57.2494 63.6528 57.2646 63.6635 57.278C63.6734 57.2901 63.6856 57.3 63.6995 57.307C63.7134 57.3139 63.7287 57.3172 63.7442 57.3165L95.8023 56.1558C95.8235 56.1552 95.8444 56.1501 95.8636 56.1409C95.8825 56.1316 95.8994 56.1189 95.9136 56.1032C95.9432 56.0705 95.9597 56.0279 95.9597 55.9837V54.7862C95.9597 54.7641 95.9556 54.7422 95.9473 54.7218C95.9395 54.7025 95.9281 54.685 95.9136 54.6702C95.8993 54.6557 95.8823 54.6443 95.8636 54.6366C95.8441 54.6287 95.8232 54.6252 95.8023 54.6261L63.7442 56.0166Z" fill="#CCCCCC"/>
<path d="M63.7437 59.3184C63.7281 59.3188 63.7128 59.323 63.6991 59.3307C63.6853 59.3386 63.6732 59.3493 63.6635 59.3619C63.6529 59.3756 63.6447 59.391 63.6393 59.4075C63.6334 59.4253 63.6303 59.444 63.6304 59.4628V60.4779C63.6303 60.4966 63.6333 60.5152 63.6393 60.5329C63.6447 60.5492 63.6529 60.5644 63.6635 60.5778C63.6733 60.5901 63.6856 60.6003 63.6995 60.6077C63.7133 60.6148 63.7287 60.6184 63.7442 60.6181L95.8018 60.0439C95.8231 60.0433 95.844 60.0382 95.8631 60.029C95.882 60.0201 95.8989 60.0077 95.9131 59.9923C95.9276 59.9767 95.939 59.9585 95.9469 59.9387C95.9551 59.9179 95.9592 59.8958 95.9592 59.8735V58.6771C95.9593 58.6549 95.9551 58.6329 95.9469 58.6124C95.9391 58.593 95.9276 58.5753 95.9131 58.5602C95.899 58.5452 95.882 58.5332 95.8631 58.5249C95.8437 58.5169 95.8228 58.5132 95.8018 58.5139L63.7437 59.3184Z" fill="#CCCCCC"/>
<path d="M63.6871 65.913C63.6716 65.9127 63.6562 65.9164 63.6425 65.9236C63.6285 65.9309 63.6163 65.9411 63.6065 65.9535C63.596 65.9669 63.5879 65.9821 63.5827 65.9983C63.5767 66.016 63.5737 66.0345 63.5737 66.0532V67.068C63.5737 67.0868 63.5767 67.1055 63.5827 67.1233C63.5882 67.1395 63.5964 67.1547 63.6069 67.1681C63.6167 67.1808 63.6289 67.1914 63.6429 67.1992C63.6566 67.2068 63.6719 67.2109 63.6875 67.2112L95.7238 67.8078C95.7448 67.8082 95.7656 67.8041 95.7849 67.7959C95.8037 67.7877 95.8207 67.7759 95.8349 67.761C95.8494 67.7459 95.8609 67.7281 95.8687 67.7086C95.8769 67.688 95.8811 67.666 95.881 67.6439V66.4477C95.881 66.4254 95.8769 66.4033 95.8687 66.3826C95.8608 66.3628 95.8494 66.3446 95.8349 66.3291C95.8207 66.3138 95.8038 66.3015 95.7849 66.2928C95.7657 66.2839 95.7449 66.2791 95.7238 66.2789L63.6871 65.913Z" fill="#CCCCCC"/>
<path d="M63.6871 69.2138C63.6716 69.2133 63.6563 69.2167 63.6425 69.2237C63.6285 69.2309 63.6162 69.2411 63.6065 69.2536C63.5958 69.2669 63.5875 69.2821 63.5822 69.2984C63.5765 69.3157 63.5737 69.3337 63.5737 69.3519V70.3667C63.5737 70.3856 63.5767 70.4043 63.5827 70.4222C63.5881 70.4387 63.5963 70.4543 63.6069 70.4681C63.6167 70.4809 63.6289 70.4917 63.6429 70.4998C63.6565 70.5076 63.6718 70.512 63.6875 70.5126L95.7238 71.695C95.7447 71.6958 95.7656 71.6921 95.7849 71.6841C95.8037 71.6763 95.8207 71.6647 95.8349 71.6501C95.8494 71.6352 95.8609 71.6176 95.8687 71.5983C95.8769 71.5778 95.8811 71.5558 95.881 71.5337V70.3373C95.881 70.3149 95.8768 70.2928 95.8687 70.272C95.8608 70.252 95.8494 70.2337 95.8349 70.2179C95.8208 70.2024 95.8038 70.1897 95.7849 70.1807C95.7658 70.1715 95.745 70.1664 95.7238 70.1657L63.6871 69.2138Z" fill="#CCCCCC"/>
<path d="M63.6871 72.5143C63.6718 72.5138 63.6566 72.5171 63.6429 72.5239C63.629 72.5306 63.6168 72.5403 63.6069 72.5522C63.5963 72.5652 63.588 72.58 63.5827 72.596C63.5767 72.6135 63.5737 72.6319 63.5737 72.6505V73.6653C63.5737 73.6842 63.5767 73.703 63.5827 73.7209C63.5881 73.7376 63.5963 73.7533 63.6069 73.7673C63.6167 73.7803 63.6289 73.7912 63.6429 73.7995C63.6565 73.8076 63.6718 73.8123 63.6875 73.8132L95.7238 75.5812C95.7443 75.5824 95.7648 75.5792 95.7839 75.5719C95.8031 75.5645 95.8204 75.5531 95.8349 75.5385C95.8494 75.5238 95.8609 75.5064 95.8687 75.4872C95.8769 75.4668 95.8811 75.445 95.881 75.423V74.2265C95.8808 74.1823 95.8644 74.1398 95.8349 74.107C95.8208 74.0912 95.8038 74.0783 95.7849 74.0689C95.7659 74.0593 95.7451 74.0538 95.7238 74.0527L63.6871 72.5143Z" fill="#CCCCCC"/>
<path d="M63.6871 75.8314C63.6717 75.8303 63.6564 75.8331 63.6425 75.8396C63.6287 75.8463 63.6166 75.8559 63.6069 75.8677C63.5962 75.8806 63.588 75.8952 63.5827 75.9111C63.5767 75.9286 63.5737 75.9471 63.5737 75.9656V76.9805C63.5737 76.9994 63.5767 77.0182 63.5827 77.0362C63.5881 77.053 63.5963 77.0688 63.6069 77.083C63.6167 77.0962 63.6289 77.1074 63.6429 77.116C63.6564 77.1245 63.6717 77.1296 63.6875 77.131L95.7232 79.4872C95.744 79.4888 95.7648 79.4858 95.7843 79.4785C95.8031 79.4715 95.8201 79.4605 95.8343 79.4464C95.8488 79.432 95.8603 79.4148 95.8681 79.3959C95.8763 79.3755 95.8805 79.3537 95.8804 79.3318V78.1352C95.8804 78.1127 95.8762 78.0904 95.8681 78.0694C95.8602 78.0491 95.8487 78.0304 95.8343 78.0141C95.8202 77.9981 95.8032 77.9848 95.7843 77.975C95.7653 77.9651 95.7445 77.9593 95.7232 77.9578L63.6871 75.8314Z" fill="#CCCCCC"/>
<path d="M63.6871 79.1321C63.6718 79.1307 63.6564 79.1333 63.6425 79.1396C63.6287 79.1461 63.6166 79.1556 63.6069 79.1674C63.5963 79.1799 63.5881 79.1943 63.5827 79.2098C63.5767 79.2273 63.5737 79.2456 63.5737 79.2641V80.2789C63.5737 80.2979 63.5768 80.3167 63.5827 80.3348C63.5882 80.3517 63.5963 80.3677 63.6069 80.382C63.6167 80.3954 63.6289 80.4068 63.6429 80.4156C63.6564 80.4241 63.6717 80.4292 63.6875 80.4306L95.7232 83.3734C95.7439 83.3754 95.7647 83.3729 95.7843 83.366C95.803 83.3593 95.8201 83.3486 95.8343 83.3347C95.8488 83.3206 95.8603 83.3036 95.8681 83.2848C95.8763 83.2646 95.8805 83.2429 95.8804 83.221V82.0244C95.8804 82.0018 95.8762 81.9794 95.8681 81.9584C95.8601 81.9379 95.8487 81.919 95.8343 81.9025C95.8202 81.8862 95.8033 81.8726 95.7843 81.8624C95.7654 81.8522 95.7446 81.8459 95.7232 81.844L63.6871 79.1321Z" fill="#CCCCCC"/>
<path d="M63.6871 82.4328C63.6719 82.4311 63.6565 82.4334 63.6425 82.4394C63.6288 82.4454 63.6166 82.4545 63.6069 82.466C63.5962 82.4785 63.588 82.4929 63.5827 82.5086C63.5767 82.526 63.5736 82.5444 63.5737 82.5628V83.5776C63.5737 83.5967 63.5768 83.6156 63.5827 83.6337C63.5882 83.6508 63.5964 83.6669 63.6069 83.6814C63.6167 83.695 63.6289 83.7066 63.6429 83.7157C63.6563 83.7245 63.6716 83.73 63.6875 83.7317L95.7232 87.2599C95.7438 87.2622 95.7647 87.26 95.7843 87.2534C95.8029 87.2472 95.82 87.237 95.8343 87.2236C95.8489 87.2097 95.8604 87.1929 95.8681 87.1742C95.8764 87.154 95.8806 87.1324 95.8804 87.1106V85.9137C95.8804 85.8911 95.8762 85.8686 95.8681 85.8475C95.8601 85.8268 95.8487 85.8077 95.8343 85.791C95.8202 85.7745 95.8033 85.7606 95.7843 85.75C95.7655 85.7395 95.7447 85.7329 95.7232 85.7306L63.6871 82.4328Z" fill="#CCCCCC"/>
<path d="M63.6871 85.75C63.6719 85.7481 63.6566 85.7501 63.6425 85.7558C63.6289 85.7614 63.6167 85.7701 63.6069 85.7811C63.5961 85.7936 63.5879 85.8081 63.5827 85.8238C63.5767 85.8412 63.5736 85.8594 63.5737 85.8778V86.8926C63.5738 86.9117 63.5768 86.9306 63.5827 86.9488C63.5882 86.966 63.5964 86.9822 63.6069 86.9969C63.6167 87.0107 63.6289 87.0225 63.6429 87.0319C63.6563 87.0409 63.6716 87.0467 63.6875 87.0488L95.7232 91.1658C95.7437 91.1686 95.7646 91.1668 95.7843 91.1606C95.803 91.1544 95.8201 91.1442 95.8343 91.1307C95.8489 91.117 95.8604 91.1004 95.8681 91.0819C95.8764 91.0619 95.8806 91.0403 95.8804 91.0186V89.8224C95.8804 89.7997 95.8762 89.7772 95.8681 89.7559C95.8601 89.7351 95.8487 89.7158 95.8343 89.6988C95.8202 89.6821 95.8033 89.6679 95.7843 89.657C95.7655 89.6461 95.7447 89.6391 95.7232 89.6364L63.6871 85.75Z" fill="#CCCCCC"/>
<path d="M63.6871 89.0506C63.672 89.0484 63.6566 89.0502 63.6425 89.0557C63.6288 89.0612 63.6167 89.0699 63.6069 89.081C63.5962 89.0931 63.588 89.1072 63.5827 89.1225C63.5766 89.1398 63.5736 89.158 63.5737 89.1763V90.1911C63.5738 90.2103 63.5768 90.2293 63.5827 90.2475C63.5882 90.2648 63.5964 90.2812 63.6069 90.2961C63.6167 90.31 63.6289 90.322 63.6429 90.3316C63.6563 90.3408 63.6715 90.3469 63.6875 90.3493L95.7232 95.0522C95.7436 95.0553 95.7645 95.0539 95.7843 95.048C95.8029 95.0424 95.82 95.0327 95.8343 95.0196C95.8489 95.0062 95.8604 94.9898 95.8681 94.9715C95.8764 94.9514 95.8806 94.9299 95.8804 94.9082V93.7117C95.8803 93.6889 95.8762 93.6663 95.8681 93.645C95.8601 93.624 95.8487 93.6045 95.8343 93.5873C95.8202 93.5703 95.8033 93.5559 95.7843 93.5446C95.7656 93.5334 95.7448 93.526 95.7232 93.5229L63.6871 89.0506Z" fill="#CCCCCC"/>
<path d="M63.6871 92.3513C63.6721 92.3488 63.6567 92.3502 63.6425 92.3555C63.6288 92.3608 63.6167 92.3692 63.6069 92.3802C63.5962 92.3921 63.5879 92.4061 63.5827 92.4213C63.5766 92.4385 63.5736 92.4566 63.5737 92.4749V93.4898C63.5738 93.509 63.5768 93.5281 63.5827 93.5464C63.5882 93.5639 63.5964 93.5804 63.6069 93.5954C63.6167 93.6095 63.6289 93.6218 63.6429 93.6317C63.6562 93.6411 63.6715 93.6474 63.6875 93.6501L95.7232 98.9386C95.7435 98.9421 95.7644 98.9411 95.7843 98.9356C95.8029 98.9304 95.8199 98.921 95.8343 98.9081C95.8489 98.8949 95.8604 98.8787 95.8681 98.8606C95.8764 98.8407 95.8806 98.8193 95.8804 98.7977V97.6009C95.8803 97.578 95.8762 97.5554 95.8681 97.534C95.8601 97.5128 95.8487 97.493 95.8343 97.4755C95.8202 97.4583 95.8033 97.4435 95.7843 97.4319C95.7656 97.4204 95.7449 97.4126 95.7232 97.409L63.6871 92.3513Z" fill="#CCCCCC"/>
<path d="M105.376 97.2502C107.135 97.5251 108.828 98.1263 110.367 99.0232C113.604 100.908 116.134 103.811 117.565 107.285C118.28 109.015 118.654 110.868 118.666 112.741C118.685 114.47 118.308 116.181 117.565 117.74C116.884 119.145 115.87 120.36 114.612 121.277C113.353 122.184 111.899 122.779 110.367 123.014C108.701 123.264 107.002 123.162 105.377 122.715C103.667 122.253 102.05 121.493 100.601 120.471C99.1755 119.47 97.9107 118.255 96.8504 116.87C95.8099 115.519 94.9814 114.016 94.3939 112.413C93.8161 110.846 93.5161 109.189 93.5073 107.518C93.4934 105.964 93.7951 104.424 94.3939 102.991C94.9496 101.666 95.7967 100.485 96.8717 99.5357C97.9467 98.5866 99.2217 97.8945 100.601 97.5113C102.156 97.0839 103.784 96.9949 105.376 97.2502Z" fill="#03DAC5"/>
<path d="M104.188 115.081L100.536 109.442L102.645 108.182L104.392 110.845L110.507 105.56L112.628 107.943L104.188 115.081Z" fill="white"/>
<path d="M77.5258 108.51L76.8658 99.3191L78.0512 90.7065L74.6846 90.478L74.02 99.9919L75.8981 108.939C75.7382 109.161 75.6504 109.427 75.6469 109.701C75.6434 109.976 75.7243 110.244 75.8785 110.471C76.0327 110.697 76.2527 110.87 76.5084 110.966C76.7641 111.061 77.043 111.076 77.307 111.006C77.571 110.937 77.8072 110.787 77.9833 110.577C78.1594 110.368 78.2667 110.109 78.2907 109.835C78.3146 109.562 78.254 109.288 78.1171 109.051C77.9802 108.814 77.7737 108.625 77.5258 108.51Z" fill="#9F616A"/>
<path d="M74.2554 91.7159L75.0459 88.2779C75.1973 87.6195 75.5935 87.0443 76.1533 86.67C76.7132 86.2957 77.3943 86.1507 78.0571 86.2648C78.7199 86.3789 79.3142 86.7433 79.7182 87.2834C80.1222 87.8236 80.3053 88.4985 80.2301 89.17L79.7947 93.0548L74.2554 91.7159Z" fill="#CBCBCB"/>
<path d="M80.488 138.454L82.0752 138.454L82.8301 132.302L80.4878 132.303L80.488 138.454Z" fill="#9F616A"/>
<path d="M80.083 137.933L83.2086 137.933H83.2088C83.737 137.933 84.2437 138.144 84.6172 138.52C84.9907 138.895 85.2006 139.404 85.2007 139.935V140L80.0831 140L80.083 137.933Z" fill="#2F2E41"/>
<path d="M88.3949 138.402L89.9207 137.963L88.961 131.84L86.709 132.488L88.3949 138.402Z" fill="#9F616A"/>
<path d="M87.8628 138.013L90.8676 137.148L90.8677 137.148C91.3755 137.002 91.9204 137.065 92.3823 137.322C92.8443 137.58 93.1856 138.011 93.331 138.521L93.3489 138.584L88.4292 140L87.8628 138.013Z" fill="#2F2E41"/>
<path d="M79.6299 136.221L80.3682 117.587L78.4509 109.154C75.8707 104.807 78.6542 97.8727 78.6827 97.8032L78.693 97.7778L78.7201 97.7741L85.4695 96.8552L85.5643 97.0738C88.2042 103.139 88.9368 109.87 87.664 116.365L86.9616 119.975L90.4334 134.061L87.1476 135.712L84.6266 129.142L82.9225 135.864L79.6299 136.221Z" fill="#2F2E41"/>
<path d="M77.7935 99.5314L75.5917 93.0482C74.2228 90.6259 75.0911 88.4754 76.0605 87.0979C77.1074 85.6105 77.1703 84.7763 77.1842 84.767L77.1954 84.7596L80.0883 84.6715L82.7657 87.4054C82.9341 87.3392 84.3567 90.8621 84.2361 91.0392L86.106 97.1134L77.7935 99.5314Z" fill="#CBCBCB"/>
<path d="M95.6228 100.653L88.3694 95.0148L82.7758 88.3812L80.3604 90.7488L86.9695 97.5937L94.8546 102.157C94.9125 102.425 95.0515 102.668 95.2525 102.854C95.4534 103.04 95.7065 103.158 95.9771 103.194C96.2477 103.229 96.5226 103.18 96.7643 103.053C97.006 102.925 97.2025 102.726 97.3271 102.482C97.4517 102.238 97.4983 101.961 97.4604 101.69C97.4226 101.418 97.3021 101.165 97.1156 100.965C96.9291 100.764 96.6855 100.627 96.4183 100.571C96.1511 100.515 95.8733 100.544 95.6228 100.653Z" fill="#9F616A"/>
<path d="M79.674 93.1474L77.6529 90.262C77.2659 89.7094 77.1038 89.029 77.1999 88.3602C77.296 87.6915 77.6429 87.0849 78.1697 86.6649C78.6964 86.2449 79.3631 86.0432 80.033 86.1012C80.703 86.1592 81.3255 86.4724 81.773 86.9767L84.3623 89.8944L79.674 93.1474Z" fill="#CBCBCB"/>
<path d="M78.3016 83.8767C80.1989 83.8767 81.7369 82.3311 81.7369 80.4246C81.7369 78.5181 80.1989 76.9725 78.3016 76.9725C76.4043 76.9725 74.8662 78.5181 74.8662 80.4246C74.8662 82.3311 76.4043 83.8767 78.3016 83.8767Z" fill="#9F616A"/>
<path d="M81.7948 78.6733H76.3398V76.2839C77.5371 75.8059 78.7088 75.3994 79.417 76.2839C80.0476 76.2839 80.6524 76.5357 81.0983 76.9837C81.5442 77.4318 81.7948 78.0396 81.7948 78.6733V78.6733Z" fill="#2F2E41"/>
<path d="M77.0917 75.711C72.0938 75.5739 73.0402 83.8478 73.0402 83.8478C73.0402 83.8478 73.9831 83.9731 74.4134 84.0467L74.933 83.7527L75.4921 84.1211C75.7488 84.1224 76.0185 84.1174 76.2981 84.1122L76.5545 83.5819L77.126 84.1027C78.1664 84.1043 80.99 84.1331 80.99 84.1331C80.99 84.1331 82.6917 75.8647 77.0917 75.711Z" fill="#2F2E41"/>
<path d="M56.9544 89.8871C56.9741 89.7253 56.9583 89.5611 56.908 89.4061C56.8578 89.2511 56.7743 89.1091 56.6636 88.99C56.5528 88.8709 56.4174 88.7777 56.2668 88.7169C56.1163 88.6561 55.9544 88.6292 55.7924 88.6381L54.6943 86.3413L53.1426 86.6714L54.7386 89.8931C54.7715 90.1655 54.9027 90.4164 55.1074 90.5981C55.3121 90.7798 55.576 90.8798 55.8491 90.8791C56.1222 90.8783 56.3856 90.7769 56.5893 90.5941C56.793 90.4113 56.9229 90.1597 56.9544 89.8871H56.9544Z" fill="#FFB7B7"/>
<path d="M33.1167 116.554L34.4082 117.218L37.5722 112.528L35.6661 111.548L33.1167 116.554Z" fill="#FFB7B7"/>
<path d="M33.0029 115.961L35.5464 117.269L35.5465 117.269C35.9764 117.49 36.3012 117.874 36.4496 118.335C36.598 118.797 36.5578 119.299 36.3378 119.731L36.3109 119.784L32.1465 117.643L33.0029 115.961Z" fill="#2F2E41"/>
<path d="M48.0331 118.371H49.4838L50.1739 112.748L48.0327 112.748L48.0331 118.371Z" fill="#FFB7B7"/>
<path d="M47.6626 117.895L50.5198 117.895H50.5199C51.0028 117.895 51.4659 118.088 51.8073 118.431C52.1488 118.774 52.3406 119.239 52.3407 119.725V119.784L47.6627 119.784L47.6626 117.895Z" fill="#2F2E41"/>
<path d="M41.2465 72.5039C41.2465 72.5039 40.275 71.7559 40.275 73.5829L40.1216 79.6203L41.8345 85.3237L42.8316 83.4739L42.4226 79.4661L41.2465 72.5039Z" fill="#03DAC5"/>
<path d="M51.6389 89.0171C51.6389 89.0171 52.7655 94.5303 51.3385 99.0548L50.5499 116.451L47.6583 116.224L46.6444 103.319L45.668 96.9039L43.6402 102.753L36.9558 115.13L33.8765 112.715C33.8765 112.715 37.2889 103.359 39.8098 101.394L41.0741 86.9241L51.6389 89.0171Z" fill="#2F2E41"/>
<path d="M48.2116 65.1327C50.0324 65.1327 51.5086 63.6494 51.5086 61.8196C51.5086 59.9899 50.0324 58.5066 48.2116 58.5066C46.3907 58.5066 44.9146 59.9899 44.9146 61.8196C44.9146 63.6494 46.3907 65.1327 48.2116 65.1327Z" fill="#FFB8B8"/>
<path d="M47.9783 62.5224C48.3735 62.5741 48.6716 62.1677 48.8099 61.7921C48.9482 61.4165 49.0535 60.9792 49.3972 60.7763C49.8666 60.4991 50.4673 60.8325 51.0041 60.741C51.6104 60.6377 52.0046 59.9921 52.0355 59.3749C52.0664 58.7578 51.822 58.1642 51.5822 57.5952L51.4985 58.3024C51.5097 58.0627 51.4595 57.8242 51.3527 57.6096C51.2459 57.395 51.0861 57.2115 50.8886 57.0767L50.9965 58.1143C50.9736 57.9711 50.9227 57.8339 50.8468 57.7106C50.771 57.5872 50.6716 57.4802 50.5545 57.3955C50.4373 57.3108 50.3047 57.2502 50.1642 57.2172C50.0237 57.1842 49.8781 57.1793 49.7357 57.203L49.7527 57.8213C49.0552 57.7132 48.3484 57.6784 47.6438 57.7175C46.9344 57.7588 46.2555 58.0216 45.7019 58.4694C44.9057 59.1646 44.6149 60.3094 44.7125 61.3648C44.8101 62.4203 45.2437 63.4118 45.6956 64.3696C45.8093 64.6105 45.9665 64.8825 46.2302 64.9132C46.3497 64.9149 46.4664 64.8765 46.5618 64.8042C46.6573 64.7319 46.7261 64.6298 46.7574 64.5139C46.8142 64.28 46.812 64.0356 46.751 63.8029C46.6577 63.4525 46.6279 63.088 46.6631 62.727C46.7257 62.3705 46.9809 62.0183 47.3385 61.9746C47.6961 61.9309 48.062 62.3416 47.8901 62.6597L47.9783 62.5224Z" fill="#2F2E41"/>
<path d="M45.056 66.338L45.7463 65.375C45.7463 65.375 46.5178 65.6385 48.5842 66.672L48.7301 67.5743L52.3169 89.7425L45.7974 89.4599L44.022 89.4219L42.7246 89.3942L40.9909 89.3571L40.9653 82.9858L41.5278 78.1045L40.6585 73.5058C40.6585 73.5058 39.5647 69.2829 43.7777 67.006L45.056 66.338Z" fill="#03DAC5"/>
<path d="M54.0913 88.7078L54.3281 89.5403L55.9847 88.4559L55.3595 87.7369L54.0913 88.7078Z" fill="#CBCBCB"/>
<path d="M46.2891 69.0174C46.2891 69.0174 48.8572 65.7228 50.4094 69.3947L50.8988 73.2428C50.8988 73.2428 52.7792 78.0259 52.8357 79.9611C52.8357 79.9611 54.1106 82.4868 54.0989 83.8134L55.9847 88.1037L54.0505 89.3104L48.6972 81.0624L46.2891 69.0174Z" fill="#03DAC5"/>
</g>
<defs>
<clipPath id="clip0_1237_26707">
<rect width="86.6667" height="130" fill="white" transform="translate(32 10)"/>
</clipPath>
</defs>
</svg>
