<svg width="400" height="400" viewBox="0 0 400 400" fill="none" xmlns="http://www.w3.org/2000/svg">
<path d="M200.737 316.081C264.81 316.081 316.751 264.14 316.751 200.067C316.751 135.994 264.81 84.0524 200.737 84.0524C136.664 84.0524 84.7224 135.994 84.7224 200.067C84.7224 264.14 136.664 316.081 200.737 316.081Z" fill="white"/>
<path d="M200.737 318.619C177.29 318.617 154.37 311.662 134.876 298.634C115.381 285.607 100.188 267.091 91.2163 245.428C82.245 223.765 79.8987 199.929 84.4742 176.932C89.0497 153.936 100.341 132.813 116.922 116.234C133.502 99.6557 154.626 88.3657 177.622 83.7921C200.619 79.2186 224.455 81.5669 246.117 90.5402C267.779 99.5134 286.294 114.708 299.32 134.204C312.346 153.7 319.299 176.62 319.299 200.067C319.264 231.5 306.761 261.635 284.534 283.861C262.306 306.086 232.17 318.587 200.737 318.619ZM200.737 86.5899C178.294 86.592 156.355 93.249 137.695 105.719C119.035 118.189 104.492 135.913 95.905 156.648C87.3178 177.384 85.072 200.2 89.4517 222.211C93.8313 244.223 104.64 264.442 120.51 280.311C136.381 296.18 156.6 306.987 178.612 311.364C200.625 315.742 223.44 313.494 244.175 304.905C264.91 296.316 282.632 281.771 295.1 263.11C307.569 244.449 314.224 222.51 314.224 200.067C314.192 169.979 302.224 141.133 280.948 119.859C259.672 98.5842 230.825 86.6195 200.737 86.5899Z" fill="#484646"/>
<path d="M200.737 303.932C258.1 303.932 304.602 257.43 304.602 200.067C304.602 142.704 258.1 96.202 200.737 96.202C143.374 96.202 96.8719 142.704 96.8719 200.067C96.8719 257.43 143.374 303.932 200.737 303.932Z" fill="white"/>
<path d="M200.737 304.439C180.094 304.439 159.915 298.318 142.751 286.849C125.587 275.381 112.209 259.08 104.309 240.009C96.4096 220.937 94.3427 199.951 98.3699 179.705C102.397 159.459 112.338 140.861 126.934 126.264C141.531 111.668 160.129 101.727 180.375 97.7C200.621 93.6728 221.607 95.7397 240.678 103.639C259.75 111.539 276.051 124.917 287.519 142.081C298.988 159.245 305.109 179.424 305.109 200.067C305.08 227.739 294.074 254.27 274.507 273.837C254.939 293.404 228.409 304.41 200.737 304.439ZM200.737 96.7095C180.295 96.7095 160.312 102.771 143.315 114.128C126.318 125.485 113.07 141.628 105.247 160.514C97.4242 179.4 95.3773 200.182 99.3654 220.231C103.353 240.28 113.197 258.697 127.652 273.152C142.107 287.607 160.523 297.45 180.573 301.438C200.622 305.426 221.404 303.38 240.29 295.557C259.176 287.734 275.318 274.486 286.675 257.489C298.033 240.492 304.094 220.509 304.094 200.067C304.065 172.664 293.166 146.392 273.789 127.015C254.412 107.638 228.14 96.7391 200.737 96.7095Z" fill="#D1D1D1"/>
<path d="M102.536 202.604H71.5375C70.8645 202.604 70.2191 202.337 69.7432 201.861C69.2673 201.385 69 200.74 69 200.067C69 199.394 69.2673 198.749 69.7432 198.273C70.2191 197.797 70.8645 197.529 71.5375 197.529H102.536C103.209 197.529 103.854 197.797 104.33 198.273C104.806 198.749 105.073 199.394 105.073 200.067C105.073 200.74 104.806 201.385 104.33 201.861C103.854 202.337 103.209 202.604 102.536 202.604Z" fill="#484646"/>
<path d="M328.596 202.604H297.598C296.925 202.604 296.28 202.337 295.804 201.861C295.328 201.385 295.061 200.74 295.061 200.067C295.061 199.394 295.328 198.749 295.804 198.273C296.28 197.797 296.925 197.529 297.598 197.529H328.596C329.269 197.529 329.915 197.797 330.39 198.273C330.866 198.749 331.134 199.394 331.134 200.067C331.134 200.74 330.866 201.385 330.39 201.861C329.915 202.337 329.269 202.604 328.596 202.604Z" fill="#484646"/>
<path d="M200.067 105.073C199.394 105.073 198.749 104.806 198.273 104.33C197.797 103.854 197.529 103.209 197.529 102.536V71.5375C197.529 70.8645 197.797 70.2191 198.273 69.7432C198.749 69.2673 199.394 69 200.067 69C200.74 69 201.385 69.2673 201.861 69.7432C202.337 70.2191 202.604 70.8645 202.604 71.5375V102.536C202.604 103.209 202.337 103.854 201.861 104.33C201.385 104.806 200.74 105.073 200.067 105.073Z" fill="#484646"/>
<path d="M200.067 331.134C199.394 331.134 198.749 330.867 198.273 330.391C197.797 329.915 197.529 329.269 197.529 328.596V297.598C197.529 296.925 197.797 296.28 198.273 295.804C198.749 295.328 199.394 295.061 200.067 295.061C200.74 295.061 201.385 295.328 201.861 295.804C202.337 296.28 202.604 296.925 202.604 297.598V328.596C202.604 329.269 202.337 329.915 201.861 330.391C201.385 330.867 200.74 331.134 200.067 331.134Z" fill="#484646"/>
<path d="M223.747 255.192V276.314C223.747 276.314 215.972 282.059 217.332 282.404C218.692 282.749 232.364 278.222 232.364 278.222L233.379 253.212" fill="white"/>
<path d="M217.454 282.921C217.37 282.933 217.284 282.933 217.2 282.921C217.066 282.894 216.944 282.827 216.848 282.729C216.752 282.632 216.688 282.508 216.662 282.373C216.601 282.069 216.408 281.125 223.229 276.07V255.192C223.207 255.113 223.203 255.03 223.218 254.95C223.233 254.87 223.266 254.794 223.315 254.729C223.365 254.664 223.428 254.611 223.501 254.574C223.575 254.538 223.655 254.519 223.737 254.519C223.818 254.519 223.899 254.538 223.972 254.574C224.045 254.611 224.109 254.664 224.158 254.729C224.207 254.794 224.241 254.87 224.256 254.95C224.271 255.03 224.267 255.113 224.244 255.192V276.314C224.243 276.395 224.223 276.475 224.186 276.547C224.149 276.619 224.096 276.682 224.031 276.73C221.865 278.27 219.828 279.984 217.941 281.856C222.64 280.742 227.277 279.387 231.836 277.796L232.851 253.151C232.853 253.083 232.868 253.015 232.896 252.952C232.924 252.889 232.964 252.832 233.014 252.785C233.064 252.737 233.123 252.701 233.187 252.676C233.252 252.652 233.321 252.641 233.389 252.644C233.529 252.652 233.659 252.713 233.754 252.816C233.848 252.918 233.9 253.053 233.897 253.192L232.882 278.202C232.876 278.307 232.839 278.409 232.776 278.494C232.713 278.579 232.626 278.643 232.527 278.679C229.441 279.694 219.585 282.921 217.454 282.921Z" fill="#484646"/>
<path d="M253.537 255.192V276.314C253.537 276.314 261.312 282.059 259.962 282.404C258.612 282.749 245.214 278.222 245.214 278.222L243.915 253.212" fill="white"/>
<path d="M259.84 282.921C257.729 282.921 248.066 279.694 245.042 278.669C244.954 278.629 244.879 278.567 244.823 278.488C244.768 278.41 244.735 278.318 244.727 278.222L243.428 253.222C243.401 253.146 243.393 253.063 243.403 252.983C243.414 252.902 243.443 252.825 243.488 252.757C243.533 252.689 243.594 252.633 243.664 252.593C243.735 252.552 243.814 252.529 243.895 252.524C243.976 252.519 244.058 252.533 244.133 252.565C244.208 252.596 244.274 252.645 244.327 252.707C244.38 252.769 244.418 252.842 244.438 252.921C244.458 253 244.46 253.082 244.443 253.162L245.742 277.785C250.208 279.377 254.755 280.732 259.363 281.845C257.474 279.976 255.438 278.262 253.273 276.72C253.208 276.671 253.155 276.609 253.118 276.537C253.081 276.464 253.061 276.385 253.06 276.304V255.192C253.038 255.113 253.034 255.03 253.049 254.95C253.064 254.87 253.097 254.794 253.146 254.729C253.195 254.664 253.259 254.611 253.332 254.574C253.405 254.538 253.486 254.519 253.568 254.519C253.649 254.519 253.73 254.538 253.803 254.574C253.876 254.611 253.94 254.664 253.989 254.729C254.038 254.794 254.072 254.87 254.086 254.95C254.101 255.03 254.098 255.113 254.075 255.192V276.05C260.886 281.125 260.703 282.049 260.642 282.353C260.617 282.487 260.552 282.611 260.456 282.709C260.361 282.806 260.238 282.873 260.104 282.901C260.018 282.92 259.929 282.927 259.84 282.921Z" fill="#484646"/>
<path d="M213.668 202.473C213.556 202.919 212.876 214.409 212.988 216.216C213.1 218.022 215.586 221.392 217.495 222.072C219.403 222.752 218.946 215.759 218.946 215.759C218.946 215.759 221.108 217.789 221.555 215.982C222.001 214.175 221.067 201.569 221.067 201.569L213.668 202.473Z" fill="white"/>
<path d="M217.748 222.641C217.602 222.638 217.458 222.611 217.322 222.559C215.119 221.788 212.592 218.195 212.47 216.246C212.368 214.602 212.998 203 213.16 202.341C213.186 202.237 213.242 202.144 213.322 202.073C213.402 202.003 213.501 201.958 213.607 201.945L221.006 201.052C221.076 201.041 221.148 201.046 221.216 201.065C221.284 201.085 221.347 201.118 221.402 201.163C221.457 201.208 221.503 201.263 221.536 201.326C221.569 201.389 221.589 201.458 221.595 201.529C221.686 202.828 222.518 214.287 222.062 216.114C222.024 216.363 221.918 216.597 221.755 216.789C221.592 216.981 221.378 217.123 221.138 217.2C220.859 217.252 220.572 217.247 220.295 217.186C220.018 217.125 219.756 217.009 219.524 216.845C219.575 218.672 219.524 221.615 218.438 222.407C218.239 222.556 217.997 222.638 217.748 222.641ZM214.145 202.939C213.952 204.969 213.414 214.592 213.515 216.134C213.617 217.677 215.901 220.905 217.677 221.534C217.758 221.534 217.778 221.534 217.799 221.534C218.398 221.077 218.59 218.185 218.428 215.759C218.42 215.654 218.443 215.55 218.496 215.459C218.548 215.368 218.627 215.296 218.721 215.25C218.816 215.205 218.922 215.19 219.025 215.206C219.129 215.223 219.225 215.27 219.301 215.343C219.798 215.799 220.549 216.246 220.844 216.165C220.955 216.165 221.016 215.931 221.047 215.82C221.351 214.602 220.955 207.162 220.59 202.117L214.145 202.939Z" fill="#484646"/>
<path d="M257.699 202.473C257.81 202.919 258.48 214.409 258.369 216.216C258.257 218.022 255.78 221.392 253.862 222.072C251.944 222.752 252.421 215.759 252.421 215.759C252.421 215.759 250.259 217.789 249.812 215.982C249.365 214.175 250.289 201.569 250.289 201.569L257.699 202.473Z" fill="white"/>
<path d="M253.618 222.641C253.369 222.641 253.126 222.559 252.928 222.407C251.913 221.615 251.791 218.672 251.842 216.845C251.373 217.174 250.793 217.305 250.228 217.21C249.989 217.13 249.776 216.985 249.613 216.792C249.45 216.598 249.343 216.364 249.305 216.114C248.848 214.287 249.67 202.828 249.772 201.529C249.777 201.458 249.798 201.389 249.831 201.326C249.864 201.263 249.909 201.208 249.964 201.163C250.017 201.118 250.079 201.085 250.145 201.066C250.212 201.047 250.282 201.042 250.35 201.052L257.76 201.945C257.865 201.958 257.964 202.003 258.044 202.073C258.124 202.144 258.18 202.237 258.206 202.341C258.369 203 258.998 214.602 258.896 216.246C258.775 218.195 256.237 221.788 254.035 222.559C253.901 222.61 253.761 222.637 253.618 222.641ZM252.421 215.292C252.498 215.289 252.575 215.307 252.644 215.343C252.738 215.389 252.816 215.461 252.868 215.552C252.921 215.642 252.945 215.746 252.938 215.85C252.776 218.276 252.938 221.169 253.568 221.626C253.568 221.626 253.568 221.626 253.689 221.626C255.466 220.996 257.749 217.779 257.851 216.226C257.952 214.673 257.404 205.061 257.222 203.031L250.776 202.249C250.411 207.324 250.015 214.734 250.32 215.952C250.32 216.063 250.411 216.256 250.523 216.297C250.817 216.378 251.538 215.931 252.055 215.475C252.149 215.369 252.28 215.303 252.421 215.292Z" fill="#484646"/>
<path d="M224.995 139.461C224.995 139.461 213.83 144.993 212.115 154.087C210.4 163.182 211.1 204.269 211.1 204.269H222.59L224.995 139.461Z" fill="#FF931E"/>
<path d="M247.011 139.461C247.011 139.461 258.176 144.993 259.891 154.087C261.606 163.182 260.906 204.269 260.906 204.269H249.437L247.011 139.461Z" fill="#FF931E"/>
<path d="M220.205 258.226L221.605 182.528L250.309 183.228L260.419 258.226H220.205Z" fill="#484646"/>
<path d="M260.419 258.734H220.205C220.136 258.735 220.069 258.722 220.006 258.696C219.943 258.67 219.886 258.631 219.839 258.582C219.746 258.483 219.695 258.352 219.697 258.216L221.098 182.518C221.106 182.383 221.164 182.257 221.26 182.162C221.304 182.113 221.36 182.075 221.421 182.052C221.483 182.029 221.55 182.022 221.615 182.03L250.32 182.721C250.439 182.724 250.554 182.77 250.643 182.85C250.732 182.93 250.79 183.039 250.807 183.157L260.957 258.166C260.968 258.236 260.962 258.309 260.941 258.377C260.92 258.446 260.884 258.509 260.835 258.561C260.785 258.622 260.721 258.669 260.648 258.699C260.576 258.729 260.497 258.741 260.419 258.734ZM220.712 257.719H259.84L249.863 183.715L222.103 183.035L220.712 257.719Z" fill="#484646"/>
<path d="M251.04 139.634H252.37C252.504 139.65 252.639 139.621 252.756 139.553C252.928 139.431 252.928 139.187 252.928 138.984C252.867 137.746 252.928 135.767 252.004 134.772C251.081 133.777 249.477 133.879 249.041 132.275C248.925 131.222 249.138 130.158 249.65 129.23C250.015 128.215 250.208 126.977 249.467 126.185C249.01 125.728 248.3 125.556 247.944 125.008C247.285 123.993 248.381 122.744 248.462 121.526C248.418 120.938 248.231 120.369 247.918 119.869C247.605 119.368 247.175 118.951 246.666 118.654C245.638 118.067 244.751 117.264 244.067 116.299C243.743 115.535 243.514 114.734 243.387 113.914C243.222 113.288 242.914 112.708 242.488 112.22C242.062 111.732 241.529 111.35 240.931 111.102C236.566 109.387 231.796 110.747 229.593 115.061C229.096 116.076 228.751 117.152 228.193 118.106C227.634 119.06 226.345 119.476 225.493 120.257C225.127 120.598 224.837 121.012 224.641 121.472C224.445 121.931 224.348 122.427 224.356 122.927C224.534 123.754 224.561 124.607 224.437 125.444C224.163 126.226 223.361 126.753 223.148 127.555C222.772 128.997 223.859 130.6 223.483 132.204C223.374 132.76 223.16 133.291 222.854 133.767C222.512 134.265 222.106 134.715 221.646 135.107C220.62 135.969 219.715 136.966 218.956 138.071C218.712 138.453 218.504 138.857 218.337 139.279C218.425 139.273 218.513 139.273 218.601 139.279H234.374C239.967 139.279 245.427 139.654 251.03 139.654L251.04 139.634Z" fill="white"/>
<path d="M252.421 140.182H251.03C248.219 140.182 245.407 140.091 242.687 139.999C239.967 139.908 237.155 139.817 234.374 139.817H218.418C218.329 139.847 218.233 139.847 218.144 139.817C218.079 139.793 218.019 139.757 217.968 139.709C217.917 139.662 217.877 139.604 217.849 139.54C217.822 139.477 217.808 139.408 217.808 139.338C217.808 139.269 217.822 139.2 217.85 139.136C218.031 138.685 218.252 138.25 218.51 137.837C219.299 136.702 220.238 135.677 221.301 134.792C221.72 134.447 222.095 134.052 222.417 133.615C222.685 133.189 222.874 132.718 222.976 132.224C223.083 131.493 223.024 130.747 222.803 130.042C222.543 129.24 222.487 128.385 222.641 127.555C222.799 127.073 223.059 126.63 223.402 126.256C223.624 126.001 223.805 125.714 223.94 125.404C224.05 124.94 224.05 124.456 223.94 123.993C223.94 123.688 223.848 123.384 223.838 123.079C223.812 122.484 223.914 121.89 224.138 121.338C224.362 120.787 224.703 120.29 225.137 119.882C225.509 119.564 225.91 119.282 226.335 119.039C226.889 118.756 227.372 118.35 227.746 117.852C228.049 117.318 228.31 116.761 228.528 116.187C228.72 115.731 228.913 115.284 229.126 114.858C231.359 110.483 236.292 108.768 241.124 110.656C241.794 110.933 242.392 111.359 242.872 111.903C243.353 112.446 243.702 113.093 243.895 113.792C243.956 114.036 244.006 114.279 244.057 114.523C244.136 115.054 244.293 115.571 244.524 116.055C245.008 116.794 245.658 117.41 246.422 117.852L246.98 118.248C247.572 118.589 248.069 119.073 248.424 119.657C248.778 120.241 248.98 120.905 249.01 121.587C248.953 122.109 248.816 122.619 248.604 123.099C248.32 123.871 248.158 124.358 248.411 124.744C248.593 124.964 248.822 125.141 249.081 125.261C249.37 125.418 249.636 125.612 249.873 125.84C250.634 126.611 250.736 127.87 250.167 129.392L250.015 129.788C249.632 130.506 249.48 131.325 249.579 132.133C249.782 132.874 250.299 133.148 250.969 133.442C251.52 133.672 252.016 134.019 252.421 134.457C253.344 135.472 253.436 137.299 253.436 138.619V138.984C253.461 139.172 253.439 139.363 253.372 139.541C253.304 139.718 253.194 139.876 253.05 139.999C252.866 140.128 252.645 140.192 252.421 140.182ZM219.159 138.761H234.384C237.186 138.761 240.007 138.852 242.727 138.944C245.448 139.035 248.249 139.126 251.04 139.126H252.411V139.025V138.649C252.411 137.482 252.319 135.899 251.639 135.137C251.316 134.824 250.933 134.579 250.512 134.417C250.048 134.26 249.629 133.994 249.29 133.64C248.95 133.287 248.701 132.857 248.564 132.387C248.389 131.347 248.556 130.278 249.041 129.342L249.193 128.946C249.426 128.306 249.741 127.129 249.122 126.5C248.948 126.339 248.754 126.203 248.543 126.094C248.143 125.898 247.795 125.609 247.528 125.251C247.33 124.846 247.234 124.397 247.25 123.946C247.266 123.494 247.393 123.054 247.62 122.663C247.789 122.275 247.902 121.865 247.955 121.445C247.901 120.944 247.73 120.463 247.455 120.042C247.179 119.62 246.808 119.27 246.371 119.019L245.833 118.633C244.936 118.105 244.178 117.371 243.621 116.492C243.34 115.919 243.148 115.306 243.052 114.675C243.001 114.452 242.961 114.218 242.9 113.995C242.755 113.449 242.486 112.944 242.115 112.518C241.743 112.092 241.279 111.757 240.758 111.539C236.445 109.844 232.06 111.366 230.081 115.243C229.878 115.649 229.695 116.066 229.522 116.492C229.28 117.115 228.992 117.719 228.66 118.299C228.216 118.972 227.604 119.518 226.883 119.882C226.525 120.097 226.186 120.341 225.868 120.613C225.545 120.902 225.287 121.258 225.111 121.655C224.936 122.052 224.848 122.483 224.853 122.917C224.869 123.179 224.9 123.44 224.945 123.698C225.107 124.226 225.124 124.789 224.991 125.325C224.859 125.861 224.583 126.352 224.194 126.743C223.95 127.012 223.76 127.326 223.635 127.667C223.53 128.347 223.585 129.042 223.798 129.697C224.06 130.555 224.122 131.461 223.98 132.346C223.852 132.963 223.611 133.552 223.27 134.082C222.916 134.577 222.5 135.024 222.032 135.411C221.011 136.261 220.11 137.245 219.352 138.335C219.352 138.467 219.23 138.599 219.159 138.741V138.761Z" fill="#484646"/>
<path d="M233.044 133.97C233.044 133.97 223.209 139.512 219.92 142.953C216.632 146.394 216.825 166.531 216.825 182.538H254.978C254.978 182.538 255.892 151.641 253.862 146.891C251.111 140.547 241.134 135.29 238.515 134.478C236.735 133.989 234.884 133.817 233.044 133.97Z" fill="#FF931E"/>
<path d="M230.517 137.543C230.517 137.543 231.623 149.469 236.008 149.469C238.535 149.469 241.783 145.013 241.469 137.929L230.517 137.543Z" fill="#484646"/>
<path d="M236.008 149.977C231.298 149.977 230.131 138.812 230.02 137.594C230.014 137.522 230.022 137.45 230.045 137.382C230.067 137.314 230.104 137.251 230.152 137.198C230.255 137.099 230.394 137.044 230.537 137.046L241.479 137.421C241.607 137.426 241.728 137.479 241.818 137.569C241.908 137.66 241.961 137.781 241.966 137.908C242.169 142.313 241.012 146.282 238.921 148.515C238.56 148.944 238.116 149.295 237.615 149.546C237.114 149.797 236.568 149.944 236.008 149.977ZM231.085 138.071C231.491 141.572 232.973 148.962 236.008 148.962C236.846 148.878 237.616 148.466 238.15 147.815C239.601 146.292 241.083 143.044 240.971 138.416L231.085 138.071Z" fill="#484646"/>
<path d="M241.976 125.475C242.545 122.602 247.346 122.064 246.99 125.475C246.908 126.649 246.42 127.757 245.61 128.611C245.194 129.025 244.664 129.307 244.088 129.421C243.512 129.535 242.915 129.475 242.372 129.25" fill="white"/>
<path d="M243.458 130.032C243.005 130.037 242.556 129.936 242.149 129.738C242.088 129.708 242.033 129.666 241.988 129.615C241.942 129.563 241.908 129.504 241.886 129.439C241.863 129.375 241.854 129.307 241.858 129.238C241.863 129.17 241.88 129.104 241.91 129.042C241.94 128.981 241.982 128.926 242.033 128.881C242.084 128.836 242.144 128.801 242.209 128.779C242.273 128.757 242.341 128.748 242.41 128.752C242.478 128.756 242.544 128.774 242.606 128.804C243.051 128.98 243.538 129.021 244.007 128.924C244.476 128.827 244.906 128.594 245.245 128.256C245.973 127.489 246.408 126.49 246.473 125.434C246.615 124.094 245.803 123.769 245.305 123.698C244.685 123.619 244.057 123.77 243.539 124.121C243.021 124.472 242.65 125.001 242.494 125.607C242.482 125.674 242.456 125.739 242.419 125.796C242.382 125.854 242.333 125.903 242.277 125.942C242.22 125.981 242.156 126.008 242.089 126.022C242.022 126.036 241.952 126.036 241.885 126.023C241.817 126.011 241.753 125.985 241.695 125.948C241.638 125.91 241.588 125.862 241.549 125.805C241.511 125.749 241.484 125.685 241.47 125.618C241.456 125.55 241.456 125.481 241.469 125.414C241.669 124.539 242.189 123.771 242.928 123.262C243.666 122.753 244.569 122.539 245.458 122.663C245.784 122.71 246.098 122.824 246.379 122.996C246.66 123.169 246.904 123.397 247.094 123.667C247.284 123.937 247.417 124.243 247.484 124.566C247.552 124.889 247.553 125.222 247.488 125.546C247.399 126.844 246.861 128.072 245.965 129.017C245.287 129.658 244.392 130.021 243.458 130.032Z" fill="#484646"/>
<path d="M231.268 125.058C230.903 122.166 226.193 121.283 226.274 124.693C226.278 125.877 226.703 127.021 227.472 127.921C227.857 128.362 228.364 128.68 228.93 128.834C229.495 128.987 230.093 128.97 230.649 128.783" fill="white"/>
<path d="M229.705 129.474C229.203 129.466 228.709 129.356 228.251 129.15C227.794 128.944 227.384 128.647 227.046 128.276C226.202 127.277 225.741 126.011 225.746 124.703C225.704 124.375 225.729 124.041 225.821 123.723C225.912 123.405 226.068 123.109 226.278 122.853C226.488 122.598 226.748 122.387 227.043 122.236C227.337 122.085 227.659 121.995 227.99 121.973C228.888 121.914 229.777 122.194 230.479 122.758C231.182 123.321 231.648 124.128 231.786 125.018C231.806 125.089 231.811 125.165 231.8 125.238C231.789 125.312 231.762 125.383 231.721 125.445C231.68 125.507 231.626 125.56 231.563 125.6C231.5 125.639 231.429 125.665 231.355 125.674C231.281 125.684 231.206 125.677 231.135 125.655C231.063 125.633 230.998 125.596 230.942 125.546C230.887 125.496 230.843 125.435 230.813 125.367C230.784 125.298 230.769 125.224 230.771 125.15C230.658 124.533 230.323 123.978 229.829 123.591C229.336 123.204 228.717 123.011 228.091 123.049C227.594 123.049 226.772 123.353 226.812 124.703C226.802 125.756 227.161 126.78 227.827 127.596C228.142 127.957 228.556 128.219 229.018 128.348C229.479 128.478 229.968 128.471 230.426 128.327C230.489 128.3 230.557 128.287 230.625 128.287C230.694 128.287 230.762 128.3 230.825 128.327C230.888 128.353 230.946 128.392 230.994 128.441C231.042 128.489 231.08 128.547 231.106 128.611C231.132 128.675 231.146 128.744 231.146 128.813C231.146 128.882 231.133 128.951 231.106 129.015C231.08 129.079 231.041 129.137 230.992 129.186C230.944 129.235 230.885 129.274 230.821 129.301C230.464 129.431 230.085 129.49 229.705 129.474Z" fill="#484646"/>
<path d="M230.892 139.461C231.388 140.412 232.13 141.212 233.041 141.778C233.951 142.344 234.997 142.655 236.069 142.679C237.116 142.743 238.159 142.507 239.078 142C239.996 141.494 240.751 140.736 241.256 139.817L241.164 137.787L240.961 133.097L240.758 128.712L232.151 128.418L231.735 131.981L231.613 133.138L230.892 139.461Z" fill="white"/>
<path d="M236.313 143.227H236.059C234.887 143.207 233.743 142.869 232.749 142.249C231.754 141.628 230.948 140.749 230.415 139.705C230.373 139.62 230.356 139.525 230.365 139.431L231.623 128.398C231.645 128.27 231.71 128.153 231.808 128.067C231.906 127.982 232.031 127.934 232.161 127.931L240.779 128.225C240.912 128.23 241.038 128.285 241.132 128.379C241.226 128.474 241.281 128.6 241.286 128.733L241.783 139.827C241.799 139.907 241.799 139.99 241.783 140.07C241.254 141.052 240.462 141.868 239.496 142.425C238.53 142.983 237.428 143.26 236.313 143.227ZM231.43 139.38C231.895 140.212 232.57 140.908 233.387 141.397C234.205 141.887 235.137 142.154 236.089 142.171C237.013 142.234 237.936 142.038 238.756 141.606C239.575 141.174 240.258 140.523 240.728 139.725L240.261 129.25L232.618 129.017L231.43 139.38Z" fill="#484646"/>
<path d="M236.018 134.092H236.78C238.531 134.152 240.234 133.515 241.515 132.319C242.796 131.124 243.55 129.469 243.61 127.718V127.383C243.61 126.368 243.671 125.353 243.712 124.338C243.712 123.637 244.057 122.795 243.539 122.216C243.243 121.925 242.9 121.685 242.524 121.506C240.523 120.346 238.955 118.564 238.058 116.431C236.56 118.497 234.418 120.007 231.968 120.724C231.34 120.841 230.742 121.086 230.212 121.445C229.116 122.359 229.776 123.597 229.735 124.764L229.644 127.281C229.592 129.028 230.233 130.725 231.427 132.001C232.621 133.277 234.272 134.028 236.018 134.092Z" fill="white"/>
<path d="M237.023 134.599H236.769H235.998C235.061 134.571 234.139 134.357 233.286 133.97C232.432 133.584 231.663 133.032 231.024 132.347C230.384 131.662 229.886 130.858 229.559 129.979C229.231 129.101 229.081 128.167 229.116 127.231L229.208 124.713C229.208 124.404 229.184 124.095 229.137 123.79C228.988 123.303 228.978 122.785 229.109 122.293C229.24 121.801 229.506 121.356 229.877 121.009C230.385 120.645 230.962 120.39 231.573 120.257L231.826 120.186C234.163 119.514 236.212 118.086 237.652 116.126C237.703 116.048 237.774 115.987 237.859 115.949C237.944 115.911 238.038 115.899 238.129 115.913C238.222 115.922 238.311 115.957 238.386 116.012C238.461 116.067 238.52 116.142 238.556 116.228C239.395 118.27 240.887 119.976 242.798 121.08L242.93 121.161C243.308 121.349 243.651 121.6 243.945 121.902C244.156 122.19 244.298 122.524 244.359 122.875C244.421 123.227 244.401 123.589 244.301 123.932C244.27 124.096 244.25 124.262 244.24 124.429C244.24 125.028 244.24 125.637 244.189 126.246L244.138 127.829C244.08 129.675 243.306 131.425 241.98 132.71C240.654 133.994 238.88 134.712 237.033 134.711L237.023 134.599ZM236.008 133.513H236.779C238.393 133.569 239.963 132.981 241.144 131.879C242.321 130.779 243.015 129.257 243.072 127.647V126.073L243.133 124.246C243.133 124.054 243.133 123.851 243.194 123.648C243.276 123.079 243.306 122.724 243.093 122.49C242.877 122.277 242.627 122.102 242.352 121.973L242.21 121.881C240.361 120.811 238.863 119.228 237.896 117.324C236.364 119.14 234.33 120.464 232.05 121.13L231.796 121.201C231.325 121.288 230.879 121.475 230.486 121.75C229.949 122.186 229.989 122.704 230.111 123.577C230.169 123.939 230.196 124.306 230.192 124.673L230.111 127.2C230.059 128.809 230.646 130.372 231.743 131.55C232.84 132.727 234.359 133.422 235.967 133.483L236.008 133.513Z" fill="#484646"/>
<path d="M236.779 128.641C236.308 128.644 235.836 128.613 235.369 128.55C235.289 128.557 235.209 128.546 235.135 128.517C235.06 128.489 234.993 128.444 234.938 128.386C234.883 128.328 234.843 128.258 234.819 128.182C234.795 128.105 234.789 128.025 234.801 127.946C234.813 127.867 234.842 127.792 234.887 127.726C234.932 127.66 234.992 127.605 235.061 127.566C235.13 127.526 235.208 127.503 235.287 127.498C235.367 127.492 235.447 127.505 235.521 127.535C236.056 127.604 236.595 127.631 237.135 127.616C236.972 126.402 236.63 125.218 236.12 124.104C236.067 123.97 236.07 123.82 236.128 123.688C236.186 123.555 236.295 123.451 236.429 123.399C236.564 123.346 236.714 123.35 236.846 123.408C236.978 123.466 237.082 123.574 237.135 123.708C237.683 125.058 238.546 127.454 238.038 128.276C237.975 128.382 237.886 128.471 237.779 128.535C237.673 128.599 237.553 128.635 237.429 128.641C237.185 128.641 236.982 128.641 236.779 128.641Z" fill="#484646"/>
<path d="M240.134 123.325C240.156 122.709 239.969 122.203 239.717 122.194C239.464 122.185 239.243 122.678 239.221 123.294C239.2 123.91 239.387 124.417 239.639 124.425C239.891 124.434 240.113 123.942 240.134 123.325Z" fill="#484646"/>
<path d="M234.32 123.122C234.341 122.506 234.154 121.999 233.902 121.99C233.65 121.982 233.428 122.474 233.407 123.09C233.385 123.707 233.572 124.213 233.824 124.222C234.076 124.231 234.298 123.738 234.32 123.122Z" fill="#484646"/>
<path d="M229.817 152.717H229.705C229.208 152.717 228.944 152.159 228.863 151.997C227.756 149.875 226.386 138.974 226.833 138.132C227.523 137.121 228.454 136.298 229.543 135.736C229.667 135.676 229.809 135.667 229.94 135.71C230.071 135.754 230.18 135.847 230.243 135.97C230.274 136.031 230.293 136.098 230.298 136.166C230.303 136.235 230.295 136.304 230.273 136.369C230.251 136.434 230.217 136.494 230.172 136.546C230.126 136.598 230.071 136.64 230.009 136.67C229.126 137.135 228.359 137.794 227.766 138.599C227.553 140.05 228.913 150.596 229.796 151.672C230.497 151.611 232.009 150.099 233.065 148.627C233.106 148.571 233.158 148.523 233.217 148.487C233.277 148.451 233.343 148.427 233.412 148.417C233.481 148.406 233.551 148.41 233.619 148.427C233.686 148.443 233.75 148.474 233.806 148.515C233.914 148.6 233.986 148.722 234.007 148.858C234.028 148.994 233.996 149.133 233.917 149.246C233.562 149.865 231.38 152.717 229.817 152.717Z" fill="#484646"/>
<path d="M241.946 152.717C240.373 152.717 238.261 149.774 237.886 149.175C237.808 149.059 237.779 148.917 237.806 148.78C237.833 148.643 237.912 148.522 238.028 148.444C238.085 148.406 238.148 148.379 238.215 148.366C238.282 148.352 238.351 148.352 238.418 148.365C238.485 148.378 238.549 148.405 238.605 148.443C238.662 148.481 238.711 148.529 238.749 148.586C239.764 150.058 241.245 151.631 241.915 151.631C242.849 150.545 244.199 140.009 243.945 138.558C243.356 137.751 242.588 137.092 241.702 136.629C241.633 136.603 241.569 136.563 241.516 136.511C241.463 136.458 241.422 136.396 241.395 136.326C241.368 136.257 241.356 136.183 241.36 136.108C241.363 136.034 241.383 135.961 241.417 135.895C241.451 135.829 241.498 135.77 241.556 135.724C241.614 135.677 241.681 135.643 241.753 135.624C241.825 135.605 241.901 135.602 241.974 135.614C242.047 135.627 242.117 135.654 242.179 135.696C243.272 136.277 244.204 137.121 244.889 138.152C245.366 138.994 244.006 149.896 242.859 152.017C242.768 152.179 242.504 152.697 242.007 152.738L241.946 152.717Z" fill="#484646"/>
<path d="M249.234 191.703H249.162C249.029 191.686 248.909 191.616 248.827 191.509C248.745 191.403 248.709 191.268 248.726 191.135C248.726 190.983 250.817 175.545 252.502 163.73C253.273 158.229 250.898 152.504 250.868 152.443C250.821 152.321 250.824 152.185 250.876 152.064C250.927 151.943 251.023 151.847 251.144 151.796C251.265 151.745 251.401 151.742 251.523 151.789C251.646 151.836 251.746 151.929 251.801 152.047C253.306 155.796 253.887 159.852 253.497 163.872C251.822 175.737 249.751 191.165 249.731 191.277C249.712 191.395 249.651 191.503 249.56 191.581C249.469 191.659 249.353 191.703 249.234 191.703Z" fill="#484646"/>
<path d="M222.783 191.703C222.661 191.704 222.543 191.66 222.451 191.58C222.359 191.499 222.3 191.388 222.285 191.267C222.285 191.115 220.184 175.687 218.51 163.862C218.125 159.842 218.707 155.788 220.205 152.037C220.26 151.915 220.361 151.819 220.486 151.77C220.611 151.72 220.75 151.722 220.874 151.773C220.996 151.827 221.092 151.926 221.141 152.049C221.19 152.173 221.189 152.31 221.138 152.433C221.138 152.494 218.733 158.219 219.514 163.72C221.189 175.585 223.26 191.023 223.28 191.125C223.297 191.257 223.263 191.39 223.183 191.496C223.103 191.602 222.985 191.673 222.854 191.693L222.783 191.703Z" fill="#484646"/>
<path d="M232.151 128.428C232.151 128.428 234.78 133.148 239.682 129.443L232.151 128.428Z" fill="white"/>
<path d="M236.11 131.392C235.793 131.392 235.477 131.362 235.166 131.301C233.71 130.917 232.463 129.977 231.694 128.682C231.66 128.622 231.639 128.556 231.63 128.488C231.622 128.42 231.628 128.35 231.647 128.284C231.666 128.218 231.698 128.156 231.741 128.103C231.784 128.049 231.837 128.004 231.897 127.971C232.018 127.905 232.159 127.888 232.292 127.924C232.424 127.96 232.538 128.046 232.608 128.164C233.229 129.199 234.225 129.955 235.389 130.276C236.101 130.372 236.825 130.313 237.512 130.103C238.199 129.892 238.832 129.536 239.368 129.058C239.422 129.016 239.484 128.985 239.551 128.968C239.617 128.95 239.686 128.946 239.754 128.955C239.822 128.965 239.888 128.988 239.947 129.023C240.006 129.058 240.058 129.104 240.099 129.159C240.18 129.27 240.216 129.409 240.197 129.545C240.178 129.682 240.106 129.805 239.997 129.89C238.9 130.801 237.535 131.329 236.11 131.392Z" fill="#484646"/>
<path d="M166.308 267.666L165.415 280.09C165.415 280.09 149.063 283.764 149.063 283.003C149.063 282.241 156.919 276.669 156.919 276.669V262.459" fill="white"/>
<path d="M149.449 283.591C148.921 283.591 148.819 283.51 148.758 283.459C148.693 283.402 148.639 283.332 148.601 283.253C148.563 283.175 148.54 283.09 148.535 283.003C148.535 282.729 148.535 281.988 156.401 276.395V262.469C156.379 262.391 156.375 262.308 156.39 262.228C156.405 262.147 156.438 262.072 156.488 262.006C156.537 261.941 156.6 261.888 156.674 261.852C156.747 261.815 156.827 261.796 156.909 261.796C156.991 261.796 157.071 261.815 157.144 261.852C157.217 261.888 157.281 261.941 157.33 262.006C157.379 262.072 157.413 262.147 157.428 262.228C157.443 262.308 157.439 262.391 157.416 262.469V276.679C157.416 276.763 157.395 276.845 157.356 276.919C157.317 276.993 157.261 277.057 157.193 277.105C154.351 279.135 151.296 281.429 150.088 282.566C152.423 282.323 158.939 281.013 164.907 279.673L165.77 267.636C165.78 267.497 165.845 267.369 165.949 267.277C166.054 267.186 166.19 267.14 166.328 267.148C166.397 267.152 166.465 267.17 166.527 267.2C166.589 267.23 166.644 267.273 166.689 267.325C166.735 267.377 166.769 267.437 166.791 267.503C166.813 267.569 166.821 267.638 166.815 267.707L165.932 280.14C165.922 280.252 165.876 280.358 165.801 280.442C165.726 280.526 165.626 280.584 165.516 280.607C154.331 283.114 150.697 283.591 149.449 283.591Z" fill="#484646"/>
<path d="M172.662 267.666L173.555 280.09C173.555 280.09 189.917 283.764 189.917 283.003C189.917 282.241 182.051 276.669 182.051 276.669V262.459" fill="white"/>
<path d="M189.501 283.591C188.252 283.591 184.619 283.114 173.413 280.597C173.305 280.572 173.207 280.513 173.134 280.429C173.062 280.346 173.017 280.241 173.007 280.13L172.124 267.696C172.118 267.628 172.126 267.56 172.147 267.495C172.168 267.43 172.202 267.37 172.246 267.318C172.291 267.266 172.345 267.224 172.406 267.193C172.467 267.162 172.533 267.143 172.601 267.138C172.741 267.13 172.878 267.176 172.984 267.267C173.09 267.358 173.157 267.486 173.169 267.625L174.022 279.663C180 281.003 186.517 282.312 188.841 282.556C187.613 281.419 184.568 279.115 181.736 277.095C181.668 277.047 181.612 276.983 181.573 276.909C181.534 276.835 181.514 276.753 181.513 276.669V262.459C181.49 262.38 181.486 262.298 181.501 262.217C181.516 262.137 181.55 262.061 181.599 261.996C181.648 261.931 181.712 261.878 181.785 261.842C181.858 261.805 181.939 261.786 182.02 261.786C182.102 261.786 182.183 261.805 182.256 261.842C182.329 261.878 182.392 261.931 182.442 261.996C182.491 262.061 182.524 262.137 182.539 262.217C182.554 262.298 182.55 262.38 182.528 262.459V276.395C190.394 281.988 190.384 282.729 190.384 283.003C190.381 283.089 190.36 283.174 190.323 283.253C190.287 283.331 190.235 283.401 190.171 283.459C190.12 283.51 190.018 283.591 189.501 283.591Z" fill="#484646"/>
<path d="M193.622 205.416C193.622 205.416 195.012 209.852 194.759 212.135C194.505 214.419 193.429 218.469 194.759 218.855C195.41 219.115 196.137 219.115 196.789 218.855C196.789 218.855 196.281 222.275 196.789 223.158C197.296 224.041 200.717 223.919 201.356 222.529C201.995 221.138 202.879 211.882 201.356 204.259" fill="white"/>
<path d="M198.544 224.244C197.935 224.244 196.748 224.153 196.332 223.422C195.916 222.691 196.048 220.682 196.179 219.535C195.665 219.567 195.149 219.505 194.657 219.352C193.145 218.936 193.571 216.307 193.987 213.8C194.089 213.171 194.19 212.582 194.241 212.074C194.484 209.933 193.135 205.609 193.124 205.568C193.104 205.502 193.096 205.432 193.103 205.362C193.109 205.293 193.129 205.225 193.162 205.163C193.194 205.102 193.239 205.047 193.292 205.002C193.346 204.958 193.408 204.924 193.475 204.903C193.541 204.883 193.611 204.875 193.681 204.882C193.75 204.888 193.818 204.908 193.879 204.941C193.941 204.973 193.996 205.018 194.041 205.071C194.085 205.125 194.119 205.187 194.139 205.254C194.2 205.436 195.56 209.821 195.307 212.186C195.246 212.714 195.144 213.323 195.043 213.962C194.83 215.221 194.353 218.175 194.951 218.347C195.465 218.545 196.03 218.563 196.555 218.398C196.64 218.348 196.736 218.321 196.834 218.321C196.932 218.321 197.029 218.348 197.113 218.398C197.19 218.454 197.251 218.53 197.288 218.617C197.326 218.705 197.339 218.801 197.326 218.895C197.066 220.207 197.045 221.555 197.266 222.874C197.728 223.154 198.275 223.258 198.808 223.168C199.201 223.19 199.594 223.122 199.956 222.969C200.319 222.816 200.641 222.582 200.899 222.285C201.508 220.925 202.351 211.8 200.899 204.34C200.886 204.273 200.886 204.203 200.9 204.136C200.914 204.069 200.941 204.005 200.98 203.949C201.019 203.892 201.068 203.843 201.126 203.806C201.183 203.769 201.248 203.743 201.315 203.731C201.382 203.716 201.451 203.715 201.518 203.728C201.586 203.74 201.65 203.766 201.706 203.804C201.763 203.842 201.812 203.891 201.849 203.949C201.887 204.006 201.912 204.07 201.924 204.137C203.487 211.942 202.564 221.24 201.924 222.712C201.457 223.727 200.047 224.153 198.879 224.214L198.544 224.244Z" fill="#484646"/>
<path d="M189.196 143.298C192.509 146.458 195.331 150.095 197.57 154.087C200.869 160.248 202.878 207.436 202.878 207.436H191.216L185.715 167.12L189.196 143.298Z" fill="#FF931E"/>
<path d="M145.511 205.416C145.511 205.416 144.12 209.852 144.374 212.135C144.628 214.419 145.704 218.469 144.374 218.855C143.723 219.115 142.996 219.115 142.344 218.855C142.344 218.855 142.852 222.275 142.344 223.158C141.837 224.041 138.406 223.919 137.777 222.529C137.147 221.138 136.254 211.882 137.777 204.259" fill="white"/>
<path d="M140.588 224.244H140.345C139.177 224.183 137.767 223.767 137.3 222.742C136.63 221.27 135.706 211.973 137.3 204.168C137.329 204.032 137.41 203.914 137.526 203.838C137.642 203.762 137.783 203.734 137.919 203.762C137.986 203.774 138.051 203.799 138.108 203.837C138.166 203.874 138.216 203.922 138.254 203.979C138.293 204.036 138.32 204.099 138.334 204.167C138.348 204.234 138.348 204.303 138.335 204.371C136.843 211.831 137.685 220.956 138.335 222.316C138.593 222.613 138.916 222.847 139.278 223C139.64 223.153 140.033 223.221 140.426 223.199C140.959 223.287 141.506 223.183 141.969 222.904C142.189 221.585 142.168 220.237 141.908 218.926C141.89 218.828 141.902 218.728 141.942 218.638C141.982 218.548 142.048 218.471 142.131 218.418C142.215 218.366 142.311 218.338 142.41 218.338C142.509 218.338 142.605 218.366 142.689 218.418C143.202 218.557 143.746 218.529 144.242 218.337C144.841 218.164 144.364 215.211 144.151 213.952C144.049 213.313 143.948 212.704 143.887 212.176C143.623 209.811 144.993 205.426 145.054 205.243C145.075 205.177 145.108 205.115 145.153 205.061C145.198 205.008 145.252 204.963 145.314 204.931C145.376 204.898 145.443 204.878 145.513 204.872C145.582 204.865 145.652 204.873 145.719 204.893C145.786 204.914 145.848 204.948 145.901 204.992C145.955 205.037 145.999 205.091 146.032 205.153C146.064 205.215 146.084 205.282 146.091 205.352C146.097 205.421 146.09 205.491 146.069 205.558C146.069 205.558 144.709 209.923 144.953 212.064C145.003 212.572 145.105 213.16 145.206 213.79C145.623 216.307 146.049 218.926 144.537 219.342C144.044 219.494 143.528 219.556 143.014 219.524C143.146 220.671 143.288 222.651 142.862 223.412C142.435 224.173 141.197 224.244 140.588 224.244Z" fill="#484646"/>
<path d="M152.778 190.577L155.021 269.31H167.749L169.749 219.616L172.185 269.31H183.015L189.014 187.197L152.778 190.577Z" fill="#484646"/>
<path d="M183.015 269.818H172.185C172.056 269.818 171.933 269.768 171.84 269.679C171.747 269.59 171.693 269.469 171.688 269.341L169.8 230.953L168.257 269.331C168.252 269.462 168.196 269.586 168.101 269.676C168.007 269.767 167.88 269.818 167.749 269.818H155.021C154.89 269.818 154.764 269.767 154.669 269.676C154.575 269.586 154.519 269.462 154.514 269.331L152.271 190.597C152.268 190.467 152.314 190.342 152.401 190.245C152.488 190.149 152.608 190.09 152.737 190.079L188.973 186.689C189.045 186.684 189.118 186.694 189.186 186.718C189.254 186.743 189.316 186.781 189.369 186.831C189.423 186.884 189.464 186.947 189.49 187.017C189.517 187.087 189.527 187.163 189.521 187.237L183.522 269.351C183.512 269.478 183.454 269.597 183.36 269.684C183.266 269.77 183.143 269.818 183.015 269.818ZM172.672 268.803H182.548L188.465 187.755L153.296 191.033L155.508 268.803H167.272L169.252 219.596C169.257 219.466 169.311 219.344 169.403 219.253C169.496 219.163 169.619 219.111 169.749 219.108C169.877 219.108 170.001 219.158 170.094 219.247C170.186 219.336 170.241 219.457 170.246 219.585L172.672 268.803Z" fill="#484646"/>
<path d="M166.734 133.361C166.734 133.361 155.305 139.705 151.286 143.298C147.267 146.891 150.839 190.577 150.839 190.577H191.023C191.023 190.577 194.738 151.854 192.221 146.881C188.851 140.243 176.62 134.701 173.423 133.889C171.233 133.377 168.978 133.199 166.734 133.361Z" fill="#FF931E"/>
<path d="M164.847 136.66L170.216 142.263L174.966 137.015C174.966 137.015 168.379 137.401 164.847 136.66Z" fill="#484646"/>
<path d="M170.216 142.77C170.079 142.77 169.947 142.715 169.85 142.618L164.542 137.005C164.464 136.931 164.413 136.832 164.399 136.725C164.384 136.618 164.406 136.509 164.461 136.416C164.515 136.323 164.597 136.249 164.695 136.203C164.793 136.158 164.903 136.144 165.009 136.163C168.429 136.883 174.925 136.508 174.986 136.508C175.086 136.505 175.184 136.531 175.27 136.581C175.356 136.631 175.427 136.704 175.474 136.792C175.518 136.882 175.534 136.984 175.52 137.084C175.505 137.183 175.461 137.276 175.392 137.35L170.632 142.608C170.586 142.659 170.53 142.7 170.467 142.728C170.404 142.756 170.336 142.771 170.267 142.77H170.216ZM166.247 137.391L170.206 141.522L173.778 137.573C171.267 137.686 168.75 137.625 166.247 137.391Z" fill="#484646"/>
<path d="M178.387 122.074C178.463 121.648 178.656 121.25 178.945 120.927C179.394 120.532 179.888 120.191 180.417 119.912C180.995 119.577 181.496 119.123 181.888 118.581C182.28 118.039 182.553 117.42 182.69 116.766C182.379 116.931 182.035 117.023 181.683 117.035C181.332 117.047 180.982 116.98 180.66 116.837C181.715 116.37 182.558 115.527 183.025 114.472C182.735 114.587 182.419 114.621 182.111 114.569C181.803 114.517 181.515 114.382 181.279 114.178C180.078 113.241 178.942 112.223 177.879 111.133C176.057 109.508 173.881 108.33 171.525 107.692C169.865 107.259 168.126 107.224 166.45 107.59C166.008 107.674 165.576 107.803 165.161 107.976C164.948 108.067 164.623 108.402 164.44 108.443C163.74 108.605 163.212 108.098 162.522 108.727C162.146 109.131 161.886 109.629 161.771 110.168C161.031 112.748 160.776 115.443 161.02 118.116C161.075 119.315 161.336 120.497 161.791 121.607C162.107 122.362 162.341 123.148 162.492 123.952C165.07 124.114 167.668 124.328 170.256 124.297C172.261 124.398 174.27 124.299 176.255 124.003C176.803 123.881 177.717 123.739 178.052 123.221C178.228 122.861 178.341 122.473 178.387 122.074Z" fill="white"/>
<path d="M172.743 124.774H171.728C171.231 124.774 170.713 124.774 170.216 124.774C168.094 124.774 165.953 124.663 163.882 124.531L162.41 124.439C162.272 124.429 162.144 124.365 162.052 124.26C161.961 124.156 161.915 124.019 161.923 123.881V123.82C161.739 123.132 161.519 122.455 161.263 121.79C160.783 120.629 160.508 119.392 160.451 118.136C160.2 115.405 160.462 112.651 161.223 110.016C161.359 109.383 161.668 108.799 162.116 108.331C162.329 108.133 162.588 107.991 162.87 107.918C163.152 107.846 163.448 107.844 163.73 107.915C163.908 107.945 164.09 107.945 164.268 107.915L164.461 107.763C164.594 107.646 164.745 107.55 164.907 107.479C165.352 107.291 165.814 107.148 166.288 107.052C168.058 106.671 169.892 106.706 171.647 107.154C174.082 107.818 176.33 109.037 178.214 110.717C178.671 111.112 179.097 111.529 179.503 111.945C180.109 112.616 180.79 113.215 181.533 113.731C181.777 113.893 182.386 114.239 182.721 114.025C182.81 113.959 182.919 113.923 183.03 113.923C183.142 113.923 183.25 113.959 183.34 114.025C183.425 114.099 183.485 114.197 183.511 114.307C183.536 114.416 183.526 114.531 183.482 114.634C183.196 115.277 182.781 115.853 182.264 116.329L182.416 116.258C182.497 116.203 182.592 116.174 182.69 116.174C182.788 116.174 182.883 116.203 182.964 116.258C183.044 116.312 183.107 116.387 183.147 116.475C183.186 116.563 183.2 116.66 183.187 116.756C183.039 117.484 182.74 118.173 182.308 118.779C181.876 119.384 181.321 119.891 180.68 120.268L180.285 120.511C179.919 120.711 179.579 120.953 179.27 121.232C179.051 121.499 178.905 121.816 178.843 122.156V122.277C178.769 122.675 178.624 123.056 178.417 123.404C177.93 123.98 177.239 124.344 176.488 124.419H176.296C175.128 124.667 173.937 124.786 172.743 124.774ZM170.713 123.759H171.728C173.179 123.836 174.633 123.744 176.062 123.485L176.275 123.434C176.681 123.353 177.361 123.201 177.534 122.927C177.682 122.677 177.782 122.402 177.828 122.115V121.983C177.93 121.471 178.164 120.995 178.508 120.603C178.871 120.255 179.277 119.954 179.716 119.709L180.082 119.486C180.84 119.02 181.455 118.352 181.858 117.558C181.352 117.612 180.84 117.532 180.376 117.324C180.282 117.285 180.202 117.218 180.146 117.133C180.089 117.049 180.059 116.949 180.059 116.847C180.059 116.745 180.089 116.646 180.146 116.561C180.202 116.476 180.282 116.41 180.376 116.37C181.013 116.09 181.568 115.654 181.99 115.101C181.608 115.01 181.247 114.848 180.924 114.624C180.108 114.065 179.359 113.415 178.691 112.686C178.305 112.29 177.899 111.884 177.473 111.518C175.713 109.946 173.61 108.806 171.332 108.189C169.739 107.771 168.07 107.736 166.46 108.088C166.051 108.169 165.65 108.288 165.263 108.443L165.029 108.605C164.862 108.762 164.66 108.877 164.44 108.94C164.139 109.001 163.828 109.001 163.527 108.94C163.172 108.94 163.009 108.869 162.766 109.093C162.464 109.432 162.257 109.845 162.167 110.29C161.437 112.806 161.189 115.437 161.436 118.045C161.486 119.184 161.729 120.307 162.157 121.364C162.439 122.021 162.67 122.7 162.847 123.394L163.862 123.465C165.892 123.597 168.034 123.739 170.114 123.709L170.713 123.759Z" fill="#484646"/>
<path d="M176.549 123.008C177.098 120.217 181.787 119.689 181.442 123.008C181.361 124.152 180.879 125.23 180.082 126.053C179.679 126.459 179.165 126.736 178.604 126.848C178.044 126.96 177.463 126.903 176.935 126.682" fill="white"/>
<path d="M177.991 127.444C177.544 127.444 177.104 127.343 176.702 127.149C176.639 127.12 176.583 127.079 176.537 127.027C176.491 126.976 176.456 126.915 176.434 126.85C176.412 126.784 176.404 126.715 176.41 126.646C176.416 126.577 176.436 126.51 176.468 126.449C176.498 126.387 176.541 126.332 176.592 126.287C176.644 126.242 176.704 126.207 176.769 126.185C176.835 126.164 176.904 126.155 176.972 126.16C177.041 126.166 177.107 126.184 177.169 126.216C177.601 126.386 178.074 126.426 178.528 126.33C178.983 126.234 179.399 126.008 179.726 125.678C180.433 124.933 180.854 123.962 180.914 122.937C181.056 121.638 180.274 121.333 179.787 121.252C179.184 121.176 178.574 121.323 178.071 121.665C177.569 122.007 177.208 122.521 177.057 123.11C177.045 123.177 177.019 123.242 176.982 123.299C176.945 123.357 176.896 123.406 176.84 123.445C176.783 123.484 176.719 123.511 176.652 123.525C176.585 123.539 176.515 123.539 176.448 123.526C176.311 123.499 176.19 123.418 176.112 123.302C176.034 123.186 176.005 123.044 176.032 122.907C176.233 122.051 176.746 121.302 177.471 120.804C178.195 120.307 179.079 120.098 179.95 120.217C180.274 120.259 180.585 120.368 180.866 120.535C181.146 120.703 181.389 120.927 181.579 121.192C181.769 121.458 181.903 121.76 181.972 122.079C182.041 122.398 182.044 122.728 181.98 123.049C181.888 124.321 181.353 125.521 180.467 126.439C179.799 127.075 178.914 127.435 177.991 127.444Z" fill="#484646"/>
<path d="M164.928 122.612C164.572 119.78 159.934 118.928 160.056 122.247C160.051 123.4 160.453 124.518 161.192 125.404C161.567 125.835 162.061 126.145 162.612 126.295C163.163 126.445 163.747 126.428 164.288 126.246" fill="white"/>
<path d="M163.405 126.987C162.915 126.978 162.431 126.869 161.984 126.666C161.538 126.464 161.137 126.172 160.807 125.81C159.985 124.831 159.533 123.596 159.528 122.318C159.485 121.996 159.51 121.668 159.599 121.355C159.689 121.043 159.841 120.752 160.048 120.5C160.254 120.249 160.51 120.043 160.8 119.895C161.089 119.746 161.406 119.659 161.73 119.638C162.606 119.581 163.471 119.852 164.158 120.398C164.844 120.944 165.303 121.726 165.445 122.592C165.455 122.66 165.452 122.729 165.434 122.796C165.417 122.863 165.387 122.925 165.346 122.98C165.304 123.035 165.252 123.081 165.192 123.115C165.133 123.15 165.067 123.172 164.999 123.181C164.86 123.198 164.72 123.16 164.61 123.074C164.5 122.988 164.428 122.862 164.41 122.724C164.298 122.129 163.973 121.596 163.497 121.223C163.021 120.849 162.426 120.661 161.822 120.694C161.335 120.694 160.533 120.988 160.573 122.288C160.574 123.317 160.933 124.315 161.588 125.109C161.893 125.46 162.294 125.714 162.741 125.84C163.188 125.966 163.662 125.959 164.105 125.82C164.233 125.769 164.376 125.77 164.503 125.823C164.63 125.877 164.732 125.977 164.786 126.104C164.812 126.167 164.826 126.235 164.826 126.304C164.826 126.372 164.812 126.44 164.786 126.503C164.759 126.567 164.72 126.624 164.672 126.672C164.623 126.72 164.565 126.758 164.501 126.784C164.153 126.923 163.78 126.992 163.405 126.987Z" fill="#484646"/>
<path d="M164.847 136.66C166.688 137.452 168.669 137.866 170.673 137.878C174.347 138.01 174.966 137.015 174.966 137.015L174.875 135.046L174.672 130.468L174.479 126.185L166.085 125.891L165.679 129.372L165.557 130.499L164.847 136.66Z" fill="white"/>
<path d="M171.292 138.416H170.632C168.536 138.409 166.464 137.974 164.542 137.137C164.448 137.087 164.37 137.01 164.32 136.916C164.269 136.822 164.247 136.715 164.258 136.609L165.557 125.83C165.574 125.701 165.639 125.583 165.738 125.498C165.838 125.414 165.965 125.369 166.095 125.373L174.499 125.657C174.632 125.662 174.758 125.717 174.852 125.812C174.947 125.906 175.002 126.032 175.007 126.165L175.494 136.985C175.493 137.092 175.466 137.196 175.413 137.289C175.291 137.482 174.54 138.416 171.292 138.416ZM165.415 136.335C167.102 136.978 168.888 137.321 170.693 137.35C173.2 137.431 174.144 136.985 174.428 136.782L173.981 126.632L166.572 126.439L165.415 136.335Z" fill="#484646"/>
<path d="M169.85 131.372H170.601C172.309 131.429 173.97 130.806 175.219 129.639C176.467 128.473 177.202 126.858 177.26 125.15V124.825C177.26 123.627 177.331 122.43 177.372 121.232C177.372 120.491 177.625 119.882 177.138 119.273C176.652 118.759 176.05 118.369 175.382 118.136C173.163 117.168 170.909 116.272 168.622 115.446C167.862 115.241 167.164 114.851 166.592 114.31C166.519 115.561 166.062 116.759 165.283 117.74C164.783 118.389 164.322 119.067 163.902 119.77C163.695 120.558 163.63 121.376 163.71 122.186L163.628 124.652C163.592 125.503 163.724 126.353 164.017 127.152C164.311 127.951 164.76 128.684 165.339 129.309C165.917 129.934 166.614 130.438 167.388 130.792C168.162 131.146 168.999 131.343 169.85 131.372Z" fill="white"/>
<path d="M170.825 131.93H170.632H169.881C168.035 131.864 166.29 131.068 165.03 129.717C163.771 128.366 163.099 126.57 163.162 124.723L163.253 122.308C163.253 122.074 163.253 121.871 163.253 121.658C163.187 120.971 163.274 120.278 163.507 119.628C163.76 119.129 164.063 118.657 164.41 118.217C164.593 117.974 164.765 117.74 164.917 117.507C165.637 116.62 166.063 115.531 166.135 114.391C166.132 114.284 166.162 114.178 166.22 114.088C166.279 113.998 166.363 113.928 166.462 113.887C166.562 113.846 166.671 113.837 166.776 113.86C166.88 113.883 166.976 113.937 167.049 114.015C167.574 114.491 168.203 114.839 168.886 115.03C171.16 115.852 173.443 116.766 175.676 117.73C176.421 117.995 177.09 118.437 177.625 119.019C177.815 119.279 177.948 119.576 178.014 119.891C178.081 120.206 178.08 120.532 178.011 120.846C178.011 120.998 178.011 121.161 178.011 121.323V121.77C178.011 122.785 177.95 123.871 177.909 124.916V125.241C177.833 127.059 177.05 128.776 175.726 130.025C174.403 131.275 172.644 131.958 170.825 131.93ZM167.029 115.345C166.763 116.317 166.327 117.235 165.74 118.055C165.577 118.309 165.384 118.562 165.192 118.826C164.887 119.206 164.618 119.614 164.39 120.044C164.24 120.547 164.192 121.075 164.248 121.597C164.248 121.831 164.248 122.064 164.248 122.267L164.156 124.734C164.112 126.297 164.688 127.815 165.759 128.956C166.829 130.097 168.307 130.768 169.871 130.824H170.622H170.825C172.346 130.82 173.807 130.231 174.905 129.178C176.004 128.125 176.654 126.69 176.722 125.17V124.845C176.722 123.83 176.793 122.744 176.823 121.699V121.252C176.823 121.059 176.823 120.877 176.823 120.704C176.823 120.176 176.894 119.912 176.671 119.689C176.242 119.232 175.709 118.884 175.118 118.674C172.906 117.659 170.642 116.806 168.389 115.994C167.918 115.817 167.463 115.6 167.029 115.345Z" fill="#484646"/>
<path d="M170.632 126.124C170.17 126.127 169.709 126.097 169.252 126.033C169.172 126.04 169.092 126.029 169.017 126C168.943 125.972 168.876 125.927 168.821 125.869C168.766 125.81 168.726 125.741 168.702 125.664C168.678 125.588 168.672 125.508 168.684 125.429C168.696 125.35 168.725 125.275 168.77 125.209C168.815 125.143 168.875 125.088 168.944 125.049C169.013 125.009 169.091 124.986 169.17 124.98C169.25 124.975 169.33 124.988 169.404 125.018C169.922 125.08 170.445 125.104 170.967 125.089C170.793 123.913 170.451 122.768 169.952 121.689C169.925 121.625 169.911 121.556 169.911 121.487C169.911 121.417 169.925 121.349 169.951 121.285C169.977 121.221 170.016 121.162 170.065 121.113C170.114 121.064 170.172 121.025 170.236 120.998C170.366 120.947 170.51 120.948 170.639 121.001C170.767 121.054 170.87 121.155 170.926 121.283C171.464 122.612 172.307 124.957 171.809 125.749C171.747 125.857 171.659 125.948 171.552 126.014C171.446 126.079 171.325 126.117 171.2 126.124H170.632Z" fill="#484646"/>
<path d="M173.88 120.928C173.901 120.323 173.718 119.826 173.471 119.817C173.225 119.808 173.008 120.292 172.987 120.897C172.966 121.502 173.149 121.999 173.395 122.008C173.642 122.017 173.859 121.533 173.88 120.928Z" fill="#484646"/>
<path d="M168.202 120.735C168.223 120.13 168.04 119.633 167.794 119.624C167.547 119.616 167.33 120.099 167.309 120.704C167.288 121.309 167.471 121.807 167.717 121.815C167.964 121.824 168.181 121.34 168.202 120.735Z" fill="#484646"/>
<path d="M166.054 146.455C165.973 146.457 165.892 146.439 165.819 146.401C165.746 146.364 165.684 146.309 165.638 146.242C163.85 143.442 162.54 140.366 161.761 137.137C161.745 137.07 161.743 137.001 161.755 136.934C161.766 136.866 161.791 136.802 161.827 136.744C161.863 136.686 161.911 136.636 161.966 136.596C162.022 136.556 162.085 136.528 162.152 136.513C162.218 136.497 162.287 136.495 162.355 136.507C162.422 136.518 162.487 136.543 162.545 136.579C162.603 136.615 162.653 136.663 162.693 136.718C162.732 136.774 162.76 136.837 162.776 136.904C163.481 139.732 164.584 142.446 166.054 144.963L168.287 141.024C168.357 140.915 168.466 140.836 168.592 140.805C168.718 140.774 168.851 140.791 168.964 140.855C169.077 140.919 169.162 141.023 169.2 141.147C169.238 141.271 169.228 141.405 169.17 141.522L166.521 146.17C166.481 146.246 166.421 146.31 166.348 146.355C166.275 146.399 166.191 146.423 166.105 146.424L166.054 146.455Z" fill="#484646"/>
<path d="M175.575 146.14C175.494 146.139 175.414 146.119 175.342 146.082C175.27 146.045 175.207 145.992 175.159 145.927L171.779 141.197C171.729 141.144 171.692 141.081 171.669 141.012C171.646 140.943 171.637 140.87 171.645 140.798C171.652 140.726 171.675 140.656 171.712 140.594C171.749 140.531 171.798 140.477 171.858 140.435C171.917 140.394 171.985 140.365 172.056 140.352C172.127 140.338 172.201 140.34 172.271 140.358C172.341 140.375 172.407 140.407 172.464 140.452C172.521 140.497 172.568 140.554 172.601 140.618L175.443 144.618C176.103 142.902 177.473 138.984 177.341 136.437C177.338 136.37 177.349 136.303 177.372 136.241C177.395 136.178 177.43 136.121 177.475 136.072C177.521 136.023 177.575 135.983 177.636 135.955C177.696 135.927 177.762 135.911 177.828 135.909C177.895 135.903 177.962 135.911 178.025 135.933C178.088 135.954 178.146 135.988 178.196 136.033C178.245 136.078 178.285 136.132 178.312 136.193C178.34 136.253 178.355 136.319 178.356 136.386C178.518 139.949 176.143 145.622 176.042 145.866C176.004 145.948 175.946 146.019 175.874 146.072C175.801 146.126 175.715 146.16 175.626 146.17L175.575 146.14Z" fill="#484646"/>
<path d="M170.368 128.682H169.921C168.258 128.406 166.748 127.542 165.669 126.246C165.584 126.136 165.545 125.997 165.56 125.859C165.575 125.721 165.643 125.594 165.75 125.505C165.859 125.418 165.998 125.377 166.137 125.392C166.276 125.408 166.403 125.477 166.491 125.586C167.397 126.657 168.651 127.375 170.033 127.616C170.589 127.652 171.146 127.573 171.67 127.385C172.193 127.196 172.673 126.902 173.078 126.52C173.13 126.474 173.191 126.44 173.257 126.418C173.323 126.396 173.392 126.388 173.461 126.394C173.531 126.399 173.598 126.419 173.659 126.451C173.721 126.483 173.775 126.527 173.819 126.581C173.906 126.687 173.948 126.822 173.936 126.959C173.925 127.095 173.861 127.222 173.758 127.312C172.831 128.164 171.627 128.651 170.368 128.682Z" fill="#484646"/>
<path d="M151.286 143.298C147.974 146.458 145.151 150.095 142.912 154.087C139.614 160.248 136.254 207.436 136.254 207.436H147.916L154.767 167.12L151.286 143.298Z" fill="#FF931E"/>
<path d="M152.778 191.084C152.653 191.085 152.532 191.038 152.44 190.953C152.348 190.868 152.291 190.752 152.281 190.627L148.87 154.138C148.863 154.072 148.87 154.005 148.889 153.941C148.908 153.878 148.94 153.819 148.983 153.768C149.025 153.716 149.078 153.674 149.137 153.644C149.196 153.613 149.261 153.595 149.327 153.59C149.393 153.583 149.46 153.589 149.524 153.609C149.587 153.628 149.647 153.66 149.698 153.703C149.749 153.745 149.791 153.798 149.821 153.857C149.852 153.916 149.87 153.981 149.875 154.047L153.286 190.526C153.297 190.66 153.256 190.793 153.17 190.898C153.085 191.002 152.963 191.069 152.829 191.084H152.778Z" fill="#484646"/>
<path d="M190.039 191.084C189.972 191.078 189.907 191.058 189.848 191.027C189.789 190.995 189.736 190.952 189.694 190.9C189.651 190.848 189.62 190.789 189.6 190.724C189.581 190.66 189.575 190.593 189.582 190.526L192.962 154.047C192.974 153.912 193.039 153.788 193.143 153.701C193.247 153.615 193.381 153.573 193.515 153.585C193.65 153.597 193.774 153.662 193.861 153.766C193.947 153.87 193.989 154.004 193.977 154.138L190.567 190.627C190.556 190.758 190.495 190.879 190.396 190.964C190.297 191.049 190.169 191.093 190.039 191.084Z" fill="#484646"/>
<path d="M170.287 142.628L168.084 145.084L169.444 146.445L166.958 180.518L170.896 185.278L175.433 179.564L171.139 146.404L172.601 144.963L170.287 142.628Z" fill="#484646"/>
<path d="M231.918 268.305H223.798C223.688 268.274 223.591 268.207 223.521 268.116C223.452 268.024 223.415 267.913 223.415 267.798C223.415 267.683 223.452 267.572 223.521 267.48C223.591 267.389 223.688 267.322 223.798 267.29H231.918C231.996 267.268 232.079 267.264 232.159 267.279C232.24 267.294 232.315 267.327 232.381 267.377C232.446 267.426 232.499 267.489 232.535 267.563C232.572 267.636 232.591 267.716 232.591 267.798C232.591 267.88 232.572 267.96 232.535 268.033C232.499 268.106 232.446 268.17 232.381 268.219C232.315 268.268 232.24 268.302 232.159 268.317C232.079 268.332 231.996 268.328 231.918 268.305Z" fill="#484646"/>
<path d="M253.212 268.305H245.042C244.963 268.328 244.88 268.332 244.8 268.317C244.72 268.302 244.644 268.268 244.579 268.219C244.514 268.17 244.461 268.106 244.424 268.033C244.388 267.96 244.369 267.88 244.369 267.798C244.369 267.716 244.388 267.636 244.424 267.563C244.461 267.489 244.514 267.426 244.579 267.377C244.644 267.327 244.72 267.294 244.8 267.279C244.88 267.264 244.963 267.268 245.042 267.29H253.212C253.323 267.322 253.42 267.388 253.489 267.48C253.558 267.572 253.595 267.683 253.595 267.798C253.595 267.913 253.558 268.024 253.489 268.116C253.42 268.207 253.323 268.274 253.212 268.305Z" fill="#484646"/>
<path d="M179.348 234.282L167.116 223.43L157.767 233.968L169.998 244.82L179.348 234.282Z" fill="white"/>
<path d="M169.972 245.336C169.848 245.334 169.729 245.287 169.637 245.204L157.437 234.354C157.34 234.264 157.282 234.14 157.275 234.009C157.267 233.942 157.274 233.875 157.295 233.812C157.316 233.749 157.351 233.692 157.396 233.643L166.744 223.097C166.841 223.004 166.97 222.951 167.105 222.951C167.239 222.951 167.369 223.004 167.465 223.097L179.696 233.948C179.798 234.039 179.86 234.166 179.868 234.303C179.872 234.437 179.824 234.567 179.736 234.668L170.388 245.204C170.332 245.254 170.266 245.292 170.195 245.315C170.123 245.338 170.047 245.345 169.972 245.336ZM158.452 233.937L169.921 244.087L178.6 234.313L167.13 224.163L158.452 233.937Z" fill="#484646"/>
<path d="M167.911 242.978L159.847 235.824L141.565 256.43L149.629 263.584L167.911 242.978Z" fill="#F2F1F1"/>
<path d="M149.611 264.093C149.507 264.1 149.403 264.071 149.317 264.012L141.197 256.907C141.147 256.864 141.107 256.811 141.079 256.752C141.051 256.692 141.036 256.628 141.035 256.562C141.029 256.496 141.037 256.429 141.058 256.367C141.079 256.304 141.112 256.246 141.156 256.196L159.426 235.592C159.519 235.491 159.646 235.43 159.782 235.419C159.848 235.414 159.914 235.423 159.977 235.443C160.039 235.464 160.097 235.498 160.147 235.541L168.206 242.697C168.307 242.787 168.369 242.912 168.378 243.047C168.387 243.182 168.344 243.315 168.257 243.418L149.987 264.022C149.876 264.094 149.741 264.119 149.611 264.093ZM142.263 256.389L149.571 262.865L167.181 243.022L159.873 236.536L142.263 256.389Z" fill="#484646"/>
<path d="M225.929 168.409C219.996 163.145 212.636 159.759 204.778 158.678C196.921 157.598 188.92 158.871 181.786 162.338C174.653 165.805 168.707 171.309 164.702 178.155C160.696 185 158.811 192.88 159.283 200.797C159.756 208.714 162.566 216.314 167.357 222.634C172.148 228.954 178.707 233.712 186.202 236.305C193.697 238.899 201.793 239.211 209.466 237.204C217.139 235.196 224.045 230.958 229.309 225.026C236.367 217.069 239.976 206.635 239.342 196.018C238.708 185.401 233.883 175.47 225.929 168.409Z" fill="white"/>
<path d="M199.255 239.023C192.686 239.009 186.218 237.401 180.407 234.337C174.595 231.273 169.614 226.845 165.891 221.433C162.168 216.021 159.814 209.786 159.03 203.263C158.247 196.74 159.059 190.125 161.395 183.985C163.731 177.845 167.522 172.364 172.443 168.012C177.363 163.659 183.267 160.566 189.646 158.997C196.025 157.429 202.69 157.431 209.068 159.005C215.446 160.579 221.347 163.677 226.264 168.034C232.278 173.362 236.576 180.355 238.613 188.127C240.651 195.9 240.336 204.102 237.709 211.695C235.083 219.288 230.262 225.932 223.857 230.784C217.453 235.636 209.752 238.478 201.732 238.952C200.909 238.992 200.067 239.023 199.255 239.023ZM199.367 158.838C198.565 158.838 197.763 158.838 196.951 158.909C187.81 159.457 179.141 163.157 172.422 169.38C165.703 175.602 161.35 183.962 160.103 193.034C158.856 202.107 160.794 211.331 165.585 219.135C170.377 226.939 177.726 232.84 186.381 235.834C195.036 238.827 204.46 238.727 213.05 235.55C221.639 232.374 228.861 226.318 233.486 218.414C238.11 210.51 239.852 201.247 238.413 192.203C236.974 183.159 232.444 174.894 225.594 168.815C218.379 162.368 209.042 158.805 199.367 158.807V158.838Z" fill="#484646"/>
<path d="M112.716 302.024L107.702 297.608C105.672 295.832 105.236 293.082 106.687 291.518L146.039 247.234C147.47 245.62 150.251 245.752 152.25 247.528L157.234 251.954C159.264 253.72 159.7 256.47 158.249 258.044L118.897 302.328C117.497 303.932 114.716 303.8 112.716 302.024Z" fill="white"/>
<path d="M116.248 303.962H116.005C114.657 303.874 113.379 303.33 112.381 302.42L107.397 297.994C105.185 296.035 104.708 292.97 106.311 291.143L145.673 246.858C146.09 246.408 146.603 246.059 147.175 245.835C147.746 245.612 148.36 245.521 148.972 245.569C150.325 245.656 151.608 246.204 152.606 247.122L157.579 251.538C159.792 253.497 160.269 256.613 158.665 258.389L119.303 302.673C118.917 303.096 118.444 303.43 117.917 303.652C117.39 303.875 116.82 303.98 116.248 303.962ZM148.728 246.574C148.3 246.563 147.875 246.642 147.48 246.807C147.084 246.971 146.728 247.217 146.434 247.528L107.073 291.813C105.834 293.213 106.281 295.639 108.088 297.223L113.071 301.648C113.909 302.414 114.984 302.869 116.116 302.937C116.575 302.978 117.037 302.915 117.468 302.751C117.899 302.588 118.287 302.328 118.603 301.993L157.965 257.709C159.203 256.308 158.756 253.872 156.95 252.289L151.966 247.863C151.129 247.097 150.054 246.642 148.921 246.574H148.728Z" fill="#484646"/>
<path d="M199.316 230.75C217.181 230.75 231.664 216.268 231.664 198.402C231.664 180.537 217.181 166.054 199.316 166.054C181.45 166.054 166.968 180.537 166.968 198.402C166.968 216.268 181.45 230.75 199.316 230.75Z" fill="white"/>
<path d="M199.296 231.248C191.263 231.263 183.506 228.322 177.503 222.986C171.74 217.884 167.947 210.923 166.786 203.314C165.624 195.705 167.168 187.93 171.148 181.342C175.128 174.753 181.293 169.769 188.568 167.257C195.844 164.745 203.77 164.863 210.967 167.592C218.165 170.321 224.177 175.487 227.958 182.191C231.74 188.895 233.05 196.714 231.662 204.284C230.274 211.855 226.275 218.7 220.361 223.627C214.447 228.553 206.993 231.25 199.296 231.248ZM178.173 222.224C182.884 226.404 188.727 229.093 194.966 229.951C201.204 230.809 207.557 229.799 213.221 227.047C218.885 224.295 223.606 219.925 226.786 214.49C229.967 209.055 231.465 202.799 231.09 196.513C230.715 190.227 228.485 184.193 224.681 179.175C220.878 174.156 215.671 170.378 209.72 168.319C203.77 166.259 197.342 166.01 191.249 167.603C185.157 169.197 179.674 172.561 175.494 177.27C169.9 183.592 167.04 191.874 167.543 200.301C168.045 208.728 171.868 216.612 178.173 222.224Z" fill="#D1D1D1"/>
<path d="M198.93 217.494C199.834 216.733 200.706 215.962 201.61 215.231L209.172 209.141C210.874 207.826 212.507 206.423 214.064 204.939C215.454 203.616 216.601 202.06 217.454 200.341C217.991 199.159 218.377 197.915 218.601 196.636C218.81 195.491 218.919 194.329 218.926 193.165C218.973 191.236 218.426 189.339 217.358 187.732C216.29 186.125 214.754 184.886 212.957 184.182C211.176 183.439 209.215 183.235 207.319 183.595C205.422 183.956 203.674 184.866 202.29 186.212C201.565 186.851 200.927 187.581 200.392 188.384L200.27 188.547L200.148 188.334C199.142 186.492 197.654 184.959 195.845 183.898C194.26 182.98 192.447 182.53 190.617 182.599C188.57 182.637 186.588 183.331 184.964 184.578C183.164 185.958 181.921 187.939 181.462 190.161C181.246 191.308 181.161 192.476 181.208 193.642C181.221 194.894 181.378 196.141 181.675 197.357C182.153 199.195 182.991 200.921 184.142 202.432C185.345 204 186.672 205.47 188.11 206.827C190.232 208.857 192.383 210.887 194.505 212.978C195.956 214.399 197.367 215.85 198.798 217.292L198.93 217.494Z" fill="#FF931E"/>
</svg>
