<svg width="400" height="400" viewBox="0 0 400 400" fill="none" xmlns="http://www.w3.org/2000/svg">
<path d="M173.811 136.942H197.653C198.196 136.942 198.733 137.049 199.234 137.257C199.735 137.464 200.191 137.768 200.574 138.152C200.958 138.536 201.262 138.991 201.47 139.492C201.678 139.994 201.784 140.531 201.784 141.073V288.35C201.784 289.445 201.349 290.496 200.574 291.271C199.8 292.045 198.749 292.481 197.653 292.481H173.811V136.942Z" fill="#484646"/>
<path d="M197.653 292.988H173.811C173.677 292.986 173.55 292.931 173.455 292.837C173.36 292.742 173.306 292.615 173.303 292.481V136.942C173.306 136.808 173.36 136.681 173.455 136.586C173.55 136.492 173.677 136.437 173.811 136.435H197.653C198.883 136.437 200.061 136.927 200.93 137.796C201.8 138.666 202.289 139.844 202.292 141.073V288.35C202.289 289.579 201.8 290.757 200.93 291.627C200.061 292.496 198.883 292.986 197.653 292.988ZM174.308 291.973H197.653C198.614 291.971 199.534 291.588 200.213 290.909C200.892 290.23 201.274 289.31 201.277 288.35V141.073C201.277 140.112 200.895 139.19 200.216 138.511C199.536 137.831 198.614 137.45 197.653 137.45H174.308V291.973Z" fill="#484646"/>
<path d="M85.7597 133.308L75.5488 138.079L81.5982 289.354H92.5907L85.7597 133.308Z" fill="#484646"/>
<path d="M92.5907 289.862H81.5983C81.4671 289.862 81.341 289.811 81.2464 289.721C81.1518 289.63 81.096 289.506 81.0908 289.375L75.0008 138.14C74.9953 138.041 75.0195 137.943 75.0701 137.858C75.1207 137.773 75.1955 137.705 75.285 137.663L85.506 132.892C85.5799 132.855 85.6616 132.835 85.7445 132.835C85.8274 132.835 85.9091 132.855 85.9831 132.892C86.057 132.934 86.1185 132.994 86.1613 133.067C86.2041 133.14 86.2267 133.224 86.2267 133.308L93.0576 289.355C93.0626 289.424 93.0525 289.493 93.028 289.558C93.0034 289.623 92.9651 289.682 92.9155 289.73C92.8274 289.813 92.7116 289.86 92.5907 289.862ZM82.0855 288.847H92.0629L85.2929 134.141L76.0665 138.444L82.0855 288.847Z" fill="#484646"/>
<path d="M180.936 288.685C180.869 290.816 180.127 292.872 178.818 294.555C177.508 296.239 175.698 297.463 173.649 298.053C146.677 305.55 118.172 305.55 91.2002 298.053C89.1505 297.463 87.3406 296.239 86.0311 294.555C84.7215 292.872 83.9797 290.816 83.9125 288.685L79.2232 136.942C79.1444 134.651 79.8529 132.402 81.2307 130.57C82.6084 128.738 84.5723 127.433 86.7951 126.873C101.737 123.371 117.043 121.667 132.389 121.798C147.738 121.667 163.048 123.371 177.993 126.873C180.219 127.431 182.188 128.734 183.571 130.566C184.954 132.398 185.669 134.648 185.595 136.942L180.936 288.685Z" fill="white"/>
<path d="M132.47 304.184C118.471 304.262 104.531 302.372 91.058 298.571C88.9053 297.953 87.0044 296.667 85.629 294.9C84.2537 293.132 83.4749 290.974 83.4049 288.735L78.675 136.962C78.6039 134.554 79.3567 132.193 80.8092 130.27C82.2616 128.346 84.3266 126.977 86.6631 126.386C96.0417 124.072 111.581 121.311 132.338 121.311C153.095 121.311 168.685 124.072 178.064 126.386C180.4 126.977 182.465 128.346 183.918 130.27C185.37 132.193 186.123 134.554 186.052 136.962L181.363 288.705C181.293 290.943 180.514 293.102 179.138 294.869C177.763 296.637 175.862 297.922 173.709 298.54C160.293 302.335 146.412 304.235 132.47 304.184ZM132.47 122.326C111.774 122.326 96.3157 125.067 86.998 127.401C84.8741 127.915 82.9905 129.142 81.6608 130.876C80.3311 132.61 79.6356 134.747 79.69 136.932L84.3793 288.674C84.4413 290.699 85.1453 292.651 86.3896 294.25C87.6339 295.848 89.3541 297.009 91.3016 297.566C118.196 305.046 146.622 305.046 173.517 297.566C175.463 297.006 177.181 295.844 178.425 294.247C179.669 292.649 180.374 290.698 180.439 288.674L185.128 136.932C185.194 134.755 184.515 132.62 183.203 130.881C181.89 129.142 180.024 127.904 177.912 127.371C168.584 125.067 153.125 122.326 132.47 122.326Z" fill="#484646"/>
<path d="M168.117 140.962H96.7217C93.5769 140.962 91.0276 143.511 91.0276 146.656V198.837C91.0276 201.982 93.5769 204.531 96.7217 204.531H168.117C171.262 204.531 173.811 201.982 173.811 198.837V146.656C173.811 143.511 171.262 140.962 168.117 140.962Z" fill="#FF931E"/>
<path d="M131.201 216.285C114.578 216.22 97.9729 215.204 81.4663 213.24C81.3317 213.222 81.2096 213.152 81.1268 213.044C81.044 212.937 81.0073 212.801 81.0248 212.666C81.0423 212.532 81.1125 212.409 81.2201 212.327C81.3276 212.244 81.4637 212.207 81.5983 212.225C82.258 212.316 148.406 220.801 183.19 208.956C183.311 208.931 183.438 208.95 183.546 209.011C183.654 209.073 183.736 209.172 183.776 209.289C183.816 209.407 183.811 209.535 183.763 209.649C183.715 209.764 183.626 209.857 183.514 209.91C169.112 214.833 149.431 216.285 131.201 216.285Z" fill="#484646"/>
<path d="M112.779 276.352H96.61C95.5505 276.352 94.6917 277.211 94.6917 278.271V284.422C94.6917 285.481 95.5505 286.34 96.61 286.34H112.779C113.838 286.34 114.697 285.481 114.697 284.422V278.271C114.697 277.211 113.838 276.352 112.779 276.352Z" fill="#FF931E"/>
<path d="M112.769 286.847H96.6102C95.9668 286.847 95.3498 286.592 94.8948 286.137C94.4399 285.682 94.1843 285.065 94.1843 284.422V278.271C94.1843 277.627 94.4399 277.01 94.8948 276.555C95.3498 276.1 95.9668 275.845 96.6102 275.845H112.769C113.089 275.842 113.407 275.903 113.704 276.024C114 276.144 114.27 276.323 114.497 276.548C114.725 276.774 114.905 277.042 115.029 277.338C115.152 277.633 115.215 277.95 115.215 278.271V284.422C115.215 284.742 115.152 285.059 115.029 285.355C114.905 285.65 114.725 285.919 114.497 286.144C114.27 286.37 114 286.548 113.704 286.669C113.407 286.789 113.089 286.85 112.769 286.847ZM96.6102 276.86C96.236 276.86 95.8771 277.009 95.6126 277.273C95.348 277.538 95.1993 277.897 95.1993 278.271V284.422C95.1993 284.796 95.348 285.155 95.6126 285.419C95.8771 285.684 96.236 285.832 96.6102 285.832H112.769C113.143 285.832 113.502 285.684 113.767 285.419C114.031 285.155 114.18 284.796 114.18 284.422V278.271C114.18 277.897 114.031 277.538 113.767 277.273C113.502 277.009 113.143 276.86 112.769 276.86H96.6102Z" fill="#484646"/>
<path d="M140.509 276.352H124.34C123.281 276.352 122.422 277.211 122.422 278.271V284.422C122.422 285.481 123.281 286.34 124.34 286.34H140.509C141.568 286.34 142.427 285.481 142.427 284.422V278.271C142.427 277.211 141.568 276.352 140.509 276.352Z" fill="#D1D1D1"/>
<path d="M140.509 286.847H124.35C123.707 286.847 123.09 286.592 122.635 286.137C122.18 285.682 121.924 285.065 121.924 284.422V278.271C121.924 277.627 122.18 277.01 122.635 276.555C123.09 276.1 123.707 275.845 124.35 275.845H140.519C141.162 275.845 141.78 276.1 142.234 276.555C142.689 277.01 142.945 277.627 142.945 278.271V284.422C142.945 284.741 142.882 285.057 142.759 285.352C142.637 285.647 142.457 285.915 142.231 286.141C142.005 286.366 141.736 286.544 141.44 286.666C141.145 286.787 140.828 286.849 140.509 286.847ZM124.35 276.86C124.164 276.859 123.979 276.894 123.807 276.964C123.635 277.035 123.478 277.138 123.346 277.269C123.214 277.401 123.109 277.557 123.038 277.728C122.966 277.9 122.929 278.085 122.929 278.271V284.422C122.929 284.796 123.078 285.155 123.342 285.419C123.607 285.684 123.966 285.832 124.34 285.832H140.509C140.883 285.832 141.242 285.684 141.507 285.419C141.771 285.155 141.92 284.796 141.92 284.422V278.271C141.92 277.897 141.771 277.538 141.507 277.273C141.242 277.008 140.883 276.86 140.509 276.86H124.35Z" fill="#484646"/>
<path d="M168.239 276.352H152.07C151.01 276.352 150.151 277.211 150.151 278.271V284.422C150.151 285.481 151.01 286.34 152.07 286.34H168.239C169.298 286.34 170.157 285.481 170.157 284.422V278.271C170.157 277.211 169.298 276.352 168.239 276.352Z" fill="#FF931E"/>
<path d="M168.239 286.847H152.07C151.426 286.847 150.809 286.592 150.354 286.137C149.899 285.682 149.644 285.065 149.644 284.422V278.271C149.644 277.627 149.899 277.01 150.354 276.555C150.809 276.1 151.426 275.845 152.07 275.845H168.239C168.882 275.845 169.499 276.1 169.954 276.555C170.409 277.01 170.664 277.627 170.664 278.271V284.422C170.664 285.065 170.409 285.682 169.954 286.137C169.499 286.592 168.882 286.847 168.239 286.847ZM152.07 276.86C151.695 276.86 151.337 277.008 151.072 277.273C150.807 277.538 150.659 277.897 150.659 278.271V284.422C150.659 284.796 150.807 285.155 151.072 285.419C151.337 285.684 151.695 285.832 152.07 285.832H168.239C168.613 285.832 168.972 285.684 169.236 285.419C169.501 285.155 169.649 284.796 169.649 284.422V278.271C169.649 277.897 169.501 277.538 169.236 277.273C168.972 277.008 168.613 276.86 168.239 276.86H152.07Z" fill="#484646"/>
<path d="M112.769 270.861H96.6102C95.9668 270.861 95.3498 270.606 94.8948 270.151C94.4399 269.696 94.1843 269.079 94.1843 268.435V262.284C94.1843 261.641 94.4399 261.024 94.8948 260.569C95.3498 260.114 95.9668 259.859 96.6102 259.859H112.769C113.412 259.859 114.029 260.114 114.484 260.569C114.939 261.024 115.195 261.641 115.195 262.284V268.435C115.195 269.079 114.939 269.696 114.484 270.151C114.029 270.606 113.412 270.861 112.769 270.861ZM96.6102 260.874C96.236 260.874 95.8771 261.022 95.6126 261.287C95.348 261.551 95.1993 261.91 95.1993 262.284V268.435C95.1993 268.81 95.348 269.168 95.6126 269.433C95.8771 269.698 96.236 269.846 96.6102 269.846H112.769C113.143 269.846 113.502 269.698 113.767 269.433C114.031 269.168 114.18 268.81 114.18 268.435V262.284C114.18 261.91 114.031 261.551 113.767 261.287C113.502 261.022 113.143 260.874 112.769 260.874H96.6102Z" fill="#484646"/>
<path d="M140.509 270.861H124.35C123.707 270.861 123.09 270.606 122.635 270.151C122.18 269.696 121.924 269.079 121.924 268.435V262.284C121.924 261.641 122.18 261.024 122.635 260.569C123.09 260.114 123.707 259.859 124.35 259.859H140.519C141.162 259.859 141.78 260.114 142.234 260.569C142.689 261.024 142.945 261.641 142.945 262.284V268.435C142.945 268.755 142.882 269.071 142.759 269.366C142.637 269.661 142.457 269.929 142.231 270.154C142.005 270.38 141.736 270.558 141.44 270.68C141.145 270.801 140.828 270.863 140.509 270.861ZM124.35 260.874C123.976 260.874 123.617 261.022 123.353 261.287C123.088 261.551 122.939 261.91 122.939 262.284V268.435C122.939 268.81 123.088 269.168 123.353 269.433C123.617 269.698 123.976 269.846 124.35 269.846H140.519C140.893 269.846 141.252 269.698 141.517 269.433C141.781 269.168 141.93 268.81 141.93 268.435V262.284C141.93 261.91 141.781 261.551 141.517 261.287C141.252 261.022 140.893 260.874 140.519 260.874H124.35Z" fill="#484646"/>
<path d="M168.239 270.861H152.07C151.426 270.861 150.809 270.606 150.354 270.151C149.899 269.696 149.644 269.079 149.644 268.435V262.284C149.644 261.641 149.899 261.024 150.354 260.569C150.809 260.114 151.426 259.859 152.07 259.859H168.239C168.882 259.859 169.499 260.114 169.954 260.569C170.409 261.024 170.664 261.641 170.664 262.284V268.435C170.664 269.079 170.409 269.696 169.954 270.151C169.499 270.606 168.882 270.861 168.239 270.861ZM152.07 260.874C151.695 260.874 151.337 261.022 151.072 261.287C150.807 261.551 150.659 261.91 150.659 262.284V268.435C150.659 268.81 150.807 269.168 151.072 269.433C151.337 269.698 151.695 269.846 152.07 269.846H168.239C168.613 269.846 168.972 269.698 169.236 269.433C169.501 269.168 169.649 268.81 169.649 268.435V262.284C169.649 261.91 169.501 261.551 169.236 261.287C168.972 261.022 168.613 260.874 168.239 260.874H152.07Z" fill="#484646"/>
<path d="M112.769 254.926H96.6102C95.9668 254.926 95.3498 254.67 94.8948 254.215C94.4399 253.76 94.1843 253.143 94.1843 252.5V246.298C94.1843 245.655 94.4399 245.038 94.8948 244.583C95.3498 244.128 95.9668 243.872 96.6102 243.872H112.769C113.089 243.87 113.407 243.93 113.704 244.051C114 244.172 114.27 244.35 114.497 244.576C114.725 244.801 114.905 245.07 115.029 245.365C115.152 245.661 115.215 245.978 115.215 246.298V252.449C115.222 252.774 115.164 253.096 115.043 253.398C114.923 253.699 114.744 253.974 114.516 254.205C114.288 254.436 114.015 254.618 113.715 254.742C113.415 254.866 113.094 254.929 112.769 254.926ZM96.6102 244.938C96.236 244.938 95.8771 245.087 95.6126 245.351C95.348 245.616 95.1993 245.975 95.1993 246.349V252.5C95.1993 252.874 95.348 253.233 95.6126 253.498C95.8771 253.762 96.236 253.911 96.6102 253.911H112.769C113.143 253.911 113.502 253.762 113.767 253.498C114.031 253.233 114.18 252.874 114.18 252.5V246.298C114.18 245.924 114.031 245.565 113.767 245.301C113.502 245.036 113.143 244.887 112.769 244.887L96.6102 244.938Z" fill="#484646"/>
<path d="M140.509 254.926H124.35C123.707 254.926 123.09 254.67 122.635 254.215C122.18 253.76 121.924 253.143 121.924 252.5V246.298C121.924 245.655 122.18 245.038 122.635 244.583C123.09 244.128 123.707 243.872 124.35 243.872H140.519C141.162 243.872 141.78 244.128 142.234 244.583C142.689 245.038 142.945 245.655 142.945 246.298V252.449C142.952 252.773 142.894 253.095 142.774 253.395C142.655 253.696 142.476 253.97 142.249 254.201C142.022 254.432 141.751 254.615 141.452 254.739C141.153 254.864 140.833 254.927 140.509 254.926ZM124.35 244.887C123.976 244.887 123.617 245.036 123.353 245.301C123.088 245.565 122.939 245.924 122.939 246.298V252.449C122.932 252.639 122.964 252.828 123.032 253.005C123.1 253.182 123.202 253.343 123.334 253.48C123.466 253.616 123.624 253.725 123.798 253.799C123.973 253.873 124.161 253.911 124.35 253.911H140.519C140.893 253.911 141.252 253.762 141.517 253.497C141.781 253.233 141.93 252.874 141.93 252.5V246.298C141.93 245.924 141.781 245.565 141.517 245.301C141.252 245.036 140.893 244.887 140.519 244.887H124.35Z" fill="#484646"/>
<path d="M168.239 254.926H152.07C151.426 254.926 150.809 254.67 150.354 254.215C149.899 253.76 149.644 253.143 149.644 252.5V246.298C149.644 245.655 149.899 245.038 150.354 244.583C150.809 244.128 151.426 243.872 152.07 243.872H168.239C168.882 243.872 169.499 244.128 169.954 244.583C170.409 245.038 170.664 245.655 170.664 246.298V252.449C170.671 252.772 170.613 253.093 170.495 253.393C170.376 253.693 170.198 253.967 169.972 254.197C169.746 254.428 169.476 254.611 169.179 254.736C168.881 254.861 168.561 254.926 168.239 254.926ZM152.07 244.938C151.695 244.938 151.337 245.087 151.072 245.351C150.807 245.616 150.659 245.975 150.659 246.349V252.5C150.659 252.874 150.807 253.233 151.072 253.497C151.337 253.762 151.695 253.911 152.07 253.911H168.239C168.613 253.911 168.972 253.762 169.236 253.497C169.501 253.233 169.649 252.874 169.649 252.5V246.298C169.649 245.924 169.501 245.565 169.236 245.301C168.972 245.036 168.613 244.887 168.239 244.887L152.07 244.938Z" fill="#484646"/>
<path d="M112.769 238.767H96.6102C95.9676 238.764 95.3522 238.508 94.8978 238.053C94.4434 237.599 94.187 236.984 94.1843 236.341V230.18C94.1843 229.537 94.4399 228.92 94.8948 228.465C95.3498 228.01 95.9668 227.754 96.6102 227.754H112.769C113.412 227.754 114.029 228.01 114.484 228.465C114.939 228.92 115.195 229.537 115.195 230.18V236.341C115.192 236.984 114.936 237.599 114.481 238.053C114.027 238.508 113.412 238.764 112.769 238.767ZM96.6102 228.769C96.236 228.769 95.8771 228.918 95.6126 229.182C95.348 229.447 95.1993 229.806 95.1993 230.18V236.341C95.1993 236.715 95.348 237.074 95.6126 237.339C95.8771 237.603 96.236 237.752 96.6102 237.752H112.769C113.143 237.752 113.502 237.603 113.767 237.339C114.031 237.074 114.18 236.715 114.18 236.341V230.18C114.18 229.806 114.031 229.447 113.767 229.182C113.502 228.918 113.143 228.769 112.769 228.769H96.6102Z" fill="#484646"/>
<path d="M140.509 238.767H124.35C123.708 238.764 123.092 238.508 122.638 238.053C122.183 237.599 121.927 236.984 121.924 236.341V230.18C121.924 229.537 122.18 228.92 122.635 228.465C123.09 228.01 123.707 227.754 124.35 227.754H140.519C141.162 227.754 141.78 228.01 142.234 228.465C142.689 228.92 142.945 229.537 142.945 230.18V236.341C142.942 236.985 142.684 237.602 142.228 238.057C141.771 238.512 141.153 238.767 140.509 238.767ZM124.35 228.769C123.976 228.769 123.617 228.918 123.353 229.182C123.088 229.447 122.939 229.806 122.939 230.18V236.341C122.939 236.715 123.088 237.074 123.353 237.339C123.617 237.603 123.976 237.752 124.35 237.752H140.519C140.892 237.749 141.25 237.6 141.514 237.336C141.778 237.072 141.927 236.714 141.93 236.341V230.18C141.927 229.807 141.778 229.449 141.514 229.185C141.25 228.921 140.892 228.772 140.519 228.769H124.35Z" fill="#484646"/>
<path d="M168.239 238.767H152.07C151.427 238.764 150.812 238.508 150.357 238.053C149.903 237.599 149.646 236.984 149.644 236.341V230.18C149.644 229.537 149.899 228.92 150.354 228.465C150.809 228.01 151.426 227.754 152.07 227.754H168.239C168.882 227.754 169.499 228.01 169.954 228.465C170.409 228.92 170.664 229.537 170.664 230.18V236.341C170.662 236.984 170.405 237.599 169.951 238.053C169.497 238.508 168.881 238.764 168.239 238.767ZM152.07 228.769C151.696 228.772 151.339 228.921 151.075 229.185C150.811 229.449 150.661 229.807 150.659 230.18V236.341C150.661 236.714 150.811 237.072 151.075 237.336C151.339 237.6 151.696 237.749 152.07 237.752H168.239C168.613 237.752 168.972 237.603 169.236 237.339C169.501 237.074 169.649 236.715 169.649 236.341V230.18C169.649 229.806 169.501 229.447 169.236 229.182C168.972 228.918 168.613 228.769 168.239 228.769H152.07Z" fill="#484646"/>
<path d="M165.315 131.989V83.9794L159.317 88.8311L154.242 83.4009L147.928 88.5469L142.904 82.5483L137.24 88.4048L132.044 82.5483L126.613 88.1714L121.092 82.5483L116.331 87.9278L109.764 83.3907L106.547 87.4507L99.5332 82.5077V131.989H165.315Z" fill="white"/>
<path d="M165.315 132.496H99.5332C99.3986 132.496 99.2695 132.443 99.1744 132.348C99.0792 132.253 99.0257 132.124 99.0257 131.989V82.5483C99.0241 82.4554 99.049 82.3641 99.0976 82.285C99.1461 82.2059 99.2163 82.1423 99.2998 82.1017C99.3769 82.0518 99.4668 82.0253 99.5586 82.0253C99.6504 82.0253 99.7403 82.0518 99.8174 82.1017L106.445 86.7707L109.358 83.0659C109.437 82.9624 109.553 82.8931 109.681 82.8723C109.81 82.8515 109.941 82.8808 110.049 82.9543L116.23 87.2477L120.686 82.1727C120.731 82.1195 120.787 82.0765 120.85 82.0468C120.913 82.017 120.981 82.0011 121.051 82.0002C121.121 81.9984 121.19 82.011 121.255 82.0372C121.319 82.0634 121.378 82.1026 121.427 82.1524L126.573 87.4507L131.648 82.2032C131.748 82.1054 131.883 82.0508 132.023 82.0509C132.093 82.0505 132.162 82.0657 132.226 82.0956C132.289 82.1255 132.345 82.1692 132.389 82.2235L137.22 87.674L142.508 82.2032C142.558 82.1521 142.618 82.1121 142.685 82.0859C142.751 82.0596 142.823 82.0477 142.894 82.0509C142.964 82.0544 143.033 82.0724 143.096 82.1039C143.159 82.1353 143.214 82.1795 143.259 82.2336L147.959 87.8466L153.886 83.0253C153.98 82.9383 154.104 82.8899 154.232 82.8899C154.36 82.8899 154.483 82.9383 154.577 83.0253L159.367 88.1003L165.011 83.543C165.086 83.484 165.175 83.4472 165.27 83.4367C165.364 83.4263 165.46 83.4426 165.546 83.4839C165.631 83.5252 165.704 83.5897 165.755 83.6701C165.805 83.7506 165.833 83.8437 165.833 83.9388V131.948C165.839 132.019 165.829 132.09 165.806 132.157C165.782 132.225 165.745 132.286 165.696 132.338C165.647 132.389 165.588 132.43 165.523 132.457C165.457 132.485 165.386 132.498 165.315 132.496ZM100.041 131.481H164.808V85.0452L159.631 89.227C159.538 89.314 159.414 89.3624 159.286 89.3624C159.158 89.3624 159.035 89.314 158.941 89.227L154.15 84.152L148.202 88.9935C148.099 89.0777 147.966 89.1174 147.833 89.1041C147.7 89.0908 147.577 89.0255 147.492 88.9225L142.833 83.3603L137.545 88.7601C137.496 88.8094 137.437 88.8483 137.373 88.8745C137.308 88.9006 137.239 88.9135 137.169 88.9123C137.098 88.9128 137.027 88.8977 136.962 88.8678C136.898 88.838 136.84 88.7943 136.794 88.7398L131.962 83.2994L126.887 88.5165C126.844 88.5707 126.788 88.6137 126.724 88.642C126.661 88.6702 126.591 88.6829 126.522 88.6789C126.386 88.6745 126.256 88.6203 126.157 88.5266L121.021 83.2892L116.626 88.2627C116.542 88.3541 116.429 88.4126 116.306 88.4275C116.183 88.4424 116.059 88.4127 115.956 88.3439L109.815 84.0911L106.892 87.806C106.812 87.9079 106.695 87.9752 106.567 87.9941C106.439 88.013 106.308 87.982 106.202 87.9075L99.99 83.5227L100.041 131.481Z" fill="#484646"/>
<path d="M93.6362 131.989C94.6512 131.705 171.203 131.989 171.203 131.989H93.6362Z" fill="white"/>
<path d="M93.6057 132.507C93.4968 132.502 93.392 132.464 93.3064 132.396C93.2207 132.329 93.1585 132.236 93.1287 132.131C93.1119 132.065 93.1084 131.996 93.1182 131.929C93.128 131.862 93.151 131.797 93.1859 131.738C93.2208 131.68 93.2669 131.629 93.3215 131.588C93.3761 131.548 93.4382 131.518 93.5042 131.502C94.5192 131.207 158.464 131.431 171.213 131.502C171.347 131.502 171.476 131.555 171.571 131.65C171.667 131.746 171.72 131.875 171.72 132.009C171.72 132.144 171.667 132.273 171.571 132.368C171.476 132.463 171.347 132.517 171.213 132.517C145.076 132.415 95.2399 132.293 93.7478 132.517L93.6057 132.507Z" fill="#484646"/>
<path d="M155.632 100.219H105.989C105.91 100.242 105.827 100.246 105.747 100.231C105.667 100.216 105.591 100.182 105.526 100.133C105.461 100.084 105.408 100.02 105.371 99.9473C105.335 99.8741 105.316 99.7936 105.316 99.7119C105.316 99.6302 105.335 99.5496 105.371 99.4765C105.408 99.4034 105.461 99.3397 105.526 99.2905C105.591 99.2413 105.667 99.2079 105.747 99.193C105.827 99.178 105.91 99.1819 105.989 99.2044H155.632C155.743 99.2359 155.84 99.3025 155.909 99.394C155.978 99.4856 156.015 99.5972 156.015 99.7119C156.015 99.8266 155.978 99.9382 155.909 100.03C155.84 100.121 155.743 100.188 155.632 100.219Z" fill="#D1D1D1"/>
<path d="M142.813 111.293H105.989C105.91 111.315 105.827 111.319 105.747 111.304C105.667 111.289 105.591 111.256 105.526 111.207C105.461 111.158 105.408 111.094 105.371 111.021C105.335 110.948 105.316 110.867 105.316 110.786C105.316 110.704 105.335 110.623 105.371 110.55C105.408 110.477 105.461 110.413 105.526 110.364C105.591 110.315 105.667 110.282 105.747 110.267C105.827 110.252 105.91 110.256 105.989 110.278H142.813C142.891 110.256 142.974 110.252 143.054 110.267C143.135 110.282 143.21 110.315 143.276 110.364C143.341 110.413 143.394 110.477 143.43 110.55C143.467 110.623 143.486 110.704 143.486 110.786C143.486 110.867 143.467 110.948 143.43 111.021C143.394 111.094 143.341 111.158 143.276 111.207C143.21 111.256 143.135 111.289 143.054 111.304C142.974 111.319 142.891 111.315 142.813 111.293Z" fill="#D1D1D1"/>
<path d="M148.913 122.367H105.989C105.91 122.389 105.827 122.393 105.747 122.378C105.667 122.363 105.591 122.33 105.526 122.281C105.461 122.231 105.408 122.168 105.371 122.095C105.335 122.021 105.316 121.941 105.316 121.859C105.316 121.778 105.335 121.697 105.371 121.624C105.408 121.551 105.461 121.487 105.526 121.438C105.591 121.389 105.667 121.355 105.747 121.34C105.827 121.325 105.91 121.329 105.989 121.352H148.913C148.992 121.329 149.074 121.325 149.155 121.34C149.235 121.355 149.311 121.389 149.376 121.438C149.441 121.487 149.494 121.551 149.53 121.624C149.567 121.697 149.586 121.778 149.586 121.859C149.586 121.941 149.567 122.021 149.53 122.095C149.494 122.168 149.441 122.231 149.376 122.281C149.311 122.33 149.235 122.363 149.155 122.378C149.074 122.393 148.992 122.389 148.913 122.367Z" fill="#D1D1D1"/>
<path d="M194.507 136.759H189.858V292.471H194.507V136.759Z" fill="#D1D1D1"/>
<path d="M194.507 292.988H189.858C189.723 292.988 189.594 292.935 189.499 292.84C189.404 292.744 189.351 292.615 189.351 292.481V136.759C189.351 136.625 189.404 136.496 189.499 136.401C189.594 136.305 189.723 136.252 189.858 136.252H194.507C194.641 136.255 194.768 136.309 194.863 136.403C194.957 136.498 195.012 136.626 195.014 136.759V292.481C195.012 292.615 194.957 292.742 194.863 292.837C194.768 292.931 194.641 292.986 194.507 292.988ZM190.366 291.973H193.999V137.267H190.325L190.366 291.973Z" fill="#484646"/>
<path d="M308.065 282.879L272.997 302.712L220.217 220.883C220.745 216.823 219.862 198.837 225.566 202.349C231.27 205.861 250.941 233.895 254.554 235.123C258.168 236.351 267.191 233.093 266.795 224.658C266.399 216.224 266.318 202.166 258.289 200.715C246.109 198.512 233.798 205.434 229.139 203.059C224.48 200.684 221.161 193.762 229.606 189.864C239.258 185.398 259.152 184.058 274.611 187.449C290.069 190.839 298.554 223.583 297.184 246.765C299.691 261.868 306.197 276.078 308.065 282.879Z" fill="white"/>
<path d="M272.976 303.219C272.891 303.22 272.807 303.199 272.733 303.158C272.658 303.117 272.595 303.058 272.55 302.986L219.77 221.157C219.702 221.059 219.673 220.94 219.689 220.822C219.801 220.01 219.841 218.579 219.902 216.924C220.146 209.667 220.582 203.029 223.16 201.648C223.584 201.446 224.056 201.365 224.523 201.413C224.991 201.462 225.436 201.638 225.809 201.922C228.854 203.77 235.361 211.951 241.694 219.857C247.297 226.861 253.082 234.067 254.696 234.646C256.31 235.225 259.832 234.646 262.512 232.616C263.763 231.718 264.764 230.517 265.421 229.124C266.078 227.732 266.37 226.195 266.267 224.658L266.186 222.984C265.831 214.813 265.303 202.47 258.178 201.181C251.621 199.994 244.983 201.516 239.573 202.734C234.873 203.749 231.169 204.643 228.885 203.485C225.891 201.953 223.81 198.918 223.881 196.096C223.881 194.168 224.896 191.437 229.372 189.357C239.38 184.718 259.71 183.622 274.702 186.9C281.919 188.484 288.293 196.492 292.667 209.464C296.589 221.466 298.284 234.083 297.671 246.694C299.417 256.986 303.041 266.994 305.69 274.261C306.918 277.641 307.974 280.554 308.562 282.716C308.592 282.825 308.584 282.94 308.54 283.043C308.495 283.146 308.418 283.231 308.319 283.285L273.251 303.118C273.172 303.18 273.076 303.215 272.976 303.219ZM220.704 220.761L273.139 302.032L307.456 282.625C306.857 280.595 305.862 277.804 304.716 274.647C302.046 267.299 298.392 257.24 296.646 246.836C296.641 246.796 296.641 246.755 296.646 246.714C297.935 225.003 289.937 191.305 274.479 187.926C259.67 184.678 239.624 185.753 229.819 190.311C226.652 191.772 224.957 193.792 224.916 196.147C224.876 198.502 226.703 201.222 229.372 202.613C231.321 203.628 235.046 202.755 239.36 201.78C244.82 200.542 251.611 198.999 258.381 200.217C266.298 201.638 266.856 214.478 267.221 222.973L267.303 224.638C267.405 226.339 267.078 228.039 266.351 229.581C265.623 231.122 264.52 232.456 263.141 233.458C260.451 235.488 256.696 236.392 254.392 235.61C252.626 235.001 248.119 229.52 240.923 220.497C234.934 213.016 228.154 204.541 225.302 202.785C225.077 202.6 224.806 202.48 224.519 202.437C224.231 202.394 223.937 202.43 223.668 202.542C221.384 203.77 221.11 212.022 220.937 216.955C220.846 218.528 220.775 219.888 220.704 220.761Z" fill="#484646"/>
<path d="M222.336 121.135L174.704 149.103C170.759 151.419 169.439 156.494 171.755 160.439L214.674 233.533C216.99 237.477 222.065 238.797 226.01 236.481L273.642 208.513C277.586 206.197 278.907 201.122 276.59 197.177L233.672 124.083C231.356 120.139 226.281 118.819 222.336 121.135Z" fill="white"/>
<path d="M221.79 238.148C220.256 238.148 218.748 237.748 217.416 236.986C216.084 236.224 214.975 235.127 214.198 233.804L171.284 160.724C170.107 158.715 169.775 156.321 170.362 154.068C170.948 151.815 172.404 149.887 174.41 148.706L222.094 120.712C224.105 119.535 226.5 119.203 228.755 119.789C231.009 120.375 232.939 121.831 234.122 123.838L277.036 196.918C277.622 197.914 278.005 199.015 278.164 200.158C278.323 201.302 278.254 202.466 277.963 203.583C277.672 204.7 277.163 205.749 276.466 206.669C275.769 207.59 274.897 208.363 273.9 208.946L226.266 236.92C224.912 237.725 223.365 238.149 221.79 238.148ZM226.489 120.519C225.116 120.502 223.763 120.852 222.572 121.534L174.927 149.508C174.044 150.019 173.272 150.701 172.656 151.515C172.041 152.33 171.595 153.259 171.344 154.248C171.084 155.236 171.021 156.266 171.16 157.278C171.3 158.29 171.638 159.264 172.156 160.145L215.071 233.225C216.116 235.001 217.823 236.289 219.818 236.807C221.812 237.324 223.931 237.029 225.708 235.986L273.352 208.023C275.127 206.977 276.416 205.27 276.936 203.277C277.455 201.283 277.163 199.164 276.123 197.385L233.209 124.305C232.693 123.424 232.007 122.654 231.192 122.039C230.377 121.424 229.448 120.976 228.459 120.722C227.827 120.573 227.179 120.505 226.53 120.519H226.489Z" fill="#484646"/>
<path d="M220.232 132.726L208.214 139.783C205.362 141.457 204.408 145.127 206.082 147.979L211.078 156.487C212.752 159.339 216.422 160.293 219.274 158.618L231.291 151.562C234.143 149.888 235.098 146.218 233.423 143.366L228.428 134.858C226.753 132.006 223.084 131.052 220.232 132.726Z" fill="#FF931E"/>
<path d="M255.989 180.736C254.951 178.986 252.691 178.408 250.941 179.446C249.191 180.484 248.613 182.744 249.651 184.494L259.337 200.826C260.374 202.576 262.634 203.153 264.384 202.115C266.134 201.077 266.712 198.818 265.674 197.068L255.989 180.736Z" fill="#D1D1D1"/>
<path d="M187.872 151.731L184.502 153.709C183.618 154.229 183.322 155.367 183.841 156.252L191.077 168.575C191.597 169.46 192.735 169.756 193.619 169.237L196.989 167.258C197.874 166.739 198.17 165.6 197.651 164.716L190.414 152.392C189.895 151.507 188.757 151.211 187.872 151.731Z" fill="#D1D1D1"/>
<path d="M198.924 170.543L195.554 172.521C194.67 173.041 194.373 174.179 194.893 175.063L202.129 187.387C202.648 188.272 203.787 188.568 204.671 188.049L208.041 186.07C208.926 185.55 209.222 184.412 208.702 183.528L201.466 171.204C200.947 170.319 199.809 170.023 198.924 170.543Z" fill="#D1D1D1"/>
<path d="M209.972 189.351L206.602 191.329C205.717 191.849 205.421 192.987 205.941 193.872L213.177 206.195C213.696 207.08 214.834 207.376 215.719 206.857L219.089 204.878C219.974 204.359 220.27 203.22 219.75 202.336L212.514 190.012C211.995 189.127 210.856 188.831 209.972 189.351Z" fill="#D1D1D1"/>
<path d="M221.015 208.168L217.645 210.146C216.76 210.666 216.464 211.804 216.983 212.688L224.22 225.012C224.739 225.897 225.877 226.193 226.762 225.673L230.132 223.695C231.016 223.175 231.312 222.037 230.793 221.153L223.557 208.829C223.037 207.944 221.899 207.648 221.015 208.168Z" fill="#D1D1D1"/>
<path d="M229.565 235.438C229.565 235.438 215.538 213.646 213.487 209.515C210.148 202.785 220.643 198.289 223.952 201.313C226.297 203.455 245.196 225.166 247.561 227.947" fill="white"/>
<path d="M229.565 235.945C229.48 235.944 229.397 235.922 229.323 235.882C229.248 235.841 229.185 235.783 229.139 235.712C228.57 234.829 215.071 213.859 213.031 209.738C211.61 206.876 212.411 203.942 215.162 201.872C217.913 199.801 222.155 198.989 224.297 200.938C226.743 203.171 245.876 225.166 247.967 227.622C248.01 227.674 248.043 227.733 248.063 227.797C248.084 227.861 248.091 227.928 248.086 227.995C248.08 228.062 248.061 228.127 248.03 228.187C248 228.247 247.957 228.3 247.906 228.343C247.855 228.386 247.795 228.419 247.731 228.439C247.667 228.46 247.6 228.467 247.533 228.462C247.466 228.456 247.401 228.437 247.341 228.406C247.282 228.376 247.229 228.333 247.185 228.282C244.557 225.176 225.87 203.76 223.617 201.689C222.074 200.278 218.339 200.755 215.781 202.704C214.703 203.378 213.917 204.432 213.579 205.657C213.241 206.883 213.375 208.19 213.954 209.322C215.984 213.382 229.859 234.981 230.001 235.194C230.039 235.25 230.064 235.312 230.077 235.378C230.089 235.444 230.088 235.511 230.074 235.577C230.06 235.642 230.033 235.704 229.994 235.759C229.955 235.813 229.906 235.859 229.849 235.894C229.763 235.943 229.663 235.961 229.565 235.945Z" fill="#484646"/>
<path d="M323.584 293.749L304.847 256.895L253.072 279.367L263.029 318.191L323.584 293.749Z" fill="#484646"/>
<path d="M263.03 318.698C262.953 318.696 262.877 318.679 262.806 318.647C262.742 318.614 262.686 318.568 262.641 318.512C262.595 318.456 262.562 318.392 262.542 318.323L252.585 279.499C252.555 279.382 252.567 279.257 252.619 279.148C252.671 279.039 252.759 278.951 252.869 278.9L304.634 256.428C304.753 256.378 304.887 256.376 305.007 256.421C305.128 256.467 305.227 256.556 305.284 256.671L324.031 293.496C324.061 293.561 324.077 293.632 324.077 293.704C324.077 293.776 324.061 293.847 324.031 293.912C324.007 293.977 323.969 294.036 323.92 294.085C323.871 294.134 323.812 294.172 323.747 294.196L263.222 318.668C263.16 318.688 263.095 318.699 263.03 318.698ZM253.671 279.661L263.405 317.5L322.884 293.496L304.614 257.565L253.671 279.661Z" fill="#484646"/>
</svg>
