<svg width="150" height="150" viewBox="0 0 150 150" fill="none" xmlns="http://www.w3.org/2000/svg">
<path d="M89.6289 68H57.3711C56.4773 67.9989 55.6205 67.6277 54.9885 66.9678C54.3565 66.3079 54.001 65.4132 54 64.48V20.5199C54.001 19.5867 54.3565 18.692 54.9885 18.0321C55.6205 17.3722 56.4773 17.0011 57.3711 17H89.6289C90.5227 17.0011 91.3795 17.3722 92.0115 18.0321C92.6435 18.692 92.999 19.5867 93 20.5199V64.48C92.999 65.4132 92.6435 66.3079 92.0115 66.9678C91.3795 67.6277 90.5227 67.9989 89.6289 68Z" fill="#F0F0F0"/>
<path d="M89.4055 68H56.5945C55.6415 67.9989 54.7278 67.6123 54.054 66.9251C53.3801 66.2379 53.0011 65.3062 53 64.3344V20.6655C53.0011 19.6937 53.3801 18.762 54.054 18.0748C54.7279 17.3877 55.6415 17.0011 56.5945 17H89.4055C90.3584 17.0011 91.2721 17.3876 91.946 18.0748C92.6198 18.762 92.9989 19.6937 93 20.6655V64.3344C92.9989 65.3062 92.6199 66.238 91.946 66.9252C91.2721 67.6124 90.3585 67.9989 89.4055 68ZM56.5945 17.3377C55.7293 17.3387 54.8998 17.6897 54.2881 18.3135C53.6763 18.9374 53.3322 19.7832 53.3312 20.6655V64.3344C53.3322 65.2167 53.6763 66.0626 54.288 66.6864C54.8998 67.3103 55.7293 67.6612 56.5945 67.6622H89.4055C90.2707 67.6613 91.1001 67.3103 91.7119 66.6865C92.3237 66.0626 92.6678 65.2167 92.6688 64.3344V20.6655C92.6678 19.7832 92.3237 18.9374 91.7119 18.3135C91.1001 17.6896 90.2706 17.3387 89.4055 17.3377H56.5945Z" fill="#03DAC5"/>
<path d="M143.542 68H110.458C109.541 67.9989 108.662 67.6277 108.014 66.9678C107.366 66.3079 107.001 65.4132 107 64.48V20.5199C107.001 19.5867 107.366 18.692 108.014 18.0321C108.662 17.3722 109.541 17.0011 110.458 17H143.542C144.459 17.0011 145.338 17.3722 145.986 18.0321C146.634 18.692 146.999 19.5867 147 20.5199V64.48C146.999 65.4132 146.634 66.3079 145.986 66.9678C145.338 67.6277 144.459 67.9989 143.542 68Z" fill="#F0F0F0"/>
<path d="M73 74C76.3137 74 79 71.3137 79 68C79 64.6863 76.3137 62 73 62C69.6863 62 67 64.6863 67 68C67 71.3137 69.6863 74 73 74Z" fill="#03DAC5"/>
<path d="M72.2141 71C72.1145 71 72.0163 70.9729 71.9273 70.921C71.8382 70.869 71.7608 70.7936 71.7011 70.7006L70.1282 68.2538C70.0777 68.1751 70.041 68.0857 70.0201 67.9905C69.9992 67.8953 69.9945 67.7963 70.0064 67.699C70.0184 67.6017 70.0466 67.5081 70.0895 67.4236C70.1324 67.3391 70.1892 67.2652 70.2565 67.2062C70.3239 67.1473 70.4006 67.1044 70.4822 67.08C70.5637 67.0556 70.6486 67.0502 70.732 67.0641C70.8154 67.078 70.8956 67.111 70.968 67.161C71.0405 67.2111 71.1038 67.2773 71.1543 67.3559L72.1833 68.9566L74.8262 64.3313C74.9208 64.1668 75.0674 64.0528 75.2339 64.0143C75.4004 63.9758 75.5732 64.0158 75.7144 64.1257C75.8557 64.2355 75.9538 64.4062 75.9873 64.6004C76.0209 64.7945 75.9871 64.9963 75.8934 65.1614L72.7477 70.6668C72.6908 70.7663 72.6143 70.8485 72.5245 70.9065C72.4348 70.9644 72.3344 70.9964 72.2319 70.9998C72.226 70.9999 72.22 71 72.2141 71Z" fill="white"/>
<path d="M67.5869 91H4.4131C4.03845 90.9996 3.67928 90.8506 3.41436 90.5857C3.14945 90.3209 3.00043 89.9618 3 89.5873V32.4127C3.00042 32.0382 3.14943 31.6791 3.41435 31.4142C3.67927 31.1494 4.03845 31.0004 4.4131 31H67.5869C67.9615 31.0004 68.3207 31.1494 68.5856 31.4142C68.8506 31.6791 68.9996 32.0382 69 32.4127V89.5873C68.9996 89.9618 68.8506 90.3209 68.5856 90.5857C68.3207 90.8506 67.9615 90.9996 67.5869 91Z" fill="#3F3D56"/>
<path d="M65.5945 90H5.40551C5.03288 89.9996 4.67563 89.8489 4.41214 89.581C4.14865 89.3131 4.00043 88.9499 4 88.571V33.429C4.00042 33.0501 4.14863 32.6869 4.41212 32.419C4.67562 32.1511 5.03287 32.0004 5.40551 32H65.5945C65.9671 32.0004 66.3244 32.1511 66.5879 32.419C66.8514 32.6869 66.9996 33.0501 67 33.429V88.571C66.9996 88.9499 66.8514 89.3131 66.5879 89.581C66.3244 89.8489 65.9671 89.9996 65.5945 90Z" fill="white"/>
<path d="M9.23565 38.3473C16.2045 38.2765 23.1741 38.2664 30.1444 38.3168C37.1137 38.3676 44.0807 38.4792 51.0454 38.6517C54.9535 38.7485 58.8601 38.8645 62.7651 38.9997C63.0788 39.0105 63.0778 38.7254 62.7651 38.7146C55.8074 38.4741 48.8446 38.2941 41.8767 38.1747C34.9098 38.0556 27.9409 37.9974 20.97 38.0001C17.0583 38.0016 13.1469 38.0223 9.23565 38.0622C8.92195 38.0654 8.92095 38.3505 9.23565 38.3473Z" fill="#3F3D56"/>
<path d="M59.2 34.9989L61.8 34.6823C62.0656 34.65 62.0677 33.9685 61.8 34.0011L59.2 34.3177C58.9344 34.35 58.9323 35.0315 59.2 34.9989Z" fill="#3F3D56"/>
<path d="M58.2435 36.5534L62.7565 36.9987C63.0822 37.0308 63.0802 36.4785 62.7565 36.4466L58.2435 36.0013C57.9178 35.9692 57.9198 36.5215 58.2435 36.5534Z" fill="#3F3D56"/>
<path d="M11.0589 34C10.8546 33.9981 10.6544 34.0862 10.4833 34.2532C10.3122 34.4202 10.1777 34.6588 10.0967 34.9392C10.0061 35.2137 9.97816 35.525 10.0171 35.8254C10.0561 36.1259 10.1598 36.399 10.3124 36.6031C10.4559 36.7855 10.628 36.9106 10.8126 36.9667C10.9972 37.0227 11.1883 37.0079 11.368 36.9236C11.5519 36.8276 11.7113 36.6489 11.8243 36.4119C11.9373 36.175 11.9985 35.8915 11.9992 35.6005C12.0074 35.2777 11.9489 34.9589 11.8316 34.6875C11.7143 34.4161 11.544 34.2052 11.3437 34.0837C11.2835 34.0592 11.2193 34.0713 11.1651 34.1174C11.1109 34.1634 11.071 34.2396 11.0542 34.3293C11.0394 34.4192 11.0481 34.5141 11.0787 34.5946C11.1093 34.6751 11.1593 34.735 11.2186 34.762C11.2596 34.7857 11.1811 34.7318 11.2194 34.763C11.2351 34.7758 11.2512 34.7874 11.2667 34.8011C11.2798 34.8128 11.2924 34.8255 11.3052 34.838C11.3491 34.8808 11.2837 34.8065 11.3118 34.845C11.3362 34.8784 11.3603 34.911 11.3824 34.9479C11.3908 34.9618 11.4236 35.0006 11.3981 34.9735C11.3786 34.9528 11.3906 34.9576 11.3981 34.9743C11.4038 34.9869 11.4098 34.9992 11.4154 35.0119C11.4338 35.0534 11.4505 35.0965 11.4654 35.141C11.4689 35.1512 11.472 35.1618 11.4755 35.172C11.4821 35.1912 11.4917 35.1962 11.4762 35.1722C11.4614 35.1492 11.4708 35.1508 11.4761 35.1729C11.4796 35.1874 11.4834 35.2018 11.4868 35.2163C11.4978 35.2638 11.5071 35.3121 11.5145 35.3611C11.518 35.3837 11.5207 35.4065 11.5237 35.4293C11.5342 35.51 11.5222 35.379 11.5247 35.439C11.5268 35.4891 11.5293 35.5387 11.5287 35.589C11.5284 35.612 11.5278 35.635 11.5267 35.6579C11.5262 35.6694 11.5253 35.6808 11.5248 35.6923C11.5224 35.7475 11.5223 35.6721 11.5275 35.6669C11.5167 35.7138 11.5096 35.7623 11.5062 35.8116C11.502 35.8335 11.497 35.8549 11.4923 35.8765C11.4759 35.952 11.5077 35.8354 11.4902 35.8869C11.4758 35.9313 11.4598 35.9743 11.4421 36.0158C11.4345 36.0332 11.4055 36.0726 11.4292 36.0452C11.4548 36.0155 11.4157 36.0666 11.4074 36.0798C11.3967 36.0967 11.3855 36.113 11.374 36.1287C11.3666 36.1395 11.3588 36.1496 11.3507 36.159C11.3492 36.1579 11.39 36.1183 11.368 36.1393C11.34 36.1659 11.3136 36.1944 11.2841 36.2176C11.2807 36.2203 11.243 36.2464 11.2431 36.2473C11.2415 36.2379 11.2916 36.221 11.2572 36.2376C11.25 36.2411 11.2429 36.2453 11.2357 36.2489C11.2044 36.2647 11.1725 36.2774 11.1401 36.287C11.1327 36.2892 11.1249 36.2903 11.1176 36.2931C11.0932 36.3025 11.1408 36.2876 11.1422 36.2888C11.1243 36.2877 11.1063 36.2901 11.0887 36.2959C11.0553 36.2988 11.0218 36.2988 10.9884 36.2959C10.9807 36.2953 10.973 36.2941 10.9653 36.2934C10.9474 36.2919 10.9342 36.2726 10.9581 36.2935C10.9765 36.3097 10.9749 36.2979 10.9586 36.2934C10.951 36.2913 10.9433 36.2895 10.9357 36.2874C10.9027 36.2781 10.87 36.2662 10.8378 36.2515C10.8205 36.2437 10.8035 36.2345 10.7865 36.2256C10.779 36.2223 10.7718 36.2182 10.7648 36.2131C10.7647 36.2102 10.8088 36.2446 10.7855 36.2259C10.7561 36.2022 10.7257 36.1823 10.697 36.1564C10.6817 36.1426 10.667 36.1276 10.6521 36.1128C10.6456 36.1069 10.6393 36.1003 10.6335 36.0929C10.634 36.0899 10.67 36.1398 10.6511 36.1129C10.6272 36.0788 10.6016 36.0484 10.579 36.0121C10.5738 36.0038 10.5689 35.9952 10.5638 35.9869L10.5588 35.9783C10.546 35.955 10.5458 35.9551 10.5581 35.9787C10.5705 35.9842 10.57 36.0046 10.5581 35.978C10.5539 35.9686 10.5494 35.9594 10.5452 35.9499C10.5261 35.9092 10.5098 35.8657 10.4966 35.8201C10.4977 35.8187 10.517 35.9047 10.5023 35.8398C10.4995 35.8276 10.4964 35.8155 10.4936 35.8032C10.4882 35.7789 10.4835 35.7542 10.4794 35.7293C10.4753 35.7046 10.4732 35.6792 10.4691 35.6546C10.4622 35.6132 10.4731 35.6873 10.4719 35.6854C10.468 35.6796 10.4696 35.6437 10.4693 35.6351C10.4675 35.5799 10.4717 35.5264 10.4723 35.4715C10.4728 35.429 10.47 35.5046 10.4694 35.5024C10.4695 35.4897 10.471 35.4771 10.4738 35.4651C10.4781 35.4361 10.4821 35.4072 10.4873 35.3786C10.4933 35.3459 10.5001 35.3135 10.5079 35.2815C10.5108 35.2696 10.5144 35.2578 10.5171 35.2457C10.527 35.2016 10.4974 35.2991 10.5137 35.2593C10.5361 35.2045 10.5528 35.1452 10.5766 35.091C10.5822 35.0782 10.6164 35.0068 10.5983 35.0428C10.5802 35.0788 10.6169 35.0107 10.6238 34.9991C10.6527 34.9511 10.6866 34.9116 10.7165 34.8656C10.7342 34.8384 10.7042 34.879 10.7024 34.8809C10.7116 34.871 10.7207 34.8608 10.7301 34.8511C10.7464 34.8343 10.7632 34.8184 10.7803 34.8034C10.7996 34.7865 10.8214 34.7739 10.8401 34.756C10.8622 34.7348 10.8232 34.7653 10.8225 34.7659C10.8326 34.7584 10.8432 34.7524 10.8541 34.7479C10.8723 34.7383 10.9515 34.6872 10.9682 34.7032C10.9674 34.7024 10.908 34.7103 10.956 34.7057C10.9674 34.7046 10.9787 34.7029 10.99 34.7022C11.013 34.7008 11.036 34.7017 11.0589 34.7035C11.1212 34.7029 11.1808 34.6656 11.2249 34.5998C11.2689 34.5339 11.2939 34.4448 11.2943 34.3517C11.2929 34.2591 11.2677 34.1708 11.2239 34.1052C11.18 34.0397 11.1209 34.002 11.0589 34Z" fill="#3F3D56"/>
<path d="M14.0589 34C13.8546 33.9981 13.6544 34.0862 13.4833 34.2532C13.3122 34.4202 13.1777 34.6588 13.0967 34.9392C13.0061 35.2137 12.9782 35.525 13.0171 35.8254C13.0561 36.1259 13.1598 36.399 13.3124 36.6031C13.4559 36.7855 13.628 36.9106 13.8126 36.9667C13.9972 37.0227 14.1883 37.0079 14.368 36.9236C14.5519 36.8276 14.7113 36.6489 14.8243 36.4119C14.9373 36.175 14.9985 35.8915 14.9992 35.6005C15.0074 35.2777 14.9489 34.9589 14.8316 34.6875C14.7143 34.4161 14.544 34.2052 14.3437 34.0837C14.2835 34.0592 14.2193 34.0713 14.1651 34.1174C14.1109 34.1634 14.071 34.2396 14.0542 34.3293C14.0394 34.4192 14.0481 34.5141 14.0787 34.5946C14.1093 34.6751 14.1593 34.735 14.2186 34.762C14.2596 34.7857 14.1811 34.7318 14.2194 34.763C14.2351 34.7758 14.2512 34.7874 14.2667 34.8011C14.2798 34.8128 14.2924 34.8255 14.3052 34.838C14.3491 34.8808 14.2837 34.8065 14.3118 34.845C14.3362 34.8784 14.3603 34.911 14.3824 34.9479C14.3908 34.9618 14.4236 35.0006 14.3981 34.9735C14.3786 34.9528 14.3906 34.9576 14.3981 34.9743C14.4038 34.9869 14.4098 34.9992 14.4154 35.0119C14.4338 35.0534 14.4505 35.0965 14.4654 35.141C14.4689 35.1512 14.472 35.1618 14.4755 35.172C14.4821 35.1912 14.4917 35.1962 14.4762 35.1722C14.4614 35.1492 14.4708 35.1508 14.4761 35.1729C14.4796 35.1874 14.4834 35.2018 14.4868 35.2163C14.4978 35.2638 14.5071 35.3121 14.5145 35.3611C14.518 35.3837 14.5207 35.4065 14.5237 35.4293C14.5342 35.51 14.5222 35.379 14.5247 35.439C14.5268 35.4891 14.5293 35.5387 14.5287 35.589C14.5284 35.612 14.5278 35.635 14.5267 35.6579C14.5262 35.6694 14.5253 35.6808 14.5248 35.6923C14.5224 35.7475 14.5223 35.6721 14.5275 35.6669C14.5167 35.7138 14.5096 35.7623 14.5062 35.8116C14.502 35.8335 14.497 35.8549 14.4923 35.8765C14.4759 35.952 14.5077 35.8354 14.4902 35.8869C14.4758 35.9313 14.4598 35.9743 14.4421 36.0158C14.4345 36.0332 14.4055 36.0726 14.4292 36.0452C14.4548 36.0155 14.4157 36.0666 14.4074 36.0798C14.3967 36.0967 14.3855 36.113 14.374 36.1287C14.3666 36.1395 14.3588 36.1496 14.3507 36.159C14.3492 36.1579 14.39 36.1183 14.368 36.1393C14.34 36.1659 14.3136 36.1944 14.2841 36.2176C14.2807 36.2203 14.243 36.2464 14.2431 36.2473C14.2415 36.2379 14.2916 36.221 14.2572 36.2376C14.25 36.2411 14.2429 36.2453 14.2357 36.2489C14.2044 36.2647 14.1725 36.2774 14.1401 36.287C14.1327 36.2892 14.1249 36.2903 14.1176 36.2931C14.0932 36.3025 14.1408 36.2876 14.1422 36.2888C14.1243 36.2877 14.1063 36.2901 14.0887 36.2959C14.0553 36.2988 14.0218 36.2988 13.9884 36.2959C13.9807 36.2953 13.973 36.2941 13.9653 36.2934C13.9474 36.2919 13.9342 36.2726 13.9581 36.2935C13.9765 36.3097 13.9749 36.2979 13.9586 36.2934C13.951 36.2913 13.9433 36.2895 13.9357 36.2874C13.9027 36.2781 13.87 36.2662 13.8378 36.2515C13.8205 36.2437 13.8035 36.2345 13.7865 36.2256C13.779 36.2223 13.7718 36.2182 13.7648 36.2131C13.7647 36.2102 13.8088 36.2446 13.7855 36.2259C13.7561 36.2022 13.7257 36.1823 13.697 36.1564C13.6817 36.1426 13.667 36.1276 13.6521 36.1128C13.6456 36.1069 13.6393 36.1003 13.6335 36.0929C13.634 36.0899 13.67 36.1398 13.6511 36.1129C13.6272 36.0788 13.6016 36.0484 13.579 36.0121C13.5738 36.0038 13.5689 35.9952 13.5638 35.9869L13.5588 35.9783C13.546 35.955 13.5458 35.9551 13.5581 35.9787C13.5705 35.9842 13.57 36.0046 13.5581 35.978C13.5539 35.9686 13.5494 35.9594 13.5452 35.9499C13.5261 35.9092 13.5098 35.8657 13.4966 35.8201C13.4977 35.8187 13.517 35.9047 13.5023 35.8398C13.4995 35.8276 13.4964 35.8155 13.4936 35.8032C13.4882 35.7789 13.4835 35.7542 13.4794 35.7293C13.4753 35.7046 13.4732 35.6792 13.4691 35.6546C13.4622 35.6132 13.4731 35.6873 13.4719 35.6854C13.468 35.6796 13.4696 35.6437 13.4693 35.6351C13.4675 35.5799 13.4717 35.5264 13.4723 35.4715C13.4728 35.429 13.47 35.5046 13.4694 35.5024C13.4695 35.4897 13.471 35.4771 13.4738 35.4651C13.4781 35.4361 13.4821 35.4072 13.4873 35.3786C13.4933 35.3459 13.5001 35.3135 13.5079 35.2815C13.5108 35.2696 13.5144 35.2578 13.5171 35.2457C13.527 35.2016 13.4974 35.2991 13.5137 35.2593C13.5361 35.2045 13.5528 35.1452 13.5766 35.091C13.5822 35.0782 13.6164 35.0068 13.5983 35.0428C13.5802 35.0788 13.6169 35.0107 13.6238 34.9991C13.6527 34.9511 13.6866 34.9116 13.7165 34.8656C13.7342 34.8384 13.7042 34.879 13.7024 34.8809C13.7116 34.871 13.7207 34.8608 13.7301 34.8511C13.7464 34.8343 13.7632 34.8184 13.7803 34.8034C13.7996 34.7865 13.8214 34.7739 13.8401 34.756C13.8622 34.7348 13.8232 34.7653 13.8225 34.7659C13.8326 34.7584 13.8432 34.7524 13.8541 34.7479C13.8723 34.7383 13.9515 34.6872 13.9682 34.7032C13.9674 34.7024 13.908 34.7103 13.956 34.7057C13.9674 34.7046 13.9787 34.7029 13.99 34.7022C14.013 34.7008 14.036 34.7017 14.0589 34.7035C14.1212 34.7029 14.1808 34.6656 14.2249 34.5998C14.2689 34.5339 14.2939 34.4448 14.2943 34.3517C14.2929 34.2591 14.2677 34.1708 14.2239 34.1052C14.18 34.0397 14.1209 34.002 14.0589 34Z" fill="#3F3D56"/>
<path d="M17.0589 34C16.8546 33.9981 16.6544 34.0862 16.4833 34.2532C16.3122 34.4202 16.1777 34.6588 16.0967 34.9392C16.0061 35.2137 15.9782 35.525 16.0171 35.8254C16.0561 36.1259 16.1598 36.399 16.3124 36.6031C16.4559 36.7855 16.628 36.9106 16.8126 36.9667C16.9972 37.0227 17.1883 37.0079 17.368 36.9236C17.5519 36.8276 17.7113 36.6489 17.8243 36.4119C17.9373 36.175 17.9985 35.8915 17.9992 35.6005C18.0074 35.2777 17.9489 34.9589 17.8316 34.6875C17.7143 34.4161 17.544 34.2052 17.3437 34.0837C17.2835 34.0592 17.2193 34.0713 17.1651 34.1174C17.1109 34.1634 17.071 34.2396 17.0542 34.3293C17.0394 34.4192 17.0481 34.5141 17.0787 34.5946C17.1093 34.6751 17.1593 34.735 17.2186 34.762C17.2596 34.7857 17.1811 34.7318 17.2194 34.763C17.2351 34.7758 17.2512 34.7874 17.2667 34.8011C17.2798 34.8128 17.2924 34.8255 17.3052 34.838C17.3491 34.8808 17.2837 34.8065 17.3118 34.845C17.3361 34.8784 17.3603 34.911 17.3824 34.9479C17.3908 34.9618 17.4236 35.0006 17.3981 34.9735C17.3786 34.9528 17.3906 34.9576 17.3981 34.9743C17.4038 34.9869 17.4098 34.9992 17.4154 35.0119C17.4338 35.0534 17.4505 35.0965 17.4654 35.141C17.4688 35.1512 17.472 35.1618 17.4755 35.172C17.4821 35.1912 17.4917 35.1962 17.4762 35.1722C17.4614 35.1492 17.4708 35.1508 17.4761 35.1729C17.4796 35.1874 17.4834 35.2018 17.4868 35.2163C17.4978 35.2638 17.5071 35.3121 17.5145 35.3611C17.518 35.3837 17.5207 35.4065 17.5237 35.4293C17.5342 35.51 17.5222 35.379 17.5247 35.439C17.5268 35.4891 17.5293 35.5387 17.5287 35.589C17.5284 35.612 17.5278 35.635 17.5267 35.6579C17.5262 35.6694 17.5253 35.6808 17.5248 35.6923C17.5224 35.7475 17.5223 35.6721 17.5275 35.6669C17.5167 35.7138 17.5096 35.7623 17.5062 35.8116C17.502 35.8335 17.497 35.8549 17.4923 35.8765C17.4759 35.952 17.5076 35.8354 17.4902 35.8869C17.4758 35.9313 17.4598 35.9743 17.4421 36.0158C17.4344 36.0332 17.4055 36.0726 17.4292 36.0452C17.4548 36.0155 17.4157 36.0666 17.4074 36.0798C17.3967 36.0967 17.3855 36.113 17.374 36.1287C17.3666 36.1395 17.3588 36.1496 17.3507 36.159C17.3492 36.1579 17.39 36.1183 17.368 36.1393C17.34 36.1659 17.3136 36.1944 17.2841 36.2176C17.2807 36.2203 17.243 36.2464 17.2431 36.2473C17.2415 36.2379 17.2916 36.221 17.2572 36.2376C17.25 36.2411 17.2429 36.2453 17.2357 36.2489C17.2044 36.2647 17.1725 36.2774 17.1401 36.287C17.1327 36.2892 17.1249 36.2903 17.1176 36.2931C17.0932 36.3025 17.1408 36.2876 17.1422 36.2888C17.1243 36.2877 17.1063 36.2901 17.0887 36.2959C17.0553 36.2988 17.0218 36.2988 16.9884 36.2959C16.9807 36.2953 16.973 36.2941 16.9653 36.2934C16.9473 36.2919 16.9342 36.2726 16.9581 36.2935C16.9765 36.3097 16.9749 36.2979 16.9586 36.2934C16.951 36.2913 16.9433 36.2895 16.9357 36.2874C16.9027 36.2781 16.87 36.2662 16.8378 36.2515C16.8205 36.2437 16.8035 36.2345 16.7865 36.2256C16.779 36.2223 16.7718 36.2182 16.7648 36.2131C16.7647 36.2102 16.8088 36.2446 16.7855 36.2259C16.7561 36.2022 16.7257 36.1823 16.697 36.1564C16.6817 36.1426 16.667 36.1276 16.6521 36.1128C16.6456 36.1069 16.6393 36.1003 16.6335 36.0929C16.634 36.0899 16.67 36.1398 16.6511 36.1129C16.6272 36.0788 16.6016 36.0484 16.579 36.0121C16.5738 36.0038 16.5689 35.9952 16.5638 35.9869L16.5588 35.9783C16.546 35.955 16.5458 35.9551 16.5581 35.9787C16.5705 35.9842 16.57 36.0046 16.5581 35.978C16.5539 35.9686 16.5494 35.9594 16.5452 35.9499C16.5261 35.9092 16.5098 35.8657 16.4966 35.8201C16.4977 35.8187 16.517 35.9047 16.5023 35.8398C16.4995 35.8276 16.4964 35.8155 16.4936 35.8032C16.4882 35.7789 16.4835 35.7542 16.4794 35.7293C16.4753 35.7046 16.4732 35.6792 16.4691 35.6546C16.4622 35.6132 16.4731 35.6873 16.4719 35.6854C16.468 35.6796 16.4696 35.6437 16.4693 35.6351C16.4675 35.5799 16.4717 35.5264 16.4723 35.4715C16.4728 35.429 16.47 35.5046 16.4694 35.5024C16.4695 35.4897 16.471 35.4771 16.4738 35.4651C16.4781 35.4361 16.4821 35.4072 16.4873 35.3786C16.4933 35.3459 16.5001 35.3135 16.5079 35.2815C16.5108 35.2696 16.5144 35.2578 16.5171 35.2457C16.527 35.2016 16.4974 35.2991 16.5137 35.2593C16.5361 35.2045 16.5528 35.1452 16.5766 35.091C16.5822 35.0782 16.6164 35.0068 16.5983 35.0428C16.5802 35.0788 16.6169 35.0107 16.6238 34.9991C16.6527 34.9511 16.6866 34.9116 16.7165 34.8656C16.7342 34.8384 16.7042 34.879 16.7024 34.8809C16.7116 34.871 16.7207 34.8608 16.7301 34.8511C16.7464 34.8343 16.7632 34.8184 16.7803 34.8034C16.7996 34.7865 16.8214 34.7739 16.8401 34.756C16.8622 34.7348 16.8232 34.7653 16.8225 34.7659C16.8326 34.7584 16.8432 34.7524 16.8541 34.7479C16.8723 34.7383 16.9515 34.6872 16.9682 34.7032C16.9674 34.7024 16.908 34.7103 16.956 34.7057C16.9674 34.7046 16.9787 34.7029 16.99 34.7022C17.013 34.7008 17.036 34.7017 17.0589 34.7035C17.1212 34.7029 17.1808 34.6656 17.2249 34.5998C17.2689 34.5339 17.2939 34.4448 17.2943 34.3517C17.2929 34.2591 17.2677 34.1708 17.2239 34.1052C17.18 34.0397 17.1209 34.002 17.0589 34Z" fill="#3F3D56"/>
<path d="M11.0001 46.785L11.2131 55.5762L11.4261 64.3674C11.453 65.4767 11.3077 66.9897 12.3512 67.6395C12.7865 67.9105 13.307 67.97 13.8003 67.9847C14.4553 68.0044 15.1123 67.9898 15.7674 67.9906L23.928 68C25.0002 68.0012 26.1779 67.9675 26.9461 67.0363C27.5873 66.2591 27.769 65.1816 27.8333 64.1761C27.9182 62.8491 27.8775 61.5056 27.8885 60.1761L27.9251 55.7579L27.9618 51.3397C27.9729 49.9975 28.0317 48.6444 27.9771 47.303C27.9355 46.2796 27.775 45.1867 27.1386 44.3824C26.4137 43.4662 25.2674 43.3425 24.2219 43.3064C21.518 43.2131 18.8136 43.1343 16.1094 43.0483C15.4873 43.0285 14.8634 42.9925 14.2409 43.0014C13.6874 42.9898 13.1361 43.0809 12.6111 43.2706C11.7368 43.6235 11.0539 44.4701 11.0842 45.5201C11.0862 45.7401 11.1312 45.9571 11.2164 46.1569C11.3015 46.3568 11.4248 46.5351 11.5782 46.68C11.8116 46.8929 12.1511 46.5303 11.916 46.3158C11.2787 45.7345 11.5874 44.6453 12.1445 44.1294C12.9516 43.3819 14.217 43.5032 15.2013 43.5345L22.8616 43.7781C23.4556 43.797 24.0514 43.8033 24.6447 43.841C25.1744 43.8746 25.7277 43.9488 26.2018 44.2238C27.0216 44.6994 27.3415 45.6753 27.4493 46.619C27.5848 47.8065 27.5032 49.0317 27.4933 50.2245L27.4584 54.4282L27.3894 62.7497C27.381 63.7619 27.3955 64.8066 27.0797 65.7744C26.9439 66.2233 26.6954 66.6229 26.3616 66.9286C25.9425 67.2566 25.4416 67.4412 24.924 67.4586C24.3425 67.5092 23.7544 67.4847 23.1717 67.484L21.1813 67.4817L17.3597 67.4773L15.3694 67.4751C14.7878 67.4744 14.2019 67.4964 13.6211 67.4619C13.1752 67.4355 12.6777 67.3524 12.3493 66.9948C11.9813 66.5943 11.9472 65.9757 11.9303 65.4445C11.7544 59.9128 11.6617 54.3765 11.5277 48.8434L11.4778 46.785C11.4698 46.4541 10.9921 46.4529 11.0001 46.785Z" fill="#3F3D56"/>
<path d="M42.0001 46.785L42.2257 55.5762L42.4512 64.3674C42.4796 65.4767 42.3258 66.9897 43.4307 67.6395C43.8916 67.9105 44.4427 67.97 44.9651 67.9847C45.6585 68.0044 46.3542 67.9898 47.0479 67.9906L55.6885 68C56.8238 68.0012 58.0707 67.9675 58.8841 67.0363C59.5631 66.2591 59.7554 65.1816 59.8235 64.1761C59.9134 62.8491 59.8702 61.5056 59.8819 60.1761L59.9207 55.7579L59.9595 51.3397C59.9713 49.9975 60.0336 48.6444 59.9758 47.303C59.9317 46.2796 59.7618 45.1867 59.088 44.3824C58.3204 43.4662 57.1067 43.3425 55.9997 43.3064C53.1367 43.2131 50.2732 43.1343 47.41 43.0483C46.7513 43.0285 46.0907 42.9925 45.4316 43.0014C44.8455 42.9898 44.2617 43.0809 43.7059 43.2706C42.7802 43.6235 42.057 44.4701 42.0892 45.5201C42.0913 45.7401 42.139 45.9571 42.2291 46.1569C42.3192 46.3568 42.4498 46.5351 42.6123 46.68C42.8593 46.8929 43.2188 46.5303 42.9699 46.3158C42.2951 45.7345 42.6219 44.6453 43.2118 44.1294C44.0664 43.3819 45.4062 43.5032 46.4484 43.5345L54.5593 43.7781C55.1883 43.797 55.8191 43.8033 56.4473 43.841C57.0082 43.8746 57.594 43.9488 58.096 44.2238C58.964 44.6994 59.3028 45.6753 59.4169 46.619C59.5604 47.8065 59.474 49.0317 59.4635 50.2245L59.4266 54.4282L59.3535 62.7497C59.3446 63.7619 59.36 64.8066 59.0256 65.7744C58.8818 66.2233 58.6186 66.6229 58.2652 66.9286C57.8214 67.2566 57.2911 67.4412 56.743 67.4586C56.1274 67.5092 55.5047 67.4847 54.8876 67.484L52.7802 67.4817L48.7338 67.4773L46.6264 67.4751C46.0106 67.4744 45.3903 67.4964 44.7752 67.4619C44.3032 67.4355 43.7764 67.3524 43.4287 66.9948C43.0391 66.5943 43.0029 65.9757 42.985 65.4445C42.7988 59.9128 42.7007 54.3765 42.5587 48.8434L42.5059 46.785C42.4974 46.4541 41.9916 46.4529 42.0001 46.785Z" fill="#3F3D56"/>
<path d="M18.749 70.3981C18.5644 70.2287 18.3372 70.1074 18.0892 70.0459C17.8412 69.9844 17.5808 69.9847 17.333 70.0469C17.0867 70.1113 16.8586 70.2269 16.6648 70.3855C16.4711 70.5441 16.3167 70.7417 16.2127 70.964C15.7137 71.9773 16.1607 73.1583 16.8502 73.9858C17.4908 74.7547 18.5316 75.2613 19.5455 74.8577C20.0075 74.669 20.3956 74.3467 20.6552 73.9363C20.9147 73.5259 21.0326 73.0482 20.9922 72.5705C20.8644 71.4454 19.9056 70.5342 18.7796 70.2594C18.4502 70.179 18.3097 70.6646 18.6392 70.745C19.0306 70.8355 19.3929 71.0157 19.6947 71.27C19.9964 71.5244 20.2284 71.8451 20.3705 72.2045C20.4951 72.556 20.5005 72.936 20.3858 73.2906C20.2712 73.6453 20.0423 73.9564 19.7318 74.18C18.158 75.3323 16.358 73.1291 16.5344 71.6875C16.5533 71.4748 16.6232 71.2691 16.7387 71.0863C16.8542 70.9035 17.0123 70.7485 17.2007 70.6332C17.3842 70.5303 17.5975 70.4865 17.8091 70.5083C18.0208 70.5301 18.2194 70.6163 18.3755 70.7542C18.4256 70.7988 18.4919 70.8232 18.5604 70.822C18.6289 70.8209 18.6943 70.7945 18.7428 70.7483C18.7912 70.7021 18.819 70.6397 18.8201 70.5744C18.8213 70.5091 18.7958 70.4459 18.749 70.3981Z" fill="#3F3D56"/>
<path d="M49.6313 52.6238C49.0869 52.4017 48.4549 52.1812 47.8915 52.4415C47.3601 52.6872 47.0674 53.2885 47.0098 53.9412C46.9456 54.669 47.2065 55.3632 47.4831 55.9934C47.8157 56.7514 48.1588 57.5032 48.4968 58.2578L49.6661 60.8679C49.6928 60.919 49.7326 60.9585 49.7797 60.9805C49.8267 61.0026 49.8785 61.006 49.9274 60.9903C49.9762 60.9746 50.0195 60.9406 50.0507 60.8934C50.082 60.8462 50.0996 60.7883 50.1008 60.7283C50.0348 59.8531 50.1519 58.9721 50.4417 58.1635C50.7408 57.3461 51.2294 56.6559 51.5768 55.87C51.8965 55.1465 52.1097 54.3165 51.9403 53.501C51.8033 52.8415 51.399 52.1998 50.8162 52.0463C50.5218 51.9579 50.2104 51.997 49.9381 52.1565C49.6658 52.3161 49.4504 52.5857 49.3306 52.9168C49.2206 53.2482 49.6716 53.392 49.7805 53.0639C49.9357 52.5966 50.4789 52.4533 50.841 52.6322C51.3126 52.8652 51.5364 53.5339 51.5358 54.1023C51.5351 54.8793 51.1994 55.5894 50.8589 56.2277C50.515 56.8723 50.1534 57.4958 49.9248 58.2142C49.6726 59.0165 49.5734 59.8751 49.6343 60.7283L50.069 60.5886C49.3097 58.8938 48.5087 57.216 47.7919 55.4954C47.5163 54.8337 47.2684 53.9412 47.691 53.2812C48.1242 52.6045 48.9511 52.9305 49.5073 53.1574C49.7918 53.2735 49.914 52.7392 49.6313 52.6238Z" fill="#3F3D56"/>
<path d="M17.0346 71.5767L17.8777 72.8895C17.907 72.9276 17.9493 72.9582 17.9996 72.9774C18.05 72.9967 18.1062 73.0038 18.1615 72.998C18.2168 72.9922 18.2688 72.9737 18.3113 72.9447C18.3538 72.9157 18.385 72.8775 18.401 72.8346C18.6207 71.9258 19.1469 71.0828 19.9223 70.3976C20.1704 70.1796 19.7666 69.8536 19.5175 70.0726C18.6714 70.8137 18.0944 71.7266 17.8489 72.7124L18.3721 72.6575L17.529 71.3447C17.3601 71.0817 16.8659 71.3139 17.0346 71.5767Z" fill="#3F3D56"/>
<path d="M26 64.1545L20.2793 69.9517C20.247 69.9844 20.2051 70.0016 20.1621 69.9999C20.1191 69.9981 20.0783 69.9775 20.0482 69.9423C20.018 69.9071 20.0008 69.86 20 69.8106C19.9993 69.7612 20.0151 69.7134 20.0441 69.677L25.3744 63L26 64.1545Z" fill="#3F3D56"/>
<path d="M34 128H36.7101L38 119H34V128Z" fill="#FFB6B6"/>
<path d="M33 133H34.4332L34.689 131.383L35.3442 133H39.1455C39.3277 133 39.5051 132.93 39.6519 132.801C39.7987 132.672 39.9071 132.491 39.9613 132.283C40.0155 132.075 40.0127 131.852 39.9533 131.646C39.8939 131.44 39.7809 131.263 39.631 131.139L36.5955 128.634V127L33.4026 127.228L33 133Z" fill="#2F2E41"/>
<path d="M53 128H55.7101L57 119H53V128Z" fill="#FFB6B6"/>
<path d="M52 133H53.8427L54.1716 131.383L55.014 133H59.9013C60.1356 133 60.3637 132.93 60.5524 132.801C60.7411 132.672 60.8805 132.491 60.9502 132.283C61.0199 132.075 61.0163 131.852 60.9399 131.646C60.8635 131.44 60.7184 131.263 60.5256 131.139L56.6227 128.634V127L52.5176 127.228L52 133Z" fill="#2F2E41"/>
<path d="M46.881 81.3062L35.5661 80C35.5661 80 30.5373 86.7925 32.4231 92.6705V99.2161L33.8061 124.804L37.2634 125L38.2691 113.374L39.212 108.737L40.0062 91.0701L44.0523 96.1321L44.4294 98.0914L45.6866 99.0058L48.0125 102.326L52.7898 122.714L57 122.779C57 122.779 54.7385 101.618 54.4871 101.618C54.2356 101.618 47.9496 87.3803 47.9496 87.3803V86.6269L47.6982 85.1597C47.6982 85.1597 48.3268 84.6372 48.0753 84.3759C47.8239 84.1147 47.5725 83.3309 47.5725 83.3309L46.881 81.3062Z" fill="#2F2E41"/>
<path d="M42.5106 63.132L44.8085 65.7722L48 66.9603L46.2128 77.785L46.8055 80.8977L47.6808 84.3194C44.3081 86.2486 40.3019 83.5843 36.6213 82.4009L33 84.0554L33.1915 79.5011L33.2897 68.0263C33.2935 67.5856 33.3848 67.1504 33.558 66.7477C33.7312 66.345 33.9826 65.9834 34.2967 65.6854C34.6107 65.3874 34.9805 65.1593 35.3834 65.0152C35.7862 64.8712 36.2133 64.8143 36.6383 64.8481L39.0638 63L42.5106 63.132Z" fill="#03DAC5"/>
<path d="M21.0079 67.3573C21.0289 67.5356 21.0977 67.708 21.2095 67.8624C21.3213 68.0167 21.4734 68.1493 21.655 68.2507C21.8366 68.3521 22.0434 68.4199 22.2607 68.4493C22.478 68.4787 22.7006 68.469 22.9128 68.4208L25.963 72L27 69.9002L23.9445 66.8233C23.8215 66.5388 23.5743 66.3008 23.2499 66.1546C22.9256 66.0083 22.5465 65.9639 22.1845 66.0297C21.8225 66.0955 21.5028 66.267 21.2859 66.5117C21.0691 66.7564 20.9701 67.0573 21.0079 67.3573Z" fill="#FFB8B8"/>
<path d="M35.6275 64.0003C35.6275 64.0003 31.9962 63.8417 32.4028 70.9537L30.858 74.0779L27.7509 71.2201L27.7368 70.3105L25.1092 67.416L23 69.7138L24.404 71.8293L24.6746 73.0107L25.5297 73.5254L27.7607 76.887L28.7927 77.8881C28.7927 77.8881 30.1019 79.1738 31.5827 78.9801C31.9778 78.9295 32.3624 78.818 32.7223 78.6498C33.4268 78.3194 34.1227 77.7268 34.7078 76.7238C35.934 74.6524 37.0334 72.5104 38 70.3095L35.6275 64.0003Z" fill="#03DAC5"/>
<path d="M51.0518 56.9418C50.9978 57.1218 50.9859 57.311 51.0167 57.496C51.0476 57.681 51.1206 57.8572 51.2305 58.0123C51.3405 58.1675 51.4847 58.2977 51.653 58.3938C51.8214 58.49 52.0097 58.5497 52.2049 58.5688L53.3003 63L55 61.2785L53.6992 57.3345C53.7111 57.0194 53.6015 56.711 53.3912 56.4679C53.1809 56.2247 52.8845 56.0637 52.5582 56.0153C52.2318 55.9669 51.8983 56.0344 51.6206 56.2052C51.343 56.376 51.1406 56.638 51.0518 56.9418Z" fill="#FFB8B8"/>
<path d="M43 65.7745C43 65.7745 44.8531 62.8456 50.3763 67.0354L53.7429 67.5268L53.1296 63.5389L52.4024 63.0327L51.4979 59.4002L54.5049 59L55.4477 61.2506L56.2544 62.1056L56.2037 63.0551L57.7019 66.6315L57.9476 67.9843C57.9476 67.9843 58.2719 69.709 57.3075 70.7628C57.0511 71.0445 56.7512 71.2848 56.4189 71.475C55.7677 71.8466 54.9093 72.0688 53.7798 71.9808C51.4375 71.8131 49.1074 71.5077 46.8022 71.0662L43 65.7745Z" fill="#03DAC5"/>
<path d="M43.0001 61.5991C45.1611 60.4013 45.9552 57.6539 44.774 55.4628C43.5927 53.2716 40.8833 52.4663 38.7223 53.6641C36.5614 54.8619 35.7672 57.6092 36.9485 59.8004C38.1297 61.9916 40.8391 62.7968 43.0001 61.5991Z" fill="#FFB6B6"/>
<path d="M46.3527 55.8386C46.3385 55.8432 46.3261 55.8478 46.3119 55.8525C46.2848 55.8628 46.257 55.8715 46.2285 55.8786C46.0472 55.9358 45.8583 55.973 45.6662 55.9892C45.5843 55.9967 45.502 56.0003 45.4196 56C45.314 56.0001 45.2085 55.9939 45.1039 55.9815C44.9875 55.9689 44.8724 55.9484 44.7597 55.9201C44.7063 55.9075 44.6536 55.8927 44.6019 55.8755C44.2495 55.7662 43.9313 55.5876 43.6721 55.3538C43.413 55.1199 43.2199 54.8372 43.1082 54.5278V54.5262C43.0963 54.496 43.0862 54.4652 43.0781 54.434C43.0258 54.2609 42.9996 54.0827 43 53.9038V53.9008C42.9999 53.4645 43.1582 53.0393 43.4524 52.6852C43.6297 52.4685 43.834 52.4327 43.7202 52.1842C43.3571 51.3916 44.8539 50.7476 45.7354 51.0977C45.7672 51.0951 45.7992 51.0941 45.8312 51.0946C46.4254 51.0946 46.6436 51.8553 46.9966 52.2841L46.9864 52.287C46.8966 52.314 46.8188 52.3646 46.7639 52.4318C46.7089 52.499 46.6796 52.5794 46.68 52.6618C46.6804 52.7441 46.7105 52.8243 46.7661 52.8911C46.8217 52.9579 46.8999 53.008 46.99 53.0343C47.2257 53.1014 47.4638 53.1607 47.7044 53.2123C48.4961 54.0265 47.5789 56.4014 46.3527 55.8386Z" fill="#2F2E41"/>
<path d="M45.7965 58.4585C45.5743 59.3443 45.1655 60.2081 44.4896 60.7824C43.8123 61.3567 40.6301 62.713 40.3645 61.5439C40.542 62.3605 40.4331 62.6721 40.1437 62.9631C40.0945 62.8923 40.0422 62.8247 39.9885 62.7586C39.7907 62.517 39.5532 62.315 39.2873 62.1623C39.2793 62.6552 39.3117 63.148 39.3843 63.635C39.2651 63.7504 39.1515 63.8723 39.0442 64C38.5339 62.3825 37.4116 60.4439 38.2311 58.9746C38.5563 58.3914 38.2865 58.3107 37.9998 58.2429C37.4994 58.1246 37.2285 55.9568 37.1106 55.4297C36.9644 54.7689 36.9077 54.0089 37.2971 53.4677C37.6865 52.9264 38.6682 52.9059 38.8651 53.5526L39.2799 52.961C39.817 51.7227 41.2343 51.9745 42.5158 52.1381C43.7974 52.3002 44.9268 53.2537 45.5012 54.4731C46.074 55.6924 46.1263 57.1415 45.7965 58.4585Z" fill="#2F2E41"/>
<path d="M44.0038 52.2359C43.9676 53.0118 44.1919 53.7799 44.6488 54.4448C45.1057 55.1097 45.7751 55.6419 46.5737 55.9755C46.898 56.1054 47.1819 55.6832 46.8553 55.5524C46.1417 55.2615 45.5427 54.7908 45.1344 54.2003C44.726 53.6099 44.5267 52.9261 44.5617 52.2359C44.5812 51.9209 44.0232 51.9218 44.0038 52.2359Z" fill="#FF6584"/>
<path d="M24.7199 129.708C24.6367 129.712 24.5542 129.687 24.4838 129.637C24.4134 129.586 24.3584 129.511 24.3262 129.423C24.2941 129.336 24.2863 129.239 24.3041 129.145C24.3218 129.052 24.3641 128.968 24.4253 128.903L24.4532 128.777C24.4495 128.767 24.4458 128.757 24.4421 128.746C24.0679 127.727 21.6799 130.569 21.5766 131.527C21.5311 131.95 21.5503 132.379 21.6333 132.795C20.8598 130.868 20.4581 128.773 20.4555 126.653C20.4554 126.121 20.4813 125.589 20.5331 125.06C20.5759 124.627 20.6353 124.197 20.7112 123.769C21.1258 121.451 22.016 119.278 23.3086 117.429C24.0478 117.476 24.6956 117.347 24.7582 115.711C24.7693 115.42 24.9584 115.168 25 114.881C24.9294 114.891 24.8577 114.898 24.7871 114.903C24.7651 114.905 24.742 114.906 24.72 114.907L24.7117 114.908C24.6342 114.912 24.5573 114.89 24.4902 114.845C24.4232 114.8 24.369 114.734 24.334 114.655C24.2991 114.576 24.2849 114.487 24.2933 114.399C24.3016 114.311 24.332 114.227 24.381 114.158C24.4114 114.115 24.4419 114.073 24.4724 114.03C24.5187 113.964 24.5661 113.899 24.6124 113.833C24.6178 113.827 24.6228 113.82 24.6275 113.813C24.6807 113.738 24.7339 113.664 24.7871 113.588C24.69 113.416 24.5593 113.272 24.4053 113.167C23.872 112.81 23.1362 113.057 22.7509 113.608C22.3645 114.159 22.2916 114.932 22.4258 115.621C22.5578 116.207 22.7761 116.763 23.0714 117.265C23.0424 117.307 23.0124 117.348 22.9835 117.39C22.4547 118.167 21.9939 119.001 21.6076 119.88C21.7169 118.905 20.3804 115.383 19.8635 114.637C19.2426 113.741 17.9695 114.132 17.8602 115.268C17.8591 115.279 17.8581 115.29 17.8571 115.301C17.9338 115.351 18.009 115.403 18.0825 115.459C18.1749 115.529 18.2465 115.63 18.2879 115.748C18.3293 115.865 18.3385 115.995 18.3145 116.119C18.2905 116.242 18.2342 116.355 18.1532 116.442C18.0721 116.529 17.97 116.585 17.8602 116.605L17.849 116.607C16.8213 118.283 20.1157 122.645 20.9403 121.665C20.5522 122.922 20.3087 124.231 20.216 125.559C20.1636 126.342 20.1667 127.129 20.2253 127.912L20.2218 127.884C20.0386 126.179 16.8954 123.644 15.9775 123.855C15.4487 123.977 14.9279 123.949 15.0082 124.558C15.0095 124.568 15.0108 124.578 15.0121 124.587C15.1546 124.654 15.2933 124.73 15.4275 124.816C15.5042 124.865 15.5794 124.918 15.6529 124.973C15.7453 125.044 15.8169 125.145 15.8583 125.262C15.8997 125.38 15.909 125.509 15.8849 125.633C15.8609 125.757 15.8047 125.87 15.7236 125.957C15.6425 126.043 15.5404 126.1 15.4306 126.12L15.4194 126.122C15.4113 126.123 15.4043 126.124 15.3962 126.126C14.9285 127.964 18.3975 130.931 20.5064 129.987H20.5076C20.7166 131.024 21.0194 132.034 21.4112 133H24.639C24.6506 132.959 24.661 132.917 24.6714 132.876C24.3726 132.897 24.0727 132.877 23.7783 132.815C24.0177 132.479 24.2572 132.141 24.4967 131.805C24.5021 131.799 24.5071 131.792 24.5118 131.786C24.6332 131.614 24.7559 131.443 24.8774 131.271L24.8774 131.271C24.8839 130.745 24.8309 130.219 24.7199 129.708ZM21.0236 121.402L21.0253 121.4L21.0236 121.405V121.402ZM20.3086 128.765L20.2808 128.693C20.282 128.642 20.282 128.59 20.2808 128.537C20.2808 128.523 20.2785 128.508 20.2785 128.494C20.2889 128.585 20.2982 128.676 20.3098 128.767L20.3086 128.765Z" fill="#03DAC5"/>
<path d="M127.055 39.6658L127.051 39.6696C126.625 39.2595 126.049 39.0201 125.442 39.0012C124.835 38.9823 124.244 39.1853 123.791 39.5681C123.338 39.9509 123.057 40.4841 123.008 41.0574C122.958 41.6307 123.144 42.2001 123.525 42.6476L123.521 42.6514L126.672 46L130.206 43.0144C130.439 42.8185 130.628 42.5811 130.764 42.3158C130.899 42.0504 130.978 41.7624 130.996 41.4682C131.014 41.1739 130.971 40.8792 130.868 40.6009C130.766 40.3225 130.607 40.066 130.4 39.846C130.193 39.626 129.942 39.4469 129.662 39.3187C129.381 39.1906 129.077 39.116 128.767 39.0993C128.456 39.0826 128.145 39.124 127.851 39.2212C127.558 39.3184 127.287 39.4695 127.055 39.6658Z" fill="#03DAC5"/>
</svg>
