<svg width="400" height="400" viewBox="0 0 400 400" fill="none" xmlns="http://www.w3.org/2000/svg">
<path d="M131.621 313.159C152.193 313.159 168.871 310.919 168.871 308.155C168.871 305.392 152.193 303.151 131.621 303.151C111.048 303.151 94.3701 305.392 94.3701 308.155C94.3701 310.919 111.048 313.159 131.621 313.159Z" fill="#F2F1F1"/>
<path d="M293.402 313.159C313.974 313.159 330.652 310.919 330.652 308.155C330.652 305.392 313.974 303.151 293.402 303.151C272.829 303.151 256.151 305.392 256.151 308.155C256.151 310.919 272.829 313.159 293.402 313.159Z" fill="#F2F1F1"/>
<path d="M129.52 291.215C129.52 291.215 135.995 311.028 137.142 310.652C138.289 310.277 161.34 296.929 160.579 294.646C159.817 292.362 143.811 297.122 143.811 297.122L140.208 286.454" fill="white"/>
<path d="M137.163 311.16C137.057 311.161 136.952 311.137 136.858 311.089C135.427 310.368 130.951 297.061 129.093 291.377C129.071 291.313 129.062 291.246 129.066 291.178C129.071 291.11 129.089 291.045 129.119 290.984C129.149 290.923 129.191 290.87 129.243 290.826C129.294 290.782 129.354 290.748 129.418 290.728C129.547 290.689 129.686 290.703 129.806 290.765C129.925 290.828 130.016 290.934 130.058 291.063C132.818 299.507 136.198 308.815 137.234 310.084C140.37 308.744 160 296.747 160.132 294.757C159.858 293.945 152.895 294.96 144.004 297.609C143.877 297.643 143.743 297.628 143.626 297.568C143.51 297.508 143.42 297.407 143.374 297.285L139.761 286.617C139.719 286.489 139.728 286.349 139.786 286.228C139.845 286.107 139.949 286.013 140.076 285.967C140.205 285.928 140.344 285.94 140.465 286C140.586 286.061 140.679 286.165 140.725 286.292L144.186 296.442C158.63 292.189 160.832 293.61 161.106 294.412C161.309 295.011 161.726 296.249 149.941 303.72C144.136 307.384 138.056 310.825 137.406 311.058C137.333 311.108 137.25 311.143 137.163 311.16Z" fill="#484646"/>
<path d="M102.084 258.065C102.084 258.065 88.747 258.258 88.3715 259.395C87.9959 260.531 83.9867 281.725 87.6102 279.979C91.2338 278.233 97.1309 266.256 97.1309 266.256L103.799 265.241L102.084 258.065Z" fill="white"/>
<path d="M87.2145 280.578C86.9381 280.577 86.6713 280.476 86.4634 280.293C83.9766 278.081 87.6408 259.993 87.8844 259.232C88.0062 258.867 88.3817 257.75 102.094 257.557C102.208 257.562 102.318 257.602 102.409 257.671C102.499 257.74 102.567 257.835 102.602 257.943L104.317 265.099C104.346 265.235 104.32 265.377 104.246 265.495C104.208 265.554 104.157 265.605 104.098 265.644C104.038 265.682 103.971 265.708 103.901 265.718L97.4863 266.733C96.6134 268.489 91.3354 278.801 87.8438 280.456C87.6456 280.542 87.4307 280.584 87.2145 280.578ZM88.8283 259.638C88.2904 261.496 85.4078 278 87.1434 279.532C87.1434 279.532 87.2145 279.603 87.387 279.532C90.229 278.192 95.0503 269.382 96.6743 266.053C96.7083 265.979 96.7607 265.915 96.8264 265.867C96.8922 265.819 96.9691 265.789 97.0498 265.779L103.14 264.764L101.648 258.552C95.9029 258.674 89.6809 259.09 88.8283 259.638Z" fill="#484646"/>
<path d="M177.976 101.978L183.68 98.7099C183.68 98.7099 185.284 93.574 186.898 92.3357C188.511 91.0974 190.734 92.7823 190.734 92.7823C190.734 92.7823 196.631 87.8596 198.052 88.022C199.473 88.1844 197.596 90.7016 196.144 91.9703L193.099 94.6398C193.099 94.6398 195.769 100.08 194.226 102.222C192.683 104.363 180.259 110.981 180.259 110.981L177.976 101.978Z" fill="white"/>
<path d="M180.239 111.479C180.168 111.488 180.097 111.488 180.026 111.479C179.957 111.445 179.895 111.397 179.846 111.337C179.797 111.277 179.762 111.208 179.742 111.134L177.488 102.141C177.461 102.035 177.468 101.923 177.511 101.822C177.553 101.721 177.627 101.637 177.722 101.582L183.254 98.4257C183.599 97.4107 185.02 93.1883 186.552 91.9703C188.085 90.7523 189.912 91.7166 190.673 92.1835C192.358 90.7929 196.652 87.4028 198.073 87.5551C198.277 87.5648 198.473 87.6359 198.636 87.7591C198.799 87.8822 198.921 88.0517 198.986 88.2453C199.372 89.4734 197.23 91.7064 196.459 92.3966L193.698 94.8123C194.317 96.1521 196.104 100.496 194.612 102.567C193.119 104.638 181.751 110.788 180.473 111.468C180.397 111.492 180.317 111.495 180.239 111.479ZM178.564 102.232L180.594 110.22C184.36 108.19 192.663 103.511 193.789 101.917C194.916 100.324 193.322 96.2942 192.622 94.8123C192.574 94.7113 192.56 94.5973 192.582 94.4875C192.604 94.3777 192.66 94.278 192.744 94.2033L195.789 91.544C197.159 90.3362 198.123 88.8137 198.022 88.499C197.24 88.428 193.789 90.8741 191.039 93.168C190.949 93.2388 190.838 93.2773 190.724 93.2773C190.61 93.2773 190.499 93.2388 190.409 93.168C190.409 93.168 188.45 91.7166 187.192 92.7113C185.933 93.706 184.604 97.4615 184.147 98.8013C184.105 98.9234 184.023 99.0274 183.913 99.0956L178.564 102.232Z" fill="#484646"/>
<path d="M108.885 135.412C113.351 137.909 177.763 100.303 177.763 100.303L187.354 110.23L122.141 157.468L108.885 135.412Z" fill="#FF931E"/>
<path d="M130.585 134.783C130.585 134.783 92.2691 134.783 82.3931 142.649C75.075 148.475 73.6946 189.096 73.6946 189.096L146.856 183.391C146.856 183.391 151.058 140.569 130.585 134.783Z" fill="#FF931E"/>
<path d="M136.148 158.504C136.024 158.504 135.905 158.454 135.817 158.367C135.73 158.279 135.681 158.161 135.681 158.037V138.112C135.681 137.988 135.73 137.87 135.817 137.782C135.905 137.695 136.024 137.645 136.148 137.645C136.271 137.645 136.39 137.695 136.478 137.782C136.565 137.87 136.614 137.988 136.614 138.112V158.037C136.614 158.161 136.565 158.279 136.478 158.367C136.39 158.454 136.271 158.504 136.148 158.504Z" fill="#484646"/>
<path d="M219.103 242.129C218.474 241.632 195.758 239.308 194.348 239.744C192.937 240.181 187.243 258.958 187.354 260.562C187.537 263.769 200.082 250.919 200.082 250.919L219.103 254.736" fill="white"/>
<path d="M187.76 261.567C187.66 261.588 187.556 261.588 187.456 261.567C187.27 261.496 187.111 261.369 187.002 261.203C186.892 261.038 186.838 260.841 186.847 260.643C186.776 259.445 192.236 239.927 194.205 239.328C195.687 238.871 218.565 241.114 219.418 241.805C219.523 241.888 219.59 242.01 219.605 242.143C219.62 242.276 219.582 242.41 219.499 242.515C219.423 242.612 219.314 242.678 219.192 242.701C219.071 242.723 218.945 242.7 218.839 242.637C217.246 242.038 195.779 239.967 194.479 240.302C193.261 241.236 187.74 259.029 187.841 260.602C188.856 260.917 194.804 255.639 199.696 250.635C199.756 250.573 199.83 250.528 199.911 250.503C199.993 250.478 200.08 250.475 200.163 250.493L219.174 254.279C219.307 254.306 219.423 254.384 219.499 254.496C219.575 254.608 219.604 254.745 219.58 254.878C219.567 254.943 219.541 255.005 219.504 255.06C219.466 255.116 219.419 255.163 219.363 255.2C219.307 255.237 219.245 255.262 219.18 255.275C219.114 255.287 219.047 255.287 218.981 255.274L200.234 251.538C197.047 254.736 190.084 261.567 187.76 261.567Z" fill="#484646"/>
<path d="M303.257 287.338C303.257 287.997 309.439 307.83 311.245 308.145C313.052 308.46 338.508 300.431 336.407 299.01C334.306 297.589 322.786 298.634 322.786 298.634L316.645 282.141" fill="white"/>
<path d="M311.255 308.652H311.154C308.758 308.226 302.76 287.571 302.75 287.337C302.739 287.203 302.782 287.07 302.87 286.967C302.957 286.864 303.082 286.8 303.217 286.789C303.351 286.779 303.485 286.822 303.587 286.909C303.69 286.997 303.754 287.122 303.765 287.256C304.049 289.053 309.855 306.836 311.387 307.627C312.067 307.719 317.396 306.288 323.983 304.105C331.088 301.74 334.996 300.045 335.879 299.284C333.981 298.482 327.171 298.736 322.836 299.122C322.726 299.133 322.616 299.107 322.522 299.048C322.428 298.989 322.357 298.901 322.319 298.797L316.229 282.323C316.196 282.26 316.178 282.19 316.174 282.119C316.17 282.047 316.182 281.976 316.207 281.909C316.233 281.843 316.273 281.782 316.324 281.732C316.374 281.682 316.435 281.643 316.502 281.617C316.569 281.592 316.64 281.582 316.712 281.586C316.783 281.59 316.853 281.61 316.916 281.643C316.979 281.676 317.035 281.722 317.079 281.778C317.123 281.834 317.155 281.899 317.173 281.968L323.171 298.076C325.435 297.893 334.712 297.213 336.742 298.574C336.89 298.664 337.001 298.806 337.053 298.972C337.106 299.138 337.096 299.317 337.026 299.477C335.981 301.984 313.417 308.652 311.255 308.652Z" fill="#484646"/>
<path d="M276.471 192.526C276.471 192.526 266.443 267.748 256.171 265.454C245.9 263.16 204.802 254.421 204.802 254.421L208.517 238.181C208.517 238.181 237.759 241.287 241.657 241.571C245.554 241.855 242.814 189.106 242.814 189.106L276.471 192.526Z" fill="#484646"/>
<path d="M256.618 266.012C256.424 266.012 256.23 265.992 256.039 265.951C245.889 263.698 205.086 255 204.68 254.918C204.547 254.889 204.431 254.809 204.356 254.695C204.282 254.581 204.257 254.442 204.285 254.309L207.999 238.069C208.03 237.95 208.102 237.845 208.202 237.772C208.302 237.7 208.424 237.665 208.548 237.674C208.842 237.674 237.83 240.79 241.677 241.064C243.707 240.049 243.575 213.872 242.296 189.126C242.29 189.054 242.301 188.982 242.327 188.915C242.354 188.849 242.395 188.789 242.449 188.74C242.502 188.688 242.566 188.649 242.636 188.624C242.706 188.6 242.781 188.591 242.855 188.598L276.522 192.029C276.591 192.034 276.659 192.054 276.72 192.088C276.781 192.121 276.835 192.167 276.877 192.222C276.919 192.274 276.949 192.335 276.966 192.399C276.984 192.464 276.988 192.531 276.979 192.597C276.624 195.297 268.067 258.674 258.445 265.393C257.913 265.781 257.276 265.997 256.618 266.012ZM205.391 254.035C210.131 255.05 246.712 262.835 256.263 264.967C256.544 265.014 256.833 265.002 257.109 264.93C257.385 264.858 257.643 264.729 257.866 264.551C266.677 258.39 275.05 199.175 275.903 192.973L243.332 189.664C243.697 196.86 245.656 238.557 242.388 241.754C242.286 241.861 242.163 241.944 242.026 241.998C241.89 242.053 241.743 242.077 241.596 242.068C238.003 241.805 212.597 239.115 208.893 238.719L205.391 254.035Z" fill="#484646"/>
<path d="M267.336 198.424L302.618 298.228L322.451 287.591L292.052 192.526L267.336 198.424Z" fill="#484646"/>
<path d="M302.608 298.736C302.547 298.747 302.485 298.747 302.425 298.736C302.355 298.711 302.291 298.67 302.239 298.618C302.186 298.565 302.146 298.501 302.12 298.431L266.849 198.627C266.821 198.561 266.807 198.49 266.807 198.418C266.807 198.347 266.821 198.276 266.849 198.21C266.924 198.086 267.044 197.995 267.184 197.957L291.889 192.059C292.014 192.028 292.147 192.047 292.258 192.111C292.37 192.175 292.452 192.281 292.488 192.405L322.938 287.469C322.973 287.582 322.968 287.703 322.924 287.813C322.879 287.922 322.798 288.012 322.694 288.068L302.851 298.706C302.774 298.737 302.69 298.748 302.608 298.736ZM267.996 198.789L302.882 297.508L321.832 287.358L291.706 193.125L267.996 198.789Z" fill="#484646"/>
<path d="M296.335 152.809L308.687 148.749C308.119 147.917 301.887 128.774 294.477 125.13C288.012 120.847 276.065 121.659 262.546 122.603C258.208 122.817 253.931 123.707 249.868 125.242C234.643 131.332 232.451 151.378 232.451 151.378L246.509 156.281C246.509 156.281 244.235 183.554 242.093 197.815C242.093 197.815 259.226 204.311 297.522 197.967C297.533 197.896 296.406 156.839 296.335 152.809Z" fill="#FF931E"/>
<path d="M280.288 130.307L266.575 161.599L263.215 131.413L280.288 130.307Z" fill="#484646"/>
<path d="M266.575 162.107H266.504C266.394 162.09 266.292 162.037 266.215 161.956C266.138 161.875 266.09 161.771 266.078 161.66L262.718 131.464C262.708 131.329 262.748 131.196 262.83 131.088C262.874 131.036 262.928 130.992 262.989 130.961C263.05 130.929 263.117 130.911 263.185 130.906L280.278 129.799C280.364 129.796 280.45 129.813 280.527 129.85C280.605 129.888 280.673 129.943 280.724 130.013C280.775 130.084 280.806 130.167 280.815 130.255C280.824 130.342 280.81 130.43 280.775 130.51L267.083 161.802C267.039 161.899 266.967 161.98 266.877 162.034C266.786 162.089 266.681 162.114 266.575 162.107ZM263.784 131.921L266.829 159.711L279.496 130.906L263.784 131.921Z" fill="#484646"/>
<path d="M287.454 90.935C285.753 89.0013 283.523 87.6076 281.039 86.9259C278.556 86.2441 275.927 86.3041 273.477 87.0983C269.133 88.499 265.174 90.9249 260.82 92.3154C256.466 93.706 251.33 93.8887 247.727 91.0873C247.749 92.1343 247.995 93.1644 248.448 94.1087C248.9 95.053 249.55 95.8895 250.352 96.5623C251.155 97.2351 252.092 97.7286 253.101 98.0097C254.11 98.2908 255.167 98.3531 256.202 98.1923C256.039 99.2073 254.659 99.3595 253.674 99.1464C252.69 98.9332 251.431 98.6896 250.822 99.5016C250.662 99.772 250.567 100.076 250.544 100.389C250.521 100.703 250.571 101.018 250.69 101.308C251.431 103.754 253.664 105.368 255.765 106.85C258.81 108.951 261.855 109.388 264.961 110.839C268.25 112.392 270.706 114.544 274.482 115.072C277.916 115.534 281.398 114.678 284.226 112.676C286.002 111.418 289.616 109.702 288.905 107.002C288.56 105.724 290.813 103.288 290.935 101.41C291.112 99.5179 290.893 97.61 290.294 95.8069C289.695 94.0038 288.728 92.3448 287.454 90.935Z" fill="white"/>
<path d="M276.218 115.681C275.599 115.683 274.982 115.639 274.37 115.549C271.94 115.099 269.624 114.167 267.56 112.808C266.656 112.28 265.712 111.793 264.697 111.265C263.58 110.756 262.435 110.312 261.267 109.936C259.203 109.317 257.238 108.408 255.43 107.236C253.086 105.612 250.924 103.947 250.163 101.43C250.017 101.063 249.961 100.666 249.998 100.273C250.035 99.8795 250.164 99.5005 250.376 99.1667C250.668 98.8349 251.047 98.5901 251.469 98.4594C251.892 98.3287 252.342 98.317 252.771 98.4257C251.769 98.0964 250.839 97.5797 250.031 96.9032C249.15 96.1986 248.439 95.3041 247.952 94.2865C247.466 93.2688 247.215 92.1544 247.219 91.0264C247.22 90.9327 247.247 90.8411 247.297 90.7621C247.347 90.6831 247.419 90.6199 247.503 90.5798C247.589 90.5413 247.683 90.5266 247.776 90.5373C247.868 90.5481 247.957 90.5838 248.031 90.6407C252.304 93.9597 258.293 92.5489 260.668 91.7876C262.818 91.0854 264.923 90.2516 266.971 89.2907C269.034 88.2895 271.156 87.415 273.325 86.672C275.866 85.8448 278.594 85.7798 281.171 86.4851C283.749 87.1904 286.063 88.635 287.829 90.6407C289.148 92.0979 290.149 93.8127 290.771 95.6768C291.393 97.5409 291.622 99.5138 291.443 101.471C291.244 102.554 290.837 103.588 290.245 104.516C289.768 105.389 289.23 106.383 289.362 106.86C290.052 109.479 287.393 111.194 285.454 112.443C285.109 112.666 284.774 112.879 284.49 113.082C282.063 114.774 279.176 115.681 276.218 115.681ZM252.182 99.4407C252.007 99.4209 251.829 99.4427 251.663 99.5044C251.497 99.5661 251.348 99.666 251.228 99.796C251.125 100.006 251.067 100.236 251.059 100.471C251.05 100.705 251.09 100.938 251.178 101.156C251.837 103.359 253.857 104.901 256.05 106.424C257.781 107.544 259.664 108.409 261.642 108.992C262.843 109.391 264.022 109.852 265.174 110.372C266.189 110.859 267.204 111.387 268.108 111.946C270.059 113.241 272.251 114.132 274.553 114.564C277.857 114.995 281.203 114.173 283.932 112.26C284.226 112.047 284.571 111.824 284.947 111.59C286.723 110.443 288.925 109.022 288.418 107.124C288.195 106.251 288.743 105.226 289.433 104.079C289.924 103.239 290.261 102.318 290.428 101.359C290.592 99.5453 290.38 97.717 289.803 95.9894C289.227 94.2618 288.299 92.6722 287.078 91.3207C285.442 89.4623 283.298 88.1232 280.91 87.4685C278.522 86.8138 275.995 86.8721 273.639 87.6363C271.507 88.3649 269.422 89.226 267.397 90.2144C265.312 91.2181 263.17 92.0993 260.982 92.8534C256.09 94.4165 251.533 94.1424 248.295 92.1429C248.571 93.7409 249.419 95.184 250.68 96.2029C251.41 96.8489 252.277 97.3214 253.216 97.585C254.154 97.8487 255.141 97.8967 256.1 97.7254C256.18 97.7101 256.262 97.7141 256.34 97.7371C256.417 97.7601 256.488 97.8013 256.547 97.8573C256.61 97.9115 256.657 97.9815 256.684 98.06C256.71 98.1385 256.716 98.2227 256.699 98.3039C256.664 98.5105 256.587 98.7074 256.472 98.8822C256.356 99.057 256.205 99.2058 256.029 99.3189C255.279 99.7398 254.396 99.8561 253.563 99.6437C253.11 99.5325 252.648 99.4645 252.182 99.4407Z" fill="#484646"/>
<path d="M265.682 121.771L263.226 131.413C263.226 131.413 265.956 137.706 272.472 136.488C278.989 135.27 280.288 130.398 280.298 130.398L281.394 120.015L282.074 113.63C282.245 112.975 282.324 112.298 282.308 111.621C281.902 110.169 280.085 109.378 279.557 107.875C278.501 104.866 278.643 101.567 279.953 98.6592C277.233 100.852 274.106 103.085 270.615 102.851C271.319 102.112 271.955 101.311 272.513 100.456L265.682 102.892C264.795 103.184 263.885 103.401 262.962 103.541C261.947 103.734 262.343 103.095 261.571 104.333C259.663 107.378 259.399 112.636 259.785 116.137C260.333 121.111 265.682 121.771 265.682 121.771Z" fill="white"/>
<path d="M270.798 137.118C265.225 137.118 262.779 131.667 262.759 131.616C262.718 131.508 262.718 131.389 262.759 131.281L265.083 122.146C263.632 121.791 259.785 120.451 259.308 116.056C258.912 112.494 259.176 107.175 261.175 103.927L261.226 103.836C261.703 103.074 261.855 102.821 262.424 102.912C262.581 102.95 262.744 102.95 262.901 102.912C263.796 102.776 264.679 102.565 265.54 102.283L272.371 99.8366C272.472 99.802 272.581 99.8 272.683 99.831C272.785 99.862 272.875 99.9243 272.939 100.009C272.999 100.096 273.031 100.198 273.031 100.303C273.031 100.409 272.999 100.511 272.939 100.598C272.573 101.154 272.177 101.689 271.752 102.202C274.655 101.938 277.314 99.9888 279.608 98.1415C279.697 98.0707 279.808 98.0322 279.922 98.0322C280.037 98.0322 280.147 98.0707 280.237 98.1415C280.33 98.2088 280.396 98.3068 280.424 98.4182C280.452 98.5297 280.44 98.6473 280.389 98.7505C279.136 101.544 279.002 104.712 280.014 107.601C280.304 108.266 280.741 108.856 281.293 109.327C281.964 109.89 282.478 110.617 282.785 111.438C282.861 111.981 282.823 112.534 282.673 113.062C282.673 113.265 282.602 113.448 282.582 113.59L280.805 130.358C280.805 130.358 279.486 135.605 272.584 136.945C271.995 137.06 271.397 137.118 270.798 137.118ZM263.753 131.362C264.22 132.306 266.798 137.026 272.371 135.95C278.512 134.763 279.79 130.226 279.801 130.175L281.567 113.488C281.567 113.316 281.628 113.103 281.668 112.869C281.774 112.493 281.819 112.102 281.8 111.712C281.535 111.061 281.109 110.489 280.562 110.047C279.913 109.492 279.396 108.798 279.05 108.017C278.163 105.471 278.089 102.712 278.836 100.121C276.421 101.938 273.65 103.531 270.564 103.328C270.468 103.322 270.375 103.288 270.298 103.231C270.22 103.173 270.161 103.094 270.128 103.003C270.093 102.913 270.084 102.815 270.101 102.72C270.119 102.625 270.164 102.537 270.229 102.465C270.544 102.141 270.848 101.806 271.132 101.45L265.844 103.338C264.959 103.638 264.049 103.859 263.124 103.998C262.862 104.04 262.595 104.04 262.332 103.998L262.058 104.435L262.008 104.516C260.262 107.358 259.886 112.331 260.282 116.006C260.779 120.563 265.54 121.253 265.743 121.273C265.814 121.284 265.883 121.309 265.944 121.347C266.005 121.386 266.058 121.437 266.098 121.497C266.139 121.555 266.166 121.622 266.179 121.692C266.191 121.762 266.188 121.834 266.169 121.903L263.753 131.362Z" fill="#484646"/>
<path d="M264.383 126.846C265.481 127.113 266.629 127.109 267.725 126.833C268.822 126.557 269.835 126.018 270.676 125.262C273.64 122.654 273.528 120.35 273.528 120.35C271.192 121.813 268.383 122.322 265.682 121.771L264.383 126.846Z" fill="#484646"/>
<path d="M266.068 127.566C265.468 127.575 264.87 127.5 264.291 127.343C264.167 127.305 264.061 127.221 263.997 127.108C263.933 126.994 263.915 126.86 263.946 126.734L265.235 121.659C265.252 121.594 265.281 121.534 265.321 121.48C265.361 121.427 265.411 121.382 265.469 121.348C265.527 121.314 265.59 121.292 265.656 121.282C265.722 121.273 265.79 121.277 265.854 121.294C268.42 121.789 271.077 121.296 273.294 119.913C273.368 119.862 273.454 119.831 273.544 119.825C273.634 119.819 273.723 119.837 273.803 119.878C273.884 119.918 273.951 119.98 273.999 120.056C274.047 120.132 274.074 120.219 274.076 120.309C274.076 120.411 274.167 122.887 271.031 125.628C269.673 126.865 267.905 127.555 266.068 127.566ZM265.053 126.48C266.004 126.629 266.977 126.564 267.9 126.29C268.824 126.016 269.675 125.54 270.392 124.897C271.545 123.964 272.414 122.726 272.899 121.324C270.809 122.414 268.423 122.795 266.098 122.41L265.053 126.48Z" fill="#484646"/>
<path d="M269.722 106.607C269.722 106.607 265.946 111.357 266.677 112.301C267.407 113.245 269.722 112.839 269.722 112.839" fill="white"/>
<path d="M268.635 113.438C268.207 113.479 267.775 113.428 267.367 113.29C266.959 113.152 266.586 112.929 266.271 112.636C265.469 111.621 267.489 108.576 269.316 106.312C269.356 106.259 269.407 106.215 269.465 106.182C269.523 106.149 269.587 106.129 269.654 106.121C269.72 106.113 269.787 106.119 269.851 106.138C269.915 106.157 269.975 106.189 270.026 106.231C270.131 106.315 270.198 106.437 270.213 106.57C270.228 106.703 270.19 106.836 270.107 106.942C268.351 109.154 266.93 111.54 267.062 112.017C267.448 112.514 268.93 112.453 269.569 112.341C269.702 112.321 269.838 112.352 269.948 112.43C270.058 112.508 270.133 112.625 270.158 112.758C270.17 112.824 270.168 112.891 270.153 112.957C270.139 113.022 270.111 113.084 270.073 113.139C270.034 113.193 269.985 113.24 269.928 113.276C269.871 113.311 269.808 113.335 269.742 113.346C269.376 113.401 269.006 113.432 268.635 113.438Z" fill="#484646"/>
<path d="M273.802 107.759C274.262 107.757 274.633 107.229 274.63 106.578C274.627 105.928 274.252 105.403 273.793 105.404C273.333 105.406 272.963 105.935 272.965 106.585C272.968 107.236 273.343 107.761 273.802 107.759Z" fill="#484646"/>
<path d="M266.721 106.23C266.91 105.608 266.707 104.995 266.267 104.862C265.827 104.728 265.318 105.124 265.129 105.746C264.94 106.369 265.143 106.981 265.583 107.115C266.023 107.248 266.533 106.852 266.721 106.23Z" fill="#484646"/>
<path d="M269.001 117.203C266.48 117.092 264.048 116.241 262.008 114.757C261.95 114.718 261.902 114.668 261.865 114.61C261.827 114.551 261.802 114.486 261.792 114.417C261.781 114.349 261.784 114.279 261.801 114.212C261.818 114.145 261.849 114.082 261.891 114.027C261.933 113.972 261.986 113.927 262.047 113.893C262.108 113.859 262.175 113.839 262.243 113.832C262.312 113.825 262.382 113.833 262.448 113.854C262.514 113.875 262.575 113.91 262.627 113.955C262.86 114.138 268.402 118.34 273.193 114.788C273.246 114.739 273.308 114.703 273.375 114.68C273.443 114.657 273.514 114.649 273.585 114.656C273.656 114.662 273.725 114.684 273.787 114.719C273.849 114.754 273.903 114.802 273.946 114.86C273.988 114.917 274.018 114.983 274.033 115.052C274.048 115.122 274.049 115.194 274.034 115.264C274.02 115.334 273.991 115.4 273.949 115.458C273.907 115.515 273.854 115.564 273.792 115.6C272.414 116.645 270.731 117.209 269.001 117.203Z" fill="#484646"/>
<path d="M279.506 110.748C279.892 110.37 280.349 110.074 280.851 109.875C281.353 109.676 281.89 109.58 282.429 109.591C282.971 109.615 283.494 109.795 283.937 110.108C284.379 110.421 284.723 110.854 284.926 111.357C285.069 111.95 285.058 112.57 284.894 113.158C284.731 113.745 284.42 114.282 283.992 114.716C283.381 115.416 282.629 115.979 281.787 116.371C280.944 116.763 280.029 116.973 279.1 116.99" fill="white"/>
<path d="M279.1 117.518C278.966 117.518 278.836 117.464 278.741 117.369C278.646 117.274 278.593 117.145 278.593 117.01C278.591 116.944 278.603 116.878 278.628 116.817C278.652 116.755 278.688 116.699 278.735 116.652C278.781 116.605 278.836 116.567 278.897 116.542C278.958 116.516 279.024 116.503 279.09 116.503C279.948 116.491 280.795 116.297 281.573 115.935C282.351 115.573 283.044 115.051 283.607 114.402C283.975 114.033 284.245 113.578 284.39 113.077C284.536 112.577 284.552 112.048 284.439 111.54C284.271 111.134 283.991 110.785 283.631 110.533C283.272 110.281 282.848 110.137 282.409 110.119C281.938 110.107 281.469 110.191 281.031 110.365C280.594 110.54 280.196 110.801 279.861 111.134C279.765 111.227 279.636 111.28 279.501 111.28C279.367 111.28 279.237 111.227 279.141 111.134C279.093 111.086 279.055 111.03 279.03 110.968C279.004 110.907 278.991 110.84 278.991 110.773C278.991 110.706 279.004 110.64 279.03 110.578C279.055 110.516 279.093 110.46 279.141 110.413C279.579 109.99 280.098 109.66 280.666 109.442C281.235 109.224 281.841 109.123 282.45 109.144C283.088 109.178 283.704 109.394 284.223 109.766C284.743 110.138 285.146 110.652 285.383 111.245C285.562 111.923 285.562 112.635 285.385 113.312C285.207 113.99 284.856 114.61 284.368 115.112C283.708 115.866 282.897 116.474 281.988 116.895C281.079 117.316 280.092 117.542 279.09 117.558L279.1 117.518Z" fill="#484646"/>
<path d="M145.404 210.36C145.404 210.36 156.925 257.659 149.322 260.948C141.72 264.236 98.4607 270.56 98.4607 270.56L96.5017 256.918C96.5017 256.918 129.784 249.63 131.6 247.976C133.417 246.321 120.435 206.127 120.131 205.803C119.826 205.478 145.404 210.36 145.404 210.36Z" fill="#484646"/>
<path d="M98.4609 271.067C98.3547 271.064 98.2519 271.029 98.1665 270.966C98.1122 270.926 98.0663 270.876 98.0314 270.819C97.9966 270.761 97.9735 270.697 97.9635 270.631L95.9944 256.989C95.9761 256.862 96.0068 256.732 96.0803 256.627C96.1538 256.521 96.2646 256.448 96.3903 256.421C109.21 253.619 130.007 248.737 131.256 247.6C132.271 245.398 120.821 208.411 119.705 206.067C119.657 205.989 119.632 205.899 119.632 205.808C119.632 205.716 119.657 205.627 119.705 205.549C119.938 205.102 119.999 204.98 145.516 209.863C145.612 209.88 145.7 209.925 145.77 209.991C145.841 210.058 145.89 210.144 145.912 210.238C147.11 215.12 157.321 258.045 149.546 261.414C141.964 264.703 100.328 270.803 98.5624 271.057L98.4609 271.067ZM97.0703 257.314L98.8973 269.961C103.749 269.24 142.106 263.505 149.12 260.46C150.764 259.75 153.017 255.436 149.718 234.487C147.983 223.514 145.455 212.745 144.988 210.776C136.412 209.142 124.1 206.838 120.913 206.361C123.125 212.126 132.392 242.322 132.281 247.265C132.3 247.457 132.279 247.651 132.219 247.834C132.16 248.018 132.063 248.187 131.936 248.331C130.139 249.996 102.115 256.208 97.0703 257.314Z" fill="#484646"/>
<path d="M92.2692 208.736L128.292 293.823L143.811 290.829L120.232 201.012L92.2692 208.736Z" fill="#484646"/>
<path d="M128.291 294.321C128.193 294.32 128.096 294.291 128.014 294.237C127.931 294.183 127.865 294.106 127.825 294.016L91.8022 208.919C91.7752 208.852 91.7626 208.78 91.7651 208.707C91.7676 208.635 91.7852 208.564 91.8167 208.499C91.8483 208.434 91.8931 208.377 91.9483 208.33C92.0035 208.283 92.0678 208.249 92.1372 208.228L120.09 200.514C120.153 200.487 120.22 200.473 120.288 200.473C120.356 200.473 120.424 200.487 120.486 200.514C120.599 200.583 120.683 200.692 120.72 200.819L144.268 290.707C144.288 290.774 144.293 290.844 144.283 290.912C144.272 290.981 144.246 291.046 144.207 291.103C144.171 291.164 144.122 291.216 144.064 291.256C144.007 291.296 143.941 291.324 143.872 291.337L128.393 294.321H128.291ZM92.9695 209.061L128.596 293.235L143.182 290.423L119.837 201.631L92.9695 209.061Z" fill="#484646"/>
<path d="M104.997 97.1773C102.404 95.3498 99.2921 94.4029 96.1202 94.476C92.9482 94.5491 89.8835 95.6382 87.3769 97.5833C85.472 99.0735 84.0255 101.07 83.2033 103.345C82.3811 105.619 82.2164 108.08 82.7282 110.443C83.3806 112.764 84.7497 114.82 86.6399 116.316C88.5302 117.813 90.845 118.674 93.2537 118.776C97.9126 119.01 102.815 115.021 105.292 111.367C108.286 106.952 110.296 100.831 104.997 97.1773Z" fill="white"/>
<path d="M93.6495 119.294H93.2232C90.7077 119.194 88.2887 118.299 86.3136 116.738C84.3385 115.177 82.9092 113.03 82.2308 110.606C81.7056 108.146 81.8798 105.588 82.7337 103.221C83.5876 100.855 85.087 98.7756 87.0622 97.2179C89.6564 95.1899 92.8362 94.0539 96.1282 93.9789C99.4201 93.904 102.648 94.894 105.332 96.8017C111.788 101.217 107.728 108.657 105.698 111.621C103.191 115.386 98.3794 119.294 93.6495 119.294ZM96.3596 94.9341C93.209 94.9393 90.1532 96.0128 87.6915 97.9791C85.8691 99.4146 84.4842 101.331 83.6933 103.512C82.9023 105.693 82.7368 108.051 83.2153 110.322C83.8333 112.541 85.1406 114.507 86.9485 115.936C88.7564 117.364 90.9715 118.181 93.274 118.269C97.537 118.462 102.348 114.818 104.875 111.083C106.733 108.332 110.438 101.532 104.713 97.6036C102.259 95.9017 99.346 94.985 96.3596 94.9747V94.9341Z" fill="#484646"/>
<path d="M95.6288 104.912C93.949 106.387 92.6751 108.268 91.9288 110.375C91.1826 112.482 90.9887 114.746 91.3658 116.949C91.5061 118.171 92.0742 119.304 92.9695 120.147C94.7661 121.608 97.4863 120.756 99.4148 119.477C102.529 117.295 105.097 114.422 106.916 111.083C108.266 108.728 110.306 103.42 106.652 102.11C102.998 100.801 98.3084 102.597 95.6288 104.912Z" fill="#484646"/>
<path d="M95.2634 121.415C94.3153 121.439 93.3888 121.13 92.6447 120.543C91.6436 119.628 91.0118 118.379 90.8684 117.031C90.4715 114.74 90.6701 112.386 91.4451 110.195C92.22 108.003 93.5454 106.048 95.2938 104.516C98.0851 102.11 103.079 100.283 106.824 101.623C107.309 101.779 107.753 102.043 108.122 102.395C108.491 102.746 108.776 103.176 108.956 103.653C109.971 106.536 107.636 110.819 107.352 111.296C105.501 114.707 102.881 117.64 99.6989 119.863C98.3966 120.788 96.8588 121.327 95.2634 121.415ZM104.053 102.202C101.078 102.301 98.22 103.39 95.9333 105.297C94.3254 106.717 93.108 108.525 92.3973 110.549C91.6865 112.573 91.5061 114.745 91.8733 116.858C91.9886 117.96 92.4923 118.986 93.2943 119.751C94.8878 121.04 97.3543 120.228 99.1508 119.051C102.202 116.917 104.715 114.102 106.489 110.829C107.393 109.246 108.743 106.038 108.012 104.049C107.889 103.705 107.688 103.394 107.423 103.142C107.159 102.89 106.839 102.703 106.489 102.597C105.707 102.324 104.882 102.19 104.053 102.202Z" fill="#484646"/>
<path d="M114.406 133.717C113.606 134.492 112.762 135.221 111.879 135.9C110.129 136.924 108.148 137.489 106.121 137.54C104.094 137.591 102.087 137.128 100.288 136.194C91.7109 131.779 91.9139 121.75 93.6902 113.59C94.4108 110.271 96.8367 103.348 101.313 106.81C100.003 105.795 105.373 102.435 106.195 102.12C111.899 99.796 117.959 103.135 121.298 107.774C123.273 110.426 124.948 113.289 126.292 116.31C127.611 119.639 126.17 124.207 124.262 127.039C122.788 129.233 120.746 130.987 118.355 132.114C117.248 132.631 115.827 132.763 114.802 133.403L114.406 133.717Z" fill="white"/>
<path d="M105.911 138.011C103.877 138.013 101.873 137.529 100.064 136.6C92.9594 132.946 90.6452 125.161 93.1928 113.448C93.5379 111.864 94.8879 106.607 97.8821 105.51C98.3514 105.348 98.8503 105.289 99.3445 105.338C99.8387 105.387 100.316 105.543 100.744 105.795C101.567 104.049 105.708 101.735 106.002 101.613C112.163 99.1058 118.466 102.871 121.714 107.439C123.728 110.117 125.43 113.014 126.789 116.077C128.18 119.568 126.708 124.329 124.759 127.242C123.244 129.515 121.139 131.332 118.669 132.499C118.138 132.732 117.588 132.919 117.025 133.058C116.382 133.212 115.762 133.448 115.178 133.758C115.046 133.849 114.914 133.941 114.792 134.042C114.436 134.308 114.097 134.596 113.777 134.905C113.292 135.41 112.754 135.863 112.173 136.255C110.29 137.411 108.121 138.019 105.911 138.011ZM98.9783 106.333C98.7221 106.331 98.4676 106.376 98.2272 106.464C96.1972 107.195 94.8067 110.799 94.1672 113.661C91.7312 124.826 93.8627 132.286 100.501 135.696C102.222 136.592 104.142 137.037 106.082 136.991C108.021 136.945 109.918 136.409 111.595 135.433C112.112 135.077 112.595 134.672 113.036 134.225C113.358 133.892 113.696 133.577 114.051 133.281C114.204 133.16 114.363 133.048 114.528 132.946C115.187 132.568 115.899 132.291 116.639 132.124C117.15 131.996 117.649 131.826 118.131 131.616C120.442 130.529 122.414 128.835 123.836 126.714C125.642 123.983 127.023 119.609 125.774 116.452C124.475 113.485 122.848 110.673 120.923 108.068C117.878 103.815 112.062 100.293 106.418 102.597C105.403 103.003 101.597 105.642 101.648 106.404C101.7 106.444 101.743 106.493 101.776 106.55C101.809 106.607 101.83 106.67 101.839 106.735C101.847 106.8 101.843 106.866 101.826 106.929C101.808 106.993 101.779 107.052 101.739 107.104C101.699 107.156 101.649 107.2 101.592 107.232C101.536 107.265 101.473 107.286 101.408 107.295C101.343 107.303 101.277 107.299 101.213 107.282C101.15 107.265 101.091 107.235 101.039 107.195C100.463 106.699 99.7376 106.41 98.9783 106.373V106.333Z" fill="#484646"/>
<path d="M120.791 114.483C120.791 114.483 124.15 121.801 123.338 127.678C123.151 129.307 122.494 130.846 121.447 132.108C120.4 133.37 119.008 134.299 117.441 134.783L118.324 144.933C118.324 144.933 118.832 150.13 112.386 149.886C110.516 149.813 108.696 149.264 107.097 148.291C105.498 147.318 104.175 145.952 103.251 144.324L100.927 125.709C100.927 125.709 107.789 120.928 106.571 114.27C106.571 114.27 115.513 117.711 120.791 114.483Z" fill="white"/>
<path d="M112.803 150.404H112.346C110.388 150.331 108.483 149.756 106.812 148.734C105.141 147.712 103.761 146.277 102.805 144.568C102.8 144.514 102.8 144.459 102.805 144.405L100.46 125.77C100.445 125.678 100.458 125.584 100.496 125.5C100.533 125.415 100.595 125.343 100.673 125.293C100.734 125.293 107.24 120.614 106.104 114.361C106.09 114.272 106.099 114.181 106.129 114.096C106.159 114.011 106.209 113.935 106.276 113.874C106.347 113.819 106.431 113.783 106.52 113.769C106.608 113.755 106.699 113.763 106.784 113.793C106.875 113.793 115.563 117.071 120.557 114.047C120.621 114.019 120.69 114.005 120.76 114.005C120.83 114.005 120.899 114.019 120.963 114.047C121.032 114.067 121.096 114.102 121.151 114.149C121.205 114.196 121.248 114.255 121.278 114.321C121.42 114.625 124.698 121.842 123.876 127.78C123.673 129.434 123.019 131.001 121.984 132.308C120.949 133.615 119.574 134.612 118.01 135.189L118.862 144.953C118.905 145.648 118.811 146.345 118.584 147.003C118.358 147.661 118.004 148.269 117.543 148.79C116.909 149.375 116.16 149.821 115.344 150.099C114.527 150.377 113.662 150.481 112.803 150.404ZM103.749 144.182C104.629 145.711 105.883 146.991 107.394 147.902C108.905 148.813 110.623 149.325 112.386 149.389C113.166 149.493 113.959 149.427 114.71 149.196C115.462 148.964 116.155 148.573 116.741 148.049C117.465 147.206 117.829 146.113 117.756 145.004L116.873 134.854C116.864 134.733 116.898 134.614 116.968 134.515C117.039 134.417 117.141 134.347 117.258 134.316C118.733 133.863 120.041 132.986 121.021 131.795C122.001 130.604 122.609 129.151 122.77 127.617C123.44 122.836 121.207 116.96 120.486 115.224C115.939 117.558 109.392 115.782 107.129 115.051C107.657 120.857 102.622 125.049 101.404 125.973L103.749 144.182Z" fill="#484646"/>
<path d="M104.337 124.085C104.337 124.085 100.572 117.305 97.4253 122.055C94.2788 126.805 99.8613 131.19 102.967 130.54" fill="white"/>
<path d="M102.277 131.129C101.226 131.056 100.206 130.744 99.295 130.216C98.3837 129.688 97.6053 128.959 97.0193 128.084C96.359 127.162 96.0039 126.056 96.0039 124.922C96.0039 123.788 96.359 122.683 97.0193 121.761C97.3092 121.198 97.7445 120.723 98.28 120.386C98.8155 120.049 99.4316 119.861 100.064 119.842C102.632 119.944 104.723 123.659 104.814 123.821C104.846 123.88 104.867 123.944 104.874 124.01C104.881 124.077 104.875 124.144 104.856 124.208C104.837 124.272 104.806 124.332 104.764 124.384C104.722 124.436 104.67 124.479 104.611 124.511C104.553 124.543 104.488 124.563 104.422 124.57C104.356 124.578 104.288 124.572 104.224 124.553C104.16 124.534 104.1 124.503 104.048 124.461C103.996 124.419 103.953 124.367 103.921 124.308C103.404 123.374 101.678 120.918 100.024 120.857C99.5703 120.893 99.1341 121.047 98.7584 121.303C98.3827 121.559 98.0806 121.91 97.882 122.319C97.3334 123.072 97.0378 123.98 97.0378 124.912C97.0378 125.844 97.3334 126.752 97.882 127.505C99.0899 129.251 101.323 130.388 102.886 130.043C103.021 130.013 103.161 130.038 103.278 130.113C103.394 130.187 103.476 130.304 103.505 130.439C103.535 130.573 103.51 130.714 103.435 130.83C103.361 130.946 103.244 131.028 103.109 131.058C102.836 131.115 102.556 131.138 102.277 131.129Z" fill="#484646"/>
<path d="M117.492 128.561C117.019 128.56 116.547 128.519 116.081 128.439C116.014 128.428 115.951 128.404 115.893 128.368C115.836 128.332 115.787 128.285 115.747 128.23C115.708 128.174 115.68 128.112 115.665 128.046C115.65 127.98 115.648 127.912 115.66 127.846C115.671 127.779 115.695 127.715 115.731 127.658C115.767 127.601 115.814 127.551 115.869 127.512C115.925 127.473 115.987 127.445 116.053 127.43C116.119 127.415 116.187 127.413 116.254 127.424C117.198 127.612 118.175 127.546 119.085 127.231C119.085 126.643 117.573 124.46 115.756 122.441C115.709 122.394 115.671 122.339 115.646 122.278C115.62 122.217 115.607 122.152 115.607 122.085C115.607 122.019 115.62 121.954 115.646 121.893C115.671 121.832 115.709 121.776 115.756 121.73C115.803 121.683 115.86 121.645 115.921 121.619C115.983 121.593 116.05 121.58 116.117 121.58C116.184 121.58 116.25 121.593 116.312 121.619C116.374 121.645 116.43 121.683 116.477 121.73C117.36 122.745 120.232 126.024 120.04 127.384C120.027 127.513 119.985 127.639 119.916 127.749C119.847 127.86 119.754 127.954 119.644 128.023C118.987 128.39 118.244 128.576 117.492 128.561Z" fill="#484646"/>
<path d="M115.34 131.921C115 131.923 114.661 131.899 114.325 131.85C112.502 131.583 110.842 130.65 109.666 129.231C109.601 129.114 109.584 128.975 109.62 128.846C109.656 128.717 109.742 128.607 109.859 128.541C109.977 128.478 110.114 128.463 110.243 128.498C110.372 128.534 110.481 128.619 110.549 128.734C111.608 129.902 113.046 130.658 114.609 130.865C116.639 131.099 118.548 130.287 120.405 128.48C120.451 128.427 120.507 128.384 120.57 128.354C120.633 128.324 120.702 128.308 120.772 128.306C120.842 128.303 120.912 128.316 120.976 128.342C121.041 128.368 121.1 128.407 121.149 128.457C121.198 128.506 121.237 128.566 121.262 128.631C121.287 128.696 121.298 128.766 121.295 128.836C121.292 128.906 121.274 128.974 121.243 129.037C121.212 129.1 121.169 129.155 121.115 129.201C119.624 130.833 117.549 131.811 115.34 131.921Z" fill="#484646"/>
<path d="M117.441 134.783C117.441 134.783 112.072 135.94 108.885 135.412C108.885 135.412 112.945 143.126 118.141 142.629L117.441 134.783Z" fill="#484646"/>
<path d="M117.664 143.157C112.488 143.157 108.6 135.971 108.438 135.656C108.389 135.575 108.363 135.482 108.363 135.387C108.363 135.292 108.389 135.199 108.438 135.118C108.495 135.043 108.571 134.984 108.659 134.948C108.746 134.913 108.842 134.901 108.935 134.915C111.98 135.412 117.248 134.296 117.299 134.286C117.371 134.27 117.445 134.27 117.517 134.286C117.589 134.301 117.657 134.333 117.715 134.377C117.772 134.418 117.82 134.472 117.855 134.533C117.89 134.594 117.911 134.662 117.918 134.732L118.618 142.578C118.625 142.645 118.619 142.712 118.6 142.777C118.581 142.841 118.549 142.901 118.507 142.953C118.464 143.005 118.412 143.047 118.353 143.079C118.293 143.111 118.229 143.13 118.162 143.136L117.664 143.157ZM109.839 136.052C111.006 137.899 114.041 142.142 117.593 142.142L116.984 135.392C114.633 135.867 112.237 136.081 109.839 136.031V136.052Z" fill="#484646"/>
<path d="M112.687 122.746C113.125 122.683 113.392 122.012 113.283 121.246C113.174 120.48 112.73 119.91 112.292 119.972C111.853 120.035 111.586 120.706 111.696 121.472C111.805 122.238 112.249 122.808 112.687 122.746Z" fill="#484646"/>
<path d="M120.008 121.693C120.446 121.631 120.713 120.959 120.604 120.194C120.495 119.428 120.051 118.858 119.613 118.92C119.174 118.982 118.907 119.654 119.016 120.42C119.125 121.186 119.569 121.756 120.008 121.693Z" fill="#484646"/>
<path d="M290.844 152.485L207.776 109.022C206.986 108.608 206.095 108.424 205.205 108.492C204.315 108.56 203.462 108.876 202.744 109.406C202.025 109.935 201.47 110.655 201.141 111.485C200.812 112.314 200.723 113.22 200.884 114.097L204.122 132.367L64.9656 157.032C64.5841 157.099 64.2196 157.241 63.893 157.45C63.5665 157.658 63.2844 157.929 63.0628 158.247C62.8412 158.565 62.6845 158.923 62.6017 159.302C62.5189 159.68 62.5116 160.071 62.5803 160.452L75.0953 230.964C75.2314 231.733 75.6671 232.416 76.3066 232.863C76.9462 233.31 77.7371 233.485 78.5057 233.35L217.672 208.655L220.91 226.925C221.068 227.798 221.466 228.611 222.061 229.27C222.656 229.929 223.423 230.409 224.276 230.655C225.129 230.901 226.034 230.903 226.889 230.662C227.743 230.421 228.513 229.945 229.111 229.29L292.163 159.894C292.649 159.355 293.004 158.711 293.204 158.014C293.403 157.316 293.441 156.582 293.313 155.867C293.186 155.153 292.898 154.476 292.47 153.89C292.042 153.304 291.486 152.823 290.844 152.485Z" fill="white"/>
<path d="M77.9881 233.908C77.2829 233.904 76.5959 233.684 76.019 233.279C75.6464 233.021 75.3288 232.692 75.0848 232.31C74.8409 231.928 74.6754 231.502 74.598 231.056L62.0526 160.534C61.9737 160.087 61.9836 159.629 62.0818 159.187C62.1799 158.744 62.3643 158.325 62.6245 157.953C62.8847 157.582 63.2155 157.266 63.598 157.022C63.9806 156.779 64.4074 156.613 64.854 156.534L203.533 131.921L200.387 114.148C200.219 113.181 200.325 112.186 200.693 111.275C201.061 110.365 201.676 109.575 202.469 108.996C203.261 108.416 204.2 108.07 205.179 107.996C206.158 107.921 207.139 108.122 208.01 108.576L291.087 152.048C291.8 152.421 292.418 152.952 292.894 153.601C293.369 154.25 293.69 155 293.83 155.792C293.97 156.584 293.927 157.398 293.703 158.171C293.479 158.944 293.081 159.655 292.539 160.249L229.528 229.645C228.864 230.37 228.012 230.896 227.065 231.162C226.119 231.428 225.118 231.424 224.174 231.15C223.23 230.877 222.381 230.345 221.723 229.614C221.066 228.884 220.626 227.984 220.453 227.016L217.297 209.243L78.5971 233.847C78.3966 233.887 78.1926 233.908 77.9881 233.908ZM205.553 108.972C204.654 108.979 203.78 109.27 203.056 109.804C202.409 110.268 201.907 110.907 201.611 111.646C201.314 112.385 201.235 113.193 201.382 113.976L204.63 132.246C204.65 132.378 204.619 132.514 204.541 132.624C204.463 132.734 204.346 132.809 204.213 132.834L65.0976 157.529C64.461 157.65 63.8965 158.014 63.5243 158.544C63.1413 159.059 62.9771 159.705 63.0676 160.341L75.5825 230.853C75.6964 231.49 76.0584 232.057 76.5893 232.428C77.1201 232.799 77.7765 232.944 78.4144 232.832L217.571 208.137C217.702 208.116 217.837 208.146 217.947 208.222C218.056 208.298 218.133 208.413 218.16 208.543L221.397 226.813C221.535 227.596 221.889 228.325 222.42 228.916C222.951 229.508 223.638 229.938 224.402 230.158C225.166 230.378 225.976 230.379 226.741 230.161C227.505 229.943 228.193 229.514 228.726 228.924L291.778 159.529C292.213 159.048 292.532 158.473 292.711 157.85C292.89 157.226 292.924 156.57 292.81 155.931C292.697 155.293 292.438 154.688 292.055 154.165C291.672 153.641 291.174 153.212 290.6 152.911L207.533 109.469C206.924 109.143 206.244 108.973 205.553 108.972Z" fill="#484646"/>
<path d="M203.868 126.359C202.752 125.983 201.615 125.648 200.478 125.344C199.773 125.094 199.008 125.066 198.286 125.262C197.271 125.658 196.753 126.866 196.388 127.932C195.85 129.566 195.292 131.312 195.759 133.007C196.439 135.422 199.017 136.752 201.432 137.412C202.615 137.787 203.866 137.898 205.097 137.737C212.273 136.437 208.639 127.962 203.868 126.359Z" fill="white"/>
<path d="M204.092 138.315C203.146 138.293 202.208 138.146 201.3 137.879C199.402 137.371 196.094 136.072 195.271 133.129C194.744 131.261 195.393 129.343 195.911 127.79C196.307 126.602 196.845 125.283 198.103 124.806C198.922 124.566 199.796 124.591 200.6 124.877C201.757 125.161 202.914 125.506 204.031 125.892C207.187 126.907 209.847 130.794 209.613 133.951C209.522 135.27 208.811 137.574 205.188 138.234C204.825 138.291 204.459 138.318 204.092 138.315ZM199.078 125.658C198.864 125.655 198.65 125.689 198.448 125.76C197.596 126.074 197.18 127.14 196.855 128.114C196.266 129.85 195.84 131.403 196.225 132.855C196.916 135.311 199.859 136.448 201.544 136.915C202.654 137.268 203.828 137.379 204.985 137.239C207.208 136.843 208.446 135.676 208.578 133.88C208.781 131.19 206.396 127.79 203.686 126.856C202.59 126.49 201.463 126.166 200.336 125.841C199.926 125.727 199.503 125.665 199.078 125.658Z" fill="#484646"/>
<path d="M77.8764 163.518C78.1463 163.517 78.4129 163.458 78.6579 163.345C81.2462 162.218 80.8808 157.438 81.1041 155.103C81.2259 153.794 81.1954 152.211 80.0891 151.531C77.5922 150.018 74.1209 150.678 71.8574 152.343C69.594 154.007 69.0966 157.154 69.3504 159.854C69.4417 160.929 69.5229 163.315 70.4973 163.985C71.7965 164.898 73.3292 162.381 73.2987 161.264V162.168C73.284 162.584 73.3424 163 73.4713 163.396C73.5347 163.596 73.6466 163.778 73.7971 163.925C73.9476 164.072 74.132 164.18 74.334 164.238C74.9836 164.37 75.5723 163.802 75.8362 163.223C76.023 162.592 76.2467 161.971 76.5061 161.366C76.3095 161.643 76.2243 161.983 76.2675 162.32C76.3108 162.657 76.4793 162.965 76.7396 163.183C77.0637 163.432 77.469 163.551 77.8764 163.518Z" fill="white"/>
<path d="M74.5371 164.766C74.4358 164.776 74.3339 164.776 74.2326 164.766C73.9457 164.693 73.682 164.548 73.4656 164.346C73.2492 164.144 73.0871 163.89 72.9943 163.609C72.9943 163.609 72.9943 163.538 72.9943 163.497C72.7313 163.903 72.3854 164.249 71.9793 164.512C71.7033 164.682 71.3816 164.762 71.0583 164.742C70.7349 164.722 70.4256 164.603 70.1726 164.401C69.1068 163.66 68.9444 161.62 68.8429 160.27V159.904C68.6095 157.357 68.8429 153.906 71.5631 151.937C73.7657 150.302 77.4603 149.348 80.353 151.094C81.7639 151.947 81.7537 153.814 81.6319 155.154C81.6319 155.58 81.571 156.078 81.5406 156.616C81.4391 159.214 81.2868 162.767 78.8813 163.822C78.5619 163.964 78.2159 164.037 77.8663 164.035C77.3315 164.057 76.8064 163.887 76.3844 163.558L76.2626 163.386C76.1316 163.753 75.9007 164.077 75.596 164.321C75.2912 164.565 74.9245 164.719 74.5371 164.766ZM73.786 161.254V162.147C73.7742 162.511 73.8222 162.875 73.9281 163.223C73.9628 163.343 74.0262 163.453 74.1129 163.544C74.1995 163.634 74.3068 163.701 74.4254 163.741C74.7705 163.812 75.1664 163.416 75.3491 162.99C75.4469 162.752 75.5283 162.508 75.5927 162.259L75.7449 161.752C75.8 161.479 75.9221 161.224 76.1002 161.011C76.1838 160.921 76.297 160.865 76.4188 160.852C76.5406 160.84 76.6629 160.872 76.7631 160.942C76.8632 161.013 76.9345 161.117 76.9638 161.236C76.9931 161.355 76.9784 161.48 76.9223 161.589C76.8493 161.722 76.7882 161.861 76.7396 162.005C76.7295 162.056 76.7295 162.107 76.7396 162.158C76.7578 162.393 76.8671 162.611 77.0441 162.767C77.2697 162.949 77.5572 163.036 77.846 163.01C78.048 163.006 78.2476 162.965 78.4347 162.888C80.2617 162.087 80.3936 158.899 80.4647 156.565C80.4647 156.007 80.4647 155.489 80.5459 155.053C80.7083 153.368 80.4545 152.393 79.7643 152.008C77.3791 150.566 74.1006 151.307 72.0909 152.789C69.8072 154.484 69.5737 157.56 69.7767 159.894V160.27C69.8579 161.214 70.0102 163.183 70.6801 163.65C70.7738 163.715 70.8855 163.75 70.9998 163.75C71.1142 163.75 71.2258 163.715 71.3195 163.65C71.6943 163.381 72.0094 163.037 72.2452 162.641C72.481 162.244 72.6324 161.803 72.6898 161.346C72.687 161.213 72.7365 161.084 72.8276 160.987C72.9187 160.89 73.0442 160.833 73.177 160.828C73.3119 160.828 73.4417 160.879 73.5398 160.972C73.638 161.064 73.697 161.191 73.7048 161.325L73.786 161.254Z" fill="#484646"/>
<path d="M306.668 149.084C306.668 149.084 312.9 179.037 305.521 180.986C295.503 183.686 253.888 173.475 253.888 173.475C253.888 173.475 243.027 176.144 241.129 173.282C239.231 170.42 241.129 166.421 242.083 166.177C243.037 165.933 251.218 165.365 251.218 165.365C251.218 165.365 244.56 160.462 246.651 160.087C248.741 159.711 256.181 162.178 256.181 162.178C256.181 162.178 296.944 165.223 296.568 163.112C296.193 161 294.305 153.063 294.305 153.063" fill="white"/>
<path d="M300.882 181.94C286.824 181.94 256.516 174.622 253.928 173.992C252.324 174.378 242.763 176.54 240.733 173.566C240.211 172.677 239.908 171.677 239.85 170.648C239.792 169.619 239.98 168.591 240.398 167.649C240.561 167.243 241.18 165.903 242.012 165.73C242.844 165.558 247.503 165.203 249.878 165.01C247.899 163.477 245.544 161.386 245.818 160.31C245.865 160.129 245.967 159.966 246.111 159.846C246.255 159.726 246.433 159.654 246.62 159.64C248.731 159.255 255.319 161.396 256.334 161.731C270.625 162.746 293.594 164.045 296.081 163.03C295.635 160.676 293.899 153.307 293.879 153.226C293.848 153.091 293.871 152.95 293.945 152.833C294.018 152.715 294.135 152.632 294.269 152.601C294.404 152.57 294.545 152.594 294.662 152.667C294.779 152.741 294.863 152.858 294.894 152.992C294.975 153.317 296.781 160.99 297.157 163.071C297.177 163.174 297.172 163.281 297.142 163.382C297.112 163.482 297.058 163.574 296.984 163.65C295.34 165.487 265.377 163.416 256.232 162.736H256.11C254.08 162.056 248.538 160.381 246.874 160.645C247.128 161.335 249.208 163.254 251.614 165.03C251.697 165.092 251.76 165.177 251.795 165.274C251.829 165.372 251.833 165.478 251.807 165.578C251.775 165.677 251.715 165.765 251.634 165.83C251.552 165.895 251.454 165.934 251.35 165.944C249.087 166.116 243.027 166.603 242.266 166.745C241.763 167.199 241.41 167.793 241.251 168.451C240.97 169.192 240.859 169.988 240.925 170.778C240.992 171.569 241.235 172.334 241.636 173.018C242.885 174.886 249.756 174.033 253.816 173.018C253.896 172.998 253.98 172.998 254.06 173.018C254.476 173.12 295.604 183.168 305.439 180.539C311.113 179.037 307.926 157.428 306.221 149.226C306.194 149.092 306.222 148.952 306.298 148.838C306.374 148.724 306.492 148.644 306.627 148.617C306.762 148.591 306.901 148.618 307.016 148.694C307.13 148.77 307.209 148.889 307.236 149.023C307.886 152.14 313.326 179.473 305.724 181.503C304.134 181.85 302.508 181.997 300.882 181.94Z" fill="#484646"/>
<path d="M294.346 153.621C294.232 153.62 294.122 153.58 294.034 153.508C293.945 153.436 293.884 153.337 293.859 153.226L289.261 133.768C289.244 133.703 289.241 133.636 289.251 133.57C289.261 133.504 289.284 133.441 289.319 133.384C289.354 133.327 289.4 133.278 289.455 133.239C289.509 133.201 289.571 133.173 289.636 133.159C289.766 133.131 289.903 133.155 290.016 133.225C290.129 133.295 290.212 133.406 290.245 133.535L294.843 152.992C294.874 153.123 294.851 153.26 294.781 153.374C294.711 153.488 294.598 153.57 294.468 153.601L294.346 153.621Z" fill="#484646"/>
<path d="M188.43 101.603C188.354 101.602 188.28 101.583 188.213 101.548C188.146 101.513 188.088 101.462 188.044 101.4C188.01 101.349 187.985 101.292 187.973 101.232C187.96 101.172 187.959 101.11 187.971 101.05C187.982 100.989 188.005 100.932 188.039 100.88C188.072 100.829 188.116 100.785 188.166 100.75C188.529 100.509 188.816 100.171 188.995 99.7739C189.175 99.3774 189.239 98.9384 189.181 98.5069C188.869 97.863 188.644 97.1803 188.511 96.4769C188.495 96.3716 188.516 96.2639 188.57 96.1719C188.624 96.0799 188.707 96.0091 188.807 95.9712C188.906 95.9332 189.016 95.9305 189.117 95.9634C189.219 95.9963 189.306 96.0629 189.364 96.1521C189.737 96.774 189.982 97.4642 190.085 98.1821C190.204 98.4427 190.398 98.6619 190.643 98.8114C190.722 98.8474 190.811 98.8598 190.897 98.8472C190.983 98.8346 191.064 98.7975 191.13 98.7404C192.054 98.1923 191.13 94.9341 190.257 92.9143C190.232 92.8591 190.218 92.7994 190.216 92.7387C190.214 92.678 190.224 92.6175 190.246 92.5608C190.268 92.5041 190.301 92.4523 190.343 92.4084C190.385 92.3645 190.435 92.3295 190.491 92.3053C190.604 92.2566 190.732 92.2537 190.847 92.2972C190.963 92.3407 191.057 92.4273 191.11 92.5387C191.536 93.503 193.566 98.3648 191.607 99.5321C191.414 99.6687 191.189 99.752 190.954 99.7733C190.718 99.7947 190.482 99.7535 190.267 99.6539C190.184 99.6204 190.105 99.5761 190.034 99.5219C189.851 100.326 189.364 101.029 188.674 101.481C188.605 101.543 188.521 101.585 188.43 101.603Z" fill="#484646"/>
<path d="M136.148 262.115C136.045 262.116 135.946 262.082 135.865 262.019C135.784 261.957 135.726 261.869 135.701 261.77L126.647 227.94C126.626 227.876 126.618 227.808 126.626 227.741C126.633 227.674 126.655 227.609 126.689 227.551C126.724 227.493 126.771 227.443 126.827 227.405C126.883 227.367 126.946 227.342 127.013 227.331C127.132 227.3 127.259 227.318 127.366 227.381C127.473 227.443 127.55 227.546 127.581 227.666L136.635 261.496C136.666 261.614 136.649 261.74 136.589 261.846C136.528 261.953 136.428 262.031 136.31 262.064L136.148 262.115Z" fill="white"/>
</svg>
