<svg width="400" height="400" viewBox="0 0 400 400" fill="none" xmlns="http://www.w3.org/2000/svg">
<path d="M90.1862 263.622C90.0893 263.623 89.994 263.597 89.9118 263.545C89.8295 263.494 89.7636 263.42 89.722 263.333C89.6803 263.245 89.6647 263.148 89.6768 263.051C89.6889 262.955 89.7283 262.864 89.7904 262.79C95.9637 255.357 102.566 248.291 109.563 241.627C124.554 227.417 136.785 220.16 145.92 219.916C155.461 219.663 167.712 224.403 180.663 229.407C197.289 235.852 214.493 242.51 227.414 239.08C279.474 225.296 314.065 166.954 314.41 166.365C314.48 166.249 314.592 166.165 314.723 166.131C314.854 166.097 314.993 166.115 315.11 166.182C315.223 166.252 315.306 166.362 315.34 166.491C315.374 166.619 315.357 166.756 315.293 166.872C314.948 167.471 280.143 226.169 227.678 240.064C214.483 243.576 197.076 236.857 180.298 230.361C167.448 225.387 155.309 220.667 145.95 220.931C124.706 221.49 90.917 263.044 90.5821 263.46C90.5315 263.514 90.47 263.556 90.4017 263.584C90.3334 263.612 90.26 263.625 90.1862 263.622Z" fill="#D1D1D1"/>
<path d="M313.649 269.286H83.5075C83.3729 269.286 83.2438 269.233 83.1486 269.137C83.0535 269.042 83 268.913 83 268.779V130.373C83 130.239 83.0535 130.109 83.1486 130.014C83.2438 129.919 83.3729 129.866 83.5075 129.866C83.6421 129.866 83.7712 129.919 83.8664 130.014C83.9615 130.109 84.015 130.239 84.015 130.373V268.271H313.649C313.783 268.271 313.912 268.324 314.007 268.42C314.103 268.515 314.156 268.644 314.156 268.779C314.156 268.913 314.103 269.042 314.007 269.137C313.912 269.233 313.783 269.286 313.649 269.286Z" fill="#D1D1D1"/>
<path d="M217.092 325.436C249.711 325.436 276.154 323.9 276.154 322.005C276.154 320.11 249.711 318.574 217.092 318.574C184.472 318.574 158.029 320.11 158.029 322.005C158.029 323.9 184.472 325.436 217.092 325.436Z" fill="#D1D1D1"/>
<path d="M203.42 299.513L202.476 310.201L188.722 310.718L188.672 297.879L203.42 299.513Z" fill="white"/>
<path d="M188.722 311.246C188.654 311.247 188.587 311.234 188.524 311.208C188.461 311.182 188.404 311.143 188.357 311.094C188.306 311.046 188.265 310.987 188.237 310.923C188.209 310.858 188.195 310.789 188.195 310.718L188.144 297.879C188.145 297.803 188.162 297.729 188.193 297.661C188.225 297.593 188.27 297.532 188.327 297.483C188.381 297.433 188.445 297.396 188.515 297.373C188.585 297.35 188.659 297.343 188.733 297.351L203.481 298.985C203.616 299 203.74 299.069 203.826 299.175C203.912 299.281 203.952 299.417 203.937 299.553L202.993 310.241C202.983 310.368 202.927 310.487 202.836 310.575C202.744 310.663 202.623 310.714 202.496 310.718L188.743 311.246H188.722ZM189.199 298.457V310.18L201.948 309.693L202.811 299.969L189.199 298.457Z" fill="#484646"/>
<path d="M202.638 310.18C202.638 310.18 203.186 320.462 202.08 320.787C200.973 321.112 175.355 322.502 170.534 320.929C166.93 319.752 188.753 310.718 188.753 310.718L202.638 310.18Z" fill="#484646"/>
<path d="M181.12 322.157C176.289 322.157 172.056 321.965 170.341 321.406C169.711 321.203 169.6 320.787 169.6 320.564C169.508 318.361 182.795 312.616 188.53 310.251H188.702L202.638 309.632C202.772 309.629 202.902 309.679 203 309.769C203.099 309.86 203.158 309.986 203.166 310.119C203.724 320.787 202.618 321.122 202.252 321.284C201.501 321.477 190.235 322.157 181.12 322.157ZM170.645 320.442C175.274 321.954 199.898 320.635 201.816 320.31C202.263 319.549 202.313 314.89 202.12 310.698L188.814 311.205C180.308 314.707 171.396 319.072 170.645 320.442Z" fill="#484646"/>
<path d="M228.206 299.513L229.15 310.201L244.02 310.718L242.954 297.879L228.206 299.513Z" fill="white"/>
<path d="M244.02 311.246L229.15 310.718C229.023 310.714 228.902 310.663 228.81 310.575C228.718 310.487 228.662 310.368 228.652 310.241L227.698 299.553C227.687 299.416 227.729 299.28 227.816 299.174C227.904 299.068 228.029 299 228.165 298.985L242.913 297.351C242.984 297.343 243.056 297.349 243.124 297.37C243.192 297.391 243.255 297.426 243.309 297.473C243.414 297.562 243.48 297.69 243.492 297.828L244.547 310.647C244.552 310.722 244.541 310.797 244.515 310.867C244.489 310.937 244.448 311 244.395 311.053C244.35 311.11 244.293 311.156 244.228 311.19C244.163 311.223 244.092 311.242 244.02 311.246ZM229.637 309.693L243.451 310.17L242.436 298.457L228.734 299.969L229.637 309.693Z" fill="#484646"/>
<path d="M229.028 310.18C229.028 310.18 228.48 320.462 229.586 320.787C230.693 321.112 256.311 322.502 261.132 320.929C264.736 319.752 244.03 310.718 244.03 310.718L229.028 310.18Z" fill="#484646"/>
<path d="M250.495 322.157C241.36 322.157 230.114 321.477 229.424 321.274C229.059 321.163 227.952 320.828 228.51 310.109C228.521 309.979 228.58 309.858 228.676 309.769C228.772 309.681 228.898 309.632 229.028 309.632L244.03 310.17H244.212C249.612 312.525 262.148 318.239 262.036 320.462C262.022 320.67 261.94 320.867 261.802 321.023C261.664 321.179 261.479 321.285 261.275 321.325C259.569 321.965 255.337 322.157 250.495 322.157ZM229.789 320.32C231.698 320.645 256.342 321.965 260.97 320.452C260.392 319.123 251.774 314.697 243.867 311.236L229.454 310.728C229.302 314.9 229.353 319.559 229.789 320.32Z" fill="#484646"/>
<path d="M205.845 300.964L214.047 222.921L226.572 300.964H245.522L241.046 189.243L184.977 185.914L185.16 300.964H205.845Z" fill="#484646"/>
<path d="M183.414 118.152L156.019 143.68L166.037 165.675L192.945 149.181L183.414 118.152Z" fill="#FF931E"/>
<path d="M238.427 186.543L245.177 163.675C245.177 163.675 242.741 128.668 233.088 116.244C218.787 108.54 189.443 110.357 183.424 118.153C177.405 125.948 188.052 187.091 188.052 187.091L238.427 186.543Z" fill="#FF931E"/>
<path d="M191.128 84.1398C191.29 84.2515 191.453 84.3631 191.625 84.4646C189.179 82.9523 192.488 75.9995 193.493 74.5176C195.279 76.7506 198.253 77.6844 201.095 78.0092C203.937 78.334 206.84 78.1513 209.642 78.6994C212.443 79.2475 215.295 80.7294 216.493 83.3278C216.381 83.0842 218.249 83.2263 218.421 83.3278C219.329 83.7647 220.036 84.5303 220.401 85.4695C220.842 86.6356 221.049 87.8773 221.01 89.1235C221.06 94.4301 219.779 99.6647 217.284 104.348C216.349 106.27 215.009 107.967 213.356 109.322C209.388 112.367 204.617 109.911 200.77 107.739C191.707 102.664 189.433 91.2854 188.59 81.6835C189.291 82.64 190.149 83.4706 191.128 84.1398Z" fill="white"/>
<path d="M209.144 111.251C205.927 111.251 202.719 109.444 200.507 108.205C190.935 102.816 188.844 90.514 188.093 81.7444C188.083 81.6306 188.11 81.5166 188.171 81.4196C188.231 81.3226 188.321 81.2478 188.428 81.2065C188.535 81.1649 188.654 81.1602 188.764 81.1933C188.874 81.2264 188.97 81.2953 189.037 81.3892C189.394 81.8747 189.792 82.3297 190.225 82.7493C190.042 79.8363 192.376 75.2383 193.056 74.2334C193.104 74.1657 193.166 74.1095 193.238 74.0691C193.31 74.0286 193.39 74.005 193.473 74C193.554 74.0013 193.634 74.0201 193.708 74.0551C193.781 74.0902 193.847 74.1406 193.899 74.203C195.35 76.0097 197.796 77.1161 201.156 77.4916C202.283 77.6236 203.46 77.6743 204.587 77.7149C206.316 77.7501 208.039 77.9164 209.743 78.2122C213.011 78.8517 215.529 80.4757 216.757 82.7087C217.375 82.6658 217.996 82.7033 218.604 82.8204C219.647 83.3036 220.47 84.1626 220.908 85.2259C221.38 86.4553 221.601 87.7667 221.558 89.0829C221.615 94.4939 220.306 99.8318 217.751 104.602C216.785 106.59 215.4 108.346 213.691 109.748C212.388 110.746 210.786 111.276 209.144 111.251ZM189.291 83.2872C190.143 91.661 192.458 102.461 201.024 107.292C205.135 109.616 209.449 111.646 213.042 108.916C214.647 107.606 215.946 105.96 216.848 104.095C219.306 99.4802 220.563 94.3211 220.502 89.0931C220.543 87.9164 220.349 86.7435 219.934 85.642C219.628 84.8381 219.035 84.1761 218.269 83.7846C217.801 83.7246 217.329 83.7042 216.858 83.7237C216.818 83.7566 216.774 83.7839 216.726 83.8049C216.664 83.8339 216.597 83.8503 216.529 83.8532C216.461 83.8561 216.392 83.8455 216.328 83.8219C216.264 83.7983 216.205 83.7622 216.155 83.7158C216.105 83.6693 216.064 83.6133 216.036 83.5511C214.645 80.5061 211.042 79.4912 209.56 79.2171C207.91 78.9328 206.241 78.7801 204.567 78.7604C203.42 78.7604 202.222 78.6589 201.055 78.5269C197.756 78.1514 195.249 77.1059 193.594 75.4007C192.64 77.116 190.915 81.0746 191.351 83.1147C191.378 83.2964 191.443 83.4704 191.541 83.6259C191.639 83.7814 191.768 83.9149 191.92 84.0181C192.028 84.0964 192.103 84.2131 192.129 84.3446C192.155 84.476 192.13 84.6123 192.059 84.7259C191.988 84.8395 191.876 84.9219 191.747 84.9563C191.617 84.9907 191.479 84.9746 191.361 84.9112L190.844 84.5661C190.288 84.1883 189.768 83.7602 189.291 83.2872Z" fill="#484646"/>
<path d="M199.938 109.119L199.857 117.899C199.857 117.899 201.39 122.75 207.013 121.035C208.625 120.539 210.068 119.605 211.183 118.339C212.297 117.072 213.039 115.522 213.326 113.859V98.1164C213.326 98.1164 209.895 94.9699 210.596 85.7131C205.137 87.585 199.381 88.4382 193.615 88.2303C193.615 88.2303 192.975 99.9028 193.929 104.277C194.883 108.652 199.938 109.119 199.938 109.119Z" fill="white"/>
<path d="M204.739 121.928C203.554 121.912 202.403 121.533 201.441 120.841C200.479 120.149 199.752 119.179 199.36 118.061C199.35 118.007 199.35 117.952 199.36 117.899L199.431 109.566C198.081 109.302 194.295 108.246 193.452 104.389C192.498 99.9942 193.107 88.6871 193.128 88.21C193.131 88.1398 193.149 88.071 193.18 88.0081C193.212 87.9452 193.256 87.8895 193.31 87.8446C193.363 87.7981 193.424 87.7625 193.49 87.7399C193.556 87.7172 193.626 87.708 193.696 87.7127C202.009 88.2709 210.372 85.2564 210.454 85.2259C210.536 85.1964 210.624 85.1874 210.711 85.1998C210.798 85.2122 210.88 85.2455 210.951 85.297C211.02 85.3505 211.076 85.4199 211.113 85.4994C211.15 85.5789 211.168 85.6661 211.164 85.7537C210.494 94.5842 213.691 97.7003 213.722 97.7307C213.777 97.7784 213.821 97.8377 213.851 97.9043C213.881 97.971 213.896 98.0434 213.894 98.1164V113.859C213.597 115.632 212.815 117.288 211.634 118.645C210.454 120.001 208.921 121.004 207.206 121.543C206.407 121.794 205.576 121.924 204.739 121.928ZM200.385 117.868C200.598 118.457 202.12 122.04 206.86 120.589C208.384 120.121 209.747 119.236 210.795 118.034C211.842 116.832 212.533 115.362 212.788 113.788V98.3194C212.088 97.5582 209.591 94.2594 210.007 86.4642C204.869 88.1243 199.49 88.91 194.092 88.7886C193.98 91.1028 193.605 100.431 194.417 104.166C195.269 108.104 199.755 108.581 199.948 108.591C200.079 108.604 200.201 108.665 200.289 108.763C200.377 108.86 200.426 108.987 200.425 109.119L200.385 117.868Z" fill="#484646"/>
<path d="M209.987 98.0251C210.147 97.2451 210.548 96.5351 211.134 95.9951C211.712 95.5139 212.368 95.1331 213.072 94.8684C213.442 94.6862 213.848 94.5891 214.26 94.5842C214.55 94.6139 214.832 94.6965 215.092 94.8278C215.723 95.0971 216.24 95.5781 216.554 96.1879C216.738 96.7082 216.797 97.2646 216.726 97.8119C216.688 98.413 216.572 99.0067 216.381 99.578C215.97 100.713 215.127 101.639 214.037 102.156C212.935 102.655 211.681 102.702 210.545 102.288" fill="white"/>
<path d="M212.128 103.059C211.526 103.06 210.928 102.954 210.362 102.745C210.232 102.695 210.127 102.595 210.069 102.468C210.012 102.34 210.008 102.195 210.058 102.065C210.11 101.938 210.208 101.837 210.332 101.78C210.457 101.723 210.598 101.716 210.728 101.76C211.224 101.947 211.752 102.034 212.282 102.014C212.812 101.995 213.333 101.87 213.814 101.647C214.295 101.424 214.726 101.107 215.084 100.715C215.441 100.324 215.716 99.8644 215.894 99.3648C216.066 98.8391 216.168 98.2931 216.198 97.7408C216.267 97.2809 216.225 96.8112 216.077 96.3706C215.811 95.8783 215.385 95.4915 214.869 95.2744C214.671 95.1645 214.454 95.0955 214.229 95.0714C213.897 95.0876 213.572 95.1741 213.275 95.3251C212.628 95.562 212.024 95.905 211.489 96.3401C210.966 96.8056 210.609 97.4294 210.474 98.1164C210.462 98.1839 210.436 98.2484 210.399 98.306C210.362 98.3636 210.313 98.4132 210.257 98.4519C210.2 98.4907 210.136 98.5177 210.069 98.5316C210.002 98.5454 209.932 98.5457 209.865 98.5325C209.797 98.5204 209.733 98.4949 209.675 98.4576C209.618 98.4202 209.568 98.3718 209.529 98.3152C209.491 98.2585 209.464 98.1947 209.45 98.1274C209.436 98.0602 209.436 97.9909 209.449 97.9235C209.621 97.0211 210.08 96.1985 210.758 95.5789C211.38 95.0563 212.088 94.6443 212.849 94.3609C213.29 94.1408 213.777 94.0261 214.27 94.0259C214.625 94.0614 214.969 94.1648 215.285 94.3304C216.036 94.6439 216.646 95.2216 217 95.9544C217.217 96.5517 217.29 97.1914 217.213 97.822C217.179 98.4684 217.056 99.107 216.848 99.7201C216.391 100.976 215.458 102.001 214.25 102.572C213.587 102.889 212.863 103.056 212.128 103.059Z" fill="#484646"/>
<path d="M199.898 113.331C201.804 113.03 203.575 112.156 204.973 110.824C205.555 110.339 205.998 109.707 206.255 108.993C206.512 108.279 206.574 107.51 206.434 106.764C205.588 107.609 204.567 108.257 203.443 108.664C202.318 109.071 201.119 109.226 199.928 109.119L199.898 113.331Z" fill="#484646"/>
<path d="M199.898 113.829C199.789 113.832 199.682 113.8 199.593 113.737C199.542 113.689 199.502 113.631 199.476 113.566C199.45 113.501 199.438 113.432 199.441 113.362V109.149C199.445 109.078 199.463 109.008 199.494 108.943C199.526 108.879 199.57 108.821 199.623 108.774C199.677 108.726 199.74 108.691 199.808 108.67C199.876 108.649 199.948 108.643 200.019 108.652C201.133 108.749 202.254 108.603 203.305 108.225C204.356 107.846 205.313 107.244 206.109 106.46C206.174 106.396 206.253 106.35 206.34 106.325C206.427 106.3 206.519 106.298 206.607 106.318C206.694 106.342 206.773 106.389 206.837 106.453C206.901 106.517 206.948 106.596 206.972 106.683C207.132 107.52 207.066 108.384 206.78 109.187C206.495 109.99 206 110.702 205.348 111.251C203.865 112.653 201.987 113.567 199.969 113.869L199.898 113.829ZM200.435 109.677V112.722C202.014 112.329 203.469 111.548 204.668 110.449C205.446 109.787 205.934 108.847 206.028 107.83C204.44 109.085 202.459 109.739 200.435 109.677Z" fill="#484646"/>
<path d="M199.38 101.121C198.771 101.166 198.169 100.969 197.705 100.573C196.873 99.6998 198.385 96.8679 199.806 94.6451C199.84 94.5852 199.886 94.533 199.941 94.4914C199.996 94.4499 200.059 94.4201 200.126 94.4036C200.193 94.3872 200.263 94.3846 200.331 94.396C200.399 94.4073 200.464 94.4324 200.521 94.4696C200.579 94.5069 200.629 94.5556 200.668 94.6127C200.706 94.6698 200.733 94.7342 200.746 94.8019C200.758 94.8696 200.757 94.9392 200.743 95.0065C200.728 95.0737 200.699 95.1373 200.659 95.1932C199.349 97.2232 198.324 99.4663 198.466 99.9129C198.791 100.228 199.958 100.116 200.639 99.9129C200.702 99.8928 200.77 99.8859 200.837 99.8925C200.903 99.8991 200.968 99.9191 201.027 99.9513C201.086 99.9836 201.137 100.027 201.179 100.08C201.22 100.133 201.25 100.193 201.268 100.258C201.306 100.387 201.29 100.526 201.226 100.644C201.161 100.762 201.052 100.85 200.923 100.887C200.419 101.025 199.902 101.104 199.38 101.121Z" fill="#484646"/>
<path d="M201.359 104.288C200.928 104.289 200.498 104.234 200.08 104.125C200.016 104.107 199.957 104.075 199.905 104.034C199.853 103.992 199.809 103.94 199.777 103.882C199.745 103.824 199.725 103.759 199.718 103.693C199.711 103.627 199.716 103.56 199.735 103.496C199.775 103.368 199.863 103.261 199.98 103.197C200.098 103.132 200.235 103.116 200.364 103.151C201.162 103.364 202.009 103.293 202.76 102.948C203.058 102.761 203.314 102.515 203.513 102.225C203.712 101.936 203.85 101.608 203.917 101.263C203.953 101.134 204.037 101.023 204.153 100.955C204.268 100.887 204.406 100.866 204.536 100.897C204.664 100.935 204.773 101.02 204.841 101.135C204.908 101.25 204.93 101.386 204.901 101.517C204.804 101.996 204.607 102.449 204.324 102.847C204.04 103.246 203.677 103.581 203.257 103.831C202.673 104.141 202.02 104.298 201.359 104.288Z" fill="#484646"/>
<path d="M206.576 93.7417C206.506 93.7422 206.436 93.728 206.371 93.7001C206.307 93.6721 206.249 93.631 206.201 93.5793C205.789 93.1274 205.233 92.8331 204.627 92.747C204.406 92.7381 204.184 92.776 203.978 92.8581C203.771 92.9403 203.585 93.065 203.43 93.2241C203.333 93.3177 203.204 93.3701 203.069 93.3701C202.935 93.3701 202.806 93.3177 202.709 93.2241C202.662 93.1769 202.624 93.1208 202.598 93.0589C202.572 92.9971 202.559 92.9308 202.559 92.8638C202.559 92.7968 202.572 92.7304 202.598 92.6686C202.624 92.6067 202.662 92.5506 202.709 92.5034C202.963 92.2518 203.266 92.056 203.6 91.9284C203.934 91.8008 204.291 91.7443 204.648 91.7625C205.52 91.8687 206.326 92.2826 206.921 92.9297C207.015 93.0263 207.067 93.1555 207.067 93.2901C207.067 93.4246 207.015 93.5538 206.921 93.6504C206.82 93.7185 206.698 93.7506 206.576 93.7417Z" fill="#484646"/>
<path d="M197.624 93.7925C197.52 93.791 197.419 93.7583 197.334 93.6985C197.249 93.6388 197.184 93.5548 197.147 93.4575C197.147 93.4575 196.934 92.9094 196.528 92.8079C196.122 92.7064 195.604 93.0515 195.249 93.3662C195.198 93.4102 195.14 93.4437 195.076 93.465C195.012 93.4862 194.945 93.4948 194.878 93.49C194.811 93.4853 194.746 93.4675 194.686 93.4375C194.626 93.4076 194.572 93.3661 194.528 93.3154C194.484 93.2648 194.451 93.2059 194.43 93.1423C194.408 93.0787 194.4 93.0115 194.405 92.9446C194.409 92.8777 194.427 92.8123 194.457 92.7523C194.487 92.6923 194.529 92.6388 194.579 92.5948C194.854 92.2913 195.201 92.0616 195.587 91.9269C195.974 91.7921 196.388 91.7565 196.792 91.8234C197.096 91.9201 197.373 92.0873 197.601 92.3113C197.828 92.5353 198 92.8097 198.101 93.1124C198.147 93.2389 198.141 93.3784 198.083 93.5002C198.026 93.6221 197.923 93.7162 197.797 93.762C197.741 93.7819 197.683 93.7922 197.624 93.7925Z" fill="#484646"/>
<path d="M205.338 122.07L208.555 124.273L206.515 127.714L210.991 151.242L205.277 157.23L200.841 148.603L204.039 127.166L202.445 123.908L205.338 122.07Z" fill="white"/>
<path d="M189.737 114.143C189.514 114.224 190.752 130.241 205.917 148.45C205.917 148.45 208.403 148.125 215.417 132.921C222.431 117.716 221.436 112.418 221.436 112.418C223.674 112.412 225.9 112.755 228.033 113.433C230.429 114.143 232.707 115.203 234.793 116.579C234.793 116.579 229.028 141.477 243.999 154.337L241.036 189.274L184.977 185.944L182.754 154.561C182.754 154.561 185.15 151.922 186.317 138.605C187.046 130.961 186.91 123.259 185.911 115.645L189.737 114.143Z" fill="#484646"/>
<path d="M181.389 109.804L132.801 107.86L130.458 166.446L179.046 168.389L181.389 109.804Z" fill="#484646"/>
<path d="M177.253 112.359L136.232 110.64L133.982 164.327L175.003 166.046L177.253 112.359Z" fill="white"/>
<path d="M175.01 166.517L133.994 164.802C133.925 164.802 133.856 164.788 133.793 164.76C133.731 164.732 133.674 164.691 133.628 164.64C133.533 164.534 133.482 164.396 133.486 164.254L135.739 110.57C135.745 110.432 135.804 110.302 135.905 110.207C136.005 110.112 136.139 110.06 136.277 110.063L177.263 111.819C177.402 111.827 177.533 111.888 177.627 111.991C177.722 112.093 177.773 112.228 177.771 112.367L175.517 166.061C175.516 166.129 175.501 166.197 175.474 166.26C175.446 166.323 175.405 166.379 175.355 166.426C175.253 166.493 175.132 166.525 175.01 166.517ZM134.532 163.777L174.502 165.502L176.705 112.854L136.744 111.19L134.532 163.777Z" fill="#484646"/>
<path d="M164.931 110.303L151.109 109.724C150.179 109.685 149.394 110.407 149.355 111.336L149.272 113.324C149.233 114.254 149.955 115.039 150.884 115.078L164.707 115.657C165.636 115.696 166.422 114.974 166.461 114.044L166.544 112.057C166.583 111.127 165.861 110.342 164.931 110.303Z" fill="white"/>
<path d="M164.789 116.173H164.697L150.873 115.595C150.584 115.583 150.3 115.514 150.037 115.393C149.774 115.271 149.538 115.099 149.342 114.886C149.146 114.672 148.994 114.423 148.894 114.151C148.795 113.879 148.75 113.59 148.762 113.301L148.843 111.271C148.872 110.69 149.127 110.143 149.554 109.748C149.765 109.55 150.014 109.396 150.286 109.295C150.558 109.193 150.847 109.148 151.137 109.16L164.971 109.738C165.555 109.768 166.104 110.023 166.504 110.449C166.897 110.88 167.105 111.449 167.083 112.032L167.001 114.062C166.975 114.631 166.731 115.168 166.319 115.561C165.906 115.955 165.358 116.174 164.789 116.173ZM164.738 115.158C164.889 115.165 165.041 115.142 165.183 115.09C165.326 115.038 165.456 114.958 165.568 114.855C165.679 114.752 165.769 114.628 165.832 114.49C165.895 114.352 165.93 114.203 165.936 114.052L166.027 112.022C166.035 111.716 165.926 111.418 165.723 111.19C165.514 110.967 165.226 110.835 164.921 110.824L151.086 110.246C150.781 110.23 150.482 110.336 150.254 110.54C150.03 110.753 149.896 111.043 149.878 111.352L149.797 113.382C149.796 113.676 149.907 113.96 150.106 114.177C150.306 114.393 150.58 114.526 150.873 114.549L164.738 115.158Z" fill="#484646"/>
<path d="M157.136 124.567L140.53 123.887C140.464 123.885 140.398 123.869 140.337 123.841C140.277 123.813 140.222 123.773 140.177 123.724C140.132 123.675 140.097 123.618 140.074 123.555C140.051 123.493 140.04 123.426 140.043 123.359C140.043 123.292 140.057 123.225 140.084 123.163C140.111 123.101 140.15 123.046 140.2 123C140.249 122.954 140.308 122.919 140.372 122.897C140.436 122.875 140.504 122.867 140.571 122.872L157.156 123.562C157.291 123.562 157.42 123.616 157.515 123.711C157.61 123.806 157.663 123.935 157.663 124.07C157.663 124.205 157.61 124.334 157.515 124.429C157.42 124.524 157.291 124.577 157.156 124.577L157.136 124.567Z" fill="#D1D1D1"/>
<path d="M172.503 125.217L168.605 125.055C168.538 125.052 168.473 125.036 168.412 125.008C168.352 124.98 168.297 124.941 168.252 124.892C168.207 124.843 168.172 124.785 168.149 124.723C168.126 124.66 168.115 124.593 168.118 124.527C168.118 124.459 168.131 124.392 168.158 124.33C168.185 124.268 168.225 124.213 168.275 124.167C168.324 124.121 168.383 124.086 168.447 124.064C168.511 124.042 168.578 124.034 168.646 124.04L172.543 124.202C172.61 124.205 172.675 124.22 172.736 124.248C172.797 124.276 172.851 124.316 172.896 124.365C172.942 124.414 172.977 124.471 173 124.534C173.023 124.597 173.033 124.663 173.031 124.73C173.023 124.863 172.963 124.989 172.865 125.08C172.766 125.171 172.637 125.22 172.503 125.217Z" fill="#D1D1D1"/>
<path d="M153.157 130.079L140.317 129.541C140.25 129.538 140.185 129.522 140.124 129.495C140.064 129.467 140.009 129.427 139.964 129.378C139.919 129.329 139.884 129.271 139.861 129.209C139.838 129.146 139.827 129.08 139.83 129.013C139.828 128.945 139.841 128.877 139.867 128.815C139.894 128.752 139.933 128.696 139.983 128.65C140.033 128.603 140.092 128.569 140.157 128.547C140.222 128.526 140.29 128.519 140.358 128.526L153.197 129.064C153.332 129.064 153.461 129.117 153.556 129.212C153.651 129.308 153.705 129.437 153.705 129.571C153.705 129.706 153.651 129.835 153.556 129.93C153.461 130.025 153.332 130.079 153.197 130.079H153.157Z" fill="#D1D1D1"/>
<path d="M172.259 130.88L166.697 130.647C166.564 130.637 166.44 130.577 166.35 130.479C166.26 130.381 166.21 130.252 166.21 130.119C166.213 130.052 166.229 129.985 166.257 129.924C166.286 129.863 166.326 129.808 166.376 129.762C166.427 129.717 166.485 129.682 166.549 129.66C166.613 129.637 166.68 129.628 166.748 129.632L172.3 129.865C172.435 129.865 172.564 129.919 172.659 130.014C172.754 130.109 172.807 130.238 172.807 130.373C172.807 130.508 172.754 130.637 172.659 130.732C172.564 130.827 172.435 130.88 172.3 130.88H172.259Z" fill="#D1D1D1"/>
<path d="M159.693 136.067L140.074 135.245C139.941 135.235 139.817 135.175 139.726 135.077C139.636 134.979 139.586 134.851 139.586 134.717C139.586 134.65 139.6 134.583 139.627 134.521C139.654 134.459 139.693 134.403 139.743 134.358C139.793 134.312 139.851 134.277 139.915 134.255C139.979 134.233 140.047 134.224 140.114 134.23L159.734 135.052C159.869 135.052 159.998 135.106 160.093 135.201C160.188 135.296 160.242 135.425 160.242 135.56C160.242 135.694 160.188 135.823 160.093 135.919C159.998 136.014 159.869 136.067 159.734 136.067H159.693Z" fill="#D1D1D1"/>
<path d="M172.026 136.534L168.128 136.372C168.061 136.368 167.996 136.352 167.936 136.323C167.875 136.295 167.821 136.255 167.777 136.205C167.686 136.105 167.639 135.973 167.646 135.839C167.649 135.772 167.666 135.707 167.694 135.647C167.723 135.586 167.763 135.532 167.812 135.487C167.862 135.443 167.92 135.408 167.983 135.386C168.045 135.363 168.112 135.353 168.179 135.357L172.066 135.519C172.2 135.527 172.325 135.586 172.416 135.685C172.507 135.783 172.556 135.913 172.553 136.047C172.551 136.114 172.535 136.179 172.507 136.24C172.479 136.3 172.44 136.355 172.391 136.4C172.342 136.445 172.284 136.48 172.221 136.503C172.159 136.526 172.092 136.537 172.026 136.534Z" fill="#D1D1D1"/>
<path d="M149.34 141.264L139.85 140.858C139.783 140.855 139.718 140.84 139.657 140.812C139.597 140.784 139.542 140.744 139.497 140.695C139.452 140.646 139.416 140.589 139.393 140.526C139.37 140.464 139.36 140.397 139.363 140.33C139.364 140.264 139.379 140.198 139.406 140.137C139.434 140.076 139.474 140.022 139.523 139.977C139.573 139.933 139.631 139.899 139.694 139.877C139.757 139.856 139.824 139.848 139.891 139.853L149.391 140.249C149.458 140.252 149.523 140.267 149.584 140.295C149.644 140.323 149.699 140.363 149.744 140.412C149.789 140.461 149.824 140.518 149.847 140.581C149.87 140.644 149.881 140.71 149.878 140.777C149.87 140.912 149.809 141.039 149.709 141.131C149.608 141.222 149.476 141.27 149.34 141.264Z" fill="#D1D1D1"/>
<path d="M171.792 142.157L165.316 141.883C165.25 141.881 165.184 141.865 165.124 141.837C165.063 141.809 165.009 141.769 164.963 141.72C164.918 141.671 164.883 141.614 164.86 141.551C164.837 141.489 164.827 141.422 164.829 141.355C164.83 141.289 164.845 141.223 164.873 141.162C164.9 141.102 164.94 141.047 164.99 141.002C165.039 140.958 165.097 140.924 165.161 140.902C165.224 140.881 165.291 140.873 165.357 140.878L171.833 141.142C171.967 141.142 172.096 141.196 172.192 141.291C172.287 141.386 172.34 141.515 172.34 141.65C172.34 141.784 172.287 141.913 172.192 142.009C172.096 142.104 171.967 142.157 171.833 142.157H171.792Z" fill="#D1D1D1"/>
<path d="M155.278 147.232L139.606 146.573C139.539 146.571 139.473 146.557 139.412 146.529C139.351 146.502 139.296 146.462 139.25 146.413C139.205 146.363 139.169 146.305 139.147 146.242C139.124 146.179 139.115 146.112 139.119 146.045C139.119 145.977 139.133 145.91 139.16 145.848C139.187 145.787 139.226 145.731 139.276 145.685C139.325 145.639 139.384 145.604 139.448 145.582C139.512 145.56 139.58 145.552 139.647 145.558L155.319 146.217C155.385 146.22 155.451 146.236 155.511 146.264C155.572 146.292 155.626 146.331 155.672 146.38C155.717 146.429 155.752 146.487 155.775 146.549C155.798 146.612 155.808 146.678 155.806 146.745C155.798 146.879 155.738 147.004 155.64 147.095C155.542 147.186 155.412 147.235 155.278 147.232Z" fill="#D1D1D1"/>
<path d="M171.549 147.862L167.661 147.699C167.594 147.697 167.529 147.681 167.468 147.653C167.408 147.625 167.353 147.585 167.308 147.536C167.263 147.487 167.228 147.43 167.205 147.367C167.182 147.305 167.171 147.238 167.174 147.171C167.174 147.104 167.188 147.037 167.215 146.975C167.241 146.913 167.281 146.857 167.331 146.812C167.38 146.766 167.439 146.731 167.503 146.709C167.567 146.687 167.634 146.678 167.702 146.684L171.589 146.847C171.724 146.847 171.853 146.9 171.948 146.995C172.043 147.09 172.097 147.219 172.097 147.354C172.097 147.489 172.043 147.618 171.948 147.713C171.853 147.808 171.724 147.862 171.589 147.862H171.549Z" fill="#D1D1D1"/>
<path d="M151.502 152.693L139.322 152.185C139.256 152.183 139.19 152.167 139.13 152.139C139.069 152.111 139.015 152.072 138.969 152.023C138.924 151.974 138.889 151.916 138.866 151.853C138.843 151.791 138.832 151.724 138.835 151.658C138.835 151.59 138.849 151.523 138.876 151.461C138.903 151.399 138.942 151.344 138.992 151.298C139.042 151.252 139.1 151.217 139.164 151.195C139.228 151.173 139.296 151.165 139.363 151.17L151.543 151.678C151.678 151.678 151.807 151.731 151.902 151.827C151.997 151.922 152.05 152.051 152.05 152.185C152.05 152.32 151.997 152.449 151.902 152.544C151.807 152.639 151.678 152.693 151.543 152.693H151.502Z" fill="#D1D1D1"/>
<path d="M171.315 153.525L164.839 153.251C164.705 153.251 164.576 153.198 164.481 153.103C164.385 153.007 164.332 152.878 164.332 152.744C164.332 152.609 164.385 152.48 164.481 152.385C164.576 152.29 164.705 152.236 164.839 152.236L171.305 152.51C171.44 152.51 171.569 152.564 171.664 152.659C171.759 152.754 171.812 152.883 171.812 153.018C171.812 153.152 171.759 153.281 171.664 153.377C171.569 153.472 171.44 153.525 171.305 153.525H171.315Z" fill="#D1D1D1"/>
<path d="M167.144 162.153C168.567 162.153 169.722 160.999 169.722 159.575C169.722 158.151 168.567 156.997 167.144 156.997C165.72 156.997 164.565 158.151 164.565 159.575C164.565 160.999 165.72 162.153 167.144 162.153Z" fill="#D1D1D1"/>
<path d="M161.023 159.412L158.08 159.29C158.013 159.288 157.947 159.272 157.887 159.244C157.826 159.216 157.772 159.177 157.727 159.128C157.681 159.079 157.646 159.021 157.623 158.958C157.6 158.896 157.59 158.829 157.592 158.763C157.592 158.695 157.606 158.628 157.633 158.566C157.66 158.504 157.699 158.449 157.749 158.403C157.799 158.357 157.857 158.322 157.921 158.3C157.985 158.278 158.053 158.27 158.12 158.275L161.064 158.397C161.198 158.397 161.327 158.451 161.423 158.546C161.518 158.641 161.571 158.77 161.571 158.905C161.571 159.039 161.518 159.168 161.423 159.264C161.327 159.359 161.198 159.412 161.064 159.412H161.023Z" fill="#D1D1D1"/>
<path d="M243.999 154.337C243.999 154.337 246.669 178.362 242.852 181.62C239.036 184.879 188.56 178.504 188.56 178.504C188.56 178.504 175.547 179.875 171.985 177.804C168.422 175.733 151.421 171.836 154.669 170.608C157.917 169.379 169.123 170.151 172.147 170.273C172.147 170.273 164.555 166.71 167.448 166.406C170.341 166.101 180.379 169.857 183.251 169.978C186.124 170.1 224.43 169.369 224.43 169.369L225.861 159.646" fill="white"/>
<path d="M235.25 183.031C221.04 183.031 192.793 179.53 188.56 178.971C187.474 179.083 175.314 180.27 171.731 178.2C169.052 177.004 166.286 176.01 163.459 175.226C155.958 172.871 153.776 172.019 153.745 170.943C153.745 170.669 153.857 170.293 154.486 170.06C157.217 169.045 165.124 169.339 169.711 169.562C166.128 167.644 166.26 166.872 166.311 166.588C166.362 166.304 166.758 165.898 167.428 165.827C169.153 165.644 172.98 166.741 176.695 167.796C178.853 168.509 181.066 169.042 183.312 169.39C185.972 169.501 219.72 168.872 224.004 168.791L225.374 159.514C225.367 159.434 225.378 159.354 225.407 159.28C225.435 159.205 225.48 159.138 225.538 159.083C225.596 159.029 225.666 158.988 225.742 158.964C225.819 158.94 225.899 158.934 225.978 158.946C226.057 158.958 226.132 158.987 226.198 159.032C226.264 159.077 226.319 159.137 226.358 159.206C226.398 159.276 226.421 159.353 226.426 159.433C226.432 159.512 226.419 159.592 226.389 159.666L224.968 169.41C224.951 169.533 224.89 169.646 224.797 169.728C224.704 169.81 224.585 169.855 224.461 169.857C222.897 169.857 186.114 170.598 183.252 170.476C180.923 170.118 178.628 169.568 176.39 168.831C172.949 167.816 169.031 166.73 167.529 166.893C169.043 168.039 170.689 169 172.432 169.755C172.541 169.807 172.629 169.895 172.683 170.003C172.736 170.112 172.751 170.236 172.726 170.354C172.698 170.474 172.628 170.58 172.53 170.654C172.432 170.728 172.311 170.766 172.188 170.76L170.706 170.689C166.839 170.486 157.846 170.029 155.004 171.024C156.019 171.805 160.678 173.257 163.824 174.252C166.729 175.041 169.566 176.059 172.31 177.297C175.68 179.255 188.438 177.936 188.55 177.916H188.672C208.87 180.473 239.889 183.447 242.568 181.164C245.522 178.636 244.263 160.945 243.522 154.337C243.538 154.221 243.591 154.114 243.675 154.031C243.758 153.949 243.866 153.897 243.983 153.883C244.099 153.869 244.216 153.894 244.317 153.954C244.417 154.014 244.495 154.106 244.537 154.215C244.811 156.702 247.125 178.575 243.218 181.966C242.325 182.757 239.371 183.031 235.25 183.031Z" fill="#484646"/>
<path d="M234.793 116.62C234.793 116.62 249.013 138.493 248.313 156.367L225.344 162.691L220.908 151.83C220.908 151.83 218.36 127.643 234.793 116.62Z" fill="#FF931E"/>
<path d="M125.163 142.929C125.813 138.158 126.493 133.022 129.599 129.135C130.35 128.201 132.938 125.318 134.268 126.445C135.597 127.572 133.831 128.901 133.06 129.49C131.584 130.673 130.374 132.153 129.507 133.834C130.756 132.624 132.135 131.555 133.618 130.647C133.982 130.376 134.396 130.179 134.836 130.069C135.058 130.017 135.289 130.029 135.505 130.103C135.72 130.176 135.91 130.309 136.054 130.485C136.154 130.667 136.207 130.871 136.207 131.079C136.207 131.286 136.154 131.49 136.054 131.672C135.857 132.049 135.6 132.392 135.293 132.687C133.884 134.166 132.657 135.809 131.639 137.58C132.596 136.256 133.919 135.24 135.445 134.656C135.983 134.453 136.683 134.362 137.018 134.819C137.353 135.276 137.018 135.986 136.633 136.473L133.517 140.533C133.953 140.046 135.445 139.244 136.125 139.731C137.008 140.371 135.587 141.325 135.11 141.761C134.211 142.772 133.462 143.907 132.887 145.131C132.518 145.785 132.105 146.412 131.649 147.009C128.807 150.754 124.676 146.501 125.163 142.929Z" fill="white"/>
<path d="M129.122 148.978C128.678 148.974 128.24 148.881 127.833 148.704C126.767 148.173 125.889 147.328 125.32 146.282C124.75 145.237 124.514 144.041 124.645 142.858L125.163 142.929L124.645 142.858L125.163 142.929L124.656 142.776C125.285 138.097 126.006 132.789 129.183 128.81C129.578 128.313 131.639 125.836 133.354 125.674C133.576 125.645 133.802 125.663 134.017 125.726C134.231 125.789 134.431 125.895 134.603 126.039C134.811 126.195 134.981 126.397 135.099 126.629C135.217 126.862 135.28 127.118 135.283 127.379C135.283 128.394 134.268 129.267 133.517 129.825L133.385 129.927C133.002 130.246 132.636 130.585 132.288 130.942L133.354 130.231C133.774 129.923 134.25 129.699 134.755 129.571C135.061 129.484 135.387 129.491 135.69 129.591C135.992 129.691 136.258 129.879 136.453 130.132C136.647 130.384 136.761 130.689 136.781 131.007C136.8 131.325 136.724 131.642 136.562 131.916C136.35 132.295 136.08 132.638 135.76 132.931C135.262 133.449 134.806 133.946 134.359 134.524C134.674 134.372 134.978 134.23 135.303 134.108C135.652 133.913 136.056 133.84 136.452 133.901C136.847 133.962 137.211 134.153 137.485 134.443C137.79 134.859 137.962 135.59 137.089 136.737L135.344 139.011C135.735 138.94 136.139 139.024 136.47 139.244C136.614 139.34 136.734 139.467 136.82 139.617C136.907 139.767 136.957 139.934 136.968 140.107C136.968 140.828 136.277 141.437 135.75 141.883L135.496 142.117C134.804 142.844 134.232 143.676 133.801 144.583C133.659 144.847 133.517 145.111 133.364 145.365C132.981 146.035 132.553 146.679 132.085 147.293C131.759 147.788 131.321 148.198 130.806 148.491C130.291 148.784 129.714 148.951 129.122 148.978ZM133.547 126.709H133.456C132.522 126.8 131.009 128.201 130.005 129.46C127.01 133.215 126.34 138.148 125.691 142.919V143C125.593 143.955 125.784 144.918 126.241 145.763C126.697 146.608 127.396 147.297 128.249 147.74C128.801 147.962 129.416 147.975 129.977 147.775C130.538 147.575 131.007 147.176 131.294 146.654C131.735 146.078 132.138 145.474 132.502 144.847L132.928 144.076C133.406 143.073 134.044 142.154 134.816 141.355C134.911 141.26 135.013 141.172 135.12 141.092C135.323 140.909 135.963 140.361 135.963 140.148C135.567 139.853 134.369 140.401 133.933 140.828C133.836 140.921 133.707 140.974 133.572 140.974C133.438 140.974 133.309 140.921 133.212 140.828C133.109 140.741 133.043 140.617 133.028 140.483C133.013 140.349 133.05 140.215 133.131 140.107L136.247 136.047C136.602 135.58 136.754 135.184 136.633 135.032C136.511 134.88 136.034 134.91 135.668 135.032C134.236 135.579 132.995 136.531 132.096 137.772C132.016 137.881 131.898 137.955 131.766 137.979C131.634 138.004 131.498 137.977 131.385 137.904C131.271 137.833 131.189 137.72 131.157 137.589C131.124 137.458 131.145 137.32 131.213 137.204C132.253 135.402 133.504 133.729 134.938 132.22C135.201 131.974 135.426 131.69 135.607 131.378C135.665 131.276 135.696 131.16 135.696 131.043C135.696 130.926 135.665 130.81 135.607 130.708C135.522 130.615 135.412 130.547 135.29 130.513C135.168 130.479 135.039 130.48 134.917 130.515C134.548 130.615 134.203 130.787 133.902 131.023C132.435 131.912 131.073 132.964 129.842 134.159C129.76 134.262 129.641 134.33 129.51 134.348C129.379 134.366 129.246 134.334 129.138 134.257C129.031 134.181 128.956 134.066 128.93 133.936C128.905 133.807 128.93 133.672 129 133.56C129.897 131.813 131.153 130.274 132.684 129.043L132.826 128.932C133.303 128.556 134.186 127.846 134.197 127.288C134.197 127.227 134.197 127.034 133.892 126.77C133.786 126.714 133.666 126.692 133.547 126.709Z" fill="#484646"/>
<path d="M241.13 186.631L183.65 184.222L183.461 188.735L240.941 191.144L241.13 186.631Z" fill="white"/>
<path d="M240.964 191.649L183.475 189.243C183.339 189.233 183.212 189.171 183.12 189.071C183.07 189.022 183.032 188.963 183.007 188.898C182.983 188.834 182.972 188.764 182.978 188.695L183.17 184.178C183.178 184.042 183.239 183.914 183.339 183.821C183.439 183.728 183.572 183.678 183.708 183.681L241.208 186.086C241.348 186.094 241.479 186.156 241.573 186.259C241.621 186.309 241.659 186.368 241.683 186.432C241.708 186.497 241.719 186.566 241.716 186.635L241.523 191.151C241.519 191.221 241.501 191.289 241.471 191.351C241.441 191.414 241.399 191.47 241.347 191.516C241.295 191.562 241.234 191.598 241.169 191.62C241.103 191.643 241.034 191.653 240.964 191.649ZM184.023 188.218L240.457 190.583L240.609 187.112L184.175 184.787L184.023 188.218Z" fill="#484646"/>
<path d="M218.252 185.955L204.318 185.371L204.071 191.263L218.005 191.847L218.252 185.955Z" fill="white"/>
<path d="M218.025 192.359L204.089 191.781C203.95 191.773 203.819 191.711 203.724 191.608C203.632 191.505 203.581 191.371 203.582 191.233L203.836 185.335C203.846 185.2 203.907 185.073 204.007 184.981C204.107 184.889 204.238 184.838 204.374 184.838L218.31 185.417C218.449 185.424 218.58 185.486 218.675 185.589C218.723 185.639 218.76 185.698 218.785 185.762C218.809 185.827 218.82 185.896 218.817 185.965L218.574 191.862C218.566 192 218.504 192.13 218.401 192.223C218.299 192.316 218.164 192.365 218.025 192.359ZM204.668 190.755L217.559 191.293L217.762 186.442L204.871 185.904L204.668 190.755Z" fill="#484646"/>
<path d="M197.563 97.4972H192.691C192.078 97.4946 191.491 97.2499 191.058 96.8165C190.624 96.383 190.38 95.796 190.377 95.183V92.4222C190.38 91.8093 190.624 91.2222 191.058 90.7888C191.491 90.3554 192.078 90.1107 192.691 90.108H197.563C198.176 90.1107 198.763 90.3554 199.196 90.7888C199.63 91.2222 199.875 91.8093 199.877 92.4222V95.1018C199.887 95.4121 199.834 95.7212 199.722 96.0108C199.61 96.3004 199.441 96.5646 199.226 96.7879C199.01 97.0112 198.752 97.189 198.466 97.3108C198.181 97.4326 197.873 97.496 197.563 97.4972ZM192.691 91.2042C192.36 91.2036 192.041 91.3293 191.8 91.5556C191.558 91.782 191.413 92.0919 191.392 92.4222V95.1018C191.381 95.2792 191.406 95.4569 191.466 95.624C191.527 95.7911 191.621 95.9441 191.742 96.0735C191.864 96.2028 192.011 96.3059 192.174 96.3762C192.338 96.4465 192.513 96.4826 192.691 96.4822H197.563C197.907 96.4796 198.236 96.3418 198.479 96.0988C198.722 95.8557 198.86 95.5268 198.862 95.183V92.4222C198.849 92.0856 198.707 91.7669 198.465 91.5325C198.223 91.2981 197.9 91.166 197.563 91.1636L192.691 91.2042Z" fill="#484646"/>
<path d="M207.896 97.4972H203.024C202.411 97.4946 201.824 97.2499 201.39 96.8165C200.957 96.383 200.712 95.796 200.71 95.183V92.4222C200.712 91.8093 200.957 91.2222 201.39 90.7888C201.824 90.3554 202.411 90.1107 203.024 90.108H207.896C208.509 90.1107 209.096 90.3554 209.529 90.7888C209.963 91.2222 210.207 91.8093 210.21 92.4222V95.1018C210.219 95.4121 210.167 95.7212 210.055 96.0108C209.943 96.3004 209.774 96.5646 209.558 96.7879C209.343 97.0112 209.084 97.189 208.799 97.3108C208.513 97.4326 208.206 97.496 207.896 97.4972ZM203.024 91.2042C202.694 91.206 202.376 91.3325 202.135 91.5583C201.894 91.7842 201.748 92.0928 201.725 92.4222V95.1018C201.715 95.2788 201.741 95.4559 201.802 95.6224C201.863 95.7888 201.957 95.9412 202.079 96.0703C202.2 96.1994 202.346 96.3024 202.509 96.3732C202.671 96.444 202.847 96.4811 203.024 96.4822H207.896C208.24 96.4822 208.571 96.3453 208.814 96.1017C209.058 95.8581 209.195 95.5276 209.195 95.183V92.4222C209.195 92.0777 209.058 91.7472 208.814 91.5036C208.571 91.2599 208.24 91.123 207.896 91.123L203.024 91.2042Z" fill="#484646"/>
<path d="M201.217 92.1888H199.725C199.59 92.1888 199.461 92.1354 199.366 92.0402C199.271 91.945 199.218 91.8159 199.218 91.6813C199.218 91.5467 199.271 91.4176 199.366 91.3225C199.461 91.2273 199.59 91.1738 199.725 91.1738H201.217C201.352 91.1738 201.481 91.2273 201.576 91.3225C201.671 91.4176 201.725 91.5467 201.725 91.6813C201.725 91.8159 201.671 91.945 201.576 92.0402C201.481 92.1354 201.352 92.1888 201.217 92.1888Z" fill="#484646"/>
<path d="M133.161 173.277C133.161 173.277 132.664 179.601 125.427 181.133C127.288 181.365 129.044 182.128 130.484 183.33C131.923 184.532 132.987 186.123 133.547 187.913C133.547 187.913 134.359 180.677 140.358 180.595C140.358 180.595 133.354 179.286 133.161 173.277Z" fill="#D1D1D1"/>
<path d="M172.188 90.6359C172.043 91.6876 171.563 92.6645 170.819 93.4215C170.075 94.1786 169.106 94.6753 168.057 94.838C169.054 94.9673 169.993 95.3832 170.759 96.0354C171.524 96.6877 172.084 97.5481 172.371 98.5123C172.371 98.5123 172.807 94.6451 176.015 94.6045C176.015 94.5538 172.269 93.8534 172.188 90.6359Z" fill="#D1D1D1"/>
<path d="M124.483 97.0202C124.483 97.0202 121.824 102.623 114.668 101.517C116.294 102.374 117.638 103.682 118.539 105.284C119.439 106.887 119.857 108.716 119.743 110.55C119.743 110.55 123.011 104.206 128.533 106.226C128.543 106.226 122.565 102.572 124.483 97.0202Z" fill="#D1D1D1"/>
<path d="M314.176 179.773H314.126C314.059 179.767 313.994 179.747 313.935 179.716C313.876 179.684 313.823 179.641 313.781 179.589C313.738 179.537 313.707 179.478 313.687 179.413C313.668 179.349 313.662 179.282 313.669 179.215L315.009 166.253L302.534 172.15C302.474 172.185 302.407 172.207 302.337 172.214C302.268 172.221 302.198 172.214 302.132 172.194C302.065 172.173 302.004 172.138 301.951 172.093C301.898 172.047 301.856 171.991 301.826 171.928C301.795 171.865 301.779 171.797 301.776 171.727C301.774 171.658 301.786 171.588 301.811 171.523C301.837 171.458 301.875 171.4 301.925 171.35C301.974 171.301 302.033 171.262 302.098 171.237L315.394 164.944C315.472 164.899 315.559 164.876 315.648 164.876C315.737 164.876 315.825 164.899 315.902 164.944C315.977 164.995 316.036 165.066 316.073 165.148C316.111 165.23 316.125 165.321 316.115 165.411L314.684 179.266C314.681 179.399 314.627 179.527 314.532 179.622C314.438 179.716 314.31 179.771 314.176 179.773Z" fill="#D1D1D1"/>
<path d="M293.389 266.139C293.255 266.139 293.126 266.086 293.03 265.991C292.935 265.896 292.882 265.767 292.882 265.632V264.109C292.882 263.975 292.935 263.846 293.03 263.751C293.126 263.655 293.255 263.602 293.389 263.602C293.524 263.602 293.653 263.655 293.748 263.751C293.843 263.846 293.897 263.975 293.897 264.109V265.632C293.894 265.766 293.84 265.893 293.745 265.988C293.651 266.083 293.523 266.137 293.389 266.139Z" fill="#D1D1D1"/>
<path d="M293.389 261.521C293.255 261.521 293.126 261.468 293.03 261.373C292.935 261.277 292.882 261.148 292.882 261.014V257.969C292.882 257.834 292.935 257.705 293.03 257.61C293.126 257.515 293.255 257.461 293.389 257.461C293.524 257.461 293.653 257.515 293.748 257.61C293.843 257.705 293.897 257.834 293.897 257.969V261.014C293.897 261.148 293.843 261.277 293.748 261.373C293.653 261.468 293.524 261.521 293.389 261.521ZM293.389 255.35C293.255 255.35 293.126 255.297 293.03 255.201C292.935 255.106 292.882 254.977 292.882 254.843V251.777C292.882 251.643 292.935 251.514 293.03 251.418C293.126 251.323 293.255 251.27 293.389 251.27C293.523 251.272 293.651 251.327 293.745 251.421C293.84 251.516 293.894 251.643 293.897 251.777V254.822C293.898 254.89 293.886 254.958 293.861 255.021C293.836 255.084 293.799 255.142 293.752 255.191C293.705 255.24 293.649 255.28 293.587 255.307C293.524 255.334 293.457 255.349 293.389 255.35ZM293.389 249.169C293.255 249.169 293.126 249.115 293.03 249.02C292.935 248.925 292.882 248.796 292.882 248.661V245.616C292.882 245.482 292.935 245.352 293.03 245.257C293.126 245.162 293.255 245.109 293.389 245.109C293.524 245.109 293.653 245.162 293.748 245.257C293.843 245.352 293.897 245.482 293.897 245.616V248.661C293.897 248.728 293.884 248.794 293.858 248.855C293.833 248.917 293.795 248.973 293.748 249.02C293.701 249.067 293.645 249.105 293.583 249.13C293.522 249.156 293.456 249.169 293.389 249.169ZM293.389 242.997C293.255 242.997 293.126 242.944 293.03 242.849C292.935 242.754 292.882 242.625 292.882 242.49V239.445C292.882 239.31 292.935 239.181 293.03 239.086C293.126 238.991 293.255 238.937 293.389 238.937C293.523 238.94 293.651 238.994 293.745 239.089C293.84 239.184 293.894 239.311 293.897 239.445V242.49C293.894 242.624 293.84 242.751 293.745 242.846C293.651 242.941 293.523 242.995 293.389 242.997ZM293.389 236.816C293.255 236.816 293.126 236.763 293.03 236.667C292.935 236.572 292.882 236.443 292.882 236.309V233.264C292.882 233.129 292.935 233 293.03 232.905C293.126 232.81 293.255 232.756 293.389 232.756C293.524 232.756 293.653 232.81 293.748 232.905C293.843 233 293.897 233.129 293.897 233.264V236.309C293.897 236.375 293.884 236.441 293.858 236.503C293.833 236.564 293.795 236.62 293.748 236.667C293.701 236.715 293.645 236.752 293.583 236.777C293.522 236.803 293.456 236.816 293.389 236.816ZM293.389 230.635C293.255 230.635 293.126 230.581 293.03 230.486C292.935 230.391 292.882 230.262 292.882 230.127V227.082C292.882 226.948 292.935 226.819 293.03 226.723C293.126 226.628 293.255 226.575 293.389 226.575C293.524 226.575 293.653 226.628 293.748 226.723C293.843 226.819 293.897 226.948 293.897 227.082V230.127C293.897 230.262 293.843 230.391 293.748 230.486C293.653 230.581 293.524 230.635 293.389 230.635ZM293.389 224.464C293.255 224.464 293.126 224.41 293.03 224.315C292.935 224.22 292.882 224.091 292.882 223.956V220.86C292.882 220.726 292.935 220.597 293.03 220.501C293.126 220.406 293.255 220.353 293.389 220.353C293.523 220.355 293.651 220.41 293.745 220.504C293.84 220.599 293.894 220.727 293.897 220.86V223.956C293.894 224.09 293.84 224.217 293.745 224.312C293.651 224.407 293.523 224.461 293.389 224.464ZM293.389 218.282C293.255 218.282 293.126 218.229 293.03 218.134C292.935 218.038 292.882 217.909 292.882 217.775V214.73C292.882 214.595 292.935 214.466 293.03 214.371C293.126 214.276 293.255 214.222 293.389 214.222C293.524 214.222 293.653 214.276 293.748 214.371C293.843 214.466 293.897 214.595 293.897 214.73V217.775C293.897 217.841 293.884 217.907 293.858 217.969C293.833 218.031 293.795 218.086 293.748 218.134C293.701 218.181 293.645 218.218 293.583 218.244C293.522 218.269 293.456 218.282 293.389 218.282ZM293.389 212.111C293.255 212.111 293.126 212.058 293.03 211.962C292.935 211.867 292.882 211.738 292.882 211.604V208.559C292.882 208.424 292.935 208.295 293.03 208.2C293.126 208.105 293.255 208.051 293.389 208.051C293.523 208.054 293.651 208.108 293.745 208.203C293.84 208.297 293.894 208.425 293.897 208.559V211.604C293.894 211.737 293.84 211.865 293.745 211.96C293.651 212.054 293.523 212.108 293.389 212.111Z" fill="#D1D1D1"/>
<path d="M293.389 205.93C293.255 205.93 293.126 205.876 293.03 205.781C292.935 205.686 292.882 205.557 292.882 205.422V203.9C292.882 203.765 292.935 203.636 293.03 203.541C293.126 203.446 293.255 203.392 293.389 203.392C293.524 203.392 293.653 203.446 293.748 203.541C293.843 203.636 293.897 203.765 293.897 203.9V205.422C293.897 205.557 293.843 205.686 293.748 205.781C293.653 205.876 293.524 205.93 293.389 205.93Z" fill="#D1D1D1"/>
<path d="M145.433 264.637C145.298 264.637 145.169 264.584 145.074 264.489C144.979 264.394 144.925 264.264 144.925 264.13V261.085C144.925 260.95 144.979 260.821 145.074 260.726C145.169 260.631 145.298 260.577 145.433 260.577C145.567 260.577 145.696 260.631 145.792 260.726C145.887 260.821 145.94 260.95 145.94 261.085V264.13C145.94 264.264 145.887 264.394 145.792 264.489C145.696 264.584 145.567 264.637 145.433 264.637ZM145.433 258.547C145.298 258.547 145.169 258.494 145.074 258.399C144.979 258.304 144.925 258.174 144.925 258.04V254.995C144.925 254.86 144.979 254.731 145.074 254.636C145.169 254.541 145.298 254.487 145.433 254.487C145.567 254.487 145.696 254.541 145.792 254.636C145.887 254.731 145.94 254.86 145.94 254.995V258.04C145.94 258.174 145.887 258.304 145.792 258.399C145.696 258.494 145.567 258.547 145.433 258.547ZM145.433 252.457C145.298 252.457 145.169 252.404 145.074 252.309C144.979 252.214 144.925 252.084 144.925 251.95V248.905C144.925 248.77 144.979 248.641 145.074 248.546C145.169 248.451 145.298 248.397 145.433 248.397C145.567 248.397 145.696 248.451 145.792 248.546C145.887 248.641 145.94 248.77 145.94 248.905V251.95C145.94 252.084 145.887 252.214 145.792 252.309C145.696 252.404 145.567 252.457 145.433 252.457ZM145.433 246.367C145.298 246.367 145.169 246.314 145.074 246.219C144.979 246.124 144.925 245.994 144.925 245.86V242.815C144.925 242.68 144.979 242.551 145.074 242.456C145.169 242.361 145.298 242.307 145.433 242.307C145.567 242.307 145.696 242.361 145.792 242.456C145.887 242.551 145.94 242.68 145.94 242.815V245.86C145.94 245.994 145.887 246.124 145.792 246.219C145.696 246.314 145.567 246.367 145.433 246.367ZM145.433 240.277C145.298 240.277 145.169 240.224 145.074 240.129C144.979 240.034 144.925 239.904 144.925 239.77V236.725C144.925 236.59 144.979 236.461 145.074 236.366C145.169 236.271 145.298 236.217 145.433 236.217C145.567 236.217 145.696 236.271 145.792 236.366C145.887 236.461 145.94 236.59 145.94 236.725V239.77C145.94 239.904 145.887 240.034 145.792 240.129C145.696 240.224 145.567 240.277 145.433 240.277ZM145.433 234.187C145.298 234.187 145.169 234.134 145.074 234.039C144.979 233.944 144.925 233.814 144.925 233.68V230.635C144.925 230.5 144.979 230.371 145.074 230.276C145.169 230.181 145.298 230.127 145.433 230.127C145.567 230.127 145.696 230.181 145.792 230.276C145.887 230.371 145.94 230.5 145.94 230.635V233.68C145.94 233.814 145.887 233.944 145.792 234.039C145.696 234.134 145.567 234.187 145.433 234.187ZM145.433 228.097C145.298 228.097 145.169 228.044 145.074 227.949C144.979 227.854 144.925 227.724 144.925 227.59V224.545C144.925 224.41 144.979 224.281 145.074 224.186C145.169 224.091 145.298 224.037 145.433 224.037C145.567 224.037 145.696 224.091 145.792 224.186C145.887 224.281 145.94 224.41 145.94 224.545V227.59C145.94 227.724 145.887 227.854 145.792 227.949C145.696 228.044 145.567 228.097 145.433 228.097ZM145.433 222.007C145.369 222.013 145.305 222.005 145.244 221.985C145.183 221.965 145.127 221.932 145.08 221.889C145.032 221.846 144.994 221.794 144.967 221.736C144.941 221.678 144.926 221.615 144.925 221.551V221.459C144.925 221.325 144.979 221.196 145.074 221.1C145.169 221.005 145.298 220.952 145.433 220.952C145.567 220.952 145.696 221.005 145.792 221.1C145.887 221.196 145.94 221.325 145.94 221.459C145.93 221.59 145.874 221.712 145.78 221.804C145.687 221.895 145.563 221.95 145.433 221.957V222.007Z" fill="#D1D1D1"/>
</svg>
