<svg width="150" height="150" viewBox="0 0 150 150" fill="none" xmlns="http://www.w3.org/2000/svg">
<path d="M92.2467 126.563L89.4652 125.389L87.5571 111.411H62.1471L60.0788 125.332L57.5903 126.58C57.4713 126.639 57.3758 126.737 57.3194 126.858C57.2629 126.979 57.2489 127.116 57.2795 127.246C57.3101 127.375 57.3835 127.491 57.4879 127.574C57.5923 127.657 57.7215 127.702 57.8546 127.702H92.0174C92.1539 127.702 92.2861 127.655 92.3917 127.568C92.4973 127.481 92.5697 127.361 92.5967 127.227C92.6237 127.093 92.6036 126.953 92.5398 126.832C92.476 126.712 92.3724 126.616 92.2467 126.563Z" fill="#E6E6E6"/>
<path d="M137.402 113.271H12.5816C11.9267 113.269 11.2992 113.008 10.8366 112.543C10.374 112.078 10.1143 111.448 10.1143 110.792V93.1472H139.87V110.792C139.87 111.448 139.61 112.078 139.147 112.543C138.685 113.008 138.057 113.269 137.402 113.271Z" fill="#CCCCCC"/>
<path d="M140 101.486H10V25.9884C10.0009 25.1961 10.3153 24.4365 10.8742 23.8763C11.4331 23.316 12.1908 23.0009 12.9812 23H137.019C137.809 23.0009 138.567 23.316 139.126 23.8763C139.685 24.4365 139.999 25.1961 140 25.9884V101.486Z" fill="#3F3D56"/>
<path d="M132.236 96.0068H17.7646C17.1552 96.0061 16.5711 95.7632 16.1402 95.3313C15.7094 94.8994 15.467 94.3138 15.4663 93.7029V30.7835C15.467 30.1727 15.7093 29.587 16.1402 29.1551C16.5711 28.7232 17.1552 28.4802 17.7646 28.4795H132.236C132.845 28.4802 133.429 28.7232 133.86 29.1551C134.291 29.587 134.533 30.1727 134.534 30.7835V93.7029C134.533 94.3138 134.291 94.8994 133.86 95.3313C133.429 95.7632 132.845 96.0061 132.236 96.0068Z" fill="white"/>
<path d="M107.104 127.848H42.7805C42.7147 127.849 42.6502 127.829 42.5971 127.789C42.544 127.75 42.5054 127.694 42.4872 127.631C42.4758 127.588 42.4745 127.542 42.4833 127.499C42.4921 127.455 42.5109 127.414 42.5381 127.378C42.5653 127.343 42.6002 127.314 42.6402 127.294C42.6802 127.275 42.7242 127.264 42.7688 127.264H107.08C107.149 127.262 107.217 127.283 107.273 127.324C107.329 127.366 107.37 127.425 107.388 127.492C107.397 127.535 107.397 127.579 107.387 127.622C107.377 127.664 107.358 127.704 107.331 127.738C107.303 127.772 107.269 127.8 107.229 127.819C107.19 127.838 107.147 127.848 107.104 127.848Z" fill="#CCCCCC"/>
<path d="M119.26 84.806H95.1424C95.0823 84.8111 95.0227 84.7923 94.9763 84.7538C94.9298 84.7153 94.9003 84.6601 94.894 84.6V65.098C94.9003 65.0379 94.9298 64.9827 94.9763 64.9442C95.0227 64.9056 95.0823 64.8869 95.1424 64.892H119.26C119.32 64.8869 119.38 64.9056 119.426 64.9442C119.473 64.9827 119.502 65.0379 119.509 65.098V84.6C119.502 84.6601 119.473 84.7153 119.426 84.7538C119.38 84.7923 119.32 84.8111 119.26 84.806Z" fill="#F0F0F0"/>
<path d="M116.639 67.0497H97.7645C97.6986 67.0498 97.6355 67.076 97.589 67.1227C97.5424 67.1694 97.5162 67.2327 97.5161 67.2987V81.96C97.5162 82.0259 97.5424 82.0892 97.589 82.1359C97.6355 82.1826 97.6986 82.2088 97.7645 82.2089H116.639C116.705 82.2088 116.768 82.1826 116.815 82.1359C116.861 82.0892 116.888 82.0259 116.888 81.96V67.2987C116.888 67.2327 116.861 67.1694 116.815 67.1227C116.768 67.076 116.705 67.0498 116.639 67.0497Z" fill="white"/>
<path d="M106.736 76.9844C108.061 76.9844 109.136 75.9073 109.136 74.5787C109.136 73.25 108.061 72.1729 106.736 72.1729C105.41 72.1729 104.336 73.25 104.336 74.5787C104.336 75.9073 105.41 76.9844 106.736 76.9844Z" fill="#FFB8B8"/>
<path d="M110.247 82.2088H104.926L105.1 78.2874L105.141 78.2438L105.738 77.6113H107.638L108.343 78.2952L108.399 78.3504L109.899 79.7912L110.247 82.2088Z" fill="#03DAC5"/>
<path d="M105.841 82.2089H101.815C101.805 81.3237 101.8 80.7937 101.8 80.7937L102.033 80.6515L102.034 80.651H102.034L104.6 79.0897L105.138 78.2128L105.141 78.2438L105.299 80.0922C105.299 80.0922 105.561 80.9398 105.841 82.2089Z" fill="#3F3D56"/>
<path d="M112.606 82.2089H108.343C108.407 79.6274 108.059 78.2128 108.238 78.2128L108.343 78.2952L109.599 79.29L111.255 79.8991H111.257L112.398 80.319L112.599 80.3926V80.4872C112.599 80.714 112.6 81.3342 112.606 82.2089Z" fill="#3F3D56"/>
<path d="M104.465 75.3314C104.465 75.3314 104.668 74.9724 104.621 73.7732C104.574 72.5741 106.395 73.2523 107.917 73.1379C109.439 73.0235 109.117 75.1399 109.117 75.1399C109.117 75.1399 109.227 75.0141 109.462 73.9927C109.697 72.9712 109.163 71.9533 109.163 71.9533C109.006 70.8799 108.159 71.2239 108.159 71.2239C108.266 71.2512 108.359 71.3175 108.42 71.4099C108.481 71.5023 108.506 71.6142 108.489 71.7237C108.143 71.1166 107.296 71.4606 107.296 71.4606C106.166 70.7497 105.021 71.6859 105.021 71.6859C103.656 71.9965 104.456 73.0848 104.456 73.0848C103.083 73.7803 104.465 75.3314 104.465 75.3314Z" fill="#3F3D56"/>
<path d="M102.352 82.209H100.698C100.711 82.0047 100.712 81.7998 100.699 81.5954C100.601 81.2009 101.99 80.6676 102.032 80.6515L102.033 80.651H102.034L102.299 80.7937L102.352 82.209Z" fill="#3F3D56"/>
<path d="M112.905 82.2089H111.168L110.951 80.0623L111.194 79.8842C111.194 79.8842 111.216 79.8891 111.255 79.8991H111.256C111.653 79.9896 112.037 80.1307 112.398 80.319C112.475 80.3621 112.543 80.4192 112.599 80.4872C112.633 80.5283 112.65 80.581 112.646 80.6344C112.637 80.7146 112.739 81.3055 112.905 82.2089Z" fill="#3F3D56"/>
<path d="M119.182 59.9232H95.0638C95.0037 59.9283 94.9441 59.9095 94.8976 59.871C94.8512 59.8324 94.8217 59.7772 94.8154 59.7171V40.2082C94.8217 40.1481 94.8512 40.0928 94.8976 40.0543C94.9441 40.0158 95.0037 39.997 95.0638 40.0021H119.182C119.242 39.997 119.301 40.0158 119.348 40.0543C119.394 40.0928 119.424 40.1481 119.43 40.2082V59.7171C119.424 59.7772 119.394 59.8324 119.348 59.871C119.301 59.9095 119.242 59.9283 119.182 59.9232Z" fill="#F0F0F0"/>
<path d="M116.56 42.1599H97.6854C97.6195 42.16 97.5564 42.1863 97.5099 42.2329C97.4633 42.2796 97.4371 42.3429 97.437 42.4089V57.0702C97.4371 57.1362 97.4633 57.1994 97.5099 57.2461C97.5564 57.2928 97.6195 57.319 97.6854 57.3191H116.56C116.626 57.319 116.689 57.2928 116.736 57.2461C116.782 57.1994 116.809 57.1362 116.809 57.0702V42.4089C116.809 42.3429 116.782 42.2796 116.736 42.2329C116.689 42.1863 116.626 42.16 116.56 42.1599Z" fill="white"/>
<path d="M111.769 57.3191C111.875 56.9346 111.958 56.6032 112 56.3686C112.014 56.2963 112.015 56.2223 112.004 56.1495C111.845 55.0159 108.974 54.0576 108.606 53.9392L108.517 52.9522L104.904 52.5622L104.446 53.8247L103.149 54.3121C103.102 54.3295 103.058 54.3526 103.016 54.3807C102.907 54.4544 102.824 54.5597 102.776 54.6824C102.729 54.8052 102.721 54.9395 102.752 55.0673L103.304 57.3191H111.769L111.769 57.3191Z" fill="#03DAC5"/>
<path d="M104.277 57.3191H101.473C101.574 56.6917 101.664 56.1368 101.722 55.7838C101.936 54.4991 102.87 54.3896 103.016 54.3807C103.028 54.3796 103.035 54.3796 103.036 54.3796H103.626L104.277 57.3191Z" fill="#03DAC5"/>
<path d="M111.769 57.3191H112.449C112.416 56.8945 112.261 56.4885 112.004 56.1495C111.875 55.9787 111.709 55.84 111.518 55.7439L111.467 55.7218L110.869 57.3191H111.769Z" fill="#03DAC5"/>
<path d="M106.57 51.9375C108.007 51.9375 109.172 50.7697 109.172 49.3291C109.172 47.8885 108.007 46.7206 106.57 46.7206C105.133 46.7206 103.968 47.8885 103.968 49.3291C103.968 50.7697 105.133 51.9375 106.57 51.9375Z" fill="#A0616A"/>
<path d="M104.823 48.0582C105.092 48.3778 105.548 48.4679 105.969 48.5046C106.952 48.559 107.938 48.4783 108.899 48.2648C108.959 48.8435 108.796 49.4675 109.136 49.9436C109.296 49.3672 109.388 48.7744 109.412 48.1768C109.438 47.9204 109.404 47.6616 109.315 47.4201C109.267 47.299 109.186 47.1939 109.082 47.1167C108.977 47.0394 108.853 46.9931 108.723 46.983C108.917 46.8356 109.144 46.7383 109.385 46.6997L108.558 46.2835L108.771 46.0652L107.275 45.9734L107.708 45.6975C107.056 45.6077 106.396 45.5869 105.739 45.6355C105.433 45.6356 105.132 45.7194 104.869 45.878C104.622 46.0551 104.479 46.407 104.633 46.6669C104.441 46.6985 104.26 46.7787 104.107 46.8999C103.955 47.0211 103.836 47.1793 103.762 47.3595C103.668 47.6459 103.645 47.951 103.696 48.2483C103.752 48.7252 103.863 49.194 104.025 49.6458" fill="#3F3D56"/>
<path d="M30.4912 84.2606V40.1464C30.5066 40.0095 30.5749 39.8841 30.6814 39.797C30.7879 39.7099 30.9241 39.6681 31.061 39.6804H86.3917C86.5286 39.6681 86.6648 39.7099 86.7713 39.797C86.8778 39.8841 86.946 40.0095 86.9615 40.1464V84.2606C86.946 84.3975 86.8778 84.5229 86.7713 84.61C86.6648 84.6971 86.5286 84.7389 86.3917 84.7266H31.061C30.9241 84.7389 30.7879 84.6971 30.6814 84.61C30.5749 84.5229 30.5066 84.3975 30.4912 84.2606Z" fill="#E4E4E4"/>
<path d="M36.5054 45.2018V78.8374C36.5056 78.9888 36.5657 79.1339 36.6725 79.241C36.7793 79.3481 36.9241 79.4083 37.0751 79.4086H80.3774C80.5285 79.4083 80.6733 79.3481 80.7801 79.241C80.8869 79.1339 80.947 78.9888 80.9472 78.8374V45.2018C80.947 45.0504 80.8869 44.9052 80.7801 44.7982C80.6733 44.6911 80.5285 44.6308 80.3774 44.6306H37.0751C36.9241 44.6308 36.7793 44.6911 36.6725 44.7982C36.5657 44.9052 36.5056 45.0504 36.5054 45.2018Z" fill="white"/>
<path d="M54.4658 79.4086H63.1807L62.6376 71.2371L59.4937 71.9643L56.436 70.7852L56.3549 70.7547L56.3498 70.7522C56.3487 70.7546 56.3479 70.7572 56.3473 70.7598C56.2992 70.954 55.3395 74.8062 54.4658 79.4086Z" fill="#03DAC5"/>
<path d="M49.2134 72.5711L50.0275 79.4085H57.3725L56.4356 70.7852L56.4267 70.7013L56.3546 70.7546L56.347 70.7598L54.535 72.0849L49.2134 72.5711Z" fill="#3F3D56"/>
<path d="M61.8916 79.4086H68.4692L68.5642 74.0256L63.7237 72.4162L62.6374 71.2371C62.6374 71.2371 62.2942 74.7847 61.8916 79.4086Z" fill="#3F3D56"/>
<path d="M46.0469 79.4085H51.4977L51.1482 74.5104L49.2135 72.571C49.2135 72.571 47.6828 75.7898 46.0469 79.4085Z" fill="#3F3D56"/>
<path d="M66.9185 79.4085H69.7939C69.7812 77.8397 69.7736 76.7558 69.7736 76.4499C69.788 75.977 69.6851 75.508 69.4741 75.0848C69.263 74.6617 68.9504 74.2977 68.5644 74.0256L67.1122 74.5104L66.9185 79.4085Z" fill="#3F3D56"/>
<path d="M67.3669 68.6656H52.1304V62.228C52.1304 60.0217 53.6809 57.3692 55.5867 56.315C58.2617 54.8355 61.1861 54.8095 63.61 56.244C64.7509 56.9212 65.6969 57.8838 66.3554 59.0374C67.014 60.1911 67.3625 61.4963 67.3669 62.8255V68.6656Z" fill="#3F3D56"/>
<path d="M64.8796 65.6363C66.3375 62.9628 65.3573 59.6108 62.6904 58.1493C60.0235 56.6878 56.6796 57.6704 55.2218 60.3439C53.7639 63.0174 54.744 66.3695 57.4109 67.8309C60.0779 69.2924 63.4217 68.3099 64.8796 65.6363Z" fill="#FFB8B8"/>
<path d="M65.2809 63.2748H57.4296L57.411 63.1854C57.3201 62.7163 57.2027 62.2527 57.0593 61.7969C56.7475 62.2548 56.46 62.7288 56.198 63.217L56.166 63.2748H54.6396C54.5459 63.2747 54.4533 63.255 54.3677 63.2171C54.282 63.1791 54.2052 63.1236 54.1421 63.0542C54.1006 63.0084 54.0035 62.9011 54.4055 57.9815C54.4165 57.8644 54.4578 57.7521 54.5251 57.6557C54.5925 57.5594 54.6837 57.4822 54.7897 57.4317C58.2346 55.8196 61.7256 55.8622 65.1665 57.5592H65.2279L65.2494 57.6447C65.9282 62.8809 65.8306 62.994 65.7889 63.0423C65.7258 63.1153 65.6478 63.1738 65.5601 63.2139C65.4725 63.2541 65.3772 63.2748 65.2809 63.2748Z" fill="#3F3D56"/>
</svg>
