<svg width="150" height="150" viewBox="0 0 150 150" fill="none" xmlns="http://www.w3.org/2000/svg">
<path d="M97.5582 45.4772C97.5388 45.4805 97.5098 45.4855 97.4745 45.4913C96.785 45.606 92.6159 46.2522 88.4126 44.6437C86.632 43.9622 87.2394 43.7924 83.2737 41.4234C78.6242 38.646 77.431 38.6654 77.0848 37.3703C76.3934 34.7842 80.0851 30.7189 82.5285 30.9866C83.1718 31.0571 83.8608 31.4424 84.9324 31.1811C85.1678 31.1237 86.1984 30.8725 86.7008 30.0155C87.149 29.251 86.7694 28.6995 86.9497 28.0725C87.4228 26.4267 91.3667 25.6054 94.8245 26.1857C96.8132 26.5195 98.3601 27.4307 101.373 29.2395C106.616 32.3879 109.238 33.9621 109.827 36.3739C110.385 38.6598 109.045 39.6448 110.02 42.0919C110.928 44.3704 112.369 44.2182 112.865 46.0614C113.664 49.0275 110.701 52.2828 109.466 53.6388C108.113 55.1256 106.819 55.9416 105.1 57.0248C102.944 58.3845 101.865 59.0644 100.569 58.9952C98.2182 58.8698 91.2333 59.2967 91.1422 57.3426C91.1081 56.6102 82.6367 57.2099 86.808 49.3254C87.3197 48.3584 97.3428 49.3913 97.4751 48.8358" fill="#2F2E41"/>
<path d="M101.684 50L109 61.5176L88 66L89.3376 51.5803L101.684 50Z" fill="#FFB6B6"/>
<path opacity="0.1" d="M101.684 50L109 61.5176L88 66L89.3376 51.5803L101.684 50Z" fill="black"/>
<path d="M86.3491 57.9457L108.929 57L118.964 62.5168L118.494 97.9819L129 118L76 107.912L80.0769 92.7804L78.1953 60.9406L86.3491 57.9457Z" fill="#03DAC5"/>
<path d="M8.60746 126.182C7.88734 125.039 7.8023 123.626 8.38001 122.403L16.9649 104.232C17.6056 102.876 18.983 102 20.4739 102H128.908C130.357 102 131.676 102.803 132.349 104.096L141.551 121.766C142.187 122.988 142.145 124.422 141.439 125.604C140.733 126.785 139.494 127.494 138.125 127.499L11.9042 128H11.8884C10.5504 128 9.32465 127.321 8.60746 126.182Z" fill="white"/>
<path d="M8.60746 126.182C7.88734 125.039 7.8023 123.626 8.38001 122.403L16.9649 104.232C17.6056 102.876 18.983 102 20.4739 102H128.908C130.357 102 131.676 102.803 132.349 104.096L141.551 121.766C142.187 122.988 142.145 124.422 141.439 125.604C140.733 126.785 139.494 127.494 138.125 127.499L11.9042 128H11.8884C10.5504 128 9.32465 127.321 8.60746 126.182ZM20.4739 102.411C19.1395 102.411 17.9067 103.195 17.3332 104.409L8.74833 122.58C8.23123 123.674 8.30732 124.939 8.95188 125.962C9.59386 126.982 10.6908 127.589 11.8885 127.589H11.9027L138.123 127.089C139.349 127.084 140.458 126.449 141.09 125.392C141.722 124.334 141.759 123.05 141.19 121.957L131.988 104.287C131.385 103.13 130.205 102.411 128.908 102.411H20.4739Z" fill="#3F3D56"/>
<path d="M118.619 121.996L74.3702 118.659C73.7169 118.61 73.1959 118.126 73.0429 117.428C72.8898 116.73 73.1538 116.04 73.7153 115.67L83.4999 109.23C83.7483 109.066 84.0333 108.987 84.3222 109.002L122.597 110.91C123.103 110.935 123.555 111.239 123.806 111.721C124.057 112.204 124.065 112.785 123.827 113.276L120.017 121.145C119.761 121.673 119.259 122 118.719 122C118.686 122 118.652 121.999 118.619 121.996Z" fill="#3F3D56"/>
<path d="M74 116.642L118.482 120L122 111.648L83.8585 110L74 116.642Z" fill="white"/>
<path d="M95.5 54C102.956 54 109 48.1797 109 41C109 33.8203 102.956 28 95.5 28C88.0442 28 82 33.8203 82 41C82 48.1797 88.0442 54 95.5 54Z" fill="#FFB6B6"/>
<path d="M100.129 41.4772C100.109 41.4805 100.079 41.4855 100.043 41.4913C99.3345 41.606 95.0497 42.2522 90.7296 40.6437C88.8995 39.9623 89.5238 39.7924 85.4479 37.4234C80.6693 34.646 79.443 34.6654 79.0871 33.3703C78.3766 30.7843 82.1708 26.7189 84.6821 26.9866C85.3433 27.0571 86.0514 27.4424 87.1527 27.1811C87.3947 27.1237 88.4539 26.8725 88.9703 26.0155C89.4309 25.251 89.0408 24.6995 89.226 24.0725C89.7123 22.4267 93.7658 21.6054 97.3196 22.1857C99.3636 22.5195 100.953 23.4307 104.05 25.2395C109.439 28.3879 112.133 29.9621 112.739 32.3739C113.313 34.6598 111.935 35.6448 112.937 38.0919C113.87 40.3704 115.352 40.2182 115.862 42.0614C116.682 45.0275 113.637 48.2828 112.368 49.6388C110.977 51.1256 109.647 51.9416 107.881 53.0248C105.664 54.3845 104.556 55.0644 103.223 54.9952C100.808 54.8698 98.4046 52.7298 98.311 50.7757C98.2759 50.0433 98.5885 49.8237 99.362 47.3061C99.6843 46.2572 99.9078 45.3913 100.044 44.8358" fill="#2F2E41"/>
<path d="M108.475 112.791C109.313 112.827 109.951 113.63 109.997 114.499C110.045 115.402 109.458 116.234 108.752 116.664C107.926 117.167 106.894 117.248 105.963 117.161C105.126 117.083 104.215 116.805 103.677 116.066C103.223 115.445 103.057 114.505 103.442 113.8C103.824 113.1 104.637 112.907 105.317 113.188C106.037 113.485 106.489 114.184 106.494 115.011C106.499 115.927 106.004 116.773 105.309 117.28C104.56 117.826 103.616 118.002 102.725 118C101.753 117.998 100.785 117.78 99.891 117.375C99.0534 116.996 98.2164 116.449 97.6175 115.705C97.056 115.009 96.7199 114.042 97.0316 113.138C97.2872 112.397 97.9331 111.943 98.6727 112.006C99.3499 112.063 100.035 112.483 100.335 113.152C100.674 113.906 100.522 114.812 100.091 115.486C99.5923 116.265 98.8046 116.703 97.93 116.766C96.9991 116.833 96.0771 116.48 95.3114 115.933C94.6023 115.427 93.9791 114.779 93.2178 114.358C92.8514 114.156 92.4527 114.027 92.0379 114.027C91.5097 114.028 91.0019 114.213 90.4883 114.321C90.0529 114.412 89.6041 114.465 89.1745 114.317C88.8068 114.189 88.4628 113.956 88.2312 113.622C88.0121 113.305 87.9352 112.909 88.0593 112.533C88.1566 112.239 88.5986 112.366 88.5003 112.663C88.2733 113.35 89.0518 113.855 89.5967 113.918C90.0101 113.966 90.4366 113.838 90.8354 113.738C91.2511 113.634 91.6761 113.528 92.1059 113.539C93.6284 113.579 94.6349 114.97 95.8625 115.725C97.1532 116.519 99.0432 116.574 99.8336 114.997C100.121 114.425 100.18 113.663 99.7856 113.128C99.4571 112.683 98.8734 112.416 98.3445 112.502C97.6802 112.611 97.3493 113.287 97.3735 113.959C97.403 114.782 97.9395 115.45 98.5118 115.943C99.7855 117.04 101.475 117.599 103.104 117.501C103.868 117.455 104.681 117.242 105.274 116.698C105.787 116.228 106.138 115.464 106.014 114.732C105.908 114.098 105.411 113.618 104.81 113.554C104.195 113.489 103.715 113.955 103.688 114.611C103.657 115.349 104.067 115.965 104.661 116.301C105.335 116.682 106.151 116.729 106.897 116.687C107.689 116.643 108.515 116.42 109.069 115.775C109.542 115.225 109.722 114.409 109.286 113.773C109.093 113.492 108.804 113.294 108.475 113.28C108.181 113.268 108.18 112.779 108.475 112.791Z" fill="#03DAC5"/>
<path d="M88.0054 111.54L88.2424 110.103L101.393 85.4483C101.611 85.0399 102.127 84.8815 102.543 85.0951C102.959 85.3088 103.121 85.8149 102.903 86.2233L89.7583 110.867L88.6837 111.888C88.5566 112.008 88.3732 112.034 88.2167 111.954C88.0603 111.873 87.9774 111.711 88.0054 111.54Z" fill="#3F3D56"/>
<path d="M96.64 95.9559C98.1265 96.2349 99.5244 96.8647 100.717 97.7926L100.784 97.8071L100.797 97.7404L115.157 99.9826L114.117 80.9421L125 75L122.428 107.185C121.871 109.24 119.731 110.441 117.679 109.849L99.3995 104.607L99.4452 104.383L99.3813 104.366C97.9203 104.759 96.3863 104.797 94.9076 104.477C91.1978 103.729 88.5782 101.214 89.0563 98.8607C89.5345 96.5073 92.929 95.2067 96.64 95.9559Z" fill="#FFB6B6"/>
<path d="M107 66.3834L118.84 63C118.84 63 125.059 67.6906 125.808 72.7656C125.898 73.3692 126.145 101.485 125.883 102.216C123.947 107.633 113.294 98.9867 113.294 98.9867L107 66.3834Z" fill="#03DAC5"/>
<path d="M52.4931 117.623L51.2236 116.504C51.0346 116.337 50.8048 116.227 50.559 116.184L22.2734 111.336C21.6278 111.225 21.1509 110.746 21.0287 110.084C20.9066 109.423 21.1794 108.797 21.7407 108.45L31.8317 102.223C32.169 102.015 32.5659 101.95 32.9498 102.039L68.8137 110.372C69.511 110.534 69.9763 111.114 69.9991 111.849C70.022 112.583 69.5936 113.192 68.9077 113.4L53.9125 117.936C53.7702 117.979 53.6251 118 53.4812 118C53.1233 118 52.7731 117.87 52.4931 117.623Z" fill="#3F3D56"/>
<path d="M39.353 81.9485C40.7792 82.5071 42.0478 83.3916 43.0528 84.5281L43.1168 84.5551L43.1434 84.4926L57.0098 89.4461L71.8152 66L80 70.9614L62.8336 97.8853C61.873 99.7876 59.5041 100.55 57.5766 99.5764L40.3962 90.9369L40.4859 90.7265L40.4257 90.6974C38.8925 90.8005 37.3564 90.5428 35.946 89.9461C32.3972 88.501 30.2829 85.5387 31.2235 83.3299C32.1642 81.1211 35.8031 80.5024 39.353 81.9485Z" fill="#FFB6B6"/>
<path d="M87 69.7755L80.419 60C80.419 60 72.5877 61.5397 69.3617 65.7023C68.9585 66.2226 55.1072 86.1771 55.0179 87.0479C54.3933 93.1438 70.3129 96 70.3129 96L87 69.7755Z" fill="#03DAC5"/>
<path d="M51.8819 117.974L19.7498 113.502C18.6744 113.353 17.7868 112.577 17.4884 111.526L10.1085 85.5201C9.85847 84.6386 10.0452 83.7259 10.6207 83.0158C11.1963 82.3056 12.0467 81.9386 12.9548 82.0084L45.3279 84.5056C46.4991 84.5959 47.4823 85.4263 47.7746 86.5717L54.9134 114.552C55.1412 115.445 54.9134 116.389 54.3039 117.077C53.7791 117.669 53.0349 118 52.2591 118C52.134 118 52.0079 117.991 51.8819 117.974Z" fill="#3F3D56"/>
<path d="M45.3424 63.9692C45.5335 64.1788 46.2271 63.9653 47.6065 63.5297C48.655 63.1986 48.8165 63.0781 48.9162 62.9917C49.2668 62.688 49.3587 62.3686 49.706 60.9578C50.3293 58.4255 50.3486 58.1741 50.6687 57.6367C50.7789 57.4517 51.0574 57.0103 50.9895 56.9556C50.9197 56.8993 50.6184 57.3592 50.0615 57.5329C49.5187 57.7022 49.2744 57.431 48.811 57.5001C48.212 57.5894 47.8559 58.1566 47.2972 59.0747C46.8025 59.8878 46.7403 60.2148 46.0467 61.8303C45.8502 62.2879 45.692 62.6421 45.5705 62.9221C44.2088 64.1891 42.8582 65.4729 41.5198 66.7678C41.5456 66.7285 41.5699 66.6914 41.591 66.6592C42.1838 65.7518 42.2643 65.2653 42.2557 64.9008C42.2418 64.3103 41.9589 63.8605 41.3936 62.9849C40.8397 62.127 40.3149 61.5609 39.6825 60.8853C38.8536 59.9999 38.4392 59.5571 38.2741 59.5862C37.0953 59.7942 36.78 67.7964 38.2632 69.2275C38.0551 69.3758 37.8827 69.5311 37.758 69.6839C36.4883 68.2785 34.3133 66.7084 31.9038 66.5151C30.4184 66.3959 29.5986 66.8606 29.3436 67.0202C28.1654 67.7579 27.4648 69.2345 27.8167 69.6512C28.1448 70.0397 29.0923 69.1565 30.9494 69.2051C32.2453 69.2391 33.2575 69.7077 33.8584 69.986C35.119 70.5696 35.5801 71.1434 36.5095 71.5365C36.0738 71.8945 35.7286 72.3412 35.5119 72.7578C35.4368 72.835 35.362 72.9126 35.2869 72.9898C34.3279 72.451 33.248 72.0558 32.116 71.965C30.6305 71.8458 29.8107 72.3105 29.5558 72.4701C28.7617 72.9673 28.1863 73.7993 28.0021 74.417C27.8817 74.4412 27.7703 74.4687 27.6684 74.4984C27.3084 73.6874 26.2371 72.8321 25.2411 72.4011C23.5265 71.6591 21.2993 71.8558 21.061 72.5614C21.0534 72.5838 21.0515 72.606 21.0481 72.6283C21.2361 71.1165 21.4913 69.6153 21.8101 68.125C21.8209 68.1675 21.8345 68.2105 21.8526 68.2558C22.2758 69.3156 23.4195 70.3328 24.9785 70.8605C26.2021 71.2747 26.7146 71.06 26.8448 71C26.9692 70.9427 27.5063 70.7129 27.638 70.2559C27.882 69.4085 26.3877 66.9042 25.4451 67.7442C22.4167 70.443 22.0011 68.2577 21.862 67.8898C22.1195 66.7116 22.4158 65.5401 22.7482 64.3753C22.754 64.3825 22.7589 64.3895 22.7649 64.3966C23.4265 65.1966 24.6998 65.7602 26.1962 65.7851C27.3706 65.8046 27.7543 65.4769 27.8502 65.3889C27.9419 65.3049 28.3427 64.9572 28.3293 64.5251C28.3043 63.7242 26.875 63.0719 25.7315 62.9588C24.6777 62.8545 23.5429 63.1762 22.98 63.5835C23.2417 62.7112 23.5233 61.8427 23.8236 60.978C24.5926 61.2912 25.682 61.2491 26.7523 60.7722C27.6348 60.3789 27.8064 60.0012 27.8472 59.9023C27.8862 59.8078 28.0636 59.4093 27.9026 59.0919C27.6041 58.5033 26.3104 58.5132 25.4181 58.8261C25.0506 58.9549 24.7014 59.1531 24.402 59.3772C24.9342 57.9599 25.5143 56.5527 26.1382 55.1558L25.5129 55C24.7159 56.7844 24.0211 58.592 23.4239 60.4196C23.3497 59.8836 23.1636 59.3126 22.9186 58.8487C22.1982 57.4846 20.6594 56.4612 20.139 56.7933C20.0349 56.8597 19.9911 56.9678 19.9515 57.0966C19.6325 58.1329 19.8727 59.565 20.7128 60.8808C21.3722 61.9135 21.88 62.0585 22.0122 62.0913C22.1239 62.119 22.5551 62.2377 22.9095 62.0848C22.6712 62.899 22.4508 63.7167 22.2498 64.5381C22.008 63.9396 21.5314 63.3018 21.0274 62.8608C19.8652 61.8439 18.061 61.4369 17.6942 61.9326C17.6209 62.0317 17.6188 62.1483 17.628 62.2827C17.7019 63.3642 18.4401 64.6159 19.6967 65.545C20.683 66.2743 21.2092 66.2286 21.3445 66.212C21.4242 66.2023 21.6648 66.1784 21.8968 66.0738C21.6815 67.0718 21.4932 68.0747 21.3305 69.0818C21.005 67.9552 19.8995 66.5497 18.8562 66.9968C17.0048 67.7903 14.8284 66.5715 14.5889 67.1045C14.5266 67.2431 14.5782 67.3861 14.6378 67.5413C15.1175 68.7899 16.4422 69.9996 18.2612 70.642C19.6888 71.1462 20.2928 70.9025 20.4463 70.8342C20.548 70.789 20.8838 70.6491 21.1338 70.3897C20.9541 71.6837 20.8163 72.9844 20.7192 74.2907C20.3332 73.4505 19.2459 72.5653 18.2281 72.1089C16.4426 71.3083 14.1074 71.4837 13.8481 72.2194C13.7962 72.3665 13.8371 72.5084 13.8983 72.6677C14.3907 73.9492 15.7503 75.1909 17.6174 75.8503C19.0827 76.3678 19.7026 76.1177 19.8602 76.0476C19.9753 75.9964 20.3818 75.8271 20.641 75.5055C20.6078 76.1094 20.5822 76.7143 20.566 77.3204C20.5614 77.493 20.5587 77.6656 20.5553 77.8382C20.5343 77.8722 20.5159 77.9068 20.5037 77.9431C20.4537 78.0912 20.4877 78.2336 20.5464 78.3893C20.5451 78.4989 20.5445 78.6085 20.5437 78.7181C20.2171 78.4229 19.8274 77.9791 19.3587 77.3466C18.9358 76.7759 18.5342 77.1946 18.2762 77.6805C17.8718 77.5907 17.486 77.6463 17.1826 77.9289C15.1481 79.8236 12.8661 78.8184 12.8339 79.3833C12.8245 79.5463 12.9121 79.6759 13.0225 79.8165C13.9109 80.9478 15.6548 81.7731 17.7266 81.8601C19.3526 81.9284 19.8957 81.4879 20.0317 81.3694C20.0795 81.3278 20.1866 81.2379 20.3026 81.1115C20.3957 81.1857 20.4863 81.2529 20.5772 81.3143C20.613 82.3989 20.677 83.4822 20.7718 84.5635C20.6947 84.5704 20.6209 84.5831 20.566 84.5887C19.7784 84.6687 19.513 83.6093 18.3232 83.2223C17.928 83.0938 17.1668 82.9535 16.7657 83.2223C16.7079 83.261 16.5108 83.4066 16.205 83.5328C16.0242 83.6075 15.8861 83.6421 15.8312 83.657C15.343 83.7901 14.8909 84.1554 14.5852 84.4023C14.0105 84.8665 13.7233 85.0986 13.5884 85.5203C13.5459 85.653 13.4265 86.0262 13.5884 86.3898C13.6648 86.5616 13.8423 86.8171 14.5229 87.073C14.9273 87.2251 16.1071 87.6686 17.5133 87.1972C17.8335 87.0898 17.5891 87.1283 18.8216 86.514C19.7913 86.0307 20.3584 85.7997 20.4414 85.3339C20.4706 85.1702 20.4412 84.9706 20.566 84.8992C20.6354 84.8595 20.7192 84.8788 20.803 84.9089C20.8846 85.7782 20.9865 86.6462 21.1099 87.5124H20.0004C18.527 87.5124 17.2052 88.3298 16.551 89.6459L12.4005 97.9933C12.1385 98.5201 12 99.1095 12 99.6976V121.162C12 123.278 13.7271 125 15.8499 125H25.5376C27.6605 125 29.3876 123.278 29.3876 121.162V101.397C29.3876 100.916 29.298 100.444 29.1214 99.9953L25.1659 89.9482C24.6861 88.7297 23.647 87.8677 22.4049 87.6009C22.8033 87.13 23.2024 86.6596 23.6045 86.1906C24.1108 86.4342 24.6679 86.6341 25.2667 86.7745C26.8511 87.1458 27.4674 86.8147 27.6233 86.7238C27.7722 86.6369 28.4177 86.2838 28.5271 85.6949C28.5388 85.6319 28.5434 85.568 28.5425 85.5037C30.1654 86.8189 31.012 87.4671 31.6305 87.251C32.1622 87.0651 32.4658 86.4562 32.6396 85.9097C32.8212 85.9348 33.0137 85.9606 33.2189 85.9879C35.4416 86.2837 36.5616 86.421 36.9901 85.8961C37.583 85.1698 37.0202 83.7692 36.8651 83.3832C36.5279 82.5443 36.0093 82.0338 35.6871 81.7233C35.2687 81.32 34.0762 80.1706 32.1989 80.0173C31.7908 79.9839 31.4242 80.0095 31.0507 80.0874C30.9206 79.9688 30.7833 79.8525 30.632 79.7421C30.3439 79.5316 30.0593 79.3757 29.753 79.254C30.2228 78.7408 30.694 78.2292 31.1674 77.7197C31.2423 77.7537 31.3134 77.7865 31.3788 77.8168C32.9296 78.5348 33.2703 79.2379 34.7616 79.6081C35.4382 79.776 36.2042 79.9661 36.3938 79.6803C36.7307 79.1725 35.3007 77.0832 33.0911 75.6696C33.2401 75.5124 33.3894 75.3556 33.5388 75.1988C33.7408 75.2832 33.9189 75.3656 34.0706 75.4358C35.6213 76.1539 35.962 76.857 37.4534 77.2271C38.1299 77.395 38.8959 77.5852 39.0856 77.2993C39.3861 76.8463 38.2801 75.1336 36.4688 73.7656C36.9664 73.6081 37.6261 73.4335 38.4804 73.4559C39.7763 73.4899 40.7885 73.9585 41.3894 74.2368C42.9401 74.9548 43.2808 75.6579 44.7722 76.028C45.4487 76.1959 46.2147 76.3861 46.4044 76.1002C46.9052 75.3454 43.5037 71.0924 39.4348 70.7659C39.119 70.7406 38.835 70.7427 38.5784 70.7616C38.5429 70.703 38.5044 70.6429 38.4639 70.5817C39.8406 70.6258 42.5292 70.2335 44.8176 71.8351C45.4774 72.297 46.7593 73.3834 48.9046 74.276C49.5902 74.5613 49.935 74.7015 50.03 74.5844C50.3699 74.1651 47.5435 70.714 43.5672 69.0138C41.9906 68.3398 41.0165 68.276 40.3237 68.3781C40.4305 68.2568 40.5346 68.1315 40.6347 68.0057C42.1831 66.4918 43.751 64.9938 45.3329 63.5159C45.2563 63.7519 45.2589 63.8776 45.3424 63.9692ZM25.4726 82.8113C23.7237 82.2469 21.606 82.5501 21.0538 83.1923C20.976 82.6231 20.9083 82.0531 20.8526 81.4821C21.6493 81.9257 22.4807 82.0445 24.0577 82.2544C24.7294 82.3438 25.2988 82.4182 25.7805 82.4648C25.8451 82.6396 25.9141 82.7969 25.9942 82.9474C26.0035 82.9648 26.0134 82.9815 26.0229 82.9987L26.0089 83.0146C25.8293 82.9369 25.6494 82.8684 25.4726 82.8113ZM20.8261 75.1649C20.876 74.9999 20.877 74.8242 20.8389 74.6431C20.8933 73.987 20.9613 73.3329 21.0416 72.6808C21.0396 72.7806 21.0713 72.8805 21.1146 72.9888C21.6008 74.2061 22.9145 75.3744 24.7052 75.9806C25.0392 76.0937 25.3258 76.165 25.5726 76.2085C25.464 76.3972 25.3808 76.581 25.3256 76.751C24.7152 76.2621 23.9293 75.9066 23.0377 76.2838C22.7951 76.3864 22.6511 76.7619 22.526 77.2109C21.7023 77.2251 21.014 77.3964 20.6862 77.6863C20.6879 77.5654 20.6873 77.4447 20.6906 77.3237C20.7091 76.6335 20.7432 75.9456 20.7913 75.2598C20.8044 75.2291 20.8162 75.1976 20.8261 75.1649ZM20.6885 78.7147C20.724 78.7871 20.7629 78.8592 20.8033 78.9311C20.7666 78.9042 20.7291 78.8753 20.6906 78.844C20.6896 78.8009 20.6893 78.7577 20.6885 78.7147ZM22.0949 87.5478C21.999 87.5353 21.9022 87.5262 21.8045 87.5207C21.579 86.4048 21.3708 85.2896 21.1966 84.1723C21.6548 84.8974 22.4027 85.5612 23.3555 86.0645C22.9327 86.5577 22.5135 87.0526 22.0949 87.5478ZM29.4762 79.1551C28.8798 78.9642 28.1799 78.8728 27.2113 78.7607C26.9659 78.4205 26.7129 78.17 26.5258 77.9897C26.4245 77.8921 26.269 77.6984 26.0675 77.4718C26.5896 77.3048 27.3688 77.0071 28.4698 77.036C29.4705 77.0622 30.301 77.3474 30.9046 77.6042C30.4265 78.1192 29.9507 78.6364 29.4762 79.1551ZM32.8562 75.5235C32.2702 75.1705 31.6346 74.8682 30.9655 74.6557C31.0305 74.6551 31.0942 74.6532 31.1616 74.655C31.9913 74.6767 32.704 74.8768 33.2676 75.0908C33.1304 75.235 32.9931 75.379 32.8562 75.5235Z" fill="#CCCCCC"/>
</svg>
