<svg width="16" height="16" viewBox="0 0 16 16" fill="none" xmlns="http://www.w3.org/2000/svg">
<path d="M2.89455 11.8042C2.49788 12.1885 2.49788 12.8115 2.89455 13.1958C3.29123 13.5801 3.93436 13.5801 4.33103 13.1958L2.89455 11.8042ZM13.09 4.71051C13.4867 4.32624 13.4867 3.7032 13.09 3.31892C12.6934 2.93465 12.0502 2.93465 11.6536 3.31892L13.09 4.71051ZM4.33103 13.1958L13.09 4.71051L11.6536 3.31892L2.89455 11.8042L4.33103 13.1958Z" fill="#676767"/>
<path d="M4.33103 3.3042C3.93436 2.91993 3.29123 2.91993 2.89455 3.3042C2.49788 3.68848 2.49788 4.31152 2.89455 4.6958L4.33103 3.3042ZM11.6536 13.1811C12.0502 13.5654 12.6934 13.5654 13.09 13.1811C13.4867 12.7968 13.4867 12.1738 13.09 11.7895L11.6536 13.1811ZM2.89455 4.6958L11.6536 13.1811L13.09 11.7895L4.33103 3.3042L2.89455 4.6958Z" fill="#676767"/>
</svg>
