<svg width="24" height="24" viewBox="0 0 24 24" fill="none" xmlns="http://www.w3.org/2000/svg">
<path d="M7.80737 8.96053H9.57898V8.73045C9.57898 8.0406 9.57974 7.35037 9.57898 6.66053C9.57822 6.07654 9.63936 5.50389 9.86988 4.96248C10.1934 4.20271 10.7703 3.7406 11.5211 3.48709C12.0429 3.31092 12.5822 3.24373 13.129 3.24099C13.9201 3.23709 14.7111 3.23943 15.5022 3.23982C15.5459 3.23982 15.5895 3.24646 15.6469 3.25115V6.29451C15.5747 6.29842 15.5022 6.30506 15.4296 6.30584C14.8163 6.31287 14.2022 6.30506 13.5893 6.33045C13.2437 6.3449 13.0705 6.50662 13.047 6.86443C13.0094 7.4281 13.0204 7.99529 13.0117 8.56092C13.0098 8.68904 13.0117 8.81756 13.0117 8.96248H15.6583C15.5728 9.95623 15.4893 10.9297 15.4042 11.9199H13.0174V20.7461H9.5843V11.9695H7.80813V8.96053H7.80737Z" fill="#5A5959"/>
</svg>
