<svg width="24" height="24" viewBox="0 0 24 24" fill="none" xmlns="http://www.w3.org/2000/svg">
<path d="M7.10046 2C11.0102 2 14.9195 2 18.8292 2C18.8504 2.01328 18.87 2.03008 18.8927 2.03867C19.3545 2.21914 19.548 2.57148 19.4549 3.07305C19.2734 4.05039 19.0907 5.02773 18.9077 6.00508C18.3736 8.86016 17.8402 11.7152 17.3034 14.5695C17.1838 15.2059 16.9215 15.4199 16.2897 15.4203C15.1233 15.4207 13.9566 15.4223 12.7903 15.418C12.6638 15.4176 12.578 15.457 12.4926 15.552C10.7064 17.5359 8.91593 19.516 7.13008 21.5008C6.9428 21.709 6.75245 21.9035 6.4848 22H6.1387C5.64263 21.8168 5.47689 21.4504 5.47766 20.9262C5.48728 15.3309 5.48381 9.73555 5.48381 4.14023C5.48381 4.04258 5.48035 3.94492 5.48612 3.84766C5.51919 3.29609 5.73723 2.83789 6.14524 2.46719C6.42173 2.21602 6.76091 2.11133 7.10008 2.00039L7.10046 2ZM16.555 9.54922C16.4573 9.54922 16.382 9.54922 16.3062 9.54922C14.9091 9.54922 13.5121 9.54922 12.115 9.54922C12.0254 9.54922 11.9354 9.54922 11.8462 9.5418C11.3459 9.5 10.999 8.99922 11.1267 8.50586C11.2332 8.09492 11.5493 7.86602 12.0231 7.86563C13.5805 7.86406 15.1376 7.86328 16.695 7.86836C16.8288 7.86875 16.883 7.83359 16.908 7.69492C17.1049 6.61484 17.3107 5.53594 17.5125 4.45664C17.5595 4.20508 17.6025 3.95273 17.6502 3.68281H17.4295C14.1293 3.68281 10.8287 3.68281 7.52846 3.68281C7.19814 3.68281 7.14046 3.74219 7.14046 4.08203C7.14046 8.9707 7.14046 13.8598 7.14046 18.7484V18.9914C7.22352 18.9 7.26967 18.8496 7.31505 18.7992C8.70097 17.2637 10.0923 15.7336 11.4674 14.1887C11.7528 13.868 12.0662 13.7199 12.4907 13.727C13.5094 13.7437 14.5284 13.7277 15.5475 13.7367C15.7198 13.7383 15.7901 13.6957 15.8217 13.5164C15.9686 12.6781 16.1309 11.8426 16.287 11.0059C16.3758 10.5285 16.4627 10.0512 16.555 9.55V9.54922Z" fill="#5A5959"/>
</svg>
