<svg width="24" height="24" viewBox="0 0 24 24" fill="none" xmlns="http://www.w3.org/2000/svg">
<path d="M2 11.9973C2.0363 10.5317 2.05249 9.06512 2.11479 7.6C2.1663 6.38415 2.47683 5.23713 3.21612 4.24301C4.19774 2.92343 5.55416 2.24397 7.1539 2.13089C8.73352 2.01879 10.322 2.01141 11.9065 2.00158C13.3694 1.99273 14.8327 2.02174 16.2946 2.07041C17.5323 2.11171 18.7063 2.40867 19.7247 3.15893C20.9526 4.06356 21.6438 5.30695 21.8189 6.7991C21.9474 7.89401 21.969 9.00464 21.9847 10.1089C22.0078 11.7471 22.0063 13.3862 21.9695 15.0244C21.9504 15.8814 21.9131 16.7516 21.7458 17.5884C21.2793 19.9252 19.6305 21.4921 17.263 21.8126C16.1102 21.9685 14.9328 21.9793 13.7663 21.9926C11.9683 22.0127 10.1694 21.9881 8.37149 21.9636C7.37956 21.9498 6.39401 21.8554 5.46242 21.4744C3.68412 20.7462 2.62547 19.4045 2.27177 17.5367C2.11725 16.7216 2.08928 15.8774 2.06132 15.0446C2.02698 14.0298 2.05298 13.0131 2.05298 11.9973H2ZM20.2329 12.0022C20.1942 10.5381 20.176 9.06315 20.1088 7.59115C20.0661 6.65898 19.813 5.78286 19.164 5.06604C18.4482 4.27596 17.5166 3.93672 16.4948 3.89886C14.6743 3.83101 12.8513 3.8025 11.0294 3.80495C9.73968 3.80692 8.44311 3.82069 7.16224 3.95048C5.62872 4.10584 4.54457 4.93772 4.12023 6.46921C3.97306 6.9997 3.90193 7.56559 3.89163 8.11722C3.85287 10.2136 3.83815 12.3105 3.84551 14.4074C3.84846 15.2491 3.88574 16.0962 3.9868 16.931C4.18253 18.5481 5.1774 19.6331 6.75114 19.9817C7.23435 20.0889 7.73767 20.141 8.23314 20.1484C10.2435 20.1794 12.2538 20.1975 14.2647 20.1897C15.1374 20.1862 16.0145 20.1479 16.8818 20.053C17.9689 19.934 18.8804 19.4532 19.4907 18.5048C19.9042 17.8617 20.0838 17.1365 20.1127 16.3838C20.1691 14.9271 20.1946 13.4698 20.2334 12.0017L20.2329 12.0022Z" fill="#5A5959"/>
<path d="M12.0105 17.137C9.20057 17.1473 6.89098 14.8371 6.88411 12.0086C6.87724 9.18308 9.17653 6.86692 11.9929 6.86249C14.8377 6.85807 17.1325 9.14473 17.1394 11.9909C17.1463 14.8336 14.8612 17.1262 12.01 17.137H12.0105ZM15.3444 11.9973C15.3425 10.1516 13.8428 8.65997 11.9943 8.66439C10.1689 8.66882 8.68253 10.1747 8.68743 12.014C8.69234 13.8365 10.1851 15.3336 11.9988 15.3351C13.8467 15.3366 15.3464 13.8405 15.3444 11.9968V11.9973Z" fill="#5A5959"/>
</svg>
