<svg width="24" height="24" viewBox="0 0 24 24" fill="none" xmlns="http://www.w3.org/2000/svg">
<path d="M0 12C0 11.4477 0.447715 11 1 11H23C23.5523 11 24 11.4477 24 12C24 12.5523 23.5523 13 23 13H1C0.447716 13 0 12.5523 0 12Z" fill="#5A5959"/>
<path d="M0 6C0 5.44772 0.447715 5 1 5H23C23.5523 5 24 5.44772 24 6C24 6.55228 23.5523 7 23 7H1C0.447716 7 0 6.55228 0 6Z" fill="#5A5959"/>
<path d="M12 18C12 17.4477 12.4477 17 13 17H23C23.5523 17 24 17.4477 24 18C24 18.5523 23.5523 19 23 19H13C12.4477 19 12 18.5523 12 18Z" fill="#5A5959"/>
</svg>
