<svg width="24" height="24" viewBox="0 0 24 24" fill="none" xmlns="http://www.w3.org/2000/svg">
<path d="M13 4H14.98C15.124 4.715 15.52 5.617 16.215 6.512C16.895 7.389 17.797 8 19 8V10C17.247 10 15.93 9.186 15 8.171V15C15 15.9889 14.7068 16.9556 14.1573 17.7779C13.6079 18.6001 12.8271 19.241 11.9134 19.6194C10.9998 19.9978 9.99446 20.0969 9.02455 19.9039C8.05465 19.711 7.16373 19.2348 6.46447 18.5355C5.76521 17.8363 5.289 16.9454 5.09608 15.9755C4.90315 15.0055 5.00217 14.0002 5.3806 13.0866C5.75904 12.173 6.39991 11.3921 7.22215 10.8427C8.0444 10.2932 9.0111 10 10 10V12C9.40666 12 8.82664 12.1759 8.33329 12.5056C7.83994 12.8352 7.45543 13.3038 7.22836 13.8519C7.0013 14.4001 6.94189 15.0033 7.05765 15.5853C7.1734 16.1672 7.45912 16.7018 7.87868 17.1213C8.29824 17.5409 8.83279 17.8266 9.41473 17.9424C9.99667 18.0581 10.5999 17.9987 11.1481 17.7716C11.6962 17.5446 12.1648 17.1601 12.4944 16.6667C12.8241 16.1734 13 15.5933 13 15V4Z" fill="#5A5959"/>
</svg>
