<svg width="24" height="24" viewBox="0 0 24 24" fill="none" xmlns="http://www.w3.org/2000/svg">
<path d="M2.00156 17.7064V17.4336C2.1961 17.0413 2.34219 16.9668 2.78945 16.9879C4.07773 17.0483 5.31484 16.8297 6.48984 16.29C6.52578 16.2737 6.55625 16.2456 6.60703 16.2109C5.41445 15.7422 4.60938 14.9131 4.09688 13.7792C3.95703 13.4699 3.91367 13.187 4.17109 12.9189C4.14531 12.8901 4.13047 12.8691 4.11172 12.8527C3.1793 12.0282 2.73281 10.9743 2.63633 9.75355C2.6168 9.50769 2.68789 9.3004 2.90352 9.16793C3 9.1087 3.11563 9.08104 3.22266 9.03935C3.21914 9.02571 3.21836 9.01207 3.2125 9.00078C3.1918 8.96025 3.16836 8.92129 3.14805 8.88077C2.45547 7.49523 2.51719 6.1284 3.2625 4.78455C3.45429 4.43894 3.89141 4.38595 4.17969 4.65714C4.25547 4.72844 4.32422 4.80637 4.39531 4.88235C5.94804 6.53907 7.81172 7.66083 10.0453 8.14046C10.4109 8.21878 10.7824 8.26904 11.1809 8.33762C11.1809 8.20943 11.1785 8.11981 11.1809 8.0302C11.2383 6.11671 12.4805 4.5083 14.3262 3.98113C15.8445 3.54746 17.2344 3.828 18.4828 4.78806C18.6246 4.89715 18.7363 4.91157 18.9 4.84923C19.4766 4.62987 20.0598 4.42804 20.6391 4.21607C20.8875 4.12529 21.1164 4.14516 21.3062 4.33647C21.4953 4.527 21.525 4.75767 21.4203 5.00158C21.3137 5.24977 21.1988 5.49446 21.0723 5.77461C21.5004 5.67954 21.827 5.79604 22 6.20983V6.48257C21.9078 6.60492 21.8297 6.74207 21.7211 6.84766C21.2461 7.30977 20.7562 7.75707 20.2867 8.22463C20.1969 8.31385 20.1434 8.46659 20.1266 8.59712C20.0383 9.27157 20.0238 9.96044 19.8805 10.622C19.0488 14.4607 16.8332 17.2115 13.2434 18.8254C11.3211 19.6896 9.28906 19.9292 7.19766 19.7017C5.48828 19.5158 3.88477 19.0112 2.40039 18.1365C2.21875 18.0294 2.08711 17.893 2 17.7068L2.00156 17.7064ZM5.57617 13.9554L5.54688 14.0056C5.71836 14.1864 5.87774 14.3808 6.06367 14.5457C6.6668 15.0802 7.40508 15.2918 8.1832 15.4013C8.49844 15.4457 8.68242 15.5965 8.7457 15.8591C8.8039 16.1011 8.70117 16.3321 8.45234 16.5059C7.53789 17.1445 6.54492 17.6152 5.4625 17.8934C5.30977 17.9327 5.15508 17.9655 4.99063 18.0037C5.01446 18.0317 5.02031 18.0453 5.02969 18.0492C5.07227 18.0656 5.11523 18.0804 5.15898 18.0933C7.33867 18.7447 9.52461 18.8079 11.7137 18.1466C15.9434 16.8694 18.8422 13.0405 18.9461 8.58387C18.9574 8.10228 19.1242 7.7146 19.4629 7.38925C19.5336 7.32106 19.6207 7.26963 19.7004 7.2108C19.6832 7.19404 19.6656 7.17768 19.6484 7.16093C19.3039 7.23535 19.0512 7.15703 18.918 6.90844C18.7047 6.51102 18.8805 6.22425 19.2246 5.98774C18.6461 6.22074 18.1812 6.04696 17.7309 5.68421C17.05 5.13483 16.2551 4.91547 15.3813 4.96222C13.9293 5.04015 12.6836 6.08982 12.4195 7.51432C12.3328 7.98305 12.3457 8.47087 12.3164 8.94973C12.2926 9.34093 12.0187 9.57626 11.6254 9.53847C11.5801 9.53418 11.5348 9.5299 11.4895 9.52639C9.03906 9.34404 6.84571 8.5036 4.92696 6.96611C4.59883 6.70311 4.28711 6.41906 3.96172 6.1397C3.9457 6.18801 3.92656 6.23009 3.91797 6.27373C3.66992 7.5038 4.06289 8.50906 4.99844 9.31989C5.15508 9.45587 5.33203 9.56847 5.49492 9.69744C5.70547 9.86381 5.77578 10.1194 5.68476 10.3606C5.59062 10.6104 5.3625 10.7569 5.08672 10.7327C4.98438 10.7237 4.88359 10.6918 4.78281 10.6665C4.51016 10.5975 4.23828 10.5262 3.95195 10.4526C4.04531 10.8578 4.2582 11.2708 4.53086 11.6C5.00039 12.1665 5.61524 12.5203 6.28438 12.7954C6.61133 12.9298 6.77305 13.1866 6.71641 13.4703C6.65586 13.7742 6.41719 13.9499 6.05586 13.955C5.89609 13.9573 5.73633 13.955 5.57617 13.955V13.9554Z" fill="#5A5959"/>
</svg>
