<svg width="24" height="25" viewBox="0 0 24 25" fill="none" xmlns="http://www.w3.org/2000/svg">
<path d="M2.41765 22.7307C2.53899 22.3448 2.64552 22.0031 2.75397 21.6625C3.1906 20.2932 3.63153 18.9254 4.06005 17.5531C4.09492 17.4419 4.08824 17.2785 4.03473 17.18C1.77369 13.0255 2.59106 7.75403 5.99433 4.58954C10.0769 0.793471 16.3126 1.34585 19.744 5.80802C23.2696 10.3925 22.2845 17.3084 17.6029 20.509C14.4829 22.6418 11.2182 22.7718 7.87989 21.0639C7.76715 21.006 7.60042 20.9974 7.47956 21.0375C5.83955 21.5807 4.20289 22.1366 2.56575 22.6895C2.53565 22.6997 2.5046 22.7063 2.41718 22.7307H2.41765ZM4.8201 20.2328C4.94049 20.1977 5.02265 20.1774 5.10291 20.15C5.96663 19.8566 6.82843 19.5585 7.69453 19.2737C7.7939 19.2412 7.93721 19.2412 8.02225 19.2945C10.6674 20.9512 13.3722 21.072 16.1043 19.591C19.2773 17.8715 20.967 13.9048 20.1348 10.2458C19.122 5.79076 15.1149 2.99282 10.8642 3.82037C5.18078 4.92665 2.39902 11.8014 5.69289 16.9317C5.75213 17.0241 5.77172 17.1851 5.74401 17.2947C5.65658 17.6369 5.53716 17.9694 5.43062 18.3061C5.23142 18.9351 5.03221 19.5641 4.82058 20.2328H4.8201Z" fill="#5A5959"/>
<path d="M9.1458 7.56468C9.58769 7.43065 9.73674 7.78807 9.88101 8.17087C10.0879 8.7202 10.32 9.25836 10.5154 9.81226C10.5651 9.9529 10.5694 10.1651 10.5025 10.288C10.3449 10.5774 10.1452 10.8444 9.9369 11.0973C9.78738 11.279 9.76206 11.4364 9.87958 11.6425C10.6477 12.9889 11.7045 13.9713 13.0903 14.5461C13.29 14.6288 13.4438 14.5917 13.5771 14.4171C13.8074 14.115 14.0501 13.8231 14.2684 13.5114C14.406 13.3144 14.5655 13.2565 14.7638 13.354C15.4202 13.6769 16.0722 14.0094 16.7262 14.3374C16.8973 14.4232 16.8963 14.5862 16.8915 14.7491C16.8595 15.7818 16.2366 16.5459 15.2678 16.785C14.7729 16.9074 14.3009 16.8749 13.8102 16.7439C11.0008 15.992 9.10328 14.0627 7.75755 11.4405C7.29894 10.5469 7.20483 9.58329 7.65675 8.63999C7.80532 8.33029 8.03367 8.05664 8.25533 7.79467C8.47652 7.53371 8.78369 7.50782 9.14532 7.56468H9.1458Z" fill="#5A5959"/>
</svg>
