<svg width="24" height="24" viewBox="0 0 24 24" fill="none" xmlns="http://www.w3.org/2000/svg">
<path d="M22 8.90308V15.0969C21.9656 15.3121 21.9434 15.5304 21.8949 15.7425C21.4473 17.6937 19.809 18.9958 17.7906 18.9978C13.9301 19.0013 10.0699 19.0009 6.20938 18.9951C5.90547 18.9947 5.59258 18.9773 5.29922 18.906C3.6793 18.5132 2.61406 17.5292 2.15742 15.9283C2.08047 15.6582 2.05117 15.3744 2 15.0969C2 13.0323 2 10.9677 2 8.90308C2.03438 8.68787 2.05664 8.46957 2.10508 8.25745C2.55273 6.30625 4.19102 5.00416 6.20938 5.00223C10.0699 4.99874 13.9301 4.99913 17.7906 5.00494C18.0945 5.00532 18.4074 5.02274 18.7008 5.09396C20.3207 5.48683 21.3859 6.47076 21.8426 8.07166C21.9195 8.34184 21.9488 8.62556 22 8.90308ZM9.23907 12.0116C9.23907 12.624 9.23907 13.2367 9.23907 13.849C9.23907 14.1068 9.2332 14.365 9.24414 14.6224C9.25469 14.8666 9.39844 14.9475 9.62813 14.8535C9.6582 14.8411 9.68672 14.826 9.71602 14.812C11.4277 14.0031 13.1398 13.1945 14.8516 12.3855C14.9102 12.3576 14.9711 12.3333 15.0258 12.2996C15.2129 12.1846 15.2184 12.0039 15.0395 11.88C14.9973 11.8506 14.9496 11.8285 14.9031 11.8053C13.1703 10.9356 11.4375 10.0662 9.7043 9.19725C9.65234 9.17132 9.5996 9.14229 9.54414 9.12913C9.38398 9.09081 9.27656 9.16203 9.25117 9.32382C9.23906 9.39969 9.23946 9.47788 9.23907 9.55529C9.23828 10.3739 9.23867 11.193 9.23867 12.0116H9.23907Z" fill="#5A5959"/>
</svg>
